<?xml version="1.0" encoding="iso-8859-1"?>
<!-- Generator: Adobe Illustrator 19.0.0, SVG Export Plug-In . SVG Version: 6.00 Build 0)  -->
<svg version="1.1" id="Capa_1" xmlns="http://www.w3.org/2000/svg" xmlns:xlink="http://www.w3.org/1999/xlink" x="0px" y="0px"
	 viewBox="0 0 512 512" style="enable-background:new 0 0 512 512;" xml:space="preserve">
<g>
	<g>
		<path d="M324.267,42.667c-1.536,0-3.038,0.41-4.361,1.195L4.173,231.595c-3.302,1.963-4.881,5.897-3.866,9.6
			c1.016,3.703,4.386,6.272,8.226,6.272h494.933c4.719,0,8.533-3.823,8.533-8.533V230.4C512,126.882,427.785,42.667,324.267,42.667z
			 M39.586,230.4L326.579,59.75c93.047,1.246,168.354,77.32,168.354,170.65H39.586z"/>
	</g>
</g>
<g>
	<g>
		<path d="M384,273.067c-23.526,0-42.667,19.14-42.667,42.667c0,23.526,19.14,42.667,42.667,42.667
			c23.526,0,42.667-19.14,42.667-42.667C426.667,292.207,407.526,273.067,384,273.067z M384,341.333
			c-14.114,0-25.6-11.486-25.6-25.6s11.486-25.6,25.6-25.6s25.6,11.486,25.6,25.6S398.114,341.333,384,341.333z"/>
	</g>
</g>
<g>
	<g>
		<rect x="281.6" y="273.067" width="17.067" height="17.067"/>
	</g>
</g>
<g>
	<g>
		<rect x="76.8" y="358.4" width="17.067" height="17.067"/>
	</g>
</g>
<g>
	<g>
		<rect x="460.8" y="358.4" width="17.067" height="17.067"/>
	</g>
</g>
<g>
	<g>
		<rect x="187.733" y="307.2" width="17.067" height="17.067"/>
	</g>
</g>
<g>
	<g>
		<path d="M503.467,230.4H8.533c-4.71,0-8.533,3.823-8.533,8.533V307.2c0,4.719,3.823,8.533,8.533,8.533
			c18.825,0,34.133,15.309,34.133,34.133C42.667,368.691,27.358,384,8.533,384C3.823,384,0,387.814,0,392.533V460.8
			c0,4.719,3.823,8.533,8.533,8.533h290.133c4.719,0,8.533-3.814,8.533-8.533c0-14.114,11.486-25.6,25.6-25.6
			c14.114,0,25.6,11.486,25.6,25.6c0,4.719,3.814,8.533,8.533,8.533h136.533c4.719,0,8.533-3.814,8.533-8.533V238.933
			C512,234.223,508.186,230.4,503.467,230.4z M494.933,452.267h-120.32c-3.968-19.447-21.205-34.133-41.813-34.133
			c-20.608,0-37.837,14.686-41.805,34.133H17.067v-51.908c24.183-4.079,42.667-25.165,42.667-50.492
			c0-25.327-18.483-46.413-42.667-50.492v-51.908h477.867V452.267z"/>
	</g>
</g>
<g>
	<g>
		<path d="M204.8,358.4c-18.825,0-34.133,15.309-34.133,34.133c0,18.825,15.309,34.133,34.133,34.133s34.133-15.309,34.133-34.133
			C238.933,373.709,223.625,358.4,204.8,358.4z M204.8,409.6c-9.412,0-17.067-7.654-17.067-17.067
			c0-9.412,7.654-17.067,17.067-17.067c9.412,0,17.067,7.654,17.067,17.067C221.867,401.946,214.212,409.6,204.8,409.6z"/>
	</g>
</g>
<g>
	<g>
		<rect x="290.133" y="366.933" width="17.067" height="17.067"/>
	</g>
</g>
<g>
	<g>
		<path d="M128,273.067c-14.114,0-25.6,11.486-25.6,25.6s11.486,25.6,25.6,25.6s25.6-11.486,25.6-25.6S142.114,273.067,128,273.067z
			 M128,307.2c-4.702,0-8.533-3.823-8.533-8.533s3.831-8.533,8.533-8.533s8.533,3.823,8.533,8.533S132.702,307.2,128,307.2z"/>
	</g>
</g>
<g>
	<g>
		<rect x="426.667" y="401.067" width="17.067" height="17.067"/>
	</g>
</g>
<g>
</g>
<g>
</g>
<g>
</g>
<g>
</g>
<g>
</g>
<g>
</g>
<g>
</g>
<g>
</g>
<g>
</g>
<g>
</g>
<g>
</g>
<g>
</g>
<g>
</g>
<g>
</g>
<g>
</g>
</svg>
