<svg width="43" height="43" viewBox="0 0 43 43" fill="none" xmlns="http://www.w3.org/2000/svg">
<path d="M10.8116 36.0816L10.469 35.7175L10.0636 36.099L10.4862 36.4613L10.8116 36.0816ZM4.58754 37.9496L5.07975 37.8617L5.02034 37.529L4.68948 37.4601L4.58754 37.9496ZM6.14416 31.1004L5.88701 31.5292L6.21148 31.7238L6.48693 31.4645L6.14416 31.1004ZM13.6136 28.2985L13.9873 27.9663L13.9775 27.9554L13.9671 27.945L13.6136 28.2985ZM22.0193 1.21364L21.7733 0.778366L22.0193 1.21364ZM41.3215 19.5811L41.7132 19.8918L41.7132 19.8918L41.3215 19.5811ZM24.8213 3.70319L24.4892 3.3294L24.8213 3.70319ZM38.5 17.5L38.2686 17.0568L38.5 17.5ZM10.4862 36.4613C11.4311 37.2711 11.6237 38.2053 11.4117 39.0543C11.1914 39.9361 10.5208 40.7649 9.66965 41.2514C8.8225 41.7356 7.86977 41.8435 7.06277 41.4183C6.25408 40.9921 5.45413 39.9582 5.07975 37.8617L4.09532 38.0375C4.49926 40.2995 5.4113 41.6784 6.59658 42.3029C7.78355 42.9284 9.10679 42.725 10.1659 42.1196C11.2211 41.5164 12.087 40.4773 12.3819 39.2966C12.685 38.083 12.3715 36.7601 11.137 35.702L10.4862 36.4613ZM11.0915 25.7552L5.8014 30.7364L6.48693 31.4645L11.7771 26.4833L11.0915 25.7552ZM6.40131 30.6716C5.10032 29.8914 3.78637 29.857 2.68899 30.307C1.60668 30.7509 0.762546 31.654 0.345918 32.7065C-0.0728902 33.7645 -0.0690922 35.0022 0.593529 36.089C1.25549 37.1747 2.5258 38.0309 4.48559 38.4391L4.68948 37.4601C2.91205 37.0899 1.92429 36.3507 1.44734 35.5684C0.971053 34.7872 0.955103 33.8845 1.27572 33.0746C1.59852 32.2591 2.25297 31.5667 3.06844 31.2323C3.86884 30.904 4.85185 30.9085 5.88701 31.5292L6.40131 30.6716ZM11.0807 26.4728L13.26 28.6521L13.9671 27.945L11.7878 25.7657L11.0807 26.4728ZM13.2399 28.6307L15.7305 31.4326L16.4779 30.7683L13.9873 27.9663L13.2399 28.6307ZM15.7615 30.7363L10.469 35.7175L11.1543 36.4457L16.4468 31.4645L15.7615 30.7363ZM11.9333 26.1504C12.1383 22.8701 12.9823 17.7032 14.6631 12.8614C16.3532 7.99254 18.8454 3.5821 22.2654 1.64891L21.7733 0.778366C18.0153 2.90264 15.4225 7.6242 13.7184 12.5334C12.0049 17.4696 11.1453 22.7268 10.9353 26.0881L11.9333 26.1504ZM22.2654 1.64891C23.8451 0.755919 26.0164 0.990797 28.4403 2.08723C30.8442 3.17458 33.3785 5.06001 35.5769 7.249C37.7757 9.43845 39.6075 11.9008 40.6292 14.1183C41.6711 16.3796 41.7876 18.1887 40.9297 19.2704L41.7132 19.8918C42.9541 18.3271 42.6023 16.011 41.5374 13.6998C40.4523 11.3447 38.5388 8.78714 36.2824 6.54039C34.0256 4.29317 31.3949 2.32617 28.8525 1.17611C26.33 0.0351077 23.7738 -0.352441 21.7733 0.778366L22.2654 1.64891ZM40.9297 19.2704C38.6121 22.1926 29.3573 30.1092 16.0857 30.6008L16.1227 31.6001C29.7495 31.0954 39.2572 22.9884 41.7132 19.8918L40.9297 19.2704ZM15.3589 20.5154C15.3589 19.7144 15.4497 18.4111 15.7215 17.1325C15.9983 15.8307 16.442 14.6582 17.0804 14.0198L16.3733 13.3127C15.5173 14.1687 15.027 15.5906 14.7434 16.9246C14.4548 18.2819 14.3589 19.656 14.3589 20.5154H15.3589ZM18.9483 10.5952L20.1936 9.34995L19.4865 8.64284L18.2412 9.88814L18.9483 10.5952ZM41.0166 19.1847C40.1947 19.8169 38.7289 19.9461 36.8338 19.4332C34.9687 18.9285 32.8115 17.8313 30.7406 16.2144C26.5973 12.9794 22.8822 7.73207 22.5186 1.1859L21.5201 1.24137C21.9036 8.14528 25.816 13.6381 30.1252 17.0026C32.2805 18.6854 34.5558 19.8527 36.5725 20.3985C38.5593 20.9361 40.4246 20.9017 41.6263 19.9774L41.0166 19.1847ZM24.4892 3.3294C24.2386 3.552 24.1879 3.86366 24.1962 4.10874C24.2046 4.35931 24.2755 4.63498 24.3762 4.91342C24.5795 5.47509 24.9497 6.16901 25.4272 6.92896C26.3865 8.45581 27.8326 10.3341 29.4291 12.1076C31.0241 13.8793 32.7893 15.569 34.3917 16.7053C35.1912 17.2722 35.9724 17.7173 36.6876 17.9587C37.3943 18.1971 38.1187 18.2631 38.7314 17.9432L38.2686 17.0568C38.0063 17.1937 37.6014 17.2116 37.0073 17.0112C36.4219 16.8136 35.731 16.4291 34.9701 15.8895C33.4515 14.8127 31.7421 13.1823 30.1724 11.4385C28.6042 9.69654 27.1957 7.86406 26.2739 6.39696C25.8109 5.65993 25.4841 5.03607 25.3165 4.57315C25.2319 4.33929 25.199 4.17598 25.1956 4.0751C25.192 3.96873 25.2214 4.01649 25.1533 4.07698L24.4892 3.3294ZM38.7314 17.9432C39.0424 17.7809 39.2621 17.5293 39.3791 17.2129C39.4913 16.9097 39.4988 16.5764 39.4504 16.2476C39.3547 15.5968 39.0197 14.8319 38.5533 14.0304C37.6129 12.4142 36.0339 10.4757 34.2816 8.68519C32.5283 6.89371 30.5722 5.22045 28.8612 4.14763C28.0088 3.61319 27.1895 3.20998 26.4691 3.02734C25.7625 2.84821 25.0253 2.85309 24.4892 3.3294L25.1533 4.07698C25.3178 3.9309 25.6345 3.84739 26.2233 3.99667C26.7983 4.14244 27.5159 4.48445 28.3299 4.99487C29.9517 6.01176 31.8465 7.62675 33.5669 9.38463C35.2883 11.1435 36.8058 13.0155 37.689 14.5334C38.1345 15.299 38.3932 15.9321 38.4611 16.3931C38.4945 16.6201 38.4763 16.7712 38.4412 16.866C38.411 16.9478 38.3618 17.0081 38.2686 17.0568L38.7314 17.9432Z" fill="#C4C4C4"/>
<ellipse cx="32.1057" cy="10.428" rx="0.62265" ry="0.933974" transform="rotate(-36.9139 32.1057 10.428)" fill="#C4C4C4"/>
</svg>
