<svg width="116" height="97" viewBox="0 0 116 97" fill="none" xmlns="http://www.w3.org/2000/svg">
<path d="M116 56.7504C115.93 42.9504 93.48 31.8704 65.86 32.0104C38.25 32.1504 15.93 43.4504 16 57.2604C16.08 71.0704 38.52 82.1404 66.14 82.0004C93.75 81.8604 116.07 70.5504 116 56.7504Z" fill="url(#paint0_radial)"/>
<path d="M110.72 34.9504V52.3504C110.72 52.3504 100.46 72.0004 66.0101 72.0004C31.7501 72.0004 21.3 52.3504 21.3 52.3504V34.9504H110.72V34.9504Z" fill="url(#paint1_linear)"/>
<path d="M111 33.2604C111 19.3104 90.86 8.0004 66.01 8.0004C41.16 8.0004 21.02 19.3104 21.02 33.2604C21.02 47.2104 41.16 58.5204 66.01 58.5204C90.86 58.5304 111 47.2204 111 33.2604Z" fill="url(#paint2_linear)"/>
<path d="M66.01 58.5304C85.95 58.5304 102.85 51.2404 108.75 41.1604V31.3004C108.75 42.9304 89.61 52.3504 66.01 52.3504C42.4 52.3504 23.27 42.9204 23.27 31.3004V41.1504C29.17 51.2404 46.07 58.5304 66.01 58.5304Z" fill="url(#paint3_linear)"/>
<path d="M36.29 14.3604C26.26 20.5404 22.69 28.0704 22.69 33.2604C22.69 47.0104 43.66 56.2004 52.5 57.4004C34.18 54.2004 21.01 44.6004 21.01 33.2604C21.01 33.2604 19.98 22.0404 36.29 14.3604Z" fill="#B07500"/>
<path d="M95.71 14.3604C105.74 20.5404 109.31 28.0704 109.31 33.2604C109.31 47.0104 88.34 56.2004 79.5 57.4004C97.82 54.2004 110.99 44.6004 110.99 33.2604C110.99 33.2604 112.02 22.0404 95.71 14.3604Z" fill="#B07500"/>
<path d="M111 33.2604C111 19.3104 90.86 8.0004 66.01 8.0004C41.16 8.0004 21.02 19.3104 21.02 33.2604C21.02 47.2104 41.16 58.5204 66.01 58.5204C90.86 58.5304 111 47.2204 111 33.2604Z" stroke="#FFEC9C"/>
<path d="M74.83 51.9004C76.63 51.7104 78.39 51.4704 80.1 51.1804L76.25 41.5904H103.3C103.89 41.0804 104.43 40.5504 104.93 40.0104H74.84V51.9004H74.83Z" fill="#B07500"/>
<path d="M105.74 18.9604C105.66 25.7304 105.33 33.0604 105.33 40.0704C95.77 39.2604 82.08 41.0504 74.34 40.0704L68.08 19.6904L105.74 18.9604Z" fill="url(#paint4_linear)"/>
<path d="M105.25 37.7904C100.43 38.7704 100.3 36.5704 94.74 38.2804C93.51 38.6604 90.13 37.1904 87.57 38.0304C84.6 39.0104 84.11 37.9104 82.75 37.9104C81.51 37.9104 81.02 38.5204 79.91 38.2804C79.29 38.1604 77.85 37.1704 76.32 37.7904C75.7 35.3404 71.99 23.7304 71.99 22.7504C74.22 24.1004 78.22 21.5404 79.66 21.8904C82.63 22.6204 85.22 22.9904 88.32 22.0104C90.42 22.7404 92.77 21.1504 97.72 21.8904C101.15 22.4004 103.66 22.5004 105.76 21.5204L105.84 19.8504L69.4 21.1504L74.22 39.6104H105.13L105.25 37.7904Z" fill="url(#paint5_linear)"/>
<path d="M74.85 37.6304L26.69 18.2304C25.88 21.7604 26.01 25.4504 26.69 28.9904C27.15 32.5104 26.52 36.0704 26.72 39.6004C33.26 47.1004 48.39 52.3504 66.01 52.3504C69.1 52.3504 72.1 52.1904 75 51.8804C75.06 46.9904 74.95 42.0604 74.85 37.6304Z" fill="url(#paint6_radial)"/>
<path d="M55 42.3304C58.64 42.3804 65.15 43.9604 68.74 43.0204C70.44 42.5704 71.65 41.8104 73.38 42.4804C73.89 42.6804 74.91 42.2404 74.91 42.2404L74.92 41.6604C74.92 41.6604 72.78 41.6104 72.22 41.5604C71.02 41.4604 69.44 42.3304 68.25 42.4904C64.95 42.9404 62.14 41.9504 58.82 42.3004C58.76 42.3204 55 42.3304 55 42.3304Z" fill="url(#paint7_linear)"/>
<path d="M26.25 25.0604C27.08 26.5604 28.17 30.0004 29.67 31.0004C30.67 31.6704 32.5 31.6704 33.67 32.3304C35.5 33.5004 36.67 35.0004 38.84 35.6604C40.17 35.9904 41.51 35.8304 42.67 36.3304C44.84 37.0004 45.34 37.6604 47.67 37.6604C49.67 37.4904 50.84 38.4904 52.67 39.1604C56.17 40.1604 59.67 39.3304 63.17 39.6604C65.34 39.9904 67.34 39.4904 69.5 39.8304C71.33 40.0004 72.83 40.5004 74.67 40.0004L74.73 37.4404C74.73 37.4404 65.79 39.7104 46.31 34.7704C26.83 29.8304 26.5 20.7504 26.5 20.7504L26.25 25.0604Z" fill="url(#paint8_radial)"/>
<path d="M74.83 38.6904C75.98 39.6704 76.64 38.6104 77.8 38.6104C78.46 38.6104 78.95 39.4304 79.61 39.2604C80.1 39.2604 81.26 38.5304 82.08 38.5304C83.56 38.5304 83.73 39.5104 85.54 39.1804C87.19 38.8504 88.67 38.4504 90.32 38.4504C92.68 38.4504 93.91 39.9904 96.75 38.5304C98.81 37.4704 100.05 39.2604 101.37 39.1004C102.69 38.9404 103.92 38.2904 105.41 38.4504L105.25 40.2404L74.92 40.4804L74.83 38.6904Z" fill="url(#paint9_radial)"/>
<path d="M26.76 18.2304C26.76 18.1904 26.62 18.1904 26.61 18.2304C25.48 22.4704 26.24 26.4204 26.41 30.7104C26.52 33.4904 26.16 36.2004 26.18 38.9404C26.61 39.4904 27.09 40.0304 27.61 40.5504C27.42 39.6204 27.3 38.6404 27.28 37.6004C27.17 31.1104 26.1 24.7104 26.76 18.2304Z" fill="url(#paint10_linear)"/>
<path d="M27.46 32.2904C27.74 33.3104 28.81 33.9904 29.18 34.9804C29.52 35.9204 31.34 37.0104 31.82 36.0704C29.46 34.6204 26.72 29.2104 26.77 29.2304C26.76 29.2304 27.23 31.4304 27.46 32.2904Z" fill="url(#paint11_linear)"/>
<path d="M74.83 47.0804V46.4104C72.75 46.2304 70.42 46.6704 68.11 46.9604C68.41 45.7504 68.76 44.5304 69.1 43.3204C69.11 43.3004 69.02 43.2904 69.01 43.3204C68.67 44.3304 68.15 45.6204 67.65 47.0204C66.2 47.1904 64.77 47.2804 63.43 47.0904C63.19 44.7604 63.22 42.3704 63.16 40.0604C63.16 40.0404 63.1 40.0404 63.1 40.0604C63.05 42.2104 62.91 44.6004 62.95 47.0004C62.89 46.9904 57.29 45.4504 54.26 45.4304C53.47 45.4204 52.55 45.3704 51.56 45.2704C51.66 42.8804 51.73 40.4904 51.99 38.1004C51.99 38.0704 51.87 38.0604 51.87 38.1004C51.31 40.4204 50.86 42.7804 50.53 45.1504C46.25 44.6104 40.98 43.2804 38.27 41.1704C40.57 43.4704 45.92 45.2104 50.43 45.8104C50.24 47.0204 49.9 48.6804 49.75 50.2704C50.34 50.3904 50.93 50.5004 51.53 50.6104C51.64 48.3604 51.54 46.0104 51.55 45.9304C51.88 45.9604 57.24 46.5104 59.79 47.3104C60.25 47.4504 61.54 47.7004 62.99 47.9004C63.03 49.2304 63.14 50.5404 63.34 51.8104C63.78 51.8204 64.23 51.8304 64.67 51.8404C64.1 49.8904 63.59 48.1404 63.56 47.9704C64.92 48.1404 66.34 48.2604 67.26 48.2004C66.86 49.4004 66.52 50.6504 66.33 51.8504C66.69 51.8504 67.04 51.8404 67.4 51.8404C67.43 50.6004 67.61 49.3704 67.87 48.1304C69.03 47.9504 70.96 47.5504 74.83 47.0804Z" fill="url(#paint12_linear)"/>
<path d="M35.5 42.4604C34.33 40.7704 34.39 38.2504 33.57 36.3604C33.56 36.3404 33.47 36.3404 33.48 36.3704C34.25 38.4004 33.95 40.5404 34.87 42.5004C35.44 43.7104 36.09 44.9104 36.7 46.1204C37.15 46.3204 37.61 46.5104 38.07 46.7104C37.88 46.4004 37.7 46.0904 37.53 45.7504C36.92 44.5504 36.27 43.5804 35.5 42.4604Z" fill="#D9A40C"/>
<path d="M74.94 37.6304C74.93 37.5804 74.56 37.7304 74.56 37.7304C74.65 41.3504 74.66 47.2604 74.63 51.9304C74.81 51.9104 74.99 51.8904 75.18 51.8704C75.26 47.3204 75.27 41.0904 74.94 37.6304Z" fill="url(#paint13_radial)"/>
<path d="M105.82 19.8604C103.51 22.3004 101.2 20.7604 98.4 21.0804C96.75 21.2404 93.45 20.8404 91.81 21.1604C90.49 21.3204 89.34 21.8104 88.18 21.0004C85.05 22.9604 81.92 20.5104 78.78 21.1604C77.13 21.4904 75.81 22.3004 74 22.1404C72.85 22.1404 71.2 21.6504 70.04 21.6504L69.63 20.1804L105.74 18.9604L105.82 19.8604Z" fill="url(#paint14_radial)"/>
<path d="M105.47 18.8604C105.53 25.7404 105.28 33.0404 105.1 40.1304C105.1 40.2204 105.48 40.2804 105.49 40.2304C106.2 33.7804 106.03 24.3504 105.82 18.8804C105.81 18.8804 105.47 18.8604 105.47 18.8604Z" fill="url(#paint15_radial)"/>
<path d="M74.85 37.6304C72.87 32.0104 71.36 25.8104 69.63 20.1904C69.63 20.1904 99.88 20.0304 105.74 18.9704C104.95 13.0704 101.16 9.2404 96.1 6.6504C88.51 2.7504 80.65 -0.439599 73.24 0.160401C64.62 0.850401 56.23 0.6004 47.69 2.5304C43.96 3.3704 40.49 5.1004 36.95 6.4904C34.52 7.4504 31.02 8.5704 29.65 10.9804C25.36 16.5204 26.35 21.3304 26.68 22.4704C27.34 24.9104 29.32 25.8904 30.97 27.6904C33.77 30.9504 37.73 31.9304 41.69 33.7204C45.98 35.6804 60.48 37.1404 64.11 37.6304C67.41 38.1204 71.39 38.1204 74.85 37.6304Z" fill="url(#paint16_radial)"/>
<path d="M56.25 9.45041C53.73 9.20041 51.21 10.7104 50.26 12.4804C49.94 12.9904 52.15 13.2404 51.84 13.9904C51.52 14.7504 50.58 14.4904 49.95 15.2504C48.69 16.7604 46.17 16.7604 46.8 19.0304C47.43 21.8004 52.48 21.5504 55.63 22.0604C59.73 23.0704 60.04 24.8304 63.2 26.3504C67.61 28.6204 67.3 25.3404 68.88 23.0704C69.2 23.0704 69.32 20.6104 69.32 20.6104C70.85 20.6104 81.02 20.4304 83.55 20.1804C81.58 18.6704 84.82 16.1404 86.39 14.1204C88.28 11.8504 81.18 14.7504 78.97 13.9904C75.19 12.9804 71.4 11.9704 67.93 10.7104C64.76 9.4504 59.71 7.93041 56.25 9.45041Z" fill="url(#paint17_radial)"/>
<path d="M64.44 34.8204C63.33 33.7404 62.38 33.5904 60.84 33.4704C59.6 33.3704 59.02 31.9004 58.09 31.1704C56.41 29.8504 54.11 29.0804 52.15 28.3104C49.28 27.2004 47.46 25.7304 45.09 23.8504C44.48 23.3604 40.35 22.7004 42.41 21.6304C43.7 20.9604 43.91 20.5904 43.26 19.3004C42.93 18.6604 41.62 18.3204 41 18.3104C40.01 18.3004 39.8 18.3104 38.81 18.3904C39.37 18.3404 41.21 16.3904 41.77 15.8404C41.95 15.6704 41.41 15.5604 41.35 15.5504C39.86 15.3304 34.53 17.3504 33.22 17.9404C34.85 17.2104 34.24 15.7504 38.37 14.3804C38.38 12.9404 40.87 11.2104 42.18 10.4404C42.24 10.4004 42.7 9.44042 41.74 9.43042C37.73 9.38042 45.2 6.78042 46.41 6.28042C48.5 5.41042 45.24 4.66042 43.91 3.68042L43.42 3.84042C43.7 4.18042 44.18 4.61042 44.78 4.79042C47.23 5.51042 43.45 6.97042 42.82 7.21042C41.28 7.79042 39.94 8.38042 38.74 9.50042C38.48 9.74042 39.05 9.81042 39.2 9.82042C41.98 9.96042 38.11 12.6504 36.96 13.1304C35.9 15.2504 33.36 15.8804 32.35 18.3504C32.2 18.7304 33.19 18.6504 33.36 18.5804C34.57 18.0904 35.75 17.5304 36.95 17.0104C39.68 15.8104 38.31 17.4804 37.52 18.6804C37.35 18.9304 38.09 18.9604 38.19 18.9404C39.69 18.7204 43.49 20.2804 41.31 21.4004C40.45 21.8404 40.34 21.7304 39.98 22.5804C39.91 22.7504 40.03 22.8704 40.17 22.8904C42.41 23.3004 44.02 24.7604 45.78 25.9304C43.1 25.0604 33.69 22.1304 32.79 20.5704C32.42 19.9404 32.48 19.6004 31.52 19.3804C30.98 19.2504 30.38 19.3204 29.84 19.3804C29.11 19.4604 28.9 18.0404 28.43 17.8504C27.29 17.4004 28.07 15.4804 26.98 16.0704C26.77 16.1804 26.56 17.8804 26.46 18.3004C27.39 17.5704 27.7 19.1904 28.19 19.7104C28.19 19.9104 28.66 19.8304 28.77 19.8804C31.36 21.3204 41.92 25.2004 47.44 27.0004C48.18 27.4504 48.94 27.8804 49.77 28.2104C52.29 29.2204 58.36 30.3104 58.48 33.7304C58.49 33.9704 58.99 33.9904 59.14 33.9904C60.89 34.0304 62.31 34.5404 63.91 34.9804C63.99 34.9904 64.58 34.9604 64.44 34.8204Z" fill="url(#paint18_radial)"/>
<path d="M66.46 0.830408C63.59 2.65041 60.09 3.56041 56.71 3.79041C55.59 3.86041 53.8 3.83041 52.88 4.62041C49.42 7.56041 44.38 11.3504 38.55 13.3504C38.2 13.4704 37.39 14.7304 37.55 14.6804C44.88 12.3504 50.4 6.46041 56.51 5.52041C60.62 4.89041 63.4 3.42041 66.63 0.860407C66.68 0.830407 66.5 0.810408 66.46 0.830408Z" fill="url(#paint19_radial)"/>
<path d="M29.45 21.8104C30 23.5504 31.23 24.6804 32.64 25.8704C34.81 27.7004 37.4 30.2704 40.11 31.1904C40.82 31.4304 42.37 31.5404 43.1 31.6104C45.51 31.8504 47.7 33.4604 49.95 34.2304C52.16 34.9804 56.11 34.6904 57.98 35.8204C58.3 36.0204 57.17 34.6904 56.05 34.6804C52.09 34.6304 49.96 32.6704 46.35 31.8304C45.35 31.6004 44.23 31.5504 43.21 31.4504C39.73 31.1304 37.77 28.8604 35.78 27.1804C33.35 25.1304 30.81 24.9604 29.57 21.7904C29.56 21.7704 29.44 21.7804 29.45 21.8104Z" fill="url(#paint20_radial)"/>
<path d="M69.58 34.4604C68.3 36.3304 67.91 36.2904 66.91 36.4604C70.41 36.9604 71.32 36.4404 71.74 35.4604C72.67 33.3304 70.31 27.8604 70.32 27.8804C70.33 27.8804 71.42 31.7904 69.58 34.4604Z" fill="url(#paint21_radial)"/>
<path d="M66.61 7.0304C68.34 7.0504 69.62 5.6204 70.92 6.5004C71.94 7.1904 72.87 6.5504 73.5 5.7504C73.21 5.7704 72.91 5.7804 72.62 5.8004C75.27 7.3904 79.89 6.9304 80.43 7.2504C80.81 7.4804 83.72 8.3204 82.49 8.2504C81.03 8.1704 74.41 8.1904 73.8 8.6204C72.83 9.3004 71.76 10.4404 73.13 10.7904C74.46 11.1204 76.76 9.8704 78.13 9.9604C83.46 10.2904 84.24 8.9404 84.28 8.7004C84.57 7.1404 82.33 7.1104 81.44 6.2604C81.03 5.8704 80.2 5.8704 79.7 6.0804C77.54 6.8204 75.46 6.6604 73.43 5.6204C73.22 5.5104 71.2 5.3504 70.53 5.1904C70.42 5.0304 70.02 5.0704 69.9 5.1904C69.05 6.1604 67.95 6.7604 66.59 6.9904C66.54 6.9804 66.54 7.0304 66.61 7.0304Z" fill="url(#paint22_radial)"/>
<path d="M80.53 1.62039C82.91 2.87039 85.07 3.68039 87.56 4.66039C89.45 5.41039 91.28 5.95039 92.93 7.24039C93.74 7.88039 98.43 10.1604 96.79 10.2904C96.68 10.3004 96.05 10.6404 96.21 10.8604C97.09 12.0304 97.68 12.5904 98.97 13.2804C101.53 14.6404 103.34 15.3904 104.16 18.4004C104.21 18.5804 104.33 18.6004 104.37 18.4004C105.17 14.0004 99.7 13.7304 97.34 11.2104C97.18 11.0404 98.63 10.8204 98.43 10.4904C94.99 4.80039 86.07 4.19039 80.64 1.58039C80.62 1.56039 80.48 1.59039 80.53 1.62039Z" fill="url(#paint23_radial)"/>
<path d="M88.66 12.3604C87.79 14.9504 82.57 16.2904 80.21 17.4204C78.63 18.1804 76.99 18.2104 75.35 18.6104C74.4 18.8404 73.8 18.9404 73.37 19.8304C73.28 20.0204 73.8 19.9904 73.89 19.9504C75.61 19.1004 77.43 19.0404 79.24 18.5104C81.01 18.0004 82.56 16.9904 84.19 16.1904C86.09 15.2604 88.84 14.9304 88.69 12.3704C88.69 12.3504 88.66 12.3504 88.66 12.3604Z" fill="url(#paint24_radial)"/>
<path d="M105.73 18.7004C100.91 19.1804 74.55 19.9104 69.55 19.9804C69.45 19.9204 69.37 19.9104 69.42 20.0604C71.13 25.8604 72.57 31.8904 74.54 37.6204C74.61 37.8404 75.07 37.9104 74.91 37.4604C72.95 31.7204 71.67 26.1704 69.88 20.3804C74.78 20.4404 79.68 20.4104 84.58 20.3204C88.76 20.2504 103.02 19.3704 105.74 19.0404C105.86 19.0304 105.8 18.7004 105.73 18.7004Z" fill="url(#paint25_radial)"/>
<path d="M29.57 10.9604C26.5 14.2504 25.86 18.5104 26.44 21.5004C27.71 28.0704 35.66 32.2304 42.83 34.3504C52.59 37.2404 64.41 39.0104 74.54 37.8304C75.19 37.7504 75.13 37.3904 74.72 37.4404C65.28 38.5904 55.62 36.5804 46.3 34.7704C40.65 33.6704 34.47 30.3604 30.27 26.6104C24.96 21.8704 26.81 14.2504 29.19 12.0604C29.23 12.0204 29.6 10.9304 29.57 10.9604Z" fill="url(#paint26_radial)"/>
<path d="M105.82 18.9604C104.77 11.7804 99.43 7.8604 93.25 4.8604C84.62 0.660405 78.54 -0.599596 67.74 0.250404C59.15 0.920404 50.58 0.740406 42.39 3.74041C36.93 5.75041 28.94 8.3004 27.13 15.3104C27.09 15.4604 27.33 15.3604 27.38 15.2504C32.32 4.1204 51.33 1.7804 64.29 0.960403C68.8 0.670403 73.41 0.390403 77.91 0.780403C82.39 1.1704 86.72 2.6404 90.79 4.4204C97.97 7.5404 103.93 10.9104 105.67 18.9604C105.67 19.0104 105.82 19.0004 105.82 18.9604Z" fill="url(#paint27_radial)"/>
<path opacity="0.6" d="M105.96 23.8104C105.98 24.8604 105.99 25.9604 106 27.0804C106.33 28.1104 106.51 29.1704 106.51 30.2504C106.51 41.3004 88.38 50.2504 66.01 50.2504C43.64 50.2504 25.51 41.3004 25.51 30.2504C25.51 29.0404 25.74 27.8604 26.15 26.7204C26.08 25.7704 26.03 24.8204 26.01 23.8704C24.24 26.1804 23.26 28.6904 23.26 31.3104C23.26 42.9404 42.4 52.3604 66 52.3604C89.61 52.3604 108.74 42.9304 108.74 31.3104C108.75 28.6604 107.76 26.1404 105.96 23.8104Z" fill="#B07500"/>
<path d="M105.94 23.0004C105.95 23.5404 105.96 24.1004 105.97 24.6704C107.45 26.7704 108.25 29.0004 108.25 31.2904C108.27 36.8004 103.67 41.9504 96.01 45.7304C88.36 49.5004 77.74 51.8504 66.01 51.8404C54.27 51.8404 43.65 49.4904 36 45.7304C28.34 41.9604 23.75 36.8004 23.76 31.2904C23.75 29.0004 24.56 26.7704 26.03 24.6804C26.01 24.1504 26 23.6104 26 23.0804C23.95 25.5904 22.79 28.3604 22.76 31.2904C22.9 43.5104 42.31 52.8004 66.01 52.8404C89.7 52.8004 109.11 43.5004 109.25 31.2904C109.22 28.3304 108.04 25.5304 105.94 23.0004Z" fill="#FFEC9C"/>
<path d="M82.89 86.0904L49.1 77.7704L47.19 77.4404C47.19 77.4404 46.6 77.9904 46.02 79.2004C45.78 79.0104 45.02 78.4904 43.86 78.6904C42.45 78.9404 39.87 79.5204 37.37 78.6904C36.22 78.3104 14.09 71.5504 8.99 69.7904C4.66 68.2904 2.5 65.3004 2.5 65.3004C2.5 65.3004 3.79 68.2904 5.87 69.8804C6.58 70.5904 5.74 70.9204 5.29 70.6704C2.92 69.5504 0.75 67.5504 0.75 67.5504C1.17 70.3804 3.7 73.3004 5.91 74.2904C9.24 75.7904 37.78 87.6004 37.78 87.6004C41.61 83.6504 44.1 82.4604 45.17 82.1004C45.04 83.1304 45.11 83.8604 45.11 83.8604L47.27 85.1104L79.73 95.6804C81.89 96.3504 84.64 96.4304 85.72 92.3504C86.8 88.2504 84.55 86.6704 82.89 86.0904ZM18.39 75.2504C18.02 76.2504 17.1 76.5004 15.98 76.2104C14.64 75.8604 8.42 73.0004 7.7 72.5904C7.03 72.2204 6.88 71.7304 7.24 71.0104C7.61 70.2604 7.99 70.0904 9.03 70.4304C9.03 70.4304 16.39 72.5504 17.27 72.8904C18.14 73.2104 18.77 74.2504 18.39 75.2504ZM23.74 76.8604C23.4 77.9004 22.32 78.4704 21.33 78.1504C20.34 77.8204 19.81 76.7204 20.15 75.6804C20.49 74.6404 21.57 74.0604 22.56 74.3904C23.55 74.7204 24.08 75.8204 23.74 76.8604ZM38.61 82.6604C38.14 83.8304 36.77 84.5004 35.45 84.1604C33.87 83.7504 26.82 80.6004 25.96 80.1204C25.18 79.6804 24.84 78.7904 25.21 77.7904C25.56 76.8704 26.42 76.1404 27.65 76.5304C27.65 76.5304 36.37 79.0204 37.4 79.4104C38.44 79.8104 39.2 81.2004 38.61 82.6604Z" fill="#E3E2E5"/>
<path d="M45.69 82.5804C45.69 82.5804 45.98 83.3704 47.11 83.5404C48.44 80.2504 48.86 76.3404 48.86 76.3404C48.86 76.3404 48.53 76.0504 47.49 76.1304C45.19 79.0404 45.73 82.7004 45.69 82.5804Z" fill="black"/>
<path d="M48.35 76.0904C48.35 76.0904 47.6 76.6704 47.02 79.0004C46.44 81.3304 46.52 83.4104 46.52 83.4104L78.98 93.9804C81.14 94.6504 83.89 94.7304 84.97 90.6504C86.05 86.5704 83.81 84.9904 82.14 84.4104L48.35 76.0904Z" fill="url(#paint28_linear)"/>
<path d="M47.91 81.9104C54.02 84.2204 60.2 86.0004 66.77 87.9004C69.6 88.7204 84.46 94.1804 82.69 86.8804C82.3 85.2604 77.28 85.7404 77.57 86.8804C78.2 89.3604 70.97 87.5004 70.51 87.4004C67.73 86.8104 64.98 86.0104 62.21 85.4004C57.43 84.3404 52.71 83.0104 47.95 81.8804C47.93 81.8704 47.85 81.8904 47.91 81.9104Z" fill="#0096FF"/>
<path d="M47.97 76.6604C46.94 78.4104 45.98 81.2604 46.47 83.3204C46.5 83.4404 46.6 83.4104 46.6 83.3604C46.56 81.1104 47.14 78.7504 48.07 76.6504C48.12 76.5504 48 76.6204 47.97 76.6604Z" fill="#0096FF"/>
<path d="M43.11 77.0004C41.7 77.2504 39.12 77.8304 36.62 77.0004C35.47 76.6204 13.34 69.8604 8.24 68.1004C3.91 66.6004 1.75 63.6104 1.75 63.6104C1.75 63.6104 3.04 66.6004 5.12 68.1904C5.83 68.9004 4.99 69.2304 4.54 68.9804C2.17 67.8604 0 65.8604 0 65.8604C0.42 68.6904 2.95 71.6104 5.16 72.6004C8.49 74.1004 37.03 85.9104 37.03 85.9104C42.27 80.5004 45.02 80.2504 45.02 80.2504L45.35 77.5904C45.35 77.5804 44.52 76.7504 43.11 77.0004ZM17.77 74.2504C17.4 75.2504 16.48 75.5004 15.36 75.2104C14.02 74.8604 7.8 72.0004 7.08 71.5904C6.41 71.2204 6.26 70.7304 6.62 70.0104C6.99 69.2604 7.37 69.0904 8.41 69.4304C8.41 69.4304 15.77 71.5504 16.65 71.8804C17.52 72.2204 18.14 73.2604 17.77 74.2504ZM23.11 75.8604C22.77 76.9004 21.69 77.4704 20.7 77.1504C19.71 76.8204 19.18 75.7204 19.52 74.6804C19.86 73.6404 20.94 73.0604 21.94 73.3904C22.92 73.7204 23.45 74.8204 23.11 75.8604ZM37.99 81.6604C37.52 82.8304 36.15 83.5004 34.83 83.1604C33.25 82.7504 26.2 79.6004 25.34 79.1204C24.56 78.6804 24.22 77.7904 24.59 76.7904C24.94 75.8704 25.8 75.1404 27.03 75.5304C27.03 75.5304 35.75 78.0204 36.78 78.4104C37.81 78.8104 38.57 80.2104 37.99 81.6604Z" fill="#E0DFD8"/>
<path d="M45.35 77.5804C45.35 77.5804 44.55 76.7904 43.19 76.9904C43.81 78.1304 43.77 79.6904 43.4 80.8304C44.46 80.3004 45.01 80.2504 45.01 80.2504L45.35 77.5804Z" fill="url(#paint29_radial)"/>
<path d="M48.02 76.0904L46.44 75.7604C46.44 75.7604 45.52 76.5904 44.86 78.5104C44.19 80.4204 44.36 82.1704 44.36 82.1704L45.86 82.9204C45.86 82.9204 45.78 81.0704 46.36 79.2604C46.94 77.4204 48.02 76.0904 48.02 76.0904Z" fill="url(#paint30_radial)"/>
<path d="M29.32 76.2304C31.64 77.1204 34.04 77.7804 36.3 78.8104C37.68 79.4404 38.21 80.4104 37.87 81.9004C37.85 81.9804 38.11 81.9604 38.15 81.9204C39.24 80.6504 39.09 79.6704 37.61 78.8304C35.17 77.4504 32.02 76.9204 29.34 76.2104C29.34 76.2104 29.3 76.2204 29.32 76.2304Z" fill="#B4B2A3"/>
<path d="M8.93002 69.5304C11.29 70.3404 13.75 70.8904 16.08 71.8004C17.5 72.3604 17.73 73.3004 17.51 74.7204C17.5 74.8004 17.62 74.8004 17.65 74.7604C18.52 73.6504 18.41 72.3304 17.23 71.8504C15.3 71.0504 11.72 70.1604 8.96002 69.5204C8.95002 69.5204 8.91002 69.5304 8.93002 69.5304Z" fill="#B4B2A3"/>
<path d="M21.65 73.2804C22.24 73.4404 22.65 73.8204 22.93 74.3504C23.32 75.1004 23.17 75.7204 22.75 76.4204C22.66 76.5704 22.88 76.5204 22.95 76.4404C24.06 75.2504 23.26 73.4104 21.69 73.2204C21.66 73.2304 21.63 73.2804 21.65 73.2804Z" fill="#B4B2A3"/>
<path d="M2.42997 64.8604C2.86997 65.8004 3.43997 66.5804 4.15997 67.3104C4.40997 67.5604 4.66997 67.7904 4.88997 68.0704C5.20997 68.4804 5.17997 68.6504 4.86997 69.0104C4.80997 69.0804 5.02997 69.1104 5.05997 69.1104C6.03997 69.1304 5.83997 68.4304 5.29997 67.8904C4.81997 67.4204 4.25997 67.0304 3.76997 66.5704C3.23997 66.0704 2.82997 65.4704 2.44997 64.8504C2.43997 64.8604 2.41997 64.8604 2.42997 64.8604Z" fill="#B4B2A3"/>
<path d="M5.11998 72.7404C15.7 77.1704 26.3 81.5404 36.91 85.8904C36.93 85.9004 36.95 85.9004 36.97 85.8804C39.27 83.7004 41.84 81.8004 44.63 80.3004C44.68 80.2704 44.55 80.1104 44.49 80.1304C41.73 81.3004 39.46 83.0304 37.23 85.0104C36.44 85.7104 36.13 85.2804 35.16 84.8804C31.62 83.4304 28.07 81.9904 24.52 80.5504C18.06 77.9204 11.59 75.3104 5.10998 72.7104C5.09998 72.7104 5.11998 72.7404 5.11998 72.7404Z" fill="#B4B2A3"/>
<defs>
<radialGradient id="paint0_radial" cx="0" cy="0" r="1" gradientUnits="userSpaceOnUse" gradientTransform="translate(66 57.0009) rotate(-0.292401) scale(50.0058 24.9963)">
<stop stop-color="#92959E"/>
<stop offset="0.1438" stop-color="#9B9EA6"/>
<stop offset="0.3782" stop-color="#B3B5BC"/>
<stop offset="0.6724" stop-color="#DBDCDF"/>
<stop offset="0.9066" stop-color="white"/>
</radialGradient>
<linearGradient id="paint1_linear" x1="21.2939" y1="53.4741" x2="110.719" y2="53.4741" gradientUnits="userSpaceOnUse">
<stop stop-color="#DEA606"/>
<stop offset="0.0619" stop-color="#E9BE39"/>
<stop offset="0.1235" stop-color="#F3D264"/>
<stop offset="0.1787" stop-color="#F9E082"/>
<stop offset="0.2255" stop-color="#FEE995"/>
<stop offset="0.2582" stop-color="#FFEC9C"/>
<stop offset="0.3522" stop-color="#FDE997"/>
<stop offset="0.4659" stop-color="#F7DF88"/>
<stop offset="0.5659" stop-color="#F0D275"/>
<stop offset="1" stop-color="#DEA606"/>
</linearGradient>
<linearGradient id="paint2_linear" x1="21.0127" y1="33.2636" x2="111" y2="33.2636" gradientUnits="userSpaceOnUse">
<stop stop-color="#DEAD17"/>
<stop offset="0.2037" stop-color="#C58F0A"/>
<stop offset="0.378" stop-color="#B67C03"/>
<stop offset="0.5" stop-color="#B07500"/>
<stop offset="0.6227" stop-color="#B67C03"/>
<stop offset="0.802" stop-color="#C6900B"/>
<stop offset="1" stop-color="#DEAD17"/>
</linearGradient>
<linearGradient id="paint3_linear" x1="23.2627" y1="44.913" x2="108.75" y2="44.913" gradientUnits="userSpaceOnUse">
<stop stop-color="#DEA606"/>
<stop offset="0.0369" stop-color="#E9BE39"/>
<stop offset="0.0736" stop-color="#F3D264"/>
<stop offset="0.1065" stop-color="#F9E082"/>
<stop offset="0.1343" stop-color="#FEE995"/>
<stop offset="0.1538" stop-color="#FFEC9C"/>
<stop offset="0.2495" stop-color="#FDE997"/>
<stop offset="0.3652" stop-color="#F7DF88"/>
<stop offset="0.467" stop-color="#F0D275"/>
<stop offset="1" stop-color="#DEA606"/>
</linearGradient>
<linearGradient id="paint4_linear" x1="105.74" y1="29.6672" x2="68.0688" y2="29.6672" gradientUnits="userSpaceOnUse">
<stop offset="0.1" stop-color="#FFEBAD"/>
<stop offset="0.2974" stop-color="#F9DF95"/>
<stop offset="0.7123" stop-color="#EAC157"/>
<stop offset="1" stop-color="#DEAB29"/>
</linearGradient>
<linearGradient id="paint5_linear" x1="69.3872" y1="29.7411" x2="105.823" y2="29.7411" gradientUnits="userSpaceOnUse">
<stop stop-color="#C4911C"/>
<stop offset="0.3224" stop-color="#D2A52E"/>
<stop offset="0.7154" stop-color="#DFB73E"/>
<stop offset="1" stop-color="#E4BD44"/>
</linearGradient>
<radialGradient id="paint6_radial" cx="0" cy="0" r="1" gradientUnits="userSpaceOnUse" gradientTransform="translate(60.4983 36.6136) scale(69.9239)">
<stop stop-color="#FFF2CC"/>
<stop offset="0.2912" stop-color="#EDCD6C"/>
<stop offset="0.3852" stop-color="#E4C158"/>
<stop offset="0.8077" stop-color="#BF8E00"/>
</radialGradient>
<linearGradient id="paint7_linear" x1="65.2567" y1="37.5783" x2="64.8292" y2="44.2416" gradientUnits="userSpaceOnUse">
<stop stop-color="#FEF1C9"/>
<stop offset="1" stop-color="#E7BD3F"/>
</linearGradient>
<radialGradient id="paint8_radial" cx="0" cy="0" r="1" gradientUnits="userSpaceOnUse" gradientTransform="translate(54.5074 52.8721) scale(28.2871)">
<stop stop-color="#FEF1C9"/>
<stop offset="1" stop-color="#DEAB00"/>
</radialGradient>
<radialGradient id="paint9_radial" cx="0" cy="0" r="1" gradientUnits="userSpaceOnUse" gradientTransform="translate(98.1663 30.8345) scale(17.9631)">
<stop stop-color="#F3DA86"/>
<stop offset="1" stop-color="#DEAB00"/>
</radialGradient>
<linearGradient id="paint10_linear" x1="26.805" y1="21.3826" x2="26.805" y2="59.3486" gradientUnits="userSpaceOnUse">
<stop stop-color="#D9A100"/>
<stop offset="1" stop-color="#BD8C00"/>
</linearGradient>
<linearGradient id="paint11_linear" x1="31.6426" y1="31.4755" x2="25.018" y2="34.9754" gradientUnits="userSpaceOnUse">
<stop stop-color="#D9A100"/>
<stop offset="1" stop-color="#BD8C00"/>
</linearGradient>
<linearGradient id="paint12_linear" x1="58.4771" y1="22.2597" x2="56.3605" y2="46.1729" gradientUnits="userSpaceOnUse">
<stop stop-color="#FEF1C9"/>
<stop offset="1" stop-color="#E7BD3F"/>
</linearGradient>
<radialGradient id="paint13_radial" cx="0" cy="0" r="1" gradientUnits="userSpaceOnUse" gradientTransform="translate(85.6646 30.0008) scale(20.51)">
<stop stop-color="#FEF1C9"/>
<stop offset="1" stop-color="#E7BD3F"/>
</radialGradient>
<radialGradient id="paint14_radial" cx="0" cy="0" r="1" gradientUnits="userSpaceOnUse" gradientTransform="translate(102.5 24.0001) scale(30.5471)">
<stop stop-color="#F3DA86"/>
<stop offset="1" stop-color="#DEAB00"/>
</radialGradient>
<radialGradient id="paint15_radial" cx="0" cy="0" r="1" gradientUnits="userSpaceOnUse" gradientTransform="translate(106.833 16.3339) scale(21.0144)">
<stop offset="0.2308" stop-color="#FFFFE4"/>
<stop offset="0.3341" stop-color="#FDFAD7"/>
<stop offset="0.5238" stop-color="#FAECB6"/>
<stop offset="0.7765" stop-color="#F3D681"/>
<stop offset="0.9945" stop-color="#EDC14D"/>
</radialGradient>
<radialGradient id="paint16_radial" cx="0" cy="0" r="1" gradientUnits="userSpaceOnUse" gradientTransform="translate(65.1662 11.6675) scale(45.8142)">
<stop offset="0.1429" stop-color="#FFFFE4"/>
<stop offset="0.3256" stop-color="#FFFEE1"/>
<stop offset="0.4636" stop-color="#FDFAD7"/>
<stop offset="0.5869" stop-color="#FCF3C7"/>
<stop offset="0.7017" stop-color="#F9EAB0"/>
<stop offset="0.8105" stop-color="#F5DE93"/>
<stop offset="0.9135" stop-color="#F1CF6F"/>
<stop offset="0.9945" stop-color="#EDC14D"/>
</radialGradient>
<radialGradient id="paint17_radial" cx="0" cy="0" r="1" gradientUnits="userSpaceOnUse" gradientTransform="translate(65.0002 13.8338) scale(28.8468)">
<stop stop-color="white"/>
<stop offset="1" stop-color="#FBF3C7"/>
</radialGradient>
<radialGradient id="paint18_radial" cx="0" cy="0" r="1" gradientUnits="userSpaceOnUse" gradientTransform="translate(45.4716 19.3272) scale(17.3998)">
<stop stop-color="#FEF1C9"/>
<stop offset="1" stop-color="#EDCD6C"/>
</radialGradient>
<radialGradient id="paint19_radial" cx="0" cy="0" r="1" gradientUnits="userSpaceOnUse" gradientTransform="translate(49.0413 20.0217) scale(28.2268)">
<stop stop-color="#FEF1C9"/>
<stop offset="1" stop-color="#EDCD6C"/>
</radialGradient>
<radialGradient id="paint20_radial" cx="0" cy="0" r="1" gradientUnits="userSpaceOnUse" gradientTransform="translate(59.8334 17.0005) scale(23.7628)">
<stop stop-color="#FEF1C9"/>
<stop offset="1" stop-color="#EDCD6C"/>
</radialGradient>
<radialGradient id="paint21_radial" cx="0" cy="0" r="1" gradientUnits="userSpaceOnUse" gradientTransform="translate(65.7687 18.6417) scale(26.2996)">
<stop stop-color="#FEF1C9"/>
<stop offset="1" stop-color="#EDCD6C"/>
</radialGradient>
<radialGradient id="paint22_radial" cx="0" cy="0" r="1" gradientUnits="userSpaceOnUse" gradientTransform="translate(78.1475 9.7391) scale(18.0354)">
<stop stop-color="#FEF1C9"/>
<stop offset="1" stop-color="#EDCD6C"/>
</radialGradient>
<radialGradient id="paint23_radial" cx="0" cy="0" r="1" gradientUnits="userSpaceOnUse" gradientTransform="translate(84.1666 11.6674) scale(17.391)">
<stop stop-color="#FEF1C9"/>
<stop offset="1" stop-color="#EDCD6C"/>
</radialGradient>
<radialGradient id="paint24_radial" cx="0" cy="0" r="1" gradientUnits="userSpaceOnUse" gradientTransform="translate(69.1668 14.3336) scale(29.7847)">
<stop stop-color="#FEF1C9"/>
<stop offset="1" stop-color="#EDCD6C"/>
</radialGradient>
<radialGradient id="paint25_radial" cx="0" cy="0" r="1" gradientUnits="userSpaceOnUse" gradientTransform="translate(89.1668 10.0002) scale(30.6162)">
<stop offset="0.6319" stop-color="#FFFFE4"/>
<stop offset="0.9945" stop-color="#EDC14D"/>
</radialGradient>
<radialGradient id="paint26_radial" cx="0" cy="0" r="1" gradientUnits="userSpaceOnUse" gradientTransform="translate(60.5613 -3.30268) scale(42.4282 41.953)">
<stop stop-color="#FEF1C9"/>
<stop offset="1" stop-color="#E7BD3F"/>
</radialGradient>
<radialGradient id="paint27_radial" cx="0" cy="0" r="1" gradientUnits="userSpaceOnUse" gradientTransform="translate(73.573 36.334) scale(31.7325 31.3771)">
<stop stop-color="#FEF1C9"/>
<stop offset="1" stop-color="#E7BD3F"/>
</radialGradient>
<linearGradient id="paint28_linear" x1="67.1431" y1="80.8023" x2="64.7799" y2="89.0436" gradientUnits="userSpaceOnUse">
<stop stop-color="#0030A8"/>
<stop offset="0.042" stop-color="#003EB4"/>
<stop offset="0.1461" stop-color="#005BCC"/>
<stop offset="0.2497" stop-color="#006FDD"/>
<stop offset="0.3516" stop-color="#007CE8"/>
<stop offset="0.45" stop-color="#0080EB"/>
<stop offset="0.5595" stop-color="#0077E3"/>
<stop offset="0.7381" stop-color="#005FCF"/>
<stop offset="0.9623" stop-color="#0037AE"/>
<stop offset="1" stop-color="#0030A8"/>
</linearGradient>
<radialGradient id="paint29_radial" cx="0" cy="0" r="1" gradientUnits="userSpaceOnUse" gradientTransform="translate(41.3602 78.2909) scale(6.89649)">
<stop offset="0.1648" stop-color="#EBDFD8"/>
<stop offset="0.6538" stop-color="#969487"/>
<stop offset="0.7221" stop-color="#8E8C80"/>
<stop offset="0.8289" stop-color="#79766C"/>
<stop offset="0.9603" stop-color="#56514D"/>
<stop offset="1" stop-color="#4A4542"/>
</radialGradient>
<radialGradient id="paint30_radial" cx="0" cy="0" r="1" gradientUnits="userSpaceOnUse" gradientTransform="translate(45.3964 78.7702) scale(4.1594)">
<stop offset="0.1648" stop-color="#EBDFD8"/>
<stop offset="0.6538" stop-color="#969487"/>
<stop offset="0.7221" stop-color="#8E8C80"/>
<stop offset="0.8289" stop-color="#79766C"/>
<stop offset="0.9603" stop-color="#56514D"/>
<stop offset="1" stop-color="#4A4542"/>
</radialGradient>
</defs>
</svg>
