<svg width="103" height="100" viewBox="0 0 103 100" fill="none" xmlns="http://www.w3.org/2000/svg">
<path d="M100 61.67C93.98 49.16 74.77 40 51.98 40C24.38 40 2 53.43 2 70C2 86.57 24.38 100 51.98 100C67.57 100 81.49 95.71 90.66 89L65.98 61.67H100Z" fill="url(#paint0_radial)"/>
<path d="M102.72 27.43V62H73.96L55.65 26.71L102.72 27.43Z" fill="url(#paint1_linear)"/>
<path d="M1.63001 28.75C0.140011 33.21 2.51999 48.97 2.51999 53.95C2.21999 59.46 2.45001 64.74 4.60001 69.97C9.36001 81.52 27.49 87.82 41.76 89.66C50.98 90.71 67.07 89.56 74.85 83.44L77.43 51.06L1.63001 28.75Z" fill="url(#paint2_linear)"/>
<path d="M103 27.43C98.84 9.30999 86.92 0 50.87 0C34.43 0 18.15 3.82999 6.73 15.27C-6.97 29 7.03998 46.15 22.71 51.64C38.74 57.26 61.72 57.63 77.44 51.06L58.41 27.43H103Z" fill="url(#paint3_radial)"/>
<path d="M50.74 11.29C50.68 11.38 50.63 11.47 50.57 11.56C50.41 11.81 50.55 12.14 50.78 12.31C52.11 13.32 53.96 13.68 55.47 14.48C56.07 14.8 56.02 15.93 55.67 16.81C55.13 18.17 52.61 18.07 51.22 18.27C50.93 18.31 50.72 18.58 50.71 18.83C50.7 20.04 49.95 22 50.83 23.1C52.04 24.62 55.36 25.66 57.16 26.68C58.19 27.27 58.19 27.22 57.65 26.15C56.58 24.04 53.81 21.09 50.97 21.28C51.23 21.48 51.49 21.68 51.75 21.88C52.08 20.27 51.65 19.37 53.63 19.16C54.48 19.07 55.63 19.03 56.32 18.51C57.53 17.58 59.46 15.27 59.11 13.81C58.74 12.28 57.14 11.89 55.64 11.48C54.83 11.26 51.08 10.77 50.74 11.29Z" fill="#FFED8B"/>
<path d="M69.36 12.71C70.21 12.35 71.14 12.22 71.98 11.87C72.12 11.81 72.02 11.64 71.9 11.64C70.78 11.61 69.43 12.08 68.48 12.6C68.1 12.81 67.75 13.13 67.81 13.55C67.83 13.68 67.89 13.8 67.99 13.91C67.19 13.86 66.39 13.9 65.59 13.89C64.54 13.88 63.35 14.07 62.74 14.89C62.71 14.93 62.78 14.97 62.81 14.93C65.13 12.53 68.25 16.68 70.64 16.53C71.38 16.48 72.55 15.08 71.45 14.74C70.86 14.56 70.37 14.18 69.74 14C69.47 13.92 69.21 13.91 68.95 13.91C68.85 13.84 68.74 13.78 68.62 13.71C68.52 13.65 68.35 13.52 68.38 13.39C68.47 13.06 69.06 12.84 69.36 12.71Z" fill="url(#paint4_linear)"/>
<path d="M76.81 20.8C75.55 19.93 74.24 19.52 72.64 19.65C71.76 19.72 70.9 20.36 70.08 20.64C69.23 20.93 68.52 20.91 67.64 20.77C67.27 20.71 67.18 21.16 67.48 21.3C68.31 21.68 69.12 21.86 69.98 21.9C69.01 22.96 68.3 24.23 67.06 25.11C65.92 25.91 64.52 26.75 63.08 27.06C62.88 27.1 62.95 27.39 63.15 27.37C64.98 27.16 66.74 26.21 68.31 25.43C69.7 24.74 70.93 24.57 72.09 23.53C72.71 22.97 73.07 22.46 73.08 21.89C73.78 21.99 74.43 22.23 75.22 22.66C75.73 22.94 76.34 23 76.84 22.65C77.05 22.5 77.12 22.4 77.24 22.18C77.51 21.71 77.26 21.11 76.81 20.8Z" fill="url(#paint5_linear)"/>
<path d="M99.28 20.21C100.02 18.37 98.8 17.92 96.3 16.57C95.65 16.22 94.6 16.44 94.27 17.08C93.31 18.96 91.32 18.64 89.65 19.61C88.89 20.05 88.93 21.15 89.64 21.61C94.14 24.52 86.35 24.63 84.29 24.62C81.99 24.61 79.79 23.62 77.69 24.67C77.21 24.91 77.19 25.67 77.81 25.79C79.93 26.2 80.78 25.33 83.08 25.25C85.21 25.17 87.32 25.1 89.41 24.72C92.68 24.12 92.1 23.5 91.93 21.93C91.89 21.6 95.61 21.14 96.64 19.13C96.85 18.72 99.15 21.48 99.18 21.43L99.28 20.21Z" fill="url(#paint6_linear)"/>
<path d="M89.01 15.44C88.26 15.73 87.57 16.12 86.82 16.42C85.97 16.77 86.26 16.63 85.64 16.4C85.2 16.24 84.78 16.09 84.32 15.97C83.66 15.79 82.92 15.92 82.51 16.45C82.25 16.79 82.21 17.06 82.24 17.45C82.29 18.22 83.22 18.68 84.01 18.6C84.8 18.52 85.1 18.37 85.78 18.03C86.24 17.8 86.29 17.33 86.81 17.12C87.66 16.78 88.53 16.3 89.21 15.73C89.35 15.61 89.23 15.35 89.01 15.44Z" fill="url(#paint7_linear)"/>
<path d="M49.48 9.29999C47.96 9.87999 46.7 10.15 45.06 10.13C43.54 10.11 42.57 9.90001 41.13 10.51C39.49 11.22 40.54 13.58 42.16 12.85C43.37 12.31 44.53 11.63 45.79 11.2C47.16 10.73 48.51 10.3 49.51 9.32999C49.52 9.31999 49.5 9.28999 49.48 9.29999Z" fill="#FFED8B"/>
<path d="M37.34 14.94C35.08 14.53 33.7 15.13 32.77 17.02C31.62 19.38 28.21 17.39 26.65 16.35C25.59 15.65 24.39 16.29 23.21 15.82C22.92 15.71 22.62 15.9 22.63 16.18C22.68 17.11 23.37 17.92 24.61 17.71C26.83 17.33 28.12 18.41 30.18 18.96C31.27 19.25 32.12 19.41 32.91 18.61C33.16 18.36 33.3 18 33.44 17.7C34.15 16.23 35.65 15.56 37.36 15.25C37.54 15.21 37.5 14.97 37.34 14.94Z" fill="#FFED8B"/>
<path d="M23.03 25.58C24.65 25.37 25.84 24.51 26.9 23.46C27.11 23.26 23.48 21.38 21.73 20.82C21.6 20.78 23.83 23.15 24.66 23.4C23.71 23.98 23.41 24.3 22.35 24.4C21.33 24.5 20.92 23.81 20.29 23.26C19.49 22.57 18.15 23.4 17.97 24.5C17.7 26.19 17.48 27.56 19.43 28.29C20.74 28.78 23.32 26.95 24.89 29.55C25.36 28.39 24.93 27.27 23.56 26.89C22.47 26.59 21.24 27.06 20.07 27.33C20.22 26.85 20.34 26.37 20.45 25.88C21.31 25.87 22.18 25.69 23.03 25.58Z" fill="#FFED8B"/>
<path d="M48.92 27.25C47 27.62 45.28 27.62 43.7 28.14C43.7 28.13 43.7 28.13 43.7 28.12C43.2 26.94 42.33 26.3 43.34 25.1C44.75 23.43 47.07 22.45 48.17 20.56C48.66 19.71 47.69 18.86 46.73 19.11C45.27 19.48 44.07 20.22 42.9 21.05C41.63 21.95 39.98 23.14 38.33 22.3C38.12 22.2 37.87 22.41 38.03 22.58C39.47 24.07 42.13 23.16 44.45 22.23C42.54 24.42 39.89 26.59 41.65 29.24C41.46 29.39 41.27 29.55 41.08 29.74C40.22 30.58 39.63 31.03 38.45 31.49C37.49 31.87 37.13 32.63 36.94 33.48C36.92 33.54 37.02 33.59 37.07 33.53C37.32 33.23 39.56 31.26 40.3 31.98C40.81 32.48 41.53 32.46 42.04 31.98C43.03 31.05 44.32 30.75 45.67 30.36C47.12 29.94 48.39 29.3 49.67 28.59C50.54 28.1 49.8 27.08 48.92 27.25Z" fill="#FFED8B"/>
<path d="M51.05 36.71C48.18 36.53 45.67 36.65 42.94 35.31C42.35 35.02 41.8 35.55 41.8 36.04C41.8 36.07 41.8 36.1 41.8 36.14C40.74 35.9 39.93 35.8 38.67 35.97C38 36.05 37.89 37 38.49 37.24C39.48 37.63 40.12 38.05 40.88 38.69C41.92 39.57 38.78 39.03 38.71 39.01C36.18 38.38 33.66 40.05 32.34 37.02C32.15 36.58 31.45 36.23 30.92 36.37C28.35 37.02 28.65 37.39 27.49 35.15C27.32 34.82 29.69 33.16 30.14 32.65C30.36 32.4 30.07 32.03 29.73 32.21C28.33 32.96 27.07 33.83 26.36 35.16C26.27 35.33 26.37 35.53 26.48 35.66C27.1 36.37 26.71 37.57 27.33 38.19C28.22 39.07 29.29 39.02 30.41 38.84C30.67 39.25 30.97 39.64 31.32 40C31.62 40.36 32.25 40.54 32.69 40.24C35.19 38.52 38.16 39.69 40.78 40.34C41.79 40.99 42.09 41.88 41.66 43.03C41.47 43.64 42.22 44.2 42.83 43.77C44.86 42.33 48.07 38.73 51.02 39.3C51.82 39.46 52.5 38.93 52.35 38.2C51.98 36.41 54.12 36.81 55.3 37.56C55.33 37.58 55.36 37.54 55.35 37.52C54.04 35.57 52.14 35.49 51.05 36.71Z" fill="url(#paint8_linear)"/>
<path d="M34.35 44.03C33.43 43.38 32.96 43.15 31.73 43.07C29.48 42.93 30.52 45.69 31.33 45.95C31.62 46.02 33.13 45.76 33.59 45.55C34.95 44.92 37.99 44.75 37.73 44.69C37.73 44.69 35.25 44.66 34.35 44.03Z" fill="#FFED8B"/>
<path d="M55.4 42.29C56.82 41.97 58.19 41.5 59.67 41.69C59.34 41.51 63.54 41.33 63.11 41.21C64.28 41.98 66.14 41.46 66.03 39.99C65.92 38.49 64.01 38.33 62.71 38.42C61.82 38.48 60.93 38.73 60.1 39C59.19 39.29 55.93 41.25 55.29 42.14C55.24 42.2 55.3 42.31 55.4 42.29Z" fill="#FFCC00"/>
<path d="M47.71 50.01C46.52 50.01 45.63 50.54 45.03 51.32C47.41 52.37 51.27 52.63 53.65 52.37C51.57 56.05 44.14 49.74 41.46 54.21C39.68 53.42 37.89 51.85 35.81 51.85C34.03 51.85 32.24 53.95 31.05 51.59C32.54 50.8 33.43 49.49 33.72 47.92C36.1 50.55 36.1 48.97 39.07 48.71C41.15 48.71 42.64 49.5 44.72 49.76C47.69 50.02 50.96 49.5 53.64 48.45C57.5 47.14 61.37 45.04 65.83 44.77C63.75 45.56 58.99 47.92 58.4 49.5C59.89 49.76 59.89 50.02 60.48 50.81C56.92 50.8 52.02 49.22 47.71 50.01Z" fill="url(#paint9_linear)"/>
<path d="M38.64 26.03C38.15 25.45 37.15 25.52 36.5 25.86C35.44 26.43 35.27 27.25 35.49 28.27C35.58 28.15 35.67 28.04 35.76 27.92C34.47 27.99 33.61 28.6 32.58 29.22C32.39 29.33 32.36 29.61 32.51 29.76C33.32 30.6 33.09 31.39 32.86 32.36C32.81 32.57 33.11 32.76 33.31 32.62C34.65 31.72 34.18 30.25 33.19 29.28C33.17 29.46 33.14 29.64 33.12 29.82C33.99 29.27 34.78 28.61 35.89 28.5C36.07 28.48 36.2 28.3 36.16 28.15C35.95 27.38 36.23 26.71 37.11 26.39C37.54 26.23 38.06 26.33 38.52 26.26C38.63 26.26 38.73 26.14 38.64 26.03Z" fill="#FFED8B"/>
<path d="M27.96 24.71C27.41 25.18 27.04 25.7 27.14 26.4C27.23 27.04 27.96 27.72 28.64 27.86C28.8 27.89 28.93 27.71 28.83 27.6C28.46 27.2 27.96 26.99 27.69 26.51C27.37 25.95 27.81 25.32 28.21 24.9C28.35 24.76 28.12 24.58 27.96 24.71Z" fill="#FFED8B"/>
<path d="M75.92 40.7C75.22 40.43 74.53 40.26 73.8 40.07C73.29 39.94 72.8 39.75 72.34 39.51C72.04 37.87 72.41 37.17 73.46 37.44C75.17 37.49 77.52 36.58 78.49 35.33C78.89 34.82 78.78 33.92 78.24 33.52C77.93 33.29 77.79 32.36 77.56 32.01C77.19 31.43 76.55 31.01 75.95 30.63C74.97 30 71.47 29.07 71.75 27.68C71.82 27.35 71.21 27.24 71.1 27.56C70.68 28.73 72.08 29.4 73.03 29.95C74.22 30.64 75.41 31.24 76.35 32.21C77.58 33.48 73.93 33.95 73.23 34.46C71.68 35.58 70.28 37.43 71.27 39.23C71.97 40.5 74.51 40.73 75.87 40.87C75.97 40.85 76.01 40.73 75.92 40.7Z" fill="#FAA100"/>
<path d="M92.01 30.62C93.67 30.05 95.31 31.23 96.41 29.52C96.61 29.21 97.16 29.14 97.5 29.03C98.1 28.84 98.67 28.43 99.18 28.11C100.1 27.53 100.62 26.97 100.76 25.99C100.83 25.49 100.4 24.89 99.75 24.99C97.76 25.28 96.41 26.59 95.1 27.85C94.38 28.55 95.5 29.82 94.01 30.1C93.28 30.24 92.63 30.23 91.97 30.56C91.94 30.57 91.97 30.63 92.01 30.62Z" fill="#FFBD00"/>
<path d="M97.63 38.05C94.06 39.89 87.73 38.47 83.57 39.26C84.76 40.05 87.43 40.05 89.51 40.57C91 40.83 91.59 41.74 92.48 43.05C91.89 42.52 91.59 45.82 91.89 45.56C89.21 52.13 85.94 46.35 81.19 46.35C81.01 45.54 81.16 44.83 81.52 44.22C80.85 45.05 80.21 45.96 80 46.87C84.46 48.45 88.03 52.12 85.35 55.8C84.16 57.38 82.38 57.9 82.08 60.53C84.46 58.43 87.13 56.07 88.32 53.44C89.21 51.6 87.72 52.13 89.51 50.29C90.7 49.24 96.05 46.35 94.86 49.76C100.81 50.02 94.56 55.27 96.05 57.37C97.84 56.06 99.62 50.55 99.92 48.45C99.92 47.13 98.73 45.03 100.81 44.51C100.81 44.51 100.95 45.85 102.8 46.52V28.49C102.06 32.82 99.42 37 97.63 38.05Z" fill="url(#paint10_linear)"/>
<path d="M76.5 62.31L102.25 62.32C102.74 62.31 102.97 62.18 102.96 61.76V27.45L102.28 27.44V59.72C102.22 60.86 101.98 61.43 100.44 61.43L76.59 61.44L76.5 62.31Z" fill="url(#paint11_linear)"/>
<path d="M15.04 79.93C14.45 79.45 8.57001 74.43 13.14 74.79C13.86 74.85 14.49 74.13 14.13 73.54C12.88 71.48 8.94 70.08 9.13 67.66C9.24 66.24 8.3 64.52 7.1 63.08C8.35 63.54 9.69001 63.95 10.76 64.79C10.85 64.86 11.02 64.79 10.95 64.68C10.35 63.71 9.57999 63.24 8.45999 62.77C6.32999 61.88 5.79 60.7 5.38 58.78C5.03 57.13 3.60001 55.35 3.26001 53.63C4.27001 53.26 7.08 54.18 8.41 55.07C8.5 55.13 8.59001 55.02 8.51001 54.96C7.40001 54.06 5.40999 53.08 4.26999 52.23C3.99999 51.04 3.67 50.55 3.09 49.48C2.9 48.03 2.51 42.41 2.47 41.03C3.14 43.26 3.86999 45.5 5.23999 47.48C5.74999 48.22 6.44999 48.65 7.23999 49.16C9.89999 50.88 9.49999 53.55 9.89999 56.07C9.90999 56.12 9.99001 56.12 9.98001 56.07C9.78001 54.15 11.33 51.46 9.69 49.73C6.93 46.82 4.35999 39.25 3.79999 35.27C2.31999 32.6 2.00001 30.31 1.17001 27.45C0.570012 37.42 1.61998 55.67 2.35998 58.95C2.69998 60.47 4.94999 62.19 6.20999 62.73C7.44999 64.33 8.52001 66.29 7.54001 67.82C7.32001 68.16 7.25999 68.62 7.29999 69C7.47999 70.61 9.84 71.92 11.34 73.22C9.58 73.58 8.66999 74.75 9.86999 76.74C11.01 78.65 14.11 80.55 17.9 82.58C17.11 81.62 15.85 80.59 15.04 79.93Z" fill="#FFED8B"/>
<path d="M21.22 75.6C16.34 71.73 20.09 62.65 11.8 61.4C11.59 61.37 11.47 61.56 11.52 61.71C11.88 62.87 12.77 63.32 13.86 64C15.83 65.23 15.44 66.8 15.33 68.66C15.15 71.79 18.21 74.33 21.16 75.68C21.21 75.7 21.26 75.64 21.22 75.6Z" fill="url(#paint12_linear)"/>
<path d="M53.36 89.79C49.62 88.74 44.4 87.2 40.51 86.88C36.12 86.51 33.88 88.21 29.22 86.21C24.05 83.99 21.48 78.57 15.62 77.26C15.55 77.24 15.49 77.35 15.56 77.37C20.52 79.39 21.66 83.25 25.15 85.72C30.63 87.68 36.45 89.13 41.77 89.66C47.83 90.26 52.34 89.82 53.36 89.79Z" fill="url(#paint13_linear)"/>
<path d="M21.57 70.54C23.6 69.7 27.07 69.37 26.21 66.6C25.96 65.8 25.26 62.9 22.22 61.32C21.66 61.03 21.14 61.08 20.68 61.49C18.38 63.58 21.63 65.88 23.67 66.57C26.81 67.63 22.3 69.65 21.51 70.45C21.46 70.49 21.51 70.57 21.57 70.54Z" fill="url(#paint14_linear)"/>
<path d="M8.23001 29.8C9.39001 30.28 10.82 30.45 11.8 31.29C12.72 32.08 12.27 33.38 13.85 33.35C14.08 33.35 16.67 33.32 16.61 33.4C15.91 34.33 15.63 35.19 16.33 36.27C14.94 36.27 8.23999 35.41 10.86 38.2C12.01 39.43 10.11 40 10.68 41.27C11.24 42.53 13.72 42 14.86 42.73C16.1 43.53 16.03 44.54 17.08 45.25C18.13 45.96 19.24 45.67 20.42 45.9C21.12 46.04 22.42 47.79 23.03 48.26C24.88 49.7 26.12 49.65 28.3 50.18C28.19 50.15 24.37 45.31 22.79 44.88C21.39 44.49 20.07 45.83 18.72 44.89C17.56 44.09 20.69 41.63 21.16 40.55C21.75 41.04 23.64 41.93 23.95 42.37C23.7 42.03 20.89 38.28 20.45 39.67C19.88 41.49 17.87 41.73 16.73 43.06C15.99 41.9 15.14 40.75 13.84 40.09C14.07 38.84 12.96 38.18 12.02 37.59C13.4 37.39 14.8 37.32 16.2 37.38C18.59 37.48 17.51 36.57 18.32 34.85C19.07 33.27 19.35 32.47 17.59 31.73C15.87 31.01 14.89 31.76 13.39 30.77C13.02 30.53 8.95001 28.73 8.60001 29.22C9.86001 27.46 6.77999 27.14 5.67999 25.74C6.96999 25.19 8.46 24.55 8.84 23.11C8.68 23.73 4.79001 24.3 4.04001 24.45C4.07001 24.28 3.62999 25.25 3.48999 26.37C4.84999 27.2 6.79001 29.21 8.23001 29.8Z" fill="url(#paint15_linear)"/>
<path d="M91.03 8.28C90.86 8.16 90.69 8.04001 90.51 7.92001C88.94 8.80001 88.89 11.86 88 11.67C86.21 11.3 85.17 9.42999 83.49 8.79999C84.37 7.69999 84.89 6.14999 83.96 4.89999C84.56 5.03999 85.17 5.17999 85.76 5.32999C77.85 1.78999 66.68 0 50.87 0C34.43 0 18.15 3.82999 6.73002 15.27C3.35002 18.66 1.66 22.26 1.27 25.84C1.25 26.11 1.21003 26.75 1.20003 26.8C1.11003 30.83 2.52001 34.51 4.62001 38.03C5.92001 40.21 6.78003 41.1 8.14003 42.39C5.36003 38.74 1.58002 30.01 4.01002 25.12C4.59002 22.23 6.32002 16.97 9.07002 15.35C10.92 14.44 13.14 15.35 14.94 14.28C15.68 15.3 16.05 16.3 16.38 17.47C15.99 17.52 8.91 18.8 10.27 19.84C10.73 19.88 11.12 19.71 11.45 19.33C12.63 18.82 13.43 19.36 14.57 19.61C14.08 20.47 16.72 21.05 17.28 20.13C19.02 17.29 18.19 15.17 15.77 13.51C17.14 11.5 17.35 10.72 19.84 9.64999C22.2 8.63999 24.64 7.58999 27.2 7.10999C30.22 6.54999 26.85 8.65 26.13 9.09C22.95 11.02 26.51 13.39 28.71 14C29.99 14.35 34.83 15.21 34.36 12.68C34.08 11.17 35.61 11.43 36.46 10.07C36.86 9.43001 38.23 7.33 37.55 7.5C37.06 7.62 36.59 8.55001 35.85 9.70001C35.18 10.74 33.69 10.57 32.57 10.95C31.18 11.42 32.88 12.64 32.58 12.8C30.61 13.81 27.58 12.03 26.73 10.93C27.72 9.91999 29.91 8.71001 28.46 6.95001C29.51 6.89001 30.43 7.32 31.36 6.63C32.3 5.93 32.85 4.83999 33.83 4.17999C38.89 0.779993 50.4 0.320007 54.26 0.820007C52.03 1.11001 45.69 1.97 44.99 2.34C43.45 3.14 44.98 3.93 45.35 4.72C45.05 4.08 40.01 5.69001 42.68 7.76001C45.01 9.57001 51.33 5.24001 47.38 2.79001C48.58 2.24001 50.08 2.14001 51.38 1.98001C52.67 1.82001 55.77 0.560011 54.85 2.73001C58.3 1.39001 62.1 1.18 65.78 1.44C65.94 1.68 63.23 4.18999 62.9 4.45999C62.11 2.88999 61.59 3.11 60.11 3.63C59.04 3.56 57.25 2.65001 56.3 3.45001C53.57 5.75001 61.17 4.61 61.15 4.66C61.13 5.07 60.97 5.97001 61.49 5.60001C59.62 6.92001 61.79 9.45 63.65 8.28C64.94 7.47 70.5 3.31001 67.88 1.64001C70.3 1.92001 72.69 2.36 75.06 2.87C76.97 3.28 78.01 4.72001 80.07 5.14001C80.3 5.19001 82.6 5.39001 82.58 5.48001C82.38 6.49001 81.07 7.24 80.54 8.09C80.08 8.82 77.67 8.87 77 8.78C75.55 8.58 75.25 7.34001 74.88 6.20001C73.39 1.58001 70.54 6.94 67.61 6.5C69.48 6.78 71.79 5.79 72.97 7.66C74.82 10.56 76.97 9.59 80.28 9.5C80.16 11.11 74.3 12.59 74.61 12.98C75.04 13.52 79.52 12.07 80.13 11.7C81.04 11.14 81.88 10.46 82.63 9.72C84.22 10.14 85.15 11.4 86.56 12.09C87.87 12.73 90.6 13.54 90.03 11.36C89.86 10.71 89.67 9.96 89.97 9.31C90 9.24 90.63 8.71 91.03 8.28Z" fill="url(#paint16_linear)"/>
<path d="M26.14 78.89C26.43 79.93 26.92 80.99 28.26 81.26C29.49 81.5 31.04 81.42 32.19 81.81C33.33 82.2 34 83.2 35.01 83.75C36.91 84.8 38.72 84.96 40.75 84.11C43.54 82.94 45.91 85.67 49.02 84.68C49.61 84.49 50.27 84.02 50.34 83.41C50.38 83.11 50.41 82.81 50.44 82.51C50.5 81.99 50.06 81.35 49.41 81.35C47.2 81.33 45.87 81.25 43.72 80.74C41.13 80.13 39.19 82.79 36.58 81.47C35.31 80.82 34.34 80.3 32.87 80.07C30.38 79.69 28.24 81.61 26.36 78.83C26.29 78.73 26.11 78.77 26.14 78.89Z" fill="url(#paint17_linear)"/>
<path d="M29.26 72.02C30.09 73.03 30.67 73.14 31.52 73.29C32.26 73.42 33.43 71.94 33.46 72.53C33.5 73.21 33.89 73.84 34.5 74.25C36.22 75.43 37.24 75.95 39.31 74.7C42.83 72.58 45.54 74.98 49.22 74.3C49.47 74.25 49.54 73.92 49.3 73.81C46.31 72.53 41.13 71.51 37.81 72.35C36.31 72.73 35.76 71.33 34.3 71.53C32.91 71.71 30.29 72.89 29.18 71.82C29.11 71.75 29.26 72.02 29.26 72.02Z" fill="url(#paint18_linear)"/>
<path d="M72.46 75.33C71.62 74.92 70.76 74.98 69.78 75.02C69.09 75.05 68.97 75.43 69.63 75.94C70.33 76.48 71.27 76.99 70.59 78.47C68.52 78 66.4 78.54 64.28 78.78C63.36 78.88 62.73 79.14 63.09 78.5C63.42 77.91 64.78 77.1 64.75 76.41C64.73 75.84 64.58 75.37 64.28 74.99C65.04 74.43 65.61 73.8 65.96 72.89C66 72.8 65.86 72.7 65.78 72.78C64.99 73.66 64 74.13 62.79 74.2C62.28 74.24 62.02 74.64 62.02 75.04C62.01 76.77 59.73 77.99 60.5 79.85C61.31 81.81 63.65 81.49 65.44 81.13C66.5 80.91 67.53 80.59 68.6 80.38C69.5 80.2 70.89 80.57 71.59 80C72.86 78.96 72.99 77.92 72.5 76.95C72.79 77.03 73.1 77.07 73.42 77.05C74.19 77.01 74.96 76.18 75.57 75.52L75.71 73.7C74.7 74.27 73 75.59 72.46 75.33Z" fill="url(#paint19_linear)"/>
<path d="M56.15 85.51C57.27 85.83 58.31 85.78 59.39 86.31C60.73 86.97 62.33 87.69 63.82 87.1C64.29 86.91 64.62 86.49 64.66 86.04C64.73 85.24 64.12 85.21 63.7 84.72C63.15 84.1 59.02 83.82 58.52 83.86C57.51 83.96 56.4 84.21 55.96 85.1C55.88 85.27 55.94 85.45 56.15 85.51Z" fill="url(#paint20_linear)"/>
<path d="M76.67 61L77.43 51.06C70.89 53.69 74.16 55.79 72.38 57.1C71.79 57.62 70 57.89 69.7 58.67C69.4 59.72 71.78 60.25 71.48 61.03C71.18 62.87 67.62 63.92 66.13 64.97C65.24 65.76 61.37 68.12 63.16 69.7C63.75 69.96 65.24 69.18 66.13 69.44C66.43 69.44 67.91 70.49 68.21 70.76C70.11 71.09 73.46 71.32 75.95 70.34L76.2 67.06C74.58 66.89 72.88 66.73 71.18 66.56C71.59 65.32 74.24 62.46 76.67 61Z" fill="url(#paint21_linear)"/>
<path d="M42.32 55.88C40.54 56.14 38.49 55.79 37 57.1C36.7 57.36 37.6 57.89 37.3 57.89C37.3 57.89 37 59.2 36.71 59.47C36.41 60 35.22 58.42 34.63 58.68C33.74 59.47 34.93 61.31 33.74 61.83C33.15 62.09 28.99 60.52 27.8 59.99C28.1 59.99 28.69 59.2 29.29 59.2C28.99 57.62 21.86 53.69 20.07 53.42C20.96 55.52 23.64 57.1 23.93 59.46C21.85 58.93 16.8 54.47 15.9 52.9C14.41 50.54 11.89 47.13 10.4 44.76C10.4 44.76 15.01 48.96 24.97 52.37C34.92 55.79 42.32 55.88 42.32 55.88Z" fill="url(#paint22_linear)"/>
<path d="M32.84 65.5C35.22 67.08 36.11 69.18 39.38 68.39C42.65 67.86 45.92 66.03 49.19 67.6C48.89 67.86 48.6 68.12 48.6 68.65C50.09 67.34 52.17 65.76 53.95 64.71C51.27 64.18 48 65.24 45.92 63.13C48.59 60.77 52.16 62.6 54.84 63.13C57.81 63.92 63.46 63.13 64.05 59.46C60.78 57.88 57.51 59.2 54.24 59.72C50.38 59.98 46.81 59.19 43.24 59.46C35.21 59.99 45.92 62.87 41.75 65.76C39.09 67.6 35.52 63.93 32.84 65.5Z" fill="url(#paint23_linear)"/>
<path d="M102.92 27.07C88.18 27.2 73.23 26.88 58.48 27.37C58.23 27.38 58.26 27.49 58.36 27.55C58.36 27.57 69.24 41.58 74.23 48.47C74.3 49.71 69.14 53.88 69.18 53.88C69.18 53.88 75.22 52.99 77.21 51.12C77.25 51.08 77.28 51.04 77.25 51C77.19 50.92 76.17 49.26 75.58 48.73C70.32 41.57 64.88 34.3 58.91 27.72C73.62 27.8 88.3 27.83 103 27.44L102.92 27.07Z" fill="url(#paint24_linear)"/>
<defs>
<radialGradient id="paint0_radial" cx="0" cy="0" r="1" gradientUnits="userSpaceOnUse" gradientTransform="translate(51.9835 70) scale(49.9818 30.0006)">
<stop stop-color="#92959E"/>
<stop offset="0.1438" stop-color="#9B9EA6"/>
<stop offset="0.3782" stop-color="#B3B5BC"/>
<stop offset="0.6724" stop-color="#DBDCDF"/>
<stop offset="0.9066" stop-color="white"/>
</radialGradient>
<linearGradient id="paint1_linear" x1="103.942" y1="39.8405" x2="69.3669" y2="46.1519" gradientUnits="userSpaceOnUse">
<stop stop-color="#FFB000"/>
<stop offset="0.5674" stop-color="#E99200"/>
<stop offset="1" stop-color="#D67800"/>
</linearGradient>
<linearGradient id="paint2_linear" x1="1.14131" y1="59.3729" x2="77.4355" y2="59.3729" gradientUnits="userSpaceOnUse">
<stop stop-color="#FFCF00"/>
<stop offset="0.4725" stop-color="#FFB000"/>
<stop offset="0.921" stop-color="#E89200"/>
<stop offset="1" stop-color="#E38C00"/>
</linearGradient>
<radialGradient id="paint3_radial" cx="0" cy="0" r="1" gradientUnits="userSpaceOnUse" gradientTransform="translate(37.0048 15.5736) scale(91.01 80.3669)">
<stop stop-color="#FFE069"/>
<stop offset="0.4725" stop-color="#FFB000"/>
<stop offset="0.921" stop-color="#E89200"/>
<stop offset="1" stop-color="#E38C00"/>
</radialGradient>
<linearGradient id="paint4_linear" x1="61.0677" y1="8.92941" x2="83.1937" y2="24.2477" gradientUnits="userSpaceOnUse">
<stop stop-color="#FFF7BD"/>
<stop offset="0.4121" stop-color="#FFE568"/>
<stop offset="1" stop-color="#FFCC00"/>
</linearGradient>
<linearGradient id="paint5_linear" x1="62.935" y1="22.9926" x2="89.9644" y2="25.5319" gradientUnits="userSpaceOnUse">
<stop stop-color="#FFE568"/>
<stop offset="1" stop-color="#FFCC00"/>
</linearGradient>
<linearGradient id="paint6_linear" x1="69.6944" y1="19.5076" x2="96.6862" y2="22.0434" gradientUnits="userSpaceOnUse">
<stop stop-color="#FFE568"/>
<stop offset="1" stop-color="#FFCC00"/>
</linearGradient>
<linearGradient id="paint7_linear" x1="67.2968" y1="15.2234" x2="94.2667" y2="17.757" gradientUnits="userSpaceOnUse">
<stop stop-color="#FFE568"/>
<stop offset="1" stop-color="#FFCC00"/>
</linearGradient>
<linearGradient id="paint8_linear" x1="17.3062" y1="38.0842" x2="56.5652" y2="37.9593" gradientUnits="userSpaceOnUse">
<stop stop-color="#FFF7BD"/>
<stop offset="0.4121" stop-color="#FFE568"/>
<stop offset="1" stop-color="#FFCC00"/>
</linearGradient>
<linearGradient id="paint9_linear" x1="40.8214" y1="47.0273" x2="98.6574" y2="58.9347" gradientUnits="userSpaceOnUse">
<stop stop-color="#FFCF00"/>
<stop offset="0.4725" stop-color="#FFB000"/>
<stop offset="0.921" stop-color="#E89200"/>
<stop offset="1" stop-color="#E38C00"/>
</linearGradient>
<linearGradient id="paint10_linear" x1="80.0029" y1="44.5078" x2="102.804" y2="44.5078" gradientUnits="userSpaceOnUse">
<stop stop-color="#FAA100"/>
<stop offset="1" stop-color="#FFBD00"/>
</linearGradient>
<linearGradient id="paint11_linear" x1="110.439" y1="60.1678" x2="77.6222" y2="35.9393" gradientUnits="userSpaceOnUse">
<stop stop-color="#FFF7BD"/>
<stop offset="0.4121" stop-color="#FFE568"/>
<stop offset="1" stop-color="#FFCC00"/>
</linearGradient>
<linearGradient id="paint12_linear" x1="12.4898" y1="65.0262" x2="32.4839" y2="80.6314" gradientUnits="userSpaceOnUse">
<stop stop-color="#FFE568"/>
<stop offset="1" stop-color="#FFCC00"/>
</linearGradient>
<linearGradient id="paint13_linear" x1="15.5252" y1="83.612" x2="53.3564" y2="83.612" gradientUnits="userSpaceOnUse">
<stop stop-color="#FFE568"/>
<stop offset="1" stop-color="#FFCC00"/>
</linearGradient>
<linearGradient id="paint14_linear" x1="19.8875" y1="65.8428" x2="26.345" y2="65.8428" gradientUnits="userSpaceOnUse">
<stop stop-color="#FFE568"/>
<stop offset="1" stop-color="#FFCC00"/>
</linearGradient>
<linearGradient id="paint15_linear" x1="6.81019" y1="38.0533" x2="28.097" y2="35.5158" gradientUnits="userSpaceOnUse">
<stop stop-color="#FFF7BD"/>
<stop offset="0.4121" stop-color="#FFE568"/>
<stop offset="1" stop-color="#FFCC00"/>
</linearGradient>
<linearGradient id="paint16_linear" x1="8.63042" y1="23.3398" x2="98.0149" y2="12.6846" gradientUnits="userSpaceOnUse">
<stop stop-color="#FFF7BD"/>
<stop offset="0.4121" stop-color="#FFE568"/>
<stop offset="1" stop-color="#FFCC00"/>
</linearGradient>
<linearGradient id="paint17_linear" x1="44.5085" y1="81.3576" x2="71.4867" y2="79.6563" gradientUnits="userSpaceOnUse">
<stop stop-color="#FFC700"/>
<stop offset="1" stop-color="#FAA100"/>
</linearGradient>
<linearGradient id="paint18_linear" x1="43.9798" y1="72.9316" x2="70.9578" y2="71.2303" gradientUnits="userSpaceOnUse">
<stop stop-color="#FFC700"/>
<stop offset="1" stop-color="#FAA100"/>
</linearGradient>
<linearGradient id="paint19_linear" x1="60.33" y1="77.0734" x2="75.7012" y2="77.0734" gradientUnits="userSpaceOnUse">
<stop stop-color="#FFBD00"/>
<stop offset="1" stop-color="#FAA100"/>
</linearGradient>
<linearGradient id="paint20_linear" x1="55.923" y1="85.5863" x2="64.674" y2="85.5863" gradientUnits="userSpaceOnUse">
<stop stop-color="#FFBD00"/>
<stop offset="1" stop-color="#FAA100"/>
</linearGradient>
<linearGradient id="paint21_linear" x1="62.7012" y1="61.0504" x2="77.4355" y2="61.0504" gradientUnits="userSpaceOnUse">
<stop stop-color="#FFBD00"/>
<stop offset="1" stop-color="#FAA100"/>
</linearGradient>
<linearGradient id="paint22_linear" x1="10.3994" y1="53.3077" x2="42.3203" y2="53.3077" gradientUnits="userSpaceOnUse">
<stop stop-color="#FFE568"/>
<stop offset="1" stop-color="#FFCC00"/>
</linearGradient>
<linearGradient id="paint23_linear" x1="36.6935" y1="63.5701" x2="75.3388" y2="63.8132" gradientUnits="userSpaceOnUse">
<stop stop-color="#FFCF00"/>
<stop offset="0.4725" stop-color="#FFB000"/>
<stop offset="0.921" stop-color="#E89200"/>
<stop offset="1" stop-color="#E38C00"/>
</linearGradient>
<linearGradient id="paint24_linear" x1="56.4659" y1="26.9366" x2="90.8274" y2="42.6613" gradientUnits="userSpaceOnUse">
<stop stop-color="#FFF7BD"/>
<stop offset="0.4121" stop-color="#FFE568"/>
<stop offset="1" stop-color="#FFCC00"/>
</linearGradient>
</defs>
</svg>
