<svg width="100" height="105" viewBox="0 0 100 105" fill="none" xmlns="http://www.w3.org/2000/svg">
<path d="M100 81.27C99.92 68.85 77.47 58.87 49.86 59C22.24 59.13 -0.0800298 69.31 -2.97573e-05 81.73C0.0799702 94.16 22.53 104.13 50.14 104C77.75 103.87 100.07 93.7 100 81.27Z" fill="url(#paint0_radial)"/>
<path d="M95 75.18C95 85.57 74.85 94 50 94C25.15 94 5 85.58 5 75.18V71H95V75.18Z" fill="#BB7526"/>
<path d="M50 90C74.8528 90 95 81.4934 95 71C95 60.5066 74.8528 52 50 52C25.1472 52 5 60.5066 5 71C5 81.4934 25.1472 90 50 90Z" fill="url(#paint1_radial)"/>
<path d="M90.89 63.07C90.7 62.9 90.51 62.72 90.31 62.55C83.72 64.33 77.18 66.1 72.33 67.41C71.51 67.63 70.68 67.85 69.86 68.08C70.93 67.68 71.99 67.27 73.06 66.86C77.22 65.26 81.35 64.15 85.73 62.97L89.55 61.94C89.38 61.81 89.2 61.68 89.03 61.56C84.3 62.83 79.54 63.98 75.05 65.72C72.04 66.89 69.01 68.21 65.82 69.17C65.09 69.36 64.37 69.56 63.64 69.76C63.49 69.8 63.34 69.83 63.19 69.86C58.58 70.88 54.46 70.65 49.74 72.15C45.43 73.32 41.12 74.49 36.82 75.65C29.16 77.72 21.73 80.28 14.11 82.46C14.32 82.58 14.54 82.69 14.76 82.81C21.18 80.99 27.53 78.93 33.88 76.96C38.38 75.74 42.88 74.53 47.37 73.3C49.58 72.7 51.66 72.06 53.87 71.76C55.19 71.58 56.49 71.47 57.8 71.31C52.61 72.71 47.41 74.12 42.22 75.53C37.91 76.7 33.53 77.78 29.32 79.18C24.87 80.67 20.35 82.07 15.79 83.34C16.04 83.46 16.29 83.59 16.55 83.71C22.94 81.82 29.2 79.72 35.68 77.97L90.89 63.07ZM23.43 76.68C19 78.18 14.22 79.13 9.82001 79.55C9.83001 79.56 9.83003 79.56 9.84003 79.57C10.83 79.46 11.81 79.35 12.8 79.24C16.54 78.81 20 77.92 23.43 76.68ZM45.46 78.38C49.94 77.08 54.48 75.6 59 74.46C60.39 74.11 61.45 75.14 63.12 74.28C64.81 73.52 66.3 72.66 67.88 71.84C69.31 71.1 70.9 70.34 72.66 69.9C74.9 69.35 76.04 69.91 78.03 69.58C83.22 68.71 87.78 66.4 92.41 64.64C92.34 64.56 92.28 64.48 92.21 64.4C89.46 65.42 86.83 66.58 83.96 67.48C81.87 68.13 79.98 68.43 77.88 68.91C75.86 69.37 74.27 69.08 72.07 69.69C70.2 70.21 68.53 71.02 67.01 71.83C66.05 72.34 63.81 73.88 62.62 74.1C61.71 74.26 60.88 74.03 60.38 73.84C59.67 73.56 59.44 73.76 58.27 74.08C56.1 74.67 53.93 75.27 51.75 75.87C47.12 77.14 42.51 78.5 37.9 79.83C31.82 81.57 25.82 83.38 19.78 85.1C20.11 85.23 20.46 85.35 20.81 85.48C24.11 84.55 27.4 83.59 30.65 82.56C35.52 80.98 40.53 79.81 45.46 78.38ZM16.3 72.71C17.25 73.28 19.62 72.91 21.34 72.77C24.51 72.51 22.85 73.89 20.69 74.9C17.55 76.36 11.89 77.35 7.60999 77.38C7.65999 77.44 7.7 77.49 7.75 77.55C8.86 77.52 9.98003 77.44 11.03 77.34C14.82 76.98 18.97 76.09 22.55 74.49C25.97 72.97 26.14 71.41 21.93 72.04C20.15 72.31 18.26 72.76 17.57 72.01C16.96 71.34 17.96 70.24 19.25 69.42C20.9 68.76 22.7 68.19 24.51 67.74C23.45 67.87 22.71 67.97 22 68.2C18.25 69.4 13.89 71.26 16.3 72.71ZM29.45 71.44C29.25 70.9 26.63 70.22 26.97 69.67C27.78 68.34 32.74 67.51 34.87 66.98C37.53 66.31 40.12 65.6 42.54 64.53C43.74 64 44.6 63.41 45.31 62.76C45.99 62.13 44.59 62.3 43.69 62.34C43.58 62.34 43.46 62.35 43.35 62.35C43.29 62.32 43.22 62.3 43.14 62.28C41.27 61.88 42.27 60.46 43.9 59.53C45.66 58.94 46.06 59.33 46.61 59.64C48.77 60.83 52.19 57.79 55.42 56.75C56.76 56.32 58.44 55.89 59.95 55.63C60.7 55.59 61.42 55.6 62.1 55.62C63.25 55.66 64.03 55.23 65.01 54.75C65.25 54.66 65.48 54.58 65.71 54.51C66.63 54.22 67.57 53.94 68.52 53.68C68.24 53.63 67.96 53.57 67.68 53.52C67.25 53.65 66.82 53.79 66.42 53.95C66.39 53.96 66.36 53.97 66.33 53.99C65.69 54.22 65.06 54.45 64.45 54.71C63.45 55.12 62.62 55.27 61.78 55.34C61.24 55.33 60.66 55.35 60.05 55.44C58.24 55.68 56.3 56.07 54.67 56.78C53.73 57.2 52.22 58.03 50.89 58.63C50.2 58.91 49.5 59.13 48.78 59.24C48.87 59.26 48.96 59.27 49.06 59.28C48.18 59.47 47.68 59.46 47.29 59.3C47.48 59.32 47.68 59.33 47.9 59.32C48.2 59.31 48.49 59.28 48.78 59.23C48.32 59.15 47.93 58.96 47.56 58.81C47.03 58.6 46.36 58.62 45.66 58.79C44.59 58.85 43.32 59.49 42.16 60.08C41.24 60.55 39.64 61.72 39.53 62.29C39.39 63.03 42 63.4 39.14 64.34C37.43 64.9 35.61 65.06 33.89 65.39C34.97 65.59 36.22 65.63 37.56 65.51C37.44 65.53 37.32 65.56 37.19 65.58C32.98 66.31 28.92 66.54 24.69 67.32C24.6 67.34 24.5 67.36 24.4 67.37C26.52 67.04 28.59 66.82 30.66 66.6C30.28 66.65 29.88 66.7 29.47 66.76C27.86 66.97 26.17 67.29 24.49 67.71C24.97 67.65 25.52 67.58 26.16 67.49C28.45 67.15 32.98 66.58 32.98 66.58C32.98 66.58 35.46 66.19 37.63 65.71C39.48 65.38 40.94 64.94 42.06 64.51C40.43 65.29 38.24 66.03 36.76 66.44C34.96 66.94 33.13 67.33 31.32 67.65C30.14 67.86 27.2 68.05 26.2 68.54C23.9 69.68 26.4 70.53 27.34 70.92C30.58 72.27 22.35 75.53 19.02 76.4C16.22 77.13 11.91 77.79 8.14001 77.97C8.28001 78.12 8.40999 78.26 8.54999 78.41C13.42 78.07 18.78 76.86 23.61 74.99C25.77 74.18 29.9 72.65 29.45 71.44ZM43.68 59.59C43.69 59.59 43.69 59.59 43.7 59.58C42.53 60.14 41.67 60.67 41.15 61.31C41.42 60.69 42.16 60.14 43.68 59.59ZM41.06 62.27C41.37 62.51 42.04 62.6 42.77 62.58C43.18 62.57 43.44 62.63 43.58 62.73C43.6 62.62 43.58 62.53 43.5 62.45C44.03 62.51 44.39 62.62 44.27 62.94C44.07 62.97 43.89 62.99 43.71 63.01C43.73 62.9 43.69 62.8 43.59 62.73C43.57 62.82 43.51 62.93 43.42 63.04C41.7 63.16 41.17 62.74 41.06 62.27ZM11.66 75.31C9.94997 75.97 7.91 76.2 6.56 75.96C6.65 76.1 6.74998 76.25 6.84998 76.39C9.04998 76.51 12.24 76.07 14.41 75.07C11.42 74.4 10.13 72.68 14.48 70.55C15.44 70.05 16.13 69.64 16.77 69.27C15.9 69.64 15.09 70.08 14.28 70.46C10.62 72.18 9.54997 74.02 11.66 75.31ZM59.84 85C53.74 86.65 47.55 88.17 41.37 89.65C41.74 89.68 42.11 89.71 42.48 89.73C47.72 88.35 52.96 86.96 58.22 85.71C62.99 84.57 67.77 83.73 72.53 82.48C77.15 81.27 81.61 79.69 86 78.08C88.52 77.16 90.98 76.49 93.5 75.85C93.58 75.72 93.65 75.59 93.73 75.45C92.18 75.92 90.62 76.39 89.06 76.88C79.47 79.89 69.58 82.37 59.84 85ZM53.04 79.62C55.06 79.17 57.09 78.8 59.1 78.29C61.21 77.76 62.96 77.68 65.01 77.22C67.3 76.7 69.41 75.77 71.41 74.88C72.38 74.45 75.71 72.75 76.6 73.04C78.22 73.56 84.89 70.65 86.96 69.69C88.73 68.43 91.11 67.21 93.62 66.32C93.52 66.15 93.4 65.98 93.29 65.82C88.97 67.41 84.8 69.78 80.53 71.04C78.09 71.76 77.55 71.24 75.48 71.22C74.06 71.21 72.61 71.56 71.86 72.43C70.41 74.07 67.53 76.04 63.97 76.69C61.47 77.15 60.19 76.76 57.5 77.56C55.66 78.11 53.83 78.49 51.97 78.95C47.61 80.02 43.26 81.06 38.93 82.29C33.97 83.69 29.05 85.14 24.13 86.55C24.55 86.67 24.97 86.79 25.39 86.91C29.71 85.65 34.03 84.37 38.4 83.17C43.25 81.83 48.16 80.69 53.04 79.62ZM61.09 89.42L84.92 82.98C85.61 82.62 86.27 82.25 86.9 81.87L57.9 89.71C58.98 89.62 60.04 89.53 61.09 89.42ZM56.7 87.55C53.72 88.36 50.73 89.12 47.78 89.97C48.52 89.98 49.26 89.99 50 89.99C50.22 89.99 50.45 89.98 50.67 89.98C51.41 89.82 52.15 89.65 52.9 89.42C55.03 88.78 57.14 88.1 59.26 87.44C63.92 85.99 68.67 84.85 73.39 84.09C78.15 83.32 82.26 82.12 86.94 80.67C87.9 80.37 88.87 80.1 89.84 79.82C90.26 79.48 90.65 79.14 91.02 78.8C89.29 79.3 87.55 79.8 85.83 80.32C76.27 83.23 66.34 84.92 56.7 87.55ZM57.29 81.28C62.25 79.85 66.71 78.7 71.71 77.68C75.89 76.83 80.36 75.68 84.46 74.4C86.82 73.66 88.87 72.93 90.54 71.78C91.72 70.97 93.25 70.34 94.92 69.91C94.86 69.49 94.77 69.08 94.65 68.68C94.4 68.75 94.15 68.81 93.9 68.89C90.56 69.96 89.08 71.89 86.16 73.25C81.77 75.29 76.88 76.1 72.05 77.08C67.83 77.93 64.05 78.64 59.85 79.88C55.03 81.3 50.19 82.6 45.38 84.06C40.93 85.42 36.74 86.85 32.18 87.92C31.76 88.02 31.35 88.13 30.93 88.23C31.46 88.34 31.99 88.44 32.53 88.53C36.52 87.63 40.53 86.69 44.44 85.44C48.73 83.76 52.8 82.57 57.29 81.28ZM90.76 73.71C83.2 76.92 74.74 76.78 66.84 79.19C64.44 79.93 62.14 80.86 60.11 81.91C58.46 82.77 57.21 83.8 55.17 84.4C51.44 85.49 47.39 86.47 43.62 87.38C41.13 87.98 38.66 88.54 36.2 89.08C36.52 89.13 36.85 89.17 37.17 89.21C41.48 88.25 45.76 87.2 50.06 86.07C53.8 85.08 57.84 84.78 61.47 83.45C65.11 82.11 66.77 79.79 70.82 78.63C74.88 77.47 79.1 77 83.11 76.33C87.32 75.63 90.85 73.89 94.81 72.66C94.87 72.39 94.91 72.11 94.94 71.83C93.48 72.32 92.13 73.13 90.76 73.71ZM10.83 80.35C10.91 80.41 11 80.47 11.08 80.54C12.67 80.13 14.27 79.72 15.86 79.28C14.18 79.68 12.5 80.02 10.83 80.35ZM21.24 68C20.17 68.24 20.25 67.74 19.72 67.88C18.48 68.31 17.7 68.74 16.78 69.28C17.26 69.07 17.76 68.88 18.28 68.73C20.09 68.21 22.5 67.75 24.42 67.39C24.1 67.44 23.79 67.49 23.47 67.55C22.72 67.69 21.97 67.84 21.24 68ZM6.32001 72.35C6.36001 72.34 6.41002 72.33 6.46002 72.32C6.15002 72.71 5.76997 73.11 5.40997 73.51C5.44997 73.65 5.48998 73.79 5.53998 73.93C5.96998 73.33 6.65002 72.69 7.21002 72.12C6.91002 72.19 6.61001 72.27 6.32001 72.35ZM64.12 52.96C63.37 53.29 62.62 53.58 61.82 53.74C63.17 53.7 63.39 53.69 64.78 53.05C64.55 53.02 64.34 52.99 64.12 52.96ZM47.93 57.47C47.29 57.08 47.24 56.78 45.77 57.39C44.37 57.97 43.2 58.64 42.29 59.39C40.61 60.78 45.35 57.28 46.71 57.62C47.37 57.78 48.19 58.46 49.43 57.9C49.62 57.82 49.8 57.73 49.98 57.65C49.23 57.84 48.54 57.84 47.93 57.47ZM28.03 74.86C27.72 74.99 27.42 75.11 27.14 75.23C25.9 75.76 24.67 76.24 23.43 76.69C24.31 76.39 25.18 76.07 26.03 75.73C26.72 75.45 27.38 75.16 28.03 74.86ZM61.78 65.56C58.95 65.84 55.43 66.97 52.49 67.74C49.38 68.56 46.22 69.37 43.11 69.87C44.23 68.53 44.13 66.44 40.18 67.55C38.55 68.01 38.81 68.75 38.33 69.39C37.78 70.13 36.75 70.93 35.71 71.62C33.65 73.01 31.08 74.26 28.31 75.37C29.52 74.94 30.72 74.49 31.9 74.03C34.07 73.18 36.2 72.28 38.25 71.34C39.32 70.85 40.99 69.76 42.21 69.42C41.52 69.96 39.88 70.99 39.78 71.54C39.74 71.75 43.29 70.96 43.67 70.86C47.32 69.97 50.96 68.95 54.61 68.08C56.38 67.66 58.17 67.24 59.95 66.89C61.7 66.54 63.05 66.92 65.02 66.46C68.7 65.6 71.73 63.74 75.09 62.49C78.36 61.27 82.23 60.45 85.8 59.51C85.54 59.36 85.26 59.22 84.99 59.07C82.13 59.79 79.27 60.34 76.62 60.54C70.93 60.97 67.31 65 61.78 65.56ZM35.69 70.19C35.84 69.27 33.3 68.86 33.84 68.15C34.37 67.44 35.97 67.15 37.21 66.81C41.82 65.54 44.61 63.33 46.51 63.02C47.13 62.92 46.89 63.16 46.08 63.87C45.48 64.4 44.78 65.01 44.76 65.52C45.05 66.61 49.6 65.26 51.26 64.8C53.79 64.09 56.33 63.33 58.85 62.65C60.23 62.52 61.71 62.94 63 62.66C64.63 62.32 64.75 60.4 65.03 59.84C65.51 58.88 66.18 57.92 67.98 57.06C72 55.15 74.44 56.2 77.67 56.01C76.78 55.72 75.86 55.43 74.92 55.17C71.04 55.55 66.45 56.03 64.61 58.32C63.78 59.36 64.1 60.5 62.14 61.5C61.13 62.02 59.66 61.79 58.66 61.95C57.21 62.17 55.82 62.75 54.45 63.21C52.88 63.73 51.72 63.72 50.21 64.09C48.98 64.39 47.56 64.87 46.36 64.97C45.1 65.07 46.04 64.06 46.6 63.61C47.5 62.89 47.49 62.1 44.48 63.63C43.08 64.34 41.71 65.14 40.16 65.75C37.92 66.64 34.7 66.99 33.41 68.26C32.57 69.1 34.72 69.48 34.71 70.2C34.71 70.78 33.34 71.7 32.53 72.28C31.24 73.2 29.7 74.07 28.02 74.86C31.13 73.58 35.42 71.89 35.69 70.19ZM16.92 66.65C21.39 65.06 26.01 63.66 30.5 62.07C34.7 60.58 38.71 59.01 43.03 57.69C48.97 55.88 54.96 54.19 60.97 52.57C60.81 52.55 60.65 52.54 60.49 52.52C59.34 52.84 58.2 53.17 57.05 53.49C56.35 53.68 55.65 53.87 54.94 54.06C55.94 53.73 56.93 53.4 57.91 53.05C58.49 52.85 59.05 52.64 59.62 52.43C59.29 52.4 58.96 52.37 58.63 52.34C58.44 52.42 58.24 52.49 58.04 52.57C53.49 54.43 49.99 55.51 45.08 56.33C41.39 56.95 37.7 57.53 33.97 58.36C25.42 60.3 15.71 62.07 8.72998 66.21C8.74998 66.13 6.56002 67.5 5.52002 68.11C5.34002 68.61 5.22 69.12 5.13 69.63C5.43 69.53 5.72998 69.42 6.03998 69.3C9.92998 67.75 11.56 65.53 15.12 63.94C19.5 62.25 24.51 61.18 29.13 60.04C33.63 58.93 37.96 58.13 42.39 57.28C37.59 58.54 32.83 59.89 28.32 61.56C24.02 63.15 19.75 64.75 15.82 66.63C12.67 68.14 9.22003 69.66 5.53003 70.65C5.36003 70.7 5.18001 70.73 5.01001 70.77C5.01001 70.79 5.01001 70.81 5.01001 70.83L6.02002 70.59C9.85002 69.7 13.31 67.94 16.92 66.65ZM13.12 61.92C15.09 61.98 16.03 61.72 18.25 61.1C27.56 58.51 36.65 55.86 46.05 53.72C48.09 53.26 50.12 52.66 52.15 52.02C51.44 52.01 50.72 52 49.99 52C49.52 52 49.05 52.01 48.58 52.02C46.1 52.72 43.63 53.39 41.09 54.01C31.82 56.27 22.76 59.07 13.51 61.49C12.74 61.4 11.93 61.39 11.1 61.45C10.86 61.62 10.62 61.79 10.4 61.97C11.35 61.89 12.27 61.89 13.12 61.92ZM5.17999 72.64C5.55999 72.54 5.94001 72.45 6.32001 72.35C5.94001 72.45 5.55999 72.54 5.17999 72.64C5.17999 72.64 5.17999 72.63 5.17999 72.64ZM61.09 53.85C61.34 53.83 61.58 53.79 61.82 53.74C61.68 53.74 61.54 53.75 61.38 53.75C59.66 53.81 57.89 54.32 56.22 54.96C57.8 54.42 59.46 53.99 61.09 53.85ZM49.97 57.65C51.08 57.37 52.31 56.67 53.57 56.1C54.41 55.72 55.29 55.33 56.21 54.98C55.85 55.11 55.48 55.24 55.13 55.38C53.33 56.07 51.67 56.88 49.97 57.65ZM22.09 58.09L43.99 52.17C43.19 52.22 42.4 52.27 41.61 52.33C34.58 54.24 29.45 55.64 27.87 56.06C23.05 57.36 18.23 58.69 13.41 60C13.34 60.02 13.28 60.03 13.21 60.05C12.8 60.29 12.41 60.54 12.02 60.8C12.71 60.66 13.4 60.51 14.1 60.32C16.73 59.81 19.49 58.79 22.09 58.09Z" fill="url(#paint2_radial)"/>
<path d="M82.4 57.68C72.42 53.09 60.85 51.9 50 51.8C39.44 51.71 28.62 53.27 18.77 57.17C12.87 59.51 5.33 63.86 5 70.99C4.69 77.65 12.54 81.98 17.6 84.31C27.58 88.9 39.15 90.09 50 90.19C60.56 90.28 71.38 88.72 81.23 84.82C87.13 82.48 94.67 78.13 95 71C94.68 64.18 87.93 60.22 82.4 57.68ZM81.23 83.83C71.61 88.25 60.46 89.41 50 89.5C39.83 89.59 29.42 88.08 19.94 84.33C14.25 82.08 6.97002 77.88 6.65002 71C6.36002 64.6 13.89 60.41 18.77 58.17C28.39 53.75 39.53 52.59 50 52.5C60.17 52.41 70.58 53.92 80.06 57.67C85.75 59.92 93.03 64.12 93.35 71C93.05 77.56 86.56 81.38 81.23 83.83Z" fill="url(#paint3_radial)"/>
<path opacity="0.4" d="M38.2 73C49.2457 73 58.2 69.866 58.2 66C58.2 62.134 49.2457 59 38.2 59C27.1543 59 18.2 62.134 18.2 66C18.2 69.866 27.1543 73 38.2 73Z" fill="#380F00"/>
<path opacity="0.4" d="M70.2 80C81.2457 80 90.2 76.866 90.2 73C90.2 69.134 81.2457 66 70.2 66C59.1543 66 50.2 69.134 50.2 73C50.2 76.866 59.1543 80 70.2 80Z" fill="#380F00"/>
<path d="M24.53 69.46C24.53 69.46 33.69 71.48 44.03 67.69C54.37 63.89 60 57.06 60 57.06L43.25 2.39999L24.53 69.46Z" fill="url(#paint4_linear)"/>
<path opacity="0.3" d="M50.1 24.76L41.89 68.4C42.6 68.19 43.31 67.96 44.04 67.69C54.38 63.89 60.01 57.06 60.01 57.06L50.1 24.76Z" fill="#380F00"/>
<path d="M43.25 2.39999L24.53 69.46C13.14 67.69 10 63.01 10 63.01L27.93 0C27.93 0 34.25 0.999994 43.25 2.39999Z" fill="url(#paint5_linear)"/>
<path d="M28.87 0.0800018L11.18 62.24C11.18 62.24 14.32 66.92 24.14 67.93L42.48 2.22C36.1 0.880001 30.91 0.290002 28.87 0.0800018Z" fill="url(#paint6_linear)"/>
<path d="M56.53 76.46C56.53 76.46 65.69 78.48 76.03 74.69C86.37 70.89 92 64.06 92 64.06L75.25 9.39999L56.53 76.46Z" fill="url(#paint7_linear)"/>
<path d="M75.25 9.39999L56.53 76.46C45.14 74.69 42 70.01 42 70.01L59.93 7C59.93 7 66.5 7.99999 75.25 9.39999Z" fill="url(#paint8_linear)"/>
<path d="M60.87 7.08L43.18 69.24C43.18 69.24 46.32 73.92 56.14 74.93L74.48 9.22C68.1 7.88 62.91 7.29 60.87 7.08Z" fill="url(#paint9_linear)"/>
<defs>
<radialGradient id="paint0_radial" cx="0" cy="0" r="1" gradientUnits="userSpaceOnUse" gradientTransform="translate(50 81.5003) rotate(-0.263172) scale(50.0049 22.4972)">
<stop stop-color="#92959E"/>
<stop offset="0.1438" stop-color="#9B9EA6"/>
<stop offset="0.3782" stop-color="#B3B5BC"/>
<stop offset="0.6724" stop-color="#DBDCDF"/>
<stop offset="0.9066" stop-color="white"/>
</radialGradient>
<radialGradient id="paint1_radial" cx="0" cy="0" r="1" gradientUnits="userSpaceOnUse" gradientTransform="translate(25.333 93.6676) scale(44.2391 44.5045)">
<stop stop-color="#EBB86F"/>
<stop offset="0.2171" stop-color="#E5AF65"/>
<stop offset="0.5802" stop-color="#D4984C"/>
<stop offset="1" stop-color="#BB7526"/>
</radialGradient>
<radialGradient id="paint2_radial" cx="0" cy="0" r="1" gradientUnits="userSpaceOnUse" gradientTransform="translate(5.50011 86.2489) scale(86.2715 86.7891)">
<stop stop-color="#E9B366"/>
<stop offset="0.2484" stop-color="#E7AE5C"/>
<stop offset="0.6626" stop-color="#E1A043"/>
<stop offset="1" stop-color="#DC9329"/>
</radialGradient>
<radialGradient id="paint3_radial" cx="0" cy="0" r="1" gradientUnits="userSpaceOnUse" gradientTransform="translate(49.9995 71) scale(34.5954)">
<stop offset="0.1758" stop-color="#FFD491"/>
<stop offset="0.313" stop-color="#FCCE87"/>
<stop offset="0.5426" stop-color="#F3BE6E"/>
<stop offset="0.8345" stop-color="#E5A444"/>
<stop offset="1" stop-color="#DC9329"/>
</radialGradient>
<linearGradient id="paint4_linear" x1="27.2632" y1="7.27689" x2="43.6751" y2="68.5268" gradientUnits="userSpaceOnUse">
<stop stop-color="#F7BF57"/>
<stop offset="0.5604" stop-color="#C96300"/>
<stop offset="1" stop-color="#6B341D"/>
</linearGradient>
<linearGradient id="paint5_linear" x1="34.7088" y1="0.2757" x2="17.8293" y2="67.9757" gradientUnits="userSpaceOnUse">
<stop stop-color="#F0A136"/>
<stop offset="1" stop-color="#D17000"/>
</linearGradient>
<linearGradient id="paint6_linear" x1="35.1697" y1="0.0345021" x2="17.9152" y2="66.6418" gradientUnits="userSpaceOnUse">
<stop stop-color="#FFFFA8"/>
<stop offset="0.0197" stop-color="#FEFAA3"/>
<stop offset="0.155" stop-color="#F8DD87"/>
<stop offset="0.2896" stop-color="#F4C973"/>
<stop offset="0.4221" stop-color="#F1BC67"/>
<stop offset="0.55" stop-color="#F0B863"/>
<stop offset="1" stop-color="#F0A136"/>
</linearGradient>
<linearGradient id="paint7_linear" x1="59.2632" y1="14.2769" x2="75.6752" y2="75.5271" gradientUnits="userSpaceOnUse">
<stop stop-color="#F7BF57"/>
<stop offset="0.5604" stop-color="#C96300"/>
<stop offset="1" stop-color="#6B341D"/>
</linearGradient>
<linearGradient id="paint8_linear" x1="66.7088" y1="7.2757" x2="49.8293" y2="74.9759" gradientUnits="userSpaceOnUse">
<stop stop-color="#F0A136"/>
<stop offset="1" stop-color="#D17000"/>
</linearGradient>
<linearGradient id="paint9_linear" x1="66.8581" y1="7.0288" x2="50.2254" y2="73.7387" gradientUnits="userSpaceOnUse">
<stop stop-color="#FFFFA8"/>
<stop offset="0.0197" stop-color="#FEFAA3"/>
<stop offset="0.155" stop-color="#F8DD87"/>
<stop offset="0.2896" stop-color="#F4C973"/>
<stop offset="0.4221" stop-color="#F1BC67"/>
<stop offset="0.55" stop-color="#F0B863"/>
<stop offset="1" stop-color="#F0A136"/>
</linearGradient>
</defs>
</svg>
