<svg width="129" height="104" viewBox="0 0 129 104" fill="none" xmlns="http://www.w3.org/2000/svg">
<path d="M89.23 64.78C89.17 53 71.2 43.54 49.11 43.66C27.01 43.78 9.14999 53.43 9.20999 65.22C9.26999 77.01 27.23 86.46 49.33 86.34C71.43 86.21 89.29 76.56 89.23 64.78Z" fill="url(#paint0_radial)"/>
<path d="M124 81.84C123.96 73.01 113.19 65.91 99.94 66.01C86.68 66.1 75.97 73.34 76 82.17C76.04 91.01 86.81 98.1 100.07 98C113.32 97.91 124.04 90.67 124 81.84Z" fill="url(#paint1_radial)"/>
<path d="M37.75 77.25C42.75 88.75 42.25 96.5 31 101.75C30.5 95.75 26 91.25 26.25 85.25C23 89.5 9.25 96 6.25 89L23.3 74.32L37.75 77.25Z" fill="url(#paint2_linear)"/>
<path d="M31.48 6.80001C23.09 11.94 16.81 20.97 14.99 29.86C12.68 41.18 10.43 52.89 15.79 63.88C20.64 73.57 31.09 80.45 40.68 78.49C52.58 76.06 64.53 76.78 74.67 70.89C85.02 64.88 90.58 61.84 93.43 50.09C96.06 39.23 91.68 25.25 83.91 17.86C75.88 10.24 69.06 2.69001 57.79 0.360008C50.51 -1.14999 38.77 2.33001 31.48 6.80001Z" fill="url(#paint3_radial)"/>
<path d="M66.41 74.3C64.48 71.78 54.75 67.48 53.4 67.18C49.94 66.41 45.87 65.78 42.45 66.66C38.36 67.71 35.63 69.84 35.21 71.59C32.95 71.4 30.51 71.22 29.55 71.16C29.63 70.38 29.57 69.6 29.19 68.89C28.16 66.9 26.81 65.39 26.11 63.16C24.78 58.86 21.43 57.14 19.6 52.9C18.71 50.84 18.04 49.48 16.63 49.65C15.18 49.93 14.41 51.57 13.99 52.62C13.58 53.75 13.31 54.78 13.13 55.77C13.64 58.5 14.49 61.21 15.79 63.88C16.92 66.14 18.37 68.24 20.03 70.12C23.54 72.75 27.06 74.57 27.06 74.57L28.19 76.52C28.27 76.56 28.36 76.59 28.44 76.63L33.18 76.64C32.76 75.63 32.54 74.84 33.01 73.63C33.93 73.86 34.88 73.77 35.81 73.57C36.72 75.17 38.45 77.29 40.01 78.59C40.23 78.55 40.46 78.54 40.68 78.49C49.48 76.68 58.31 76.6 66.41 74.3Z" fill="url(#paint4_radial)"/>
<path d="M84.97 22.68C86.41 26.12 88.51 29.04 88.71 32.93C88.85 35.82 87.95 38.81 87.35 41.6C87.29 41.86 87.63 42.11 87.86 41.93C94.07 36.89 88.32 27.51 85.04 22.64C85 22.61 84.95 22.64 84.97 22.68Z" fill="white"/>
<path opacity="0.7" d="M40.65 7.62C33.92 8.86 30.43 16.05 26.25 20.65C21.41 25.98 17.72 34.58 18.07 41.84C18.63 53.82 24.73 70.83 38.63 72.51C38.87 72.54 38.94 72.22 38.71 72.14C28 68.51 22.86 59.09 20.39 48.72C18.19 39.46 20.84 30.06 25.75 22.11C27.47 19.33 30.04 17.05 31.89 14.32C33.9 11.35 37.45 9.00001 40.69 7.70001C40.74 7.69001 40.71 7.61 40.65 7.62Z" fill="url(#paint5_radial)"/>
<path opacity="0.7" d="M93.42 50.08C94.3 46.47 94.38 42.51 93.84 38.56C89.36 40.52 85.66 43.1 82.31 44.98C78.56 47.23 73.81 51.73 72.06 55.98C70.29 60.66 70.44 66.69 72.06 72.22C72.94 71.81 73.81 71.38 74.66 70.88C85.02 64.87 90.57 61.83 93.42 50.08Z" fill="url(#paint6_radial)"/>
<path d="M98.48 41.32C104.89 39.05 108.79 40.14 113.44 41.32C120.62 43.15 122.96 47.46 125.85 52.85C132.11 64.6 128.26 74.89 121.03 84.68C113.08 95.45 93.81 92.76 84.41 86.64C76.7 81.25 72.85 67.05 76.22 57.99C77.91 53.83 82.48 49.42 86.1 47.22C89.96 45.02 92.94 43.28 98.48 41.32Z" fill="url(#paint7_radial)"/>
<path d="M88.29 72.31C87.99 66.09 102.17 66.44 105.57 66.97C108.6 67.44 110.73 70.41 113.33 71.85C114.79 72.66 115.63 73.1 116.87 74.43C120.74 78.6 116.75 81.8 114.65 84.3C114.51 84.47 114.72 84.7 114.9 84.59C117.77 82.85 120.58 78.5 118.26 75.14C117 73.32 115.64 72.15 113.78 71.01C110.95 69.28 109.28 66.59 106.26 65.03C101.27 62.46 97.73 65.57 93.33 67.13C90.88 67.99 87.01 68.92 88.22 72.31C88.24 72.36 88.3 72.36 88.29 72.31Z" fill="url(#paint8_radial)"/>
<path d="M94.95 45.52C98.03 51.9 105.13 56.18 111.48 58.44C121.67 62.06 125.63 68.24 124.37 78.94C124.35 79.13 124.63 79.27 124.71 79.06C127.24 72.38 124.74 65.51 119.26 61.32C116.22 58.99 112.28 58.2 108.76 56.97C103.51 55.14 97.51 50.5 95.02 45.49C94.99 45.45 94.93 45.48 94.95 45.52Z" fill="url(#paint9_radial)"/>
<path d="M35.92 71.84C34.51 71.49 25.37 70.88 25.37 70.88C24.45 73.19 23.3 74.32 23.3 74.32L24.5 76.38L29.42 76.39C29 75.38 28.78 74.59 29.25 73.38C31.5 73.93 33.97 72.67 35.91 72.17C36.07 72.12 36.09 71.88 35.92 71.84Z" fill="#3A7219"/>
<path d="M2.70001 86.02C4.85001 90.68 11.33 92.36 15.24 88.99C17.14 87.35 18.24 84.26 20.19 82.75C23.53 80.18 24.83 76.3 25.82 73.79C23 72.9 17.98 73.84 15.1 73.18C13.72 72.88 10.81 70.79 9.65 71.71C7.51 73.39 4.39999 74.74 2.32999 76.51C-0.140012 78.52 1.33001 83.04 2.70001 86.02Z" fill="url(#paint10_radial)"/>
<path d="M24.82 74.88C23.26 75.59 21.64 76.12 20.02 76.65C19.99 76.65 19.74 76.73 19.63 76.77C15.17 77.48 11.54 75.38 7.13002 75.43C7.06002 75.43 7.05001 75.53 7.12001 75.55C10.74 76.33 14.36 77.63 18.04 77.34C17.14 77.66 13.15 79.41 12.02 79.85C9.06 80.14 6.27 78.72 3.3 78.61C3.07 78.6 2.92002 78.8 3.23002 78.82C5.86002 78.98 8.50003 80.28 11.14 80.18C8.76003 81.07 6.33 81.86 3.93 82.59C3.89 82.6 3.90002 82.66 3.95002 82.66C6.33002 82.33 8.7 81.69 11.02 80.88C8.84 82.71 7.27 85.44 6.4 88C6.38 88.06 6.47 88.08 6.49 88.02C7.07 86.56 7.82 85.2 8.74 83.92C9.98 82.19 11.56 81.09 13.28 80.02C14.46 79.54 16.89 78.44 16.97 78.4C14.01 80.95 11.91 85.29 10.16 88.25C10.13 88.31 10.21 88.37 10.25 88.32C13.32 84.36 15.57 80.1 19.77 77.23C20.53 76.96 24.09 76.01 24.96 75.07C25.04 74.96 24.92 74.83 24.82 74.88Z" fill="url(#paint11_radial)"/>
<path d="M31.42 71.54C31.67 69.75 34.46 67.5 38.71 66.41C42.13 65.53 46.2 66.16 49.66 66.93C51.25 67.29 64.52 73.21 62.86 75.21C62.15 76.07 60.9 76.11 60 76.66C58.55 77.51 57.1 78.36 55.73 79.33C52.85 81.36 50.34 82.92 46.66 82.28C43.51 81.74 39.47 80.64 36.84 78.78C34.41 77.08 31.25 72.76 31.42 71.54Z" fill="url(#paint12_radial)"/>
<path d="M57.01 74.47C53.86 74.14 50.53 73.89 47.29 73.37C50.15 72.84 52.83 70.91 56.01 71.83C56.04 71.84 56.05 71.79 56.02 71.78C52.53 70.6 49.02 72.41 45.54 73.05C43.93 72.73 42.35 72.34 40.85 71.81C40.19 71.58 39.5 71.38 38.8 71.22C39.44 71.03 40.07 70.8 40.7 70.56C43.11 69.66 45.23 68.66 47.85 68.48C47.91 68.48 47.91 68.39 47.85 68.39C45.8 68.39 43.97 69.02 42.01 69.55C40.12 70.06 38.11 70.26 36.24 70.84C34.72 70.75 33.19 70.9 31.75 71.4C31.42 71.51 31.5 72.06 31.84 72C32.8 71.82 33.72 71.74 34.6 71.74C35.65 72.56 38.45 74.72 39.48 75.94C40.86 77.57 42.18 79.01 44.23 79.73C44.29 79.75 44.33 79.65 44.27 79.62C42.1 78.48 40.61 76.78 39.07 74.94C38.1 73.78 36.92 72.4 35.47 71.77C37.96 71.9 40.32 72.62 43.06 73.61C44.11 73.99 45.27 74.22 46.48 74.37C47.43 74.87 48.36 75.39 49.28 75.99C50.55 76.82 51.82 77.51 53.35 77.65C53.42 77.66 53.48 77.55 53.4 77.52C52.04 77.01 50.72 76.43 49.45 75.72C48.73 75.32 48.04 74.86 47.32 74.45C50.61 74.73 54.2 74.47 57.02 74.58C57.08 74.57 57.07 74.48 57.01 74.47Z" fill="url(#paint13_radial)"/>
<path d="M27.82 73.36C38.26 74.35 42.47 101.96 30 104C29.94 101.88 29.74 99.7 29.01 97.7C28.16 95.35 25.25 90.66 24.57 88.26C23.05 82.91 24.93 76.96 27.82 73.36Z" fill="url(#paint14_radial)"/>
<path d="M34.43 92.07C33.8 91.87 32.69 91.8 32.06 92.23C31.16 89.72 30.15 87.37 29.34 85.01C31.5 84.73 33.03 86.01 34.12 86.74C35.19 87.46 36.92 89.28 36.9 89.24C35.58 86.77 31.67 84.14 29.22 84.64C28.63 82.87 28.14 81.09 27.91 79.21C28.95 79.19 30.59 79.84 31.2 80.09C32.67 80.7 34.21 81.67 35.11 83.02C35.14 83.06 35.19 83.02 35.17 82.98C34.32 81.54 32.84 80.49 31.43 79.65C30.59 79.15 28.92 78.44 27.86 78.67C27.71 77.22 27.7 75.71 27.9 74.09C27.92 73.89 27.76 73.39 27.64 73.81C26.46 77.78 27.34 81.39 28.68 84.93C26.97 86.36 26.53 89.36 26.82 91.37C26.83 91.46 26.87 91.45 26.86 91.36C26.66 89.33 27.55 86.4 28.79 85.21C29.73 87.65 30.88 90.06 31.7 92.52C30.64 93.75 30.63 96.14 30.24 97.61C30.23 97.64 30.28 97.65 30.29 97.62C30.52 96.9 30.68 96.17 30.85 95.44C31.06 94.55 31.48 93.7 31.89 93.11C32.58 95.32 32.98 97.58 32.72 99.96C32.71 100.03 32.77 100.2 32.81 100.06C33.44 97.77 33.18 95.43 32.42 93.18C32.36 92.99 32.29 92.82 32.22 92.63C33.01 92.27 34 92.42 34.55 92.58C35.54 92.86 36.51 93.56 37.09 94.39C37.14 94.47 37.21 94.41 37.21 94.41C36.61 93.29 35.62 92.44 34.43 92.07Z" fill="url(#paint15_radial)"/>
<path d="M25.05 73.6C16.79 73.85 9.76001 67.64 9.29001 60.88C8.97001 57.71 9.12999 55.46 10.24 52.37C10.66 51.32 11.43 49.68 12.88 49.4C14.29 49.23 14.96 50.59 15.85 52.65C17.68 56.89 21.03 58.61 22.36 62.91C23.06 65.14 24.41 66.65 25.44 68.64C26.28 70.19 25.64 72.13 25.05 73.6Z" fill="url(#paint16_radial)"/>
<path d="M25.72 72.86C25.24 72.62 24.73 72.48 24.21 72.38C24.14 72.21 23.83 70.64 23.9 70.11C24 69.23 24.09 68.55 23.66 67.73C23.63 67.67 23.52 67.81 23.53 67.86C23.74 69.29 22.78 70.78 22.92 72.17C22.25 72.07 21.59 71.94 20.94 71.67C20.92 71.66 20.9 71.65 20.88 71.64C20.82 70.56 21.01 69.61 21.18 68.5C21.54 66.24 20.51 63.82 19.5 61.87C19.49 61.85 19.45 61.9 19.46 61.91C20.72 64.52 21.14 66.99 20.46 69.82C20.37 70.2 20.16 70.74 20.1 71.23C18.95 70.57 16.13 68.1 15.73 67.73C15.3 63.99 16.38 60.19 15.39 56.5C15.37 56.41 15.26 56.52 15.27 56.61C15.71 59.17 15.27 61.52 14.79 64.03C14.65 64.8 14.46 65.68 14.5 66.49C12.99 64.85 11.72 62.94 11.29 60.85C11.28 60.8 11.15 60.93 11.16 60.98C11.51 64.16 13.8 66.67 15.96 68.87C20.69 73.69 24.7 73.5 25.26 73.48C25.41 73.46 25.93 72.96 25.72 72.86Z" fill="url(#paint17_radial)"/>
<path d="M27.51 73.24C27.65 77.8 21.89 80.63 17.92 79.29C17.92 79.29 20.6 73.17 27.51 73.24Z" fill="url(#paint18_radial)"/>
<path d="M23.37 78.68C22.12 79.31 20.24 79.65 18.88 79.4C18.35 79.31 18.22 78.96 18.44 78.59C20.45 75.14 23.57 73.65 27.57 73.31L27.63 73.15C23.37 72.73 19.23 75.38 17.53 79.23C17.48 79.35 17.64 79.39 17.72 79.42C21.97 80.67 27.59 78.48 27.54 73.49C26.93 76.17 25.55 77.58 23.37 78.68Z" fill="#8CC23B"/>
<defs>
<radialGradient id="paint0_radial" cx="0" cy="0" r="1" gradientUnits="userSpaceOnUse" gradientTransform="translate(49.2202 64.9956) rotate(-0.30779) scale(40.0165 21.3357)">
<stop stop-color="#92959E"/>
<stop offset="0.1438" stop-color="#9B9EA6"/>
<stop offset="0.3782" stop-color="#B3B5BC"/>
<stop offset="0.6724" stop-color="#DBDCDF"/>
<stop offset="0.9066" stop-color="white"/>
</radialGradient>
<radialGradient id="paint1_radial" cx="0" cy="0" r="1" gradientUnits="userSpaceOnUse" gradientTransform="translate(116.461 64.2749) rotate(-0.384788) scale(59.1393 39.4189)">
<stop stop-color="#92959E"/>
<stop offset="0.1438" stop-color="#9B9EA6"/>
<stop offset="0.3782" stop-color="#B3B5BC"/>
<stop offset="0.6724" stop-color="#DBDCDF"/>
<stop offset="0.9066" stop-color="white"/>
</radialGradient>
<linearGradient id="paint2_linear" x1="20.8258" y1="97.1923" x2="34.456" y2="61.6845" gradientUnits="userSpaceOnUse">
<stop stop-color="white"/>
<stop offset="0.1586" stop-color="#F6F6F7"/>
<stop offset="0.4172" stop-color="#DEDFE1"/>
<stop offset="0.7416" stop-color="#B6B8BE"/>
<stop offset="1" stop-color="#92959E"/>
</linearGradient>
<radialGradient id="paint3_radial" cx="0" cy="0" r="1" gradientUnits="userSpaceOnUse" gradientTransform="translate(45.1973 34.2424) scale(47.7106)">
<stop stop-color="white"/>
<stop offset="0.4471" stop-color="#FEFEFD"/>
<stop offset="0.6081" stop-color="#F9F9F6"/>
<stop offset="0.7229" stop-color="#F0F1EB"/>
<stop offset="0.8157" stop-color="#E3E5DA"/>
<stop offset="0.8952" stop-color="#D3D6C4"/>
<stop offset="0.9643" stop-color="#C0C3A9"/>
<stop offset="1" stop-color="#B3B798"/>
</radialGradient>
<radialGradient id="paint4_radial" cx="0" cy="0" r="1" gradientUnits="userSpaceOnUse" gradientTransform="translate(35.5 44.0002) scale(38.0031)">
<stop stop-color="#EFF0E9"/>
<stop offset="1" stop-color="#B3B798"/>
</radialGradient>
<radialGradient id="paint5_radial" cx="0" cy="0" r="1" gradientUnits="userSpaceOnUse" gradientTransform="translate(38.4998 63.25) scale(68.9007)">
<stop stop-color="#EFF0E9"/>
<stop offset="1" stop-color="#B3B798"/>
</radialGradient>
<radialGradient id="paint6_radial" cx="0" cy="0" r="1" gradientUnits="userSpaceOnUse" gradientTransform="translate(70.9836 50.13) scale(25.9424)">
<stop stop-color="#EFF0E9"/>
<stop offset="1" stop-color="#B3B798"/>
</radialGradient>
<radialGradient id="paint7_radial" cx="0" cy="0" r="1" gradientUnits="userSpaceOnUse" gradientTransform="translate(91.5304 57.0474) scale(39.2168 39.8598)">
<stop stop-color="white"/>
<stop offset="0.4471" stop-color="#FEFEFD"/>
<stop offset="0.6081" stop-color="#F9F9F6"/>
<stop offset="0.7229" stop-color="#F0F1EB"/>
<stop offset="0.8157" stop-color="#E3E5DA"/>
<stop offset="0.8952" stop-color="#D3D6C4"/>
<stop offset="0.9643" stop-color="#C0C3A9"/>
<stop offset="1" stop-color="#B3B798"/>
</radialGradient>
<radialGradient id="paint8_radial" cx="0" cy="0" r="1" gradientUnits="userSpaceOnUse" gradientTransform="translate(85.9587 69.7691) scale(52.5291 53.3904)">
<stop stop-color="#EFF0E9"/>
<stop offset="1" stop-color="#B3B798"/>
</radialGradient>
<radialGradient id="paint9_radial" cx="0" cy="0" r="1" gradientUnits="userSpaceOnUse" gradientTransform="translate(100.895 48.0587) scale(48.3643 49.1574)">
<stop stop-color="#EFF0E9"/>
<stop offset="1" stop-color="#B3B798"/>
</radialGradient>
<radialGradient id="paint10_radial" cx="0" cy="0" r="1" gradientUnits="userSpaceOnUse" gradientTransform="translate(0.874395 84.4378) rotate(-68.3146) scale(20.5159)">
<stop offset="0.3956" stop-color="#8CC23B"/>
<stop offset="0.5388" stop-color="#7EB435"/>
<stop offset="0.8102" stop-color="#588F25"/>
<stop offset="1" stop-color="#3A7219"/>
</radialGradient>
<radialGradient id="paint11_radial" cx="0" cy="0" r="1" gradientUnits="userSpaceOnUse" gradientTransform="translate(0.374615 84.5623) scale(21.6476)">
<stop stop-color="#8CC23B"/>
<stop offset="0.1884" stop-color="#7EB735"/>
<stop offset="0.5457" stop-color="#589B25"/>
<stop offset="0.6648" stop-color="#4A911F"/>
<stop offset="1" stop-color="#3A7219"/>
</radialGradient>
<radialGradient id="paint12_radial" cx="0" cy="0" r="1" gradientUnits="userSpaceOnUse" gradientTransform="translate(50.9986 86.6242) rotate(-68.3146) scale(31.8997)">
<stop offset="0.3956" stop-color="#8CC23B"/>
<stop offset="0.5388" stop-color="#7EB435"/>
<stop offset="0.8102" stop-color="#588F25"/>
<stop offset="1" stop-color="#3A7219"/>
</radialGradient>
<radialGradient id="paint13_radial" cx="0" cy="0" r="1" gradientUnits="userSpaceOnUse" gradientTransform="translate(61.9998 77.9999) scale(29.4695)">
<stop stop-color="#8CC23B"/>
<stop offset="0.1884" stop-color="#7EB735"/>
<stop offset="0.5457" stop-color="#589B25"/>
<stop offset="0.6648" stop-color="#4A911F"/>
<stop offset="1" stop-color="#3A7219"/>
</radialGradient>
<radialGradient id="paint14_radial" cx="0" cy="0" r="1" gradientUnits="userSpaceOnUse" gradientTransform="translate(20.8116 90.0501) rotate(-68.3146) scale(17.2039)">
<stop offset="0.3956" stop-color="#8CC23B"/>
<stop offset="0.5388" stop-color="#7EB435"/>
<stop offset="0.8102" stop-color="#588F25"/>
<stop offset="1" stop-color="#3A7219"/>
</radialGradient>
<radialGradient id="paint15_radial" cx="0" cy="0" r="1" gradientUnits="userSpaceOnUse" gradientTransform="translate(28.8125 107.937) scale(31.1986)">
<stop stop-color="#8CC23B"/>
<stop offset="0.1884" stop-color="#7EB735"/>
<stop offset="0.5457" stop-color="#589B25"/>
<stop offset="0.6648" stop-color="#4A911F"/>
<stop offset="1" stop-color="#3A7219"/>
</radialGradient>
<radialGradient id="paint16_radial" cx="0" cy="0" r="1" gradientUnits="userSpaceOnUse" gradientTransform="translate(8.50483 67.7489) rotate(-68.3146) scale(16.7986)">
<stop offset="0.3956" stop-color="#8CC23B"/>
<stop offset="0.5669" stop-color="#7EB735"/>
<stop offset="0.8917" stop-color="#589B25"/>
<stop offset="1" stop-color="#4A911F"/>
</radialGradient>
<radialGradient id="paint17_radial" cx="0" cy="0" r="1" gradientUnits="userSpaceOnUse" gradientTransform="translate(8.1241 53.4375) scale(25.3679)">
<stop stop-color="#8CC23B"/>
<stop offset="0.1884" stop-color="#7EB735"/>
<stop offset="0.5457" stop-color="#589B25"/>
<stop offset="0.6648" stop-color="#4A911F"/>
<stop offset="1" stop-color="#3A7219"/>
</radialGradient>
<radialGradient id="paint18_radial" cx="0" cy="0" r="1" gradientUnits="userSpaceOnUse" gradientTransform="translate(21.6431 81.2527) rotate(-68.3146) scale(10.752)">
<stop offset="0.3956" stop-color="#8CC23B"/>
<stop offset="0.5388" stop-color="#7EB435"/>
<stop offset="0.8102" stop-color="#588F25"/>
<stop offset="1" stop-color="#3A7219"/>
</radialGradient>
</defs>
</svg>
