<svg width="106" height="94" viewBox="0 0 106 94" fill="none" xmlns="http://www.w3.org/2000/svg">
<path d="M1.63 68.01L1.91 71.59L3.25 75.26C3.25 75.26 39.57 90.23 47.09 87.71C47.04 85.98 47.01 80.97 46.97 79.24L1.63 68.01Z" fill="url(#paint0_linear)"/>
<path d="M71.33 68.01C63.17 72.41 43.75 80.76 43.75 80.76C44.19 81.86 45.88 85.39 47.09 87.71C53.81 86.21 70.22 75.93 70.22 75.93C70.22 75.93 72.43 71.53 71.33 68.01Z" fill="url(#paint1_linear)"/>
<path d="M64.68 34.22C61.67 31.37 57.74 28.63 53.21 27.22C51.24 26.61 49.79 25.54 48.26 24.19C46.48 22.63 44.32 23.71 42.62 22.02C39.31 18.72 36.84 14.55 33.48 11.21C31.88 9.62001 29.91 8.46999 28.26 6.92999C26.26 5.06999 26.34 1.87999 24.17 0.259995C18.88 0.889995 16.77 4.89 12.33 7C9.99999 8.26 8.09999 10.37 5.98999 11.42C4.29999 12.26 2.25001 11.84 1.20001 13.52C1.20001 13.52 9.58999 37.31 44.9 56.05L64.68 34.22Z" fill="url(#paint2_radial)"/>
<path d="M52.36 26.66C48.92 25.16 44.99 23.6 42.77 23.2C40.4 22.05 36.37 20.58 34.62 19.33C33.2 18.31 31.97 16.94 30.31 16.28C31.96 15.81 33.81 16.12 35.38 16.7C30.03 11.37 24.21 5.97 16.35 7.44C19.01 7.71 21.66 8.74001 24 9.99001C25.85 10.98 26.51 14.04 28.19 14.6C27.09 14.42 26.03 14.56 25.02 15.02C29.96 16.66 33.63 21.18 38.93 22.73C37.84 22.64 36.82 22.56 35.8 22.39C32.42 21.76 28.4 19.65 25.44 22.18C27.34 21.97 30.51 22.18 31.99 23.23C34.74 25.12 31.57 25.12 30.3 27.23C32.84 27.02 37.49 25.12 39.6 27.23C38.33 28.49 35.58 29.55 34.74 31.02C33.26 33.97 36.22 33.12 38.12 32.49C41.08 31.44 47.42 29.33 50.38 31.02C48.9 32.28 46.79 32.28 45.31 33.55C48.9 33.13 46.58 35.66 46.37 37.13C48.91 37.13 49.97 33.97 52.08 33.13C53.56 32.5 57.72 33.25 59.2 33.46C60.51 33.02 62.27 33.08 64.46 34.06C64.46 34.05 62.61 31.14 52.36 26.66Z" fill="url(#paint3_linear)"/>
<path d="M12.34 13.54C14.24 10.8 16.99 14.8 18.26 15.65C20.58 17.12 23.76 16.28 25.87 17.76C24.18 18.39 19.74 18.39 18.05 17.55C15.93 16.49 15.51 13.12 12.34 13.54Z" fill="url(#paint4_linear)"/>
<path d="M64.98 34.24C66.25 35.71 66.46 39.22 66.67 41.33C67.09 44.07 67.73 46.8 67.94 49.75C68.36 53.54 69 57.75 70.05 61.54C70.47 63.86 71.85 67.23 71.85 69.75C69.73 72.91 64.56 74.38 59.9 76.49C56.73 77.96 51.23 81.96 46.79 83.44C47 78.6 45.73 71.65 45.31 66.81C45.1 62.39 45.1 59.07 44.46 54.44C44.04 50.23 50.17 43.86 52.71 41.12C53.77 39.86 57.24 34.17 58.21 33.75C61.28 32.41 63.92 34.03 64.98 34.24Z" fill="url(#paint5_linear)"/>
<path d="M46.8 83.44C39.15 83.99 29.91 80.26 22.61 78.27C15.49 76.33 8.79998 73.23 1.76998 71.23C0.289976 60.91 0.709996 54.6 0.289996 44.49C-0.130004 34.38 0.359979 23.65 1.20998 13.54C3.92998 18.23 7.92 21.92 11.42 26.01C14.52 29.64 16.02 33.64 19.96 36.55C24.05 39.57 27.22 43.65 31.4 46.57C35.57 49.48 40.84 50.8 44.49 54.43L46.8 83.44Z" fill="url(#paint6_linear)"/>
<path d="M18.89 35.57C22.91 39.99 26.71 43.99 31.58 47.57C35.17 50.31 39.4 51.99 41.94 55.99C44.05 58.94 44.69 66.94 46.59 78.94C46.17 70.94 45.66 59.98 46.17 53.88C46.38 51.35 48.29 47.77 51.24 42.51C47.22 47.98 44.07 50.23 40.03 49.04C30.73 46.31 22.91 38.52 18.89 35.57Z" fill="url(#paint7_radial)"/>
<path d="M71.85 69.15C68.58 73.05 63.14 74.28 58.89 76.67C54.88 78.92 46.85 83.31 46.81 83.31C31.33 83.19 16.29 74.53 1.78 70.3C1.78 70.3 1.77999 71.29 2.23999 71.67C9.89999 74.03 17.17 77.32 24.9 79.48C31.97 81.45 39.32 84.25 46.79 83.57C46.79 83.57 50.93 82.29 57.72 77.96C61.79 75.37 68.67 74.24 71.41 70.79C71.96 70.09 71.96 69.69 71.85 69.15Z" fill="#D09400"/>
<path d="M65.11 34.55C63.19 32.25 60.11 29.89 57.17 28.47C55.55 27.69 53.91 27.09 52.24 26.44C50.4 25.72 49.2 23.47 47.29 22.98C45.74 22.58 44.4 22.53 43.01 21.57C41.46 20.5 39.76 17.9 38.48 16.28C36.99 14.4 35.47 12.57 33.81 10.84C31.44 8.37999 28.44 7.21 26.98 3.91C26.28 2.33 25.63 1.44 24.39 0.24C24.15 0.00999977 23.85 -0.0600008 23.46 0.129999C19.55 0.829999 16.56 4.04999 13.22 6.14999C11 7.54999 8.99999 9.00999 6.85999 10.53C4.87999 11.93 2.64001 11.51 0.950012 13.3L1.48001 13.82C2.87001 12.34 5.48999 12.18 7.23999 11.17C9.11999 10.08 10.68 8.49 12.54 7.35C16.24 5.08 19.22 2.13999 23.32 0.679987C25.18 0.919987 26.1 4.59 27.12 6.38C27.96 7.86 29.82 8.89999 31.11 9.88999C34.81 12.71 37.32 16.74 40.22 20.32C41.14 21.46 42.07 22.43 43.29 23.25C45.19 24.51 46.65 23.67 48.86 25.44C50.09 26.43 51.57 27.08 53.04 27.6C57.42 29.16 60.91 31.23 64.25 34.08C64.26 34.08 65.14 34.57 65.11 34.55Z" fill="#FFD454"/>
<path d="M2.16002 71.5C1.05002 62.85 0.960024 53.68 0.950024 44.98C0.940024 34.94 1.01 25.44 2.49 15.49C2.11 15.16 1.56 13.63 0.960003 13.35C0.410003 13.84 -1.18999 52 1.62001 71.27C1.62001 71.34 2.16002 71.5 2.16002 71.5Z" fill="#FFFFB5"/>
<path d="M64.51 33.89C63.09 32.85 59.93 32.57 58.32 33.44C56.62 34.35 55.25 37.28 54.19 38.77C52.14 41.63 49.65 44.12 47.54 46.94C46.4 48.46 44.48 51.04 44.13 53.33C41.39 51.02 38.15 50.21 34.93 48.53C29.91 45.91 26.27 41.83 22.16 38.06C19.86 35.95 15.46 31.04 12.49 26.94C9.07 22.22 4.61 18.46 1.46 13.51C1.21 13.11 0.570018 12.92 0.950018 13.56C3.49002 17.84 6.95002 21.38 10.26 25.06C13.35 28.51 15.41 32.69 18.77 35.91C22.02 39.03 25.69 42.24 29.22 45.07C33.82 48.75 39.61 50.47 44.09 54.27C44.11 54.53 46.15 73.98 46.77 83.46C46.78 83.54 46.84 83.54 46.84 83.46C47.31 79.1 46.46 74.61 45.94 70.29C45.29 64.87 45.69 59.36 44.89 53.96C46.19 48.39 50.05 45.22 53.31 40.74C54.8 38.69 56.18 36.54 57.73 34.53C59.09 32.78 63.15 33.77 64.87 34.41C64.94 34.45 64.61 33.96 64.51 33.89Z" fill="#FFFFB5"/>
<path d="M72 69.74C71.43 62.99 69.17 56.48 68.44 49.71C68.1 46.55 67.41 43.45 67.09 40.3C66.87 38.1 66.1 35.15 64.84 34.16C64.36 33.79 63.99 33.82 64.4 34.27C65.88 35.87 65.94 40 66.37 42.77C66.82 45.59 67.26 48.38 67.61 51.21C67.93 53.72 68.38 56.22 68.91 58.69C69.68 62.31 71.68 66.09 71.91 69.75C71.92 69.82 72 69.8 72 69.74Z" fill="#FFFFB5"/>
<path d="M106 83.85C106 78.24 96.37 73.7 84.5 73.7C72.63 73.7 63 78.24 63 83.85C63 89.46 72.63 94 84.5 94C96.37 94 106 89.46 106 83.85Z" fill="url(#paint8_radial)"/>
<path d="M84.5 90.19C96.3741 90.19 106 84.5085 106 77.5C106 70.4915 96.3741 64.81 84.5 64.81C72.6259 64.81 63 70.4915 63 77.5C63 84.5085 72.6259 90.19 84.5 90.19Z" fill="url(#paint9_linear)"/>
<path d="M103.47 77.5C103.47 71.89 94.98 67.35 84.5 67.35C74.02 67.35 65.53 71.9 65.53 77.5C65.53 83.11 74.02 87.65 84.5 87.65C94.98 87.65 103.47 83.11 103.47 77.5Z" fill="url(#paint10_linear)"/>
<path d="M75.5 70L99.83 76.33L100.83 73.83L76.67 68.17L75.5 70Z" fill="#DEA600"/>
<path d="M84.05 78.61L74.37 81.9L71.23 78.2L82.69 76.97L84.05 78.61Z" fill="#DEA600"/>
<path d="M92.96 68.9L96.34 81.6L85.88 67.7L92.96 68.9Z" fill="#FFD842"/>
<path d="M81.21 71.32L86.03 74.85L90.17 82.85L85.57 82.13L81.21 71.32Z" fill="#FFD842"/>
<path d="M83.59 66L87.38 76.3L93.61 84.48L95.45 83.12L83.59 66Z" fill="#DEA600"/>
<path d="M98.24 83.86L81.66 62L79.21 63.61L94.03 82.51L98.24 83.86Z" fill="#EBC100"/>
<path d="M78.75 72L85.43 86.65L88.16 85.55L80.66 68.58L78.75 72Z" fill="#DEA600"/>
<path d="M72.45 81.43L89.9 74.72L91.11 76.74L74.03 83.45L72.45 81.43Z" fill="#FFE352"/>
<path d="M87.33 74L88.02 75.2L96.89 77.4L97.67 82.83L98.86 82.43L99.66 81.53L98.29 76.25L87.33 74Z" fill="#FFD842"/>
<path d="M86.78 71.85L99.13 75.4L100.15 81.55L98.5 82L97.59 76.7L87.33 74L86.78 71.85Z" fill="#FFFABF"/>
<path d="M97.17 85.67L84.83 81.83L73.49 83.67L73.29 80.97L85.06 79.93L99.17 84.5L97.17 85.67Z" fill="#FFE352"/>
<path d="M74.68 79.57L85.6 78.7L100.17 83.17L98.83 84.67L85.19 80.75L73.69 81.57L74.68 79.57Z" fill="#FFFABF"/>
<path d="M87.71 62.25L67.54 78.99L68.85 81.41L89.38 64.32L87.71 62.25Z" fill="#FFD842"/>
<path d="M75.03 66.23L76.52 67.87L73.93 80.03L84.49 85.03L83.98 86.59L71.61 81.14L75.03 66.23Z" fill="#EBC100"/>
<path d="M72.98 65.81C72.98 66.22 69.43 81.96 69.43 81.96L82.79 88.43L84.02 86.1L72.3 80.72L75.03 66.21L72.98 65.81Z" fill="#FFE352"/>
<path d="M88.21 65.5L100.17 71.33L98.08 71.8L86.02 67.1L88.21 65.5Z" fill="#FFE352"/>
<path d="M77.17 70.5L94.43 70.66L94.87 72.97L76.83 72.33L77.17 70.5Z" fill="#FFE352"/>
<path d="M67.79 75.47L69.83 75.75L78.01 68.76L100.03 74.59L101.17 73.17L101 71.67L77.47 66.44L67.79 75.47Z" fill="#EBC100"/>
<path d="M67.79 75.47L77.53 67.32L99.94 73.29L101.44 71.39L77.2 65.07L66.42 74.24L67.79 75.47Z" fill="#FFFABF"/>
<defs>
<linearGradient id="paint0_linear" x1="23.3921" y1="81.7507" x2="24.7694" y2="76.2267" gradientUnits="userSpaceOnUse">
<stop stop-color="white"/>
<stop offset="0.1586" stop-color="#F6F6F7"/>
<stop offset="0.4172" stop-color="#DEDFE1"/>
<stop offset="0.7416" stop-color="#B6B8BE"/>
<stop offset="1" stop-color="#92959E"/>
</linearGradient>
<linearGradient id="paint1_linear" x1="60.7175" y1="82.6693" x2="57.176" y2="73.4435" gradientUnits="userSpaceOnUse">
<stop stop-color="white"/>
<stop offset="0.1586" stop-color="#F6F6F7"/>
<stop offset="0.4172" stop-color="#DEDFE1"/>
<stop offset="0.7416" stop-color="#B6B8BE"/>
<stop offset="1" stop-color="#92959E"/>
</linearGradient>
<radialGradient id="paint2_radial" cx="0" cy="0" r="1" gradientUnits="userSpaceOnUse" gradientTransform="translate(22.8036 13.538) scale(60.8462 60.5914)">
<stop offset="0.0604" stop-color="#FFEB57"/>
<stop offset="0.6429" stop-color="#FACC21"/>
<stop offset="1" stop-color="#D89900"/>
</radialGradient>
<linearGradient id="paint3_linear" x1="33.6882" y1="32.3769" x2="41.8671" y2="18.2107" gradientUnits="userSpaceOnUse">
<stop stop-color="#FFF2B8"/>
<stop offset="0.2802" stop-color="#FFF2A1"/>
<stop offset="0.6154" stop-color="#FFEB57"/>
<stop offset="0.7747" stop-color="#FFF2A1"/>
</linearGradient>
<linearGradient id="paint4_linear" x1="12.3359" y1="15.3964" x2="25.8652" y2="15.3964" gradientUnits="userSpaceOnUse">
<stop stop-color="#FFF2B8"/>
<stop offset="0.2802" stop-color="#FFF2A1"/>
<stop offset="0.6154" stop-color="#FFE87D"/>
<stop offset="0.7747" stop-color="#FFF2A1"/>
</linearGradient>
<linearGradient id="paint5_linear" x1="50.2586" y1="31.7113" x2="61.8557" y2="85.058" gradientUnits="userSpaceOnUse">
<stop offset="0.0604" stop-color="#FFEB57"/>
<stop offset="0.6374" stop-color="#FACC21"/>
<stop offset="1" stop-color="#D89900"/>
</linearGradient>
<linearGradient id="paint6_linear" x1="23.0573" y1="26.5128" x2="23.689" y2="79.781" gradientUnits="userSpaceOnUse">
<stop offset="0.0604" stop-color="#FFEB57"/>
<stop offset="0.6374" stop-color="#FACC21"/>
<stop offset="1" stop-color="#D89900"/>
</linearGradient>
<radialGradient id="paint7_radial" cx="0" cy="0" r="1" gradientUnits="userSpaceOnUse" gradientTransform="translate(42.7804 52.8383) scale(18.0327 17.9571)">
<stop stop-color="#FFFFB5"/>
<stop offset="0.1201" stop-color="#FFF89A"/>
<stop offset="0.4291" stop-color="#FFE658"/>
<stop offset="0.6893" stop-color="#FFDA28"/>
<stop offset="0.8874" stop-color="#FFD20B"/>
<stop offset="1" stop-color="#FFCF00"/>
</radialGradient>
<radialGradient id="paint8_radial" cx="0" cy="0" r="1" gradientUnits="userSpaceOnUse" gradientTransform="translate(84.5 83.8462) scale(21.4995 10.154)">
<stop stop-color="#92959E"/>
<stop offset="0.1438" stop-color="#9B9EA6"/>
<stop offset="0.3782" stop-color="#B3B5BC"/>
<stop offset="0.6724" stop-color="#DBDCDF"/>
<stop offset="0.9066" stop-color="white"/>
</radialGradient>
<linearGradient id="paint9_linear" x1="96.606" y1="65.394" x2="74.3487" y2="87.6513" gradientUnits="userSpaceOnUse">
<stop offset="0.489" stop-color="#FAF0D6"/>
<stop offset="0.6522" stop-color="#F7EDD3"/>
<stop offset="0.7814" stop-color="#EDE4CB"/>
<stop offset="0.8985" stop-color="#DCD5BD"/>
<stop offset="1" stop-color="#C7C2AB"/>
</linearGradient>
<linearGradient id="paint10_linear" x1="84.5" y1="67.3457" x2="84.5" y2="87.1241" gradientUnits="userSpaceOnUse">
<stop stop-color="#E9E0C7"/>
<stop offset="0.0647" stop-color="#EBE3CD"/>
<stop offset="0.4327" stop-color="#F6F2E8"/>
<stop offset="0.7567" stop-color="#FDFCF9"/>
<stop offset="1" stop-color="white"/>
</linearGradient>
</defs>
</svg>
