<svg width="124" height="91" viewBox="0 0 124 91" fill="none" xmlns="http://www.w3.org/2000/svg">
<path d="M30.25 58.6C23 59.1 13 61.35 10.25 62.85C5.83003 65.26 5.75003 70.1 8.75003 73.6C10.75 75.85 9.50003 79.35 11.25 81.35C13 83.6 15.5 81.6 18 82.6C21 83.6 23 86.35 25.5 88.1C32 91.85 31.5 78.35 38 82.1C39 82.85 39 84.35 40.25 85.1C41.5 85.85 43.5 85.85 44.75 85.85C48.25 85.85 51.25 84.6 54.75 84.1C58.5 83.6 58.5 86.35 61.25 88.6C63.75 90.6 66 91.35 69.25 90.85C75 90.1 78.75 85.85 84 85.35C89 84.85 97.5 88.35 104.75 82.85C108.51 80 111.22 70 116.25 71.1C124.25 72.85 125.25 66.1 117.25 60.1C113.01 56.92 30.25 58.6 30.25 58.6Z" fill="url(#paint0_linear)"/>
<path d="M114.86 67.21C114.86 67.21 119.69 68.85 121.77 70.87C123.67 64.71 124.3 59.84 122.95 58.09C121.17 55.8 116.68 57.24 116.68 57.24L114.86 67.21Z" fill="url(#paint1_radial)"/>
<path d="M59.31 75.83C60.04 77.31 61.66 78.86 62.03 79.97C62.94 82 62.98 83.28 62.01 84.39C63.1 84.94 67.64 86.79 69.1 87.16C71.46 87.72 74.37 87.16 76.37 86.05C77.64 85.31 88.91 76.45 87.46 83.47C87.46 83.47 94.55 82.55 92.55 75.72C90.55 68.89 89.46 67.05 89.46 67.05L59.31 75.83Z" fill="url(#paint2_radial)"/>
<path d="M27.39 70.02C28.12 71.5 30.3 73.34 30.66 74.45C31.57 76.48 31.02 75.19 29.21 77.22C30.3 77.77 31.75 77.4 32.84 77.96C34.29 78.51 37.21 76.17 37.85 77.55C40.92 84.09 47.19 82.39 49.19 81.29C50.46 80.55 55.32 71.02 52.26 70.09C28.75 62.92 27.39 70.02 27.39 70.02Z" fill="url(#paint3_radial)"/>
<path d="M110.23 75.41C110.23 79 109.69 80.24 108.87 81.2C107.22 83.15 103.65 83.55 101.21 83.82C98.77 84.1 96.1 82.4 96.13 81.41C96.24 77.75 99.37 69.75 93.95 69.97C93.95 69.97 100.86 61.48 104.86 66.83C108.86 72.19 110.23 75.41 110.23 75.41Z" fill="url(#paint4_radial)"/>
<path d="M18.12 47.78C18.54 46.28 19.45 43.61 15.95 43.12C9.66998 41.99 13.73 47.64 11.01 49.11C10.1 49.48 8.64998 48.74 7.91998 49.66C7.36998 50.58 9.74999 52.49 9.56999 53.41C9.20999 54.7 7.29997 53.79 6.92997 55.45C6.74997 56.19 7.00999 57.6 6.81999 58.33C6.81999 59.07 5.16998 60.85 6.47998 61.77C7.55998 62.53 8.52998 61.03 9.47998 60.79C15.82 59.19 20.09 61.53 25.7 58.4L36.19 46.26C36.2 46.28 23.5 38.04 18.12 47.78Z" fill="url(#paint5_linear)"/>
<path d="M20.45 52.9C20.18 53.06 19.45 53.73 18.28 52.53C16.65 50.78 18.08 47.53 18.24 46.36C18.7 42.91 14.69 42.79 13.36 43.41C12.27 43.92 12.69 46.35 12.41 47.56C12.15 48.68 11.33 49.62 10.33 49.57C10.09 49.56 8.51005 49.09 8.07005 49.94C7.80005 50.46 8.90004 51.47 9.25004 51.96C9.50004 52.32 9.90004 52.91 9.75004 53.38C9.19004 55.12 6.90004 54.03 7.11004 56.05C7.20004 56.92 7.38004 57.64 7.14004 58.5C7.08004 58.73 6.61005 59.47 6.49005 59.67C5.90005 60.72 6.05005 61.85 7.35005 61.69C8.18005 61.44 11.3 58.62 18.44 60.12C18.8 59.87 18.83 60.55 18.44 60.5C12.28 59.62 8.04004 62.01 7.39004 62.08C5.77004 62.23 5.30004 60.79 6.03004 59.53C7.85004 56.37 5.75005 55.94 7.49005 54.44C7.94005 54.05 8.76004 53.97 9.16004 53.57C9.57004 53.16 8.01004 51.65 7.81004 51.23C7.29004 50.18 7.51004 49.71 8.53004 49.16C9.66004 48.55 11.39 49.82 11.7 47.87C11.82 47.11 11.92 45.77 12.01 45C12.41 41.66 15.25 42.28 17.35 43.23C19.3 44.1 18.9 46.45 18.45 47.86C17.01 52.34 19.54 52.62 20.45 52.9Z" fill="#A8F227"/>
<path d="M62.64 74C87.664 74 107.95 65.9411 107.95 56C107.95 46.0589 87.664 38 62.64 38C37.616 38 17.33 46.0589 17.33 56C17.33 65.9411 37.616 74 62.64 74Z" fill="url(#paint6_linear)"/>
<path d="M104.85 42.5C119.06 42.41 122.76 56.71 122.86 58.23C121.45 57.13 118.35 61.48 116.75 65.83C113.29 75.27 104.94 86.37 99.2201 79.57C100.86 77.69 107.85 65.36 97.9501 68.13C93.4801 69.38 96.96 81.22 91.86 83.88C90.6 84.53 87.2801 84.61 86.5001 83.92C87.1301 81.14 93.1101 82.34 91.0901 78.24C90.6401 77.32 89.4001 71.07 88.0301 71.97C86.8601 72.74 85.46 74.25 84.8 75.42C82.87 78.82 79.6801 74.52 78.1401 78.1C77.0401 80.65 77.2101 82.25 73.4101 81.42C67.3501 80.54 69.2301 79.15 69.6701 75.67C67.5901 79.97 55.2301 74.59 52.5101 76.44C53.1301 76.91 56.5301 79.49 54.6001 80.66C48.7901 84.2 48.8001 67.04 43.9701 69.8C40.6501 71.69 45.5101 74.23 46.2801 75.01C49.7201 78.97 41.4601 82.52 41.9301 76.11C42.3301 70.64 40.5501 70.82 38.2201 73.03C34.9401 76.15 31.8501 81.21 30.9301 68.52C43.7701 63.65 47.5101 53.75 63.7201 49.37C91.5501 41.86 104.85 42.5 104.85 42.5Z" fill="url(#paint7_linear)"/>
<path d="M42.05 66.75C52.15 77 110.75 77.5 105.58 48.5L42.05 66.75Z" fill="url(#paint8_radial)"/>
<path d="M107.67 49.73C108.98 51.14 110.53 52.25 111.93 53.55C114.88 56.3 111.27 59.53 109.35 61.88C106.03 65.93 100.1 64.14 96.89 68.59C96.71 68.84 97.45 68.18 97.79 67.92C101 65.44 104.22 66.48 107.49 64.47C109.61 63.17 111.4 60.61 113 58.75C117.24 53.83 110.96 52.19 107.76 49.61C107.73 49.58 107.64 49.69 107.67 49.73Z" fill="url(#paint9_radial)"/>
<path opacity="0.4" d="M79.08 76.75C78.6 75.86 77.81 75.91 76.91 76.22C76.18 76.47 75.5 76.92 74.85 77.33C74.44 76.55 74.15 75.89 73.4 75.34C72.44 74.64 70.5501 75.61 69.7001 76.1C69.6901 76.1 69.71 76.12 69.71 76.12C70.63 75.82 71.49 75.44 72.46 75.34C73.78 75.21 74.15 76.54 74.6 77.47C73.09 78.34 71.31 78.56 69.61 78.29C69.58 78.28 69.6201 78.35 69.6401 78.36C71.2001 78.68 72.95 78.71 74.41 77.98C74.54 77.91 74.69 77.83 74.85 77.73C74.69 78.92 74.8 80.44 73.58 81.08C73.54 81.1 73.6501 81.25 73.7001 81.23C74.8101 80.65 75.26 78.74 75.11 77.58C76.32 76.81 78.04 75.62 78.97 76.79C79.02 76.81 79.13 76.85 79.08 76.75Z" fill="#A8F227"/>
<path opacity="0.3" d="M120.99 62.79C121.45 61.9 122.12 61.27 123.03 60.9C123.08 60.88 123.09 60.75 123.03 60.76C122.28 60.98 121.43 61.53 121.04 62.22C120.58 63.03 120.25 64.24 119.45 64.67C119.15 63.97 118.7 63.56 118.25 63.12C118.23 63.11 118.11 63.15 118.12 63.16C118.85 63.83 119.41 64.76 119.77 65.75C119.57 66.08 119.45 66.41 119.17 66.69C118.7 67.16 117.39 67.12 116.79 66.81C116.76 66.79 116.71 66.93 116.73 66.94C118.43 67.5 119.56 66.99 119.88 65.9C120.27 66.94 120.74 67.91 122.1 68.21C122.19 68.23 122.22 67.91 122.15 67.9C121.66 67.83 121.13 67.54 120.82 67.28C121.45 66.79 121.87 66.15 121.91 65.37C121.94 64.76 121.59 64.28 121.68 63.65C121.77 63.02 122.48 62.61 122.97 62.3C122.99 62.28 122.97 62.2 122.97 62.2C122.38 62.49 121.41 62.97 121.44 63.75C121.46 64.34 121.7 64.85 121.65 65.46C121.6 66.14 121.13 66.65 120.71 67.14C120.17 66.53 119.88 65.66 119.51 64.86C120.21 64.51 120.65 63.45 120.99 62.79Z" fill="#A8F227"/>
<path opacity="0.4" d="M120.69 58.59C119.65 58.27 118.74 58.33 117.63 58.7C115.75 59.34 114.44 61.87 112.39 59.52L112.31 59.62C112.73 60.14 113.26 60.49 114.01 60.63C113.15 61.01 112.25 61.94 111.61 62.57C111.1 63.07 110.48 63.39 109.87 63.77C109.33 64.11 108.83 64.09 108.35 63.9L108.21 63.93C108.57 64.12 108.95 64.24 109.31 64.16C109.16 64.67 109.16 65.1 108.96 65.61C108.72 66.22 107.86 66.57 107.41 67.03C106.23 68.24 104.9 67.74 103.4 67.73C103.39 67.73 103.41 67.75 103.41 67.75C104.66 67.84 105.86 68.25 106.91 67.71C107.02 68.08 107.18 68.41 107.37 68.68C107.31 69.82 106.57 70.52 106.2 71.56C105.85 72.57 105.06 72.88 104.42 73.65C104.05 73.55 103.42 73.53 102.97 73.59C102.95 73.59 102.89 73.73 102.91 73.73C104.19 73.48 105.37 74.08 106.28 74.89C106.6 75.17 107.09 75.67 107.57 75.72C106.96 76.17 106.8 76.97 106.78 77.39C105.08 77.32 102.52 76.36 100.96 77.41C100.95 77.42 100.91 77.52 100.9 77.55C102.57 76.68 105.05 77.52 106.78 77.59C106.55 79.01 106.28 79.95 105.63 80.76C105.58 80.81 105.8 80.71 105.83 80.67C106.68 79.62 106.83 78.43 106.98 77.15C107.13 75.86 108.77 75.34 109.53 74.47C109.92 74.92 111.03 75.36 111.56 75.51C111.62 75.53 111.62 75.44 111.61 75.43C111.22 75.24 109.71 74.92 109.39 73.95C109.35 73.84 109.3 73.38 109.37 73.16C109.46 73.13 109.54 73.09 109.63 73.04C110.39 72.55 110.64 70.83 110.25 70.02C110.96 69.96 111.48 69.53 112.08 69.05C113.17 68.17 115.2 67.62 116.15 67.78C116.22 67.79 116.33 67.58 116.28 67.58C115.81 67.56 115.21 67.6 114.74 67.7C114.37 67.52 113.53 67.01 112.71 66.7C113.12 65.85 113.58 64.95 113.63 63.98C113.76 64.09 113.91 64.18 114.09 64.21C114.65 64.32 115.32 63.85 115.79 63.59C116.04 63.46 116.03 63.24 116.02 62.99C115.97 62.16 115.54 61.36 116.41 60.7C116.91 60.31 117.38 60.07 117.78 59.56C118.1 59.14 118.45 58.76 118.91 58.52C119.5 58.44 120.11 58.47 120.76 58.66C120.8 58.69 120.72 58.6 120.69 58.59ZM109.47 74.38C108.98 74.81 108.29 75.15 107.73 75.6C106.59 75.05 105.72 74.1 104.6 73.71C105.34 73.15 105.97 72.68 106.32 71.8C106.95 72.36 108.22 73.34 109.19 73.2C109.18 73.48 109.2 73.87 109.3 74.1C109.34 74.2 109.4 74.29 109.47 74.38ZM109.67 72.69C108.89 73.69 107.07 72.25 106.37 71.66C106.75 70.62 107.58 69.95 107.47 68.8C107.99 69.47 108.76 69.84 109.73 70C109.85 70.02 109.95 70.03 110.06 70.03C110.04 70.33 110.14 70.6 110.14 70.92C110.15 71.52 110.05 72.21 109.67 72.69ZM114.42 67.78C113.77 67.94 113.13 68.18 112.54 68.43C112.04 68.64 111.64 69 111.24 69.35C109.77 70.62 107.55 69.32 106.95 67.68C107.17 67.56 107.37 67.41 107.58 67.2C108 66.76 108.56 66.51 108.95 66.07C110.11 66.42 111.36 66.61 112.55 66.79C113.22 67 113.81 67.46 114.42 67.78ZM116.59 60.34C115.63 60.97 115.5 61.65 115.71 62.57C115.94 63.56 115.3 63.66 114.69 63.94C113.88 64.31 113.29 63.5 112.79 63.01C112.77 62.99 112.76 62.98 112.74 62.97C113.02 63.24 113.23 63.63 113.51 63.91C113.5 63.93 113.49 63.94 113.49 63.95C113.38 65.01 113.02 65.69 112.53 66.62C112.53 66.62 110.12 66.32 108.96 66.06C109.33 65.66 109.38 64.72 109.49 64.14C110.27 63.77 111.04 63.29 111.69 62.74C112.06 62.63 112.34 62.69 112.56 62.84C112.31 62.67 111.95 62.53 112.04 62.44C112.76 61.76 113.39 61.07 114.31 60.72C114.34 60.72 114.37 60.72 114.4 60.72C115.09 60.64 115.73 59.9 116.29 59.56C116.91 59.19 117.71 58.78 118.55 58.59C117.96 58.98 117.22 59.93 116.59 60.34Z" fill="#A8F227"/>
<path opacity="0.6" d="M95.07 73.66C94.4 72.77 94.79 71.19 93.5 70.76C92.04 70.27 90.24 70.98 89.33 72.15C89.33 72.15 89.34 72.17 89.34 72.16C90.36 71.17 92.07 70.38 93.6 70.92C93.59 70.92 92.72 73.26 91.47 73.88C91.21 73.64 90.27 72.9 89.49 72.94C89.48 72.94 89.57 73.04 89.57 73.04C91.01 73.08 92.09 75.08 92.78 76.1C92.36 76.32 91.12 76.63 90.64 76.72C90.63 76.72 90.69 76.87 90.7 76.87C91.15 76.8 92.37 76.39 92.84 76.18C93.27 76.8 93.83 77.38 94.59 77.49C94.81 77.52 94.76 77.22 94.66 77.18C94.04 76.94 93.53 76.47 93.14 76.03C94.12 75.5 94.92 74.64 94.88 73.49C94.92 73.56 94.97 73.62 95.02 73.68C95.09 73.78 95.13 73.74 95.07 73.66ZM94.74 73.27C94.68 74.48 94 75.39 93.07 75.97C92.76 75.61 91.86 74.27 91.65 74.06C93.03 73.28 93.17 72.39 93.72 71.05C94.25 71.54 94.4 72.54 94.74 73.27C94.74 73.26 94.74 73.27 94.74 73.27Z" fill="#A8F227"/>
<path d="M123.47 65.54C123.81 63.73 124.22 60.79 123.86 59.17C122.93 54.95 119.13 60.31 118.31 61.76C117.22 63.69 113.9 71.34 112.81 73.41C108.33 81.96 100.77 82.96 99.91 79.72C99.77 79.2 100.72 77.96 101.74 75.96C102.63 74.21 104.47 71.59 103.62 68.89C102.82 66.37 99.11 67.03 97.56 67.96C95.29 69.33 95.08 71.89 94.81 74.36C94.48 77.46 94.95 83.18 90.35 84.23C89.74 84.37 86.29 84.47 86.97 83.35C87.49 82.5 88.91 82.17 89.77 81.84C91.23 81.28 91.79 80.5 91.34 78.78C90.91 77.15 89.58 71.34 88.63 71.31C87.23 71.28 85.72 73.42 84.91 74.36C83.71 75.76 83.26 76.74 81.21 76.41C80.59 76.31 79.85 76.23 79.25 76.44C76.02 77.58 78.27 81.94 73.54 81.18C72.14 80.96 69.61 80.83 69.58 78.92C69.56 77.85 70.04 76.7 70.2 75.64C70.24 75.34 69.74 75.35 69.61 75.56C67.85 78.6 61.32 76.71 58.57 76.25C56.58 75.92 53.91 75.24 52.01 76.3C51.91 76.36 51.92 76.46 52.01 76.52C52.67 76.98 53.33 77.42 53.96 77.94C55.69 79.39 54.29 81.41 52.25 80.44C50.46 79.59 49.41 76.76 48.83 75.25C48.04 73.19 47.27 69.6 45.23 69.29C44.26 69.15 43.5 69.34 42.93 70.15C41.77 71.78 43.67 73.39 44.9 74.22C46.54 75.33 47.68 76.77 46.19 78.56C44.99 80 42.7 79.41 42.24 77.86C41.9 76.72 42.18 75.38 42.18 74.21C42.18 68.44 38.71 72.17 36.55 74.22C35.79 74.94 34.79 76.01 33.83 76.43C32.25 77.12 32.13 73.41 31.87 72.4C31.59 71.31 30.29 71.41 30.84 73.16C31.24 74.42 31.79 75.88 32.41 76.5C33.62 77.72 35.19 76.18 36.32 75.21C36.92 74.69 39.67 71.13 41.03 71.75C43.39 72.83 39.93 78.57 43.13 79.68C45.23 80.4 47.24 79.32 47.35 76.89C47.42 75.28 45.92 74.46 44.81 73.71C43.57 72.87 42.17 71.67 43.78 70.29C45.23 69.04 46.07 70.44 46.69 71.53C48.31 74.39 48.81 77.96 51.06 80.49C52.31 81.89 55.18 82.11 55.56 79.75C55.69 78.92 54.96 78.21 54.34 77.68C53.43 76.92 52.5 76.29 54.43 76.25C56.67 76.2 58.97 76.83 61.17 77.18C63.21 77.51 66.98 78.53 69.31 76.77C69.31 76.77 68.7 78.87 69.02 79.73C69.61 81.34 72.71 81.53 73.93 81.75C74.88 81.92 76.07 82 76.81 81.2C77.46 80.5 77.76 79.33 78.1 78.44C78.88 76.4 80.79 77.05 82.54 77.05C84.37 77.05 85.01 75.84 86.02 74.49C86.47 73.89 88.12 71.58 88.62 72.44C89.27 73.53 91.54 79.95 90.32 80.71C89.01 81.52 86.05 83.08 86.31 83.88C86.58 84.68 92.04 85.32 93.8 82.46C95.55 79.63 95.13 75.6 95.69 72.43C95.99 70.74 96.61 68.94 98.31 68.27C100.89 67.26 102.84 67.82 102.72 70.73C102.65 72.53 102.08 74.39 101.22 75.94C100.1 77.95 98.49 79.34 98.68 79.61C103.81 86.85 111.56 77.2 113.95 72.98C115.24 70.7 118.63 62.03 120.21 59.97C120.6 59.47 121.07 59.05 121.58 58.68C122.96 57.68 123.01 60.58 123.03 61.1C123.06 61.98 122.06 70.05 121.06 70.23C121.24 70.42 121.45 70.58 121.75 70.85C122.45 69.21 123.16 67.21 123.47 65.54Z" fill="url(#paint10_radial)"/>
<path d="M31.62 75.16C30.53 77.56 29.25 78.46 28.16 80.49C27.43 81.97 27.8 83.63 27.25 85.1C27.25 85.1 21.62 82.15 23.8 74.21C25.97 66.28 31.62 75.16 31.62 75.16Z" fill="url(#paint11_radial)"/>
<path d="M18.31 59.72C15.58 62.75 10.13 62.34 9.42997 63.15C5.42997 67.76 6.15998 77.54 11.98 75.7C17.8 73.85 22.52 74.78 22.52 74.78C22.52 79.11 17.53 79.02 20.2 83.87C20.87 85.09 21.93 86.32 22.97 87.26C24.54 88.68 27.38 87.09 27.69 85.18C28.22 81.87 23.34 78.76 25.16 75.51C26.08 73.88 28.3 74.14 29.52 75.17C30.85 76.29 31.97 75.51 33.05 74.41L35.86 70.52C27.04 67.94 20.64 64.13 18.31 59.72Z" fill="url(#paint12_linear)"/>
<path d="M18.41 60.76C22.61 62.58 22.64 68.81 27.44 69.69C28.67 69.91 30.03 69.19 31.1 68.68C33.44 67.58 35.47 67.29 37.96 66.82C38.13 66.79 38.52 66.38 38.38 66.19C36.34 63.57 32.11 67.01 29.85 67.72C25.67 69.04 22.2 61.9 18.44 60.74C18.42 60.73 18.4 60.76 18.41 60.76Z" fill="url(#paint13_radial)"/>
<path d="M37.5 67.55C36.13 70.49 34.82 72.24 33 74.16C31.55 75.4 30.83 75.97 29.02 74.69C28.65 74.43 28.22 74.25 27.78 74.22C26.63 74.14 25.7 74.45 25.03 75.32C23.82 76.89 25.2 79.23 26 80.6C27.24 82.72 28.42 85.02 26.16 86.89C23.15 89.38 19.2 83.64 19.79 80.82C20.01 79.75 21.12 78.84 21.77 78.01C22.46 77.13 23.27 76.21 22.89 75.17C22.76 74.8 22.57 74.62 22.03 74.39C20.23 73.63 18.47 74.18 16.54 74.36C14.55 74.54 12.7 75.28 10.74 75.57C8.18002 75.94 7.36002 72.96 7.24002 70.98C7.09002 68.54 7.93001 65.31 9.70001 63.48C9.46001 63.3 9.22002 63.06 8.97002 63C6.61002 65.46 5.83002 70.74 7.33002 73.68C9.55002 78.05 14.02 75.29 17.79 74.93C19.06 74.81 20.34 74.84 21.6 74.94C23.17 75.06 22.47 76.15 22.06 76.79C21.04 78.4 19.25 79.21 19.16 81.27C19.09 83.01 20.61 84.99 21.7 86.16C23.23 87.8 24.42 88.66 26.55 87.38C28.11 86.44 28.19 84.41 27.49 82.91C26.94 81.73 26.25 80.65 25.62 79.51C24 76.55 26.08 72.89 29.53 75.28C30.96 76.27 32.14 75.55 33.27 74.41C34.66 73.14 36.71 70.17 38.56 67.56H37.5V67.55Z" fill="url(#paint14_radial)"/>
<path d="M22.52 75.33C22.71 75.28 22.78 75.24 22.33 74.73C18.14 70.1 10.97 78.86 9.68003 71.54C9.33003 69.53 10.13 66.56 11.47 64.42C11.47 64.42 10.85 62.42 7.71004 62.86C6.10004 63.08 5.90003 64.9 4.15003 65.57C3.07003 65.98 1.85004 66.02 0.750038 65.47C-0.679962 68.37 2.76004 74.04 4.67004 74.74C6.23004 75.31 7.08004 74.54 7.47004 75.78C7.77004 76.73 5.98003 79.56 7.98003 80.3C9.07003 80.67 10.71 78.08 11.8 77.9C13.44 77.53 15.18 78.29 16.82 77.37C18.11 76.72 20.92 75.29 22.52 75.33Z" fill="url(#paint15_linear)"/>
<path opacity="0.4" d="M10.9 74.01C9.61001 73.64 7.69002 74.94 7.02002 73.12C6.78002 72.46 6.26001 71.7 5.64001 71.34C6.33001 70.68 6.74001 70.03 5.92001 69.36C5.95001 69.33 5.98001 69.31 6.01001 69.28C6.10001 69.31 8.35002 69.79 9.41002 69.83C9.47002 69.83 9.46001 69.73 9.43001 69.73C8.40001 69.54 6.53002 69.2 6.13002 69.2C6.32002 69.06 6.52001 68.93 6.70001 68.79C8.61001 67.39 5.95002 66.29 4.61002 65.9C5.88002 65.57 7.01002 65.01 8.35002 65.57C8.28002 65.87 8.26002 66.17 8.32002 66.43C8.45002 66.98 9.39002 67.82 9.75002 68.21C9.78002 68.24 9.80002 68.12 9.77002 68.09C9.42002 67.69 8.56001 66.94 8.53001 66.41C8.49001 65.84 8.71001 64.78 9.79001 63.26L9.67001 63.24C9.30001 63.72 8.51001 65.03 8.40001 65.4C6.62001 64.43 5.10001 66 3.12001 65.98L2.80002 66.1C3.34002 66.17 3.85002 66.09 4.22002 66.01C4.97002 66.22 7.62002 67.16 6.85002 68.23C6.30002 69 5.76001 69.52 4.79001 69.71C3.87001 69.89 3.28002 69.8 2.66002 68.88C2.47002 68.6 2.17002 68.27 1.96002 68.01C1.65002 67.64 1.22002 67.68 0.77002 67.73C0.77002 67.73 0.770014 67.75 0.780014 67.74C2.24001 67.65 2.30001 69.41 3.48001 69.84C3.75001 69.94 4.74001 70.16 5.84001 69.44C7.23001 71.11 3.58002 72.1 3.49002 73.58C3.49002 73.6 3.61002 73.74 3.61002 73.73C3.64002 72.92 4.79001 72.15 5.59001 71.39C6.57001 72.09 6.51001 73.49 7.62001 74.05C7.97001 74.23 8.33002 74.18 8.71002 74.15C9.57002 74.08 10.31 74.15 11.11 74.47C11.28 74.52 11.06 74.05 10.9 74.01Z" fill="#A8F227"/>
<path d="M22.41 74.66C19.68 71.56 16.48 73.94 12.84 74.46C11 74.72 10.16 72.87 9.95001 71.55C9.58001 69.21 11.1 65.82 11.87 64.33C12.59 62.95 8.25002 61.57 6.42002 63.24C4.68002 64.82 4.16002 66.5 1.16002 65.27C0.950021 65.18 0.670021 65.03 0.520021 65.27C-1.03998 67.69 1.35002 71.95 2.86002 73.68C3.67002 74.61 4.46002 75.11 5.49002 75.15C8.34002 75.28 6.78002 77.13 6.83002 79.02C6.86002 80.23 7.64001 80.49 8.37001 80.53C9.56001 80.59 10.66 79.1 11.47 78.42C12.46 77.59 13.53 78.4 14.55 78.29C15.33 78.21 15.84 78.02 16.57 77.68C18.61 76.72 20.45 75.53 22.57 75.44C22.83 75.45 22.59 74.87 22.41 74.66ZM13.2 77.54C12.4 77.41 11.58 77.63 10.93 78.06C10.29 78.49 9.27002 79.86 8.42002 79.85C6.93002 79.82 7.31001 77.68 7.43001 77.26C8.53001 73.71 5.93001 75.39 4.51001 74.48C2.63001 73.28 -0.0799877 68.14 0.870012 65.75C4.23001 66.8 5.45002 64.96 7.08002 63.31C7.85002 62.53 11.52 63.3 10.97 64.69C10.61 65.61 10.53 66.17 10.19 66.87C9.12002 69.05 8.40002 74.2 11.82 74.77C15.77 75.42 19.15 71.13 22.55 75.17C20.27 75.03 16.53 78.09 13.2 77.54Z" fill="#A8F227"/>
<path d="M19.47 55.22C17.94 56.64 19.61 58.7 17.66 60.08C16.06 61.22 11.12 62.04 9.37 62.75L10.42 63C12.12 62.72 13.81 62.3 15.47 61.75C16.58 61.38 17.97 61.1 18.81 60.28C20.23 58.9 18.86 56.92 19.55 55.27C19.6 55.17 19.47 55.22 19.47 55.22Z" fill="#A8F227"/>
<path d="M34.57 14.36L19.54 43.83C19.54 43.83 16.43 72 63.29 72C110.15 72 106.26 46.17 106.26 46.17L92.22 12.52L34.57 14.36Z" fill="url(#paint16_linear)"/>
<path d="M55.9 30.39L53.57 30.13L46.65 70.54C47.75 70.76 48.89 70.95 50.07 71.12L55.9 30.39Z" fill="url(#paint17_linear)"/>
<path d="M44.63 27.13L33.26 65.96C34.15 66.44 35.09 66.9 36.1 67.34L46.84 28.05L44.63 27.13Z" fill="url(#paint18_linear)"/>
<path d="M37.5501 22.93L22.9301 56.55C23.5801 57.6 24.3601 58.66 25.2701 59.71L38.9701 24.23L37.5501 22.93Z" fill="url(#paint19_linear)"/>
<path d="M34.38 15.78L19.5 45.12C19.51 45.85 19.57 46.85 19.76 48.05L34.9 17.74L34.38 15.78Z" fill="url(#paint20_linear)"/>
<path d="M70.1 30.39L72.43 30.13L79.35 70.74C78.25 70.96 77.11 71.15 75.93 71.32L70.1 30.39Z" fill="url(#paint21_linear)"/>
<path d="M81.67 27.63L93.04 66.46C92.16 66.94 91.2 67.39 90.2 67.83L79.47 28.54L81.67 27.63Z" fill="url(#paint22_linear)"/>
<path d="M88.98 22.71L103.75 57.05C103.1 58.1 102.42 59.16 101.51 60.21L87.56 24.02L88.98 22.71Z" fill="url(#paint23_linear)"/>
<path d="M91.62 15.78L106.5 45.12C106.49 45.85 106.43 46.85 106.24 48.05L91.1 17.74L91.62 15.78Z" fill="url(#paint24_linear)"/>
<path d="M64.6501 30.91H61.9301V72H64.6501V30.91Z" fill="url(#paint25_linear)"/>
<path d="M63.2901 34.15V33.16C55.6001 33.16 48.2801 31.49 42.9401 28.43C37.5901 25.36 34.2401 20.99 34.2401 15.5C34.2401 15.32 34.2501 15.14 34.2601 14.96L33.3301 16.79C34.3901 27.9 48.2501 34.14 63.2901 34.15Z" fill="url(#paint26_linear)"/>
<path d="M31.29 20.8C32.4 32.79 46.67 39.67 63.3 39.69V38.7C54.77 38.7 46.95 36.85 41.3 33.5C35.65 30.14 32.2 25.35 32.2 19.35C32.2 19.23 32.2101 19.11 32.2101 18.99L31.29 20.8Z" fill="url(#paint27_linear)"/>
<path d="M63.2901 45.23V44.24C53.8901 44.24 45.55 42.21 39.61 38.54C33.67 34.87 30.12 29.63 30.12 23.09L29.23 24.83C30.48 37.68 45.0701 45.21 63.2901 45.23Z" fill="url(#paint28_linear)"/>
<path d="M63.2301 50.78C63.2501 50.78 63.2701 50.78 63.2901 50.78V49.79C42.8801 49.77 28.3201 41.08 28.0101 27.21L27.1401 28.91C28.6101 42.58 43.4501 50.78 63.2301 50.78Z" fill="url(#paint29_linear)"/>
<path d="M63.2301 56.32C63.2501 56.32 63.27 56.32 63.3 56.32V55.33C41.35 55.31 26.6401 46.06 25.9001 31.41H25.8901L25.0601 33.04C26.8001 47.51 41.8801 56.32 63.2301 56.32Z" fill="url(#paint30_linear)"/>
<path d="M63.2101 61.86C63.2401 61.86 63.2701 61.86 63.2901 61.86V60.87C39.9101 60.85 25.0901 51.14 23.7701 35.82L23.6201 35.83L22.9401 37.16C25.0201 52.45 40.3001 61.86 63.2101 61.86Z" fill="url(#paint31_linear)"/>
<path d="M63.2001 67.41C63.2301 67.41 63.2601 67.41 63.2901 67.41V66.42C38.4801 66.39 23.5501 56.22 21.6501 40.25L21.3501 40.29L20.8101 41.34C23.2801 57.38 38.7301 67.41 63.2001 67.41Z" fill="url(#paint32_linear)"/>
<path d="M92.23 13.76C92.3 14.35 92.34 14.94 92.34 15.5C92.34 20.99 88.99 25.37 83.64 28.43C78.29 31.48 70.98 33.16 63.29 33.16V34.15C78.9 34.15 93.25 27.42 93.32 15.5C93.32 15.37 93.31 15.25 93.31 15.12L92.72 13.7L92.23 13.76Z" fill="url(#paint33_linear)"/>
<path d="M94.34 18.17C94.37 18.57 94.39 18.96 94.38 19.35C94.38 25.35 90.93 30.14 85.28 33.5C79.63 36.85 71.81 38.7 63.28 38.7V39.69C80.28 39.67 94.79 32.48 95.34 20L94.57 18.15L94.34 18.17Z" fill="url(#paint34_linear)"/>
<path d="M96.47 23.09C96.46 29.63 92.92 34.87 86.97 38.54C81.03 42.21 72.69 44.24 63.29 44.24V45.23C81.52 45.21 96.12 37.67 97.36 24.81L96.46 22.66C96.47 22.81 96.47 22.95 96.47 23.09Z" fill="url(#paint35_linear)"/>
<path d="M63.29 49.79V50.78C63.31 50.78 63.33 50.78 63.35 50.78C82.79 50.78 97.48 42.87 99.36 29.61L98.55 27.67C97.93 41.27 83.48 49.77 63.29 49.79Z" fill="url(#paint36_linear)"/>
<path d="M63.29 55.33V56.32C63.31 56.32 63.33 56.32 63.36 56.32C84.05 56.32 98.85 48.05 101.34 34.36L100.6 32.59C99.15 46.56 84.65 55.31 63.29 55.33Z" fill="url(#paint37_linear)"/>
<path d="M63.29 60.88V61.87C63.32 61.87 63.34 61.87 63.37 61.87C85.31 61.87 100.25 53.24 103.31 39.1L102.62 37.44C100.43 51.81 85.85 60.85 63.29 60.88Z" fill="url(#paint38_linear)"/>
<path d="M104.62 42.22C101.76 57.05 87.07 66.39 63.29 66.42V67.41C63.32 67.41 63.35 67.41 63.38 67.41C86.57 67.41 101.66 58.41 105.28 43.81L104.62 42.22Z" fill="url(#paint39_linear)"/>
<path d="M92.8501 15.65C92.8501 7.01 79.6201 0 63.2901 0C46.9701 0 33.7401 7.01 33.7401 15.65C33.7401 24.29 46.9701 31.3 63.2901 31.3C79.6201 31.3 92.8501 24.3 92.8501 15.65Z" fill="url(#paint40_radial)"/>
<path d="M38.79 12.81L89.06 22.4L89.84 20.25L39.67 10.96L38.79 12.81Z" fill="#F6F7FF"/>
<path d="M82.4501 6.75L44.8301 25.33C45.4601 25.7 46.1301 26.04 46.8301 26.35L83.9101 8.02L82.4501 6.75Z" fill="#B3BEBA"/>
<path d="M77.6001 10.02C77.6001 10.02 84.4801 13.41 81.9601 18.69C79.4301 23.97 69.8101 26.12 69.8101 26.12L68.7401 24.36C68.7401 24.36 77.3901 22.31 79.1401 18.29C80.8901 14.28 78.0701 11.25 77.0001 10.66L77.6001 10.02Z" fill="#B3BEBA"/>
<path d="M67.7601 18.78C67.7601 18.78 71.1801 25.77 71.5901 26.48C72.1101 27.39 73.3001 28.44 74.2701 28.31C73.2301 28.7 72.2201 29.81 70.6601 28.31L65.9501 18.59C65.9501 18.59 67.3801 17.09 68.2201 17.42L68.4801 18.46L67.7601 18.78Z" fill="#B3BEBA"/>
<path d="M60.7701 2.35001C60.7701 2.35001 64.37 11.74 64.66 12.23C64.95 12.72 65.44 13.5 66.9 13.6C66.12 14.19 64.18 14.87 62.91 12.62C61.65 10.37 58.73 2.45001 58.73 2.45001L60.7701 2.35001Z" fill="#B3BEBA"/>
<path d="M45.89 13.79C45.79 14.08 43.66 19.07 49.78 22.2C55.9 25.33 62.03 26.41 67.86 25.43L67.37 24.26C67.37 24.26 56.06 24.58 50.55 20.64C46.18 17.51 47.44 13.99 47.44 13.99L45.89 13.79Z" fill="#F6F7FF"/>
<path d="M37.61 15.64C37.61 20.2 41.53 24.65 48 27.04C45.48 26.16 38.69 21.61 38.69 15.84C38.69 9.57 47.05 4.96 58.5 3.82L57.8501 2.28C46.2901 3.59 37.61 9.07 37.61 15.64Z" fill="#B3BEBA"/>
<path d="M63.2001 1.98001C61.3701 1.98001 59.58 2.08001 57.86 2.28001L58.51 3.82001C60.03 3.67001 61.6001 3.59001 63.2001 3.59001C76.9001 3.59001 87.71 8.44001 87.71 15.54C87.71 21.31 80.7501 27.33 70.6701 28.97C81.1901 27.28 88.7901 21.82 88.7901 15.64C88.7901 8.10001 77.3301 1.98001 63.2001 1.98001Z" fill="#F6F7FF"/>
<path d="M63.2901 8.7C70.7901 8.7 76.86 11.82 76.86 15.66C76.86 17.16 75.9301 18.55 74.3501 19.69C74.3501 19.69 77.2901 18.56 77.2901 15.22C77.2901 11.14 71.0201 7.82001 63.2901 7.82001C62.3801 7.82001 61.48 7.87001 60.61 7.96001L60.97 8.80001C61.73 8.74001 62.5001 8.7 63.2901 8.7Z" fill="#F6F7FF"/>
<path d="M49.29 15.22C49.29 18.56 53.4801 21.38 59.2401 22.3C53.7201 21.42 49.72 18.77 49.72 15.65C49.72 12.21 54.58 9.36 60.97 8.8L60.61 7.95999C54.17 8.61999 49.29 11.62 49.29 15.22Z" fill="#B3BEBA"/>
<path d="M55.9 4.21L56.58 1.56L69.51 29.79L67.67 29.69L55.9 4.21Z" fill="#F6F7FF"/>
<path d="M63.2901 0C46.9701 0 33.7401 7.01 33.7401 15.65C33.7401 24.29 46.9701 31.3 63.2901 31.3C79.6101 31.3 92.8501 24.29 92.8501 15.65C92.8501 7.01 79.6201 0 63.2901 0ZM63.2001 1.98C69.8001 1.98 75.8101 3.33 80.3501 5.56C79.1601 6.26 77.19 7.44 75.18 8.64C72.02 7.16 67.8601 6.27 63.2901 6.27C62.7301 6.27 62.1801 6.29 61.6301 6.31C61.0101 4.7 60.4101 3.11 60.0201 2.1C61.0601 2.02 62.1201 1.98 63.2001 1.98ZM60.7701 17.9C62.1301 17.12 63.3 17.41 63.78 18.29C63.97 18.64 64.8301 20.4 65.7901 22.4C64.9801 22.48 64.1501 22.52 63.2901 22.52C60.0701 22.52 57.1101 21.94 54.7401 20.98C57.7801 19.44 60.4901 18.06 60.7701 17.9ZM52.47 19.83C50.49 18.56 49.3 16.94 49.3 15.17C49.3 14.64 49.41 14.13 49.62 13.63L59.03 15.55C60.29 15.94 60 16.63 59.03 17.11C58.61 17.33 55.7 18.52 52.47 19.83ZM63.78 11.84C63.53 11.24 62.92 9.64 62.23 7.86C62.58 7.85 62.9401 7.83 63.2901 7.83C67.0801 7.83 70.5201 8.62 73.0401 9.91C70.7801 11.26 68.8201 12.43 68.3501 12.72C67.0801 13.5 64.46 13.5 63.78 11.84ZM68.74 17.41C69.23 17.55 72.1 18.09 75.56 18.71C74.05 20.15 71.63 21.3 68.72 21.95C67.9 20.32 67.23 18.99 67.09 18.78C66.7 18.2 67.38 17.02 68.74 17.41ZM70.68 16.04C69.51 15.94 68.15 14.67 69.9 13.79C70.54 13.46 72.6701 12.42 75.1001 11.24C76.4801 12.38 77.2901 13.73 77.2901 15.18C77.2901 15.74 77.16 16.28 76.94 16.8C73.73 16.4 71.1 16.08 70.68 16.04ZM61.06 11.93C61.64 13.01 61.5501 13.98 59.6001 13.69C58.7601 13.56 54.85 12.82 50.67 12.01C52.36 10.16 55.4701 8.73 59.2701 8.13C60.1101 9.96 60.84 11.54 61.06 11.93ZM56.67 2.44C57.14 3.48 57.85 5.04 58.56 6.6C53.68 7.3 49.63 9.06 47.36 11.38C44.24 10.77 41.4 10.22 40.03 9.95C43.23 6.28 49.3 3.49 56.67 2.44ZM37.61 15.84C37.61 14.34 38.05 12.9 38.86 11.55L46.95 12.91C46.45 13.77 46.2701 14.7 46.2701 15.65C46.2701 17.75 47.35 19.47 49.58 21.03C47.16 22.01 44.41 23.63 43.19 24.38C39.7 22.07 37.61 19.11 37.61 15.84ZM63.2001 29.46C56.2301 29.46 49.92 28.01 45.3 25.62C46.87 24.93 49.87 23.59 52.01 22.5C55.17 23.97 58.7301 25.04 63.2901 25.04C64.5501 25.04 65.78 24.97 66.96 24.84C68 27 68.9 28.89 69 29.11C67.14 29.34 65.2001 29.46 63.2001 29.46ZM72.03 28.64C71.74 28.06 70.8701 26.28 69.9201 24.37C74.2601 23.46 77.76 21.68 79.65 19.45C82.44 19.95 85.17 20.43 87.09 20.77C84.46 24.44 78.95 27.31 72.03 28.64ZM88.4 18.23C86.58 18 83.77 17.65 80.91 17.29C81.09 16.76 81.19 16.21 81.19 15.65C81.19 13.54 79.86 11.58 77.61 10.01C79.87 8.91 82.05 7.84 83.28 7.24C86.73 9.6 88.8 12.59 88.8 15.83C88.79 16.66 88.65 17.46 88.4 18.23Z" fill="url(#paint41_radial)"/>
<defs>
<linearGradient id="paint0_linear" x1="64.7301" y1="91.0001" x2="64.7301" y2="58.1559" gradientUnits="userSpaceOnUse">
<stop stop-color="white"/>
<stop offset="0.1586" stop-color="#F6F6F7"/>
<stop offset="0.4172" stop-color="#DEDFE1"/>
<stop offset="0.7416" stop-color="#B6B8BE"/>
<stop offset="1" stop-color="#92959E"/>
</linearGradient>
<radialGradient id="paint1_radial" cx="0" cy="0" r="1" gradientUnits="userSpaceOnUse" gradientTransform="translate(125.489 62.236) scale(15.5414 15.778)">
<stop stop-color="#75C900"/>
<stop offset="0.2961" stop-color="#49A300"/>
<stop offset="0.604" stop-color="#218200"/>
<stop offset="0.8495" stop-color="#096E00"/>
<stop offset="1" stop-color="#006600"/>
</radialGradient>
<radialGradient id="paint2_radial" cx="0" cy="0" r="1" gradientUnits="userSpaceOnUse" gradientTransform="translate(68.0045 89.6799) scale(25.586 25.9756)">
<stop stop-color="#75C900"/>
<stop offset="0.2961" stop-color="#49A300"/>
<stop offset="0.604" stop-color="#218200"/>
<stop offset="0.8495" stop-color="#096E00"/>
<stop offset="1" stop-color="#006600"/>
</radialGradient>
<radialGradient id="paint3_radial" cx="0" cy="0" r="1" gradientUnits="userSpaceOnUse" gradientTransform="translate(35.3092 84.5423) scale(25.6362 26.0266)">
<stop stop-color="#75C900"/>
<stop offset="0.2961" stop-color="#49A300"/>
<stop offset="0.604" stop-color="#218200"/>
<stop offset="0.8495" stop-color="#096E00"/>
<stop offset="1" stop-color="#006600"/>
</radialGradient>
<radialGradient id="paint4_radial" cx="0" cy="0" r="1" gradientUnits="userSpaceOnUse" gradientTransform="translate(97.1969 88.0994) scale(28.5601 28.995)">
<stop stop-color="#75C900"/>
<stop offset="0.2961" stop-color="#49A300"/>
<stop offset="0.604" stop-color="#218200"/>
<stop offset="0.8495" stop-color="#096E00"/>
<stop offset="1" stop-color="#006600"/>
</radialGradient>
<linearGradient id="paint5_linear" x1="10.3469" y1="45.9072" x2="22.3692" y2="54.785" gradientUnits="userSpaceOnUse">
<stop stop-color="#87E019"/>
<stop offset="0.4703" stop-color="#60C912"/>
<stop offset="1" stop-color="#409640"/>
</linearGradient>
<linearGradient id="paint6_linear" x1="51.7995" y1="19.5374" x2="68.0269" y2="74.0951" gradientUnits="userSpaceOnUse">
<stop stop-color="#60C912"/>
<stop offset="1" stop-color="#409640"/>
</linearGradient>
<linearGradient id="paint7_linear" x1="80.4326" y1="87.0596" x2="76.5175" y2="61.4337" gradientUnits="userSpaceOnUse">
<stop stop-color="#87E019"/>
<stop offset="0.4703" stop-color="#60C912"/>
<stop offset="1" stop-color="#409640"/>
</linearGradient>
<radialGradient id="paint8_radial" cx="0" cy="0" r="1" gradientUnits="userSpaceOnUse" gradientTransform="translate(59.3121 83.4581) scale(47.62 48.3452)">
<stop stop-color="#75C900"/>
<stop offset="0.2961" stop-color="#49A300"/>
<stop offset="0.604" stop-color="#218200"/>
<stop offset="0.8495" stop-color="#096E00"/>
<stop offset="1" stop-color="#006600"/>
</radialGradient>
<radialGradient id="paint9_radial" cx="0" cy="0" r="1" gradientUnits="userSpaceOnUse" gradientTransform="translate(98.7769 68.1418) scale(21.0258 21.346)">
<stop stop-color="#A6F21F"/>
<stop offset="0.0498" stop-color="#9DED1D"/>
<stop offset="0.2308" stop-color="#82DD18"/>
<stop offset="0.4151" stop-color="#6FD215"/>
<stop offset="0.6033" stop-color="#64CB13"/>
<stop offset="0.801" stop-color="#60C912"/>
</radialGradient>
<radialGradient id="paint10_radial" cx="0" cy="0" r="1" gradientUnits="userSpaceOnUse" gradientTransform="translate(89.6001 83.0004) scale(43.0854 43.7415)">
<stop stop-color="#A6F21F"/>
<stop offset="0.0498" stop-color="#9DED1D"/>
<stop offset="0.2308" stop-color="#82DD18"/>
<stop offset="0.4151" stop-color="#6FD215"/>
<stop offset="0.6033" stop-color="#64CB13"/>
<stop offset="0.801" stop-color="#60C912"/>
</radialGradient>
<radialGradient id="paint11_radial" cx="0" cy="0" r="1" gradientUnits="userSpaceOnUse" gradientTransform="translate(25.711 86.5781) scale(17.5635 17.831)">
<stop stop-color="#75C900"/>
<stop offset="0.2961" stop-color="#49A300"/>
<stop offset="0.604" stop-color="#218200"/>
<stop offset="0.8495" stop-color="#096E00"/>
<stop offset="1" stop-color="#006600"/>
</radialGradient>
<linearGradient id="paint12_linear" x1="17.7825" y1="75.3436" x2="27.5839" y2="64.1809" gradientUnits="userSpaceOnUse">
<stop stop-color="#87E019"/>
<stop offset="0.4703" stop-color="#60C912"/>
<stop offset="1" stop-color="#409640"/>
</linearGradient>
<radialGradient id="paint13_radial" cx="0" cy="0" r="1" gradientUnits="userSpaceOnUse" gradientTransform="translate(28.4042 65.233) scale(7.73373 7.8515)">
<stop stop-color="#A6F21F"/>
<stop offset="0.0498" stop-color="#9DED1D"/>
<stop offset="0.2308" stop-color="#82DD18"/>
<stop offset="0.4151" stop-color="#6FD215"/>
<stop offset="0.6033" stop-color="#64CB13"/>
<stop offset="0.801" stop-color="#60C912"/>
</radialGradient>
<radialGradient id="paint14_radial" cx="0" cy="0" r="1" gradientUnits="userSpaceOnUse" gradientTransform="translate(21.4013 84.9687) scale(23.3783 23.7343)">
<stop stop-color="#A6F21F"/>
<stop offset="0.0498" stop-color="#9DED1D"/>
<stop offset="0.2308" stop-color="#82DD18"/>
<stop offset="0.4151" stop-color="#6FD215"/>
<stop offset="0.6033" stop-color="#64CB13"/>
<stop offset="0.801" stop-color="#60C912"/>
</radialGradient>
<linearGradient id="paint15_linear" x1="0.442637" y1="75.4866" x2="18.6916" y2="67.2162" gradientUnits="userSpaceOnUse">
<stop stop-color="#87E019"/>
<stop offset="0.4703" stop-color="#60C912"/>
<stop offset="1" stop-color="#409640"/>
</linearGradient>
<linearGradient id="paint16_linear" x1="19.4997" y1="42.2608" x2="106.345" y2="42.2608" gradientUnits="userSpaceOnUse">
<stop stop-color="white"/>
<stop offset="0.2036" stop-color="#FAFAFA"/>
<stop offset="0.4464" stop-color="#ECEDEB"/>
<stop offset="0.7092" stop-color="#D5D7D3"/>
<stop offset="0.9844" stop-color="#B5B9B2"/>
<stop offset="1" stop-color="#B3B7B0"/>
</linearGradient>
<linearGradient id="paint17_linear" x1="55.4335" y1="31.8204" x2="46.8542" y2="76.533" gradientUnits="userSpaceOnUse">
<stop stop-color="#EDEEF4"/>
<stop offset="1" stop-color="#C9CCC3"/>
</linearGradient>
<linearGradient id="paint18_linear" x1="46.0447" y1="28.2165" x2="32.1869" y2="74.5742" gradientUnits="userSpaceOnUse">
<stop stop-color="#F2F3FB"/>
<stop offset="1" stop-color="#D5D8D4"/>
</linearGradient>
<linearGradient id="paint19_linear" x1="40.2897" y1="24.6332" x2="16.8765" y2="68.657" gradientUnits="userSpaceOnUse">
<stop stop-color="#F2F3FB"/>
<stop offset="1" stop-color="#D5D8D4"/>
</linearGradient>
<linearGradient id="paint20_linear" x1="33.7886" y1="19.7492" x2="11.0417" y2="60.9573" gradientUnits="userSpaceOnUse">
<stop stop-color="#F2F3FB"/>
<stop offset="1" stop-color="#D5D8D4"/>
</linearGradient>
<linearGradient id="paint21_linear" x1="71.3164" y1="30.7512" x2="77.9482" y2="73.0298" gradientUnits="userSpaceOnUse">
<stop stop-color="#DADCDA"/>
<stop offset="0.2812" stop-color="#D4D6D2"/>
<stop offset="0.709" stop-color="#C2C5BD"/>
<stop offset="1" stop-color="#B3B6AB"/>
</linearGradient>
<linearGradient id="paint22_linear" x1="80.3644" y1="28.0918" x2="91.5793" y2="67.0153" gradientUnits="userSpaceOnUse">
<stop stop-color="#D2D5D0"/>
<stop offset="1" stop-color="#B3B6AB"/>
</linearGradient>
<linearGradient id="paint23_linear" x1="86.3594" y1="20.1119" x2="99.3568" y2="50.8786" gradientUnits="userSpaceOnUse">
<stop stop-color="#D2D5D0"/>
<stop offset="1" stop-color="#B3B6AB"/>
</linearGradient>
<linearGradient id="paint24_linear" x1="88.4315" y1="13.468" x2="105.409" y2="43.302" gradientUnits="userSpaceOnUse">
<stop stop-color="#D2D5D0"/>
<stop offset="1" stop-color="#B3B6AB"/>
</linearGradient>
<linearGradient id="paint25_linear" x1="63.1097" y1="22.7777" x2="63.4404" y2="74.4343" gradientUnits="userSpaceOnUse">
<stop stop-color="#E3E5E7"/>
<stop offset="0.4184" stop-color="#D9DCD9"/>
<stop offset="1" stop-color="#C7CABF"/>
</linearGradient>
<linearGradient id="paint26_linear" x1="69.4862" y1="40.9879" x2="23.6445" y2="13.2202" gradientUnits="userSpaceOnUse">
<stop stop-color="#FBFCFF"/>
<stop offset="0.4074" stop-color="#F9FAFD"/>
<stop offset="0.6408" stop-color="#F2F3F4"/>
<stop offset="0.8295" stop-color="#E6E7E6"/>
<stop offset="0.9944" stop-color="#D6D7D3"/>
<stop offset="1" stop-color="#D5D6D2"/>
</linearGradient>
<linearGradient id="paint27_linear" x1="66.9886" y1="45.1339" x2="21.1464" y2="17.3658" gradientUnits="userSpaceOnUse">
<stop stop-color="#FBFCFF"/>
<stop offset="0.4074" stop-color="#F9FAFD"/>
<stop offset="0.6408" stop-color="#F2F3F4"/>
<stop offset="0.8295" stop-color="#E6E7E6"/>
<stop offset="0.9944" stop-color="#D6D7D3"/>
<stop offset="1" stop-color="#D5D6D2"/>
</linearGradient>
<linearGradient id="paint28_linear" x1="64.467" y1="49.3215" x2="18.6246" y2="21.5533" gradientUnits="userSpaceOnUse">
<stop stop-color="#FBFCFF"/>
<stop offset="0.4074" stop-color="#F9FAFD"/>
<stop offset="0.6408" stop-color="#F2F3F4"/>
<stop offset="0.8295" stop-color="#E6E7E6"/>
<stop offset="0.9944" stop-color="#D6D7D3"/>
<stop offset="1" stop-color="#D5D6D2"/>
</linearGradient>
<linearGradient id="paint29_linear" x1="61.9382" y1="53.5198" x2="16.095" y2="25.7511" gradientUnits="userSpaceOnUse">
<stop stop-color="#FBFCFF"/>
<stop offset="0.4074" stop-color="#F9FAFD"/>
<stop offset="0.6408" stop-color="#F2F3F4"/>
<stop offset="0.8295" stop-color="#E6E7E6"/>
<stop offset="0.9944" stop-color="#D6D7D3"/>
<stop offset="1" stop-color="#D5D6D2"/>
</linearGradient>
<linearGradient id="paint30_linear" x1="59.3902" y1="57.7508" x2="13.5489" y2="29.9833" gradientUnits="userSpaceOnUse">
<stop stop-color="#FBFCFF"/>
<stop offset="0.4074" stop-color="#F9FAFD"/>
<stop offset="0.6408" stop-color="#F2F3F4"/>
<stop offset="0.8295" stop-color="#E6E7E6"/>
<stop offset="0.9944" stop-color="#D6D7D3"/>
<stop offset="1" stop-color="#D5D6D2"/>
</linearGradient>
<linearGradient id="paint31_linear" x1="56.7954" y1="62.0609" x2="10.9551" y2="34.294" gradientUnits="userSpaceOnUse">
<stop stop-color="#FBFCFF"/>
<stop offset="0.4074" stop-color="#F9FAFD"/>
<stop offset="0.6408" stop-color="#F2F3F4"/>
<stop offset="0.8295" stop-color="#E6E7E6"/>
<stop offset="0.9944" stop-color="#D6D7D3"/>
<stop offset="1" stop-color="#D5D6D2"/>
</linearGradient>
<linearGradient id="paint32_linear" x1="54.1999" y1="66.3686" x2="8.35976" y2="38.6018" gradientUnits="userSpaceOnUse">
<stop stop-color="#FBFCFF"/>
<stop offset="0.4074" stop-color="#F9FAFD"/>
<stop offset="0.6408" stop-color="#F2F3F4"/>
<stop offset="0.8295" stop-color="#E6E7E6"/>
<stop offset="0.9944" stop-color="#D6D7D3"/>
<stop offset="1" stop-color="#D5D6D2"/>
</linearGradient>
<linearGradient id="paint33_linear" x1="63.292" y1="23.9204" x2="93.3257" y2="23.9204" gradientUnits="userSpaceOnUse">
<stop stop-color="#FBFCFF"/>
<stop offset="0.2579" stop-color="#F8F9FB"/>
<stop offset="0.5208" stop-color="#EDEFEF"/>
<stop offset="0.7851" stop-color="#DDDEDA"/>
<stop offset="1" stop-color="#CACCC4"/>
</linearGradient>
<linearGradient id="paint34_linear" x1="63.292" y1="28.9192" x2="95.3496" y2="28.9192" gradientUnits="userSpaceOnUse">
<stop stop-color="#FBFCFF"/>
<stop offset="0.2579" stop-color="#F8F9FB"/>
<stop offset="0.5208" stop-color="#EDEFEF"/>
<stop offset="0.7851" stop-color="#DDDEDA"/>
<stop offset="1" stop-color="#CACCC4"/>
</linearGradient>
<linearGradient id="paint35_linear" x1="63.292" y1="33.9517" x2="97.4541" y2="33.9517" gradientUnits="userSpaceOnUse">
<stop stop-color="#FBFCFF"/>
<stop offset="0.2579" stop-color="#F8F9FB"/>
<stop offset="0.5208" stop-color="#EDEFEF"/>
<stop offset="0.7851" stop-color="#DDDEDA"/>
<stop offset="1" stop-color="#CACCC4"/>
</linearGradient>
<linearGradient id="paint36_linear" x1="63.292" y1="39.2244" x2="99.5623" y2="39.2244" gradientUnits="userSpaceOnUse">
<stop stop-color="#FBFCFF"/>
<stop offset="0.2579" stop-color="#F8F9FB"/>
<stop offset="0.5208" stop-color="#EDEFEF"/>
<stop offset="0.7851" stop-color="#DDDEDA"/>
<stop offset="1" stop-color="#CACCC4"/>
</linearGradient>
<linearGradient id="paint37_linear" x1="63.292" y1="44.4561" x2="101.681" y2="44.4561" gradientUnits="userSpaceOnUse">
<stop stop-color="#FBFCFF"/>
<stop offset="0.2579" stop-color="#F8F9FB"/>
<stop offset="0.5208" stop-color="#EDEFEF"/>
<stop offset="0.7851" stop-color="#DDDEDA"/>
<stop offset="1" stop-color="#CACCC4"/>
</linearGradient>
<linearGradient id="paint38_linear" x1="63.292" y1="49.6473" x2="103.796" y2="49.6473" gradientUnits="userSpaceOnUse">
<stop stop-color="#FBFCFF"/>
<stop offset="0.2579" stop-color="#F8F9FB"/>
<stop offset="0.5208" stop-color="#EDEFEF"/>
<stop offset="0.7851" stop-color="#DDDEDA"/>
<stop offset="1" stop-color="#CACCC4"/>
</linearGradient>
<linearGradient id="paint39_linear" x1="63.292" y1="54.8132" x2="105.912" y2="54.8132" gradientUnits="userSpaceOnUse">
<stop stop-color="#FBFCFF"/>
<stop offset="0.2579" stop-color="#F8F9FB"/>
<stop offset="0.5208" stop-color="#EDEFEF"/>
<stop offset="0.7851" stop-color="#DDDEDA"/>
<stop offset="1" stop-color="#CACCC4"/>
</linearGradient>
<radialGradient id="paint40_radial" cx="0" cy="0" r="1" gradientUnits="userSpaceOnUse" gradientTransform="translate(76.4847 3.79578) scale(62.1326 32.9053)">
<stop stop-color="white"/>
<stop offset="0.4594" stop-color="#FDFDFD"/>
<stop offset="0.6248" stop-color="#F8F8F6"/>
<stop offset="0.7428" stop-color="#EEEFEB"/>
<stop offset="0.8381" stop-color="#DFE1DA"/>
<stop offset="0.9191" stop-color="#CDD0C4"/>
<stop offset="0.9903" stop-color="#B7BAA9"/>
<stop offset="1" stop-color="#B3B7A5"/>
</radialGradient>
<radialGradient id="paint41_radial" cx="0" cy="0" r="1" gradientUnits="userSpaceOnUse" gradientTransform="translate(37.1945 28.3863) scale(68.3116 36.0586)">
<stop stop-color="white"/>
<stop offset="0.4967" stop-color="#FDFDFD"/>
<stop offset="0.6756" stop-color="#F6F7F7"/>
<stop offset="0.8031" stop-color="#EBECEB"/>
<stop offset="0.9055" stop-color="#DADCDB"/>
<stop offset="0.9928" stop-color="#C4C7C6"/>
<stop offset="1" stop-color="#C2C5C4"/>
</radialGradient>
</defs>
</svg>
