<svg width="72" height="98" viewBox="0 0 72 98" fill="none" xmlns="http://www.w3.org/2000/svg">
<path d="M5.02997 93.49C5.02997 93.49 8.02997 98.24 13.03 97.99L68.01 90.08C72.75 89.25 71.89 79.55 71.89 79.55L3.77997 89.74L5.02997 93.49Z" fill="url(#paint0_linear)"/>
<path d="M27.7 8.20999V69.51C27.7 69.51 66.06 84.93 71.41 83.98C71.65 77.78 71.41 30.61 71.41 30.61L27.7 8.20999Z" fill="url(#paint1_radial)"/>
<path d="M70.73 30.31V83.98C70.73 83.98 71.52 84.21 72 83.67V30.26L70.73 30.31Z" fill="url(#paint2_radial)"/>
<path d="M27.7 8.20999C27.7 8.20999 69.57 31.08 71.51 30.36C71.95 26.74 63.36 0.519987 63.36 0.519987C63.36 0.519987 41.3 -2.99001 27.7 8.20999Z" fill="url(#paint3_radial)"/>
<path d="M71.95 29.7L66.95 11.83C66.92 11.76 70.62 26.75 70.62 26.75C70.78 27.35 70.75 28.95 70.49 29.13C70.24 29.31 67.99 28.5 65.11 27C65.11 27 27.73 8.37 27.77 8.4C37.44 14.37 61.77 26.54 65.99 28.61C67.51 29.35 70.22 30.4 71.02 30.59C71.7 30.75 72.15 30.57 71.95 29.7Z" fill="url(#paint4_radial)"/>
<path d="M61.1 13.7C61.7 15.72 59.65 17.53 56.53 17.74C53.4 17.96 50.38 16.5 49.78 14.48C49.18 12.46 51.23 10.65 54.35 10.44C57.48 10.23 60.5 11.69 61.1 13.7Z" fill="#008C00"/>
<path d="M61.03 12.68C61.63 14.7 59.58 16.51 56.46 16.72C53.33 16.94 50.31 15.48 49.71 13.46C49.11 11.44 51.16 9.63 54.28 9.42C57.41 9.2 60.43 10.66 61.03 12.68Z" fill="#003008"/>
<path d="M61.07 14.4C63.07 10.36 56.4 8.27999 53.38 9.45999C53.25 9.50999 53.31 9.62 53.45 9.59C56.36 8.9 62.0801 10.5 60.9801 14.36C60.9701 14.42 61.05 14.45 61.07 14.4Z" fill="#ABC76E"/>
<path d="M35.77 11.16C42.85 4.65999 54.32 2.97999 63.66 5.18999C63.82 5.22999 63.91 5.00998 63.75 4.95998C55.78 2.41998 40.71 3.54998 35.64 11.06C35.58 11.14 35.69 11.23 35.77 11.16Z" fill="#ABC76E"/>
<path d="M59.98 23.44C60.57 22.16 62.29 21.59 63.57 21.2C65.2 20.7 66.77 20.79 68.44 20.89C68.58 20.9 68.64 20.69 68.49 20.65C66.07 19.94 60.87 20.67 59.91 23.41C59.91 23.45 59.97 23.47 59.98 23.44Z" fill="#ABC76E"/>
<path d="M9.68999 15.18C9.68999 15.18 -1.99001 20 0.299987 38.24C-0.140013 52.29 0.879989 82.15 0.879989 82.15C0.879989 82.15 2.08998 93.22 7.26998 92.98L9.68999 15.18Z" fill="url(#paint5_radial)"/>
<path d="M63.55 33.9C65.95 35.2 64.24 44.95 63.2 56.83C62.42 65.71 62.38 72.71 62.31 75.28C62.2 78.82 62.58 83.01 61.79 85.97C56.32 86.82 10.41 92.73 7.27 92.99C4.91 91.41 5.43001 85 5.54001 82.11C5.82001 77.47 5.57001 72.09 5.50001 67.56C5.53001 58.52 3.79001 48.59 4.98001 39.72L63.55 33.9Z" fill="url(#paint6_radial)"/>
<path d="M6.80999 39.43C3.26999 42.13 4.82999 52.71 5.37999 55.75C6.21999 60.49 5.66999 65.09 5.50999 69.88C5.35999 74.24 5.58999 78.74 5.55999 83.11C5.55999 83.24 6.61999 69.22 7.01999 62.18C7.24999 58.02 6.86999 54 6.41999 49.88C6.06999 46.71 5.08999 40.7 8.87999 39.23C8.05999 39.19 7.58999 39.16 6.80999 39.43Z" fill="#FAEBC3"/>
<path d="M7.18002 93C18.63 92.01 53.57 87.38 58.65 86.53C61.93 85.99 62.7 86.59 62.34 82.49C62.32 82.24 62.26 82 62.21 82.37C61.66 84.83 59.27 85.85 55.99 86.33C55.99 86.33 17.72 91.9 7.12002 92.92C7.11002 92.93 7.16002 93 7.18002 93Z" fill="url(#paint7_radial)"/>
<path d="M40.98 53.97C41.82 54.13 42.61 54.25 43.47 54.28C44.07 54.3 46.15 53.56 46.55 54.27C46.75 54.64 46.92 55.39 47.42 55.5C48.31 55.69 49.37 54.93 50.11 54.55C50.48 54.36 51.03 54.01 51.28 53.68C51.71 53.1 52.73 53.23 53.43 53C54.93 52.51 55.84 50.16 54.47 49C52.8 47.58 48.24 47.95 46.67 49.38C46.53 49.5 46.72 49.41 46.91 49.33C50.54 47.93 50.95 49.17 52.96 49.54C54.03 50.35 53.82 51.04 52.31 51.6C52.07 51.54 51.83 51.5 51.58 51.51C51.02 51.56 50.62 51.92 50.31 52.32C49.6 53.27 50.6 53.34 48.49 54.31C47.52 54.75 47.79 54.59 47.21 53.82C47.06 53.62 46.86 53.3 46.57 53.27C44.54 53.05 43.79 54.33 41 53.88C40.92 53.87 40.92 53.96 40.98 53.97Z" fill="#FFFFDE"/>
<path d="M36.7 47.75C36.97 47.75 37.23 47.73 37.5 47.7C38.54 47.61 38.26 48.15 38.41 48.6C38.51 48.89 38.91 48.97 39.17 48.99C39.33 49 39.5 49.07 39.66 49.06C40.11 49.03 40.06 49.13 40.37 49.46C40.75 49.87 41.63 50.11 42.16 50.22C42.3 50.25 42.42 50.12 42.38 49.99C42.16 49.22 41.47 49.36 40.87 48.93C40.68 48.8 40.54 48.56 40.34 48.46C40.09 48.35 39.72 48.48 39.46 48.48C38.63 48.46 38.9 47.75 38.35 47.49C37.91 47.28 37.14 47.62 36.69 47.68C36.67 47.71 36.67 47.75 36.7 47.75Z" fill="#FFFFDE"/>
<path d="M59.2 42.29C59.61 43.11 59.89 44.33 58.6 44.76C58.22 44.89 57.79 44.92 57.45 45.13C56.9 45.46 56.82 45.82 56.65 46.39C56.52 46.82 56.27 47.41 56.35 47.87C56.46 48.47 57.66 48.11 58.01 48.26C58.05 48.28 58.1 48.24 58.07 48.2C57.96 48 56.95 47.44 56.91 47.6C57.11 46.74 57.28 45.82 58.2 45.47C58.75 45.26 59.5 45.11 59.75 44.52C60.11 43.69 59.9 42.92 59.35 42.21C59.3 42.12 59.15 42.19 59.2 42.29Z" fill="#FFFFDE"/>
<path d="M59.41 51.49C58.97 52.34 58.21 52.66 58.48 53.68C58.71 54.56 58.94 55.11 58.43 55.95C58.16 56.4 57.88 56.85 57.58 57.28C57.55 57.33 57.63 57.37 57.66 57.33C58.25 56.46 58.96 56.04 59.11 54.94C59.16 54.56 59.02 54.24 58.88 53.9C58.44 52.83 59.2 52.33 59.5 51.53C59.51 51.47 59.43 51.44 59.41 51.49Z" fill="#FFFFDE"/>
<path d="M56.82 58.5C56.59 59.55 56 60.17 55.09 60.76C54.19 61.34 53.89 62.47 52.92 62.94C52.84 62.98 52.85 63.11 52.95 63.09C53.48 63 53.73 62.67 53.99 62.23C54.51 61.39 55.06 61.07 55.96 60.68C56.89 60.27 57.19 59.36 56.91 58.49C56.9 58.46 56.83 58.46 56.82 58.5Z" fill="#FFFFDE"/>
<path d="M50.44 63.5C50.1 63.83 49.53 64.33 49.38 64.34C49.36 64.29 48.95 64.14 48.83 64.13C48.58 64.1 48.35 64.35 48.46 64.59C48.57 64.83 48.79 64.76 48.95 64.81C49.3 64.9 49.56 64.56 49.74 64.34C49.78 64.31 50.44 63.5 50.44 63.5Z" fill="#FFFFDE"/>
<path d="M49.95 72.98C49.74 73.33 50.17 73.69 50.52 73.58C51.53 73.26 52.49 73.09 53.56 73.16C54.4 73.21 55.25 73.32 56.09 73.25C57.11 73.17 57.54 71.71 56.41 71.48C56.3 71.46 56.16 71.55 56.21 71.67C56.68 72.79 54.19 71.96 53.61 71.9C52.78 71.82 51.98 71.94 51.23 72.23C50.84 72.38 51.98 71.62 51.66 70.58C51.47 71.68 50.5 72.09 49.95 72.98Z" fill="#FFFFDE"/>
<path d="M52.12 76.51C52.75 76.5 54.44 76.78 53.65 77.79C53.59 77.86 53.58 77.98 53.66 78.04C54.06 78.34 52.43 78.64 52.39 78.64C52.07 78.7 51.75 78.78 51.44 78.86C51.05 78.96 50.81 79.18 50.51 79.44C50.15 79.75 48.52 80.2 48.15 79.64C48.06 79.83 47.98 80.03 47.89 80.22C48.11 80.16 48.2 80.12 48.36 79.96C48.19 79.95 48.02 79.94 47.85 79.93C47.92 80.07 47.91 80.05 48.06 80.06C48.48 80.09 48.58 79.57 48.18 79.45C47.99 79.39 47.88 79.41 47.68 79.45C47.43 79.51 47.28 79.81 47.42 80.03C48.02 80.95 49.8 80.8 50.67 80.36C50.96 80.21 51.18 79.84 51.48 79.73C51.72 79.64 51.98 79.6 52.23 79.54C52.84 79.39 53.47 79.1 53.95 78.71C54.1 78.58 54.36 78.35 54.25 78.13C54.19 78.01 54.15 77.96 54.06 77.87C54.03 77.84 54.21 77.54 54.22 77.45C54.3 76.43 52.9 76.34 52.13 76.42C52.06 76.42 52.06 76.51 52.12 76.51Z" fill="#FFFFDE"/>
<path d="M25.42 77.92C25.46 78.2 25.45 78.51 25.29 78.76C25.23 78.85 25.15 78.93 25.07 79.01C25.02 79.06 24.96 79.1 24.91 79.15C24.81 79.22 24.81 79.22 24.91 79.17C24.33 79.03 23.78 79.64 24.22 80.13C24.66 80.62 25.37 80.2 25.32 79.62C25.32 79.57 25.31 79.53 25.31 79.48C25.29 79.56 25.26 79.64 25.24 79.72C25.73 79.2 26.15 78.43 25.49 77.88C25.45 77.87 25.41 77.89 25.42 77.92Z" fill="#FFFFDE"/>
<path d="M19.49 52.96C20.04 53.05 22.75 53.1 22.68 53.43C22.66 53.53 22.76 53.66 22.83 53.72C23.38 54.19 23.23 55.08 23.57 55.49C23.75 55.71 23.85 55.8 24.15 55.95C24.99 56.38 25.49 57.1 26 57.84C26.53 58.61 27.71 58.36 28.47 58.71C29.3 59.09 29.67 58.84 29.45 58.06C29.44 58.02 29.28 57.89 29.3 57.97C29.64 59.62 26.17 57.66 25.98 57.28C25.63 56.59 25.31 56.31 24.57 55.99C23.33 55.46 24.29 55.05 23.77 54.31C23.69 54.2 23.06 53.72 23.09 53.61C23.18 53.2 23.19 53.32 22.94 52.91C22.88 52.82 22.78 52.66 22.65 52.67C21.56 52.7 20.5 52.82 19.4 52.79C19.33 52.79 19.45 52.96 19.49 52.96Z" fill="#FFFFDE"/>
<path d="M13.64 56.6C14.58 56.39 15.29 55.65 16.2 55.58C16.26 55.58 16.59 55.23 16.7 55.13C16.84 55.01 16.92 56.06 17.56 56.48C18.16 56.87 19.26 56.56 19.9 56.7C19.92 56.7 19.39 56.34 18.97 56.39C17.78 56.52 17.89 55.18 17.16 54.67C17 54.56 16.6 54.54 16.44 54.67C16.33 54.76 15.81 55.34 15.76 55.34C15.64 55.34 15.48 55.35 15.38 55.42C14.69 55.86 13.61 56.61 13.64 56.6Z" fill="#FFFFDE"/>
<path d="M16.3 62.16C16.81 62.41 17.73 62.43 18.23 62.27C18.38 62.22 18.51 62.07 18.33 61.96C18.12 61.82 17.82 61.83 17.58 61.84C17.23 61.86 16.82 61.8 16.48 61.89C16.1 62 15.22 61.07 15.24 61.1C15.24 61.09 15.47 61.75 16.3 62.16Z" fill="#FFFFDE"/>
<path d="M29.29 57.64C29.35 56.75 30.45 57.13 31.03 57.13C31.1 57.13 31.11 57.03 31.06 57C30.43 56.65 29.15 56.73 29.1 57.61C29.1 57.73 29.28 57.76 29.29 57.64Z" fill="#FFFFDE"/>
<path d="M33.14 80.02C33.5 79.97 33.83 79.92 34.12 79.71C34.38 79.52 35.36 78.28 35.44 78.26C36.21 78.11 38.27 77.53 39.07 77.59C40.55 77.71 40.5 78.73 40.33 78.92C40.18 79.09 39.56 79.95 39.05 79.95C38.56 79.94 36.95 80.23 36.36 80.38C35.34 80.64 33.06 82.16 33.64 81.84C34.85 81.17 36.38 81.34 37.65 81.03C38.45 80.83 39.54 81.2 40.25 80.82C40.67 80.59 41.03 80.19 41.24 79.78C41.57 79.14 42.91 79.02 43.51 78.57C43.8 78.35 45.06 77.23 44.29 76.88C41.66 75.66 39.2 75.1 36.56 76.29C35.86 76.61 35.09 77.11 34.67 77.76C34.15 78.58 34.09 79.4 33.15 79.96C33.16 79.94 33.09 80.02 33.14 80.02Z" fill="#FFFFDE"/>
<path d="M4.96996 39.71C-0.60004 31.13 4.49996 17.13 12.94 12.89L60.44 30.14C60.44 30.14 62.4 30.91 63.13 32.14C63.85 33.37 63.94 34.28 62.45 34.53C57.12 35.42 4.96996 39.71 4.96996 39.71Z" fill="url(#paint8_radial)"/>
<path d="M3.00001 32.08C3.41001 35.2 4.52 39.25 8.13 39.43L9.94001 39.24C1.56001 36.74 3.06 24.55 6.6 19.33C3.34 23.56 2.39001 27.39 3.00001 32.08Z" fill="#FAEBC3"/>
<path d="M64.1 32.83C63.56 31.91 62.01 30.93 61.52 30.78C63.67 34.71 58.14 34.78 55.88 35.01C51.95 35.41 22.92 37.59 8.82001 39.14L7.51001 39.7C21.26 38.66 61.82 35.45 62.43 35.28C64.38 36.39 63.88 49.91 63.55 53.45C63.53 53.48 65.87 38.15 64.1 32.83Z" fill="#FAEBC3"/>
<path d="M60.92 30.23L13.16 12.81C13.14 12.8 13.11 12.82 13.07 12.84H13.06C8.24996 14.85 5.63997 18.91 3.61997 22.58C0.789965 27.71 0.959967 34.77 4.85997 39.64L8.49997 39.35C3.36997 39.48 1.97997 29.36 4.15997 23.88C5.99997 19.25 9.34996 15.21 13.38 13.75C18.14 15.23 60.92 30.23 60.92 30.23Z" fill="#008C00"/>
<path d="M5.34999 52.72C4.92999 49.71 4.92999 39.49 7.92999 39.37C7.00999 39.37 4.77999 39.59 4.77999 39.59C3.85999 41.8 3.65999 45.82 3.82999 50.82C3.90999 53.32 5.48999 78.69 5.49999 78.65C5.49999 78.67 6.22999 59.01 5.34999 52.72Z" fill="url(#paint9_radial)"/>
<path d="M50 49.75C48.8 49.94 45.74 49.72 45.35 51.34C45.3 51.47 45.27 51.78 45.3 51.81C45.23 51.77 44.3 51.65 43.95 51.76C43.92 51.77 44.55 52.31 44.69 52.37C45.19 52.58 45.87 52.55 46.35 52.43C47.24 52.22 47.94 51.8 48.91 51.2C48.86 51.46 48.37 52.72 49.08 52.75C49.79 52.77 50.41 50.96 51.88 50.48C52.37 50.05 50.3 49.7 50 49.75Z" fill="url(#paint10_radial)"/>
<path d="M59.09 64.34C58.49 64.93 57.86 65.49 57.14 65.94C56.7 66.21 56.06 66.03 55.73 66.36C55.75 65.98 55.67 65.6 55.58 65.19C55.4 64.41 55.68 64.04 56.56 64.19C57.49 64.35 58.18 64.24 58.77 63.51C58.78 63.5 58.72 63.48 58.71 63.5C58.05 64.19 57.36 64.24 56.42 64.06C56.15 64.01 55.75 63.92 55.51 64.06C54.76 64.51 55.33 65.55 55.52 66.37C55.22 66.28 54.9 66.26 54.7 66.3C54.63 66.31 54.56 66.35 54.59 66.43C54.65 66.61 54.91 66.67 55.02 66.82C55.19 67.05 55.23 67.39 55.25 67.65C55.3 68.2 55.08 68.6 54.82 69.05C54.76 69.16 55.01 69.22 55.08 69.22C56.65 69.36 55.02 70.75 54.4 70.92C54.33 70.94 54.37 70.98 54.42 71C55.05 71.27 55.27 71.63 55.62 72.09C55.63 72.1 55.69 72.11 55.68 72.09C55.55 71.87 55.43 71.6 55.25 71.41C55.07 71.22 54.61 71.02 54.92 70.92C55.38 70.77 55.81 70.45 56.15 70.13C56.81 69.48 56.07 69.16 55.43 69.04C55.73 68.41 56.21 67.75 56.23 67.05C56.24 66.81 56.09 66.63 55.88 66.5C56.17 66.2 56.56 66.22 57 66.16C57.25 66.13 57.47 65.99 57.68 65.86C58.29 65.48 58.79 64.88 59.26 64.35C59.27 64.35 59.12 64.32 59.09 64.34Z" fill="#294900"/>
<path d="M60.86 59.91C60.26 59.22 60.03 60.24 59.16 59.88C58.44 59.59 57.88 58.84 58.37 58.22C58.6 57.93 58.69 57.67 58.75 57.34C59.39 57.02 59.79 56.96 60.07 56.34C60.26 55.92 59.88 55.37 60.37 54.87C60.49 54.75 60.74 54.12 60.44 54.15C60.19 54.17 59.9 54.35 59.91 54.38C60.06 54.76 59.38 54.98 59.3 55.75C59.24 56.38 58.68 57.09 58.68 57.12C58.52 58.37 57.34 58.45 57.94 59.11C58.26 59.46 58.25 59.93 58.65 60.18C59.25 60.55 59.96 60.9 60.53 61.25C60.61 61.29 60.88 59.94 60.86 59.91Z" fill="url(#paint11_radial)"/>
<path d="M56.41 76.9C56.14 77.2 55.42 77.36 55.29 77.78C55.13 78.32 55.73 78.23 55.75 78.75C55.76 79.03 55.38 79.24 55.2 79.39C55.05 79.52 55 79.72 54.95 79.9C54.8 80.45 54.96 80.82 55.48 81.06C55.53 81.08 55.76 81.15 55.78 81.05C55.85 80.62 55.55 80.26 55.58 79.81C55.62 79.3 56.3 79.24 56.26 78.64C56.24 78.34 55.77 78.3 55.73 78C55.68 77.65 56.35 77.25 56.47 76.9C56.48 76.9 56.42 76.89 56.41 76.9Z" fill="#294900"/>
<path d="M49.21 79.06C49.4 78.87 49.61 78.7 49.8 78.51C50.05 78.27 49.79 78.28 50.01 78.4C50.15 78.48 50.31 78.52 50.47 78.55C50.87 78.61 51.28 78.64 51.67 78.55C52.09 78.45 52.48 78.22 52.87 78.06C53.32 77.88 52.75 77.52 52.54 77.44C52.11 77.28 51.47 77.17 51.06 77.38C50.78 77.52 50.23 77.7 50.04 77.94C49.97 78.02 49.94 78.08 49.92 78.18C50.31 78.16 50.4 78.14 50.18 78.11C50.12 78.1 50.05 78.1 49.99 78.1C49.39 78.08 49.44 78.77 49.11 79.04C49.1 79.05 49.19 79.08 49.21 79.06Z" fill="#294900"/>
<path d="M36.07 68.73C35.76 68.68 35.46 68.62 35.15 68.56C33.85 68.29 35.08 68 35.31 67.93C35.65 67.82 35.88 67.67 36.12 67.42C36.19 67.34 36.08 67.25 36.01 67.21C35.67 67.12 35.48 66.87 35.45 66.48C35.48 66.22 34.78 66.19 34.64 66.23C33.66 66.52 32.78 66.09 31.8 66.28C31.29 66.38 30.77 67.08 30.94 67.57C30.98 67.68 31.29 67.76 31.4 67.67C33.25 67.87 32.13 69.01 31.64 69.59C31.5 69.75 31.37 70.21 31.56 70.39C32.4 71.18 33.66 70.33 34.65 71.19C34.74 71.27 35.08 71.35 35.16 71.23C35.58 70.6 36.12 70.11 36.88 69.86C37.13 69.78 37.54 69.51 37.53 69.49C37.28 69 36.59 68.82 36.07 68.73Z" fill="url(#paint12_radial)"/>
<path d="M22.66 70.28C23.5 70.38 22.97 71.5 23.69 71.76C24.84 72.17 26.05 71.43 27.04 71.06C27.39 70.93 26.95 70.65 26.79 70.6C26.44 70.47 26.01 70.42 25.67 70.56C25.16 70.77 24.71 71.05 24.23 71.3C23.71 71.57 23.37 71.6 23.27 70.92C23.22 70.53 23.06 70.31 22.65 70.28C22.64 70.26 22.65 70.27 22.66 70.28Z" fill="#294900"/>
<path d="M25.42 65.54C25.31 66.98 24.81 66.44 24.42 67.11C24 67.82 23.79 68.47 23.55 69.27C23.51 69.42 23.57 69.53 23.71 69.59C24.83 70.06 26.2 68.59 27.1 69.37C27.37 69.61 27.38 70.37 27.85 70.44C28.54 70.54 28.82 70.51 29.29 71.1C29.56 71.44 30.5 71.53 30.87 71.53C31.91 71.55 32.84 72.01 33.81 72.33C34.67 72.61 35.58 72.36 36.23 71.85C36.24 71.84 36.37 71.72 36.3 71.71C35.18 71.53 34.18 70.73 32.99 70.83C31.89 70.93 30.27 71.32 29.48 70.23C29.07 69.66 27.93 69.83 27.64 68.94C27.33 68 26.59 67.95 25.76 68.08C24.9 68.21 25.51 66.01 25.5 65.49C25.5 65.47 25.43 65.52 25.42 65.54Z" fill="#FFFFDE"/>
<path d="M35.77 49.38C35.47 49.92 35.47 50.44 34.84 50.75C34.39 50.97 34.02 51.27 33.6 51.54C33.19 51.8 32.84 51.91 32.37 51.94C31.87 51.97 31.44 51.86 30.95 51.97C30.56 52.06 30.27 52.37 30.33 52.78C30.41 53.28 30.78 53.29 31.17 53.38C31.61 53.48 32.07 53.63 32.42 53.92C32.63 54.09 32.92 54.34 33.2 54.39C34.38 54.62 35.21 54.37 36 53.47C36.68 52.7 36.63 51.76 36.59 50.81C36.57 50.28 36.42 49.6 35.92 49.32C35.85 49.3 35.79 49.34 35.77 49.38Z" fill="#FFFFDE"/>
<path d="M40 41.56C40.39 41.95 40.87 42.17 41.42 42.3C42.51 42.56 43.43 42.77 44.39 43.36C45.5 44.04 46.57 42.39 45.47 41.69C44.69 41.19 43.85 41.07 42.95 41.35C41.96 41.66 41.04 41.72 40.04 41.49C40 41.48 39.97 41.53 40 41.56Z" fill="#FFFFDE"/>
<path d="M24.86 74.05C25.17 74.63 25.42 74.61 25.15 75.38C25.04 75.71 24.96 75.82 25.1 76.21C25.29 76.72 25.79 76.91 26.32 76.79C26.75 76.69 28.73 75.78 28.88 76.02C29.09 76.33 29.54 76.65 29.93 76.63C30.64 76.6 30.89 76.59 31.36 76.05C32.08 75.23 33.35 74.82 34.4 74.62C34.62 74.58 34.53 74.25 34.31 74.29C33.05 74.53 31.86 75.44 30.56 75.21C30.05 75.12 28.87 75.59 28.35 75.76C28.02 75.87 27.79 76 27.48 76.16C26.58 76.89 25.91 76.58 25.47 75.22C25.54 75.12 25.58 75.01 25.59 74.88C25.66 74.68 24.96 74.15 24.86 74.03C24.87 74.03 24.85 74.04 24.86 74.05Z" fill="#FFFFDE"/>
<path d="M22.11 58.74C21.7 58.95 21.43 59.7 21.28 60.1C21.02 60.8 21.45 60.89 21.93 61.23C21.84 61.03 22.33 62.63 23.55 62.48C24.46 62.36 24.97 61.62 25.74 61.22C26.3 60.92 26.13 59.94 25.41 60.1C25.14 60.16 24.88 60.24 24.6 60.28C24.25 60.33 22.48 60.35 22.29 60.33C22.43 60.4 21.98 60.2 21.8 60.41C21.38 60.89 21.76 59.75 21.84 59.56C21.94 59.31 22.17 59.04 22.13 58.76C22.14 58.74 22.12 58.73 22.11 58.74Z" fill="#FFFFDE"/>
<path d="M12.23 65.09C11.99 65.57 10.54 67.27 11.31 67.73C11.89 68.08 12.64 67.77 13.12 67.4C13.47 67.12 13.79 66.79 14.19 66.57C14.78 66.24 15.34 66.49 15.92 66.24C16.17 66.13 16.24 65.7 15.92 65.61C15.17 65.41 14.55 65.56 13.9 65.92C13.01 66.42 12.69 67.37 11.55 67.48C11.17 67.52 12.02 66.21 12.07 66.11C12.22 65.82 12.51 65.41 12.34 65.09C12.31 65.05 12.25 65.05 12.23 65.09Z" fill="#FAEBC3"/>
<path d="M32.75 73.7C31.93 73.59 31.14 73.56 30.32 73.62C29.75 73.66 28.06 74.3 28.19 73.22C28.21 73.07 27.86 73 27.76 72.99C26.85 72.88 26.03 73.28 25.64 74.08C25.61 74.15 26.07 74.18 26.09 74.17C26.48 74.12 26.93 74.24 26.93 74.67C26.93 74.87 26.24 75.67 26.12 75.96C26.07 76.08 26.47 76.11 26.52 76.11C27.07 76.06 27.85 75.77 28.25 75.31C28.84 74.84 29.71 74.44 30.48 74.42C30.54 75.72 32.5 74.04 32.93 73.87C33.11 73.81 32.79 73.7 32.75 73.7Z" fill="url(#paint13_radial)"/>
<path d="M20.56 67.43C20.42 67.09 19.49 66.95 19.63 67.34C19.67 67.44 19.51 67.8 19.58 67.88C19.33 68.24 18.9 68.43 18.42 68.37C18.06 68.33 17.76 68.28 17.43 68.45C16.25 69.07 15.27 69.86 14.39 70.83C14.18 71.06 15.1 71.14 15.24 71.09C15.63 70.93 15.97 70.75 16.32 70.54C17.29 69.96 17.57 70.64 18.07 71.11C18.27 71.3 18.56 71.31 18.8 71.29C19.22 71.24 19.11 70.49 19.13 70.23C19.18 69.49 20.31 69.88 20.77 69.85C20.85 69.85 21.02 69.81 20.97 69.7C20.87 69.44 20.78 69.18 20.71 68.92C20.9 68.44 21.25 68.3 21.74 68.5C21.82 68.67 22.57 68.79 22.55 68.57C22.44 67.26 20.86 68.17 20.56 67.43Z" fill="url(#paint14_radial)"/>
<path d="M21.63 69.09C21.74 68.99 21.42 69.25 21.4 69.32C21.34 69.62 21.34 69.48 21.4 69.79C21.47 70.19 21.09 70.51 20.8 70.09C20.77 70.07 20.74 70.06 20.71 70.07C20.3 70.13 19.98 70.27 19.75 70.61C19.62 70.8 19.58 71.01 19.55 71.23C19.45 71.88 18.6 71.81 18.29 71.31C17.99 70.83 17.5 70.82 17.02 70.95C16.6 71.06 16.2 71.21 15.78 71.32C15.34 71.43 14.91 71.19 14.45 71.24C14.2 71.27 13.91 71.54 13.86 71.78C13.57 73.05 15.25 72.44 15.88 72.14C16.26 71.97 16.62 71.78 17.04 71.7C17.57 71.59 17.56 71.94 17.93 72.04C18.53 72.21 18.77 72.35 19.35 72.15C19.57 72.07 19.79 71.98 19.91 71.78C20.31 71.12 20.01 70.7 21.11 70.56C22.05 70.44 21.17 69.61 21.66 69.12C21.69 69.08 21.67 69.06 21.63 69.09Z" fill="#FAEBC3"/>
<path d="M42.03 55.55C41.96 55.38 41.78 55.27 41.59 55.18C41.57 54.97 41.51 54.76 41.32 54.54C41.08 54.27 40.66 54.29 40.35 54.31C39.99 54.34 38.85 54.93 38.58 54.57C38.23 54.1 39.15 53.49 39.17 53C39.17 52.93 38.95 52.9 38.92 52.96C38.7 53.49 38.11 53.64 38.2 54.3C38.24 54.61 38.48 54.75 38.77 54.79C39.1 54.83 39.44 54.66 39.72 54.54C40.32 54.29 41.27 54.29 41.31 55.07C41.23 55.05 41.16 55.03 41.09 55.01C40.95 54.98 40.65 55.01 40.66 55.1C40.05 55.09 39.43 55.24 38.88 55.46C38.55 55.59 38.27 55.74 38.17 56.09C38.05 56.5 38.23 57.01 38.23 57.43C38.23 57.61 38.66 57.64 38.77 57.63C39.75 57.52 41.56 57.89 42.09 56.84C42.25 56.5 42.18 55.92 42.03 55.55Z" fill="url(#paint15_radial)"/>
<path d="M15.86 60.32C15.71 60.52 15.83 60.67 15.93 60.83C16.24 61.35 16.84 61.55 17.35 61.51C17.82 61.47 18.25 60.87 17.57 60.54C17.04 60.29 17.09 60.24 16.51 60.16C16.27 60.13 16 60.12 15.86 60.32Z" fill="#294900"/>
<path d="M12.26 55.22C12.48 55.36 12.62 55.57 12.84 55.7C13.06 55.82 13.41 55.86 13.65 55.83C13.98 55.79 14.28 55.72 14.54 55.52C14.76 55.36 14.88 55.09 15.11 54.96C15.5 54.75 15.05 54.47 14.79 54.37C14.38 54.22 13.61 54.07 13.27 54.39C13.09 54.55 13.04 54.79 13.04 55.02C13.04 55.12 13.07 55.22 13.06 55.32C13.05 55.64 12.4 55.24 12.31 55.19C12.31 55.19 12.22 55.19 12.26 55.22Z" fill="#294900"/>
<path d="M49.3 72.51C47.61 73.25 46.92 72.82 46.26 74.58C46.24 74.62 46.33 74.68 46.36 74.69C47.06 75.01 47.24 75.02 47.99 74.89C48.73 74.75 50.59 74.14 50.84 74.09C52.3 73.78 53.72 73.94 55.17 73.91C55.9 73.9 56.5 74.5 57.09 74.45C58.59 74.33 58.76 72.94 60.04 72.52C60.07 72.51 60.16 72.48 60.12 72.43C59.94 72.24 59.92 72.02 60.05 71.76C60.62 71.01 57.02 71.06 58.68 71.78C60 72.35 57.45 74.41 56.36 73.83C55.78 73.52 54.5 73.81 53.97 73.72C52.47 73.47 51.27 73.98 49.78 74.16C49.63 74.18 46.99 74.66 47.08 74.21C47.25 73.37 48.73 73.06 49.4 72.56C49.44 72.53 49.32 72.5 49.3 72.51Z" fill="#294900"/>
<path d="M50.79 68.01C50.82 68.39 50.47 68.72 50.2 68.95C50.17 68.97 50.29 68.99 50.31 68.98C50.78 68.81 51.15 68.55 50.91 68.02C50.91 68 50.79 67.98 50.79 68.01Z" fill="#294900"/>
<path d="M49.75 69.38C49.89 69.68 50.25 69.71 50.21 70.11C50.17 70.43 49.67 70.55 49.47 70.76C49.44 70.79 49.46 70.83 49.49 70.86C49.71 71.05 49.93 71.23 50.07 71.48C50.22 71.75 49.84 71.85 49.74 72.03C49.71 72.08 49.84 72.1 49.87 72.1C50.22 72.13 50.63 72.12 50.77 71.77C50.88 71.5 50.41 71.13 50.24 70.97C50.05 70.81 50.24 70.74 50.38 70.62C50.53 70.49 50.62 70.37 50.64 70.17C50.68 69.72 50.03 69.63 49.81 69.38C49.8 69.37 49.74 69.37 49.75 69.38Z" fill="#294900"/>
<path d="M17.51 53.88C17.48 54.21 17.66 54.4 17.91 54.62C18.05 54.74 18.14 54.85 18.22 55.02C18.33 55.28 18.46 55.51 18.59 55.77C18.77 56.11 19.42 56.18 19.75 56.19C19.85 56.19 20.73 56.13 20.46 55.83C20.04 55.34 19.65 55.03 19.06 54.73C18.53 54.47 17.87 54.47 17.57 53.89C17.57 53.87 17.51 53.86 17.51 53.88Z" fill="#294900"/>
<path d="M29.25 55.66C28.83 55.6 28.4 55.57 27.98 55.5C27.21 55.38 27.06 54.94 26.69 54.37C26.68 54.36 26.67 54.35 26.66 54.34C26.67 54.26 26.61 54.19 26.4 54.13C26.35 54.11 26 54.03 25.97 54.06C25.66 54.3 24.56 55.28 25.31 55.61C26.39 56.08 26.86 57.21 27.97 57.64C28.06 57.68 28.8 57.73 28.55 57.51C28.23 57.22 27.56 56.51 28.17 56.25C28.58 56.07 29.06 56.03 29.5 55.95C29.83 55.88 29.36 55.68 29.25 55.66Z" fill="url(#paint16_radial)"/>
<path d="M24.82 60.08C25.23 60.02 25.83 59.92 26.11 59.6C26.19 59.52 26.08 58.88 25.98 58.64C25.9 58.45 25.46 58.41 25.3 58.44C25.68 58.39 24.8 58.54 24.65 58.63C24.51 58.72 24.18 58.64 24.01 58.69C23.81 58.75 23.59 58.79 23.43 58.94C23.23 59.12 22.57 59.52 22.55 59.85C22.53 60.18 24.09 60.2 24.82 60.08Z" fill="#294900"/>
<path d="M24.63 64.83C24.05 64.97 23.67 65.41 23.22 65.75C23.12 65.83 23.29 65.95 23.35 65.98C23.68 66.17 23.9 66.18 24.24 66.06C24.3 66.04 24.36 65.96 24.31 65.9C23.93 65.37 25.03 65.33 24.78 64.87C24.76 64.82 24.67 64.82 24.63 64.83Z" fill="#294900"/>
<path d="M32.37 63.75C31.39 64.26 30.25 64.17 29.21 64.54C28.46 64.81 27.38 65.28 27.05 66.04C26.88 66.42 28 66.48 28.28 66.41C28.53 66.35 29.89 65.59 30.29 65.28C30.64 65.01 30.96 64.67 31.32 64.43C31.72 64.17 32.1 64.16 32.39 63.76C32.4 63.75 32.38 63.75 32.37 63.75Z" fill="url(#paint17_radial)"/>
<path d="M42.13 63.41C41.23 63.63 40.71 62.9 39.85 62.81C39.49 62.77 39.14 62.77 38.97 63.05C38.43 63.16 38.29 64.05 37.85 64.38C37.82 64.38 37.79 64.4 37.78 64.42C37.78 64.43 37.78 64.44 37.77 64.45C37.76 64.49 37.81 64.51 37.86 64.52C38.14 64.78 38.17 65.06 38.18 65.42C38.19 65.62 38.69 65.64 38.81 65.58C39.73 65.12 40.57 64.7 41.62 64.53C42.18 64.44 42.85 64.3 42.88 63.66C42.91 63.39 42.28 63.38 42.13 63.41Z" fill="url(#paint18_radial)"/>
<path d="M35.94 63C36.31 62.68 36.6 62.51 37.09 62.43C37.51 62.36 38.58 61.73 38.91 62.19C39.26 62.67 39.55 63.03 40.19 63C40.25 63 40.25 62.96 40.2 62.94C39.2 62.62 39.23 61.66 38.12 61.86C37.79 61.92 37.47 62.09 37.16 62.19C36.86 62.28 36.56 62.19 36.27 62.26C35.85 62.35 35.74 62.55 35.75 62.96C35.76 63.03 35.91 63.03 35.94 63Z" fill="#294900"/>
<path d="M37.19 46.07C37.14 46.02 36.88 45.39 36.81 45.22C36.63 44.8 35.99 44.83 35.62 44.89C35.45 44.92 34.72 45.15 34.53 45.2C34.52 45.2 34.52 45.19 34.51 45.19C34.1 44.62 34.89 43.92 35.34 43.72C35.43 43.68 35.19 43.63 35.15 43.64C34.44 43.76 33.18 44.53 33.87 45.37C33.9 45.4 33.93 45.42 33.96 45.45C33.72 45.61 33.58 45.83 33.71 46.16C33.81 46.43 34.29 46.62 34.53 46.71C34.99 46.88 35.48 46.97 35.96 46.98C36.44 46.98 37.96 46.82 37.19 46.07Z" fill="url(#paint19_radial)"/>
<path d="M44.03 48.3C43.71 47.93 43.34 47.68 42.95 47.55C42.98 47.32 42.94 47.08 42.77 46.83C42.69 46.7 42.43 46.7 42.31 46.74C41.38 47.1 40.17 47.39 39.16 47.34C39.15 47.34 39.07 47.34 39.08 47.37C39.17 47.59 39.12 47.78 38.93 47.95C38.91 47.99 39.05 48.02 39.08 47.99C39.14 47.92 39.34 47.48 39.46 47.5C39.78 47.54 40.08 47.54 40.4 47.53C40.77 47.52 41.11 47.42 41.45 47.3C41.12 47.47 40.8 47.63 40.42 47.93C40.08 48.19 40.38 48.47 40.53 48.52C41 48.7 41.58 48.78 42.08 48.68C42.24 48.81 42.38 48.94 42.5 49.12C42.67 49.38 43.09 49.96 42.87 50.19C42.83 50.24 43.01 50.25 43.04 50.24C43.44 50.09 44.03 49.93 44.21 49.54C44.4 49.16 44.31 48.61 44.03 48.3Z" fill="#294900"/>
<path d="M34.68 49.73C34.75 48.89 31.63 48.36 31.44 49.34C31.25 50.26 32.6 50.13 32.14 51.39C32.02 51.72 32.92 51.58 33.05 51.51C33.83 51.05 34.59 50.68 34.68 49.73Z" fill="url(#paint20_radial)"/>
<path d="M59.22 40.25C59.67 40.31 60.3 40.38 59.93 40.87C59.79 41.06 59.76 41.22 59.83 41.45C59.91 41.7 60.23 41.72 60.43 41.83C60.98 42.14 61.35 43.2 61.15 43.7C61.15 43.71 61.18 43.71 61.18 43.71C61.56 43.13 61.67 42.74 61.15 42.16C60.87 41.84 60.44 41.67 60.34 41.26C60.29 41.05 60.37 40.63 60.22 40.46C60.03 40.23 59.47 40.24 59.23 40.21C59.17 40.21 59.16 40.25 59.22 40.25Z" fill="#294900"/>
<path d="M63.68 42.09C64.36 43.7 62.88 44.36 62.66 45.68C62.42 47.09 63.29 48.4 62.72 49.87C62.19 51.25 61.17 52.83 62.36 54.12C62.45 54.23 62.49 53.8 62.47 53.75C61.95 52.18 63.03 50.88 63.23 49.4C63.34 48.56 63.17 47.62 62.99 46.8C62.51 44.53 64.65 43.98 63.72 42C63.69 41.96 63.67 42.06 63.68 42.09Z" fill="url(#paint21_radial)"/>
<path d="M20.98 51.78C21.34 52.08 21.92 52.15 22.38 52.14C22.73 52.13 23.04 52.08 23.37 51.99C23.65 51.91 23.16 52.07 23.56 52.35C23.91 52.59 23.8 52.86 23.89 53.17C23.94 53.34 24.36 53.34 24.48 53.31C24.82 53.24 25.18 53.1 25.05 52.68C25 52.54 25.26 52.29 25.34 52.15C25.48 51.88 25.49 51.67 25.41 51.38C25.32 51.03 24.38 51 24.14 51.07C23.86 51.15 23.68 51.32 23.47 51.5C22.84 52.04 21.91 51.91 21.12 51.73C21.11 51.72 20.91 51.71 20.98 51.78Z" fill="url(#paint22_radial)"/>
<path d="M23.74 49.23C23.82 48.51 21.89 48.22 21.36 48.13C20.76 48.03 20.05 47.94 19.56 48.3C19.26 48.51 19.27 49.29 19.36 49.59C19.53 50.17 20.12 50.24 21.05 50C21.29 49.94 21.7 49.63 21.61 49.41C21.5 49.14 21.16 48.87 21.14 48.6C21.13 48.44 22.12 48.59 22.21 48.6C22.66 48.61 23.33 48.83 23.61 49.21C23.63 49.24 23.73 49.27 23.74 49.23Z" fill="#294900"/>
<path d="M16.13 44.86C16.96 45.96 19.44 46.61 20.67 46.33C23.5 45.69 25 46.48 26.28 47.63C28.88 49.96 29.46 48.51 29.28 47.27C29.27 47.2 29.29 45.61 29.22 45.7C28.9 46.09 29.11 47.17 28.72 47.63C28.25 48.19 25.15 45.7 24.7 45.2C23.98 44.39 21.95 44.7 21.2 44.83C19.41 45.16 17.97 46.14 16.16 44.84C16.14 44.84 16.12 44.85 16.13 44.86Z" fill="#FFFFDE"/>
<path d="M15.71 49.86C15.66 51.4 13.6 51.12 12.63 50.89C12.15 50.77 10.96 50.39 11.69 49.79C11.97 49.56 12.33 48.81 12.26 48.83C11.57 49.06 10.26 49.59 10.06 50.33C9.90996 50.9 11.76 51.46 12.11 51.58C12.91 51.86 14.13 51.94 14.86 51.44C15.44 51.04 16.09 50.71 15.86 49.85C15.85 49.82 15.71 49.82 15.71 49.86Z" fill="#FFFFDE"/>
<path d="M30.82 44.62C29.34 44.05 28.27 43.06 26.94 42.33C26.56 42.12 26.15 42.14 25.75 42.17C24.84 42.25 23.87 42.42 22.96 42.59C22.88 42.6 22.61 42.74 22.26 42.91C22.35 42.7 23.41 41.64 23.74 41.25C23.81 41.17 23.15 41.02 22.94 40.97C22.52 40.87 23.41 40.22 23.51 40.13C23.54 40.1 23.4 40.08 23.38 40.08C23.22 40.13 21.88 40.57 22.34 40.95C22.57 41.14 22.86 41.18 23.14 41.23C22.67 41.81 21.73 42.38 21.71 43.17C20.81 43.56 19.76 43.9 19.7 43.2C19.7 43.16 18.6 43.87 18.86 44.23C19.12 44.58 20.26 44.62 20.48 44.56C21.38 44.34 21.93 44.25 22.9 44.38C23.17 44.42 23.36 44.29 23.6 44.18C24.9 43.62 24.24 44.53 25 44.94C26.08 45.53 26.4 46.49 27.67 46.81C27.75 46.83 28.07 46.88 28.08 46.75C28.23 45.49 28.43 44.28 29.29 44.52C30.16 44.77 30.35 44.63 30.82 44.62Z" fill="url(#paint23_radial)"/>
<path d="M60.4 44.44C60.11 44.78 59.77 45.04 59.43 45.33C59.07 45.64 58.52 45.51 58.15 45.81C57.73 46.16 56.69 46.95 57.8 47.24C58.6 47.45 59.03 46.58 59.44 46.12C59.52 46.04 59.51 45.9 59.47 45.8C59.38 45.55 59.58 45.54 59.76 45.43C60.15 45.18 60.4 44.9 60.64 44.49C60.68 44.43 60.44 44.39 60.4 44.44Z" fill="#294900"/>
<path d="M58.2 44.94C58.33 44.82 58.97 44.25 58.91 44.05C58.79 43.71 58.52 43.48 58.46 43.12C58.36 42.55 58.67 41.99 58.61 41.41C58.56 40.91 58.28 40.57 58.36 40.04C58.38 39.9 57.94 39.87 57.87 39.95C57.58 40.26 57.6 40.48 57.73 40.89C58 41.69 57.64 42.23 57.51 42.99C57.46 43.27 57.65 43.5 57.87 43.67C57.97 43.75 58.08 43.81 58.2 43.86C58.81 44.11 58.35 44.62 58.08 44.91C58.06 44.94 58.17 44.97 58.2 44.94Z" fill="#294900"/>
<path d="M58.79 51.5C58.3 52.08 56.71 52.92 57.82 53.76C57.99 53.89 58.29 53.95 58.14 53.75C57.78 53.28 57.7 53.01 58.09 52.56C58.39 52.21 58.73 51.98 58.85 51.51C58.86 51.5 58.8 51.5 58.79 51.5Z" fill="#294900"/>
<path d="M47.89 58.03C47.57 57.99 47.27 58.01 46.95 58.06C46.47 58.14 46.23 58.03 45.92 57.64C45.77 57.45 45.83 57.22 45.7 57.01C45.64 56.92 45.12 56.98 45.1 57C44.64 57.54 44.51 58 44.8 58.69C45.11 59.43 45.44 59.84 45.28 60.66C45.25 60.79 45.64 60.83 45.71 60.82C46.35 60.73 46.65 60.05 46.99 59.6C47.4 59.07 48.09 59.23 48.58 58.84C48.96 58.53 48.16 58.07 47.89 58.03Z" fill="#294900"/>
<path d="M55.73 59.01C54.76 58.31 53.74 59.1 53 59.68C52.69 59.74 52.39 59.99 52.31 60.27C52.01 60.41 51.71 60.54 51.54 60.58C51.49 60.45 51.44 60.25 51.43 60.23C50.94 59.62 50.12 58.87 50.08 59.95C50.08 60.02 50.09 60.19 50.54 60.26C50.58 60.29 50.9 60.47 50.99 60.54C51.07 61.08 51.24 62.2 50.82 62.09C50.58 62.02 50.24 62.08 50.04 62.23C48.62 62.44 47.09 61.81 45.75 62.36C45.21 62.58 44.69 63 44.59 63.58C44.55 63.79 44.77 63.98 44.89 64.12C45.29 64.57 45.42 64.87 45.65 65.4C45.73 65.57 46.15 65.59 46.28 65.52C47.22 65.07 47.51 64.02 48.57 63.72C49.46 63.47 49.9 63.48 50.38 62.66C50.78 61.99 51.11 62.71 51.5 62.34C51.95 61.91 51.88 61.39 51.67 60.89C52.02 60.77 52.77 60.18 52.91 60.05C53.08 59.92 53.25 59.86 53.34 60.02C53.5 60.3 53.47 60.7 53.54 61.01C53.54 61.01 53.54 61.01 53.54 61.02C53.54 61.03 53.54 61.04 53.55 61.05C53.59 61.2 54.14 61.26 54.17 61.1C54.32 60.46 54.9 60.17 55.45 59.85C55.85 59.62 55.75 59.02 55.73 59.01Z" fill="url(#paint24_radial)"/>
<path d="M44.34 65.53C43.95 65.64 43.7 65.87 43.41 66.13C43.13 66.37 42.18 66.58 42.03 66.69C42.13 66.66 41.23 66.76 40.96 67.19C40.88 67.27 40.88 67.37 40.93 67.47C40.95 67.5 40.98 67.54 41 67.57C41.42 68.16 42.73 68.29 43.32 68.01C44.04 67.67 43.12 66.85 43.18 66.91C43.25 66.6 43.49 66.53 43.71 66.32C43.96 66.08 44.15 65.79 44.38 65.55C44.4 65.54 44.34 65.53 44.34 65.53Z" fill="#294900"/>
<path d="M45 65.81C44.53 66.26 44.76 66.85 44.2 67.33C43.81 67.67 43.66 67.93 43.78 68.46C43.97 69.34 42.37 68.97 42.05 68.9C41.4 68.76 41.15 68.14 40.72 67.73C40.09 67.13 39.35 66.51 38.45 66.54C38.42 66.54 38.3 66.6 38.3 66.6C37.99 66.65 37.78 66.66 37.51 66.45C37.27 66.26 37.17 65.93 37.12 65.66C37.07 65.38 37.06 65.13 36.96 64.85C36.86 64.57 36.52 64.42 36.56 64.09C36.56 64.06 36.48 64.1 36.48 64.14C36.52 64.56 36.66 64.93 36.63 65.36C36.6 65.78 36.56 66.17 36.73 66.58C36.96 67.15 37.44 67.24 37.86 67.05C39.34 66.99 41.67 70.22 43.66 69.26C44.41 68.9 43.77 67.98 44.3 67.58C44.49 67.43 44.75 67.29 44.84 67.05C44.98 66.66 44.77 66.16 45.02 65.85C45.06 65.79 45.03 65.78 45 65.81Z" fill="#FFFFDE"/>
<path d="M39.22 66.25C39.7 66.03 39.91 66.22 40.35 66.15C40.79 66.08 41.15 65.74 41.62 65.68C42.36 65.59 43.09 65.73 43.75 65.37C44.06 65.2 44.39 64.79 44.37 64.42C44.34 64.01 44.17 63.64 44.07 63.24C43.83 62.27 45.04 62.04 45.69 61.82C45.76 61.8 46.14 61.43 45.96 61.42C44.77 61.33 42.81 62.73 43.38 64.02C43.58 64.48 44.21 65.09 43.22 65.27C42.71 65.36 42.17 65.27 41.65 65.29C41.32 65.3 41.04 65.47 40.77 65.62C40.28 65.9 39.72 65.95 39.21 66.19C39.2 66.21 39.16 66.28 39.22 66.25Z" fill="#FFFFDE"/>
<path d="M45.76 67.09C45.48 67.3 45.34 67.64 45.09 67.89C44.9 68.08 44.59 68.2 44.72 68.51C44.78 68.64 45.08 68.65 45.18 68.62C45.72 68.5 45.97 67.81 45.84 67.54C45.8 67.44 45.85 67.02 45.76 67.09Z" fill="#294900"/>
<path d="M12.35 66.76C12.71 66.58 13.08 66.44 13.29 66.09C13.37 65.96 13.43 65.83 13.47 65.68C13.48 65.6 13.49 65.53 13.48 65.45C13.47 64.95 13.61 65.43 13.58 65.07C13.41 65.05 13.25 65.04 13.08 65.03C13.09 65.05 13.11 65.07 13.12 65.1C13.32 65.44 14.02 65.51 14.35 65.47C14.59 65.44 14.84 65.42 15.08 65.36C15.33 65.29 15.58 65.11 15.3 64.87C14.93 64.56 14.27 64.46 13.82 64.51C13.46 64.55 12.93 64.64 13.12 65.1C13.13 65.04 13.13 64.98 13.14 64.93C13.12 64.95 13.11 64.97 13.09 64.98C13.08 65 13.07 65.01 13.09 65.03C13.18 65.22 13.34 65.31 13.27 65.54C13.21 65.76 13.01 65.94 12.83 66.06C12.54 66.24 12.26 66.43 11.97 66.62C11.8 66.72 12.26 66.81 12.35 66.76Z" fill="#294900"/>
<path d="M32.64 83.61C32.35 83.18 31.2 83.74 30.73 83.97C30.67 84 29.78 83.82 29.09 83.94C28.73 84 28.14 84.11 27.93 84.42C27.35 85.25 29.92 85.49 30.29 85.47C30.7 85.44 31.05 85.34 31.41 85.18C31.54 85.12 31.83 84.77 31.86 84.69C31.82 84.5 31.76 84.31 31.68 84.13C31.87 84.02 32.67 83.67 32.64 83.61Z" fill="#294900"/>
<path d="M38.43 71.53C38.24 72.23 37.38 72.73 36.84 73.19C36.72 73.29 37.2 73.35 37.25 73.34C37.55 73.28 37.9 73.02 38.12 73.2C38.33 73.37 38.68 73.43 38.93 73.43C39.78 73.46 40.29 72.83 41.07 72.67C41.35 72.61 41.35 72.41 41.11 72.27C40.81 72.11 40.4 72.05 40.07 72.13C39.73 72.21 39.44 72.36 39.14 72.54C38.99 72.63 38.84 72.73 38.68 72.82C38.59 72.87 38.49 72.91 38.39 72.95C38.66 72.94 38.71 72.9 38.54 72.85C37.94 72.63 37.29 72.78 36.84 73.19C37 73.22 37.17 73.25 37.33 73.28C37.23 72.81 37.8 72.61 38.13 72.39C38.42 72.19 38.56 71.88 38.59 71.54C38.59 71.51 38.44 71.49 38.43 71.53Z" fill="#294900"/>
<path d="M13.57 75.92C13.86 75.7 14.68 75.66 14.8 76.12C14.88 76.39 15.54 76.56 15.76 76.61C16.42 76.77 18.11 76.9 18.15 75.96C18.18 75.23 16.29 75.22 15.89 75.41C17.08 75.38 17.33 75.34 16.64 75.3C16.45 75.29 16.27 75.31 16.09 75.34C15.85 75.4 15.57 75.52 15.38 75.66C15.17 75.83 15.02 75.83 14.74 75.75C14.26 75.6 13.72 75.51 13.35 75.87C13.32 75.91 13.53 75.95 13.57 75.92Z" fill="#294900"/>
<path d="M12.32 50.2C12.49 50.06 12.55 49.85 12.73 49.7C13.12 49.36 13.88 49.43 13.87 49.39C13.45 49.58 13.11 49.84 12.96 50.09C12.8 50.37 13.41 50.54 13.5 50.56C13.78 50.63 14.44 50.73 14.57 50.4C14.66 50.16 14.77 49.93 14.87 49.69C14.96 49.47 14.14 49.26 13.98 49.22C13.68 49.13 13.31 49.12 13.01 49.18C12.65 49.25 11.68 49.65 12 50.15C12.04 50.24 12.25 50.26 12.32 50.2Z" fill="#294900"/>
<path d="M10.7 49.02C10.77 48.7 11.15 48.73 11.42 48.55C11.68 48.37 11.78 48.15 12.04 48.02C12.09 48 11.99 47.97 11.98 47.97C11.27 47.84 10.6 48.34 10.54 49.01C10.54 49.04 10.69 49.07 10.7 49.02Z" fill="#294900"/>
<path d="M50.6 41.58C50.52 41.86 51.09 42.73 51.24 42.89C51.31 42.97 51.44 43.5 51.29 43.62C50.99 43.86 51.28 44.52 51.43 44.79C51.68 45.25 52.02 45.58 52.5 45.81C52.69 45.9 52.81 45.85 52.92 45.71C53.5 44.94 52.95 43.91 52.37 43.22C52.1 42.9 51.86 42.75 51.51 42.56C51.21 42.39 50.97 42.15 50.88 41.82C50.85 41.78 50.63 41.46 50.6 41.58Z" fill="#294900"/>
<path d="M33.05 57.44C32.4 57.36 31.89 57.23 31.26 57.43C30.69 57.61 29.98 58.13 29.86 58.71C29.84 58.8 30.1 58.8 30.15 58.78C31.09 58.38 31.83 57.12 33.03 57.47C33.09 57.49 33.12 57.45 33.05 57.44Z" fill="#294900"/>
<path d="M48.01 46.04C47.84 45.98 47.68 45.94 47.51 45.89C47.54 45.69 47.56 45.48 47.53 45.28C47.5 45.13 47.31 44.98 47.1 44.94C46.97 44.87 46.55 44.74 45.99 45.13C46.04 45.13 46.36 45.13 46.41 45.13C46.17 45.3 46.09 45.59 45.89 45.82C45.7 46.06 46.27 46.25 46.42 46.28C46.8 46.36 47.17 46.49 47.56 46.56C47.78 46.6 48.19 46.62 48.35 46.44C48.51 46.26 48.14 46.08 48.01 46.04Z" fill="#294900"/>
<path d="M55.36 56.77C55.14 56.47 55.39 56.12 55.08 55.89C54.7 55.6 54.94 55.27 55.04 55.03C55.14 55.05 54.98 54.85 54.96 54.79C54.9 54.47 54.64 54.51 54.36 54.42C53.78 54.23 52.72 53.8 52.74 53.84C52.45 54.08 52.35 54.42 52.01 54.63C51.7 54.82 51.43 54.94 51.37 55.33C51.29 55.83 51.68 56.68 52.28 56.74C52.57 56.77 52.81 56.73 53.09 56.63C53.4 56.52 54.02 56.32 54.06 56.88C54.07 56.99 54.07 57.08 54.14 57.17C54.44 57.54 55.38 56.8 55.36 56.77Z" fill="url(#paint25_radial)"/>
<path d="M31.28 62.71C30.87 62.48 30.71 61.62 30.67 61.22C30.64 60.9 29.68 61.12 29.68 61.13C29.68 61.13 29.67 61.13 29.66 61.13C28.73 60.96 28.06 61.95 28.39 62.76C28.46 62.94 28.93 62.96 29.06 62.89C29.58 62.59 29.87 62.86 30.4 63.01C30.75 63.09 31.29 62.72 31.28 62.71Z" fill="#294900"/>
<path d="M25.02 78.95C25.02 78.95 25.02 78.94 25.02 78.93C24.99 78.78 24.75 78.73 24.63 78.72C24.04 78.66 23.54 78.81 23.2 79.28C23.06 79.48 22.98 79.72 22.95 79.95C22.91 80.21 23.08 80.49 22.92 80.69C22.84 80.79 22.88 80.91 22.99 80.99C23.43 81.3 23.93 81.42 24.46 81.44C24.7 81.45 25.74 81.36 25.73 80.98C25.73 80.55 25.64 80.4 26.05 80.12C26.36 79.91 26.67 79.74 27.04 79.64C27.08 79.63 27.13 79.61 27.11 79.56C27.01 79.27 26.72 79.16 26.43 79.1C26.3 79.07 26.04 79.02 25.94 79.14C25.82 79.28 26.23 79.37 26.3 79.38C26.44 79.4 26.75 79.42 26.55 79.56C26.48 79.6 26.42 79.66 26.35 79.71C26.05 79.94 25.63 80.22 25.24 80.29C24.76 80.38 24.26 80.34 23.79 80.45C23.6 80.49 23.57 80.53 23.49 80.56C23.2 80.61 23.41 80.62 24.14 80.59C23.94 80.54 23.74 80.52 23.53 80.51C23.73 80.55 23.93 80.59 24.13 80.62C23.73 80.49 23.89 79.86 23.99 79.58C24.06 79.39 24.21 79.21 24.38 79.1C24.56 78.98 24.78 79.06 24.97 78.97C25 78.98 25.01 78.97 25.02 78.95Z" fill="#294900"/>
<path d="M17.63 78.14C15.73 78.19 15.09 79.6 14.52 81.12C14.44 81.35 15.19 81.37 15.29 81.35C15.77 81.26 17.09 80.18 17.24 80.48C17.35 80.72 17.34 81.02 17.35 81.27C17.36 81.51 17.95 81.52 18.09 81.45C19.19 80.91 20.33 79.58 18.8 78.7C18.55 78.56 18.09 78.6 18.59 78.81C19.65 79.26 18.92 80.25 18.16 80.79C18.05 80.43 17.95 79.9 16.92 79.96C16.48 79.99 16.13 80.21 15.78 80.45C15.43 80.69 16.31 78.72 17.74 78.2C17.8 78.17 17.65 78.14 17.63 78.14Z" fill="#294900"/>
<path d="M15.65 78.49C14.88 78.76 14.35 79.56 13.96 80.2C13.64 80.74 12.98 81.88 13.63 82.46C13.96 82.76 14.65 82.61 15 82.5C15.32 82.4 15.6 82.24 15.89 82.08C16.01 82.01 16.28 81.78 16.42 81.97C16.56 82.16 16.59 82.08 16.85 82.26C17.79 82.9 18.59 81.69 19.19 81.2C19.22 81.18 19.28 81.07 19.19 81.1C18.87 81.19 18.64 81.42 18.4 81.63C17.83 82.13 17.28 82.06 17.23 81.21C17.21 80.88 16.7 80.77 16.46 80.85C16.06 80.99 15.69 81.25 15.23 81.2C14.15 81.09 15.4 78.95 15.68 78.56C15.71 78.52 15.71 78.47 15.65 78.49Z" fill="#FAEBC3"/>
<path d="M45.13 77.54C44.29 77.19 43.24 76.48 42.36 76.36C41.63 76.26 40.6 76.76 39.94 76.33C38.91 75.67 37.65 76.63 36.82 77.09C36.78 77.12 36.77 77.15 36.81 77.19C37.57 77.84 35.67 78.24 35.36 78.35C34.8 78.56 34.47 79.64 34.12 80.09C34.1 80.11 34.19 80.13 34.2 80.12C34.7 79.81 34.84 79.61 35.13 79.09C35.5 78.43 36.16 78.35 36.84 78.14C36.99 78.09 37.92 77.73 37.51 77.38C37.19 77.11 39.28 76.18 39.74 76.57C39.87 76.68 40.07 76.75 40.25 76.77C40.47 76.8 40.71 76.8 40.93 76.76C42.17 76.53 42.92 76.92 43.9 77.42C42.2 77.37 39.84 77.58 39.3 78.86C38.97 78.7 38.62 78.58 38.19 78.52C36.8 78.35 36.39 80.1 35.08 80.01C34.62 79.98 34.83 80.27 35.16 80.32C36.55 80.53 38.42 78.22 39.24 79.9C39.37 80.16 40.55 80.35 40.52 80.01C40.33 78.04 43.45 77.75 45 77.84C45.28 77.87 45.49 77.69 45.13 77.54Z" fill="url(#paint26_radial)"/>
<path d="M11.15 28.29C10.82 28.61 10.84 28.9 11.07 29.29C11.21 29.53 11.48 29.7 11.69 29.87C12.24 30.31 11.91 30.43 12.11 31.06C12.43 32.07 13.28 32.62 14.33 32.44C14.68 32.38 15.1 32.26 15.37 32.01C15.74 31.68 16.98 31.69 17.53 31.62C17.57 31.61 17.61 31.56 17.57 31.52C16.63 30.83 15.52 31.03 14.47 30.56C14.67 30.73 14.86 30.89 15.06 31.06C14.58 30.29 13.95 29.36 12.9 29.47C12.17 29.54 11.36 29.08 11.28 28.34C11.26 28.27 11.19 28.24 11.15 28.29Z" fill="#FFFFDE"/>
<path d="M21.73 34.63C21.79 34.71 22.68 34.13 22.76 34.07C22.98 33.94 22.95 33.91 23.27 34.05C23.58 34.18 23.9 34.03 24.15 33.86C24.35 33.72 24.58 33.58 24.73 33.38C25.46 32.48 24.18 31.28 23.36 32.16C23.22 32.31 23.09 32.45 22.93 32.59C22.72 32.77 22.56 33.13 22.66 33.4C22.74 33.61 21.9 34.05 21.72 34.17C21.62 34.24 21.51 34.33 21.51 34.47C21.52 34.64 21.68 34.56 21.73 34.63Z" fill="#FFFFDE"/>
<path d="M21.06 26.06C20.81 26.9 21.58 27.29 22.32 27.46C23.2 27.66 24.54 28.28 25.04 27.2C25.13 27.01 24.98 26.8 24.8 26.73C24.15 26.48 23.41 26.61 22.74 26.66C21.91 26.71 21.6 26.74 21.17 26.04C21.14 26 21.07 26.02 21.06 26.06Z" fill="#FFFFDE"/>
<path d="M17.61 20.19C17.03 20.55 16.34 20.65 15.79 21.06C15.45 21.32 15.32 21.86 15.17 22.22C14.77 23.18 15.98 23.97 16.85 23.86C17.72 23.75 18.43 23.39 19.38 23.46C19.98 23.5 21.15 24.06 21.8 23.81C22.65 23.48 23.68 23.18 23.47 22.12C23.45 22.02 23.32 22 23.27 22.09C22.7 23.11 22.49 22.82 21.64 22.77C20.76 22.72 19.89 22.59 19.01 22.51C18.2 22.43 17.52 22.4 16.73 22.19C15.88 21.96 17.42 20.64 17.63 20.21C17.63 20.2 17.62 20.19 17.61 20.19Z" fill="#FFFFDE"/>
<path d="M42.75 29.56C43.05 29.98 43.37 29.98 43.87 29.92C44.52 29.84 45.07 30.5 45.69 30.63C46.51 30.79 47.88 30.63 47.91 29.63C47.92 29.47 47.83 29.26 47.67 29.19C47.46 29.09 47.25 29.03 47.03 28.97C46.81 28.91 46.62 29.15 46.81 29.31C46.86 29.35 46.91 29.38 46.97 29.42C47.04 29.32 47.11 29.22 47.19 29.11C46.86 29.3 46.61 29.44 46.23 29.51C45.81 29.59 45.48 29.27 45.1 29.3C44.8 29.32 44.52 29.32 44.22 29.37C43.74 29.44 43.33 29.77 42.8 29.52C42.77 29.5 42.73 29.52 42.75 29.56Z" fill="#FFFFDE"/>
<path d="M55.37 29.9C55.19 29.76 54.75 29.52 54.68 29.49C53.61 29.03 52.54 28.95 51.37 28.99C51.3 28.99 51.27 29.09 51.34 29.12C52.17 29.42 53.03 29.63 53.87 29.9C53.63 29.79 56 31.42 56.27 31.57C55.52 32.82 51.54 32.72 50.56 32.76C48.31 32.85 46.52 33.88 44.19 33.71C44.18 33.71 44.2 33.76 44.22 33.76C47.03 34.02 49.47 32.89 52.3 32.99C53.4 33.03 56.56 33 57.02 31.86C57.1 31.66 55.87 30.3 55.37 29.9Z" fill="#FFFFDE"/>
<path d="M33.82 25.55C32.92 24.83 31.97 24.37 30.81 24.17C29.94 24.02 30.18 24.91 30.43 25.39C30.79 26.07 31.11 27.03 31.95 26.88C34.2 26.48 35.79 27.52 36.01 27.53C36.07 27.53 34.54 26.14 33.82 25.55Z" fill="#638547"/>
<path d="M45.02 28.29C44.44 28 43.6 27.86 43.24 28.52C43.15 28.69 43.27 28.95 43.48 28.97C43.74 28.99 43.91 28.93 44.16 28.89C44.37 28.86 44.63 28.92 44.85 28.95C45.26 29 45.37 28.46 45.02 28.29Z" fill="#638547"/>
<path d="M36.41 32.49C35.46 31.57 34.83 30.9 33.49 30.68C32.81 30.57 32.18 30.55 31.48 30.59C30.42 30.65 29.44 31.36 28.3 31.15C28.16 31.13 27.98 31.15 27.89 31.27C27.77 31.43 27.64 31.59 27.52 31.74C27.41 31.89 27.54 32.15 27.74 32.1C28.78 31.85 29.51 30.8 30.6 31.63C31.12 32.03 31.55 32.24 32.23 32.19C32.94 32.14 33.43 31.89 34.1 31.72C34.71 31.56 35.74 32.37 36.36 32.56C36.4 32.58 36.44 32.52 36.41 32.49Z" fill="#638547"/>
<path d="M19.51 19.85C20.45 20.29 20.69 21.29 20.92 22.19C20.96 21.92 21 21.66 21.05 21.39C20.71 21.83 19.88 21.18 19.42 21.03C18.7 20.79 18.08 20.95 17.49 21.39C17 21.75 17.64 22.56 18.14 22.22C18.72 21.82 19.17 22.1 19.73 22.39C20.43 22.76 21.02 22.85 21.8 22.71C22.26 22.63 22.6 22.29 22.55 21.82C22.47 20.94 22.09 20.36 21.28 19.98C20.76 19.73 20.11 19.82 19.55 19.75C19.49 19.74 19.44 19.82 19.51 19.85Z" fill="#638547"/>
<path d="M24.78 23.67C24.85 24.05 24.82 24.61 24.53 24.92C24.64 24.91 24.74 24.91 24.85 24.9C24.66 24.78 24.34 24.52 24.06 24.57C23.71 24.62 23.53 24.66 23.22 24.8C22.74 25.02 22.32 25.34 22.27 25.87C22.24 26.21 22.49 26.66 22.9 26.66C23.32 26.66 23.59 26.57 23.9 26.29C24.13 26.08 24.88 25.65 24.95 25.26C25.05 24.73 25.14 24.15 24.97 23.62C24.92 23.53 24.76 23.57 24.78 23.67Z" fill="#638547"/>
<path d="M26.02 34.68C26.37 34.77 26.68 34.93 27.04 34.96C27.21 34.97 27.27 34.74 27.16 34.64C26.81 34.35 26.44 34.45 26.01 34.55C25.94 34.56 25.96 34.66 26.02 34.68Z" fill="#638547"/>
<path d="M21.42 34.15C21.64 33.64 22.16 32.96 22.79 32.89C22.97 32.87 23.09 32.69 23.1 32.53C23.14 31.95 22.66 31.23 22.22 30.88C22.28 31.27 22.34 31.66 22.4 32.04C22.75 31.67 23.32 31.44 23.55 30.97C23.69 30.69 23.68 30.25 23.33 30.1C22.31 29.65 21.38 30.4 20.9 31.24C20.61 31.75 21.11 32.27 21.59 32.37C22.1 32.48 22.27 33.12 22.88 32.85C22.73 32.64 22.58 32.44 22.43 32.23C21.83 32.88 21.03 33.12 21.3 34.14C21.32 34.19 21.4 34.2 21.42 34.15Z" fill="#638547"/>
<path d="M11.96 28.6C11.93 28.64 11.93 28.67 11.94 28.7C11.96 28.74 12 28.76 12.01 28.8C12.04 28.87 12.12 28.93 12.2 28.94C13.11 29.03 15.11 29.07 14.85 30.4C14.83 30.49 14.88 30.56 14.95 30.61C15.18 30.75 15.43 30.82 15.69 30.88C15.8 30.9 15.85 30.77 15.79 30.7C15.65 30.5 15.24 30.44 15.27 30.23C15.3 30.01 15.26 29.8 15.18 29.6C15.03 29.21 14.62 28.97 14.25 28.81C13.81 28.62 13.31 28.57 12.84 28.54C12.67 28.53 12.49 28.52 12.32 28.51C12.26 28.51 12.2 28.5 12.14 28.52C11.93 28.61 12.17 28.59 12.14 28.69C12.16 28.58 12.02 28.53 11.96 28.6Z" fill="#638547"/>
<path d="M35.06 28.1C35.07 26.76 32.78 27.21 31.92 27.36C31.41 27.45 31.61 28.16 32.06 28.18C32.67 28.21 34.49 27.45 34.85 28.13C34.9 28.21 35.06 28.21 35.06 28.1Z" fill="#FFFFDE"/>
<defs>
<linearGradient id="paint0_linear" x1="39.1957" y1="94.3134" x2="37.7938" y2="84.3387" gradientUnits="userSpaceOnUse">
<stop stop-color="white"/>
<stop offset="0.1586" stop-color="#F6F6F7"/>
<stop offset="0.4172" stop-color="#DEDFE1"/>
<stop offset="0.7416" stop-color="#B6B8BE"/>
<stop offset="1" stop-color="#92959E"/>
</linearGradient>
<radialGradient id="paint1_radial" cx="0" cy="0" r="1" gradientUnits="userSpaceOnUse" gradientTransform="translate(82.0364 27.3667) scale(80.8611 79.3541)">
<stop stop-color="#218F00"/>
<stop offset="0.1679" stop-color="#197000"/>
<stop offset="0.4229" stop-color="#0E4800"/>
<stop offset="0.6554" stop-color="#062A00"/>
<stop offset="0.8555" stop-color="#021800"/>
<stop offset="1" stop-color="#001200"/>
</radialGradient>
<radialGradient id="paint2_radial" cx="0" cy="0" r="1" gradientUnits="userSpaceOnUse" gradientTransform="translate(72.2354 27.5001) scale(41.6926 41.6925)">
<stop stop-color="#115400"/>
<stop offset="1"/>
</radialGradient>
<radialGradient id="paint3_radial" cx="0" cy="0" r="1" gradientUnits="userSpaceOnUse" gradientTransform="translate(71.2426 30.342) scale(54.8184 53.7967)">
<stop stop-color="#218F00"/>
<stop offset="0.0377" stop-color="#208A00"/>
<stop offset="0.6993" stop-color="#093400"/>
<stop offset="1" stop-color="#001200"/>
</radialGradient>
<radialGradient id="paint4_radial" cx="0" cy="0" r="1" gradientUnits="userSpaceOnUse" gradientTransform="translate(71.875 30.4992) scale(30.4838)">
<stop stop-color="#115400"/>
<stop offset="1"/>
</radialGradient>
<radialGradient id="paint5_radial" cx="0" cy="0" r="1" gradientUnits="userSpaceOnUse" gradientTransform="translate(-14.8791 54.2512) rotate(7.92407) scale(31.2212 29.7487)">
<stop stop-color="#218F00"/>
<stop offset="0.1679" stop-color="#197000"/>
<stop offset="0.4229" stop-color="#0E4800"/>
<stop offset="0.6554" stop-color="#062A00"/>
<stop offset="0.8555" stop-color="#021800"/>
<stop offset="1" stop-color="#001200"/>
</radialGradient>
<radialGradient id="paint6_radial" cx="0" cy="0" r="1" gradientUnits="userSpaceOnUse" gradientTransform="translate(40.3128 56.8945) rotate(7.92407) scale(47.6174 45.3717)">
<stop stop-color="#FFF0C9"/>
<stop offset="0.3163" stop-color="#FDEEC7"/>
<stop offset="0.491" stop-color="#F7E8BF"/>
<stop offset="0.6313" stop-color="#EDDCB1"/>
<stop offset="0.7532" stop-color="#DECC9D"/>
<stop offset="0.8632" stop-color="#CBB884"/>
<stop offset="0.9633" stop-color="#B49F65"/>
<stop offset="1" stop-color="#AA9458"/>
</radialGradient>
<radialGradient id="paint7_radial" cx="0" cy="0" r="1" gradientUnits="userSpaceOnUse" gradientTransform="translate(70.6587 76.4231) scale(37.469 36.1913)">
<stop stop-color="#EEDEB3"/>
<stop offset="1" stop-color="#AA9458"/>
</radialGradient>
<radialGradient id="paint8_radial" cx="0" cy="0" r="1" gradientUnits="userSpaceOnUse" gradientTransform="translate(32.5252 15.2912) rotate(7.92407) scale(42.4911 40.4871)">
<stop stop-color="#FFF0C9"/>
<stop offset="0.3163" stop-color="#FDEEC7"/>
<stop offset="0.491" stop-color="#F7E8BF"/>
<stop offset="0.6313" stop-color="#EDDCB1"/>
<stop offset="0.7532" stop-color="#DECC9D"/>
<stop offset="0.8632" stop-color="#CBB884"/>
<stop offset="0.9633" stop-color="#B49F65"/>
<stop offset="1" stop-color="#AA9458"/>
</radialGradient>
<radialGradient id="paint9_radial" cx="0" cy="0" r="1" gradientUnits="userSpaceOnUse" gradientTransform="translate(17.7872 32.8001) scale(96.5758 93.2826)">
<stop stop-color="#218F00"/>
<stop offset="0.0377" stop-color="#208A00"/>
<stop offset="0.6993" stop-color="#093400"/>
<stop offset="1" stop-color="#001200"/>
</radialGradient>
<radialGradient id="paint10_radial" cx="0" cy="0" r="1" gradientUnits="userSpaceOnUse" gradientTransform="translate(46.3877 53.1636) rotate(7.92407) scale(6.15636 5.86601)">
<stop stop-color="#4D7336"/>
<stop offset="1" stop-color="#002100"/>
</radialGradient>
<radialGradient id="paint11_radial" cx="0" cy="0" r="1" gradientUnits="userSpaceOnUse" gradientTransform="translate(59.4832 57.5608) rotate(7.92408) scale(2.83619 2.70243)">
<stop stop-color="#4D7336"/>
<stop offset="1" stop-color="#002100"/>
</radialGradient>
<radialGradient id="paint12_radial" cx="0" cy="0" r="1" gradientUnits="userSpaceOnUse" gradientTransform="translate(35.3782 65.4424) rotate(7.92407) scale(8.02319 7.64479)">
<stop stop-color="#4D7336"/>
<stop offset="1" stop-color="#002100"/>
</radialGradient>
<radialGradient id="paint13_radial" cx="0" cy="0" r="1" gradientUnits="userSpaceOnUse" gradientTransform="translate(29.0088 72.5783) rotate(7.92406) scale(6.63188 6.31909)">
<stop stop-color="#4D7336"/>
<stop offset="1" stop-color="#002100"/>
</radialGradient>
<radialGradient id="paint14_radial" cx="0" cy="0" r="1" gradientUnits="userSpaceOnUse" gradientTransform="translate(18.4398 66.2323) rotate(7.92409) scale(7.5508 7.1947)">
<stop stop-color="#4D7336"/>
<stop offset="1" stop-color="#002100"/>
</radialGradient>
<radialGradient id="paint15_radial" cx="0" cy="0" r="1" gradientUnits="userSpaceOnUse" gradientTransform="translate(40.1601 55.4754) rotate(7.92409) scale(2.29282 2.18469)">
<stop stop-color="#4D7336"/>
<stop offset="1" stop-color="#002100"/>
</radialGradient>
<radialGradient id="paint16_radial" cx="0" cy="0" r="1" gradientUnits="userSpaceOnUse" gradientTransform="translate(28.2354 54.3379) rotate(7.9241) scale(4.95846 4.72462)">
<stop stop-color="#4D7336"/>
<stop offset="1" stop-color="#002100"/>
</radialGradient>
<radialGradient id="paint17_radial" cx="0" cy="0" r="1" gradientUnits="userSpaceOnUse" gradientTransform="translate(26.153 65.4893) rotate(7.92409) scale(7.77582 7.4091)">
<stop stop-color="#4D7336"/>
<stop offset="1" stop-color="#002100"/>
</radialGradient>
<radialGradient id="paint18_radial" cx="0" cy="0" r="1" gradientUnits="userSpaceOnUse" gradientTransform="translate(44.4266 61.9789) rotate(7.92406) scale(6.99826 6.6682)">
<stop stop-color="#4D7336"/>
<stop offset="1" stop-color="#002100"/>
</radialGradient>
<radialGradient id="paint19_radial" cx="0" cy="0" r="1" gradientUnits="userSpaceOnUse" gradientTransform="translate(38.2832 44.2491) rotate(7.92406) scale(10.0925 9.6165)">
<stop stop-color="#4D7336"/>
<stop offset="1" stop-color="#002100"/>
</radialGradient>
<radialGradient id="paint20_radial" cx="0" cy="0" r="1" gradientUnits="userSpaceOnUse" gradientTransform="translate(34.1999 48.5696) rotate(7.92411) scale(3.79276 3.6139)">
<stop stop-color="#4D7336"/>
<stop offset="1" stop-color="#002100"/>
</radialGradient>
<radialGradient id="paint21_radial" cx="0" cy="0" r="1" gradientUnits="userSpaceOnUse" gradientTransform="translate(62.8601 48.0562) rotate(2.90075) scale(4.50426 4.35126)">
<stop stop-color="#4D7336"/>
<stop offset="1" stop-color="#002100"/>
</radialGradient>
<radialGradient id="paint22_radial" cx="0" cy="0" r="1" gradientUnits="userSpaceOnUse" gradientTransform="translate(23.19 52.0092) rotate(7.92406) scale(1.80089 1.71595)">
<stop stop-color="#4D7336"/>
<stop offset="1" stop-color="#002100"/>
</radialGradient>
<radialGradient id="paint23_radial" cx="0" cy="0" r="1" gradientUnits="userSpaceOnUse" gradientTransform="translate(24.4936 45.5948) rotate(7.92409) scale(6.97017 6.64145)">
<stop stop-color="#4D7336"/>
<stop offset="1" stop-color="#002100"/>
</radialGradient>
<radialGradient id="paint24_radial" cx="0" cy="0" r="1" gradientUnits="userSpaceOnUse" gradientTransform="translate(50.1108 62.0863) rotate(7.92405) scale(4.81046 4.58357)">
<stop stop-color="#4D7336"/>
<stop offset="1" stop-color="#002100"/>
</radialGradient>
<radialGradient id="paint25_radial" cx="0" cy="0" r="1" gradientUnits="userSpaceOnUse" gradientTransform="translate(54.8912 53.5669) rotate(7.92411) scale(5.40971 5.15459)">
<stop stop-color="#4D7336"/>
<stop offset="1" stop-color="#002100"/>
</radialGradient>
<radialGradient id="paint26_radial" cx="0" cy="0" r="1" gradientUnits="userSpaceOnUse" gradientTransform="translate(41.1208 74.6962) rotate(7.92411) scale(8.71165 8.30083)">
<stop stop-color="#4D7336"/>
<stop offset="1" stop-color="#002100"/>
</radialGradient>
</defs>
</svg>
