<svg width="100" height="106" viewBox="0 0 100 106" fill="none" xmlns="http://www.w3.org/2000/svg">
<path d="M2.99994 52V58.96L5.00994 67.91L82.4199 103.71C96.9999 109.17 96.9999 95.75 96.9999 92.77L2.99994 52Z" fill="url(#paint0_linear)"/>
<path d="M0.919983 15.78C0.919983 15.78 55.13 39.57 99.92 54.31C101.21 54.01 86.53 43.32 75.06 30C61.69 14.47 51.15 0.0700073 51.15 0.0700073C51.15 0.0700073 35.09 2.06 25 5.56C8.35999 11.34 0.919983 15.78 0.919983 15.78Z" fill="url(#paint1_linear)"/>
<path d="M99.92 54.31C55.13 39.56 0.919976 15.78 0.919976 15.78C-1.46002 28.85 2.95998 58.89 2.95998 58.89C2.95998 58.89 57.33 82.54 63.92 85.77C70.51 89 90.07 99.25 96.84 99C98.26 93.76 96.32 81.62 96.51 74.77C96.78 65.03 99.92 54.31 99.92 54.31Z" fill="url(#paint2_linear)"/>
<path d="M1.71997 16.21C16.84 7.35 33.96 2.61999 51.23 0.199993C51.48 0.159993 50.71 -0.0100037 50.56 -3.6773e-06C33.78 1.61 15.44 6.29999 0.929967 15.79C0.899967 15.81 -0.440033 22.68 0.159967 35.7C0.519967 43.53 1.10997 51.66 3.01997 59.28C3.04997 59.39 3.43997 59.39 3.42997 59.28C1.71997 46.04 0.099968 30.28 1.71997 16.21Z" fill="#FFAD0A"/>
<path d="M87.0099 49.88C88.6299 50 92.9999 51.75 94.3699 50.63C95.3699 49.88 94 48.76 93.5 47.88C94.62 49.13 97.72 51.6 99.96 53.73C99.38 55.6 98.71 62.12 97.31 66.03C97.31 63.41 97.9899 58.75 96.6199 56.38C95.3599 53.88 89.4999 50.63 87.0099 49.88Z" fill="#FFFFC9"/>
<path d="M82.3399 78.28C83.4999 77.08 85.94 77.56 87.8 79.34C89.66 81.13 90.23 83.54 89.07 84.74C87.91 85.93 85.4699 85.46 83.6099 83.68C81.7499 81.89 81.1899 79.48 82.3399 78.28Z" fill="#FFCA43"/>
<path d="M81.8 79.18C81.37 81.32 82.1899 82.99 83.7299 84.46C85.1599 85.83 87.81 86.07 89.24 84.64C89.29 84.59 89.23 84.48 89.16 84.51C85.72 86.04 81.58 82.75 81.89 79.18C81.89 79.14 81.81 79.13 81.8 79.18Z" fill="#FFFFC9"/>
<path d="M59.64 56.18C61.81 53.58 66.78 54.26 70.73 57.68C74.69 61.11 76.13 65.98 73.96 68.58C71.79 71.16 66.82 70.5 62.88 67.07C58.92 63.64 57.48 58.77 59.64 56.18Z" fill="#FFBA3D"/>
<path d="M58.68 58.08C58.08 62.5 59.9499 65.84 63.1999 68.66C66.2499 71.3 71.5899 71.45 74.2699 68.36C74.3699 68.25 74.2399 68.04 74.0999 68.11C67.3899 71.67 58.6799 65.43 58.8499 58.09C58.8599 57.99 58.69 57.98 58.68 58.08Z" fill="#FFF286"/>
<path d="M14.67 38C15.56 37.07 17.45 37.44 18.88 38.82C20.32 40.2 20.75 42.06 19.86 42.98C18.97 43.9 17.08 43.54 15.65 42.16C14.22 40.78 13.79 38.92 14.67 38Z" fill="#FFAD0A"/>
<path d="M14.26 38.69C13.93 40.33 14.56 41.63 15.75 42.76C16.85 43.82 18.9 44 20 42.9C20.04 42.86 19.99 42.78 19.94 42.8C17.29 43.98 14.1 41.44 14.34 38.69C14.33 38.66 14.27 38.65 14.26 38.69Z" fill="#FFF286"/>
<path d="M47.25 40C48.2 39.01 50.22 39.4 51.75 40.87C53.29 42.34 53.76 44.33 52.8 45.32C51.85 46.3 49.83 45.92 48.3 44.44C46.77 42.97 46.3 40.98 47.25 40Z" fill="#FFAD0A"/>
<path d="M46.81 40.74C46.45 42.5 47.14 43.88 48.4 45.1C49.58 46.23 51.77 46.42 52.94 45.25C52.98 45.21 52.93 45.12 52.88 45.15C50.04 46.41 46.63 43.69 46.89 40.76C46.89 40.71 46.82 40.7 46.81 40.74Z" fill="#FFFFA6"/>
<path d="M27.35 27.7C29.19 25.8 32.56 26.07 34.88 28.3C37.21 30.53 37.61 33.88 35.77 35.78C33.94 37.68 30.56 37.41 28.24 35.18C25.92 32.94 25.52 29.6 27.35 27.7Z" fill="#FFAD0A"/>
<path d="M26.31 29.62C25.77 32.08 26.81 34.02 28.74 35.71C30.55 37.29 33.88 37.56 35.68 35.92C35.74 35.86 35.67 35.74 35.58 35.78C31.24 37.55 26.03 33.75 26.42 29.63C26.43 29.58 26.32 29.57 26.31 29.62Z" fill="#FFFFA6"/>
<path d="M36.57 55.61C38.78 53.33 42.91 53.73 45.8 56.51C48.7 59.29 49.26 63.39 47.06 65.67C44.86 67.95 40.72 67.55 37.83 64.77C34.93 61.99 34.37 57.89 36.57 55.61Z" fill="#FFBA3D"/>
<path d="M35.37 57.55C34.67 60.76 36.01 63.28 38.49 65.48C40.81 67.54 45.09 67.89 47.4 65.76C47.48 65.68 47.39 65.53 47.27 65.57C41.7 67.87 35.01 62.92 35.51 57.57C35.52 57.49 35.39 57.47 35.37 57.55Z" fill="#FFF286"/>
<path d="M43.7099 22.33C43.7299 20.8 45.6799 19.6 48.0499 19.64C50.4199 19.68 52.3299 20.94 52.2999 22.47C52.2699 24 50.3299 25.2 47.9599 25.16C45.5799 25.12 43.6799 23.85 43.7099 22.33Z" fill="#FFB80A"/>
<path d="M50.32 24.72C51.18 24.34 52.09 23.7 52.37 22.73C52.61 21.92 52.08 21.13 51.53 20.64C50.72 19.92 49.67 19.65 48.62 19.6C47.4 19.54 46.11 19.73 45.46 20.22C46.67 20.01 48.96 19.87 50.42 21.17C52.36 22.89 50.32 24.72 50.32 24.72Z" fill="#FF8F0A"/>
<path d="M60.9999 31.78C61.0299 30.05 63.2299 28.68 65.9199 28.73C68.6099 28.77 70.7699 30.21 70.7399 31.94C70.7099 33.67 68.5099 35.04 65.8199 34.99C63.1299 34.94 60.9699 33.5 60.9999 31.78Z" fill="#FFC23D"/>
<path d="M68.5 34.49C69.48 34.06 70.5 33.33 70.82 32.24C71.09 31.33 70.5 30.43 69.86 29.87C68.94 29.05 67.75 28.75 66.56 28.69C65.18 28.62 63.71 28.83 62.98 29.4C64.35 29.16 66.94 29 68.61 30.48C70.81 32.41 68.5 34.49 68.5 34.49Z" fill="#FFA826"/>
<path d="M14.92 15.75C14.94 14.47 16.56 13.47 18.55 13.5C20.53 13.53 22.12 14.59 22.1 15.86C22.08 17.14 20.45 18.14 18.47 18.11C16.49 18.09 14.9 17.03 14.92 15.75Z" fill="#FFB80A"/>
<path d="M20.4499 17.75C21.1699 17.43 21.9299 16.89 22.1599 16.09C22.3599 15.42 21.9199 14.76 21.4499 14.34C20.7699 13.74 19.8899 13.51 19.0199 13.47C17.9999 13.42 16.9199 13.57 16.3799 13.99C17.3899 13.82 19.2999 13.7 20.5299 14.78C22.1499 16.22 20.4499 17.75 20.4499 17.75Z" fill="#FF8F0A"/>
<defs>
<linearGradient id="paint0_linear" x1="45.4721" y1="85.8093" x2="51.3846" y2="71.1752" gradientUnits="userSpaceOnUse">
<stop stop-color="white"/>
<stop offset="0.1586" stop-color="#F6F6F7"/>
<stop offset="0.4172" stop-color="#DEDFE1"/>
<stop offset="0.7416" stop-color="#B6B8BE"/>
<stop offset="1" stop-color="#92959E"/>
</linearGradient>
<linearGradient id="paint1_linear" x1="65.6264" y1="66.0534" x2="34.173" y2="1.58835" gradientUnits="userSpaceOnUse">
<stop offset="0.2747" stop-color="#FFF073"/>
<stop offset="0.4872" stop-color="#FFEC6F"/>
<stop offset="0.698" stop-color="#FFE163"/>
<stop offset="0.9075" stop-color="#FFCE4F"/>
<stop offset="1" stop-color="#FFC344"/>
</linearGradient>
<linearGradient id="paint2_linear" x1="100.395" y1="62.1408" x2="-2.59183" y2="52.6984" gradientUnits="userSpaceOnUse">
<stop stop-color="#FFF76E"/>
<stop offset="0.1851" stop-color="#FFE35C"/>
<stop offset="0.4041" stop-color="#FFD34F"/>
<stop offset="0.6539" stop-color="#FFCA47"/>
<stop offset="1" stop-color="#FFC744"/>
</linearGradient>
</defs>
</svg>
