<svg width="60" height="41" viewBox="0 0 60 41" fill="none" xmlns="http://www.w3.org/2000/svg">
<path d="M44.82 22.2C42.25 23.37 38.7 24.91 36.65 25.19C34.6 25.47 34.16 26.7 33.39 26.8C32.62 26.9 32.14 26.28 30.12 24.26C28.1 22.24 25.97 18.69 23.47 17.43C20.96 16.18 17.83 14.92 16.22 14.47C14.62 14.02 13.92 13.91 11.48 13.11C8.09996 12.13 2.76996 15.13 0.939959 16.32C0.939959 16.32 0.0899598 17.17 0.72996 18.93C1.36996 20.7 2.01996 24.13 2.97996 27.5C3.93996 30.88 3.61996 31.25 3.67996 32.38C3.72996 33.51 4.21995 34.42 4.80995 34.58C5.39995 34.74 21.42 38.44 27.47 39.83C33.31 41.28 33.47 41.28 35.56 40.37C37.65 39.46 41.13 37.85 43.86 37.05C46.59 36.25 49.49 34.85 51.84 34.37C54.2 33.89 54.95 33.46 55 32.23C55.05 31 55.96 28.59 56.77 25.1C57.57 21.62 57.31 19.1 58 18.78C58 18.78 57.23 19.08 54.19 19.36C51.17 19.64 47.39 21.04 44.82 22.2Z" fill="url(#paint0_radial)"/>
<path d="M59.46 17.11C59.57 16.52 58.82 16.41 58.44 13.84C58.07 11.27 55.71 8.26998 49.55 5.42998C43.39 2.58998 40.5 1.19999 37.07 1.03999C33.64 0.879986 31.6 0.969986 26.3 2.96999C23.03 4.19999 18 6.39998 16.44 7.30998C14.89 8.21998 10.67 8.81999 8.57998 9.62999C6.48998 10.43 5.29998 11.28 3.25998 12.72C1.21998 14.17 0.309979 15.67 0.579979 15.88C0.849979 16.09 0.949974 16.32 0.949974 16.32C2.77997 15.13 8.10997 12.14 11.49 13.11C13.93 13.91 14.62 14.02 16.23 14.47C17.83 14.92 20.97 16.18 23.48 17.43C25.99 18.68 28.11 22.24 30.13 24.26C32.15 26.28 32.64 26.91 33.4 26.8C34.17 26.7 34.6 25.47 36.66 25.19C38.71 24.91 42.26 23.37 44.83 22.2C47.4 21.03 51.18 19.63 54.21 19.35C57.24 19.07 58.02 18.77 58.02 18.77C58.71 18.45 59.35 17.7 59.46 17.11Z" fill="url(#paint1_linear)"/>
<g opacity="0.8">
<path opacity="0.8" d="M58.4399 13.84C58.0699 11.27 55.7099 8.26998 49.5499 5.42999C47.0199 4.26999 45.0499 3.34999 43.3599 2.64999C49.9699 5.76999 56.1199 10.49 56.1199 12.77C56.1199 15.71 47.3499 16.4 43.4299 19.06C39.5099 21.72 33.5799 20.75 32.1799 17.95C30.7799 15.15 28.3999 16.69 25.0399 15.01C21.6799 13.33 22.3799 12.21 18.3199 11.51C14.2599 10.81 11.1799 10.67 11.1799 9.96999C11.1799 9.26999 13.2799 8.84999 17.0599 8.00999C18.9399 7.58999 20.2999 6.27999 21.1899 5.05999C19.1399 5.94999 17.2899 6.81999 16.4499 7.30999C14.8999 8.21999 10.6799 8.82 8.58993 9.63C6.49993 10.43 5.30993 11.28 3.26993 12.72C1.22993 14.17 0.319928 15.67 0.589928 15.88C0.859928 16.09 0.959931 16.32 0.959931 16.32C2.78993 15.13 8.11993 12.14 11.4999 13.11C13.9399 13.91 14.6299 14.02 16.2399 14.47C17.8399 14.92 20.9799 16.18 23.4899 17.43C25.9999 18.68 28.1199 22.24 30.1399 24.26C32.1599 26.28 32.6499 26.91 33.4099 26.8C34.1799 26.7 34.6099 25.47 36.6699 25.19C38.7199 24.91 42.2699 23.37 44.8399 22.2C47.4099 21.03 51.1899 19.63 54.2199 19.35C57.2499 19.07 58.0299 18.77 58.0299 18.77C58.7299 18.45 59.3699 17.7 59.4799 17.11C59.5599 16.52 58.8099 16.42 58.4399 13.84Z" fill="url(#paint2_linear)"/>
</g>
<path d="M44.49 21.04C42.95 21.74 40.0099 23.23 38.4699 23.42C36.9299 23.61 35.0499 24.61 33.5499 25.61C33.1699 25.61 32.0499 24.23 31.5499 23.57C31.0499 22.92 31.1299 22.03 29.4399 19.92C28.4699 18.71 26.3299 17.84 24.2099 16.85C22.0999 15.85 20.0599 14.24 16.1399 12.81C12.2199 11.39 8.25995 11.66 5.14995 12.77C3.16995 13.48 1.55995 14.63 0.649949 15.36C0.519949 15.62 0.489947 15.81 0.569947 15.87C0.839947 16.08 0.93995 16.31 0.93995 16.31C2.76995 15.12 8.09995 12.13 11.48 13.1C13.92 13.9 14.6099 14.01 16.2199 14.46C17.8199 14.91 20.9599 16.17 23.4699 17.42C25.9799 18.67 28.0999 22.23 30.1199 24.25C32.1399 26.27 32.6299 26.9 33.3899 26.79C34.1599 26.69 34.5899 25.46 36.6499 25.18C38.6999 24.9 42.25 23.36 44.82 22.19C47.39 21.02 51.1699 19.62 54.1999 19.34C57.2299 19.06 58.0099 18.76 58.0099 18.76C58.7099 18.44 59.35 17.69 59.46 17.1C58.26 17.95 55.9999 18.11 52.9399 18.6C49.1599 19.22 46.03 20.34 44.49 21.04Z" fill="url(#paint3_linear)"/>
<path d="M33.5499 25.61C33.1699 25.61 32.0499 24.23 31.5499 23.57C31.0499 22.92 31.1299 22.03 29.4399 19.92C28.4699 18.71 26.3299 17.84 24.2099 16.85C22.0999 15.85 20.0599 14.24 16.1399 12.81C12.2199 11.39 8.25995 11.66 5.14995 12.77C3.16995 13.48 1.55995 14.63 0.649949 15.36C0.519949 15.62 0.489947 15.81 0.569947 15.87C0.839947 16.08 0.93995 16.31 0.93995 16.31C2.76995 15.12 8.09995 12.13 11.48 13.1C13.92 13.9 14.6099 14.01 16.2199 14.46C17.8199 14.91 20.9599 16.17 23.4699 17.42C25.9799 18.67 28.0999 22.23 30.1199 24.25C31.9899 26.12 32.5499 26.8 33.2299 26.8C33.4399 26.38 33.6099 25.92 33.7299 25.48C33.6699 25.53 33.6099 25.57 33.5499 25.61Z" fill="#F7C79F"/>
<path d="M4.23996 28.65C4.87996 28.61 5.30996 28.69 5.52996 28.52C5.73996 28.35 6.03996 28.01 6.63996 28.01C6.98996 28.01 7.83996 28.27 8.26996 28.27C8.69996 28.27 8.82996 28.53 9.25996 28.91C9.68996 29.3 10.33 29.25 10.5 29C10.67 28.74 12.43 29.81 13.16 30.33C13.89 30.84 15.6 31.66 15.52 31.1C15.43 30.54 13.72 29.77 13.08 29.52C12.44 29.26 11.79 28.62 11.28 27.72C10.77 26.82 9.56996 26.99 8.96996 26.35C8.36996 25.71 7.37996 25.62 7.03996 25.58C4.80996 25.03 3.23996 25.28 2.45996 25.5C2.62996 26.16 2.80996 26.84 2.99996 27.51C3.10996 27.89 3.19996 28.24 3.27996 28.55C3.55996 28.61 3.91996 28.67 4.23996 28.65Z" fill="url(#paint4_linear)"/>
<path d="M13.5899 35.41C13.0799 34.94 12.0999 33.87 11.6799 33.45C11.2599 33.03 9.52995 32.42 8.92995 32.1C8.31995 31.77 7.24994 31.17 7.01994 31.49C6.78994 31.82 7.20995 32.24 7.71995 32.42C8.22995 32.61 8.92994 32.89 9.58994 33.35C10.2399 33.82 10.6599 33.86 11.1299 34.84C11.3799 35.37 11.8299 35.91 12.1899 36.28C13.2299 36.52 14.3299 36.78 15.4499 37.03C14.9099 36.32 14.0099 35.79 13.5899 35.41Z" fill="url(#paint5_linear)"/>
<path d="M6.85995 18.88C6.85995 18.88 8.97995 19.31 11.53 21.22C14.08 23.12 15.12 23.95 14.9 24.42C14.68 24.9 15.46 25.37 15.94 26.24C16.42 27.11 15.03 26.67 14.51 25.98C13.99 25.29 14.03 24.47 13.21 23.69C12.39 22.91 11.96 22.87 9.96995 21.87C7.97995 20.88 6.98995 20.66 7.02995 20.05C7.07995 19.44 5.04995 18.18 6.85995 18.88Z" fill="url(#paint6_linear)"/>
<path d="M49.4399 29.16C48.2299 29.72 43.0899 31.63 41.4099 31.87C39.7299 32.1 38.9799 32.94 36.7399 32.99C34.4999 33.04 33.5699 33.55 32.7699 32.62C31.9799 31.69 29.1299 29.87 28.7099 29.49C28.2899 29.12 26.3299 27.44 25.3999 26.74C24.4699 26.04 23.3499 25.34 22.6899 24.5C22.0399 23.66 20.0799 22.63 19.2799 22.54C18.4899 22.45 17.4599 22.17 16.6699 21.7C15.8799 21.23 15.1299 21.33 15.6899 22.03C16.2499 22.73 17.8799 23.2 17.8799 23.2C18.7699 23.57 18.5299 23.99 18.3899 24.37C18.2499 24.74 19.1399 25.16 19.9299 25.4C20.7199 25.63 20.9999 26.24 21.5599 27.08C22.1199 27.92 23.0099 29.23 23.4699 29.32C23.9399 29.41 24.0299 30.11 24.2199 30.53C24.4099 30.95 24.3599 31.7 25.0099 32.12C25.6599 32.54 25.8999 32.87 25.9399 33.33C25.9899 33.8 26.7799 34.5 27.4299 34.96C28.0799 35.43 29.1099 35.99 27.9399 35.94C26.7699 35.89 26.9599 36.64 27.8899 36.64C28.8199 36.64 28.8699 36.69 29.8999 37.2C30.9299 37.71 32.6099 38.41 33.1699 38.41C33.7299 38.41 34.5199 37.85 35.8799 37.8C37.2299 37.75 39.5699 37.29 40.4999 37.01C41.4299 36.73 41.3399 36.5 40.8299 36.5C40.3199 36.5 39.0599 35.94 41.4399 35.66C43.8199 35.38 45.8699 34.49 46.9999 33.79C48.1199 33.09 49.4299 33.37 50.1699 32.44C50.9199 31.51 51.9399 30.11 53.2499 29.22C54.1299 28.62 55.24 28.28 56.07 27.81C56.26 27.11 56.46 26.34 56.66 25.51C56.03 25.81 55.01 26.31 53.57 27.12C50.93 28.6 50.6499 28.6 49.4399 29.16Z" fill="url(#paint7_linear)"/>
<path d="M29.24 32.27C29.24 32.27 29.89 32.92 30.96 33.76C32.03 34.6 32.4 35.44 33.1 35.3C33.8 35.16 35.43 34.97 36.87 34.65C38.31 34.33 39.85 34.14 41.48 33.53C43.11 32.92 45.72 32.13 46.61 31.85C47.5 31.57 45.77 32.5 43.77 33.43C41.77 34.36 41.58 34.41 40.28 34.46C38.98 34.51 38.28 34.92 37.11 35.44C35.95 35.95 34.92 36.23 33.76 36.33C32.59 36.42 32.59 36.38 31.8 35.58C31.01 34.79 28.44 31.9 29.24 32.27Z" fill="url(#paint8_radial)"/>
<path d="M22.5299 26.26C22.5299 26.26 23.3699 26.82 24.1599 27.52C24.9499 28.22 25.9299 28.96 26.5799 29.38C27.2299 29.8 26.1099 29.43 25.3199 29.01C24.5299 28.59 24.0199 27.99 23.6899 27.52C23.3599 27.05 22.2499 26.21 22.5299 26.26Z" fill="url(#paint9_radial)"/>
<path opacity="0.3" d="M33.43 31.26C33.69 29.49 33.98 27.67 34.21 26.33C33.92 26.57 33.68 26.76 33.4 26.8C32.63 26.9 32.15 26.28 30.13 24.26C28.11 22.24 25.98 18.69 23.48 17.43C20.97 16.18 17.84 14.92 16.23 14.47C14.63 14.02 13.93 13.91 11.49 13.11C8.10997 12.13 2.77997 15.13 0.949969 16.32C0.949969 16.32 0.0999696 17.17 0.73997 18.93C1.37997 20.7 2.02997 24.13 2.98997 27.5C3.94997 30.88 3.62997 31.25 3.68997 32.38C3.73997 33.51 4.22997 34.42 4.81997 34.58C5.40997 34.74 21.43 38.44 27.48 39.83C31.23 40.76 32.63 41.09 33.72 40.97C33.53 38.78 33.32 38.05 32.88 36.93C32.38 35.67 32.94 34.62 33.43 31.26Z" fill="url(#paint10_radial)"/>
<path d="M18.09 19.81C17.96 19.84 16.8 19.91 17.2 19.48C17.44 19.21 18.4 19.74 18.09 19.81C18.26 19.77 17.82 19.88 18.09 19.81Z" fill="url(#paint11_radial)"/>
<path d="M12.67 16.97C12.46 16.88 9.81999 16.92 10.91 16.4C11.24 16.24 11.7 16.28 12.04 16.36C12.43 16.44 13.08 17.14 12.67 16.97C12.88 17.06 12.35 16.84 12.67 16.97Z" fill="url(#paint12_radial)"/>
<path d="M14.26 17.74C13.43 18.06 13.03 17.28 12.24 17.31C12.31 17.35 12.33 17.41 12.3 17.51C12.2 17.67 11.15 17.42 11.16 17.25C11.19 16.79 12.84 17.07 13.05 17.33C12.86 16.79 14.38 17.7 14.26 17.74C14.37 17.7 13.86 17.9 14.26 17.74Z" fill="url(#paint13_radial)"/>
<path d="M14.6599 18.45C14.8599 18.61 14.8799 18.76 14.7099 18.89C14.5699 18.92 14.0099 18.38 14.3099 18.28C14.4499 18.27 14.5699 18.33 14.6599 18.45C14.5699 18.35 14.7399 18.54 14.6599 18.45Z" fill="url(#paint14_radial)"/>
<path d="M15.94 18.62C16.15 18.79 15.34 18.92 15.27 18.6C15.18 18.24 15.89 18.58 15.94 18.62C15.77 18.47 16.03 18.69 15.94 18.62Z" fill="url(#paint15_radial)"/>
<path d="M8.58994 16.69C8.38994 16.74 7.39994 17.12 7.31994 16.63C7.21994 16.04 8.88994 16.62 8.58994 16.69C8.71994 16.66 8.39994 16.73 8.58994 16.69Z" fill="url(#paint16_radial)"/>
<path d="M5.98996 17.63C6.02996 17.93 5.38996 17.58 5.38996 17.44C5.36996 17.03 5.95996 17.38 5.98996 17.63C5.95996 17.4 6.01996 17.79 5.98996 17.63Z" fill="url(#paint17_radial)"/>
<path d="M13.5099 22.03C13.3799 22.06 12.2199 22.13 12.6199 21.7C12.8499 21.43 13.8199 21.95 13.5099 22.03C13.6699 21.99 13.2399 22.09 13.5099 22.03Z" fill="url(#paint18_radial)"/>
<path d="M10.8599 14.61C11.0699 14.78 10.2599 14.91 10.1899 14.59C10.0999 14.24 10.8099 14.57 10.8599 14.61C10.6799 14.47 10.9499 14.69 10.8599 14.61Z" fill="url(#paint19_radial)"/>
<path d="M23.7699 33.04C23.6399 33.07 22.4799 33.14 22.8799 32.71C23.1099 32.44 24.0799 32.96 23.7699 33.04C23.9399 33 23.4999 33.1 23.7699 33.04Z" fill="url(#paint20_radial)"/>
<path d="M20.3099 28.51C20.0999 28.42 17.4599 28.46 18.5499 27.94C18.8799 27.78 19.3399 27.82 19.6799 27.9C20.0699 27.98 20.7199 28.68 20.3099 28.51C20.5199 28.6 19.9899 28.38 20.3099 28.51Z" fill="url(#paint21_radial)"/>
<path d="M19.94 30.97C19.11 31.29 18.71 30.5 17.92 30.54C17.99 30.58 18.01 30.64 17.98 30.74C17.88 30.9 16.83 30.65 16.84 30.48C16.87 30.02 18.52 30.3 18.73 30.56C18.54 30.01 20.06 30.92 19.94 30.97C20.05 30.92 19.54 31.12 19.94 30.97Z" fill="url(#paint22_radial)"/>
<path d="M29.0399 26.24C28.1399 26.25 28.06 25.37 27.3 25.13C27.35 25.19 27.3499 25.26 27.2799 25.34C27.1299 25.45 26.2399 24.85 26.3099 24.69C26.4999 24.27 27.95 25.11 28.05 25.43C28.08 24.86 29.1699 26.24 29.0399 26.24C29.1599 26.24 28.6199 26.25 29.0399 26.24Z" fill="url(#paint23_radial)"/>
<path d="M20.3399 31.68C20.5399 31.84 20.5599 31.99 20.3899 32.12C20.2499 32.15 19.6899 31.61 19.9899 31.51C20.1299 31.49 20.2499 31.55 20.3399 31.68C20.2499 31.58 20.4199 31.76 20.3399 31.68Z" fill="url(#paint24_radial)"/>
<path d="M21.62 31.84C21.83 32.01 21.02 32.14 20.95 31.82C20.86 31.47 21.57 31.8 21.62 31.84C21.45 31.7 21.71 31.92 21.62 31.84Z" fill="url(#paint25_radial)"/>
<path d="M14.2699 29.91C14.0699 29.96 13.0799 30.34 12.9999 29.85C12.8999 29.27 14.5699 29.84 14.2699 29.91C14.3999 29.88 14.0799 29.96 14.2699 29.91Z" fill="url(#paint26_radial)"/>
<path d="M11.67 30.85C11.71 31.15 11.07 30.8 11.07 30.66C11.05 30.25 11.64 30.61 11.67 30.85C11.64 30.63 11.69 31.01 11.67 30.85Z" fill="url(#paint27_radial)"/>
<path d="M19.1899 35.25C19.0699 35.28 17.8999 35.35 18.2999 34.92C18.5299 34.66 19.4999 35.18 19.1899 35.25C19.3499 35.21 18.9199 35.32 19.1899 35.25Z" fill="url(#paint28_radial)"/>
<path d="M16.5399 27.84C16.7499 28.01 15.9399 28.14 15.8699 27.82C15.7799 27.47 16.4899 27.8 16.5399 27.84C16.3599 27.7 16.6299 27.91 16.5399 27.84Z" fill="url(#paint29_radial)"/>
<path d="M51.6199 25.51C51.5499 25.61 50.7199 26.44 50.7299 25.85C50.7299 25.5 51.7999 25.25 51.6199 25.51C51.7199 25.37 51.4599 25.74 51.6199 25.51Z" fill="url(#paint30_radial)"/>
<path d="M45.67 26.96C45.46 27.03 43.5 28.81 43.98 27.69C44.13 27.36 44.49 27.08 44.8 26.91C45.14 26.72 46.09 26.82 45.67 26.96C45.89 26.88 45.35 27.07 45.67 26.96Z" fill="url(#paint31_radial)"/>
<path d="M47.38 26.49C46.97 27.29 46.15 26.95 45.58 27.51C45.66 27.49 45.72 27.53 45.76 27.62C45.79 27.8 44.84 28.31 44.73 28.17C44.45 27.8 45.87 26.92 46.2 26.98C45.7 26.69 47.44 26.37 47.38 26.49C47.43 26.38 47.18 26.86 47.38 26.49Z" fill="url(#paint32_radial)"/>
<path d="M48.14 26.76C48.4 26.75 48.51 26.85 48.47 27.06C48.38 27.18 47.6099 27.14 47.7599 26.87C47.8699 26.75 48 26.72 48.14 26.76C48.01 26.75 48.26 26.77 48.14 26.76Z" fill="url(#paint33_radial)"/>
<path d="M49.22 26.03C49.49 26.02 48.97 26.65 48.7 26.46C48.4 26.25 49.15 26.04 49.22 26.03C48.99 26.04 49.34 26.03 49.22 26.03Z" fill="url(#paint34_radial)"/>
<path d="M42.42 29.44C42.3 29.61 41.81 30.55 41.43 30.24C40.97 29.86 42.6 29.19 42.42 29.44C42.5 29.33 42.31 29.6 42.42 29.44Z" fill="url(#paint35_radial)"/>
<path d="M41.09 31.86C41.32 32.06 40.61 32.22 40.51 32.12C40.23 31.82 40.91 31.7 41.09 31.86C40.92 31.71 41.21 31.96 41.09 31.86Z" fill="url(#paint36_radial)"/>
<path d="M49.64 30.2C49.57 30.31 48.74 31.13 48.75 30.54C48.76 30.19 49.83 29.94 49.64 30.2C49.74 30.06 49.48 30.43 49.64 30.2Z" fill="url(#paint37_radial)"/>
<path d="M40.38 25.03C40.65 25.02 40.13 25.65 39.86 25.46C39.57 25.25 40.32 25.03 40.38 25.03C40.16 25.04 40.5 25.03 40.38 25.03Z" fill="url(#paint38_radial)"/>
<path opacity="0.6" d="M33.43 31.26C33.69 29.49 33.98 27.67 34.21 26.33C33.92 26.57 33.68 26.76 33.4 26.8C32.63 26.9 32.15 26.28 30.13 24.26C28.11 22.24 25.98 18.69 23.48 17.43C20.97 16.18 17.84 14.92 16.23 14.47C14.63 14.02 13.93 13.91 11.49 13.11C8.10995 12.13 2.77995 15.13 0.949953 16.32C0.949953 16.32 0.359957 16.91 0.539957 18.12C1.41996 17.75 2.61996 17.19 3.88996 16.41C6.40996 14.87 10.61 13.61 11.87 15.01C13.13 16.41 15.65 16.83 17.05 16.97C18.45 17.11 19.57 19.21 18.73 23.41C17.89 27.61 19.01 25.37 19.71 23.27C20.41 21.17 20.97 22.01 21.11 24.11C21.25 26.21 21.81 26.77 23.21 24.25C24.61 21.73 24.89 25.23 24.75 29.57C24.61 33.91 24.28 38.06 22.23 36.85C19.85 35.45 19.57 35.03 16.77 35.17C13.97 35.31 11.59 34.75 11.45 31.53C11.31 28.31 10.89 29.29 10.89 31.67C10.89 34.05 9.90996 33.21 8.92996 32.09C7.94996 30.97 5.98996 31.11 4.86996 31.95C3.85996 32.71 5.68996 30.4 2.90996 27.18C2.93996 27.28 2.96996 27.39 2.99996 27.49C3.95996 30.87 3.63995 31.24 3.69995 32.37C3.74995 33.5 4.23996 34.41 4.82996 34.57C5.41996 34.73 21.44 38.43 27.49 39.82C31.24 40.75 32.64 41.08 33.73 40.96C33.54 38.77 33.33 38.04 32.89 36.92C32.38 35.67 32.94 34.62 33.43 31.26Z" fill="url(#paint39_radial)"/>
<path opacity="0.6" d="M33.43 31.26C33.69 29.49 33.98 27.67 34.21 26.33C33.92 26.57 33.68 26.76 33.4 26.8C32.63 26.9 32.15 26.28 30.13 24.26C28.11 22.24 25.98 18.69 23.48 17.43C20.97 16.18 17.84 14.92 16.23 14.47C15.82 14.36 15.48 14.26 15.14 14.18C16.27 15.17 17.87 16.38 19.29 16.7C21.81 17.26 22.09 17.26 22.37 20.76C22.65 24.26 23.35 22.16 23.35 20.34C23.35 18.52 24.47 20.06 24.89 21.6C25.31 23.14 25.45 23.98 26.01 22.72C26.57 21.46 29.09 24.4 28.81 28.46C28.53 32.52 29.23 31.82 29.79 28.6C30.35 25.38 31.29 28.56 30.96 33.76C30.63 38.96 29.37 40.08 28.81 35.88C28.25 31.68 27.55 33.78 27.13 36.16C26.71 38.54 24.75 38.68 22.37 38.12C21.86 38 21.09 38.03 20.19 38.15C23.05 38.81 25.69 39.42 27.47 39.83C31.22 40.76 32.62 41.09 33.71 40.97C33.52 38.78 33.31 38.05 32.87 36.93C32.38 35.67 32.94 34.62 33.43 31.26Z" fill="url(#paint40_radial)"/>
<path opacity="0.3" d="M14.1 19.22C13.71 17.12 14.01 15.24 14.36 13.98C13.63 13.79 12.82 13.56 11.48 13.12C10.03 12.7 8.20997 13.02 6.46997 13.61C7.62997 14.07 8.61997 14.79 8.07997 15.87C6.95997 18.11 8.63997 21.05 9.05997 22.31C9.45997 23.51 8.83997 28.53 8.90997 35.55C10.56 35.93 12.57 36.4 14.68 36.89C14.86 34.79 15.08 32.17 15.22 30.29C15.5 26.64 14.8 23 14.1 19.22Z" fill="url(#paint41_radial)"/>
<g opacity="0.6">
<path opacity="0.6" d="M54.1999 19.36C51.1699 19.64 47.38 21.04 44.82 22.21C43.4 22.86 41.6699 23.62 40.0699 24.22C40.3599 24.53 40.5699 24.95 40.5699 25.53C40.5699 27.35 41.13 27.07 41.41 25.53C41.69 23.99 42.5299 26.09 42.6699 28.47C42.8099 30.85 43.2299 33.37 43.2299 33.37C43.2299 33.37 43.5099 28.75 43.6499 26.79C43.7899 24.83 43.7899 23.99 46.0299 22.73C48.2699 21.47 51.0699 20.63 52.0499 20.63C53.0299 20.63 53.3099 23.29 53.0299 24.13C52.7499 24.97 52.0499 30.57 52.6099 28.61C53.1699 26.65 53.4499 23.99 54.1499 22.87C54.8499 21.75 54.99 23.71 54.71 25.81C54.46 27.71 53.7499 29.94 54.3299 33.55C54.7899 33.23 54.9799 32.83 54.9999 32.23C55.0499 31 55.96 28.59 56.77 25.1C57.57 21.62 57.3099 19.1 57.9999 18.78C58.0099 18.77 57.2399 19.08 54.1999 19.36Z" fill="url(#paint42_radial)"/>
</g>
<g opacity="0.6">
<path opacity="0.6" d="M53.5899 32.38C52.3299 32.66 52.0499 33.92 52.1899 31.54C52.3299 29.16 51.9099 30.56 51.0699 32.1C50.2299 33.64 49.8099 33.36 48.2699 33.78C46.7299 34.2 45.3299 35.04 45.3299 34.06C45.3299 33.08 45.3299 31.68 44.9099 33.5C44.4899 35.32 43.0899 35.6 41.4599 35.65C39.8299 35.7 39.1699 36.3 39.3099 34.48C39.4499 32.66 39.0299 35.18 38.0499 36.3C37.0699 37.42 35.1099 38.12 35.1099 36.3C35.1099 34.48 35.1099 33.36 34.5499 35.6C33.9899 37.84 33.2899 34.9 33.7099 32.66C34.1299 30.42 33.4299 32.65 32.7499 35.04C32.2899 36.65 33.3599 37.49 33.4399 38.41C33.4999 39.16 33.7199 39.95 33.7099 40.96C34.3099 40.89 34.8099 40.68 35.5599 40.36C37.6499 39.45 41.1299 37.84 43.8599 37.04C46.5899 36.24 49.4899 34.84 51.8399 34.36C54.1999 33.88 54.9499 33.45 54.9999 32.22C55.0399 31.35 55.4999 29.9 56.0499 27.89C55.8699 28.07 55.6999 28.26 55.5399 28.45C54.5799 29.72 54.8499 32.1 53.5899 32.38Z" fill="url(#paint43_radial)"/>
</g>
<g opacity="0.6">
<path opacity="0.6" d="M38.63 26.05C38.72 25.63 38.76 25.15 38.76 24.67C37.97 24.92 37.25 25.11 36.65 25.19C36.55 25.2 36.45 25.22 36.36 25.24C36.39 26.01 36.36 26.87 36.19 27.67C35.77 29.67 34.68 36.09 35.52 40.38C35.53 40.37 35.54 40.37 35.55 40.36C36.32 40.03 37.27 39.6 38.3 39.15C38.19 37.59 38 34.87 37.92 33.59C37.82 31.74 38.28 27.67 38.63 26.05Z" fill="url(#paint44_radial)"/>
</g>
<path opacity="0.7" d="M44.75 4.59999C44.75 4.59999 39.85 1.65999 36.91 1.65999C33.97 1.65999 31.31 2.21999 27.39 3.47999C23.47 4.73999 22.63 5.01998 20.53 6.83998C18.43 8.65998 18.71 8.65999 17.03 9.07999C15.35 9.49999 16.75 10.62 19.69 9.77998C22.63 8.93998 23.26 8.76999 26.07 9.18999C28.87 9.60999 27.89 8.34998 30.83 6.80998C33.77 5.26998 39.91 4.98998 44.95 6.80998C49.98 8.62998 54.93 9.82999 44.75 4.59999Z" fill="url(#paint45_linear)"/>
<defs>
<radialGradient id="paint0_radial" cx="0" cy="0" r="1" gradientUnits="userSpaceOnUse" gradientTransform="translate(51.9145 23.1366) scale(45.8555)">
<stop offset="0.0637" stop-color="#EC857E"/>
<stop offset="0.3497" stop-color="#E76B69"/>
<stop offset="0.6666" stop-color="#DE5C5C"/>
<stop offset="0.9231" stop-color="#D0413D"/>
</radialGradient>
<linearGradient id="paint1_linear" x1="23.9041" y1="-3.95911" x2="39.4481" y2="47.8545" gradientUnits="userSpaceOnUse">
<stop stop-color="#F7C9A3"/>
<stop offset="0.1188" stop-color="#FBE2CA"/>
<stop offset="0.2164" stop-color="#FEF2E3"/>
<stop offset="0.2756" stop-color="#FFF8EC"/>
<stop offset="0.464" stop-color="#F7C9A3"/>
<stop offset="0.8446" stop-color="#F2E6E3"/>
<stop offset="1" stop-color="#D9B993"/>
</linearGradient>
<linearGradient id="paint2_linear" x1="19.0586" y1="-6.24281" x2="28.8627" y2="13.2645" gradientUnits="userSpaceOnUse">
<stop stop-color="#F7C9A3"/>
<stop offset="1" stop-color="#F4DBCC"/>
</linearGradient>
<linearGradient id="paint3_linear" x1="50.1194" y1="4.65668" x2="9.57116" y2="28.6736" gradientUnits="userSpaceOnUse">
<stop offset="0.2756" stop-color="#FFF8EC"/>
<stop offset="0.464" stop-color="#F7C9A3"/>
<stop offset="0.8446" stop-color="#F2E6E3"/>
<stop offset="1" stop-color="#D9B993"/>
</linearGradient>
<linearGradient id="paint4_linear" x1="2.44526" y1="28.2582" x2="15.5109" y2="28.2582" gradientUnits="userSpaceOnUse">
<stop stop-color="#F6CFAF"/>
<stop offset="0.2756" stop-color="#FFF8EC"/>
<stop offset="0.4649" stop-color="#F7C9A3"/>
<stop offset="1" stop-color="#F2E6E3"/>
</linearGradient>
<linearGradient id="paint5_linear" x1="6.94304" y1="34.2253" x2="15.4365" y2="34.2253" gradientUnits="userSpaceOnUse">
<stop stop-color="#F6CFAF"/>
<stop offset="0.2756" stop-color="#FFF8EC"/>
<stop offset="0.4649" stop-color="#F7C9A3"/>
<stop offset="1" stop-color="#F2E6E3"/>
</linearGradient>
<linearGradient id="paint6_linear" x1="6.10745" y1="22.6914" x2="16.0459" y2="22.6914" gradientUnits="userSpaceOnUse">
<stop stop-color="#F6CFAF"/>
<stop offset="0.2756" stop-color="#FFF8EC"/>
<stop offset="0.4649" stop-color="#F7C9A3"/>
<stop offset="1" stop-color="#F2E6E3"/>
</linearGradient>
<linearGradient id="paint7_linear" x1="15.4965" y1="29.9008" x2="56.683" y2="29.9008" gradientUnits="userSpaceOnUse">
<stop stop-color="#F6CFAF"/>
<stop offset="0.2756" stop-color="#FFF8EC"/>
<stop offset="0.4649" stop-color="#F7C9A3"/>
<stop offset="1" stop-color="#F2E6E3"/>
</linearGradient>
<radialGradient id="paint8_radial" cx="0" cy="0" r="1" gradientUnits="userSpaceOnUse" gradientTransform="translate(47.713 26.6384) scale(31.2721)">
<stop offset="0.0637" stop-color="#EC857E"/>
<stop offset="0.3497" stop-color="#E76B69"/>
<stop offset="0.6666" stop-color="#DE5C5C"/>
<stop offset="0.9231" stop-color="#D0413D"/>
</radialGradient>
<radialGradient id="paint9_radial" cx="0" cy="0" r="1" gradientUnits="userSpaceOnUse" gradientTransform="translate(47.7129 26.6374) scale(31.2739)">
<stop offset="0.0637" stop-color="#EC857E"/>
<stop offset="0.3497" stop-color="#E76B69"/>
<stop offset="0.6666" stop-color="#DE5C5C"/>
<stop offset="0.9231" stop-color="#D0413D"/>
</radialGradient>
<radialGradient id="paint10_radial" cx="0" cy="0" r="1" gradientUnits="userSpaceOnUse" gradientTransform="translate(35.5085 15.1013) scale(18.4106)">
<stop offset="0.0637" stop-color="#EC857E"/>
<stop offset="0.3497" stop-color="#E76B69"/>
<stop offset="0.6666" stop-color="#DE5C5C"/>
<stop offset="0.9231" stop-color="#D0413D"/>
</radialGradient>
<radialGradient id="paint11_radial" cx="0" cy="0" r="1" gradientUnits="userSpaceOnUse" gradientTransform="translate(19.2076 9.88217) rotate(-18.1433) scale(40.997 40.9972)">
<stop offset="0.0637" stop-color="#EC857E"/>
<stop offset="0.3497" stop-color="#E76B69"/>
<stop offset="0.6666" stop-color="#DE5C5C"/>
<stop offset="0.9231" stop-color="#D0413D"/>
</radialGradient>
<radialGradient id="paint12_radial" cx="0" cy="0" r="1" gradientUnits="userSpaceOnUse" gradientTransform="translate(19.2079 9.88552) rotate(-18.1434) scale(40.9853 40.9855)">
<stop offset="0.0637" stop-color="#EC857E"/>
<stop offset="0.3497" stop-color="#E76B69"/>
<stop offset="0.6666" stop-color="#DE5C5C"/>
<stop offset="0.9231" stop-color="#D0413D"/>
</radialGradient>
<radialGradient id="paint13_radial" cx="0" cy="0" r="1" gradientUnits="userSpaceOnUse" gradientTransform="translate(19.2072 9.88632) rotate(-18.1433) scale(40.9811 40.9813)">
<stop offset="0.0637" stop-color="#EC857E"/>
<stop offset="0.3497" stop-color="#E76B69"/>
<stop offset="0.6666" stop-color="#DE5C5C"/>
<stop offset="0.9231" stop-color="#D0413D"/>
</radialGradient>
<radialGradient id="paint14_radial" cx="0" cy="0" r="1" gradientUnits="userSpaceOnUse" gradientTransform="translate(19.2068 9.88385) rotate(-18.1432) scale(40.9883 40.9882)">
<stop offset="0.0637" stop-color="#EC857E"/>
<stop offset="0.3497" stop-color="#E76B69"/>
<stop offset="0.6666" stop-color="#DE5C5C"/>
<stop offset="0.9231" stop-color="#D0413D"/>
</radialGradient>
<radialGradient id="paint15_radial" cx="0" cy="0" r="1" gradientUnits="userSpaceOnUse" gradientTransform="translate(19.2055 9.88674) rotate(-18.143) scale(40.9755 40.9751)">
<stop offset="0.0637" stop-color="#EC857E"/>
<stop offset="0.3497" stop-color="#E76B69"/>
<stop offset="0.6666" stop-color="#DE5C5C"/>
<stop offset="0.9231" stop-color="#D0413D"/>
</radialGradient>
<radialGradient id="paint16_radial" cx="0" cy="0" r="1" gradientUnits="userSpaceOnUse" gradientTransform="translate(19.206 9.88724) rotate(-18.1433) scale(40.9783)">
<stop offset="0.0637" stop-color="#EC857E"/>
<stop offset="0.3497" stop-color="#E76B69"/>
<stop offset="0.6666" stop-color="#DE5C5C"/>
<stop offset="0.9231" stop-color="#D0413D"/>
</radialGradient>
<radialGradient id="paint17_radial" cx="0" cy="0" r="1" gradientUnits="userSpaceOnUse" gradientTransform="translate(19.1995 9.88955) rotate(-18.1433) scale(40.9605 40.9607)">
<stop offset="0.0637" stop-color="#EC857E"/>
<stop offset="0.3497" stop-color="#E76B69"/>
<stop offset="0.6666" stop-color="#DE5C5C"/>
<stop offset="0.9231" stop-color="#D0413D"/>
</radialGradient>
<radialGradient id="paint18_radial" cx="0" cy="0" r="1" gradientUnits="userSpaceOnUse" gradientTransform="translate(26.8414 20.3071) rotate(-18.1433) scale(40.9769 40.977)">
<stop offset="0.0637" stop-color="#EC857E"/>
<stop offset="0.3497" stop-color="#E76B69"/>
<stop offset="0.6666" stop-color="#DE5C5C"/>
<stop offset="0.9231" stop-color="#D0413D"/>
</radialGradient>
<radialGradient id="paint19_radial" cx="0" cy="0" r="1" gradientUnits="userSpaceOnUse" gradientTransform="translate(26.3491 14.0844) rotate(-18.1433) scale(41.0006 41.0008)">
<stop offset="0.0637" stop-color="#EC857E"/>
<stop offset="0.3497" stop-color="#E76B69"/>
<stop offset="0.6666" stop-color="#DE5C5C"/>
<stop offset="0.9231" stop-color="#D0413D"/>
</radialGradient>
<radialGradient id="paint20_radial" cx="0" cy="0" r="1" gradientUnits="userSpaceOnUse" gradientTransform="translate(24.8856 23.1084) rotate(-18.1429) scale(40.9906 40.99)">
<stop offset="0.0637" stop-color="#EC857E"/>
<stop offset="0.3497" stop-color="#E76B69"/>
<stop offset="0.6666" stop-color="#DE5C5C"/>
<stop offset="0.9231" stop-color="#D0413D"/>
</radialGradient>
<radialGradient id="paint21_radial" cx="0" cy="0" r="1" gradientUnits="userSpaceOnUse" gradientTransform="translate(26.8477 21.43) rotate(-18.1432) scale(40.982)">
<stop offset="0.0637" stop-color="#EC857E"/>
<stop offset="0.3497" stop-color="#E76B69"/>
<stop offset="0.6666" stop-color="#DE5C5C"/>
<stop offset="0.9231" stop-color="#D0413D"/>
</radialGradient>
<radialGradient id="paint22_radial" cx="0" cy="0" r="1" gradientUnits="userSpaceOnUse" gradientTransform="translate(24.8869 23.1108) rotate(-18.1433) scale(40.9806 40.9807)">
<stop offset="0.0637" stop-color="#EC857E"/>
<stop offset="0.3497" stop-color="#E76B69"/>
<stop offset="0.6666" stop-color="#DE5C5C"/>
<stop offset="0.9231" stop-color="#D0413D"/>
</radialGradient>
<radialGradient id="paint23_radial" cx="0" cy="0" r="1" gradientUnits="userSpaceOnUse" gradientTransform="translate(36.4489 20.6453) rotate(2.5677) scale(40.9797)">
<stop offset="0.0637" stop-color="#EC857E"/>
<stop offset="0.3497" stop-color="#E76B69"/>
<stop offset="0.6666" stop-color="#DE5C5C"/>
<stop offset="0.9231" stop-color="#D0413D"/>
</radialGradient>
<radialGradient id="paint24_radial" cx="0" cy="0" r="1" gradientUnits="userSpaceOnUse" gradientTransform="translate(24.8878 23.1082) rotate(-18.1433) scale(40.9912)">
<stop offset="0.0637" stop-color="#EC857E"/>
<stop offset="0.3497" stop-color="#E76B69"/>
<stop offset="0.6666" stop-color="#DE5C5C"/>
<stop offset="0.9231" stop-color="#D0413D"/>
</radialGradient>
<radialGradient id="paint25_radial" cx="0" cy="0" r="1" gradientUnits="userSpaceOnUse" gradientTransform="translate(24.8877 23.1065) rotate(-18.143) scale(40.9985 40.9981)">
<stop offset="0.0637" stop-color="#EC857E"/>
<stop offset="0.3497" stop-color="#E76B69"/>
<stop offset="0.6666" stop-color="#DE5C5C"/>
<stop offset="0.9231" stop-color="#D0413D"/>
</radialGradient>
<radialGradient id="paint26_radial" cx="0" cy="0" r="1" gradientUnits="userSpaceOnUse" gradientTransform="translate(24.883 23.1087) rotate(-18.1433) scale(40.9748)">
<stop offset="0.0637" stop-color="#EC857E"/>
<stop offset="0.3497" stop-color="#E76B69"/>
<stop offset="0.6666" stop-color="#DE5C5C"/>
<stop offset="0.9231" stop-color="#D0413D"/>
</radialGradient>
<radialGradient id="paint27_radial" cx="0" cy="0" r="1" gradientUnits="userSpaceOnUse" gradientTransform="translate(24.8804 23.114) rotate(-18.1433) scale(40.9623 40.9625)">
<stop offset="0.0637" stop-color="#EC857E"/>
<stop offset="0.3497" stop-color="#E76B69"/>
<stop offset="0.6666" stop-color="#DE5C5C"/>
<stop offset="0.9231" stop-color="#D0413D"/>
</radialGradient>
<radialGradient id="paint28_radial" cx="0" cy="0" r="1" gradientUnits="userSpaceOnUse" gradientTransform="translate(32.5239 33.532) rotate(-18.1433) scale(40.985 40.9852)">
<stop offset="0.0637" stop-color="#EC857E"/>
<stop offset="0.3497" stop-color="#E76B69"/>
<stop offset="0.6666" stop-color="#DE5C5C"/>
<stop offset="0.9231" stop-color="#D0413D"/>
</radialGradient>
<radialGradient id="paint29_radial" cx="0" cy="0" r="1" gradientUnits="userSpaceOnUse" gradientTransform="translate(32.0341 27.305) rotate(-18.1432) scale(41.0127)">
<stop offset="0.0637" stop-color="#EC857E"/>
<stop offset="0.3497" stop-color="#E76B69"/>
<stop offset="0.6666" stop-color="#DE5C5C"/>
<stop offset="0.9231" stop-color="#D0413D"/>
</radialGradient>
<radialGradient id="paint30_radial" cx="0" cy="0" r="1" gradientUnits="userSpaceOnUse" gradientTransform="translate(45.8999 17.3187) rotate(-59.4758) scale(40.9986 40.9983)">
<stop offset="0.0637" stop-color="#EC857E"/>
<stop offset="0.3497" stop-color="#E76B69"/>
<stop offset="0.6666" stop-color="#DE5C5C"/>
<stop offset="0.9231" stop-color="#D0413D"/>
</radialGradient>
<radialGradient id="paint31_radial" cx="0" cy="0" r="1" gradientUnits="userSpaceOnUse" gradientTransform="translate(45.9026 17.3205) rotate(-59.4754) scale(40.9836)">
<stop offset="0.0637" stop-color="#EC857E"/>
<stop offset="0.3497" stop-color="#E76B69"/>
<stop offset="0.6666" stop-color="#DE5C5C"/>
<stop offset="0.9231" stop-color="#D0413D"/>
</radialGradient>
<radialGradient id="paint32_radial" cx="0" cy="0" r="1" gradientUnits="userSpaceOnUse" gradientTransform="translate(45.9048 17.3191) rotate(-59.4753) scale(40.9891 40.9893)">
<stop offset="0.0637" stop-color="#EC857E"/>
<stop offset="0.3497" stop-color="#E76B69"/>
<stop offset="0.6666" stop-color="#DE5C5C"/>
<stop offset="0.9231" stop-color="#D0413D"/>
</radialGradient>
<radialGradient id="paint33_radial" cx="0" cy="0" r="1" gradientUnits="userSpaceOnUse" gradientTransform="translate(45.8993 17.323) rotate(-59.4754) scale(40.9763)">
<stop offset="0.0637" stop-color="#EC857E"/>
<stop offset="0.3497" stop-color="#E76B69"/>
<stop offset="0.6666" stop-color="#DE5C5C"/>
<stop offset="0.9231" stop-color="#D0413D"/>
</radialGradient>
<radialGradient id="paint34_radial" cx="0" cy="0" r="1" gradientUnits="userSpaceOnUse" gradientTransform="translate(45.9047 17.3227) rotate(-59.4758) scale(40.9721 40.9719)">
<stop offset="0.0637" stop-color="#EC857E"/>
<stop offset="0.3497" stop-color="#E76B69"/>
<stop offset="0.6666" stop-color="#DE5C5C"/>
<stop offset="0.9231" stop-color="#D0413D"/>
</radialGradient>
<radialGradient id="paint35_radial" cx="0" cy="0" r="1" gradientUnits="userSpaceOnUse" gradientTransform="translate(45.9082 17.3147) rotate(-59.4756) scale(41.0058)">
<stop offset="0.0637" stop-color="#EC857E"/>
<stop offset="0.3497" stop-color="#E76B69"/>
<stop offset="0.6666" stop-color="#DE5C5C"/>
<stop offset="0.9231" stop-color="#D0413D"/>
</radialGradient>
<radialGradient id="paint36_radial" cx="0" cy="0" r="1" gradientUnits="userSpaceOnUse" gradientTransform="translate(45.911 17.3127) rotate(-59.4754) scale(41.0102)">
<stop offset="0.0637" stop-color="#EC857E"/>
<stop offset="0.3497" stop-color="#E76B69"/>
<stop offset="0.6666" stop-color="#DE5C5C"/>
<stop offset="0.9231" stop-color="#D0413D"/>
</radialGradient>
<radialGradient id="paint37_radial" cx="0" cy="0" r="1" gradientUnits="userSpaceOnUse" gradientTransform="translate(58.5187 20.106) rotate(-59.4754) scale(40.9732)">
<stop offset="0.0637" stop-color="#EC857E"/>
<stop offset="0.3497" stop-color="#E76B69"/>
<stop offset="0.6666" stop-color="#DE5C5C"/>
<stop offset="0.9231" stop-color="#D0413D"/>
</radialGradient>
<radialGradient id="paint38_radial" cx="0" cy="0" r="1" gradientUnits="userSpaceOnUse" gradientTransform="translate(51.6617 14.4084) rotate(-59.476) scale(40.9837 40.9833)">
<stop offset="0.0637" stop-color="#EC857E"/>
<stop offset="0.3497" stop-color="#E76B69"/>
<stop offset="0.6666" stop-color="#DE5C5C"/>
<stop offset="0.9231" stop-color="#D0413D"/>
</radialGradient>
<radialGradient id="paint39_radial" cx="0" cy="0" r="1" gradientUnits="userSpaceOnUse" gradientTransform="translate(17.352 26.9554) scale(15.5094)">
<stop offset="0.0637" stop-color="#EC857E"/>
<stop offset="0.3497" stop-color="#E76B69"/>
<stop offset="0.6666" stop-color="#DE5C5C"/>
<stop offset="0.9231" stop-color="#D0413D"/>
</radialGradient>
<radialGradient id="paint40_radial" cx="0" cy="0" r="1" gradientUnits="userSpaceOnUse" gradientTransform="translate(17.352 26.9554) scale(15.5094)">
<stop offset="0.0637" stop-color="#EC857E"/>
<stop offset="0.3497" stop-color="#E76B69"/>
<stop offset="0.6666" stop-color="#DE5C5C"/>
<stop offset="0.9231" stop-color="#D0413D"/>
</radialGradient>
<radialGradient id="paint41_radial" cx="0" cy="0" r="1" gradientUnits="userSpaceOnUse" gradientTransform="translate(35.5081 15.1012) scale(18.4105)">
<stop offset="0.0637" stop-color="#EC857E"/>
<stop offset="0.3497" stop-color="#E76B69"/>
<stop offset="0.6666" stop-color="#DE5C5C"/>
<stop offset="0.9231" stop-color="#D0413D"/>
</radialGradient>
<radialGradient id="paint42_radial" cx="0" cy="0" r="1" gradientUnits="userSpaceOnUse" gradientTransform="translate(51.0857 25.5299) scale(47.5282)">
<stop offset="0.0637" stop-color="#EC857E"/>
<stop offset="0.3497" stop-color="#E76B69"/>
<stop offset="0.6666" stop-color="#DE5C5C"/>
<stop offset="0.9231" stop-color="#D0413D"/>
</radialGradient>
<radialGradient id="paint43_radial" cx="0" cy="0" r="1" gradientUnits="userSpaceOnUse" gradientTransform="translate(51.0857 25.5305) scale(47.5266)">
<stop offset="0.0637" stop-color="#EC857E"/>
<stop offset="0.3497" stop-color="#E76B69"/>
<stop offset="0.6666" stop-color="#DE5C5C"/>
<stop offset="0.9231" stop-color="#D0413D"/>
</radialGradient>
<radialGradient id="paint44_radial" cx="0" cy="0" r="1" gradientUnits="userSpaceOnUse" gradientTransform="translate(51.0868 25.53) scale(47.5302)">
<stop offset="0.0637" stop-color="#EC857E"/>
<stop offset="0.3497" stop-color="#E76B69"/>
<stop offset="0.6666" stop-color="#DE5C5C"/>
<stop offset="0.9231" stop-color="#D0413D"/>
</radialGradient>
<linearGradient id="paint45_linear" x1="18.2764" y1="-1.36831" x2="44.2251" y2="16.0799" gradientUnits="userSpaceOnUse">
<stop offset="0.2756" stop-color="#FFF8EC"/>
<stop offset="0.464" stop-color="#F7C9A3"/>
<stop offset="0.8446" stop-color="#F2E6E3"/>
<stop offset="1" stop-color="#D9B993"/>
</linearGradient>
</defs>
</svg>
