<svg width="71" height="33" viewBox="0 0 71 33" fill="none" xmlns="http://www.w3.org/2000/svg">
<path d="M68.97 16.85C69.29 15.82 68.71 15.5 67.88 15.44C67.05 15.38 66.53 14.22 65.76 13.64C64.99 13.06 64.09 12.74 63.32 12.1C62.55 11.46 61.52 10.88 60.37 10.18C59.22 9.46999 56.71 8.31999 55.3 7.60999C53.89 6.90999 51.97 6.90998 50.62 6.25998C49.27 5.61998 48.7 5.99999 44.53 4.71999C37.73 2.92999 25.1 2.21999 22.6 2.34999C20.1 2.47999 16.64 3.56999 15.55 4.20999C14.46 4.84999 12.02 4.46999 11 4.58999C10.47 4.65999 9.73998 4.87999 9.14998 5.06999C9.05998 5.84999 8.89998 6.74998 8.61998 7.27998C8.11998 8.22998 8.04998 8.51998 7.22998 9.34998C7.66998 9.26998 8.22998 9.20999 8.86998 9.20999C10.48 9.20999 11.75 8.71999 13.64 7.17999C15.53 5.63999 19.32 4.36999 21.36 4.36999C23.39 4.36999 27.53 4.22999 29.5 4.36999C31.46 4.50999 34.06 4.78999 35.88 5.27999C37.7 5.76999 41 6.32999 43.74 6.60999C46.48 6.88999 49.91 8.42999 50.62 9.62999C51.32 10.82 51.74 12.44 49.5 14.82C47.26 17.21 46.97 17.84 44.87 19.52C42.77 21.2 42.06 21.84 36.52 23.31C32.1 24.5 31.68 24.22 30.42 24.5C31.12 25.55 30.7 25.9 30.49 27.93C32.44 27.95 34.58 28.02 36.47 28.16C40.1 28.42 40.84 27.58 45.26 28.48C49.68 29.38 51.1 30.37 53.52 30.27C55.94 30.16 57.73 29.38 59.04 28.32C60.22 27.38 60.26 27.32 61.01 27.02C60.8 26.59 60.57 25.88 60.65 24.94C60.79 23.3 60.75 23.19 60.27 23.16C59.79 23.13 58.56 21.96 58.29 20.42C58.02 18.88 58.29 17.31 57.78 16.28C57.27 15.25 56.31 14.71 55.83 14.33C55.35 13.95 54.77 13.06 55.25 13.06C55.73 13.06 56.89 13.61 57.27 13.81C57.65 14.02 58.5 14.08 58.95 14.29C59.39 14.5 59.98 14.77 60.9 14.94C61.82 15.11 62.85 15.56 63.23 15.76C63.61 15.97 64.6 16.03 65.35 16.38C66.1 16.72 66.48 17.03 67.06 17.17C67.64 17.31 67.78 17.44 67.78 18.44C67.78 19.12 67.73 21.36 67.7 22.67C67.93 22.58 68.18 22.48 68.47 22.38C68.51 22.36 68.55 22.35 68.59 22.34C68.46 20.47 68.69 17.74 68.97 16.85Z" fill="url(#paint0_linear)"/>
<path d="M49.96 16.74C49.96 16.74 49.4799 17.81 47.4499 19.07C45.4199 20.33 44.3399 21.21 44.4199 22.17C44.4899 23.13 47.71 23.61 50.74 23.69C53.77 23.76 56.51 22.17 56.99 21.25C57.47 20.33 56.1499 17.73 55.6199 16.44C54.7999 14.49 52.25 14.01 49.96 16.74Z" fill="url(#paint1_radial)"/>
<path d="M70.24 14.08C69.45 12.66 62.47 6.40999 49.42 3.11999C41.21 1.64999 23.88 -2.11001 11.78 2.39999C11.78 2.39999 11.11 2.63999 10.31 2.97999C9.55997 3.29999 9.25997 3.23999 9.25997 3.60999C9.25997 3.77999 9.23997 4.37999 9.15997 5.06999C9.15997 5.07999 9.15997 5.07999 9.15997 5.08999C9.74997 4.88999 10.48 4.66999 11.01 4.60999C12.04 4.47999 14.47 4.86999 15.56 4.22999C16.65 3.58999 20.11 2.49999 22.61 2.36999C25.11 2.23999 37.74 2.94999 44.54 4.73999C48.71 6.01999 49.29 5.63998 50.63 6.27998C51.98 6.91998 53.9 6.91999 55.31 7.62999C56.72 8.33999 59.22 9.48999 60.38 10.2C61.53 10.91 62.56 11.48 63.33 12.12C64.1 12.76 65 13.08 65.77 13.66C66.54 14.24 67.05 15.39 67.89 15.46C68.72 15.52 69.3 15.84 68.98 16.87C68.7 17.76 68.47 20.49 68.58 22.37C69.67 21.97 70.35 21.63 70.25 20.36C70.15 19.04 70.25 18.15 70.67 17.04C71.08 15.92 71.03 15.5 70.24 14.08Z" fill="url(#paint2_linear)"/>
<path d="M18.9899 25.66C19.0299 24.63 18.1099 24.96 16.4199 24.67C14.7299 24.38 13.1199 23.61 12.9299 23.97C12.7499 24.34 14.1399 25.29 14.7999 25.77C15.4599 26.25 15.1999 26.5 14.9499 28.27C14.7999 29.32 15.0599 30.42 15.2899 31.14C16.6499 30.84 17.7699 30.46 18.6699 29.92C18.7699 29.86 18.8999 29.79 19.0499 29.72C19.0199 28.37 18.9699 26.33 18.9899 25.66Z" fill="url(#paint3_linear)"/>
<path d="M30.41 24.52C31.67 24.24 32.09 24.52 36.51 23.33C42.05 21.86 42.75 21.23 44.86 19.54C46.96 17.86 47.25 17.23 49.49 14.84C51.74 12.46 51.31 10.84 50.61 9.64998C49.91 8.45998 46.47 6.90998 43.73 6.62998C40.99 6.34998 37.7 5.78998 35.87 5.29998C34.05 4.80998 31.45 4.52998 29.49 4.38998C27.53 4.24998 23.39 4.38998 21.35 4.38998C19.32 4.38998 15.53 5.64998 13.63 7.19998C11.74 8.73998 10.47 9.22998 8.85995 9.22998C8.22995 9.22998 7.66996 9.29998 7.21996 9.36998C7.17996 9.40998 7.12995 9.45998 7.08995 9.50998C6.24995 10.35 5.45995 12.01 4.44995 13.54C4.56995 14.17 4.79995 14.92 5.20995 15.47C6.04995 16.59 7.59995 18.28 7.09995 19.33C6.60995 20.38 6.39995 21.43 7.44995 21.65C8.49995 21.86 9.75995 21.09 10.68 20.81C11.59 20.53 12.86 20.81 13.91 21.23C14.96 21.65 15.66 22.21 16.86 22.14C18.05 22.07 18.05 22.14 19.04 22.56C20.02 22.98 21.21 22.98 21.29 23.26C21.36 23.54 20.1 23.26 19.19 23.26C18.28 23.26 18 22.91 17.02 22.7C16.04 22.49 14.63 22.56 13.51 22.49C12.39 22.42 11.39 22.49 11.09 23.14C10.79 23.79 11.8 25.08 12.32 25.97C12.84 26.86 12.78 27.48 12.6 28.68C12.47 29.51 12.26 30.87 12.17 31.94C12.89 31.74 13.69 31.47 14.59 31.3C14.84 31.25 15.08 31.2 15.31 31.15C15.07 30.43 14.81 29.33 14.97 28.28C15.23 26.52 15.48 26.26 14.82 25.78C14.16 25.3 12.76 24.35 12.95 23.98C13.13 23.61 14.75 24.38 16.44 24.68C18.13 24.97 19.05 24.64 19.01 25.67C18.99 26.34 19.04 28.38 19.08 29.73C20.47 29.1 23.72 28.27 25.9 28.08C27.06 27.98 28.7 27.94 30.5 27.95C30.69 25.92 31.11 25.57 30.41 24.52Z" fill="url(#paint4_radial)"/>
<path d="M10.14 30.55C10.01 29.77 10.04 29.41 10.34 28.95C10.63 28.49 10.99 27.32 11.19 26.91C11.61 26.03 10.77 25.44 10.28 24.81C9.78999 24.18 8.73999 23.76 8.17999 23.27C7.61999 22.78 5.93999 22.85 5.36999 23.69C4.80999 24.53 4.52999 24.74 3.82999 25.44C3.12999 26.14 4.24999 27.33 4.17999 28.88C4.14999 29.56 4.29999 30.29 4.46999 30.88C4.98999 30.66 6.00999 31 6.89999 31.25C7.76999 31.49 9.15999 32 10.2 32.16C10.21 31.6 10.21 30.95 10.14 30.55Z" fill="url(#paint5_radial)"/>
<path opacity="0.3" d="M10.27 24.8C9.77998 24.17 8.72998 23.75 8.16998 23.26C7.60998 22.77 5.92998 22.84 5.35998 23.68C4.79998 24.52 4.51998 24.73 3.81998 25.43C3.11998 26.13 4.23998 27.32 4.16998 28.87C4.13998 29.55 4.28998 30.28 4.45998 30.87C4.97998 30.65 5.99998 30.99 6.88998 31.24C7.75998 31.48 9.14998 31.99 10.19 32.15C10.21 31.6 10.21 30.95 10.14 30.55C10.01 29.77 10.04 29.41 10.34 28.95C10.63 28.49 10.99 27.32 11.19 26.91C11.6 26.02 10.77 25.43 10.27 24.8ZM9.88998 26.5C8.67998 26.6 7.83998 26.24 6.51998 26.55C5.19998 26.87 4.30998 25.5 5.12998 25.21C5.94998 24.92 5.77998 24.45 5.77998 23.76C5.77998 23.08 6.93998 23.34 6.93998 23.34C8.09998 23.29 8.46998 24.39 9.46998 24.76C10.47 25.13 11.1 26.39 9.88998 26.5Z" fill="url(#paint6_radial)"/>
<path d="M12.31 25.96C11.79 25.07 10.77 23.78 11.08 23.13C11.39 22.48 12.38 22.41 13.5 22.48C14.62 22.55 16.03 22.48 17.01 22.69C17.99 22.9 18.27 23.25 19.18 23.25C20.09 23.25 21.35 23.53 21.28 23.25C21.21 22.97 20.02 22.97 19.03 22.55C18.05 22.13 18.05 22.06 16.85 22.13C15.66 22.2 14.96 21.64 13.9 21.22C12.85 20.8 11.58 20.52 10.67 20.8C9.75996 21.08 8.49997 21.85 7.43997 21.64C6.38997 21.43 6.59996 20.38 7.08996 19.32C7.57996 18.27 6.03996 16.58 5.19996 15.46C4.78996 14.91 4.55997 14.15 4.43997 13.53C4.30997 13.73 4.16996 13.93 4.02996 14.13C2.81996 15.81 2.60996 17.5 2.76996 18.81C2.92996 20.13 2.71996 22.65 1.76996 23.65C0.819961 24.65 0.509967 25.75 0.869967 26.44C1.23997 27.12 2.28997 29.39 2.75997 30.18C3.22997 30.97 3.85996 31.23 4.33996 30.92C4.36996 30.9 4.39997 30.88 4.43997 30.87C4.26997 30.27 4.11997 29.55 4.14997 28.87C4.21997 27.33 3.09997 26.13 3.79997 25.43C4.49997 24.73 4.77996 24.52 5.33996 23.68C5.89996 22.84 7.58997 22.77 8.14997 23.26C8.70997 23.75 9.75996 24.17 10.25 24.8C10.74 25.43 11.58 26.02 11.16 26.9C10.97 27.31 10.61 28.49 10.31 28.94C10.02 29.4 9.97996 29.76 10.11 30.54C10.18 30.94 10.18 31.59 10.16 32.14C10.26 32.15 10.35 32.17 10.44 32.18C10.93 32.23 11.49 32.1 12.12 31.93C12.21 30.86 12.43 29.5 12.55 28.67C12.77 27.47 12.83 26.85 12.31 25.96Z" fill="url(#paint7_linear)"/>
<path d="M65.82 22.29C66.03 21.87 65.93 21.24 65.98 20.24C66.03 19.24 65.56 19.71 64.98 19.13C64.4 18.55 63.4 18.08 62.14 17.5C60.88 16.92 59.09 15.82 58.83 16.03C58.57 16.24 59.41 16.5 60.15 17.14C60.89 17.77 61.25 18.09 61.89 18.51C62.52 18.93 63.26 19.14 64.1 19.61C64.94 20.08 65.1 20.08 64.94 21.4C64.84 22.28 64.47 23.62 64.24 24.42C64.6 24.08 64.97 23.86 65.67 23.56C65.69 23.55 65.7 23.55 65.72 23.54C65.71 23.01 65.73 22.48 65.82 22.29Z" fill="url(#paint8_linear)"/>
<path d="M67.0399 17.19C66.4599 17.05 66.08 16.75 65.33 16.4C64.58 16.06 63.59 15.99 63.21 15.78C62.83 15.57 61.81 15.13 60.88 14.96C59.96 14.79 59.3799 14.52 58.9299 14.31C58.4899 14.11 57.63 14.04 57.25 13.83C56.87 13.63 55.71 13.08 55.23 13.08C54.75 13.08 55.33 13.97 55.81 14.35C56.29 14.73 57.2499 15.27 57.7599 16.3C58.2699 17.33 58 18.9 58.27 20.44C58.54 21.98 59.77 23.14 60.25 23.18C60.73 23.21 60.76 23.32 60.63 24.96C60.55 25.91 60.78 26.61 60.99 27.04C61.08 27.01 61.17 26.97 61.28 26.92C62.33 26.5 62.8099 25.97 63.5399 25.13C63.7999 24.83 64.01 24.6 64.21 24.41C64.44 23.61 64.8 22.27 64.91 21.39C65.07 20.08 64.91 20.08 64.07 19.6C63.23 19.13 62.49 18.92 61.86 18.5C61.23 18.08 60.86 17.76 60.12 17.13C59.38 16.5 58.54 16.24 58.8 16.02C59.06 15.81 60.85 16.92 62.11 17.49C63.37 18.07 64.37 18.54 64.95 19.12C65.53 19.7 66 19.23 65.95 20.23C65.9 21.23 65.9999 21.86 65.7899 22.28C65.6999 22.47 65.6799 23 65.6799 23.52C66.4799 23.18 66.9799 22.94 67.6499 22.68C67.6799 21.36 67.73 19.13 67.73 18.45C67.76 17.46 67.6299 17.33 67.0399 17.19Z" fill="url(#paint9_radial)"/>
<path opacity="0.8" d="M70.24 14.08C69.45 12.66 62.4699 6.40999 49.4199 3.11999C41.2099 1.64999 23.8799 -2.11001 11.7799 2.39999C11.7799 2.39999 11.1099 2.63999 10.3099 2.97999C9.55994 3.29999 9.25995 3.23999 9.25995 3.60999C9.25995 3.63999 9.25995 3.66998 9.25995 3.70998C9.97995 3.46998 11.3699 3.02998 13.0899 2.54998C15.6199 1.84998 21.8599 0.0899852 26.5599 0.729985C28.2399 0.799985 30.0699 0.869985 31.3299 1.21999C32.5899 1.56999 34.4899 1.63998 35.9599 1.70998C37.4299 1.77998 38.3499 2.12999 39.8899 2.40999C41.4299 2.68999 46.0599 2.89999 49.0799 3.73999C52.0999 4.57999 57.5699 6.19999 60.7299 8.08999C63.8899 9.97999 69.3599 13.14 70.1999 15.74C69.7299 17.27 69.3299 19.69 69.5299 21.92C70.0399 21.61 70.3199 21.18 70.2499 20.34C70.1499 19.02 70.2499 18.13 70.6699 17.02C71.0799 15.92 71.03 15.5 70.24 14.08Z" fill="url(#paint10_linear)"/>
<path d="M16.94 30.65C16.94 30.65 16.54 30.69 16.67 29.44C16.8 28.19 17.03 26.89 17.03 26.49C17.03 26.09 17.61 27.47 17.66 28.01C17.7 28.55 17.7 30.11 17.53 30.43C17.35 30.74 16.94 30.65 16.94 30.65Z" fill="url(#paint11_radial)"/>
<path d="M62.24 24.97C62.24 24.97 62.77 23.23 61.92 22.29C61.08 21.34 60.82 21.13 60.55 20.24C60.29 19.35 59.5 18.45 59.55 17.98C59.6 17.51 60.29 19.14 60.97 19.61C61.65 20.08 62.55 20.98 62.71 21.82C62.88 22.66 62.82 24.45 62.24 24.97Z" fill="url(#paint12_linear)"/>
<path opacity="0.8" d="M55.6 30C55.89 29.93 56.17 29.85 56.43 29.76C56.39 28.7 56.28 27.64 56.03 26.62C55.6 27.68 56.09 28.92 55.6 30C55.61 30 55.61 29.99 55.6 30Z" fill="url(#paint13_linear)"/>
<path opacity="0.8" d="M64.68 21.2C64.69 21.19 64.78 21.07 64.78 21.1C64.8 21.42 64.9 21.67 65.04 21.96C65.15 22.18 65.22 22.37 65.36 22.01C65.53 21.57 65.65 21.1 65.75 20.63C65.89 19.94 66.05 19.28 66.29 18.62C66.04 18.85 65.76 19.07 65.45 19.28C64.6 19.85 64.62 20.99 63.78 21.76C64.12 21.79 64.44 21.62 64.68 21.2Z" fill="url(#paint14_linear)"/>
<path opacity="0.8" d="M57.61 25.62C57.62 25.62 57.62 25.62 57.62 25.63C57.65 25.8 57.68 25.97 57.71 26.14C57.88 25.43 58.29 24.91 59.3 24.89C59.3 24.89 59.3 24.89 59.31 24.89C59.42 25.12 59.59 25.38 59.62 25.64C59.78 25.51 59.89 25.34 59.95 25.14C59.97 25.09 59.99 25.04 60.01 24.99C60.05 24.88 60.1 24.78 60.15 24.67C60.37 24.18 60.66 23.77 61 23.36C61.1 23.24 61.19 23.13 61.29 23.01C60.76 23.35 60.49 23.65 59.51 23.98C57.93 24.51 58.46 24.77 57.14 25.4C56.93 25.5 56.73 25.6 56.53 25.69C56.89 25.67 57.25 25.62 57.61 25.62Z" fill="url(#paint15_linear)"/>
<path opacity="0.8" d="M69.81 21.08C69.44 21.37 68.73 21.8 68.42 21.15C68.26 20.8 68.28 20.4 68.28 20.03C68.28 19.84 68.29 19.66 68.27 19.47C68.22 19.02 68.06 19.57 68.03 19.76C67.92 20.55 67.97 21.31 67.45 21.97C67.45 21.98 67.39 22.05 67.38 22.02C67.28 21.48 67.28 20.93 67.28 20.39C67.28 20.07 67.28 19.75 67.25 19.43C67.24 19.3 67.23 19.18 67.21 19.05C67.05 19.1 66.9799 19.22 66.9799 19.39C66.8299 20.22 67.04 21.07 66.8 21.89C66.38 23.37 64.5 23.41 63.53 24.32C63.53 24.32 63.5 24.35 63.49 24.33C63.47 24 63.35 23.69 63.31 23.36C63.26 22.95 62.97 23.77 62.92 23.91C62.79 24.28 62.69 24.7 62.47 25.03C62.06 25.65 61.37 26.25 60.8 26.72C60.35 27.1 59.85 27.19 59.33 26.9C59.2 26.82 59.19 26.87 59.14 27.02C59.06 27.33 58.97 27.64 58.96 27.96C58.96 28.1 58.96 28.25 58.97 28.39C58.99 28.38 59.01 28.36 59.02 28.35C60.34 27.3 60.23 27.35 61.28 26.93C62.33 26.51 62.8099 25.98 63.5399 25.14C64.2799 24.3 64.54 24.03 65.64 23.56C66.74 23.09 67.2699 22.82 68.4299 22.4C69.4699 22.02 70.17 21.73 70.22 20.71C70.1 20.84 69.96 20.96 69.81 21.08Z" fill="url(#paint16_linear)"/>
<path opacity="0.8" d="M54.39 30.04C54.35 30.11 54.3 30.17 54.25 30.23C54.66 30.19 55.06 30.12 55.43 30.04C54.95 29.42 55.02 28.59 54.99 27.83C54.86 28.58 54.78 29.42 54.39 30.04Z" fill="url(#paint17_linear)"/>
<path d="M4.25997 22.08C4.25997 22.08 5.93997 20.34 5.93997 18.92C5.93997 17.5 4.88997 16.45 4.40997 16.13C3.93997 15.81 3.30997 15.76 3.03997 16.97C2.77997 18.18 3.40997 19.34 3.29997 20.44C3.20997 21.55 3.56997 22.82 4.25997 22.08Z" fill="url(#paint18_radial)"/>
<path d="M31.39 20.03C31.39 20.03 32.51 18.56 35.81 17.64C39.11 16.73 37.7 16.17 39.53 15.11C41.35 14.06 39.6 14.27 37.64 15.32C35.68 16.37 36.17 16.79 34.2 17.64C32.23 18.48 31.67 18.55 31.39 20.03Z" fill="url(#paint19_linear)"/>
<path d="M12.04 18.21C12.04 18.21 12.8 16.71 15.6 15.37C18.39 14.02 17.05 13.75 18.51 12.52C19.97 11.29 18.44 11.76 16.85 13.01C15.27 14.27 15.77 14.56 14.16 15.63C12.54 16.7 12.06 16.85 12.04 18.21Z" fill="url(#paint20_linear)"/>
<path d="M25.57 20.73C25.57 20.73 27.68 18.63 30.55 17.5C33.43 16.38 33.08 16.03 31.67 16.38C30.27 16.73 28.16 17.43 27.18 18.41C26.2 19.4 24.59 21.43 25.57 20.73Z" fill="url(#paint21_linear)"/>
<path d="M8.90998 16.63C8.90998 16.63 9.84998 14.62 11.58 13.11C13.31 11.59 12.97 11.44 12.08 12.04C11.19 12.64 9.88997 13.67 9.44997 14.6C9.00997 15.54 8.39998 17.37 8.90998 16.63Z" fill="url(#paint22_linear)"/>
<path d="M23.04 18.27C23.04 18.27 23.11 16.66 25.57 15.81C28.03 14.97 29.15 14.06 31.6 13.49C34.06 12.93 35.95 11.95 35.81 11.53C35.67 11.11 33.78 11.95 32.02 12.58C30.27 13.21 29.7 13.7 28.23 14.26C26.76 14.82 24.58 15.38 23.81 16.09C23.04 16.8 21.99 19.12 23.04 18.27Z" fill="url(#paint23_linear)"/>
<path d="M39.6 11.96C39.6 11.96 41.07 11.05 42.34 10.77C43.6 10.49 43.74 9.99998 42.62 10.07C41.5 10.14 40.52 10.42 39.81 10.98C39.11 11.54 37.71 13.01 39.6 11.96Z" fill="url(#paint24_linear)"/>
<path d="M19.54 14.2C19.54 14.2 21.58 12.87 22.35 11.81C23.12 10.75 25.79 9.63998 28.45 8.64998C31.12 7.66998 29.43 7.66998 26.42 8.71998C23.4 9.76998 22.63 10.4 21.23 11.6C19.82 12.8 17.64 15.47 19.54 14.2Z" fill="url(#paint25_linear)"/>
<path d="M23.6299 14.51C23.6299 14.51 19.1 16.32 18.11 17.89C17.12 19.45 16.55 21.02 15.8 20.69C15.06 20.36 16.21 18.88 17.36 17.64C18.53 16.41 25.0299 13.19 23.6299 14.51Z" fill="url(#paint26_linear)"/>
<g opacity="0.3">
<path opacity="0.3" d="M50.61 9.63999C49.91 8.44999 46.47 6.89999 43.73 6.61999C40.99 6.33999 37.7 5.77999 35.87 5.28999C34.05 4.79999 31.45 4.51999 29.49 4.37999C27.53 4.23999 23.39 4.37999 21.35 4.37999C19.32 4.37999 15.53 5.63999 13.63 7.18999C11.74 8.72999 10.47 9.21999 8.85998 9.21999C8.22998 9.21999 7.66998 9.28999 7.21998 9.35999C7.17998 9.39999 7.12997 9.44999 7.08997 9.49999C6.91997 9.66999 6.75997 9.86999 6.58997 10.09C7.62997 9.76999 8.71998 9.66999 8.71998 10.66C8.71998 12.55 9.66998 11.4 12.93 8.97999C16.19 6.55999 18.4 5.81999 16.82 7.81999C15.24 9.81999 16.61 8.65999 19.35 6.76999C22.09 4.87999 23.55 4.79999 23.55 5.97999C23.55 7.15999 24.97 6.56999 28.75 5.73999C32.53 4.90999 36.55 5.97999 33.18 7.98999C29.81 9.99999 30.7 10.12 34.42 8.45999C38.14 6.80999 40.15 6.74999 39.38 7.92999C38.61 9.10999 41.21 7.51999 44.35 7.68999C47.48 7.86999 49.41 10.06 47.51 11.68C45.62 13.29 46.67 12.94 46.88 14.35C47.09 15.75 46.18 18.21 43.09 18.84C40 19.47 39.44 19.89 38.46 21.09C37.48 22.28 34.18 21.51 33.2 22.7C32.22 23.89 29.15 24.43 28.64 22.91C28.36 22.07 25.57 23.04 23.18 24.23C20.79 25.42 18.24 24.17 20.34 23.82C22.44 23.47 22.6 23.12 22.25 22.42C21.9 21.72 20.78 21.44 19.02 21.44C17.26 21.44 18.53 21.09 18.81 20.04C19.09 18.99 18.11 20.46 16.99 21.23C15.87 22 15.24 22 14.53 20.67C13.83 19.34 13.48 19.06 12.85 19.76C12.22 20.46 11.17 19.69 9.54998 19.97C7.93998 20.25 7.93998 20.25 8.14998 19.13C8.35998 18.01 7.37998 17.09 6.04998 15.76C5.48998 15.2 4.92998 14.43 4.47998 13.71C4.60998 14.3 4.82998 14.98 5.20998 15.48C6.04998 16.6 7.59998 18.29 7.09998 19.34C6.60998 20.39 6.39997 21.44 7.44997 21.66C8.49997 21.87 9.75998 21.1 10.68 20.82C11.59 20.54 12.86 20.82 13.91 21.24C14.96 21.66 15.66 22.22 16.86 22.15C18.05 22.08 18.05 22.15 19.04 22.57C20.02 22.99 21.21 22.99 21.29 23.27C21.36 23.55 20.1 23.27 19.19 23.27C18.28 23.27 18 22.92 17.02 22.71C16.04 22.5 14.63 22.57 13.51 22.5C12.39 22.43 11.39 22.5 11.09 23.15C10.79 23.8 11.8 25.09 12.32 25.98C12.84 26.87 12.78 27.49 12.6 28.69C12.47 29.52 12.26 30.88 12.17 31.95C12.89 31.75 13.69 31.48 14.59 31.31C14.84 31.26 15.08 31.21 15.31 31.16C15.07 30.44 14.81 29.34 14.97 28.29C15.23 26.53 15.48 26.27 14.82 25.79C14.16 25.31 12.76 24.36 12.95 23.99C13.13 23.62 14.75 24.39 16.44 24.69C18.13 24.98 19.05 24.65 19.01 25.68C18.99 26.35 19.04 28.39 19.08 29.74C20.47 29.11 23.72 28.28 25.9 28.09C27.06 27.99 28.7 27.95 30.5 27.96C30.71 25.93 31.13 25.58 30.43 24.53C31.69 24.25 32.11 24.53 36.53 23.34C42.07 21.87 42.77 21.24 44.88 19.55C46.98 17.87 47.27 17.24 49.51 14.85C51.74 12.45 51.32 10.84 50.61 9.63999ZM13.72 25.99C13.06 26.18 13.03 25.98 12.71 25.62C12.43 25.32 12.19 24.99 11.93 24.67C11.62 24.29 11.43 23.93 11.5 23.43C11.51 23.39 11.61 23.27 11.63 23.28C11.69 23.19 11.78 23.12 11.91 23.11C12.42 23.05 12.34 24.03 12.56 24.24C12.96 24.63 14.52 25.75 13.72 25.99ZM18.8 24.25C18.28 24.7 16.88 24.23 16.27 24.12C15.58 24 13.7 23.74 13.07 23.41C12.09 22.9 13.4 22.88 14.89 22.97C15.85 23.03 16.8 22.86 17.7 23.28C18.01 23.43 19.24 23.86 18.8 24.25Z" fill="url(#paint27_radial)"/>
</g>
<path opacity="0.8" d="M68.03 16.82C67.19 17.66 66.56 18.56 65.45 19.29C64.35 20.03 64.71 21.71 62.77 22.34C60.82 22.97 61.09 23.45 59.51 23.97C57.93 24.5 58.46 24.76 57.14 25.39C55.82 26.02 54.61 26.65 53.3 26.6C51.98 26.55 49.83 25.97 48.3 25.6C46.77 25.23 45.41 25.13 43.67 24.86C41.93 24.6 41.3 24.39 39.57 24.65C37.83 24.91 37.47 25.07 35.57 25.07C33.68 25.07 29.15 24.28 26.47 24.28C23.15 24.28 20.52 25.86 19.63 25.49C18.73 25.12 17.51 25.84 16.56 25.95C15.61 26.06 14.56 26.34 12.84 26.58C11.12 26.83 9.36996 27.56 7.46996 27.42C5.95996 27.31 3.89996 26.63 3.33996 26.25C2.77996 25.86 2.43996 26.74 1.53996 26.55C1.17996 26.45 0.929958 26.26 0.769958 26.05C0.789958 26.19 0.839963 26.32 0.899963 26.44C1.26996 27.12 2.31996 29.39 2.78996 30.18C3.25996 30.97 3.88996 31.23 4.36996 30.92C4.83996 30.6 5.94996 30.97 6.89996 31.24C7.84996 31.5 9.42997 32.08 10.48 32.19C11.53 32.3 12.9 31.61 14.58 31.3C16.26 30.98 17.63 30.56 18.68 29.93C19.73 29.3 23.47 28.3 25.89 28.09C28.31 27.88 32.84 27.93 36.47 28.2C40.1 28.46 40.84 27.62 45.26 28.52C49.68 29.42 51.1 30.41 53.52 30.31C55.94 30.2 57.73 29.42 59.04 28.36C60.36 27.31 60.25 27.36 61.3 26.94C62.35 26.52 62.83 25.99 63.56 25.15C64.3 24.31 64.56 24.04 65.66 23.57C66.76 23.1 67.29 22.83 68.45 22.41C69.61 21.99 70.34 21.67 70.24 20.36C70.14 19.04 70.24 18.15 70.66 17.04C70.89 16.43 70.98 16.02 70.88 15.54C69.48 15.81 68.8 16.05 68.03 16.82Z" fill="url(#paint28_linear)"/>
<g opacity="0.5">
<path opacity="0.8" d="M8.12999 27.83C8.37999 28.35 8.49999 28.89 8.80999 29.38C8.86999 28.84 8.90999 28.28 9.08999 27.76C9.09999 27.74 9.20999 27.59 9.20999 27.62C9.23999 27.96 9.37 28.27 9.41 28.6C9.51 28.42 9.62999 28.24 9.71999 28.05C9.72999 28.04 9.82999 27.9 9.82999 27.93C9.94999 28.76 10.21 29.6 10.83 30.19C11.05 29.45 10.97 28.66 10.97 27.89C10.97 27.85 11.05 27.7 11.1 27.71C12.85 28.11 14.34 27.24 15.65 26.08C14.91 26.21 14.03 26.4 12.83 26.57C11.23 26.8 9.61 27.45 7.87 27.43C7.97 27.55 8.05999 27.68 8.12999 27.83Z" fill="url(#paint29_linear)"/>
<path opacity="0.8" d="M35.12 25.19C35.8 25.31 36.52 25.41 37.17 25.67C37.46 25.79 37.81 25.95 37.92 26.25C38.23 25.46 39.08 25.31 39.94 25.3C39.95 25.3 39.95 25.3 39.95 25.31C39.97 25.54 40.1 25.79 40.08 26.03C40.09 26.01 40.1 25.99 40.12 25.96C40.3 25.65 40.56 25.31 40.88 25.12C41.63 24.68 42.45 25.06 43.21 25.26C43.76 25.41 44.3 25.49 44.86 25.5C45.25 25.51 45.65 25.49 46.03 25.56C46.94 25.74 47.15 26.53 47.21 27.35C47.43 26.96 47.61 26.53 47.85 26.15C47.85 26.14 47.95 26.02 47.95 26.05C47.96 26.28 48.01 26.51 48.04 26.74C48.18 26.41 48.41 26.08 48.78 26.04C49.45 25.97 50.09 26.37 50.73 26.49C51.4 26.61 52.1 26.63 52.78 26.56C51.46 26.41 49.64 25.93 48.31 25.6C46.78 25.23 45.42 25.13 43.68 24.86C41.94 24.6 41.31 24.39 39.58 24.65C37.84 24.91 37.48 25.07 35.58 25.07C35.07 25.07 34.38 25.01 33.58 24.93C34.11 25.04 34.65 25.11 35.12 25.19Z" fill="url(#paint30_linear)"/>
<path opacity="0.8" d="M20.05 26.95C20.28 26.43 20.63 26.02 21.15 25.74C21.9 25.33 22.82 25.25 23.62 24.99C23.63 24.99 23.63 24.99 23.63 25C23.65 25.48 23.78 25.93 23.83 26.4C23.97 26.05 24.13 25.72 24.24 25.36C24.25 25.33 24.36 25.17 24.37 25.2C24.39 25.33 24.43 25.46 24.45 25.59C24.5 25.47 24.57 25.35 24.66 25.25C24.83 25.05 25.08 24.96 25.28 24.79C25.29 24.79 25.31 24.76 25.32 24.78C25.42 25.26 25.5 25.75 25.61 26.23C25.74 25.87 25.88 25.45 26.16 25.21C26.49 24.92 27.02 25.06 27.41 25.08C28.29 25.12 29.09 24.98 29.82 24.52C28.6 24.39 27.42 24.29 26.46 24.29C23.14 24.29 20.51 25.87 19.62 25.5C19.52 25.46 19.42 25.43 19.31 25.42C19.74 25.77 20 26.33 20.05 26.95Z" fill="url(#paint31_linear)"/>
</g>
<g opacity="0.7">
<path opacity="0.8" d="M53.5999 26.6C53.6499 27.02 53.6899 27.45 53.7099 27.87C53.7299 28.3 53.7999 28.91 53.5699 29.29C53.2499 29.82 52.4999 29.32 52.0399 29.27C50.8199 29.14 49.6599 28.74 48.4599 28.53C47.7599 28.41 46.9699 28.32 46.3199 27.99C45.3899 27.51 45.2499 26.32 45.1499 25.3C45.0899 26.03 44.9899 26.76 44.4799 27.33C44.3299 27.5 44.1399 27.61 43.9299 27.69C43.8399 27.73 43.5399 27.43 43.4799 27.39C42.7899 26.93 42.1499 27.34 41.4099 27.37C41.3999 27.37 41.3999 27.37 41.3999 27.36C41.4099 26.82 41.5399 26.26 41.4899 25.72C41.3899 24.74 40.7699 26.19 40.5999 26.55C40.3799 27.02 40.0599 27.5 39.5299 27.65C38.9699 27.81 38.0199 27.94 37.5199 27.53C37.3099 27.36 37.3499 27.23 36.9899 27.23C36.7599 27.23 36.5199 27.23 36.2899 27.25C35.8199 27.28 35.3599 27.31 34.8899 27.26C34.8899 27.25 34.8799 27.25 34.8899 27.24C34.9699 26.84 35.0299 26.44 35.1499 26.05C35.1599 26.01 35.1699 25.98 35.1799 25.94C35.0199 26.24 34.8099 26.54 34.5699 26.78C33.9799 27.35 33.2399 27.5 32.4399 27.42C31.8099 27.36 30.7199 27.4 30.2299 26.91C29.8499 26.53 29.7599 25.91 29.6999 25.34C29.5899 26.09 29.3399 26.79 28.5299 27.07C27.2199 27.51 25.8399 27.31 24.4899 27.46H24.4799C24.4299 27.38 24.2899 27.02 24.1599 27.1C24.0199 27.18 23.8799 27.27 23.7499 27.36C23.4699 27.56 23.1999 27.77 22.9199 27.97C22.8999 27.98 22.8999 27.97 22.8999 27.96C22.9599 27.57 22.8299 27.27 22.7999 26.89C22.7799 26.57 22.2199 27.4 22.1599 27.49C21.9799 27.76 21.7999 28.02 21.5799 28.26C21.5699 28.27 21.5199 28.32 21.5299 28.27C21.6299 27.55 21.7099 26.82 21.6499 26.1C21.2499 27.09 20.9199 28.25 19.9499 28.8C19.2799 29.18 18.4799 29.19 17.7699 29.43C17.0299 29.69 16.4099 30.16 15.7699 30.6C15.7599 30.6 15.7599 30.61 15.7499 30.6C15.1499 29.51 15.5899 28.24 15.3399 27.08C14.8299 28.04 14.8899 29.19 14.3899 30.16C14.3799 30.17 14.2799 30.31 14.2799 30.28C14.2599 30.06 14.1999 29.91 14.0999 29.72C13.9299 30.08 13.6999 30.41 13.5599 30.78C13.5499 30.8 13.4399 30.95 13.4399 30.92C13.2699 29.9 13.4999 28.86 13.3499 27.84C13.0699 28.37 12.8799 28.93 12.6799 29.5C12.5699 29.82 12.4499 30.16 12.2499 30.44C11.7299 31.16 10.8199 31.05 10.0399 30.86C8.82994 30.57 7.65994 30.11 7.00994 28.97C6.85994 28.71 6.72994 28.44 6.62994 28.15C6.56994 27.98 6.50994 27.8 6.46994 27.62C6.37994 27.24 6.17994 27.76 6.11994 27.93C5.89994 28.61 5.86994 29.31 5.78994 30.02C5.78994 30.04 5.67994 30.21 5.65994 30.18C5.19994 29.48 5.11994 28.63 4.83994 27.86C4.83994 28.41 4.81994 28.95 4.73994 29.49C4.73994 29.52 4.61994 29.68 4.60994 29.65C4.46994 29.3 4.24994 28.98 4.05994 28.65C3.99994 29.14 3.99994 29.63 3.99994 30.12C3.99994 30.16 3.87994 30.32 3.86994 30.29C3.35994 28.99 2.70994 27.75 2.00994 26.54C1.87994 26.56 1.73994 26.56 1.57994 26.53C1.21994 26.43 0.969937 26.24 0.809937 26.03C0.829937 26.17 0.879941 26.3 0.939941 26.42C1.30994 27.1 2.35994 29.37 2.82994 30.16C3.29994 30.95 3.92994 31.21 4.40994 30.9C4.87994 30.58 5.98994 30.95 6.93994 31.22C7.88994 31.48 9.46994 32.06 10.5199 32.17C11.5699 32.28 12.9399 31.59 14.6199 31.28C16.2999 30.96 17.6699 30.54 18.7199 29.91C19.7699 29.28 23.5099 28.28 25.9299 28.07C28.3499 27.86 32.8799 27.91 36.5099 28.18C40.1399 28.44 40.8799 27.6 45.2999 28.5C49.7199 29.4 51.1399 30.39 53.5599 30.29C53.6299 30.29 53.6999 30.28 53.7799 30.28L53.8199 26.6C53.7099 26.6 53.6499 26.6 53.5999 26.6Z" fill="url(#paint32_linear)"/>
</g>
<path opacity="0.8" d="M53.6 26.6C53.5 26.6 53.4 26.61 53.3 26.6C51.98 26.55 49.83 25.97 48.3 25.6C46.77 25.23 45.41 25.13 43.67 24.86C41.93 24.6 41.3 24.39 39.57 24.65C37.83 24.91 37.47 25.07 35.57 25.07C33.68 25.07 29.15 24.28 26.47 24.28C23.15 24.28 20.52 25.86 19.63 25.49C18.73 25.12 17.51 25.84 16.56 25.95C15.61 26.06 14.56 26.34 12.84 26.58C11.12 26.83 9.36996 27.56 7.46996 27.42C5.95996 27.31 3.89996 26.63 3.33996 26.25C2.77996 25.86 2.43996 26.74 1.53996 26.55C1.17996 26.45 0.929958 26.26 0.769958 26.05C0.789958 26.19 0.839963 26.32 0.899963 26.44C1.26996 27.12 2.31996 29.39 2.78996 30.18C3.25996 30.97 3.88996 31.23 4.36996 30.92C4.83996 30.6 5.94996 30.97 6.89996 31.24C7.84996 31.5 9.42997 32.08 10.48 32.19C11.53 32.3 12.9 31.61 14.58 31.3C16.26 30.98 17.63 30.56 18.68 29.93C19.73 29.3 23.47 28.3 25.89 28.09C28.31 27.88 32.84 27.93 36.47 28.2C40.1 28.46 40.84 27.62 45.26 28.52C49.68 29.42 51.1 30.41 53.52 30.31C53.55 30.31 53.58 30.31 53.61 30.3V26.6H53.6Z" fill="url(#paint33_linear)"/>
<path opacity="0.3" d="M55.61 16.45C54.8 14.49 52.25 14.01 49.95 16.75C49.95 16.75 49.47 17.82 47.44 19.08C45.41 20.34 44.33 21.22 44.41 22.18C44.48 23.14 47.7 23.62 50.73 23.7C53.76 23.77 56.5 22.18 56.98 21.26C57.46 20.33 56.14 17.73 55.61 16.45Z" fill="url(#paint34_radial)"/>
<path d="M53.24 15.41C53.16 15.41 53.07 15.41 52.98 15.42C52.15 15.5 51.18 16.03 51.05 16.95C50.85 18.35 51.85 19.75 50.98 18.95C50.11 18.15 50.31 18.62 49.45 19.42C48.58 20.22 45.58 20.22 46.18 21.22C46.78 22.22 48.25 22.75 49.91 22.02C51.58 21.29 51.91 21.42 53.44 21.69C54.97 21.96 56.04 21.16 55.91 19.49C55.83 18.5 55.4199 17.51 54.8999 16.67C54.4899 16.01 54.01 15.45 53.24 15.41Z" fill="url(#paint35_radial)"/>
<path opacity="0.3" d="M52.83 22.61C51.59 22.28 51.33 22.35 49.96 22.94C48.59 23.53 45.26 22.42 45.19 21.44C45.13 20.46 47.48 19.48 48.72 19.02C49.96 18.56 49.96 17.58 50.03 17.84C50.1 18.1 50.42 17.97 50.36 17.06C50.34 16.78 50.41 16.47 50.52 16.17C50.34 16.35 50.15 16.54 49.97 16.76C49.97 16.76 49.49 17.83 47.46 19.09C45.43 20.35 44.35 21.23 44.43 22.19C44.5 23.15 47.72 23.63 50.75 23.71C52.42 23.75 53.99 23.29 55.16 22.71C54.23 22.81 53.33 22.74 52.83 22.61Z" fill="url(#paint36_radial)"/>
<path opacity="0.3" d="M4.41998 16.13C3.94998 15.81 3.31998 15.76 3.04998 16.97C2.78998 18.18 3.41998 19.34 3.30998 20.44C3.19998 21.55 3.56998 22.81 4.25998 22.07C4.25998 22.07 5.93998 20.33 5.93998 18.91C5.93998 17.5 4.88998 16.45 4.41998 16.13ZM3.73998 19.81C3.90998 18.85 3.51998 18.51 3.51998 18.51C3.24998 17.82 3.44998 17.14 3.75998 16.65C4.06998 16.17 4.68998 16.65 5.19998 17.75C5.71998 18.85 5.65998 19.16 4.99998 20.12C4.35998 21.08 3.56998 20.77 3.73998 19.81Z" fill="url(#paint37_radial)"/>
<path d="M5.21 17.75C4.69 16.65 4.08 16.17 3.77 16.65C3.46 17.13 3.25 17.82 3.53 18.51C3.53 18.51 3.87 19.09 3.7 20.06C3.53 21.02 4.32 21.33 4.97 20.37C5.62 19.4 5.72 18.85 5.21 17.75Z" fill="url(#paint38_radial)"/>
<path opacity="0.3" d="M5.80996 19.62C5.53996 20.32 4.76996 21.05 4.23996 21.48C3.70996 21.92 3.48996 21.41 3.48996 20.66C3.48996 19.91 3.53996 19.23 3.33996 18.87C3.25996 18.72 3.13996 18.44 3.01996 18.15C3.11996 18.94 3.37996 19.71 3.30996 20.45C3.19996 21.56 3.56996 22.82 4.25996 22.08C4.25996 22.08 5.56996 20.73 5.87996 19.44C5.84996 19.5 5.82996 19.56 5.80996 19.62Z" fill="url(#paint39_radial)"/>
<g opacity="0.5">
<path opacity="0.5" d="M43.93 14.4C43.83 14.41 42.99 14.63 43.37 14.85C43.6 14.97 44.17 14.38 43.93 14.4C44.06 14.39 43.72 14.41 43.93 14.4Z" fill="url(#paint40_radial)"/>
<path opacity="0.5" d="M40.72 17.69C40.59 17.8 38.69 18.39 39.6 18.5C39.87 18.53 40.19 18.4 40.42 18.27C40.67 18.13 40.97 17.48 40.72 17.69C40.85 17.58 40.52 17.86 40.72 17.69Z" fill="url(#paint41_radial)"/>
<path opacity="0.5" d="M25.94 17.25C25.81 17.36 23.91 17.95 24.82 18.07C25.09 18.1 25.41 17.97 25.64 17.84C25.89 17.69 26.19 17.04 25.94 17.25C26.07 17.15 25.74 17.42 25.94 17.25Z" fill="url(#paint42_radial)"/>
<path opacity="0.5" d="M41.67 16.77C41 16.73 40.9 17.39 40.33 17.55C40.37 17.51 40.37 17.46 40.32 17.39C40.21 17.3 39.52 17.72 39.57 17.84C39.7 18.16 40.81 17.58 40.9 17.34C40.9 17.78 41.77 16.78 41.67 16.77C41.77 16.77 41.36 16.75 41.67 16.77Z" fill="url(#paint43_radial)"/>
<path opacity="0.5" d="M41.79 16.17C41.9 16.01 41.87 15.9 41.72 15.84C41.61 15.85 41.34 16.37 41.58 16.37C41.69 16.35 41.76 16.28 41.79 16.17C41.75 16.26 41.83 16.09 41.79 16.17Z" fill="url(#paint44_radial)"/>
<path opacity="0.5" d="M42.67 15.75C42.78 15.58 42.17 15.68 42.19 15.92C42.22 16.19 42.65 15.79 42.67 15.75C42.58 15.89 42.72 15.68 42.67 15.75Z" fill="url(#paint45_radial)"/>
<path opacity="0.5" d="M63.38 16.18C63.28 16.19 62.44 16.41 62.82 16.63C63.05 16.76 63.62 16.16 63.38 16.18C63.51 16.17 63.17 16.19 63.38 16.18Z" fill="url(#paint46_radial)"/>
<path opacity="0.5" d="M63.51 17.11C63.41 17.12 62.57 17.34 62.95 17.56C63.18 17.69 63.75 17.09 63.51 17.11C63.64 17.1 63.3 17.12 63.51 17.11Z" fill="url(#paint47_radial)"/>
<path opacity="0.5" d="M58.49 14.62C58.39 14.63 57.55 14.85 57.93 15.07C58.16 15.2 58.73 14.6 58.49 14.62C58.62 14.61 58.28 14.63 58.49 14.62Z" fill="url(#paint48_radial)"/>
<path opacity="0.5" d="M60.08 21.34C60.19 21.17 60.16 21.06 60.01 21.01C59.9 21.02 59.63 21.54 59.87 21.54C59.98 21.52 60.05 21.45 60.08 21.34C60.04 21.43 60.12 21.26 60.08 21.34Z" fill="url(#paint49_radial)"/>
<path opacity="0.5" d="M58.84 16.45C58.95 16.28 58.34 16.38 58.36 16.62C58.39 16.89 58.81 16.49 58.84 16.45C58.75 16.59 58.89 16.37 58.84 16.45Z" fill="url(#paint50_radial)"/>
<path opacity="0.5" d="M37.88 18.85C37.72 18.86 36.93 18.82 36.98 19.19C37.05 19.63 38.1 18.83 37.88 18.85C37.97 18.84 37.73 18.86 37.88 18.85Z" fill="url(#paint51_radial)"/>
<path opacity="0.5" d="M9.66997 25.45C9.50997 25.46 8.71997 25.42 8.76997 25.79C8.84997 26.22 9.89997 25.43 9.66997 25.45C9.76997 25.44 9.51997 25.46 9.66997 25.45Z" fill="url(#paint52_radial)"/>
<path opacity="0.5" d="M35.8 18.79C35.76 18.56 35.39 18.96 35.41 19.07C35.5 19.36 35.83 18.97 35.8 18.79C35.83 18.95 35.78 18.67 35.8 18.79Z" fill="url(#paint53_radial)"/>
<path opacity="0.5" d="M22.91 20.9C22.87 20.67 22.5 21.07 22.52 21.18C22.61 21.47 22.95 21.08 22.91 20.9C22.95 21.07 22.89 20.78 22.91 20.9Z" fill="url(#paint54_radial)"/>
<path opacity="0.5" d="M46.25 10.15C46.21 9.92 45.84 10.32 45.86 10.43C45.95 10.73 46.29 10.33 46.25 10.15C46.29 10.32 46.23 10.04 46.25 10.15Z" fill="url(#paint55_radial)"/>
<path opacity="0.5" d="M4.69999 19.61C4.65999 19.38 4.28999 19.78 4.30999 19.89C4.38999 20.18 4.72999 19.79 4.69999 19.61C4.72999 19.78 4.66999 19.49 4.69999 19.61Z" fill="url(#paint56_radial)"/>
<path opacity="0.5" d="M10.9 9.80999C10.86 9.57999 10.49 9.97998 10.51 10.09C10.6 10.39 10.94 9.98999 10.9 9.80999C10.94 9.97999 10.88 9.69999 10.9 9.80999Z" fill="url(#paint57_radial)"/>
<path opacity="0.5" d="M38.64 10.67C38.54 10.68 37.7 10.9 38.08 11.12C38.31 11.24 38.88 10.65 38.64 10.67C38.77 10.66 38.43 10.68 38.64 10.67Z" fill="url(#paint58_radial)"/>
<path opacity="0.5" d="M41.99 11.69C41.89 11.7 41.05 11.92 41.43 12.14C41.66 12.27 42.23 11.67 41.99 11.69C42.12 11.68 41.79 11.7 41.99 11.69Z" fill="url(#paint59_radial)"/>
<path opacity="0.5" d="M27.65 19.76C27.55 19.77 26.71 19.99 27.09 20.21C27.32 20.34 27.89 19.74 27.65 19.76C27.78 19.75 27.44 19.78 27.65 19.76Z" fill="url(#paint60_radial)"/>
<path opacity="0.5" d="M35.43 13.96C35.3 14.07 33.4 14.66 34.31 14.77C34.58 14.8 34.9 14.67 35.13 14.54C35.38 14.4 35.68 13.75 35.43 13.96C35.56 13.85 35.23 14.13 35.43 13.96Z" fill="url(#paint61_radial)"/>
<path opacity="0.5" d="M36.38 13.04C35.71 13 35.61 13.66 35.04 13.82C35.08 13.78 35.08 13.72 35.03 13.66C34.92 13.57 34.23 13.99 34.28 14.11C34.41 14.43 35.52 13.85 35.61 13.61C35.61 14.05 36.48 13.04 36.38 13.04C36.48 13.04 36.07 13.02 36.38 13.04Z" fill="url(#paint62_radial)"/>
<path opacity="0.5" d="M36.5 12.44C36.61 12.28 36.58 12.17 36.43 12.11C36.32 12.12 36.05 12.64 36.29 12.64C36.4 12.62 36.47 12.55 36.5 12.44C36.46 12.53 36.54 12.36 36.5 12.44Z" fill="url(#paint63_radial)"/>
<path opacity="0.5" d="M37.38 12.02C37.49 11.85 36.88 11.94 36.9 12.19C36.93 12.46 37.36 12.06 37.38 12.02C37.29 12.16 37.43 11.95 37.38 12.02Z" fill="url(#paint64_radial)"/>
<path opacity="0.5" d="M32.59 15.12C32.43 15.13 31.64 15.09 31.69 15.46C31.76 15.9 32.81 15.1 32.59 15.12C32.68 15.11 32.44 15.13 32.59 15.12Z" fill="url(#paint65_radial)"/>
<path opacity="0.5" d="M30.51 15.06C30.47 14.83 30.1 15.23 30.12 15.34C30.21 15.63 30.54 15.24 30.51 15.06C30.54 15.22 30.49 14.94 30.51 15.06Z" fill="url(#paint66_radial)"/>
<path opacity="0.5" d="M29.1 20.65C29.06 20.42 28.69 20.82 28.71 20.93C28.8 21.22 29.13 20.83 29.1 20.65C29.13 20.81 29.08 20.53 29.1 20.65Z" fill="url(#paint67_radial)"/>
<path opacity="0.5" d="M30.43 9.35999C30.37 9.43999 29.75 10.06 29.76 9.60999C29.76 9.34999 30.57 9.15999 30.43 9.35999C30.5 9.24999 30.31 9.52999 30.43 9.35999Z" fill="url(#paint68_radial)"/>
<path opacity="0.5" d="M25.96 10.45C25.8 10.5 24.33 11.84 24.69 11C24.8 10.75 25.08 10.54 25.31 10.41C25.56 10.27 26.27 10.34 25.96 10.45C26.12 10.39 25.72 10.53 25.96 10.45Z" fill="url(#paint69_radial)"/>
<path opacity="0.5" d="M27.24 10.09C26.93 10.69 26.32 10.44 25.89 10.85C25.95 10.84 25.99 10.86 26.02 10.94C26.04 11.08 25.33 11.46 25.25 11.36C25.04 11.08 26.11 10.42 26.36 10.47C25.98 10.25 27.29 10.01 27.24 10.09C27.28 10.01 27.09 10.38 27.24 10.09Z" fill="url(#paint70_radial)"/>
<path opacity="0.5" d="M23.39 15.66C23.08 16.26 22.47 16.01 22.04 16.42C22.1 16.41 22.14 16.43 22.17 16.5C22.19 16.64 21.48 17.02 21.4 16.92C21.19 16.64 22.26 15.98 22.51 16.03C22.13 15.82 23.44 15.58 23.39 15.66C23.43 15.58 23.25 15.95 23.39 15.66Z" fill="url(#paint71_radial)"/>
<path opacity="0.5" d="M27.82 10.29C28.02 10.28 28.1 10.36 28.07 10.52C28 10.61 27.42 10.58 27.54 10.37C27.61 10.29 27.71 10.27 27.82 10.29C27.72 10.29 27.91 10.3 27.82 10.29Z" fill="url(#paint72_radial)"/>
<path opacity="0.5" d="M14.98 10.1C15.18 10.09 15.26 10.17 15.23 10.33C15.16 10.42 14.58 10.39 14.7 10.19C14.78 10.1 14.87 10.07 14.98 10.1C14.88 10.09 15.07 10.11 14.98 10.1Z" fill="url(#paint73_radial)"/>
<path opacity="0.5" d="M17.37 16.33C17.57 16.32 17.65 16.4 17.62 16.56C17.55 16.65 16.97 16.62 17.09 16.42C17.17 16.33 17.26 16.3 17.37 16.33C17.27 16.32 17.46 16.34 17.37 16.33Z" fill="url(#paint74_radial)"/>
<path opacity="0.5" d="M28.62 9.74999C28.82 9.73999 28.43 10.21 28.23 10.07C28.01 9.91999 28.58 9.74999 28.62 9.74999C28.45 9.75999 28.71 9.74999 28.62 9.74999Z" fill="url(#paint75_radial)"/>
<path opacity="0.5" d="M53.55 18.65C53.49 18.73 52.87 19.35 52.88 18.9C52.88 18.64 53.69 18.46 53.55 18.65C53.62 18.55 53.43 18.83 53.55 18.65Z" fill="url(#paint76_radial)"/>
<path opacity="0.5" d="M4.58998 17.57C4.52998 17.65 3.90998 18.27 3.91998 17.82C3.92998 17.56 4.72998 17.38 4.58998 17.57C4.66998 17.47 4.46998 17.74 4.58998 17.57Z" fill="url(#paint77_radial)"/>
<path opacity="0.5" d="M6.53999 12.2C6.47999 12.28 5.85999 12.9 5.86999 12.45C5.87999 12.19 6.67999 12.01 6.53999 12.2C6.61999 12.1 6.41999 12.37 6.53999 12.2Z" fill="url(#paint78_radial)"/>
<path opacity="0.5" d="M49.13 20.47C48.97 20.52 47.5 21.86 47.86 21.02C47.97 20.77 48.25 20.56 48.48 20.43C48.73 20.29 49.45 20.36 49.13 20.47C49.29 20.41 48.89 20.55 49.13 20.47Z" fill="url(#paint79_radial)"/>
<path opacity="0.5" d="M50.41 20.11C50.1 20.71 49.49 20.46 49.06 20.87C49.12 20.86 49.16 20.88 49.19 20.96C49.21 21.1 48.5 21.48 48.42 21.38C48.21 21.1 49.28 20.44 49.52 20.49C49.15 20.27 50.46 20.03 50.41 20.11C50.46 20.03 50.27 20.4 50.41 20.11Z" fill="url(#paint80_radial)"/>
<path opacity="0.5" d="M53.18 20.98C53.38 20.97 53.46 21.05 53.43 21.21C53.36 21.3 52.78 21.27 52.9 21.06C52.98 20.98 53.07 20.96 53.18 20.98C53.08 20.97 53.27 20.99 53.18 20.98Z" fill="url(#paint81_radial)"/>
<path opacity="0.5" d="M15.96 7.60998C16.16 7.59998 16.24 7.67998 16.21 7.82998C16.14 7.91998 15.56 7.88998 15.68 7.68998C15.75 7.60998 15.85 7.57998 15.96 7.60998C15.86 7.59998 16.05 7.61998 15.96 7.60998Z" fill="url(#paint82_radial)"/>
<path opacity="0.5" d="M51.8 19.77C52 19.76 51.61 20.23 51.41 20.09C51.18 19.94 51.75 19.77 51.8 19.77C51.63 19.78 51.89 19.77 51.8 19.77Z" fill="url(#paint83_radial)"/>
<path opacity="0.5" d="M53.49 16.13C53.69 16.12 53.3 16.59 53.1 16.45C52.87 16.29 53.44 16.13 53.49 16.13C53.32 16.13 53.58 16.13 53.49 16.13Z" fill="url(#paint84_radial)"/>
<path opacity="0.5" d="M59.91 14.93C60.11 14.92 59.72 15.39 59.52 15.25C59.3 15.1 59.87 14.93 59.91 14.93C59.74 14.94 60 14.93 59.91 14.93Z" fill="url(#paint85_radial)"/>
<path opacity="0.5" d="M23.52 12.31C23.43 12.44 23.06 13.15 22.77 12.91C22.43 12.62 23.65 12.12 23.52 12.31C23.57 12.23 23.43 12.43 23.52 12.31Z" fill="url(#paint86_radial)"/>
<path opacity="0.5" d="M14.86 16.68C14.77 16.81 14.4 17.52 14.11 17.28C13.77 17 15 16.5 14.86 16.68C14.92 16.61 14.78 16.81 14.86 16.68Z" fill="url(#paint87_radial)"/>
<path opacity="0.5" d="M22.52 14.13C22.69 14.28 22.16 14.4 22.09 14.32C21.87 14.1 22.38 14.01 22.52 14.13C22.39 14.02 22.61 14.21 22.52 14.13Z" fill="url(#paint88_radial)"/>
<path opacity="0.5" d="M18.05 14.76C18.22 14.91 17.69 15.03 17.62 14.95C17.4 14.73 17.91 14.64 18.05 14.76C17.92 14.65 18.14 14.84 18.05 14.76Z" fill="url(#paint89_radial)"/>
<path opacity="0.5" d="M19.46 10.79C19.4 10.87 18.78 11.49 18.79 11.04C18.8 10.78 19.6 10.6 19.46 10.79C19.54 10.69 19.34 10.96 19.46 10.79Z" fill="url(#paint90_radial)"/>
<path opacity="0.5" d="M18.54 8.11998C18.48 8.19998 17.86 8.81998 17.87 8.36998C17.87 8.10998 18.68 7.91998 18.54 8.11998C18.61 8.00998 18.42 8.28998 18.54 8.11998Z" fill="url(#paint91_radial)"/>
<path opacity="0.5" d="M24.08 6.99998C24.02 7.07998 23.4 7.69998 23.41 7.24998C23.42 6.98998 24.22 6.80998 24.08 6.99998C24.15 6.89998 23.96 7.16998 24.08 6.99998Z" fill="url(#paint92_radial)"/>
<path opacity="0.5" d="M28.94 12.88C28.88 12.96 28.26 13.58 28.27 13.13C28.28 12.87 29.08 12.69 28.94 12.88C29.02 12.78 28.82 13.05 28.94 12.88Z" fill="url(#paint93_radial)"/>
<path opacity="0.5" d="M14.99 11.88C14.83 11.93 13.36 13.27 13.72 12.43C13.83 12.18 14.11 11.97 14.34 11.84C14.59 11.7 15.3 11.77 14.99 11.88C15.15 11.83 14.75 11.96 14.99 11.88Z" fill="url(#paint94_radial)"/>
<path opacity="0.5" d="M16.27 11.53C15.96 12.13 15.35 11.88 14.92 12.29C14.98 12.28 15.02 12.3 15.05 12.38C15.07 12.52 14.36 12.9 14.28 12.8C14.07 12.52 15.14 11.86 15.39 11.91C15.01 11.68 16.32 11.44 16.27 11.53C16.31 11.45 16.13 11.81 16.27 11.53Z" fill="url(#paint95_radial)"/>
<path opacity="0.5" d="M16.85 11.73C17.05 11.72 17.13 11.8 17.1 11.96C17.03 12.05 16.45 12.02 16.57 11.81C16.65 11.73 16.74 11.7 16.85 11.73C16.75 11.72 16.94 11.74 16.85 11.73Z" fill="url(#paint96_radial)"/>
<path opacity="0.5" d="M17.66 11.19C17.86 11.18 17.47 11.65 17.27 11.51C17.04 11.35 17.61 11.19 17.66 11.19C17.49 11.19 17.75 11.18 17.66 11.19Z" fill="url(#paint97_radial)"/>
<path opacity="0.5" d="M8.02998 24.19C7.96998 24.27 7.34998 24.89 7.35998 24.44C7.35998 24.18 8.15998 24 8.02998 24.19C8.09998 24.09 7.90998 24.36 8.02998 24.19Z" fill="url(#paint98_radial)"/>
<path opacity="0.5" d="M5.41001 25.13C5.61001 25.12 5.69001 25.2 5.66001 25.36C5.59001 25.45 5.01 25.42 5.13 25.22C5.21 25.13 5.30001 25.1 5.41001 25.13C5.31001 25.12 5.50001 25.14 5.41001 25.13Z" fill="url(#paint99_radial)"/>
<path opacity="0.5" d="M6.21999 24.59C6.41999 24.58 6.02999 25.05 5.82999 24.91C5.60999 24.75 6.16999 24.59 6.21999 24.59C6.04999 24.59 6.30999 24.58 6.21999 24.59Z" fill="url(#paint100_radial)"/>
<path opacity="0.5" d="M21.98 6.85999C22.18 6.84999 21.79 7.31999 21.59 7.17999C21.37 7.01999 21.94 6.85999 21.98 6.85999C21.81 6.85999 22.07 6.85999 21.98 6.85999Z" fill="url(#paint101_radial)"/>
<path opacity="0.5" d="M8.94997 12.55C9.14997 12.54 8.75997 13.01 8.55997 12.87C8.33997 12.71 8.89997 12.55 8.94997 12.55C8.77997 12.55 9.03997 12.54 8.94997 12.55Z" fill="url(#paint102_radial)"/>
<path opacity="0.5" d="M21.98 8.99999C22.18 8.98999 21.79 9.45999 21.59 9.31999C21.37 9.15999 21.94 8.99999 21.98 8.99999C21.81 8.99999 22.07 8.99999 21.98 8.99999Z" fill="url(#paint103_radial)"/>
<path opacity="0.5" d="M12.55 13.74C12.46 13.87 12.09 14.58 11.8 14.34C11.46 14.06 12.68 13.56 12.55 13.74C12.61 13.67 12.46 13.87 12.55 13.74Z" fill="url(#paint104_radial)"/>
<path opacity="0.5" d="M11.55 15.56C11.72 15.71 11.19 15.83 11.12 15.75C10.9 15.53 11.41 15.44 11.55 15.56C11.42 15.45 11.64 15.64 11.55 15.56Z" fill="url(#paint105_radial)"/>
</g>
<path opacity="0.3" d="M50.61 9.63999C49.91 8.44999 46.47 6.89999 43.73 6.61999C40.99 6.33999 37.7 5.77999 35.87 5.28999C34.05 4.79999 31.45 4.51999 29.49 4.37999C27.53 4.23999 23.39 4.37999 21.35 4.37999C19.32 4.37999 15.53 5.63999 13.63 7.18999C11.74 8.72999 10.47 9.21999 8.85995 9.21999C8.22995 9.21999 7.66996 9.28999 7.21996 9.35999C7.17996 9.39999 7.12995 9.44999 7.08995 9.49999C6.24995 10.34 5.45995 12 4.44995 13.53C4.56995 14.16 4.79995 14.91 5.20995 15.46C6.04995 16.58 7.59995 18.27 7.09995 19.32C6.60995 20.37 6.39995 21.42 7.44995 21.64C8.49995 21.85 9.75995 21.08 10.68 20.8C11.59 20.52 12.86 20.8 13.91 21.22C14.96 21.64 15.66 22.2 16.86 22.13C18.05 22.06 18.05 22.13 19.04 22.55C20.02 22.97 21.21 22.97 21.29 23.25C21.36 23.53 20.1 23.25 19.19 23.25C18.28 23.25 18 22.9 17.02 22.69C16.04 22.48 14.63 22.55 13.51 22.48C12.39 22.41 11.39 22.48 11.09 23.13C10.79 23.78 11.8 25.07 12.32 25.96C12.84 26.85 12.78 27.47 12.6 28.67C12.47 29.5 12.26 30.86 12.17 31.93C12.89 31.73 13.69 31.46 14.59 31.29C14.84 31.24 15.08 31.19 15.31 31.14C15.07 30.42 14.81 29.32 14.97 28.27C15.23 26.51 15.48 26.25 14.82 25.77C14.16 25.29 12.76 24.34 12.95 23.97C13.13 23.6 14.75 24.37 16.44 24.67C18.13 24.96 19.05 24.63 19.01 25.66C18.99 26.33 19.04 28.37 19.08 29.72C20.47 29.09 23.72 28.26 25.9 28.07C27.06 27.97 28.7 27.93 30.5 27.94C30.71 25.91 31.13 25.56 30.43 24.51C31.69 24.23 32.11 24.51 36.53 23.32C42.07 21.85 42.77 21.22 44.88 19.53C46.98 17.85 47.2699 17.22 49.5099 14.83C51.7399 12.45 51.32 10.84 50.61 9.63999ZM6.33995 14.15C6.03995 13.38 5.88996 12.48 6.47996 11.77C7.17996 10.92 8.50995 11.45 8.45995 12.53C8.42995 13.26 8.08995 14.22 7.56995 14.81C7.14995 15.28 6.70995 15.1 6.33995 14.15ZM43.99 11.71C39.57 15.29 45.99 13.71 43.36 16.66C40.73 19.61 34.63 19.11 32.63 21.71C31.58 23.08 29.47 22.97 29.58 21.39C29.69 19.81 27.79 20.86 26.11 21.71C24.43 22.55 23.56 22.63 24.22 21.08C25.02 19.19 26.6 17.75 29.88 16.3C33.16 14.85 30.62 15.08 28.95 15.49C27.28 15.91 24.1 17.4 23.27 18.65C22.44 19.9 21.92 20.06 21.81 18.65C21.71 17.24 23.11 15.94 21.55 16.72C19.99 17.5 18.79 18.59 16.97 20.73C15.15 22.86 14.68 20.99 14.97 19.6C15.48 17.12 12.97 18.86 11.29 18.86C9.60996 18.86 6.23995 17.91 9.70995 13.49C9.70995 13.49 15.74 8.24999 14.76 9.80999C13.5 11.81 15.29 11.91 17.29 10.44C19.29 8.96999 23.08 6.85999 22.97 8.11999C22.86 9.37999 26.97 6.74999 30.97 6.95999C34.97 7.16999 28.65 9.48999 25.92 11.7C23.18 13.91 27.39 12.96 31.92 10.75C36.45 8.53999 38.34 9.16999 37.18 10.75C36.02 12.33 37.39 11.38 39.28 10.33C41.14 9.28999 48.41 8.12999 43.99 11.71Z" fill="url(#paint106_radial)"/>
<path opacity="0.6" d="M67.88 15.44C67.05 15.38 66.53 14.22 65.76 13.64C64.99 13.06 64.09 12.74 63.32 12.1C62.55 11.46 61.52 10.88 60.37 10.18C59.22 9.46999 56.71 8.31999 55.3 7.60999C53.89 6.90999 51.97 6.90998 50.62 6.25998C49.27 5.61998 48.7 5.99999 44.53 4.71999C37.73 2.92999 25.1 2.21999 22.6 2.34999C20.1 2.47999 16.64 3.56999 15.55 4.20999C14.46 4.84999 12.02 4.46999 11 4.58999C10.47 4.65999 9.73998 4.87999 9.14998 5.06999C9.05998 5.84999 8.89998 6.74998 8.61998 7.27998C8.11998 8.22998 8.04998 8.51998 7.22998 9.34998C7.66998 9.26998 8.22998 9.20999 8.86998 9.20999C10.48 9.20999 11.75 8.71999 13.64 7.17999C15.53 5.63999 19.32 4.36999 21.36 4.36999C23.39 4.36999 27.53 4.22999 29.5 4.36999C31.46 4.50999 34.06 4.78999 35.88 5.27999C37.7 5.76999 41 6.32999 43.74 6.60999C46.48 6.88999 49.91 8.42999 50.62 9.62999C51.32 10.82 51.74 12.44 49.5 14.82C47.26 17.21 46.97 17.84 44.87 19.52C42.77 21.2 42.06 21.84 36.52 23.31C32.1 24.5 31.68 24.22 30.42 24.5C31.12 25.55 30.7 25.9 30.49 27.93C32.44 27.95 34.58 28.02 36.47 28.16C40.1 28.42 40.84 27.58 45.26 28.48C49.68 29.38 51.1 30.37 53.52 30.27C55.94 30.16 57.73 29.38 59.04 28.32C60.22 27.38 60.26 27.32 61.01 27.02C60.8 26.59 60.57 25.88 60.65 24.94C60.79 23.3 60.75 23.19 60.27 23.16C59.79 23.13 58.56 21.96 58.29 20.42C58.02 18.88 58.29 17.31 57.78 16.28C57.27 15.25 56.31 14.71 55.83 14.33C55.35 13.95 54.77 13.06 55.25 13.06C55.73 13.06 56.89 13.61 57.27 13.81C57.65 14.02 58.5 14.08 58.95 14.29C59.39 14.5 59.98 14.77 60.9 14.94C61.82 15.11 62.85 15.56 63.23 15.76C63.61 15.97 64.6 16.03 65.35 16.38C66.1 16.72 66.48 17.03 67.06 17.17C67.64 17.31 67.78 17.44 67.78 18.44C67.78 19.12 67.73 21.36 67.7 22.67C67.93 22.58 68.18 22.48 68.47 22.38C68.51 22.36 68.55 22.35 68.59 22.34C68.48 20.46 68.71 17.73 68.99 16.84C69.29 15.82 68.71 15.5 67.88 15.44ZM23.57 3.81999C22.41 3.70999 18.1 4.02999 14.84 5.92999C11.58 7.81999 10.1 8.23999 10.1 6.76999C10.1 6.76999 9.67998 5.18999 11.68 5.50999C13.68 5.82999 14.52 5.08999 16.52 4.34999C18.52 3.60999 21.99 2.76999 24.41 3.08999C26.83 3.39999 24.73 3.92999 23.57 3.81999ZM42.83 23.75C41.64 23.54 39.32 23.96 38.69 23.96C38.06 23.96 36.09 24.52 36.94 23.82C36.94 23.82 38.13 23.05 39.61 23.05C41.08 23.05 42.77 21.79 43.47 22.49C44.16 23.18 44.02 23.96 42.83 23.75ZM55.25 23.53C57.64 22.06 58.13 22.41 57.07 23.88C56.02 25.35 54.82 25.84 53.07 25.84C51.32 25.84 46.97 23.74 49.21 24.09C49.21 24.1 52.86 25.01 55.25 23.53ZM63.56 14.55C60.4 13.39 58.51 13.71 56.51 12.13C54.51 10.55 53.98 11.6 54.09 12.76C54.2 13.92 53.04 13.5 51.99 14.13C50.94 14.76 51.36 13.81 52.2 12.13C53.04 10.45 53.04 9.40999 51.15 8.54999C46.12 6.26999 31.31 4.02999 32.88 3.50999C32.88 3.50999 46.52 5.60998 49.25 6.75998C51.99 7.91998 55.14 7.80999 59.04 10.55C62.93 13.29 66.53 15.64 63.56 14.55Z" fill="url(#paint107_linear)"/>
<g opacity="0.3">
<path opacity="0.3" d="M21.29 23.25C21.22 22.97 20.03 22.97 19.04 22.55C18.06 22.13 18.06 22.06 16.86 22.13C15.67 22.2 14.97 21.64 13.91 21.22C12.86 20.8 11.59 20.52 10.68 20.8C9.76998 21.08 8.50997 21.85 7.44998 21.64C6.39998 21.43 6.60998 20.38 7.09998 19.32C7.58998 18.27 6.04998 16.58 5.20998 15.46C4.79998 14.91 4.56998 14.15 4.44998 13.53C4.31998 13.73 4.17998 13.93 4.03998 14.13C2.82998 15.81 2.61998 17.5 2.77998 18.81C2.93998 20.13 2.72998 22.65 1.77998 23.65C0.829977 24.65 0.519975 25.75 0.879975 26.44C1.24998 27.12 2.29997 29.39 2.76997 30.18C3.23997 30.97 3.86998 31.23 4.34998 30.92C4.37998 30.9 4.40998 30.88 4.44998 30.87C4.27998 30.27 4.12998 29.55 4.15998 28.87C4.22998 27.33 3.10998 26.13 3.80998 25.43C4.50998 24.73 4.78998 24.52 5.34998 23.68C5.90998 22.84 7.59998 22.77 8.15998 23.26C8.71998 23.75 9.76998 24.17 10.26 24.8C10.75 25.43 11.59 26.02 11.17 26.9C10.98 27.31 10.62 28.49 10.32 28.94C10.03 29.4 9.98998 29.76 10.12 30.54C10.19 30.94 10.19 31.59 10.17 32.14C10.27 32.15 10.36 32.17 10.45 32.18C10.94 32.23 11.5 32.1 12.13 31.93C12.22 30.86 12.44 29.5 12.56 28.67C12.74 27.47 12.81 26.86 12.28 25.96C11.76 25.07 10.74 23.78 11.05 23.13C11.36 22.48 12.35 22.41 13.47 22.48C14.59 22.55 16 22.48 16.98 22.69C17.96 22.9 18.24 23.25 19.15 23.25C20.1 23.25 21.36 23.53 21.29 23.25ZM4.34998 23.92C3.78998 24.69 3.01998 25.47 2.15998 25.73C1.29998 25.99 1.33998 24.61 2.06998 24.01C2.79998 23.41 3.01997 22.89 3.01997 22.89C3.31997 22.46 3.48998 23.19 4.17998 22.93C4.86998 22.67 4.90998 23.15 4.34998 23.92ZM11.92 22.07C10.29 22.11 10.29 23.36 10.63 24.09C10.97 24.82 9.76998 24 9.24998 23.4C8.72998 22.8 7.82998 22.5 7.82998 22.5C7.22998 22.33 7.52997 22.07 8.08997 22.03C8.64997 21.99 9.54998 21.99 10.24 21.56C10.93 21.13 12.09 21 12.43 21.22C12.79 21.43 13.56 22.03 11.92 22.07Z" fill="url(#paint108_linear)"/>
</g>
<path opacity="0.6" d="M18.9899 25.66C19.0299 24.63 18.1099 24.96 16.4199 24.67C14.7299 24.38 13.1199 23.61 12.9299 23.97C12.7499 24.34 14.1399 25.29 14.7999 25.77C15.4599 26.25 15.1999 26.5 14.9499 28.27C14.7999 29.32 15.0599 30.42 15.2899 31.14C16.6499 30.84 17.7699 30.46 18.6699 29.92C18.7699 29.86 18.8999 29.79 19.0499 29.72C19.0199 28.37 18.9699 26.33 18.9899 25.66ZM16.8099 25.55C15.9899 25.73 15.3399 25.84 14.8899 25.47C14.4399 25.1 13.2599 24.13 14.2299 24.42C14.2299 24.42 15.3299 24.95 16.1499 24.97C16.9699 25 17.6199 25.37 16.8099 25.55Z" fill="url(#paint109_linear)"/>
<path d="M16.1499 24.97C15.3299 24.94 14.2299 24.42 14.2299 24.42C13.2599 24.13 14.4399 25.1 14.8899 25.47C15.3399 25.84 15.9899 25.73 16.8099 25.55C17.6199 25.37 16.9699 25 16.1499 24.97Z" fill="url(#paint110_linear)"/>
<path opacity="0.3" d="M67.0399 17.19C66.4599 17.05 66.08 16.75 65.33 16.4C64.58 16.06 63.59 15.99 63.21 15.78C62.83 15.57 61.81 15.13 60.88 14.96C59.96 14.79 59.3799 14.52 58.9299 14.31C58.4899 14.11 57.63 14.04 57.25 13.83C56.87 13.63 55.71 13.08 55.23 13.08C54.75 13.08 55.33 13.97 55.81 14.35C56.29 14.73 57.2499 15.27 57.7599 16.3C58.2699 17.33 58 18.9 58.27 20.44C58.54 21.98 59.77 23.14 60.25 23.18C60.73 23.21 60.76 23.32 60.63 24.96C60.55 25.91 60.78 26.61 60.99 27.04C61.08 27.01 61.17 26.97 61.28 26.92C62.33 26.5 62.8099 25.97 63.5399 25.13C63.7999 24.83 64.01 24.6 64.21 24.41C64.44 23.61 64.8 22.27 64.91 21.39C65.07 20.08 64.91 20.08 64.07 19.6C63.23 19.13 62.49 18.92 61.86 18.5C61.23 18.08 60.86 17.76 60.12 17.13C59.38 16.5 58.54 16.24 58.8 16.02C59.06 15.81 60.85 16.92 62.11 17.49C63.37 18.07 64.37 18.54 64.95 19.12C65.53 19.7 66 19.23 65.95 20.23C65.9 21.23 65.9999 21.86 65.7899 22.28C65.6999 22.47 65.6799 23 65.6799 23.52C66.4799 23.18 66.9799 22.94 67.6499 22.68C67.6799 21.36 67.73 19.13 67.73 18.45C67.76 17.46 67.6299 17.33 67.0399 17.19ZM60.84 18.33C60.84 18.33 62.26 19.37 62.97 19.59C63.68 19.81 64.1199 20.25 63.6799 20.74C63.2399 21.23 62.97 21.5 62.75 20.74C62.53 19.98 61.88 19.59 61.38 19.26C60.89 18.93 60.02 17.84 60.84 18.33ZM59.1499 17.78C59.1499 17.78 58.99 18.71 59.53 19.53C60.08 20.35 60.3 21.11 60.73 21.82C61.17 22.53 60.46 22.97 59.86 22.42C59.26 21.87 58.55 21 58.6 19.8C58.65 18.6 58.5999 16.58 59.1499 17.78ZM64.56 18.17C63.79 17.73 62.76 17.08 61.5 16.64C60.24 16.2 59.7499 16.04 58.9299 15.49C58.1099 14.94 58.22 14.4 59.53 14.94C59.53 14.94 60.24 15.16 61.72 15.82C63.2 16.48 64.73 16.58 65.38 17.08C66.03 17.56 65.32 18.6 64.56 18.17Z" fill="url(#paint111_radial)"/>
<path opacity="0.6" d="M64.98 19.13C64.4 18.55 63.4 18.08 62.14 17.5C60.88 16.92 59.09 15.82 58.83 16.03C58.57 16.24 59.41 16.5 60.15 17.14C60.89 17.77 61.25 18.09 61.89 18.51C62.52 18.93 63.26 19.14 64.1 19.61C64.94 20.08 65.1 20.08 64.94 21.4C64.84 22.28 64.47 23.62 64.24 24.42C64.6 24.08 64.97 23.86 65.67 23.56C65.69 23.55 65.7 23.55 65.72 23.54C65.71 23.01 65.73 22.49 65.83 22.3C66.04 21.88 65.94 21.25 65.99 20.25C66.03 19.24 65.56 19.71 64.98 19.13ZM64.75 19.38C64.73 19.51 63.31 19.14 62.45 18.58C61.59 18.03 59.98 16.61 61.23 17.3C61.23 17.3 62.51 17.83 63.51 18.4C64.51 18.98 64.77 19.25 64.75 19.38Z" fill="url(#paint112_linear)"/>
<path d="M63.51 18.41C62.52 17.84 61.23 17.31 61.23 17.31C59.97 16.62 61.58 18.04 62.45 18.59C63.31 19.14 64.73 19.52 64.75 19.39C64.77 19.25 64.51 18.98 63.51 18.41Z" fill="url(#paint113_linear)"/>
<defs>
<linearGradient id="paint0_linear" x1="6.23938" y1="-7.36991" x2="61.1697" y2="29.5659" gradientUnits="userSpaceOnUse">
<stop offset="0.2756" stop-color="#FFF8EC"/>
<stop offset="0.464" stop-color="#F7C9A3"/>
<stop offset="0.8446" stop-color="#F2E6E3"/>
<stop offset="1" stop-color="#D9B993"/>
</linearGradient>
<radialGradient id="paint1_radial" cx="0" cy="0" r="1" gradientUnits="userSpaceOnUse" gradientTransform="translate(51.3252 17.8891) scale(6.9334)">
<stop offset="0.0637" stop-color="#EC857E"/>
<stop offset="0.3497" stop-color="#E76B69"/>
<stop offset="0.6666" stop-color="#DE5C5C"/>
<stop offset="0.9231" stop-color="#D0413D"/>
</radialGradient>
<linearGradient id="paint2_linear" x1="42.1871" y1="-3.47581" x2="36.6624" y2="32.0398" gradientUnits="userSpaceOnUse">
<stop offset="0.2756" stop-color="#FFF8EC"/>
<stop offset="0.464" stop-color="#F7C9A3"/>
<stop offset="0.8446" stop-color="#F2E6E3"/>
<stop offset="1" stop-color="#D9B993"/>
</linearGradient>
<linearGradient id="paint3_linear" x1="11.9902" y1="7.80559" x2="18.1457" y2="34.1635" gradientUnits="userSpaceOnUse">
<stop offset="0.2756" stop-color="#FFF8EC"/>
<stop offset="0.464" stop-color="#F7C9A3"/>
<stop offset="0.8446" stop-color="#F2E6E3"/>
<stop offset="1" stop-color="#D9B993"/>
</linearGradient>
<radialGradient id="paint4_radial" cx="0" cy="0" r="1" gradientUnits="userSpaceOnUse" gradientTransform="translate(24.8947 6.46108) scale(29.7306)">
<stop offset="0.0637" stop-color="#EC857E"/>
<stop offset="0.3497" stop-color="#E76B69"/>
<stop offset="0.6666" stop-color="#DE5C5C"/>
<stop offset="0.9231" stop-color="#D0413D"/>
</radialGradient>
<radialGradient id="paint5_radial" cx="0" cy="0" r="1" gradientUnits="userSpaceOnUse" gradientTransform="translate(7.36339 23.6573) scale(4.8171)">
<stop offset="0.0637" stop-color="#EC857E"/>
<stop offset="0.3497" stop-color="#E76B69"/>
<stop offset="0.6666" stop-color="#DE5C5C"/>
<stop offset="0.9231" stop-color="#D0413D"/>
</radialGradient>
<radialGradient id="paint6_radial" cx="0" cy="0" r="1" gradientUnits="userSpaceOnUse" gradientTransform="translate(7.36338 23.6573) scale(4.8171)">
<stop offset="0.0637" stop-color="#EC857E"/>
<stop offset="0.3497" stop-color="#E76B69"/>
<stop offset="0.6666" stop-color="#DE5C5C"/>
<stop offset="0.9231" stop-color="#D0413D"/>
</radialGradient>
<linearGradient id="paint7_linear" x1="7.34196" y1="8.88918" x2="13.4979" y2="35.2491" gradientUnits="userSpaceOnUse">
<stop offset="0.2756" stop-color="#FFF8EC"/>
<stop offset="0.464" stop-color="#F7C9A3"/>
<stop offset="0.8446" stop-color="#F2E6E3"/>
<stop offset="1" stop-color="#D9B993"/>
</linearGradient>
<linearGradient id="paint8_linear" x1="56.4675" y1="12.3149" x2="67.9528" y2="25.3051" gradientUnits="userSpaceOnUse">
<stop offset="0.2756" stop-color="#FFF8EC"/>
<stop offset="0.464" stop-color="#F7C9A3"/>
<stop offset="0.8446" stop-color="#F2E6E3"/>
<stop offset="1" stop-color="#D9B993"/>
</linearGradient>
<radialGradient id="paint9_radial" cx="0" cy="0" r="1" gradientUnits="userSpaceOnUse" gradientTransform="translate(56.3057 10.8811) scale(16.5492)">
<stop offset="0.0637" stop-color="#EC857E"/>
<stop offset="0.3497" stop-color="#E76B69"/>
<stop offset="0.6666" stop-color="#DE5C5C"/>
<stop offset="0.9231" stop-color="#D0413D"/>
</radialGradient>
<linearGradient id="paint10_linear" x1="9.25585" y1="11.0884" x2="70.9229" y2="11.0884" gradientUnits="userSpaceOnUse">
<stop stop-color="#F7C9A3"/>
<stop offset="1" stop-color="#F4DBCC"/>
</linearGradient>
<radialGradient id="paint11_radial" cx="0" cy="0" r="1" gradientUnits="userSpaceOnUse" gradientTransform="translate(18.2092 23.8595) scale(7.04033)">
<stop offset="0.0637" stop-color="#EC857E"/>
<stop offset="0.3497" stop-color="#E76B69"/>
<stop offset="0.6666" stop-color="#DE5C5C"/>
<stop offset="0.9231" stop-color="#D0413D"/>
</radialGradient>
<linearGradient id="paint12_linear" x1="54.465" y1="14.0861" x2="65.9495" y2="27.0754" gradientUnits="userSpaceOnUse">
<stop offset="0.2756" stop-color="#FFF8EC"/>
<stop offset="0.464" stop-color="#F7C9A3"/>
<stop offset="0.8446" stop-color="#F2E6E3"/>
<stop offset="1" stop-color="#D9B993"/>
</linearGradient>
<linearGradient id="paint13_linear" x1="0.745862" y1="28.3067" x2="70.9269" y2="28.3067" gradientUnits="userSpaceOnUse">
<stop stop-color="#F7C9A3"/>
<stop offset="1" stop-color="#F4DBCC"/>
</linearGradient>
<linearGradient id="paint14_linear" x1="0.766508" y1="20.4205" x2="70.9221" y2="20.4205" gradientUnits="userSpaceOnUse">
<stop stop-color="#F7C9A3"/>
<stop offset="1" stop-color="#F4DBCC"/>
</linearGradient>
<linearGradient id="paint15_linear" x1="0.760733" y1="24.5689" x2="70.9226" y2="24.5689" gradientUnits="userSpaceOnUse">
<stop stop-color="#F7C9A3"/>
<stop offset="1" stop-color="#F4DBCC"/>
</linearGradient>
<linearGradient id="paint16_linear" x1="0.764187" y1="23.708" x2="70.9225" y2="23.708" gradientUnits="userSpaceOnUse">
<stop stop-color="#F7C9A3"/>
<stop offset="1" stop-color="#F4DBCC"/>
</linearGradient>
<linearGradient id="paint17_linear" x1="0.746502" y1="29.0279" x2="70.9276" y2="29.0279" gradientUnits="userSpaceOnUse">
<stop stop-color="#F7C9A3"/>
<stop offset="1" stop-color="#F4DBCC"/>
</linearGradient>
<radialGradient id="paint18_radial" cx="0" cy="0" r="1" gradientUnits="userSpaceOnUse" gradientTransform="translate(4.52217 16.554) scale(5.2619)">
<stop offset="0.0637" stop-color="#EC857E"/>
<stop offset="0.3497" stop-color="#E76B69"/>
<stop offset="0.6666" stop-color="#DE5C5C"/>
<stop offset="0.9231" stop-color="#D0413D"/>
</radialGradient>
<linearGradient id="paint19_linear" x1="37.208" y1="14.0965" x2="28.7275" y2="33.0468" gradientUnits="userSpaceOnUse">
<stop stop-color="#F6CFAF"/>
<stop offset="0.2756" stop-color="#FFF8EC"/>
<stop offset="0.4649" stop-color="#F7C9A3"/>
<stop offset="1" stop-color="#F2E6E3"/>
</linearGradient>
<linearGradient id="paint20_linear" x1="16.2752" y1="11.9842" x2="11.7652" y2="30.2599" gradientUnits="userSpaceOnUse">
<stop stop-color="#F6CFAF"/>
<stop offset="0.2756" stop-color="#FFF8EC"/>
<stop offset="0.4649" stop-color="#F7C9A3"/>
<stop offset="1" stop-color="#F2E6E3"/>
</linearGradient>
<linearGradient id="paint21_linear" x1="32.0383" y1="11.7828" x2="23.5581" y2="30.7325" gradientUnits="userSpaceOnUse">
<stop stop-color="#F6CFAF"/>
<stop offset="0.2756" stop-color="#FFF8EC"/>
<stop offset="0.4649" stop-color="#F7C9A3"/>
<stop offset="1" stop-color="#F2E6E3"/>
</linearGradient>
<linearGradient id="paint22_linear" x1="11.1687" y1="8.72228" x2="10.0408" y2="24.1446" gradientUnits="userSpaceOnUse">
<stop stop-color="#F6CFAF"/>
<stop offset="0.2756" stop-color="#FFF8EC"/>
<stop offset="0.4649" stop-color="#F7C9A3"/>
<stop offset="1" stop-color="#F2E6E3"/>
</linearGradient>
<linearGradient id="paint23_linear" x1="30.8266" y1="11.2409" x2="22.3468" y2="30.1895" gradientUnits="userSpaceOnUse">
<stop stop-color="#F6CFAF"/>
<stop offset="0.2756" stop-color="#FFF8EC"/>
<stop offset="0.4649" stop-color="#F7C9A3"/>
<stop offset="1" stop-color="#F2E6E3"/>
</linearGradient>
<linearGradient id="paint24_linear" x1="39.3169" y1="15.0411" x2="30.8359" y2="33.9925" gradientUnits="userSpaceOnUse">
<stop stop-color="#F6CFAF"/>
<stop offset="0.2756" stop-color="#FFF8EC"/>
<stop offset="0.4649" stop-color="#F7C9A3"/>
<stop offset="1" stop-color="#F2E6E3"/>
</linearGradient>
<linearGradient id="paint25_linear" x1="25.3634" y1="8.79618" x2="16.8834" y2="27.7452" gradientUnits="userSpaceOnUse">
<stop stop-color="#F6CFAF"/>
<stop offset="0.2756" stop-color="#FFF8EC"/>
<stop offset="0.4649" stop-color="#F7C9A3"/>
<stop offset="1" stop-color="#F2E6E3"/>
</linearGradient>
<linearGradient id="paint26_linear" x1="23.7786" y1="8.08679" x2="15.2987" y2="27.0356" gradientUnits="userSpaceOnUse">
<stop stop-color="#F6CFAF"/>
<stop offset="0.2756" stop-color="#FFF8EC"/>
<stop offset="0.4649" stop-color="#F7C9A3"/>
<stop offset="1" stop-color="#F2E6E3"/>
</linearGradient>
<radialGradient id="paint27_radial" cx="0" cy="0" r="1" gradientUnits="userSpaceOnUse" gradientTransform="translate(24.8949 6.46109) scale(29.7305)">
<stop offset="0.0637" stop-color="#EC857E"/>
<stop offset="0.3497" stop-color="#E76B69"/>
<stop offset="0.6666" stop-color="#DE5C5C"/>
<stop offset="0.9231" stop-color="#D0413D"/>
</radialGradient>
<linearGradient id="paint28_linear" x1="0.762658" y1="23.861" x2="70.9228" y2="23.861" gradientUnits="userSpaceOnUse">
<stop stop-color="#F7C9A3"/>
<stop offset="1" stop-color="#F4DBCC"/>
</linearGradient>
<linearGradient id="paint29_linear" x1="0.763396" y1="28.1441" x2="70.9195" y2="28.1441" gradientUnits="userSpaceOnUse">
<stop stop-color="#F7C9A3"/>
<stop offset="1" stop-color="#F4DBCC"/>
</linearGradient>
<linearGradient id="paint30_linear" x1="0.763293" y1="25.9411" x2="70.9224" y2="25.9411" gradientUnits="userSpaceOnUse">
<stop stop-color="#F7C9A3"/>
<stop offset="1" stop-color="#F4DBCC"/>
</linearGradient>
<linearGradient id="paint31_linear" x1="0.762893" y1="25.6192" x2="70.9221" y2="25.6192" gradientUnits="userSpaceOnUse">
<stop stop-color="#F7C9A3"/>
<stop offset="1" stop-color="#F4DBCC"/>
</linearGradient>
<linearGradient id="paint32_linear" x1="26.4588" y1="16.6738" x2="26.8797" y2="21.7247" gradientUnits="userSpaceOnUse">
<stop stop-color="#F7C9A3"/>
<stop offset="1" stop-color="#F4DBCC"/>
</linearGradient>
<linearGradient id="paint33_linear" x1="0.762658" y1="28.2409" x2="70.9227" y2="28.2409" gradientUnits="userSpaceOnUse">
<stop stop-color="#F7C9A3"/>
<stop offset="1" stop-color="#F4DBCC"/>
</linearGradient>
<radialGradient id="paint34_radial" cx="0" cy="0" r="1" gradientUnits="userSpaceOnUse" gradientTransform="translate(51.3252 17.8891) scale(6.9334)">
<stop offset="0.0637" stop-color="#EC857E"/>
<stop offset="0.3497" stop-color="#E76B69"/>
<stop offset="0.6666" stop-color="#DE5C5C"/>
<stop offset="0.9231" stop-color="#D0413D"/>
</radialGradient>
<radialGradient id="paint35_radial" cx="0" cy="0" r="1" gradientUnits="userSpaceOnUse" gradientTransform="translate(51.5651 17.826) scale(6.893)">
<stop offset="0.0637" stop-color="#EC857E"/>
<stop offset="0.3497" stop-color="#E76B69"/>
<stop offset="0.6666" stop-color="#DE5C5C"/>
<stop offset="0.9231" stop-color="#D0413D"/>
</radialGradient>
<radialGradient id="paint36_radial" cx="0" cy="0" r="1" gradientUnits="userSpaceOnUse" gradientTransform="translate(53.9367 7.57968) scale(5.9509)">
<stop offset="0.0637" stop-color="#EC857E"/>
<stop offset="0.3497" stop-color="#E76B69"/>
<stop offset="0.6666" stop-color="#DE5C5C"/>
<stop offset="0.9231" stop-color="#D0413D"/>
</radialGradient>
<radialGradient id="paint37_radial" cx="0" cy="0" r="1" gradientUnits="userSpaceOnUse" gradientTransform="translate(4.52218 16.554) scale(5.2619)">
<stop offset="0.0637" stop-color="#EC857E"/>
<stop offset="0.3497" stop-color="#E76B69"/>
<stop offset="0.6666" stop-color="#DE5C5C"/>
<stop offset="0.9231" stop-color="#D0413D"/>
</radialGradient>
<radialGradient id="paint38_radial" cx="0" cy="0" r="1" gradientUnits="userSpaceOnUse" gradientTransform="translate(4.522 16.5541) scale(5.2617)">
<stop offset="0.0637" stop-color="#EC857E"/>
<stop offset="0.3497" stop-color="#E76B69"/>
<stop offset="0.6666" stop-color="#DE5C5C"/>
<stop offset="0.9231" stop-color="#D0413D"/>
</radialGradient>
<radialGradient id="paint39_radial" cx="0" cy="0" r="1" gradientUnits="userSpaceOnUse" gradientTransform="translate(4.52186 16.5537) scale(5.2621)">
<stop offset="0.0637" stop-color="#EC857E"/>
<stop offset="0.3497" stop-color="#E76B69"/>
<stop offset="0.6666" stop-color="#DE5C5C"/>
<stop offset="0.9231" stop-color="#D0413D"/>
</radialGradient>
<radialGradient id="paint40_radial" cx="0" cy="0" r="1" gradientUnits="userSpaceOnUse" gradientTransform="translate(33.6703 16.0287) scale(30.8035 30.8034)">
<stop offset="0.0637" stop-color="#EC857E"/>
<stop offset="0.3497" stop-color="#E76B69"/>
<stop offset="0.6666" stop-color="#DE5C5C"/>
<stop offset="0.9231" stop-color="#D0413D"/>
</radialGradient>
<radialGradient id="paint41_radial" cx="0" cy="0" r="1" gradientUnits="userSpaceOnUse" gradientTransform="translate(33.6719 16.0288) scale(30.797)">
<stop offset="0.0637" stop-color="#EC857E"/>
<stop offset="0.3497" stop-color="#E76B69"/>
<stop offset="0.6666" stop-color="#DE5C5C"/>
<stop offset="0.9231" stop-color="#D0413D"/>
</radialGradient>
<radialGradient id="paint42_radial" cx="0" cy="0" r="1" gradientUnits="userSpaceOnUse" gradientTransform="translate(18.8918 15.5895) scale(30.7943)">
<stop offset="0.0637" stop-color="#EC857E"/>
<stop offset="0.3497" stop-color="#E76B69"/>
<stop offset="0.6666" stop-color="#DE5C5C"/>
<stop offset="0.9231" stop-color="#D0413D"/>
</radialGradient>
<radialGradient id="paint43_radial" cx="0" cy="0" r="1" gradientUnits="userSpaceOnUse" gradientTransform="translate(33.6731 16.0278) scale(30.7937)">
<stop offset="0.0637" stop-color="#EC857E"/>
<stop offset="0.3497" stop-color="#E76B69"/>
<stop offset="0.6666" stop-color="#DE5C5C"/>
<stop offset="0.9231" stop-color="#D0413D"/>
</radialGradient>
<radialGradient id="paint44_radial" cx="0" cy="0" r="1" gradientUnits="userSpaceOnUse" gradientTransform="translate(33.6715 16.0276) scale(30.8)">
<stop offset="0.0637" stop-color="#EC857E"/>
<stop offset="0.3497" stop-color="#E76B69"/>
<stop offset="0.6666" stop-color="#DE5C5C"/>
<stop offset="0.9231" stop-color="#D0413D"/>
</radialGradient>
<radialGradient id="paint45_radial" cx="0" cy="0" r="1" gradientUnits="userSpaceOnUse" gradientTransform="translate(33.677 16.0279) scale(30.7809 30.7811)">
<stop offset="0.0637" stop-color="#EC857E"/>
<stop offset="0.3497" stop-color="#E76B69"/>
<stop offset="0.6666" stop-color="#DE5C5C"/>
<stop offset="0.9231" stop-color="#D0413D"/>
</radialGradient>
<radialGradient id="paint46_radial" cx="0" cy="0" r="1" gradientUnits="userSpaceOnUse" gradientTransform="translate(53.1255 17.8083) scale(30.7948 30.7949)">
<stop offset="0.0637" stop-color="#EC857E"/>
<stop offset="0.3497" stop-color="#E76B69"/>
<stop offset="0.6666" stop-color="#DE5C5C"/>
<stop offset="0.9231" stop-color="#D0413D"/>
</radialGradient>
<radialGradient id="paint47_radial" cx="0" cy="0" r="1" gradientUnits="userSpaceOnUse" gradientTransform="translate(53.2539 18.7404) scale(30.7939 30.794)">
<stop offset="0.0637" stop-color="#EC857E"/>
<stop offset="0.3497" stop-color="#E76B69"/>
<stop offset="0.6666" stop-color="#DE5C5C"/>
<stop offset="0.9231" stop-color="#D0413D"/>
</radialGradient>
<radialGradient id="paint48_radial" cx="0" cy="0" r="1" gradientUnits="userSpaceOnUse" gradientTransform="translate(48.2332 16.2503) scale(30.8074 30.8069)">
<stop offset="0.0637" stop-color="#EC857E"/>
<stop offset="0.3497" stop-color="#E76B69"/>
<stop offset="0.6666" stop-color="#DE5C5C"/>
<stop offset="0.9231" stop-color="#D0413D"/>
</radialGradient>
<radialGradient id="paint49_radial" cx="0" cy="0" r="1" gradientUnits="userSpaceOnUse" gradientTransform="translate(51.9622 21.1962) scale(30.7966 30.7965)">
<stop offset="0.0637" stop-color="#EC857E"/>
<stop offset="0.3497" stop-color="#E76B69"/>
<stop offset="0.6666" stop-color="#DE5C5C"/>
<stop offset="0.9231" stop-color="#D0413D"/>
</radialGradient>
<radialGradient id="paint50_radial" cx="0" cy="0" r="1" gradientUnits="userSpaceOnUse" gradientTransform="translate(49.8381 16.7261) scale(30.8043 30.8045)">
<stop offset="0.0637" stop-color="#EC857E"/>
<stop offset="0.3497" stop-color="#E76B69"/>
<stop offset="0.6666" stop-color="#DE5C5C"/>
<stop offset="0.9231" stop-color="#D0413D"/>
</radialGradient>
<radialGradient id="paint51_radial" cx="0" cy="0" r="1" gradientUnits="userSpaceOnUse" gradientTransform="translate(33.6723 16.0267) scale(30.8007 30.8009)">
<stop offset="0.0637" stop-color="#EC857E"/>
<stop offset="0.3497" stop-color="#E76B69"/>
<stop offset="0.6666" stop-color="#DE5C5C"/>
<stop offset="0.9231" stop-color="#D0413D"/>
</radialGradient>
<radialGradient id="paint52_radial" cx="0" cy="0" r="1" gradientUnits="userSpaceOnUse" gradientTransform="translate(5.46817 22.6232) scale(30.8021)">
<stop offset="0.0637" stop-color="#EC857E"/>
<stop offset="0.3497" stop-color="#E76B69"/>
<stop offset="0.6666" stop-color="#DE5C5C"/>
<stop offset="0.9231" stop-color="#D0413D"/>
</radialGradient>
<radialGradient id="paint53_radial" cx="0" cy="0" r="1" gradientUnits="userSpaceOnUse" gradientTransform="translate(33.6729 16.0318) scale(30.767)">
<stop offset="0.0637" stop-color="#EC857E"/>
<stop offset="0.3497" stop-color="#E76B69"/>
<stop offset="0.6666" stop-color="#DE5C5C"/>
<stop offset="0.9231" stop-color="#D0413D"/>
</radialGradient>
<radialGradient id="paint54_radial" cx="0" cy="0" r="1" gradientUnits="userSpaceOnUse" gradientTransform="translate(20.7866 18.1399) scale(30.8082 30.8076)">
<stop offset="0.0637" stop-color="#EC857E"/>
<stop offset="0.3497" stop-color="#E76B69"/>
<stop offset="0.6666" stop-color="#DE5C5C"/>
<stop offset="0.9231" stop-color="#D0413D"/>
</radialGradient>
<radialGradient id="paint55_radial" cx="0" cy="0" r="1" gradientUnits="userSpaceOnUse" gradientTransform="translate(44.1241 7.3994) scale(30.7795)">
<stop offset="0.0637" stop-color="#EC857E"/>
<stop offset="0.3497" stop-color="#E76B69"/>
<stop offset="0.6666" stop-color="#DE5C5C"/>
<stop offset="0.9231" stop-color="#D0413D"/>
</radialGradient>
<radialGradient id="paint56_radial" cx="0" cy="0" r="1" gradientUnits="userSpaceOnUse" gradientTransform="translate(2.56839 16.8498) scale(30.8111)">
<stop offset="0.0637" stop-color="#EC857E"/>
<stop offset="0.3497" stop-color="#E76B69"/>
<stop offset="0.6666" stop-color="#DE5C5C"/>
<stop offset="0.9231" stop-color="#D0413D"/>
</radialGradient>
<radialGradient id="paint57_radial" cx="0" cy="0" r="1" gradientUnits="userSpaceOnUse" gradientTransform="translate(8.775 7.05849) scale(30.78)">
<stop offset="0.0637" stop-color="#EC857E"/>
<stop offset="0.3497" stop-color="#E76B69"/>
<stop offset="0.6666" stop-color="#DE5C5C"/>
<stop offset="0.9231" stop-color="#D0413D"/>
</radialGradient>
<radialGradient id="paint58_radial" cx="0" cy="0" r="1" gradientUnits="userSpaceOnUse" gradientTransform="translate(33.6723 16.0312) scale(30.8076 30.8077)">
<stop offset="0.0637" stop-color="#EC857E"/>
<stop offset="0.3497" stop-color="#E76B69"/>
<stop offset="0.6666" stop-color="#DE5C5C"/>
<stop offset="0.9231" stop-color="#D0413D"/>
</radialGradient>
<radialGradient id="paint59_radial" cx="0" cy="0" r="1" gradientUnits="userSpaceOnUse" gradientTransform="translate(37.0268 17.0561) scale(30.8186 30.8187)">
<stop offset="0.0637" stop-color="#EC857E"/>
<stop offset="0.3497" stop-color="#E76B69"/>
<stop offset="0.6666" stop-color="#DE5C5C"/>
<stop offset="0.9231" stop-color="#D0413D"/>
</radialGradient>
<radialGradient id="paint60_radial" cx="0" cy="0" r="1" gradientUnits="userSpaceOnUse" gradientTransform="translate(22.6823 25.1241) scale(30.8121 30.8119)">
<stop offset="0.0637" stop-color="#EC857E"/>
<stop offset="0.3497" stop-color="#E76B69"/>
<stop offset="0.6666" stop-color="#DE5C5C"/>
<stop offset="0.9231" stop-color="#D0413D"/>
</radialGradient>
<radialGradient id="paint61_radial" cx="0" cy="0" r="1" gradientUnits="userSpaceOnUse" gradientTransform="translate(33.6724 16.0277) scale(30.7945)">
<stop offset="0.0637" stop-color="#EC857E"/>
<stop offset="0.3497" stop-color="#E76B69"/>
<stop offset="0.6666" stop-color="#DE5C5C"/>
<stop offset="0.9231" stop-color="#D0413D"/>
</radialGradient>
<radialGradient id="paint62_radial" cx="0" cy="0" r="1" gradientUnits="userSpaceOnUse" gradientTransform="translate(33.672 16.0277) scale(30.7964)">
<stop offset="0.0637" stop-color="#EC857E"/>
<stop offset="0.3497" stop-color="#E76B69"/>
<stop offset="0.6666" stop-color="#DE5C5C"/>
<stop offset="0.9231" stop-color="#D0413D"/>
</radialGradient>
<radialGradient id="paint63_radial" cx="0" cy="0" r="1" gradientUnits="userSpaceOnUse" gradientTransform="translate(33.6722 16.0252) scale(30.784)">
<stop offset="0.0637" stop-color="#EC857E"/>
<stop offset="0.3497" stop-color="#E76B69"/>
<stop offset="0.6666" stop-color="#DE5C5C"/>
<stop offset="0.9231" stop-color="#D0413D"/>
</radialGradient>
<radialGradient id="paint64_radial" cx="0" cy="0" r="1" gradientUnits="userSpaceOnUse" gradientTransform="translate(33.6714 16.0264) scale(30.7945 30.7947)">
<stop offset="0.0637" stop-color="#EC857E"/>
<stop offset="0.3497" stop-color="#E76B69"/>
<stop offset="0.6666" stop-color="#DE5C5C"/>
<stop offset="0.9231" stop-color="#D0413D"/>
</radialGradient>
<radialGradient id="paint65_radial" cx="0" cy="0" r="1" gradientUnits="userSpaceOnUse" gradientTransform="translate(33.6718 16.0277) scale(30.7945 30.7947)">
<stop offset="0.0637" stop-color="#EC857E"/>
<stop offset="0.3497" stop-color="#E76B69"/>
<stop offset="0.6666" stop-color="#DE5C5C"/>
<stop offset="0.9231" stop-color="#D0413D"/>
</radialGradient>
<radialGradient id="paint66_radial" cx="0" cy="0" r="1" gradientUnits="userSpaceOnUse" gradientTransform="translate(33.6706 16.0278) scale(30.7848)">
<stop offset="0.0637" stop-color="#EC857E"/>
<stop offset="0.3497" stop-color="#E76B69"/>
<stop offset="0.6666" stop-color="#DE5C5C"/>
<stop offset="0.9231" stop-color="#D0413D"/>
</radialGradient>
<radialGradient id="paint67_radial" cx="0" cy="0" r="1" gradientUnits="userSpaceOnUse" gradientTransform="translate(32.2621 21.6186) scale(30.7976)">
<stop offset="0.0637" stop-color="#EC857E"/>
<stop offset="0.3497" stop-color="#E76B69"/>
<stop offset="0.6666" stop-color="#DE5C5C"/>
<stop offset="0.9231" stop-color="#D0413D"/>
</radialGradient>
<radialGradient id="paint68_radial" cx="0" cy="0" r="1" gradientUnits="userSpaceOnUse" gradientTransform="translate(26.1339 3.20263) rotate(-59.4755) scale(30.7987)">
<stop offset="0.0637" stop-color="#EC857E"/>
<stop offset="0.3497" stop-color="#E76B69"/>
<stop offset="0.6666" stop-color="#DE5C5C"/>
<stop offset="0.9231" stop-color="#D0413D"/>
</radialGradient>
<radialGradient id="paint69_radial" cx="0" cy="0" r="1" gradientUnits="userSpaceOnUse" gradientTransform="translate(26.1324 3.20388) rotate(-59.4755) scale(30.7943)">
<stop offset="0.0637" stop-color="#EC857E"/>
<stop offset="0.3497" stop-color="#E76B69"/>
<stop offset="0.6666" stop-color="#DE5C5C"/>
<stop offset="0.9231" stop-color="#D0413D"/>
</radialGradient>
<radialGradient id="paint70_radial" cx="0" cy="0" r="1" gradientUnits="userSpaceOnUse" gradientTransform="translate(26.1344 3.20249) rotate(-59.4755) scale(30.8003)">
<stop offset="0.0637" stop-color="#EC857E"/>
<stop offset="0.3497" stop-color="#E76B69"/>
<stop offset="0.6666" stop-color="#DE5C5C"/>
<stop offset="0.9231" stop-color="#D0413D"/>
</radialGradient>
<radialGradient id="paint71_radial" cx="0" cy="0" r="1" gradientUnits="userSpaceOnUse" gradientTransform="translate(22.2869 8.77478) rotate(-59.4755) scale(30.7922)">
<stop offset="0.0637" stop-color="#EC857E"/>
<stop offset="0.3497" stop-color="#E76B69"/>
<stop offset="0.6666" stop-color="#DE5C5C"/>
<stop offset="0.9231" stop-color="#D0413D"/>
</radialGradient>
<radialGradient id="paint72_radial" cx="0" cy="0" r="1" gradientUnits="userSpaceOnUse" gradientTransform="translate(26.1305 3.20936) rotate(-59.4755) scale(30.7731)">
<stop offset="0.0637" stop-color="#EC857E"/>
<stop offset="0.3497" stop-color="#E76B69"/>
<stop offset="0.6666" stop-color="#DE5C5C"/>
<stop offset="0.9231" stop-color="#D0413D"/>
</radialGradient>
<radialGradient id="paint73_radial" cx="0" cy="0" r="1" gradientUnits="userSpaceOnUse" gradientTransform="translate(13.2995 3.00553) rotate(-59.4754) scale(30.8071)">
<stop offset="0.0637" stop-color="#EC857E"/>
<stop offset="0.3497" stop-color="#E76B69"/>
<stop offset="0.6666" stop-color="#DE5C5C"/>
<stop offset="0.9231" stop-color="#D0413D"/>
</radialGradient>
<radialGradient id="paint74_radial" cx="0" cy="0" r="1" gradientUnits="userSpaceOnUse" gradientTransform="translate(15.6884 9.23955) rotate(-59.4751) scale(30.7875 30.7877)">
<stop offset="0.0637" stop-color="#EC857E"/>
<stop offset="0.3497" stop-color="#E76B69"/>
<stop offset="0.6666" stop-color="#DE5C5C"/>
<stop offset="0.9231" stop-color="#D0413D"/>
</radialGradient>
<radialGradient id="paint75_radial" cx="0" cy="0" r="1" gradientUnits="userSpaceOnUse" gradientTransform="translate(26.1374 3.20122) rotate(-59.4755) scale(30.7997)">
<stop offset="0.0637" stop-color="#EC857E"/>
<stop offset="0.3497" stop-color="#E76B69"/>
<stop offset="0.6666" stop-color="#DE5C5C"/>
<stop offset="0.9231" stop-color="#D0413D"/>
</radialGradient>
<radialGradient id="paint76_radial" cx="0" cy="0" r="1" gradientUnits="userSpaceOnUse" gradientTransform="translate(49.2498 12.4984) rotate(-59.4755) scale(30.8102)">
<stop offset="0.0637" stop-color="#EC857E"/>
<stop offset="0.3497" stop-color="#E76B69"/>
<stop offset="0.6666" stop-color="#DE5C5C"/>
<stop offset="0.9231" stop-color="#D0413D"/>
</radialGradient>
<radialGradient id="paint77_radial" cx="0" cy="0" r="1" gradientUnits="userSpaceOnUse" gradientTransform="translate(0.295509 11.417) rotate(-59.4755) scale(30.8002)">
<stop offset="0.0637" stop-color="#EC857E"/>
<stop offset="0.3497" stop-color="#E76B69"/>
<stop offset="0.6666" stop-color="#DE5C5C"/>
<stop offset="0.9231" stop-color="#D0413D"/>
</radialGradient>
<radialGradient id="paint78_radial" cx="0" cy="0" r="1" gradientUnits="userSpaceOnUse" gradientTransform="translate(2.24704 6.04623) rotate(-59.4755) scale(30.7984)">
<stop offset="0.0637" stop-color="#EC857E"/>
<stop offset="0.3497" stop-color="#E76B69"/>
<stop offset="0.6666" stop-color="#DE5C5C"/>
<stop offset="0.9231" stop-color="#D0413D"/>
</radialGradient>
<radialGradient id="paint79_radial" cx="0" cy="0" r="1" gradientUnits="userSpaceOnUse" gradientTransform="translate(49.305 13.2244) rotate(-59.4754) scale(30.7943)">
<stop offset="0.0637" stop-color="#EC857E"/>
<stop offset="0.3497" stop-color="#E76B69"/>
<stop offset="0.6666" stop-color="#DE5C5C"/>
<stop offset="0.9231" stop-color="#D0413D"/>
</radialGradient>
<radialGradient id="paint80_radial" cx="0" cy="0" r="1" gradientUnits="userSpaceOnUse" gradientTransform="translate(49.3071 13.2236) rotate(-59.4754) scale(30.7976)">
<stop offset="0.0637" stop-color="#EC857E"/>
<stop offset="0.3497" stop-color="#E76B69"/>
<stop offset="0.6666" stop-color="#DE5C5C"/>
<stop offset="0.9231" stop-color="#D0413D"/>
</radialGradient>
<radialGradient id="paint81_radial" cx="0" cy="0" r="1" gradientUnits="userSpaceOnUse" gradientTransform="translate(51.4934 13.8925) rotate(-59.4755) scale(30.8007)">
<stop offset="0.0637" stop-color="#EC857E"/>
<stop offset="0.3497" stop-color="#E76B69"/>
<stop offset="0.6666" stop-color="#DE5C5C"/>
<stop offset="0.9231" stop-color="#D0413D"/>
</radialGradient>
<radialGradient id="paint82_radial" cx="0" cy="0" r="1" gradientUnits="userSpaceOnUse" gradientTransform="translate(14.2769 0.514572) rotate(-59.4756) scale(30.8036)">
<stop offset="0.0637" stop-color="#EC857E"/>
<stop offset="0.3497" stop-color="#E76B69"/>
<stop offset="0.6666" stop-color="#DE5C5C"/>
<stop offset="0.9231" stop-color="#D0413D"/>
</radialGradient>
<radialGradient id="paint83_radial" cx="0" cy="0" r="1" gradientUnits="userSpaceOnUse" gradientTransform="translate(49.3103 13.2217) rotate(-59.4755) scale(30.7995)">
<stop offset="0.0637" stop-color="#EC857E"/>
<stop offset="0.3497" stop-color="#E76B69"/>
<stop offset="0.6666" stop-color="#DE5C5C"/>
<stop offset="0.9231" stop-color="#D0413D"/>
</radialGradient>
<radialGradient id="paint84_radial" cx="0" cy="0" r="1" gradientUnits="userSpaceOnUse" gradientTransform="translate(50.9989 9.57897) rotate(-59.4755) scale(30.7957)">
<stop offset="0.0637" stop-color="#EC857E"/>
<stop offset="0.3497" stop-color="#E76B69"/>
<stop offset="0.6666" stop-color="#DE5C5C"/>
<stop offset="0.9231" stop-color="#D0413D"/>
</radialGradient>
<radialGradient id="paint85_radial" cx="0" cy="0" r="1" gradientUnits="userSpaceOnUse" gradientTransform="translate(57.4196 8.38821) rotate(-59.4755) scale(30.7912)">
<stop offset="0.0637" stop-color="#EC857E"/>
<stop offset="0.3497" stop-color="#E76B69"/>
<stop offset="0.6666" stop-color="#DE5C5C"/>
<stop offset="0.9231" stop-color="#D0413D"/>
</radialGradient>
<radialGradient id="paint86_radial" cx="0" cy="0" r="1" gradientUnits="userSpaceOnUse" gradientTransform="translate(26.1337 3.20393) rotate(-59.4754) scale(30.7948)">
<stop offset="0.0637" stop-color="#EC857E"/>
<stop offset="0.3497" stop-color="#E76B69"/>
<stop offset="0.6666" stop-color="#DE5C5C"/>
<stop offset="0.9231" stop-color="#D0413D"/>
</radialGradient>
<radialGradient id="paint87_radial" cx="0" cy="0" r="1" gradientUnits="userSpaceOnUse" gradientTransform="translate(17.4782 7.58014) rotate(-59.4754) scale(30.7938)">
<stop offset="0.0637" stop-color="#EC857E"/>
<stop offset="0.3497" stop-color="#E76B69"/>
<stop offset="0.6666" stop-color="#DE5C5C"/>
<stop offset="0.9231" stop-color="#D0413D"/>
</radialGradient>
<radialGradient id="paint88_radial" cx="0" cy="0" r="1" gradientUnits="userSpaceOnUse" gradientTransform="translate(26.1326 3.2054) rotate(-59.4754) scale(30.7907)">
<stop offset="0.0637" stop-color="#EC857E"/>
<stop offset="0.3497" stop-color="#E76B69"/>
<stop offset="0.6666" stop-color="#DE5C5C"/>
<stop offset="0.9231" stop-color="#D0413D"/>
</radialGradient>
<radialGradient id="paint89_radial" cx="0" cy="0" r="1" gradientUnits="userSpaceOnUse" gradientTransform="translate(21.6564 3.84151) rotate(-59.4756) scale(30.7775)">
<stop offset="0.0637" stop-color="#EC857E"/>
<stop offset="0.3497" stop-color="#E76B69"/>
<stop offset="0.6666" stop-color="#DE5C5C"/>
<stop offset="0.9231" stop-color="#D0413D"/>
</radialGradient>
<radialGradient id="paint90_radial" cx="0" cy="0" r="1" gradientUnits="userSpaceOnUse" gradientTransform="translate(26.1353 3.20139) rotate(-59.4755) scale(30.8038)">
<stop offset="0.0637" stop-color="#EC857E"/>
<stop offset="0.3497" stop-color="#E76B69"/>
<stop offset="0.6666" stop-color="#DE5C5C"/>
<stop offset="0.9231" stop-color="#D0413D"/>
</radialGradient>
<radialGradient id="paint91_radial" cx="0" cy="0" r="1" gradientUnits="userSpaceOnUse" gradientTransform="translate(25.208 0.531186) rotate(-59.4755) scale(30.7884)">
<stop offset="0.0637" stop-color="#EC857E"/>
<stop offset="0.3497" stop-color="#E76B69"/>
<stop offset="0.6666" stop-color="#DE5C5C"/>
<stop offset="0.9231" stop-color="#D0413D"/>
</radialGradient>
<radialGradient id="paint92_radial" cx="0" cy="0" r="1" gradientUnits="userSpaceOnUse" gradientTransform="translate(30.7539 -0.591124) rotate(-59.4755) scale(30.8039)">
<stop offset="0.0637" stop-color="#EC857E"/>
<stop offset="0.3497" stop-color="#E76B69"/>
<stop offset="0.6666" stop-color="#DE5C5C"/>
<stop offset="0.9231" stop-color="#D0413D"/>
</radialGradient>
<radialGradient id="paint93_radial" cx="0" cy="0" r="1" gradientUnits="userSpaceOnUse" gradientTransform="translate(35.6157 5.29766) rotate(-59.4753) scale(30.7907 30.7909)">
<stop offset="0.0637" stop-color="#EC857E"/>
<stop offset="0.3497" stop-color="#E76B69"/>
<stop offset="0.6666" stop-color="#DE5C5C"/>
<stop offset="0.9231" stop-color="#D0413D"/>
</radialGradient>
<radialGradient id="paint94_radial" cx="0" cy="0" r="1" gradientUnits="userSpaceOnUse" gradientTransform="translate(26.1323 3.20472) rotate(-59.4755) scale(30.7934)">
<stop offset="0.0637" stop-color="#EC857E"/>
<stop offset="0.3497" stop-color="#E76B69"/>
<stop offset="0.6666" stop-color="#DE5C5C"/>
<stop offset="0.9231" stop-color="#D0413D"/>
</radialGradient>
<radialGradient id="paint95_radial" cx="0" cy="0" r="1" gradientUnits="userSpaceOnUse" gradientTransform="translate(26.1339 3.2029) rotate(-59.4755) scale(30.7983)">
<stop offset="0.0637" stop-color="#EC857E"/>
<stop offset="0.3497" stop-color="#E76B69"/>
<stop offset="0.6666" stop-color="#DE5C5C"/>
<stop offset="0.9231" stop-color="#D0413D"/>
</radialGradient>
<radialGradient id="paint96_radial" cx="0" cy="0" r="1" gradientUnits="userSpaceOnUse" gradientTransform="translate(26.1356 3.19985) rotate(-59.4755) scale(30.806)">
<stop offset="0.0637" stop-color="#EC857E"/>
<stop offset="0.3497" stop-color="#E76B69"/>
<stop offset="0.6666" stop-color="#DE5C5C"/>
<stop offset="0.9231" stop-color="#D0413D"/>
</radialGradient>
<radialGradient id="paint97_radial" cx="0" cy="0" r="1" gradientUnits="userSpaceOnUse" gradientTransform="translate(26.1294 3.20914) rotate(-59.4752) scale(30.7791 30.7793)">
<stop offset="0.0637" stop-color="#EC857E"/>
<stop offset="0.3497" stop-color="#E76B69"/>
<stop offset="0.6666" stop-color="#DE5C5C"/>
<stop offset="0.9231" stop-color="#D0413D"/>
</radialGradient>
<radialGradient id="paint98_radial" cx="0" cy="0" r="1" gradientUnits="userSpaceOnUse" gradientTransform="translate(14.6948 16.6052) rotate(-59.4755) scale(30.7864)">
<stop offset="0.0637" stop-color="#EC857E"/>
<stop offset="0.3497" stop-color="#E76B69"/>
<stop offset="0.6666" stop-color="#DE5C5C"/>
<stop offset="0.9231" stop-color="#D0413D"/>
</radialGradient>
<radialGradient id="paint99_radial" cx="0" cy="0" r="1" gradientUnits="userSpaceOnUse" gradientTransform="translate(14.6974 16.603) rotate(-59.4752) scale(30.7963 30.7965)">
<stop offset="0.0637" stop-color="#EC857E"/>
<stop offset="0.3497" stop-color="#E76B69"/>
<stop offset="0.6666" stop-color="#DE5C5C"/>
<stop offset="0.9231" stop-color="#D0413D"/>
</radialGradient>
<radialGradient id="paint100_radial" cx="0" cy="0" r="1" gradientUnits="userSpaceOnUse" gradientTransform="translate(14.6921 16.613) rotate(-59.4755) scale(30.7683)">
<stop offset="0.0637" stop-color="#EC857E"/>
<stop offset="0.3497" stop-color="#E76B69"/>
<stop offset="0.6666" stop-color="#DE5C5C"/>
<stop offset="0.9231" stop-color="#D0413D"/>
</radialGradient>
<radialGradient id="paint101_radial" cx="0" cy="0" r="1" gradientUnits="userSpaceOnUse" gradientTransform="translate(30.4644 -1.13291) rotate(-59.4752) scale(30.8178 30.818)">
<stop offset="0.0637" stop-color="#EC857E"/>
<stop offset="0.3497" stop-color="#E76B69"/>
<stop offset="0.6666" stop-color="#DE5C5C"/>
<stop offset="0.9231" stop-color="#D0413D"/>
</radialGradient>
<radialGradient id="paint102_radial" cx="0" cy="0" r="1" gradientUnits="userSpaceOnUse" gradientTransform="translate(17.4263 4.57402) rotate(-59.4755) scale(30.7744)">
<stop offset="0.0637" stop-color="#EC857E"/>
<stop offset="0.3497" stop-color="#E76B69"/>
<stop offset="0.6666" stop-color="#DE5C5C"/>
<stop offset="0.9231" stop-color="#D0413D"/>
</radialGradient>
<radialGradient id="paint103_radial" cx="0" cy="0" r="1" gradientUnits="userSpaceOnUse" gradientTransform="translate(30.4634 1.008) rotate(-59.4752) scale(30.8139 30.8141)">
<stop offset="0.0637" stop-color="#EC857E"/>
<stop offset="0.3497" stop-color="#E76B69"/>
<stop offset="0.6666" stop-color="#DE5C5C"/>
<stop offset="0.9231" stop-color="#D0413D"/>
</radialGradient>
<radialGradient id="paint104_radial" cx="0" cy="0" r="1" gradientUnits="userSpaceOnUse" gradientTransform="translate(26.1364 3.20381) rotate(-59.4754) scale(30.8006)">
<stop offset="0.0637" stop-color="#EC857E"/>
<stop offset="0.3497" stop-color="#E76B69"/>
<stop offset="0.6666" stop-color="#DE5C5C"/>
<stop offset="0.9231" stop-color="#D0413D"/>
</radialGradient>
<radialGradient id="paint105_radial" cx="0" cy="0" r="1" gradientUnits="userSpaceOnUse" gradientTransform="translate(26.1272 3.20872) rotate(-59.4754) scale(30.7838)">
<stop offset="0.0637" stop-color="#EC857E"/>
<stop offset="0.3497" stop-color="#E76B69"/>
<stop offset="0.6666" stop-color="#DE5C5C"/>
<stop offset="0.9231" stop-color="#D0413D"/>
</radialGradient>
<radialGradient id="paint106_radial" cx="0" cy="0" r="1" gradientUnits="userSpaceOnUse" gradientTransform="translate(24.8947 6.46109) scale(29.7306)">
<stop offset="0.0637" stop-color="#EC857E"/>
<stop offset="0.3497" stop-color="#E76B69"/>
<stop offset="0.6666" stop-color="#DE5C5C"/>
<stop offset="0.9231" stop-color="#D0413D"/>
</radialGradient>
<linearGradient id="paint107_linear" x1="34.1132" y1="6.82279" x2="52.6348" y2="33.8686" gradientUnits="userSpaceOnUse">
<stop stop-color="#F7C9A3"/>
<stop offset="1" stop-color="#F4DBCC"/>
</linearGradient>
<linearGradient id="paint108_linear" x1="0.741476" y1="22.8638" x2="21.2924" y2="22.8638" gradientUnits="userSpaceOnUse">
<stop stop-color="#F7C9A3"/>
<stop offset="1" stop-color="#F4DBCC"/>
</linearGradient>
<linearGradient id="paint109_linear" x1="11.9902" y1="7.80559" x2="18.1457" y2="34.1635" gradientUnits="userSpaceOnUse">
<stop stop-color="#F7C9A3"/>
<stop offset="1" stop-color="#F4DBCC"/>
</linearGradient>
<linearGradient id="paint110_linear" x1="11.5535" y1="7.90276" x2="17.7105" y2="34.2671" gradientUnits="userSpaceOnUse">
<stop offset="0.2756" stop-color="#FFF8EC"/>
<stop offset="0.464" stop-color="#F7C9A3"/>
<stop offset="0.8446" stop-color="#F2E6E3"/>
<stop offset="1" stop-color="#D9B993"/>
</linearGradient>
<radialGradient id="paint111_radial" cx="0" cy="0" r="1" gradientUnits="userSpaceOnUse" gradientTransform="translate(56.3057 10.8811) scale(16.5492)">
<stop offset="0.0637" stop-color="#EC857E"/>
<stop offset="0.3497" stop-color="#E76B69"/>
<stop offset="0.6666" stop-color="#DE5C5C"/>
<stop offset="0.9231" stop-color="#D0413D"/>
</radialGradient>
<linearGradient id="paint112_linear" x1="56.4675" y1="12.3149" x2="67.9528" y2="25.3051" gradientUnits="userSpaceOnUse">
<stop stop-color="#F7C9A3"/>
<stop offset="1" stop-color="#F4DBCC"/>
</linearGradient>
<linearGradient id="paint113_linear" x1="57.0589" y1="11.7915" x2="68.5448" y2="24.7823" gradientUnits="userSpaceOnUse">
<stop offset="0.2756" stop-color="#FFF8EC"/>
<stop offset="0.464" stop-color="#F7C9A3"/>
<stop offset="0.8446" stop-color="#F2E6E3"/>
<stop offset="1" stop-color="#D9B993"/>
</linearGradient>
</defs>
</svg>
