<svg width="128" height="101" viewBox="0 0 128 101" fill="none" xmlns="http://www.w3.org/2000/svg">
<path d="M70.83 78.83L20.25 57C20.25 57 16.25 62 21.25 65C26.25 68 62.42 86.67 70.67 86.67C70.77 86.67 70.89 86.64 71 86.63C70.99 84 70.93 81.41 70.83 78.83Z" fill="url(#paint0_linear)"/>
<path d="M126.5 36.83L70.86 79.83C70.94 82.08 70.99 84.34 70.99 86.63C79.87 85.87 119.57 52.77 123.49 49.83C128.5 46.08 126.5 36.83 126.5 36.83Z" fill="url(#paint1_linear)"/>
<path d="M14.53 28.48C16.09 26.23 21.01 27.36 31.13 19.49C36.62 15.22 43.92 12.4 50.15 9.55C53 8.25 57.58 6.32 60.17 4.5C63.28 2.43 72.17 0 74.5 0C77.25 0 80.48 2.81 84.63 3.84C92.67 5.91 101.49 9.29 110.04 13.43C115.66 16.16 123.61 16.11 125.69 22.85C125.69 22.85 125.58 26.44 117.56 32.96C105.75 42.56 83.24 56.52 71.4 58.37C40.81 52.68 14.53 28.48 14.53 28.48Z" fill="url(#paint2_radial)"/>
<path d="M70.25 81.54C73 82.04 76.25 80.29 83.08 76.34C85.89 74.71 91.64 70.89 91.12 67.26C92.68 67 95.27 65.44 96.31 64.41C98.64 62.34 96.57 61.56 97.35 60.52C98.39 59.22 102.02 60.52 103.57 60C105.39 59.48 109.53 56.89 109.28 55.07C113.69 54.81 115.93 51.59 119.13 49.11C120.69 47.89 123.76 46.44 126.87 44.62C127.23 39.9 126.87 22.89 125.7 22.86C124.92 23.9 123.02 25.11 121.98 26.14C120.68 27.18 119.9 28.99 118.61 30.03C115.5 32.62 112.39 29.25 109.53 32.36C105.38 37.03 98.12 44.29 91.12 44.55C91.64 45.07 91.9 46.11 92.16 46.62C90.08 47.92 88.01 48.18 86.2 49.47C84.38 50.77 83.09 52.06 81.01 53.36C79.19 54.4 77.38 55.43 75.05 55.95C73.49 56.47 71.77 56.47 70.64 56.47L70.25 81.54Z" fill="url(#paint3_radial)"/>
<path d="M13.84 43.18C13.75 49.75 14.13 56.25 17.47 57.5C19.67 58.32 21.96 59.4 24.21 60.44C26.46 61.48 28.01 63.21 29.91 64.42C32.33 65.98 35.27 66.84 37.86 67.88C40.28 68.74 42.35 70.13 44.6 71.16C45.98 71.85 47.37 72.37 48.58 73.06C49.27 73.41 51.52 74.79 52.04 74.96C52.9 75.13 52.21 73.58 53.08 73.75C54.98 74.1 56.37 79.8 60.51 77.38C62.24 79.63 61.55 78.84 64.49 80.05C66.91 81.09 69.99 82.8 70.53 81.01C71.48 77.87 70.7 68.25 70.88 65.14C70.88 62.89 72 58.22 70.62 56.5C68.37 57.88 65.17 54.6 63.27 53.56C60.68 52.18 58.43 50.79 55.49 50.1C51.51 49.24 47.19 46.12 43.91 44.05C38.9 41.11 33.88 38 28.52 36.1C25.75 35.06 22.99 34.54 20.74 32.64C19.53 31.6 16.24 28.84 14.52 28.49C14 28.49 14.87 28.49 14.52 28.49C13.84 30.55 13.84 40.93 13.84 43.18Z" fill="url(#paint4_radial)"/>
<path d="M44.67 44.45C40.91 40.42 34.93 38.06 29.96 35.89C25.57 33.97 19.73 27.59 14.62 28.33C14.24 28.38 14.09 28.75 14.33 29.05C17.32 32.82 23.74 34.9 28.09 36.54C30.9 37.6 33.77 38.25 36.48 39.59C39.31 41 41.84 43.01 44.6 44.56C44.67 44.61 44.72 44.5 44.67 44.45Z" fill="#FFFFDA"/>
<path d="M78.09 54.79C76.15 55.44 74.14 55.95 72.1 56.2C71.83 56.23 71.14 56.15 70.52 56.17C70.31 55.95 65.37 54.76 63 53.62C64.88 55.5 66.21 56.33 68.69 57.46C69.22 57.7 69.87 68.37 70.62 74C70.62 70.62 70.87 68.32 70.87 62.62C70.87 59.24 71.12 58.74 71.5 57.87C73.75 57.74 76.68 56.46 78.2 54.93C78.27 54.86 78.17 54.76 78.09 54.79Z" fill="#FFFFDA"/>
<path d="M103.74 38.51C104.95 37.64 108.41 40.58 109.1 41.97C110.48 44.39 108.24 45.77 106.68 46.98C104.78 48.36 101.25 57.12 101.25 59.54C101.25 59.54 103.75 61.04 107.5 57.79C111.25 54.54 105.81 48.88 107.71 47.67C108.57 47.15 109.27 45.25 109.96 47.5C111.52 46.64 116.7 41.1 117.05 39.2C114.63 38.34 111.34 35.4 108.75 35.4C107.19 35.39 105.46 35.57 103.74 38.51Z" fill="#E6D6A5"/>
<path d="M44.1 71.42C44.13 71.3 44.16 71.18 44.18 71.07C44.31 69.51 43.27 68.74 43.14 67.44C43.01 66.66 43.53 66.14 43.66 65.49C43.92 64.32 43.66 64.45 43.27 63.54C43.14 63.41 42.62 63.02 42.49 62.76C42.36 62.63 42.75 62.11 42.62 61.98C42.23 61.59 42.1 61.07 41.32 61.98C41.32 60.42 42.23 59 42.23 57.44C42.23 56.14 41.97 54.72 41.97 53.42C41.84 53.55 41.58 53.81 41.45 53.94C40.02 52.38 38.86 51.22 38.21 49.14C37.69 49.66 36.65 49.59 36.27 49.98C36.27 50.89 36.66 52.38 37.18 53.29C37.83 54.33 39.13 54.2 39.9 55.11C40.42 55.5 41.33 57.7 40.94 58.35C40.55 59 39.12 58.74 38.6 59.52C37.69 60.69 36.53 64.19 36.66 65.61C36.71 66.31 36.72 67.03 36.72 67.76C38.21 68.5 39.62 69.34 41.11 70.02C42.13 70.54 43.15 70.96 44.1 71.42Z" fill="url(#paint5_linear)"/>
<path d="M31.34 38.2C31.34 39.11 31.6 40.02 31.6 40.92C31.6 42.22 31.08 42.48 30.43 43.64C31.99 42.6 31.99 44.42 32.12 45.33C32.38 46.63 32.38 47.4 32.9 48.7C33.42 49.87 33.16 50.65 33.29 51.94C33.42 53.11 34.33 54.14 34.59 55.31C33.94 53.75 33.55 51.81 33.68 50.12C33.81 48.95 33.81 48.3 33.55 47.14C33.03 44.03 36.27 43.38 37.57 40.66C36.79 41.31 36.01 41.57 35.11 41.31C34.59 42.48 34.33 44.03 32.65 44.16C32.51 42.35 31.73 40.02 31.34 38.2Z" fill="url(#paint6_linear)"/>
<path d="M49.99 41.75C50.6 41.97 51.09 42.08 51.71 41.73C53.46 40.74 54.8201 41.67 56.5301 41.35C57.2601 41.21 58.1701 41.07 58.2801 40.18C58.5701 38.03 60.79 37.67 62.31 36.52C62.45 36.42 62.34 36.18 62.17 36.22C60.99 36.45 60.0501 37.09 59.0901 37.8C58.6201 38.15 57.58 39.41 56.93 39.39C55.99 39.35 54.37 39.36 53.56 39.88C52.35 40.65 51.55 41.63 50.01 41.66C49.96 41.66 49.94 41.73 49.99 41.75Z" fill="#E6D6A5"/>
<path d="M58.9699 45.89C60.3099 45.57 61.42 45.63 62.75 45.97C63.61 46.19 64.14 46.12 64.9 45.63C65.15 45.47 65.56 44.99 65.69 44.7C66.07 43.82 67.11 44.28 67.77 44.39C68.36 44.49 68.89 44.79 69.48 44.71C69.6 44.69 69.66 44.54 69.59 44.45C69.19 43.93 68.52 43.91 67.9 43.78C67.02 43.6 66.04 43.32 65.19 43.19C64.87 43.14 64.48 43.23 64.21 43.41C63.43 43.94 63.54 44.41 62.26 44.58C61.08 44.74 59.91 45.11 58.94 45.8C58.9 45.85 58.9299 45.9 58.9699 45.89Z" fill="#E6D6A5"/>
<path d="M60.87 29.42C61.19 29.7 61.37 30.04 61.4 30.46C61.42 30.77 61.27 30.99 61.26 31.31C61.25 32.08 61.8799 32.64 62.5399 32.92C63.2599 33.23 63.84 32.16 63.2 31.71C62.9 31.5 62.6599 31.34 62.4099 31.08C62.2199 30.89 62.15 30.64 61.88 30.54C61.96 30.63 62.03 30.72 62.11 30.81C61.91 30.07 61.69 29.65 60.94 29.34C60.88 29.32 60.83 29.39 60.87 29.42Z" fill="#E6D6A5"/>
<path d="M74.61 31.6C74.76 30.79 76.55 30.09 77.14 29.58C77.34 29.41 77.63 29.09 77.67 28.82C77.72 28.61 77.67 28.63 77.54 28.89C77.72 28.94 77.89 28.93 78.07 28.89C78.86 28.56 79.63 28.17 80.39 27.78C81.83 27.04 80.28 24.64 78.93 25.67C78.38 26.09 77.85 26.51 77.33 26.96C76.89 27.35 76.93 27.71 76.73 28.2C76.62 28.47 76.82 28.81 77.08 28.88C77.43 28.97 75.48 30.41 75.32 30.52C74.96 30.77 74.48 31.13 74.43 31.6C74.42 31.7 74.59 31.71 74.61 31.6Z" fill="#E6D6A5"/>
<path d="M84.97 32.41C84.59 32.56 84.35 32.74 84.04 33.01C83.7 33.35 83.27 33.53 82.77 33.54C82.42 33.38 82.11 33.21 81.72 33.25C81.2 33.31 80.72 33.64 80.28 33.88C79.75 34.17 79.17 34.34 78.71 34.73C77.87 35.44 78.18 36.59 79.2 36.89C80.3 37.21 82.16 36.21 82.86 35.34C83.16 34.96 83.16 34.61 83.57 34.28C83.73 34.15 83.93 34.05 84.1 33.92C84.58 33.52 84.95 33.14 85.12 32.53C85.15 32.43 85.05 32.37 84.97 32.41Z" fill="#E6D6A5"/>
<path d="M73.73 45.72C73.48 46.09 73.57 45.94 73.37 46.32C73.32 46.42 73.41 46.52 73.52 46.5C75.19 46.15 76.58 45.94 78 47.03C79.61 48.27 80.17 47.15 81.85 46.5C82.62 46.2 82.15 45 81.38 45.17C80.55 45.35 80 45.88 79.17 45.43C78.61 45.13 78.12 45.08 77.52 45.21C76.9 45.34 76.28 45.45 75.67 45.6C75.39 45.67 73.47 46.41 73.76 45.75C73.76 45.71 73.74 45.7 73.73 45.72Z" fill="#E6D6A5"/>
<path d="M84.4 29.02C85.03 28.29 85.66 28.46 86.49 28.66C86.82 28.74 87.14 28.87 87.46 28.96C87.87 29.07 88.36 28.94 88.77 28.93C90.35 28.9 89.43 26.33 88.22 27.24C87.62 27.69 87.05 27.98 86.3 28.01C86.06 28.02 85.81 28.05 85.59 28.14C85.09 28.33 84.74 28.62 84.34 28.97C84.31 29 84.37 29.06 84.4 29.02Z" fill="#E6D6A5"/>
<path d="M66.7 19.59C66.7 19.6 69.52 18.98 69.64 18.95C70.23 18.76 70.84 18.65 71.44 18.55C72.61 18.36 71.95 18.8 71.6 18.05C71.75 18.37 72.1 18.56 72.45 18.5C73.62 18.28 75.85 19.85 76.85 18.56C77.66 17.51 76.31 15.87 77.25 15.35C77.59 15.16 77.64 14.6 77.27 14.4C76.4 13.95 78.84 12.55 79 12.11C79.04 11.99 79 11.81 78.85 11.79C77.26 11.64 74.45 14.44 76.83 15.38C76.79 15.05 76.75 14.71 76.72 14.38C76.24 14.68 75.36 15.14 75.6 15.88C75.73 16.29 75.92 16.65 76 17.09C76.29 18.6 72.87 17.1 72.58 16.97C72.66 17.42 72.74 17.87 72.82 18.32C72.9 18.24 72.98 18.16 73.07 18.08C73.75 17.42 73.52 16.3 72.61 15.98C70.98 15.42 68.58 16.53 67.19 17.33C66.83 17.54 66.67 18.03 66.7 18.42C66.73 18.79 66.59 19.14 66.51 19.49C66.48 19.61 66.64 19.7 66.7 19.59Z" fill="#E6D6A5"/>
<path d="M43.64 21.96C43.12 22.27 42.35 22.58 41.78 22.76C41.28 22.91 40.78 22.61 40.27 22.61C39.71 22.61 39.18 22.74 38.62 22.78C36.55 22.92 36.95 26.02 38.96 25.58C39.88 25.38 41.39 25 41.69 23.93C41.82 23.45 42.43 23.21 42.81 22.96C43.21 22.7 43.39 22.37 43.69 22.02C43.72 21.99 43.68 21.94 43.64 21.96Z" fill="#E6D6A5"/>
<path d="M63.81 7.97C62.47 6.93 60.91 7.92 59.55 8.27C59.29 8.34 58.99 8.64 58.89 8.87C58.22 10.36 57.3 10.16 56.15 10.43C55.27 10.64 54.84 11.32 54.71 12.15C54.57 13.04 55.75 13.51 56.36 12.98C57.11 12.33 58.23 12.31 59.11 11.83C59.86 11.43 60.22 10.52 60.36 9.73C60.54 8.73 59.99 8.44 61.33 8.14C62.14 7.96 62.94 8.23 63.74 8.13C63.84 8.14 63.89 8.03 63.81 7.97Z" fill="#E6D6A5"/>
<path d="M53.65 50C55.21 50.77 56.67 51.47 58.3 51.96C58.66 52.07 61.17 53.5 63.6 54.48C63.92 54.61 61.42 51.71 60.99 51.47C60.2 51.04 60.47 50.15 59.83 50.09C58.43 49.95 57.05 49.73 55.67 49.44C54.05 49.1 50.78 48.25 50.83 48.3C50.82 48.3 52.6 49.48 53.65 50Z" fill="#E6D6A5"/>
<path d="M64.45 64.9C64.12 65.31 62.84 66.99 62.81 66.98C62.31 66.88 61.85 67.1 61.6 67.54C60.98 68.63 59.99 70.6 61.02 71.75C61.84 72.66 62.59 73.33 63.21 74.45C63.86 75.63 63.99 76.93 64.41 78.17C64.51 78.48 64.9 78.43 65 78.15C65.32 77.19 65.16 76.54 64.93 75.55C64.74 74.73 64.34 73.97 63.96 73.23C63.67 72.66 62.63 71.96 62.84 71.61C63.46 70.59 63.51 69.45 63.64 68.29C63.77 67.22 64.34 66.07 64.7 65.05C64.75 64.91 64.56 64.77 64.45 64.9Z" fill="url(#paint7_linear)"/>
<path d="M57.21 65.92C56.87 65.18 56.5401 64.44 56.2801 63.68C57.8401 61.9 56.42 59.19 54.88 57.55C54.6 57.25 54.17 57.44 54.1 57.81C53.97 58.49 53.99 58.59 54.22 59.27C54.6 59.88 54.76 60.54 54.7 61.25C54.63 62.21 54.3101 62.71 54.2801 63.61C54.2601 64.19 54.84 64.65 55.39 64.39C55.42 64.37 57.32 67.74 59.45 68.64C59.49 68.66 59.53 68.62 59.5 68.58C58.87 67.57 57.74 67.05 57.21 65.92Z" fill="url(#paint8_linear)"/>
<path d="M45.54 48.89C45.95 49.93 46.49 50.85 47.05 51.81C47.8 53.1 47.89 53.84 47.79 55.21C47.74 55.88 48.42 56.75 48.49 57.34C48.59 58.21 48.71 58.67 49.41 59.2C49.5 59.27 49.61 59.13 49.54 59.05C48.64 57.99 49.09 56.61 49.4 55.4C49.49 55.06 49.36 54.42 49.07 54.19C48.38 53.63 48 52.24 47.57 51.47C47.02 50.5 46.35 49.66 45.6 48.84C45.57 48.82 45.52 48.85 45.54 48.89Z" fill="#E6D6A5"/>
<path d="M85.99 49.92C84.99 50 84.02 50.76 83.18 51.24C82.47 51.65 81.99 51.87 81.12 51.85C80.56 51.83 80.32 52.13 80.02 52.54C79.86 52.76 79.77 53.1 79.97 53.34C80.32 53.76 80.15 53.23 79.77 53.42C79.38 53.61 78.99 53.79 78.6 53.97C77.92 54.29 77.41 54.71 77.03 55.36C76.95 55.49 76.99 55.66 77.12 55.74C78.21 56.42 79.98 56.22 80.95 55.33C81.48 54.84 82.69 53.54 81.55 52.91C80.47 52.31 82.25 53.09 82.84 52.65C83.33 52.29 83.85 51.96 84.36 51.63C84.95 51.25 85.91 50.77 86.1 50.01C86.09 49.95 86.03 49.92 85.99 49.92Z" fill="#E6D6A5"/>
<path d="M102.7 40.66C101.9 39.31 100.08 39.2 98.61 39.61C97.59 39.89 97.32 40.19 96.86 39.19C96.56 38.53 95.82 38.61 95.25 38.76C95.15 38.79 95.15 38.93 95.26 38.94C96.26 39.03 96.25 39.47 96.47 40.21C96.61 40.69 96.87 40.93 97.36 41.06C97.8 41.18 98.31 41.13 98.78 41.06C96.86 42.31 95.45 43.72 92.87 44.37C95.64 45.58 92.49 49.57 92.49 51.3C95.26 51.13 97.68 48.19 99.92 46.8C101.82 45.59 104.24 44.21 104.93 41.79C104.27 41.4 103.48 41.02 102.7 40.66Z" fill="#E6D6A5"/>
<path d="M114.33 28.09C114.46 29.13 113.29 30.04 112.25 30.3C112.51 31.6 111.73 31.59 111.08 32.5C112.12 32.5 113.67 32.11 114.32 33.02C114.84 31.59 117.96 31.09 118.99 30.05C119.77 29.01 120.44 27.33 121.74 26.55C120.84 27.2 114.97 29.78 114.33 28.09Z" fill="#E6D6A5"/>
<path d="M106.39 17.39C105.95 17.58 105.71 17.94 105.52 18.37C105.48 18.46 105.45 18.54 105.43 18.63C105.33 18.94 105.1 19.02 104.9 19.26C104.67 19.52 104.58 19.92 104.62 20.26C104.83 19.89 105.04 19.53 105.25 19.16C104.73 19.43 104.22 19.73 103.7 20.01C102.93 20.41 102.7 20.88 102.53 21.72C102.39 22.38 102.95 22.98 103.57 23.08C105.19 23.35 106.95 21.82 107.14 20.25C107.19 19.83 106.85 19.35 106.49 19.16C106.26 19.04 106.04 18.92 105.79 18.81C105.85 18.92 105.91 19.04 105.96 19.15C106.02 18.68 106.14 18.11 106.61 17.87C106.91 17.71 106.7 17.26 106.39 17.39Z" fill="#E6D6A5"/>
<path d="M49.06 24.19C48.93 24.82 49.5 24.6 49.92 24.81C50.27 24.98 50.92 24.81 51.19 25.11C51.38 25.33 51.49 25.56 51.75 25.72C51.85 25.78 51.99 25.82 52.09 25.76C52.13 25.74 52.18 25.71 52.22 25.69C52.31 25.64 52.34 25.52 52.31 25.42C52.22 25.17 52.01 25.11 51.86 24.91C51.7 24.71 51.57 24.54 51.32 24.43C51.04 24.31 50.71 24.36 50.42 24.38C50.35 24.39 49.2 24.3 49.16 24.19C49.13 24.14 49.07 24.14 49.06 24.19Z" fill="#E6D6A5"/>
<path d="M23.02 52.68C23.33 52.33 23.36 51.1 23.4 51.05C23.73 50.58 23.66 50.05 23.8 49.53C24.23 47.95 21.59 47.35 21.34 48.96C21.23 49.68 21.27 50.32 21.65 50.96C21.83 51.26 22.85 52.18 22.87 52.63C22.87 52.69 22.98 52.73 23.02 52.68Z" fill="#C4AC6A"/>
<path d="M17.67 36C17.52 37.51 17.04 39.78 18.15 41.08C18.43 41.41 18.89 41.04 18.74 40.68C18.12 39.14 17.41 37.75 17.74 36.01C17.75 35.96 17.67 35.95 17.67 36Z" fill="#C4AC6A"/>
<path d="M93.17 55.17C91.41 55.43 89.88 58.2 89.93 59.82C89.98 61.53 90.24 64.75 88.27 65.59C87.01 66.13 85.97 66.89 85.32 68.11C85.28 68.19 85.36 68.3 85.45 68.25C86.71 67.54 87.96 66.69 89.19 65.92C90.45 65.13 90.7 64.25 90.74 62.79C90.78 61.32 92.36 61.17 92.51 59.77C92.71 57.9 91.5 57.02 93.27 55.46C93.39 55.35 93.34 55.14 93.17 55.17Z" fill="#E6D6A5"/>
<path d="M79.78 61.96C79.52 62.38 79.5 62.86 79.08 63.17C78.48 63.61 78.48 64.26 78.18 64.86C77.47 66.27 79.84 67.33 80.3 65.92C80.53 65.24 80.65 64.69 80.56 63.97C80.53 63.71 80.38 63.42 80.18 63.24C79.8 62.89 79.94 62.61 80.15 62.17C80.27 61.91 79.92 61.73 79.78 61.96Z" fill="#E6D6A5"/>
<path d="M70.87 23.13C70.48 23.31 70.19 23.57 69.95 23.92C69.86 24.05 69.74 24.45 69.56 24.45C68.85 24.48 67.59 25.15 67.14 25.76C66.99 25.96 66.95 26.17 66.97 26.38C66.65 26.42 66.34 26.49 66.05 26.62C65.46 26.89 64.69 27.17 64.38 27.77C64.33 27.86 64.41 27.99 64.51 27.99C64.91 28.02 66.36 27.61 67.47 27.24C67.59 27.33 67.72 27.41 67.85 27.46C69.25 27.92 70.35 26.44 70.27 25.18C70.25 24.81 69.92 24.63 70.07 24.24C70.24 23.81 70.53 23.46 70.91 23.2C70.96 23.17 70.91 23.11 70.87 23.13Z" fill="#E6D6A5"/>
<path opacity="0.5" d="M52.94 63.53C50.95 62.37 45.13 60.46 40.31 64.44C40.13 64.59 39.97 64.75 39.8 64.91C38.55 59.2 34.18 53.49 29.19 52.49C27.01 52.19 21.19 52.6 18.37 57.85C20.29 58.61 22.26 59.53 24.2 60.43C26.45 61.47 28 63.2 29.9 64.41C32.28 65.94 35.17 66.81 37.74 67.82C37.78 67.84 37.82 67.85 37.86 67.87C38.65 68.15 39.39 68.49 40.12 68.86C41.64 69.61 43.08 70.46 44.6 71.16C45.98 71.85 47.37 72.37 48.58 73.06C49.27 73.41 51.52 74.79 52.04 74.96C52.9 75.13 52.21 73.58 53.08 73.75C54.64 74.03 55.85 77.89 58.5 77.97C58.93 72.36 56.93 66.19 52.94 63.53Z" fill="#9C8436"/>
<path d="M58.3 90.95C60.85 86.58 57.82 80.07 51.54 76.42C45.26 72.77 38.1 73.35 35.56 77.72C33.01 82.09 36.04 88.6 42.32 92.26C48.6 95.9 55.75 95.32 58.3 90.95Z" fill="url(#paint9_radial)"/>
<path d="M43.63 81.62C46.18 77.25 43.15 70.74 36.87 67.09C30.59 63.44 23.43 64.02 20.89 68.39C18.34 72.76 21.37 79.27 27.65 82.93C33.93 86.57 41.08 85.99 43.63 81.62Z" fill="url(#paint10_radial)"/>
<path d="M14.03 57.05C9.89004 64.8 18.39 79.13 29.1 76.19C41.75 72.71 34.42 53.58 24.87 51.66C22.68 51.35 16.84 51.77 14.03 57.05Z" fill="url(#paint11_radial)"/>
<path d="M29.37 70.58C29.37 71.15 29.46 73.86 29.37 74.47C30.4 73.36 31.13 70.66 31.26 70.15C31.88 69.44 33.08 69.29 33.92 68.83C32.8 68.6 32.05 68.45 31.34 68.4C31.13 67.34 31 65.91 30.78 65.08C30.55 66.2 29.86 67.29 29.63 68.41C28.45 68.89 27.18 69.41 26 69.9L29.37 70.58Z" fill="black"/>
<path opacity="0.3" d="M20.61 55.7C13.18 53.47 14.92 67.82 19.91 69.26C27.07 71.33 24.97 57.01 20.61 55.7Z" fill="#6D6F81"/>
<path opacity="0.3" d="M24.41 54C28.81 53.57 34.14 59.85 32.98 64.56C32.23 60.52 28 55.5 24.41 54Z" fill="#808595"/>
<path d="M36.65 65.45C29.57 71.31 32.11 88.55 43.63 89.95C57.25 91.61 57.75 70.18 49.28 64.53C47.28 63.37 41.46 61.46 36.65 65.45Z" fill="url(#paint12_radial)"/>
<path d="M46.12 84.63C45.9 85.18 44.9 87.84 44.57 88.4C46.01 87.74 47.78 85.41 48.11 84.97C49 84.53 50.21 84.86 51.21 84.75C50.21 84.09 49.55 83.64 48.88 83.31C49.1 82.2 49.54 80.76 49.66 79.88C49 80.88 47.89 81.65 47.22 82.65C45.89 82.65 44.45 82.65 43.12 82.65L46.12 84.63Z" fill="black"/>
<path opacity="0.3" d="M43.49 68.03C37.48 63.3 33.45 77.03 37.51 80.16C43.33 84.64 47.01 70.8 43.49 68.03Z" fill="#6D6F81"/>
<path opacity="0.3" d="M48.22 67.19C52.65 68.52 55.31 76.71 52.32 80.81C53.2 76.6 51.1 70.07 48.22 67.19Z" fill="#808595"/>
<path d="M9.83002 69.32C10.36 71.96 14.4 88.76 17.75 86.96C19.85 85.83 14.65 74.6 10.53 68.9L9.83002 69.32Z" fill="#4D6500"/>
<path d="M18.16 73.95C18.04 73.76 11.05 69.18 8.06001 66.56C3.07001 62.2 4.17001 58.21 7.00001 54.19C7.17001 53.75 6.84003 53.16 6.58003 53.1C1.37003 57.54 3.75003 63.15 8.02003 67.79C10.29 70.25 15.12 74.13 15.12 74.13C18.73 77.12 25.98 84.25 28.91 89.32C32.57 95.66 33.27 100.87 35.25 99.88C37.37 98.82 28.68 83 18.16 73.95Z" fill="#4D6500"/>
<path d="M20 83.5C20.32 79.06 12.26 71.66 10.78 70.5L10.58 69.92C14.06 71.57 20.75 74.5 21.18 81.19C21.36 84 20 83.5 20 83.5Z" fill="#91A273"/>
<path d="M10.88 70.25C12.85 71.31 13.82 71.42 15.94 73.13C16.95 73.94 19.63 76.69 21.13 81.07C21.32 80.26 21.19 79.07 20.63 78.07C17.75 72.95 15.22 71.35 10.25 69.54C10.84 70.22 10.68 70.07 10.88 70.25Z" fill="#699100"/>
<path d="M15.2199 75.5C17.0999 77.79 18.43 80.88 19.25 82.91C19.29 83 19.99 83.84 20.08 83.45C20.54 81.37 17.83 77.66 16.62 76.13C14.72 73.72 12.17 71.22 9.86997 69.19C9.78997 69.12 10.44 70.41 10.49 70.45C10.49 70.45 13.7499 73.71 15.2199 75.5Z" fill="#4D6500"/>
<path d="M7.15004 66.74C8.85004 68.5 9.39 71.22 8.3 73.16C7.94 73.64 6.73002 74.98 6.00002 74.61C4.79002 74 6.36 72.67 6.73 72.07C7.58 70.98 8.49004 69.28 7.15004 66.74Z" fill="#699100"/>
<path d="M13.94 71.19C15.72 71.84 31.59 84.74 33.7 81.89C35.08 80.03 12.4 69.36 9.83002 68L13.94 71.19Z" fill="#699100"/>
<path d="M6.23998 53.09C0.989982 55.41 -0.489991 66.5 2.58001 67.17C3.85001 66.71 0.890011 58.16 6.52001 54.5L6.23998 53.09Z" fill="#699100"/>
<path d="M7.96996 52.35C3.84996 55.41 3.64001 62.7 7.02001 63.23C7.91001 63.37 6.80998 61.44 6.48998 58.79C6.20998 56.48 6.49002 54.25 8.28002 52.56L7.96996 52.35Z" fill="#699100"/>
<path d="M4.96997 55.8C6.50997 58.62 11.23 55.43 14.51 53.01C14.09 51.22 13.91 49.05 13.85 46.74C9.10997 48.96 2.62997 51.51 4.96997 55.8Z" fill="#4D6500"/>
<path d="M6.04997 55.06C6.55997 55.75 7.70997 55 7.29997 54.25C6.30997 52.41 8.11998 51.07 9.48998 50.25C11.37 49.12 12.42 48.79 13.88 47.91C13.88 47.8 13.87 47.68 13.87 47.57C10.58 48.81 3.56997 51.69 6.04997 55.06Z" fill="#699100"/>
<path d="M7.65001 67.42C9.62001 69.75 11.21 72.01 12.5 74.8C13.42 76.77 14.31 78.82 15.47 80.9C15.58 81.09 15.97 80.97 15.99 80.73C16.23 78.26 14.42 75.5 13.19 73.44C11.82 71.15 9.99001 68.78 7.71001 67.33C7.65001 67.28 7.61001 67.37 7.65001 67.42Z" fill="#699100"/>
<defs>
<linearGradient id="paint0_linear" x1="43.3664" y1="77.2543" x2="47.174" y2="67.3352" gradientUnits="userSpaceOnUse">
<stop stop-color="white"/>
<stop offset="0.1586" stop-color="#F6F6F7"/>
<stop offset="0.4172" stop-color="#DEDFE1"/>
<stop offset="0.7416" stop-color="#B6B8BE"/>
<stop offset="1" stop-color="#92959E"/>
</linearGradient>
<linearGradient id="paint1_linear" x1="102.812" y1="68.2347" x2="95.3522" y2="56.2969" gradientUnits="userSpaceOnUse">
<stop stop-color="white"/>
<stop offset="0.1586" stop-color="#F6F6F7"/>
<stop offset="0.4172" stop-color="#DEDFE1"/>
<stop offset="0.7416" stop-color="#B6B8BE"/>
<stop offset="1" stop-color="#92959E"/>
</linearGradient>
<radialGradient id="paint2_radial" cx="0" cy="0" r="1" gradientUnits="userSpaceOnUse" gradientTransform="translate(70.5427 58.2168) scale(72.2656)">
<stop stop-color="#FFFFEB"/>
<stop offset="0.2308" stop-color="#F5F6EF"/>
<stop offset="0.5215" stop-color="#F5F6ED"/>
<stop offset="0.6574" stop-color="#F5F5E5"/>
<stop offset="0.7611" stop-color="#F5F4D9"/>
<stop offset="0.8485" stop-color="#F6F2C6"/>
<stop offset="0.9248" stop-color="#F6F0AF"/>
<stop offset="0.9937" stop-color="#F7ED92"/>
<stop offset="1" stop-color="#F7ED8F"/>
</radialGradient>
<radialGradient id="paint3_radial" cx="0" cy="0" r="1" gradientUnits="userSpaceOnUse" gradientTransform="translate(72.7796 32.3989) scale(59.7853)">
<stop stop-color="#F7F7DE"/>
<stop offset="0.6209" stop-color="#EBE0B1"/>
<stop offset="0.752" stop-color="#EADEAF"/>
<stop offset="0.8296" stop-color="#E5D8A6"/>
<stop offset="0.8932" stop-color="#DDCE98"/>
<stop offset="0.9488" stop-color="#D2BF84"/>
<stop offset="0.9994" stop-color="#C4AC6A"/>
<stop offset="1" stop-color="#C4AC6A"/>
</radialGradient>
<radialGradient id="paint4_radial" cx="0" cy="0" r="1" gradientUnits="userSpaceOnUse" gradientTransform="translate(62.5 36.7501) scale(50.3501)">
<stop stop-color="#F7F7DE"/>
<stop offset="0.6209" stop-color="#EBE0B1"/>
<stop offset="0.752" stop-color="#EADEAF"/>
<stop offset="0.8296" stop-color="#E5D8A6"/>
<stop offset="0.8932" stop-color="#DDCE98"/>
<stop offset="0.9488" stop-color="#D2BF84"/>
<stop offset="0.9994" stop-color="#C4AC6A"/>
<stop offset="1" stop-color="#C4AC6A"/>
</radialGradient>
<linearGradient id="paint5_linear" x1="44.9047" y1="48.7898" x2="38.2383" y2="65.6226" gradientUnits="userSpaceOnUse">
<stop stop-color="#EBE0B1"/>
<stop offset="0.3149" stop-color="#E1D29E"/>
<stop offset="0.9488" stop-color="#C6AF6E"/>
<stop offset="1" stop-color="#C4AC6A"/>
</linearGradient>
<linearGradient id="paint6_linear" x1="45.2353" y1="41.0561" x2="26.2354" y2="49.8895" gradientUnits="userSpaceOnUse">
<stop stop-color="#EBE0B1"/>
<stop offset="0.3149" stop-color="#E1D29E"/>
<stop offset="0.9488" stop-color="#C6AF6E"/>
<stop offset="1" stop-color="#C4AC6A"/>
</linearGradient>
<linearGradient id="paint7_linear" x1="62.2237" y1="63.016" x2="63.8903" y2="82.3499" gradientUnits="userSpaceOnUse">
<stop stop-color="#EBE0B1"/>
<stop offset="0.3149" stop-color="#E1D29E"/>
<stop offset="0.9488" stop-color="#C6AF6E"/>
<stop offset="1" stop-color="#C4AC6A"/>
</linearGradient>
<linearGradient id="paint8_linear" x1="57.5829" y1="55.0882" x2="55.7494" y2="74.0892" gradientUnits="userSpaceOnUse">
<stop stop-color="#EBE0B1"/>
<stop offset="0.3149" stop-color="#E1D29E"/>
<stop offset="0.9488" stop-color="#C6AF6E"/>
<stop offset="1" stop-color="#C4AC6A"/>
</linearGradient>
<radialGradient id="paint9_radial" cx="0" cy="0" r="1" gradientUnits="userSpaceOnUse" gradientTransform="translate(42.0004 81.3333) rotate(30.2053) scale(19.8966 13.8566)">
<stop stop-color="#92959E"/>
<stop offset="0.1438" stop-color="#9B9EA6"/>
<stop offset="0.3782" stop-color="#B3B5BC"/>
<stop offset="0.6724" stop-color="#DBDCDF"/>
<stop offset="0.9066" stop-color="white"/>
</radialGradient>
<radialGradient id="paint10_radial" cx="0" cy="0" r="1" gradientUnits="userSpaceOnUse" gradientTransform="translate(32.2585 74.9991) rotate(30.2053) scale(13.156 9.16228)">
<stop stop-color="#92959E"/>
<stop offset="0.1438" stop-color="#9B9EA6"/>
<stop offset="0.3782" stop-color="#B3B5BC"/>
<stop offset="0.6724" stop-color="#DBDCDF"/>
<stop offset="0.9066" stop-color="white"/>
</radialGradient>
<radialGradient id="paint11_radial" cx="0" cy="0" r="1" gradientUnits="userSpaceOnUse" gradientTransform="translate(19.6325 60.0414) rotate(-22.3055) scale(19.9923)">
<stop stop-color="#3B3648"/>
<stop offset="0.75" stop-color="#241E1C"/>
<stop offset="1"/>
</radialGradient>
<radialGradient id="paint12_radial" cx="0" cy="0" r="1" gradientUnits="userSpaceOnUse" gradientTransform="translate(41.8336 75.1672) scale(20.6727)">
<stop stop-color="#454051"/>
<stop offset="0.544" stop-color="#241E1C"/>
<stop offset="1"/>
</radialGradient>
</defs>
</svg>
