<svg width="125" height="71" viewBox="0 0 125 71" fill="none" xmlns="http://www.w3.org/2000/svg">
<path d="M96.9398 24.76C92.9698 25.46 99.4099 24.26 99.9199 21.23C100.43 18.2 100.28 12.47 103.72 7.35999C107.54 1.67999 112.7 0.0200195 112.7 0.0200195C112.7 0.0200195 108.67 7.26 107.18 12.63C105.49 18.74 107.47 23.72 111.98 27.16C116.87 30.89 119.52 32.55 124.65 32.33C114.59 36.61 107.51 32.41 104.6 29.66C101.68 26.9 98.9098 24.41 96.9398 24.76Z" fill="#C2CEDE"/>
<path d="M105.55 18.29C105.94 17.68 106.28 17.25 106.57 16.94C106.56 16.31 106.6 15.67 106.69 15.01C106 15.83 105.51 17.1 105 18.07C104.35 19.29 102.94 21.59 100.54 22.68C103.48 21.34 104.54 19.87 105.55 18.29Z" fill="#9AA4B3"/>
<path d="M104.42 22.47C105.61 22.39 106.98 22.49 107.98 22.57C107.82 22.26 107.67 21.95 107.54 21.63C107 21.67 106.39 21.75 105.83 21.77C103.91 21.85 101.25 22.99 101.25 22.99C101.25 22.99 103.35 22.54 104.42 22.47Z" fill="#9AA4B3"/>
<path d="M107.03 20.18C106.96 19.93 106.9 19.67 106.85 19.41C105.86 20.01 104.05 20.98 100.82 22.9C101.5 22.53 105.63 20.76 107.03 20.18Z" fill="#9AA4B3"/>
<path d="M123.59 32.33C122.63 32.32 121.75 32.23 120.92 32.07C116.39 33.19 110.4 32.67 106.89 29.49C103.57 26.49 102.47 25.97 100.16 25.63C100.16 25.63 102.2 26.01 106.57 30.16C110.82 34.21 118.1 34.27 123.59 32.33Z" fill="#9AA4B3"/>
<path d="M102.19 14.58C102.8 11.4 105.2 7.31999 107.48 5.23999C108.95 3.88999 110.35 3.02998 111.34 2.59998C111.59 2.10998 111.81 1.66999 112.01 1.29999C111.8 1.38999 111.57 1.48998 111.32 1.59998C104.56 4.61998 101.99 10.65 101.54 15.79C101.13 20.41 100.11 22.03 100.11 22.03C101.29 20.57 101.58 17.76 102.19 14.58Z" fill="#9AA4B3"/>
<path d="M104.63 14.21C103.77 17.45 102.05 21.36 100.77 22.29C102.63 21.09 104.66 17.42 105.43 15.06C105.85 13.79 106.66 13.26 107.16 12.66C107.16 12.65 107.16 12.64 107.17 12.63C107.46 11.6 107.84 10.5 108.26 9.39001C107.25 10.04 105.45 11.13 104.63 14.21Z" fill="#9AA4B3"/>
<path d="M107.34 26.92C110.04 28.77 113.78 30.06 116.12 30.1C115.51 29.72 114.88 29.3 114.22 28.83C112.19 28.46 109.57 27.68 108.44 26.95C106.63 25.78 103.54 23.84 101.29 24.47C102.14 24.22 104.12 24.71 107.34 26.92Z" fill="#9AA4B3"/>
<path d="M108.37 29.72C112.13 32.31 116.78 32.3 119.38 31.66C118.7 31.43 118.04 31.15 117.38 30.8C115.62 31.04 113.48 31.03 112.13 30.5C106.86 28.45 105.24 25.04 101.27 25.07C103.61 25.39 104.66 27.16 108.37 29.72Z" fill="#9AA4B3"/>
<path d="M104.21 24.06C106.03 24.16 109.91 27.04 112.61 27.63C112.4 27.47 112.19 27.31 111.97 27.14C111.56 26.83 111.18 26.5 110.82 26.17C108.93 25.56 106.18 24.16 104.95 23.87C103.36 23.49 101.39 23.72 101.39 23.72C101.39 23.72 102 23.94 104.21 24.06Z" fill="#9AA4B3"/>
<path d="M103.81 12.28C102.64 17.93 102.14 21.19 100.16 22.6C102.46 21.29 103.85 14.4 104.41 12.17C104.95 10.01 107.69 6.82998 109.56 6.28998C109.9 5.53998 110.24 4.82002 110.56 4.15002C108.81 4.97002 104.92 6.89003 103.81 12.28Z" fill="#9AA4B3"/>
<path d="M105.5 23.53C106.5 23.89 108.4 24.62 109.67 25.01C109.31 24.59 108.98 24.16 108.68 23.71C108.11 23.66 107.43 23.56 106.73 23.34C104.95 22.78 104.1 22.33 101.38 23.29C102.43 23.05 103.93 22.96 105.5 23.53Z" fill="#9AA4B3"/>
<path d="M29.3499 37.25C31.1699 33.86 36.1399 29.79 38.0199 27.69C39.8999 25.58 39.6699 23.89 39.6699 23.89C39.6699 23.89 42.2499 27.2 44.3699 27.04C46.4899 26.87 50.4299 29.61 50.4299 29.61C50.4299 29.61 51.3899 26.1 54.9099 23.63C58.4299 21.16 60.6299 18.26 63.2499 17.14C65.8799 16.02 68.8999 16.61 68.8999 16.61C68.8999 16.61 65.6698 18.23 65.9498 23.5C67.9498 20.53 69.3198 19.13 69.3198 19.13L70.9299 21.38C70.9299 21.38 72.2999 17.69 73.1299 18.49C73.9599 19.29 74.7699 19.26 75.9099 19.27C77.0499 19.27 78.2399 19.75 78.7299 19.38C79.2199 19.01 79.2199 20.15 80.5999 19.56C81.9799 18.97 82.9498 19.7 83.9398 18.96C84.9298 18.21 84.9798 20.64 86.7198 19.74C88.4598 18.84 88.9299 18.81 88.9299 18.81C88.9299 18.81 89.3099 21.25 90.6799 21C92.0399 20.75 93.0099 19.19 93.0099 19.19C93.0099 19.19 93.5599 22.11 95.0099 22.04C96.4599 21.97 97.9199 19.22 97.9199 19.22L100.35 23.41C100.35 23.41 53.7499 31.31 52.7799 31.72C51.8099 32.1 29.3499 37.25 29.3499 37.25Z" fill="#C2CEE0"/>
<path d="M33.5399 67.46C36.2899 67.97 38.62 71.34 44.7 69.9C50.78 68.46 53.1899 67.6 53.1899 67.6C53.1899 67.6 46.4499 64.42 43.4899 64.38C40.5399 64.32 33.5399 67.46 33.5399 67.46Z" fill="#C2CEE0"/>
<path d="M41.21 70.25C40.2 69.93 39.2099 69.58 38.2199 69.2C37.5099 68.93 36.8199 68.66 36.1699 68.27C35.8899 68.1 35.1 67.78 34.96 67.49C36.23 67.77 37.3899 68.55 38.5699 69.07C39.2199 69.36 39.87 69.64 40.52 69.92C40.68 69.99 41.16 70.11 41.21 70.25Z" fill="#A8B3C2"/>
<path d="M36.0999 67.29C37.1599 67.71 38.2199 68.13 39.2799 68.55C40.0599 68.86 40.8499 69.15 41.6199 69.5C41.9399 69.64 42.2499 69.79 42.5599 69.94C42.6799 70 43.0299 70.1 43.0599 70.2C42.4299 70.15 41.7999 69.9 41.2099 69.68C40.4099 69.38 39.6299 68.99 38.8499 68.64C38.1599 68.32 37.4799 68 36.7999 67.68C36.6799 67.6 36.1199 67.42 36.0999 67.29Z" fill="#A8B3C2"/>
<path d="M37.77 66.82C38.74 67.35 39.73 67.86 40.73 68.35C41.48 68.71 42.25 69.04 43.01 69.38C43.34 69.53 43.68 69.67 44.02 69.79C44.15 69.83 44.5 69.85 44.56 69.95C43.13 70.14 41.58 69.12 40.39 68.45C39.75 68.09 39.11 67.71 38.49 67.32C38.34 67.22 37.8 66.99 37.77 66.82Z" fill="#A8B3C2"/>
<path d="M39.09 66.48C40.11 66.95 41.1399 67.42 42.1599 67.89C43.3899 68.46 44.6799 68.93 45.8499 69.61C45.8499 69.62 45.84 69.63 45.84 69.64C44.43 69.31 43.17 68.71 41.89 68.04C41.21 67.69 40.5399 67.32 39.8699 66.95C39.7399 66.88 39.1 66.62 39.09 66.48Z" fill="#A8B3C2"/>
<path d="M40.84 66.32C41.9 66.82 42.9399 67.33 44.0099 67.82C44.6899 68.13 45.3699 68.42 46.0499 68.72C46.3499 68.85 46.6599 68.99 46.9699 69.1C47.0899 69.14 47.3099 69.17 47.3599 69.26C46.0299 69.27 44.7899 68.54 43.6599 67.93C43.0299 67.59 42.4099 67.24 41.7999 66.89C41.5999 66.79 40.88 66.52 40.84 66.32Z" fill="#A8B3C2"/>
<path d="M42.33 65.96C43.33 66.54 44.39 67.01 45.45 67.47C46.13 67.77 46.8099 68.04 47.4899 68.34C47.7899 68.47 48.09 68.61 48.4 68.73C48.51 68.77 48.73 68.82 48.78 68.9C47.47 68.86 46.2499 68.19 45.1099 67.6C44.4799 67.28 43.8599 66.94 43.2599 66.58C43.0699 66.46 42.35 66.16 42.33 65.96Z" fill="#A8B3C2"/>
<path d="M43.9199 65.65C44.8499 66.17 45.8299 66.62 46.7999 67.06C47.8699 67.54 48.9199 68.11 50.0099 68.53C50.0099 68.54 50.0099 68.55 50.0099 68.56C48.8399 68.56 47.6099 67.78 46.6099 67.25C46.0199 66.94 45.4299 66.62 44.8499 66.27C44.6699 66.17 43.9599 65.85 43.9199 65.65Z" fill="#A8B3C2"/>
<path d="M45.1899 65.26C46.1899 65.74 47.15 66.27 48.14 66.76C49.15 67.26 50.1999 67.85 51.2899 68.17C51.2899 68.18 51.2899 68.19 51.2899 68.2C50.0699 68.28 48.8799 67.5 47.8699 66.91C47.2899 66.57 46.71 66.22 46.14 65.87C45.96 65.76 45.2399 65.45 45.1899 65.26Z" fill="#A8B3C2"/>
<path d="M46.1499 64.85C47.2499 65.18 48.2799 65.73 49.3199 66.19C49.9799 66.49 50.6499 66.77 51.3099 67.09C51.6299 67.24 51.9399 67.4 52.2599 67.53C52.4099 67.6 52.6599 67.65 52.7499 67.75C51.4599 67.77 50.1599 66.92 49.0599 66.34C48.4299 66.01 47.7999 65.67 47.1599 65.34C46.9499 65.25 46.2099 65.04 46.1499 64.85Z" fill="#A8B3C2"/>
<path d="M72.72 51.55C74.85 50.99 80.76 50.65 83.62 50.09C86.48 49.53 87.27 49.45 84.71 48.04C82.15 46.63 81.66 44.72 83.12 45.08C84.58 45.44 85.26 44.42 84.8 42.53C87.92 43.69 88.2801 42.98 87.6801 41.69C87.0801 40.39 87.29 39.13 87.29 39.13C87.29 39.13 89.57 41.03 91.15 40.52C92.73 40.01 89.62 36.93 89.62 36.93C89.62 36.93 93.07 38.89 94.26 37.08C95.45 35.27 92.67 33.35 92.67 33.35C92.67 33.35 95.92 35.23 97.48 33.92C99.04 32.61 97.65 31.24 97.65 31.24C97.65 31.24 99.6 31.23 100.42 30.06C101.23 28.9 99.0699 26.88 99.0699 26.88L93.22 31.16L72.72 51.55Z" fill="#CCD7E8"/>
<path d="M15.7299 45.16C23.1299 39.78 28.93 36.28 37.78 32.52C46.63 28.76 64.09 21.82 77.62 21.78C91.15 21.74 100.42 22.04 100.42 22.04C100.42 22.04 101.98 23.01 101.32 24.92C100.66 26.83 83.4099 45.76 69.0999 55.11C54.7899 64.46 34.6199 68.96 26.5999 69.43C18.5799 69.9 10.94 70.37 6.53 68.82C2.12 67.27 -0.250054 65.17 0.229946 62.84C2.41995 63.38 15.22 63.16 9.57998 62.95C3.93998 62.74 1.25998 60.28 1.25998 60.28C1.25998 60.28 1.39998 59.08 4.32998 56.36C7.26998 53.66 11.5599 48.19 15.7299 45.16Z" fill="#CCD1E8"/>
<path d="M66.4598 47.49C40.2698 61.16 15.7399 66.3 0.869873 65.38C1.83987 66.69 3.78991 67.86 6.52991 68.83C10.9399 70.38 18.5799 69.91 26.5999 69.44C34.6199 68.97 54.7899 64.47 69.0999 55.12C81.6099 46.95 96.3598 31.46 100.32 26.41C95.0598 30.69 84.8598 37.89 66.4598 47.49Z" fill="#575757"/>
<path d="M15.9199 57.64C16.5299 59.08 15.8599 60.75 14.4199 61.37C12.9799 61.98 11.3099 61.31 10.6899 59.87C10.0799 58.43 10.7499 56.76 12.1899 56.14C13.6399 55.53 15.3099 56.2 15.9199 57.64Z" fill="#F5F5F5"/>
<path d="M14.31 58.33C14.55 58.89 14.2899 59.53 13.7299 59.76C13.1699 60 12.53 59.74 12.3 59.18C12.06 58.62 12.32 57.98 12.88 57.75C13.43 57.51 14.08 57.77 14.31 58.33Z" fill="#32303D"/>
<path d="M32.5799 59.52C31.5599 55.12 28.4299 52.35 26.8199 52.06C25.2099 51.78 26.1399 52.58 28.0199 54.3C29.8999 56.02 31.3899 58.87 30.3399 62.44C29.2899 66.01 24.4299 69.12 21.4599 69.33C18.4899 69.54 18.7199 69.1 20.4799 68.35C22.2399 67.6 25.7199 64.41 25.3999 60.2C25.0799 55.99 22.7299 53.93 21.7999 53.47C20.8699 53.01 19.9099 53.35 21.6799 54.76C23.4399 56.17 25.3299 60.18 23.1199 64.05C21.1399 67.53 16.9199 68.9 12.5999 69.82C16.6399 70.03 21.5499 69.73 26.6099 69.44C26.9099 69.42 27.2299 69.4 27.5499 69.37C27.7199 69.27 27.8899 69.16 28.0499 69.05C30.2699 67.48 33.5899 63.93 32.5799 59.52Z" fill="#A7B4C7"/>
<path d="M6.45994 67.96C2.92994 66.73 2.13993 65.12 4.31993 64.21C5.69993 63.64 7.94991 63.32 9.42991 63.16C6.76991 63.22 1.5599 63.17 0.229902 62.85C-0.250098 65.18 2.10995 67.27 6.52995 68.83C7.55995 69.19 8.76991 69.44 10.1099 69.61C9.08991 69.04 7.83994 68.44 6.45994 67.96Z" fill="#A7B4C7"/>
<path d="M9.59003 62.95C10.3 62.98 10.72 63 10.9 63.03C10.9 63.03 6.86999 62.13 4.60999 61.13C3.14999 60.48 2.41003 59.86 2.09003 58.79C1.33003 59.81 1.27002 60.28 1.27002 60.28C1.27002 60.28 3.95003 62.74 9.59003 62.95Z" fill="#95A5BD"/>
<path d="M47.74 35.73C74.42 27.39 91.67 21.92 101.22 22.94C100.91 22.35 100.43 22.04 100.43 22.04C100.43 22.04 91.16 21.74 77.63 21.78C64.1 21.82 46.64 28.75 37.79 32.52C28.94 36.28 23.13 39.78 15.74 45.16C11.57 48.2 7.26998 53.66 4.34998 56.37C4.22998 56.48 4.12001 56.59 4.01001 56.7C14.49 49.79 37.06 39.07 47.74 35.73Z" fill="#89A3CF"/>
<path d="M70.1499 23.15C70.0899 24.6 69.2398 26.18 70.4598 25.6C71.6798 25.02 72.2099 24.39 71.2899 23.08C71.1099 22.82 70.9299 22.56 70.7799 22.3C70.5099 22.34 70.2498 22.38 69.9798 22.42C70.0898 22.6 70.1599 22.83 70.1499 23.15Z" fill="#7085A8"/>
<path d="M93.5898 22.43C93.5698 22.26 93.5499 22.08 93.5199 21.89C93.3599 21.89 93.1999 21.88 93.0299 21.88C93.0299 22.17 92.8899 22.52 92.9899 22.75C93.1599 23.13 93.6898 23.25 93.5898 22.43Z" fill="#7085A8"/>
<path d="M94.7999 22.19C94.7799 22.09 94.7699 22 94.7599 21.91C94.4899 21.9 94.1999 21.9 93.9099 21.89C93.9599 22.49 93.8098 22.92 94.2198 23.04C94.7898 23.21 94.9399 22.99 94.7999 22.19Z" fill="#7085A8"/>
<path d="M67.5499 22.83C67.9599 23.2 68.2499 23.54 68.2699 24.76C68.2899 26.58 67.8598 28.25 68.6998 28.07C69.5398 27.89 70.0998 27.04 69.4698 25.72C69.0098 24.74 68.5399 23.42 68.3899 22.68C68.1099 22.72 67.8299 22.78 67.5499 22.83Z" fill="#7085A8"/>
<path d="M96.4498 22.31C96.4198 22.17 96.4399 22.04 96.4799 21.94C96.1699 21.93 95.8399 21.93 95.4999 21.92C95.5699 22.1 95.6199 22.28 95.7599 22.61C96.0299 23.26 96.5798 22.92 96.4498 22.31Z" fill="#7085A8"/>
<path d="M96.8498 23.64C97.5898 23.79 97.3398 23.26 97.3598 22.61C97.3698 22.4 97.3998 22.16 97.4498 21.96C97.2998 21.96 97.1298 21.95 96.9698 21.95C96.9798 22.04 96.9798 22.15 96.9598 22.29C96.8398 23.32 96.1098 23.49 96.8498 23.64Z" fill="#7085A8"/>
<path d="M77.0499 22.96C76.8699 23.77 77.6599 24.58 77.7499 23.6C77.8399 22.62 77.8299 22.62 77.6199 21.78C77.4099 21.78 77.1898 21.79 76.9698 21.79C77.1298 22.14 77.1499 22.54 77.0499 22.96Z" fill="#7085A8"/>
<path d="M75.1799 24.98C75.7399 24.95 76.5299 24.86 76.2999 23.61C76.1899 23.04 75.9999 22.36 75.8999 21.82C75.7699 21.83 75.6299 21.83 75.4999 21.84C75.5199 22.03 75.4999 22.26 75.4099 22.56C74.9699 24.01 74.6199 25.02 75.1799 24.98Z" fill="#7085A8"/>
<path d="M60.0299 24.57C60.4799 24.84 60.7899 25.22 60.9799 26.21C61.3299 28 61.2898 30.12 61.9398 29.9C62.5798 29.69 63.0999 28.12 62.3699 27.21C61.6999 26.38 60.7599 25.17 60.5099 24.44C60.3499 24.48 60.1899 24.52 60.0299 24.57Z" fill="#7085A8"/>
<path d="M73.9499 26.32C74.4899 26.05 74.58 25.03 74.43 23.99C74.33 23.35 74.11 22.52 74.06 21.93C73.94 21.94 73.8199 21.95 73.7099 21.96C73.9499 23.14 74.0699 24.08 73.5799 24.96C73.0499 25.93 73.4099 26.59 73.9499 26.32Z" fill="#7085A8"/>
<path d="M62.1699 24.01C62.9199 25.87 62.4798 27.16 63.7098 27.58C64.9398 28.01 63.6799 25.65 63.2499 24.75C63.1299 24.49 62.9999 24.16 62.8999 23.83C62.6499 23.89 62.4099 23.95 62.1699 24.01Z" fill="#7085A8"/>
<path d="M73.2098 24.39C73.5698 23.42 72.3398 22.82 72.4698 22.16C72.4698 22.14 72.4799 22.11 72.4899 22.08C72.2399 22.11 71.9798 22.14 71.7198 22.17C71.9798 22.66 72.1099 23.19 72.1099 23.71C72.0899 24.74 72.8498 25.36 73.2098 24.39Z" fill="#7085A8"/>
<path d="M67.5099 26.78C68.4799 26.52 66.9899 25.36 66.6599 24.15C66.5599 23.8 66.4799 23.4 66.4199 23.04C66.2499 23.08 66.0699 23.11 65.8999 23.15C65.9399 23.38 65.9598 23.67 65.9498 24.07C65.9198 25.88 66.5499 27.04 67.5099 26.78Z" fill="#7085A8"/>
<path d="M85.8298 23.35C85.5198 22.54 85.4499 22.15 85.5299 21.79C85.3699 21.79 85.1999 21.79 85.0299 21.79C85.0599 22.33 84.9299 22.93 84.9999 23.25C85.1199 23.69 86.2098 24.33 85.8298 23.35Z" fill="#7085A8"/>
<path d="M90.0499 23.39C90.5799 24.06 90.8399 23.42 90.5399 22.73C90.3999 22.41 90.1699 22.08 90.0299 21.83C89.9399 21.83 89.8499 21.83 89.7599 21.83C89.9299 22.58 89.6099 22.83 90.0499 23.39Z" fill="#7085A8"/>
<path d="M87.68 23.38C88.3 23.4 88.3999 22.95 88.1399 22.25C88.0899 22.11 88.05 21.96 88.03 21.81C87.86 21.81 87.69 21.81 87.53 21.81C87.56 21.91 87.5799 22.03 87.5799 22.16C87.5399 22.95 87.06 23.36 87.68 23.38Z" fill="#7085A8"/>
<path d="M89.2198 21.82C89.0598 21.82 88.9099 21.82 88.7499 21.81C88.8499 22.23 88.8198 22.64 88.9398 23C89.1298 23.53 89.6799 24.89 89.6799 23.95C89.6799 23.01 89.3799 23.18 89.2599 22.33C89.2499 22.18 89.2298 22 89.2198 21.82Z" fill="#7085A8"/>
<path d="M99.8298 23.11C100.06 22.69 100.12 22.4 99.9598 22.03C99.7198 22.02 99.3899 22.01 98.9799 22C99.4099 22.9 99.5898 23.55 99.8298 23.11Z" fill="#7085A8"/>
<path d="M77.7699 24.94C78.2999 25.61 79.1199 25.71 78.9699 24.51C78.8299 23.31 78.5599 23.01 78.8899 22.09C78.9299 21.99 78.9699 21.88 79.0099 21.77C78.7899 21.77 78.5599 21.77 78.3299 21.77C78.3299 21.82 78.32 21.87 78.31 21.92C78.12 23.28 77.2399 24.27 77.7699 24.94Z" fill="#7085A8"/>
<path d="M42.4199 30.6C42.5999 30.81 42.7599 31.15 42.8499 31.65C43.1499 33.37 43.6299 34.93 44.1099 35.03C44.5799 35.13 44.7099 34.28 44.2199 33.27C43.7399 32.28 42.5999 31.34 42.9399 30.39C42.7599 30.46 42.5899 30.53 42.4199 30.6Z" fill="#7085A8"/>
<path d="M98.2899 23.19C98.9599 22.75 98.8199 22.49 98.5999 21.99C98.3899 21.98 98.1599 21.98 97.9199 21.97C98.0999 22.86 97.6399 23.62 98.2899 23.19Z" fill="#7085A8"/>
<path d="M91.4199 21.85C91.5399 22 91.6099 22.2 91.6099 22.44C91.6199 23.13 93.4499 23.7 92.7499 22.73C92.4999 22.38 92.3599 22.09 92.3099 21.86C92.0199 21.86 91.7199 21.86 91.4199 21.85Z" fill="#7085A8"/>
<path d="M80.8099 22.92C80.7099 22.51 80.6599 22.1 80.6399 21.78C80.4399 21.78 80.2499 21.78 80.0499 21.78C79.9199 22.71 79.1998 23.65 79.5898 23.72C80.0698 23.81 81.0899 24.06 80.8099 22.92Z" fill="#7085A8"/>
<path d="M60.8999 28.21C61.1999 27.58 60.1299 26.94 59.4999 26.16C59.2699 25.88 58.9299 25.4 58.6499 24.95C58.4699 25 58.2899 25.06 58.1099 25.11C58.6599 25.92 59.2599 27.09 59.5099 28.06C59.8899 29.54 60.5899 28.83 60.8999 28.21Z" fill="#7085A8"/>
<path d="M86.9398 23.04C86.7198 22.55 86.6698 22.12 86.6998 21.8C86.5498 21.8 86.3999 21.8 86.2499 21.8C86.1999 22.79 85.7999 22.63 86.1599 23.09C86.5199 23.54 87.2798 23.79 86.9398 23.04Z" fill="#7085A8"/>
<path d="M84.4299 24.09C84.4299 23.42 84.1499 23.33 84.5099 22.45C84.5999 22.23 84.6499 22 84.6799 21.79C84.4999 21.79 84.3099 21.79 84.1199 21.79C84.1099 22.27 83.8799 22.85 83.8799 23.57C83.8899 24.54 84.4299 24.76 84.4299 24.09Z" fill="#7085A8"/>
<path d="M83.3798 22.72C83.4198 22.36 83.4698 22.04 83.5198 21.78C83.3198 21.78 83.1199 21.78 82.9199 21.78C82.9399 22.38 82.3799 23.02 82.5599 23.34C82.7699 23.75 83.2298 23.96 83.3798 22.72Z" fill="#7085A8"/>
<path d="M82.0999 24.08C81.9399 23.43 82.0198 22.41 82.2098 21.78C81.8398 21.78 81.4699 21.78 81.0999 21.78C81.3599 22.63 81.3599 23.62 81.3699 23.91C81.3799 24.22 82.3799 25.22 82.0999 24.08Z" fill="#7085A8"/>
<path d="M65.1199 23.32C64.7899 23.39 64.4599 23.46 64.1299 23.54C64.3999 23.95 64.5799 24.54 64.5499 25.53C64.4899 27.61 65.2099 29.24 66.2899 28.9C67.3699 28.56 65.3699 26.29 65.0999 24.81C64.9999 24.2 65.0399 23.7 65.1199 23.32Z" fill="#7085A8"/>
<path d="M29.3499 40.5C29.2399 39.52 29.5499 39.19 28.4499 38.39C28.0599 38.11 27.6699 37.84 27.3299 37.6C27.0199 37.78 26.7099 37.95 26.3999 38.13C26.8899 38.58 27.4199 39.13 27.8099 39.58C28.6399 40.57 29.4599 41.48 29.3499 40.5Z" fill="#7085A8"/>
<path d="M34.5499 37.56C34.3099 36.58 33.7499 35.47 32.9899 34.67C32.6299 34.84 32.2799 35.01 31.9199 35.19C32.1599 35.83 32.3 36.67 32.59 37.05C33.02 37.6 34.8499 38.78 34.5499 37.56Z" fill="#7085A8"/>
<path d="M13.2799 49.75C14.4199 51.02 14.1999 51.44 15.0299 51.66C15.8599 51.88 16.0199 50.78 15.5599 50.07C14.8599 49 14.1699 48.94 13.3199 48.27C13.1099 48.1 12.8899 47.92 12.6799 47.74C12.2499 48.15 11.8199 48.57 11.3999 48.99C11.9299 48.89 12.6099 48.99 13.2799 49.75Z" fill="#7085A8"/>
<path d="M21.9999 40.82C22.2199 41.16 23.2099 43.79 23.3199 44.91C23.4299 46.03 22.1499 47.62 23.0099 47.49C23.8699 47.36 25.4399 47.15 24.7899 45.63C24.1399 44.11 23.1699 41.8 22.8699 41.12C22.7999 40.95 22.6899 40.71 22.5799 40.44C22.3899 40.57 22.1999 40.69 21.9999 40.82Z" fill="#7085A8"/>
<path d="M7.25989 53.91C7.55989 54.54 7.94988 54.85 7.74988 54.39C7.63988 54.13 7.96989 53.89 7.69989 53.6C7.32989 53.19 7.81989 52.48 8.06989 53.03C8.30989 53.56 8.33986 54.27 8.72986 53.95C8.93986 53.78 8.72991 53.46 8.52991 53.16C8.33991 52.86 8.39986 51.89 8.85986 52.63C9.31986 53.37 10.2399 53.29 9.8299 52.84C9.4099 52.4 8.96986 52.15 9.35986 51.72C9.84986 51.19 10.0899 52.45 10.4099 52.6C10.7299 52.75 11.4599 52.42 10.7899 51.95C10.1199 51.48 9.6899 50.7 10.0899 50.64C11.4499 50.41 11.6999 51.16 12.7299 52.66C13.6899 54.05 14.5199 52 12.8999 50.49C12.0599 49.7 11.4199 49.46 10.9999 49.41C9.57988 50.86 8.21986 52.35 6.97986 53.69C7.04986 53.64 7.14989 53.69 7.25989 53.91Z" fill="#7085A8"/>
<path d="M19.1099 46.9C19.7999 47.96 20.64 49.15 21.33 49.43C22.02 49.71 23.4099 49.78 22.2899 48.46C21.1699 47.14 21.0299 47.19 19.8199 45.5C18.9099 44.23 18.8499 43.86 18.4099 43.24C18.0099 43.52 17.61 43.8 17.21 44.09C17.93 44.91 18.6399 46.18 19.1099 46.9Z" fill="#7085A8"/>
<path d="M22.4598 44.69C22.0398 43.64 20.8598 42.57 20.2898 41.95C19.8898 42.22 19.4898 42.49 19.0798 42.77C19.9698 43.32 20.9098 44.1 20.7598 44.56C20.4598 45.51 22.9698 45.98 22.4598 44.69Z" fill="#7085A8"/>
<path d="M55.2699 25.96C55.2799 25.99 55.2799 26.02 55.2899 26.06C55.6499 27.92 56.3698 29.18 57.1898 28.66C58.0098 28.14 56.4199 27 55.9499 25.75C55.7199 25.82 55.4999 25.89 55.2699 25.96Z" fill="#7085A8"/>
<path d="M24.4298 42.17C24.8498 43.22 25.8598 44.81 26.2998 44.25C26.7398 43.69 27.0498 42.62 26.0998 41.87C25.1498 41.12 24.7998 40.75 23.8498 39.64C23.5898 39.8 23.3298 39.96 23.0798 40.13C23.6398 40.86 24.2298 41.68 24.4298 42.17Z" fill="#7085A8"/>
<path d="M59.1098 29.44C58.7198 27.52 58.8198 27.13 57.6998 26.12C57.4398 25.88 57.2398 25.63 57.1098 25.39C57.0098 25.42 56.9098 25.45 56.8098 25.48C56.8498 25.55 56.8798 25.63 56.9198 25.72C57.4898 27.07 58.4699 28.68 57.9099 29.84C57.3499 31.01 59.4998 31.36 59.1098 29.44Z" fill="#7085A8"/>
<path d="M100.67 22.23C100.53 22.11 100.43 22.04 100.43 22.04C100.43 22.04 100.38 22.04 100.29 22.04C100.37 22.15 100.44 22.28 100.44 22.41C100.46 22.73 100.7 22.6 100.67 22.23Z" fill="#7085A8"/>
<path d="M4.13989 56.55C4.18989 56.63 4.3399 56.61 4.5899 56.42C4.8999 56.18 5.18988 55.66 5.37988 55.35C5.01988 55.72 4.6699 56.06 4.3399 56.37C4.2699 56.43 4.20989 56.49 4.13989 56.55Z" fill="#7085A8"/>
<path d="M5.58999 55.2C5.54999 55.78 5.80997 56.27 6.19997 55.55C6.61997 54.77 7.15999 54.94 6.83999 54.38C6.74999 54.23 6.77996 53.95 6.86996 53.79C6.42996 54.27 5.99999 54.72 5.58999 55.14C5.58999 55.15 5.58999 55.17 5.58999 55.2Z" fill="#7085A8"/>
<path d="M15.7299 45.16C15.2199 45.53 14.6999 45.95 14.1899 46.38C14.4499 46.46 14.66 46.56 14.78 46.69C15.24 47.2 15.81 48.86 16.53 49.15C17.26 49.44 18.2199 49.55 17.7499 48.27C17.2699 46.99 16.1099 46.1 15.7299 45.16Z" fill="#7085A8"/>
<path d="M47.9 33.73C47.35 32.43 46.5699 32.03 46.1699 31.1C45.9099 30.48 45.81 29.82 45.77 29.29C45.49 29.4 45.2199 29.5 44.9399 29.61C45.0999 29.81 45.2099 30.12 45.2199 30.59C45.2699 32.58 46.19 34.77 46.64 34.95C47.08 35.11 48.45 35.02 47.9 33.73Z" fill="#7085A8"/>
<path d="M40.5199 31.37C40.5999 31.48 40.6699 31.6 40.7499 31.75C41.5599 33.36 42.0299 34.76 42.3799 35.59C42.7299 36.42 43.4399 37.22 43.6599 36.58C43.8799 35.94 43.1999 35.21 42.6399 34.18C42.1599 33.3 41.0899 31.98 41.0299 31.17C40.8599 31.23 40.6899 31.3 40.5199 31.37Z" fill="#7085A8"/>
<path d="M47.0599 28.79C47.0799 28.94 47.0799 29.1 47.0499 29.3C46.8399 31.1 45.9699 31.56 47.3799 31.89C48.7899 32.23 49.5199 32.16 48.8099 30.88C48.1899 29.75 47.5799 29.22 47.6399 28.57C47.4499 28.65 47.2499 28.72 47.0599 28.79Z" fill="#7085A8"/>
<path d="M52.2699 29.17C52.1199 28.37 51.6999 27.71 51.3899 27.24C51.1299 27.33 50.8599 27.42 50.5999 27.51C50.6899 27.75 50.7599 28.09 50.8399 28.51C51.0599 29.79 52.5499 30.71 52.2699 29.17Z" fill="#7085A8"/>
<path d="M50.4499 31.53C51.1299 32.11 52.3599 31.28 51.4899 30.24C50.7699 29.39 49.3999 28.64 49.3899 27.94C49.3299 27.96 49.2798 27.98 49.2198 28C49.9998 29.56 49.8099 30.98 50.4499 31.53Z" fill="#7085A8"/>
<path d="M53.0099 27.76C53.2099 29.39 52.2899 30.29 53.1299 31.09C53.9699 31.89 55.1199 32.38 54.4699 30.94C53.8199 29.5 53.8199 28.95 53.7599 27.94C53.7299 27.51 53.55 27.02 53.34 26.6C53.11 26.68 52.8799 26.75 52.6599 26.83C52.8199 27.02 52.9599 27.32 53.0099 27.76Z" fill="#7085A8"/>
<path d="M56.8499 31.33C58.5899 30.65 55.7399 29.98 55.2299 28.57C54.9099 27.69 54.81 26.72 54.78 26.13C54.5 26.22 54.2199 26.31 53.9399 26.4C54.0699 26.62 54.16 26.9 54.21 27.26C54.38 28.82 55.1099 32.01 56.8499 31.33Z" fill="#7085A8"/>
<path d="M34.4698 34.54C34.5798 35.96 34.7398 38.34 35.1998 39C35.6598 39.66 37.4998 40.66 36.9698 39.41C36.4398 38.17 35.8998 37.91 35.7598 36.56C35.6298 35.35 35.8098 34.4 35.3098 33.6C34.9698 33.75 34.6298 33.91 34.2898 34.06C34.3798 34.2 34.4498 34.35 34.4698 34.54Z" fill="#7085A8"/>
<path d="M40.4399 35.06C41.7599 34.97 40.2299 32.68 39.5499 31.77C39.3299 31.86 39.1099 31.95 38.8999 32.04C39.2199 33.39 39.4299 35.13 40.4399 35.06Z" fill="#7085A8"/>
<path d="M29.0499 38.07C29.7999 39.4 30.2 41.07 30.21 42.11C30.22 43.15 31.3799 43.27 31.5099 41.86C31.6499 40.45 30.7399 39.62 30.1699 38.7C29.7399 38.01 29.03 37.33 28.65 36.88C28.5 36.96 28.3399 37.05 28.1899 37.13C28.5099 37.35 28.8199 37.66 29.0499 38.07Z" fill="#7085A8"/>
<path d="M29.2099 45.65C29.8299 44.81 29.7099 43.71 28.9499 42.45C28.1899 41.19 26.9199 40.13 26.2999 39.11C26.1599 38.87 25.9999 38.65 25.8499 38.44C25.6499 38.56 25.4499 38.67 25.2599 38.79C26.4399 40.1 27.5999 42.17 27.5399 43.18C27.4799 44.31 28.5899 46.49 29.2099 45.65Z" fill="#7085A8"/>
<path d="M30.8899 35.7C30.5999 35.85 30.3099 35.99 30.0199 36.14C30.5099 37.32 30.4699 38.74 31.3799 39.33C32.2899 39.93 33.5298 39.56 32.7198 38.57C31.9098 37.58 30.7699 37.33 30.8599 36.13C30.8699 35.98 30.8799 35.84 30.8899 35.7Z" fill="#7085A8"/>
<path d="M40.5099 38.52C41.0899 38.45 41.2498 36.96 39.9698 35.8C38.6798 34.65 38.5599 33.72 38.3199 32.6C38.2999 32.51 38.2799 32.42 38.2599 32.32C38.0999 32.39 37.9499 32.45 37.7899 32.52C37.6199 32.59 37.4499 32.67 37.2799 32.74C37.8299 33.6 38.2999 34.84 38.4999 35.51C38.7899 36.49 39.9199 38.59 40.5099 38.52Z" fill="#7085A8"/>
<path d="M36.3298 33.87C36.7198 35.66 37.3198 37.82 37.9398 37.54C38.5698 37.26 38.6298 36.26 37.5698 34.93C37.1298 34.38 36.7198 33.68 36.4498 33.09C36.3298 33.14 36.2098 33.19 36.0898 33.25C36.1898 33.41 36.2698 33.62 36.3298 33.87Z" fill="#7085A8"/>
<path d="M40.16 40.56C56.88 33.03 73.02 29.01 81.71 26.58C87.49 24.96 90.5301 24.7601 90.3101 25.0901C89.4701 26.3701 73.38 29.75 45.12 40.82C29.35 47 18.57 54.22 17.05 53.51C15.82 52.93 25.57 47.13 40.16 40.56Z" fill="#9C9C9C"/>
<path d="M13.83 57.88C14.01 58.01 14.0999 58.19 14.0399 58.28C13.9699 58.37 13.77 58.35 13.59 58.22C13.41 58.09 13.32 57.91 13.38 57.82C13.45 57.73 13.65 57.75 13.83 57.88Z" fill="#D6D6D6"/>
<path d="M35.08 56.7C37.81 55.24 43.54 51.47 46.89 51.68C50.24 51.89 49.9 53.38 46.74 57.66C43.85 61.57 35.61 60.58 35.61 60.58C35.61 60.58 33.98 57.3 35.08 56.7Z" fill="#C2CEDE"/>
<path d="M32.1699 35.03C32.4999 34.07 33.1199 33.2 33.8099 32.47C34.7099 31.51 35.8599 30.86 36.8199 29.96C38.3899 28.49 40.3499 26.19 39.6699 23.88C40.4999 26.18 38.61 28.58 37.03 30.07C36.09 30.96 34.96 31.59 34.03 32.48C33.27 33.2 32.5699 34.07 32.1699 35.03Z" fill="#9AA4B3"/>
<path d="M34.7999 33.78C34.8899 33.05 35.47 32.37 35.95 31.85C36.65 31.1 37.4799 30.55 38.2599 29.9C39.0399 29.24 39.7099 28.47 40.1699 27.56C40.5299 26.84 40.8599 25.88 40.7199 25.05C40.9299 25.8 40.6899 26.7 40.4199 27.39C40.0499 28.33 39.4299 29.15 38.6799 29.83C37.9199 30.52 37.02 31.05 36.27 31.76C35.7 32.29 34.9799 32.99 34.7999 33.78Z" fill="#9AA4B3"/>
<path d="M37.5998 32.59C37.4198 32 38.0998 31.31 38.4698 30.95C38.9898 30.43 39.5998 30.03 40.1098 29.5C40.9298 28.64 41.9598 27.2 41.7298 25.93C42.1298 27.21 41.1099 28.78 40.2699 29.66C39.7399 30.21 39.0899 30.61 38.5299 31.12C38.1499 31.46 37.5098 32.03 37.5998 32.59Z" fill="#9AA4B3"/>
<path d="M39.8799 31.64C40.0799 30.74 40.6599 29.93 41.2699 29.26C41.9699 28.48 42.7699 27.64 42.5499 26.51C42.9799 27.56 42.2099 28.56 41.5399 29.3C40.8899 29.99 40.2499 30.74 39.8799 31.64Z" fill="#9AA4B3"/>
<path d="M41.9399 30.79C42.1099 30.07 42.53 29.41 43.03 28.88C43.53 28.35 43.8499 27.72 43.6799 26.98C44.1099 27.79 43.63 28.57 43.08 29.15C42.63 29.63 42.2499 30.19 41.9399 30.79Z" fill="#9AA4B3"/>
<path d="M43.98 29.88C43.59 29.41 44.19 28.85 44.45 28.51C44.78 28.08 44.86 27.55 44.73 27.02C45.03 27.46 45.01 28.09 44.72 28.53C44.46 28.91 43.77 29.33 43.98 29.88Z" fill="#9AA4B3"/>
<path d="M45.4899 29.37C45.4299 28.99 45.4899 28.56 45.6699 28.21C45.8299 27.89 45.9599 27.65 45.9299 27.27C46.1399 27.61 46.0499 27.94 45.8899 28.27C45.7199 28.62 45.6199 29 45.4899 29.37Z" fill="#9AA4B3"/>
<path d="M46.7299 28.84C46.6499 28.65 46.6599 28.44 46.7199 28.25C46.7799 28.08 47.0199 27.86 46.9699 27.67C47.2899 27.8 46.8099 28.63 46.7299 28.84Z" fill="#9AA4B3"/>
<path d="M47.5799 27.94C47.7699 27.96 47.5799 28.53 47.5499 28.61C47.4399 28.53 47.4099 28.42 47.4199 28.3C47.4299 28.23 47.4999 27.93 47.5799 27.94Z" fill="#9AA4B3"/>
<path d="M52.3599 26.91C53.6599 24.75 55.9099 23.33 57.8899 21.87C59.0999 20.98 60.1599 19.92 61.2899 18.93C62.4299 17.92 63.7599 17.25 65.2499 16.93C66.4299 16.67 67.6799 16.56 68.8899 16.61C66.4399 16.61 63.8099 17.15 61.8699 18.71C60.6999 19.65 59.6799 20.77 58.4799 21.69C57.3199 22.58 56.0699 23.33 54.9499 24.27C54.0199 25.03 53.0399 25.89 52.3599 26.91Z" fill="#9AA4B3"/>
<path d="M54.1599 26.29C54.2799 25.11 55.77 24.12 56.65 23.54C58 22.65 59.3 21.77 60.52 20.7C61.13 20.16 61.7199 19.6 62.3299 19.05C62.9299 18.51 63.5699 18.19 64.3299 17.94C65.4199 17.58 66.7999 17.16 67.9599 17.31C66.8299 17.23 65.4999 17.69 64.4599 18.06C63.7399 18.32 63.1 18.63 62.52 19.15C61.89 19.72 61.3 20.31 60.66 20.87C59.51 21.89 58.2599 22.76 56.9399 23.55C56.3099 23.93 55.69 24.3499 55.14 24.8499C54.75 25.2199 54.2499 25.73 54.1599 26.29Z" fill="#9AA4B3"/>
<path d="M55.6899 25.79C55.6599 24.8 57.0399 23.98 57.7399 23.52C58.9199 22.75 60.07 21.97 61.16 21.09C61.67 20.68 62.1099 20.21 62.5999 19.77C63.0799 19.34 63.6699 19.05 64.2599 18.81C65.1799 18.45 66.1999 18.17 67.1899 18.23C66.2199 18.24 65.2199 18.57 64.3399 18.95C63.7499 19.21 63.15 19.53 62.68 19.97C62.18 20.44 61.71 20.93 61.17 21.37C60.14 22.2 59.0199 22.94 57.8899 23.62C57.1799 24.03 55.6999 24.81 55.6899 25.79Z" fill="#9AA4B3"/>
<path d="M57.3499 25.3C57.5099 24.55 58.2799 23.95 58.8699 23.55C59.8199 22.91 60.8199 22.35 61.7499 21.69C62.1899 21.38 62.6199 21.06 63.0399 20.72C63.4599 20.38 63.8099 19.99 64.3099 19.77C65.0499 19.44 65.8599 19.3 66.6599 19.16C65.9499 19.32 65.2398 19.53 64.5698 19.82C64.0498 20.05 63.7099 20.41 63.2799 20.78C62.8499 21.15 62.3998 21.5 61.9398 21.83C61.0198 22.5 60.0398 23.04 59.0698 23.61C58.4398 23.98 57.5799 24.54 57.3499 25.3Z" fill="#9AA4B3"/>
<path d="M58.97 24.85C59.65 23.5 61.21 23.1 62.38 22.33C63.08 21.87 63.7299 21.35 64.4399 20.9C64.8999 20.61 65.69 20.1 66.27 20.25C65.64 20.19 64.89 20.77 64.41 21.12C63.71 21.63 63.04 22.19 62.3 22.64C61.15 23.36 59.77 23.69 58.97 24.85Z" fill="#9AA4B3"/>
<path d="M61.1799 24.26C61.6299 23.42 62.8598 23.16 63.5698 22.61C64.3698 21.98 65.0998 21.41 66.0798 21.08C65.1998 21.56 64.4898 22.17 63.7098 22.79C62.9498 23.38 61.8099 23.51 61.1799 24.26Z" fill="#9AA4B3"/>
<path d="M63.51 23.66C64.22 22.97 64.92 22.08 65.96 21.94C65.08 22.42 64.42 23.25 63.51 23.66Z" fill="#9AA4B3"/>
<path d="M65.26 23.29C65.2 22.93 65.58 22.6 65.93 22.63C65.91 22.81 65.39 23.17 65.26 23.29Z" fill="#9AA4B3"/>
<path d="M66.6499 22.97C67.0299 22.34 67.4599 21.75 67.8999 21.17C68.3599 20.58 68.8999 19.84 69.6299 19.57C69.0199 20.01 68.5799 20.65 68.1299 21.24C67.6699 21.84 67.1799 22.43 66.6499 22.97Z" fill="#9AA4B3"/>
<path d="M67.8699 22.75C68.1899 21.7 68.9599 20.53 69.9799 20.05C69.1499 20.84 68.5199 21.81 67.8699 22.75Z" fill="#9AA4B3"/>
<path d="M69.04 22.56C69.15 21.77 69.52 20.82 70.33 20.53C69.73 21.12 69.47 21.87 69.04 22.56Z" fill="#9AA4B3"/>
<path d="M70.1199 22.39C70.0599 21.91 70.2599 21.29 70.6499 20.99C70.5399 21.47 70.3699 21.97 70.1199 22.39Z" fill="#9AA4B3"/>
<path d="M70.9199 22.26C71.1599 20.75 71.6599 19.19 73.1199 18.47C72.5499 18.95 72.0499 19.48 71.7499 20.17C71.4499 20.86 71.2099 21.57 70.9199 22.26Z" fill="#9AA4B3"/>
<path d="M71.9199 22.15C71.9199 21.12 72.2699 19.02 73.5499 18.81C72.4699 19.37 72.2199 21.1 71.9199 22.15Z" fill="#9AA4B3"/>
<path d="M72.7399 22.06C72.6599 20.92 73.2499 19.66 74.2799 19.13C73.4799 19.96 73.0199 20.94 72.7399 22.06Z" fill="#9AA4B3"/>
<path d="M73.6999 21.96C73.5699 21.01 73.8699 19.65 74.8199 19.21C74.1099 19.96 73.9199 20.99 73.6999 21.96Z" fill="#9AA4B3"/>
<path d="M74.5699 21.89C74.0199 20.9 74.77 19.74 75.63 19.24C75 20.02 74.4099 20.83 74.5699 21.89Z" fill="#9AA4B3"/>
<path d="M75.2999 21.85C75.1099 20.89 75.6498 19.84 76.4598 19.34C75.8898 20.1 75.4599 20.9 75.2999 21.85Z" fill="#9AA4B3"/>
<path d="M76.3099 21.8C76.1599 20.95 76.4798 19.9 77.1898 19.38C76.7498 20.15 76.5199 20.95 76.3099 21.8Z" fill="#9AA4B3"/>
<path d="M77.2599 21.78C77.0499 20.98 77.3399 20 77.9899 19.49C77.6199 20.23 77.3999 20.96 77.2599 21.78Z" fill="#9AA4B3"/>
<path d="M78.3398 21.78C77.7798 20.97 78.2998 19.86 78.9598 19.29C78.5698 20.08 78.1498 20.86 78.3398 21.78Z" fill="#9AA4B3"/>
<path d="M79.1799 21.77C78.8599 21.13 79.0498 20.22 79.5898 19.76C79.3498 20.42 79.1999 21.07 79.1799 21.77Z" fill="#9AA4B3"/>
<path d="M80.0501 21.77C79.7401 21.02 79.93 20.03 80.59 19.53C80.23 20.26 80.1001 20.97 80.0501 21.77Z" fill="#9AA4B3"/>
<path d="M80.93 21.77C80.54 21 80.76 19.96 81.37 19.37C81.06 20.16 80.9 20.92 80.93 21.77Z" fill="#9AA4B3"/>
<path d="M81.66 21.78C81.27 20.96 81.5099 19.86 82.2199 19.29C81.7999 20.08 81.62 20.88 81.66 21.78Z" fill="#9AA4B3"/>
<path d="M82.6299 21.78C82.1799 20.96 82.55 19.88 83.18 19.26C82.84 20.08 82.5399 20.87 82.6299 21.78Z" fill="#9AA4B3"/>
<path d="M83.5199 21.78C83.1299 20.77 83.5599 19.53 84.2999 18.79C83.8499 19.76 83.4899 20.7 83.5199 21.78Z" fill="#9AA4B3"/>
<path d="M84.5501 21.79C84.1401 20.99 84.3501 19.92 84.9301 19.27C84.6501 20.1 84.4801 20.9 84.5501 21.79Z" fill="#9AA4B3"/>
<path d="M85.5301 21.79C85.1201 21.25 85.13 20.33 85.63 19.85C85.46 20.51 85.4601 21.12 85.5301 21.79Z" fill="#9AA4B3"/>
<path d="M86.42 21.72C86.04 21.11 86.1099 20.16 86.6999 19.71C86.6599 19.69 86.43 20.62 86.42 20.69C86.39 21.03 86.41 21.38 86.42 21.72Z" fill="#9AA4B3"/>
<path d="M87.3799 21.77C86.9999 20.95 87.1899 19.84 87.8499 19.22C87.4899 20.05 87.3399 20.87 87.3799 21.77Z" fill="#9AA4B3"/>
<path d="M88.56 21.82C87.88 20.88 88.1 19.54 88.92 18.78C88.41 19.76 88.23 20.73 88.56 21.82Z" fill="#9AA4B3"/>
<path d="M89.5101 21.83C89.1701 21.42 88.9501 20.59 89.3801 20.16C89.2801 20.72 89.4601 21.27 89.5101 21.83Z" fill="#9AA4B3"/>
<path d="M90.3899 21.84C90.1399 21.69 89.8599 21.18 90.1399 20.93C90.2099 21.24 90.3699 21.51 90.3899 21.84Z" fill="#9AA4B3"/>
<path d="M91.02 21.92C90.77 21.72 90.53 21.11 90.91 20.91C90.85 21.23 91.02 21.58 91.02 21.92Z" fill="#9AA4B3"/>
<path d="M91.6298 21.83C91.3798 21.51 91.1998 20.69 91.6998 20.51C91.4998 20.9 91.6598 21.41 91.6298 21.83Z" fill="#9AA4B3"/>
<path d="M92.52 21.87C92.12 21 92.38 19.86 93 19.16C92.68 20.05 92.47 20.92 92.52 21.87Z" fill="#9AA4B3"/>
<path d="M93.5299 21.88C93.1299 21.5 92.9598 20.73 93.3198 20.27C93.2898 20.27 93.4999 21.75 93.5299 21.88Z" fill="#9AA4B3"/>
<path d="M94.1599 21.89C94.0299 21.96 93.7098 21.38 93.8398 21.3C93.9698 21.23 94.2899 21.82 94.1599 21.89Z" fill="#9AA4B3"/>
<path d="M96.02 21.93C96.69 21.17 97.73 20.4 98.03 19.39C98.08 20.44 96.84 21.46 96.02 21.93Z" fill="#9AA4B3"/>
<path d="M96.97 21.95C97.55 21.41 98.04 20.85 98.5 20.21C98.37 20.99 97.73 21.72 96.97 21.95Z" fill="#9AA4B3"/>
<path d="M97.9199 21.97C98.2399 21.6 98.5899 21.26 98.8999 20.89C98.8999 21.4 98.3999 21.89 97.9199 21.97Z" fill="#9AA4B3"/>
<path d="M98.98 22C99 21.84 99.11 21.59 99.26 21.51C99.41 21.71 99.23 22.02 98.98 22Z" fill="#9AA4B3"/>
<path d="M75.1199 50.74C76.8599 50.47 78.6099 50.28 80.3599 50.09C81.4299 49.97 82.4998 49.88 83.5798 49.78C84.0698 49.73 84.5599 49.69 85.0499 49.64C85.1399 49.63 86.1199 49.46 86.1199 49.45C86.1599 49.56 83.7799 49.92 83.5999 49.94C82.5099 50.09 81.3999 50.21 80.2999 50.32C78.5699 50.48 76.8499 50.65 75.1199 50.74Z" fill="#9AA4B3"/>
<path d="M76.6399 49.57C78.1599 49.49 79.6898 49.43 81.2098 49.37C82.8298 49.3 84.5199 49.33 86.1099 48.96C84.5999 49.52 82.8098 49.54 81.2198 49.59C79.6998 49.63 78.1699 49.66 76.6399 49.57Z" fill="#9AA4B3"/>
<path d="M77.9299 48.53C79.1699 48.58 80.4099 48.64 81.6499 48.62C82.8899 48.6 84.1299 48.45 85.3699 48.42C82.8999 48.85 80.4199 48.99 77.9299 48.53Z" fill="#9AA4B3"/>
<path d="M79.25 47.42C80.89 47.64 82.5201 47.85 84.1801 47.72C82.6201 48.2 80.77 47.98 79.25 47.42Z" fill="#9AA4B3"/>
<path d="M80.4099 46.44C81.3599 46.7 82.2899 46.96 83.2799 47.03C82.3499 47.32 81.1799 47.01 80.4099 46.44Z" fill="#9AA4B3"/>
<path d="M81.22 45.73C81.7 45.86 82.12 46.18 82.61 46.26C82.16 46.51 81.49 46.09 81.22 45.73Z" fill="#9AA4B3"/>
<path d="M81.8398 45.19C81.9898 45.14 82.2299 45.47 82.3099 45.56C81.9999 45.77 81.8198 45.2 81.8398 45.19C81.8298 45.19 81.8498 45.19 81.8398 45.19Z" fill="#9AA4B3"/>
<path d="M82.2199 44.86C82.3199 44.76 82.5699 45.02 82.4699 45.12C82.3599 45.21 82.1199 44.95 82.2199 44.86Z" fill="#9AA4B3"/>
<path d="M82.5999 44.5C82.9799 44.65 83.2499 44.97 83.6099 45.14C83.1999 45.3 82.7199 44.84 82.5999 44.5Z" fill="#9AA4B3"/>
<path d="M83.1399 44.04C83.6199 44.33 84.0598 44.67 84.5898 44.86C84.0198 45.03 83.3599 44.54 83.1399 44.04Z" fill="#9AA4B3"/>
<path d="M83.78 43.46C83.87 43.53 84.88 44.2 84.88 44.17C84.41 44.34 83.85 43.93 83.78 43.46Z" fill="#9AA4B3"/>
<path d="M84.3498 42.94C84.4598 43.06 84.8799 43.11 84.9299 43.28C84.6899 43.42 84.2998 43.24 84.3498 42.94Z" fill="#9AA4B3"/>
<path d="M85.0999 42.25C85.4799 42.46 85.8298 42.73 86.1998 42.97C85.7398 43.06 85.2299 42.67 85.0999 42.25Z" fill="#9AA4B3"/>
<path d="M85.6699 41.72C86.1799 42.19 86.6398 42.69 87.1898 43.11C86.4998 43.04 85.8799 42.35 85.6699 41.72Z" fill="#9AA4B3"/>
<path d="M86.1899 41.23C86.6899 41.73 87.16 42.58 87.85 42.83C87.08 42.91 86.4099 41.84 86.1899 41.23Z" fill="#9AA4B3"/>
<path d="M86.6899 40.76C87.2199 40.94 87.76 41.48 87.83 42.04C87.44 41.62 87.0299 41.21 86.6899 40.76Z" fill="#9AA4B3"/>
<path d="M88.26 39.26C88.78 39.61 89.17 40.14 89.7 40.47C89.09 40.48 88.49 39.76 88.26 39.26Z" fill="#9AA4B3"/>
<path d="M88.9199 38.62C89.5099 39.28 90.0098 40.04 90.7098 40.59C89.8598 40.37 89.1899 39.41 88.9199 38.62Z" fill="#9AA4B3"/>
<path d="M89.51 38.05C90.17 38.8 90.76 39.59 91.51 40.26C90.59 39.94 89.84 38.93 89.51 38.05Z" fill="#9AA4B3"/>
<path d="M89.8799 37.68C90.4399 37.99 90.9699 38.51 91.2999 39.06C90.7399 38.75 90.2099 38.23 89.8799 37.68Z" fill="#9AA4B3"/>
<path d="M90.6199 36.95C91.1099 37.14 91.5798 37.45 91.9698 37.78C91.4498 37.75 90.8899 37.39 90.6199 36.95Z" fill="#9AA4B3"/>
<path d="M91.3198 36.25C91.9098 36.79 92.4299 37.41 93.1399 37.8C92.3299 37.77 91.6098 36.94 91.3198 36.25Z" fill="#9AA4B3"/>
<path d="M91.8899 35.67C92.5199 36.27 93.0699 37.1 93.8599 37.49C92.9899 37.42 92.2099 36.41 91.8899 35.67Z" fill="#9AA4B3"/>
<path d="M92.3799 35.17C93.0799 35.59 93.9399 36.3 94.2499 37.08C93.6399 36.43 92.9199 35.89 92.3799 35.17Z" fill="#9AA4B3"/>
<path d="M92.8599 34.68C93.5399 34.95 94.2699 35.54 94.5399 36.24C93.9799 35.71 93.3799 35.24 92.8599 34.68Z" fill="#9AA4B3"/>
<path d="M93.3 34.22C93.67 34.3 94.14 34.61 94.22 35.01C94.22 34.97 93.81 34.74 93.78 34.72C93.6 34.58 93.42 34.42 93.3 34.22Z" fill="#9AA4B3"/>
<path d="M93.9399 33.56C94.5899 33.69 95.18 34.02 95.74 34.37C95.12 34.35 94.3999 33.96 93.9399 33.56Z" fill="#9AA4B3"/>
<path d="M94.45 33.03C95.27 33.41 96.03 34.03 96.91 34.28C96.04 34.37 95.01 33.63 94.45 33.03Z" fill="#9AA4B3"/>
<path d="M95.02 32.42C95.8 32.89 96.53 33.68 97.41 33.96C96.53 34.03 95.51 33.06 95.02 32.42Z" fill="#9AA4B3"/>
<path d="M95.5698 31.84C95.9598 32.12 96.3099 32.43 96.6699 32.75C97.0099 33.05 97.3499 33.43 97.7699 33.62C96.9099 33.59 95.9898 32.49 95.5698 31.84Z" fill="#9AA4B3"/>
<path d="M95.99 31.38C96.36 31.65 96.7 31.96 97.04 32.27C97.36 32.56 97.68 32.95 98.08 33.13C97.26 33.09 96.39 32.01 95.99 31.38Z" fill="#9AA4B3"/>
<path d="M96.46 30.88C97.14 31.34 97.58 32.04 98.22 32.53C98.11 32.65 97.31 31.9 97.23 31.82C96.93 31.54 96.66 31.22 96.46 30.88Z" fill="#9AA4B3"/>
<path d="M96.8198 30.48C97.2698 30.69 97.6899 31.11 97.9099 31.56C97.4499 31.35 97.0298 30.93 96.8198 30.48Z" fill="#9AA4B3"/>
<path d="M97.1699 30.09C97.6599 30.36 98.0999 30.75 98.5099 31.12C97.9599 31.05 97.4199 30.57 97.1699 30.09Z" fill="#9AA4B3"/>
<path d="M97.6399 29.57C98.1999 29.96 98.6499 30.59 99.2799 30.87C98.5999 30.94 97.9099 30.11 97.6399 29.57Z" fill="#9AA4B3"/>
<path d="M98.1599 29.02C98.7699 29.49 99.2199 30.21 99.8599 30.62C99.1399 30.52 98.4699 29.62 98.1599 29.02Z" fill="#9AA4B3"/>
<path d="M98.55 28.55C99.21 28.97 99.83 29.58 100.26 30.23C99.59 29.82 98.97 29.21 98.55 28.55Z" fill="#9AA4B3"/>
<path d="M98.96 28.07C99.61 28.32 100.35 28.89 100.58 29.57C100.06 29.05 99.45 28.62 98.96 28.07Z" fill="#9AA4B3"/>
<path d="M99.3699 27.58C99.7499 27.64 100.08 27.99 100.18 28.35C99.8399 28.19 99.5499 27.89 99.3699 27.58Z" fill="#9AA4B3"/>
<path d="M35.5 60.32C38.74 60.12 41.96 59.68 45.15 59.08C45.15 59.09 45.16 59.1 45.16 59.11C43.39 59.91 41.43 60.06 39.51 60.2C38.56 60.27 37.6 60.31 36.65 60.33C36.47 60.34 35.59 60.46 35.5 60.32Z" fill="#A8B3C2"/>
<path d="M35.23 59.7C36.79 59.52 38.35 59.32 39.91 59.11C41.08 58.95 42.25 58.76 43.43 58.6C44.4 58.47 45.36 58.36 46.31 58.13C46.31 58.14 46.32 58.15 46.32 58.16C45.47 58.59 44.48 58.75 43.56 58.91C42.31 59.13 41.04 59.23 39.78 59.35C38.68 59.46 37.59 59.55 36.49 59.63C36.3 59.66 35.34 59.84 35.23 59.7Z" fill="#A8B3C2"/>
<path d="M35.01 59.11C37.09 58.71 39.2 58.45 41.28 58.06C42.42 57.85 43.56 57.62 44.69 57.4C45.55 57.24 46.67 57.15 47.43 56.67C47.44 56.68 47.44 56.69 47.45 56.7C46.74 57.35 45.51 57.54 44.6 57.76C43.43 58.04 42.24 58.2 41.05 58.38C39.88 58.55 38.71 58.71 37.53 58.85C36.99 58.92 36.44 58.98 35.9 59.04C35.7 59.06 35.17 59.22 35.01 59.11Z" fill="#A8B3C2"/>
<path d="M34.8599 58.6C36.7799 58.2 38.6999 57.78 40.6099 57.33C42.0799 56.98 43.5299 56.59 44.9899 56.22C46.1699 55.92 47.3598 55.62 48.4698 55.11C48.4798 55.12 48.4799 55.13 48.4899 55.14C47.4499 55.85 46.1999 56.23 44.9999 56.57C43.4999 57 41.9599 57.3 40.4299 57.61C39.0999 57.88 37.7699 58.13 36.4299 58.37C36.0399 58.44 35.6499 58.51 35.2599 58.57C35.1499 58.58 34.9199 58.66 34.8599 58.6Z" fill="#A8B3C2"/>
<path d="M34.73 58.01C36.78 57.48 38.82 56.93 40.85 56.37C42.39 55.94 43.91 55.48 45.44 55.02C46.67 54.65 47.91 54.31 49.09 53.81C49.1 53.82 49.1 53.83 49.11 53.84C48 54.52 46.75 54.94 45.52 55.34C43.95 55.85 42.34 56.23 40.75 56.63C39.33 56.99 37.9 57.32 36.47 57.65C36.04 57.75 35.61 57.84 35.18 57.94C35.06 57.97 34.82 58.06 34.73 58.01Z" fill="#A8B3C2"/>
<path d="M34.7 57.49C36.69 56.81 38.6799 56.12 40.6599 55.44C42.2099 54.91 43.7599 54.33 45.3199 53.82C46.5999 53.4 47.89 53.01 49.15 52.52C49.16 52.53 49.1599 52.54 49.1699 52.55C47.9299 53.26 46.5399 53.75 45.1899 54.23C43.6399 54.78 42.0599 55.26 40.4899 55.75C39.1299 56.18 37.76 56.6 36.39 57.02C35.97 57.15 35.5499 57.27 35.1299 57.4C35.0099 57.44 34.78 57.54 34.7 57.49Z" fill="#A8B3C2"/>
<path d="M34.8099 56.96C36.5999 56.09 38.3999 55.26 40.2199 54.47C41.6299 53.85 43.0499 53.21 44.4999 52.7C45.6299 52.3 46.82 51.89 48.03 51.83C48.03 51.84 48.03 51.85 48.03 51.86C46.84 52.14 45.6999 52.6 44.5599 53.04C43.0899 53.61 41.61 54.16 40.15 54.76C38.88 55.28 37.61 55.81 36.34 56.35C35.96 56.51 35.5699 56.68 35.1899 56.84C35.0799 56.88 34.8999 57 34.8099 56.96Z" fill="#A8B3C2"/>
<path d="M37.47 55.33C38.54 54.75 39.62 54.19 40.71 53.64C42.11 52.94 43.53 52.16 45.09 51.85C45.09 51.86 45.1 51.87 45.1 51.88C43.71 52.56 42.31 53.19 40.9 53.82C40.08 54.19 39.27 54.55 38.45 54.92C38.27 55.01 37.62 55.41 37.47 55.33Z" fill="#A8B3C2"/>
<path d="M100.77 22.29C100.66 22.36 100.55 22.43 100.44 22.48C100.54 22.44 100.66 22.37 100.77 22.29Z" fill="#9AA4B3"/>
</svg>
