<svg width="88" height="105" viewBox="0 0 88 105" fill="none" xmlns="http://www.w3.org/2000/svg">
<path d="M18.91 57.46C17.53 58.99 14.61 65.57 13.73 69.27C12.69 73.66 8.22005 77.12 6.71005 83C5.20005 88.88 8.23005 91.92 12.33 91.94C15.87 91.96 18.26 86 15.74 83.58C13.6 81.52 9.93001 83.18 10.54 86.11C11.02 88.46 13.72 88.3 14.36 86.3C14.58 85.36 12.0301 84.61 11.6501 86.55C10.9701 85.44 11.46 83.34 13.8 83.41C16.53 83.49 17.11 88.75 13.67 90.71C11.07 92.2 5.70001 89.75 7.42001 83.56C9.14001 77.36 12.3801 75.49 14.0301 70.78C15.6801 66.07 15.96 63.71 17.77 60.36C19.58 57.01 18.91 57.46 18.91 57.46Z" fill="#F37957"/>
<path d="M20.5199 58.46C19.1599 63.22 17.1399 68.36 18.3699 78.14C19.6099 88.03 20.5099 96.85 19.2699 99.8C18.0299 102.75 16.0599 103.92 14.3399 103.22C13.3099 102.74 13.4599 101.02 14.1599 101.03C14.7899 102.17 16.3199 100.95 15.5699 99.92C14.9499 99.06 13.2499 99.23 12.6899 101.36C12.3399 102.71 13.4699 104.35 15.2199 104.22C16.9699 104.09 18.9199 103.4 20.1399 99.34C21.3599 95.28 20.4599 86.96 19.7199 81.56C18.9799 76.16 18.2899 66.37 21.3699 61.07C24.4499 55.77 21.6099 55.39 21.0099 56.87C20.7699 57.47 20.5199 58.46 20.5199 58.46Z" fill="#F37957"/>
<path d="M57.6099 51.25C54.9799 50.67 46.9799 51.47 43.6599 55.51C40.3399 59.55 38.08 58.63 35.02 63.1C31.96 67.57 28.2899 68.53 28.2899 68.53C28.2899 68.53 29.8399 69.38 30.9699 69.25C28.6499 69.73 28.2899 69.86 28.2899 69.86C28.2899 69.86 29.92 70.57 34.4 70.11C32.5 70.8 31.3499 70.86 31.3499 70.86C31.3499 70.86 39.79 71.26 45.9 69.69C52.01 68.12 54.3499 63.29 57.9299 61.21C61.5199 59.13 63.9499 56.14 63.7599 54.84C63.57 53.53 57.6099 51.25 57.6099 51.25Z" fill="#F07856"/>
<path d="M58.64 53.67C54.7 54.61 50.68 55.58 47.18 57.7C46.22 58.28 45.31 58.95 44.47 59.69C43.61 60.45 42.85 61.31 42.03 62.11C40.37 63.72 38.53 65.17 36.61 66.47C34.76 67.72 32.72 69.01 30.48 69.35C32.48 68.92 34.27 67.75 35.94 66.6C37.83 65.3 39.64 63.83 41.31 62.26C42.15 61.47 42.9 60.59 43.74 59.8C44.57 59.02 45.48 58.32 46.44 57.71C48.44 56.45 50.63 55.57 52.9 54.93C54.78 54.4 56.71 54 58.64 53.67Z" fill="#DB6949"/>
<path d="M58.1499 54.34C57.0899 55.55 55.8699 56.57 54.6499 57.61C53.0199 59 51.4599 60.4 50.0199 61.99C48.6099 63.55 47.2299 65.18 45.5199 66.42C43.8299 67.64 41.7899 68.36 39.7999 68.92C38.0199 69.42 36.1999 69.73 34.3899 70.1C37.8499 69.1 41.5499 68.52 44.6399 66.55C46.3799 65.45 47.7799 63.86 49.1599 62.36C49.8999 61.55 50.6399 60.74 51.4299 59.98C52.1699 59.27 52.9699 58.64 53.7699 58C55.2599 56.81 56.7799 55.67 58.1499 54.34Z" fill="#DB6949"/>
<path d="M58.15 53.57C56.67 54.79 54.92 55.72 53.32 56.77C51.32 58.08 49.31 59.48 47.62 61.18C46.81 61.99 46.15 62.94 45.3 63.72C44.45 64.5 43.52 65.17 42.54 65.78C40.53 67.03 38.31 67.92 36.03 68.54C33.97 69.1 31.88 69.37 29.75 69.5C33.98 68.99 38.15 67.93 41.84 65.75C42.84 65.16 43.8 64.49 44.66 63.72C45.55 62.93 46.27 62 47.1 61.14C48.69 59.47 50.65 58.15 52.59 56.92C53.63 56.27 54.69 55.64 55.75 55.02C56.57 54.56 57.4 54.12 58.15 53.57Z" fill="#DB6949"/>
<path d="M58.3499 53.05C56.2999 52.42 54.15 52.31 52.03 52.68C49.57 53.11 47.26 54.2 45.15 55.5C44.64 55.81 44.13 56.13 43.71 56.55C43.27 56.99 42.96 57.53 42.53 57.98C41.67 58.85 40.62 59.5 39.64 60.21C38.69 60.89 37.8199 61.67 37.1099 62.6C36.3599 63.59 35.8099 64.72 34.9099 65.6C33.9799 66.52 32.7999 67.18 31.6099 67.7C30.5799 68.15 29.4399 68.66 28.2899 68.51C29.2999 68.58 30.25 68.15 31.14 67.74C32.22 67.24 33.3 66.65 34.21 65.87C35.11 65.09 35.6799 64.1 36.3199 63.11C36.9999 62.05 37.8299 61.13 38.8099 60.34C39.7499 59.58 40.79 58.95 41.71 58.16C42.62 57.38 43.1999 56.34 44.1899 55.65C46.2299 54.23 48.6299 53.11 51.0599 52.59C53.4799 52.08 56.0099 52.19 58.3499 53.05Z" fill="#DB6949"/>
<path d="M60.7599 54.84C60.6099 55.8 60.27 56.64 59.64 57.4C58.86 58.33 57.8499 59.05 56.8599 59.74C55.8199 60.47 54.7199 61.12 53.7599 61.97C52.8099 62.8 52.0099 63.78 51.1599 64.7C49.4999 66.51 47.6299 67.88 45.3599 68.81C43.0299 69.76 40.4999 70.31 38.0099 70.66C35.8399 70.97 33.52 71.15 31.34 70.85C33.19 70.99 35.0799 70.8 36.9199 70.56C39.4299 70.22 41.9199 69.62 44.3199 68.8C46.6099 68.01 48.6499 66.72 50.3499 65C51.2399 64.1 52.04 63.11 52.95 62.23C53.85 61.37 54.8699 60.71 55.9199 60.05C57.0599 59.32 58.2499 58.59 59.2299 57.64C60.0399 56.85 60.5199 55.94 60.7599 54.84Z" fill="#DB6949"/>
<path d="M49.2899 5.65001C50.2799 4.04001 54.86 -0.199989 61.09 1.03001C67.32 2.26001 68.6399 4.65 69.0499 5.77C70.0399 5.01 75.7099 5.17997 79.1899 9.54997C82.6699 13.92 82.02 16.86 82.02 16.86C82.02 16.86 85.7299 17.51 87.3099 22.36C88.8899 27.2 86.6299 29.92 86.6299 29.92C86.6299 29.92 88.8599 32.31 87.2899 36.68C85.7199 41.05 82.42 41.88 82.14 42.01C81.86 42.15 82.0399 46.21 78.3099 49.2C74.5799 52.19 71.0099 51.96 71.0099 51.96C71.0099 51.96 70.87 54.74 67.4 56.72C63.93 58.7 54.4999 52.96 55.4299 47.08C56.3599 41.2 61.8699 42.23 61.8699 42.23C61.8699 42.23 63.17 35.98 67.95 35.85C67.01 34.48 67.7399 32.8 68.4799 32.7C67.7599 32.17 67.82 31.22 68.03 30.7C66.92 31.22 65.3999 30.25 65.3599 28.97C63.9299 30.04 61.6399 27.35 62.4299 26.04C61.5299 27.87 58.9899 28.09 57.7399 26.99C56.4999 25.91 49.2899 5.65001 49.2899 5.65001Z" fill="#FC8260"/>
<path d="M58.67 53.98C58.59 53.91 60.89 52.69 61.03 52.6C61.9 52.03 63.26 50.69 63.46 50.21C63.76 49.49 65.18 47.92 66.09 47.19C66.61 46.77 67.3 46.53 67.91 46.31C68.35 46.15 68.8 45.99 69 45.82C69.3 45.55 70.2 45.2 71.63 44.65C72.75 44.22 74.15 43.68 74.51 43.39C75.22 42.81 75.94 41.38 76.52 40.24C76.89 39.5 77.09 38.71 77.3 37.86C77.43 37.32 77.57 36.77 77.77 36.2C78.22 34.88 77.65 31.84 77.06 30.52C76.83 29.99 76.6 29.37 76.36 28.71C75.97 27.64 75.57 26.53 75.16 25.95C74.54 25.07 74.17 23.73 73.99 21.74C73.89 20.64 72.78 20.01 71.24 19.14C71.06 19.04 70.87 18.93 70.68 18.82L70.62 18.78C68.77 17.72 67.65 17.08 66.64 16.06C65.82 15.24 64.27 15.25 61.32 15.56C58.73 15.83 57.64 15.31 56.84 14.92C56.72 14.86 56.6 14.81 56.49 14.76L56.82 13.99C56.95 14.04 57.07 14.1 57.21 14.17C57.96 14.53 58.89 14.98 61.24 14.73C64.02 14.44 66.08 14.32 67.24 15.48C68.18 16.42 69.26 17.04 71.05 18.06L71.11 18.1C71.3 18.21 71.48 18.31 71.66 18.41C73.29 19.33 74.7 20.13 74.84 21.67C74.94 22.82 75.16 24.47 75.86 25.47C76.33 26.14 76.75 27.3 77.16 28.42C77.39 29.06 77.61 29.67 77.84 30.18C78.49 31.64 79.11 34.89 78.58 36.47C78.4 37.01 78.26 37.55 78.13 38.07C77.91 38.96 77.7 39.79 77.28 40.62C76.63 41.9 75.9 43.36 75.05 44.05C74.63 44.39 73.55 44.82 71.95 45.44C71.03 45.79 69.78 46.28 69.57 46.46C69.25 46.74 68.77 46.91 68.21 47.11C67.66 47.3 67.04 47.53 66.64 47.85C65.79 48.54 64.48 50.02 64.26 50.54C63.94 51.3 62.34 52.7 61.48 53.26C61.35 53.35 59.95 54.11 59.86 54.17C59.62 54.33 59.25 54.46 59.23 54.43C58.96 54.27 58.86 54.16 58.67 53.98Z" fill="#ED714F"/>
<path d="M78.1599 40.81C77.9699 40.75 79.82 42.01 82 42.49C82.05 42.21 82.09 42.03 82.14 42C82.31 41.92 83.5099 41.6 84.7899 40.46C82.0199 41.45 78.3699 40.88 78.1599 40.81Z" fill="#D16545"/>
<path d="M73.2299 51.71C71.1099 51.33 69.0399 50.33 68.1799 49.14C68.6999 50.41 69.6699 51.61 70.9099 52.52C70.9999 52.18 71.0099 51.96 71.0099 51.96C71.0099 51.96 71.8899 52.02 73.2299 51.71Z" fill="#D16545"/>
<path d="M68.3 14.25C67.8 16.21 69.49 15.17 69.3 10.89C69.21 8.91001 69.36 7.02 69.53 5.56C69.32 5.62 69.16 5.69002 69.05 5.77002C68.84 5.21002 68.41 4.34001 67.27 3.45001C67.97 6.53001 68.71 12.63 68.3 14.25Z" fill="#D16545"/>
<path d="M87.8 26.76C86.07 29.05 84.4 30.56 82.77 31.22C84.07 31.33 85.65 30.86 86.95 30.34C86.77 30.06 86.64 29.91 86.64 29.91C86.64 29.91 87.54 28.81 87.8 26.76Z" fill="#D16545"/>
<path d="M82.53 17C82.21 16.89 82.01 16.85 82.01 16.85C82.01 16.85 82.28 15.62 81.53 13.58C81.39 17.11 80.1 21.15 79.03 22.37C80.27 22.1 81.6 19.34 82.53 17Z" fill="#D16545"/>
<path d="M67.3201 30.85C67.5701 30.86 67.81 30.82 68.04 30.71C67.97 30.89 67.9201 31.12 67.9001 31.36C69.2401 30.33 70.8501 28.8 71.2601 27.14C69.8701 29 68.4301 30.12 67.3201 30.85Z" fill="#D16545"/>
<path d="M68.3201 32.56C68.3701 32.61 68.4201 32.67 68.4901 32.71C68.2401 32.74 67.9901 32.96 67.8101 33.28C69.4801 33.14 71.74 32.77 72.97 31.79C72.42 32.19 70.1501 32.43 68.3201 32.56Z" fill="#D16545"/>
<path d="M62.44 26.05C62.25 26.36 62.24 26.76 62.35 27.16C64.5 24.73 66.53 19.75 66.53 19.75C66.53 19.75 65.21 22.09 63.95 23.66C62.1 25.97 60.84 27.11 60 27.65C60.98 27.56 61.95 27.05 62.44 26.05Z" fill="#D16545"/>
<path d="M63.08 39.17C62.19 40.72 61.87 42.24 61.87 42.24C61.87 42.24 61.29 42.13 60.48 42.19C61.54 43.06 62.87 44.46 65.52 46.08C63.53 44.29 63.05 41.56 63.08 39.17Z" fill="#D16545"/>
<path d="M63.98 29.08C64.45 29.29 64.95 29.3 65.37 28.99C65.38 29.19 65.42 29.39 65.5 29.57C67.03 27.87 69.02 25.21 69.02 25.21C69.02 25.21 69.02 25.21 65.41 28.11C64.91 28.5 64.43 28.82 63.98 29.08Z" fill="#D16545"/>
<path d="M73.47 37.19C71.39 37.35 69.1101 36.03 67.5601 34.9C67.6201 35.22 67.7401 35.55 67.9601 35.87C67.5601 35.88 67.1801 35.94 66.8201 36.03C68.6001 36.83 70.99 37.55 73.47 37.19Z" fill="#D16545"/>
<path d="M55.1199 15.08C55.1199 15.08 58.06 15.52 57.89 20.07C57.72 24.63 57.0999 25.88 57.7499 27.01C57.2699 28.69 52.8999 33.99 46.4199 38.85C39.9399 43.72 21.7699 58.88 20.6099 65.18C19.4499 71.48 19.14 76.8 19.14 76.8C19.14 76.8 19.0899 62.36 21.4899 58.31C23.8999 54.26 15.0099 64.02 16.3599 72.15C14.7099 66.81 16.7099 60.38 17.9899 58C14.8699 63.31 12.0499 66.37 11.0399 71.55C10.7899 66.22 15.4699 58.12 15.4699 58.12C15.4699 58.12 9.94991 66.36 6.84991 69.7C3.74991 73.04 0.959961 70.93 0.959961 70.93C0.959961 70.93 4.45996 72.35 7.70996 67.19C10.96 62.02 16.3399 54.07 17.6099 52.25C18.8799 50.44 40.94 17.91 46.84 16.69C52.73 15.48 55.1199 15.08 55.1199 15.08Z" fill="#E66F4C"/>
<path d="M28.46 39.67C29.98 40.2 33.1899 41.06 35.5699 38.5C37.9499 35.94 35.1899 31.93 33.5099 31.34C31.8299 30.76 28.46 39.67 28.46 39.67Z" fill="#2E2E2E"/>
<path d="M46.6199 6.34003C43.5299 8.00003 31.4399 14.1 24.4999 25.97C17.5599 37.84 17.0899 45.55 14.9499 52.26C12.8099 58.97 11.1099 61.21 11.1099 61.21C11.1099 61.21 15.7699 56.19 19.8499 53.13C23.9299 50.07 26.1799 48.54 29.3199 40.15C32.4499 31.76 39.1999 28.02 44.1199 26.5C49.0399 24.98 57.4599 22.94 57.7599 18.59C58.0699 14.25 57.0899 12.7 53.7399 10.86C50.3899 9.01998 50.5499 6.07999 49.9899 5.36999C49.4299 4.66999 48.3199 5.42003 46.6199 6.34003Z" fill="#F37957"/>
<path d="M39.9899 36.11C37.7899 36.28 34.8299 37.34 31.2199 43.73C27.6099 50.12 22.84 56.1299 21.7 57.4699C23.58 57.0399 26.55 52.11 29.52 47.82C32.49 43.53 34.4099 38.71 37.6799 37.57C38.4099 37.78 39.2499 38.32 40.6199 37.38C41.9899 36.44 40.9199 36.04 39.9899 36.11Z" fill="#944731"/>
<path d="M35.56 33.77C35.73 34.22 35.63 34.67 35.34 34.78C35.05 34.89 34.67 34.62 34.5 34.17C34.33 33.72 34.4299 33.27 34.7199 33.16C35.0199 33.05 35.39 33.32 35.56 33.77Z" fill="#F0F0F0"/>
</svg>
