<svg width="112" height="121" viewBox="0 0 112 121" fill="none" xmlns="http://www.w3.org/2000/svg">
<path d="M36.4699 76.65C30.1399 76.48 24.6399 77.9199 22.4099 77.5999C20.1799 77.2799 14.64 74.27 9.01996 76.58C3.39996 78.89 1.81995 82.73 1.81995 82.73C1.81995 82.73 7.63994 78.02 13.8799 79.46C20.1199 80.9 27.8499 79.78 32.5699 80.39C37.2899 81 38.6299 85.42 37.1299 89.03C35.6399 92.64 29.08 93.42 24.64 97.23C20.2 101.03 19.9899 105.39 19.1299 107.67C23.1999 103.47 21.99 101.84 27.71 98.78C33.43 95.72 38.26 94.68 41.71 90.37C45.16 86.07 47.6599 92.23 46.2999 95.49C44.9399 98.76 39.3499 103.17 38.7999 107.4C38.2499 111.63 39.92 112.61 38.71 115.8C41.03 111.28 39.98 107.84 41.7 105.36C43.42 102.88 47.6099 102.38 50.3599 96.02C53.1099 89.66 54.25 89.3999 54.59 92.6599C54.92 95.9199 52.9 97.59 54.59 103.01C56.28 108.43 57.0699 110.03 54.5599 113C58.3499 111.04 58.3799 109.14 58.3499 106.43C58.3199 103.72 56.29 101.74 57.58 97.18C58.87 92.62 60.3199 85.7799 56.3099 82.3499C52.2999 78.9399 36.4699 76.65 36.4699 76.65Z" fill="#D9ACA7"/>
<path d="M44.3799 66.3C43.1499 69.56 39.7599 73.24 37.8199 73.99C35.8899 74.74 31.5399 74.26 27.9299 70.92C24.3199 67.58 22.7899 66.57 19.1799 67.38C15.5699 68.19 14.1699 70.27 11.2399 69.51C8.30993 68.75 7.12994 70.48 7.12994 70.48C7.12994 70.48 10.3599 69.5301 12.0499 71.0301C13.7399 72.5401 18.5899 70.98 20.7999 71.81C23.0099 72.64 22.91 75.21 27.64 77.18C32.38 79.14 36.1499 76.74 38.1899 78.73C40.2199 80.72 32.1 86.78 25.64 85.47C19.18 84.16 15.02 85.02 12.2 87.44C9.37995 89.85 7.68991 92.69 4.21991 93.38C0.73991 94.07 0.039917 95.46 0.039917 95.46C0.039917 95.46 3.00992 94.15 6.16992 94.47C9.32992 94.8 13.1899 92.42 14.9799 90.67C16.7699 88.91 21.6399 89.62 25.1199 90.76C28.5999 91.9 33.72 91.4901 38.14 87.5901C42.57 83.7001 42.9099 85.56 42.8599 87.98C42.8199 90.4 40.3799 94.19 42.2899 97.73C44.1899 101.27 47.37 100.47 48.28 107.94C49.19 115.42 46.2199 120.99 46.2199 120.99C46.2199 120.99 50.6099 116.73 51.2899 111.95C51.9699 107.16 52.5399 104.51 48.9399 98.37C45.3499 92.23 48.8399 88.5001 50.0099 86.3401C51.1799 84.1701 53.1799 84.84 55.2199 87.96C57.2599 91.08 56.2799 93.67 59.3799 96.05C62.4799 98.44 64.9099 100.05 64.8199 104.89C64.7299 109.73 62.0599 112.2 62.0599 112.2C62.0599 112.2 65.7399 111.21 66.8499 105.52C67.9599 99.82 66.7899 98.68 63.9399 93.95C61.0899 89.22 62.9 89.03 59.2 83.64C55.5 78.24 57.5799 76.88 57.7599 72.94C57.9499 68.99 54.9599 67 51.4199 66.01C47.9099 65.02 44.3799 66.3 44.3799 66.3Z" fill="#F7C4BE"/>
<path d="M108.75 2.72998C106.03 4.04998 99.1099 6.13 88.2599 4.12C77.4099 2.11 67.8999 7.26001 66.4399 8.01001C64.9799 8.76001 68.3299 10.94 70.8999 11.39C73.4699 11.84 75.5699 13.54 75.1399 16.39C74.7199 19.23 76.5999 25.29 79.3499 28.03C82.0999 30.76 88.2899 33.37 91.6999 34C95.1099 34.64 95.8699 36.1 95.9499 37.95C96.0299 39.81 96.8399 41.81 97.8499 42.58C99.3299 43.14 103.11 33.48 104.43 28.63C105.74 23.78 103.97 19.84 105.91 12.62C107.87 5.4 108.75 2.72998 108.75 2.72998Z" fill="#D68F8A"/>
<path d="M80.69 16.92C71.81 21.36 60.1301 27.15 54.0301 37.76C47.9301 48.37 44.73 62.03 43.44 65.46C42.15 68.89 42.29 69.2 44.79 68.45C47.29 67.7 48.1501 67.5 48.9601 69.5C49.7701 71.5 50.89 70.95 52.47 69.88C54.05 68.81 54.72 70.5 55.5 72.23C56.28 73.96 57.5701 75.39 58.6501 73.89C59.7401 72.39 59.3 70.79 61.36 68.44C63.42 66.09 71.4201 61.15 77.9001 52.64C84.3801 44.13 88.65 31.78 94.97 23.34C101.29 14.9 110.18 3.29996 111.71 0.789962C112.62 -0.710038 105.88 3.87 101.06 5.89C96.23 7.91 86.39 14.07 80.69 16.92Z" fill="#F2A29B"/>
<path d="M103.54 4.72995C97.1399 10.13 87.7399 17.23 78.9799 23.18C68.9799 29.97 63.89 31.7 56.33 47.23C51.27 57.62 48.9099 63.96 47.9299 68.08C48.3399 68.3 48.65 68.74 48.96 69.5C49.77 71.5 50.8899 70.95 52.4699 69.88C53.3599 69.28 53.96 69.55 54.45 70.21C58.13 66 65.3899 58.8099 71.6799 51.4699C78.4399 43.5899 82.9399 37.2 91.4799 25.29C96.4699 18.33 102.77 11.57 107.14 7.13999C109.38 4.12999 111.1 1.76995 111.69 0.789952C112.46 -0.450048 107.88 2.53995 103.54 4.72995Z" fill="#F2B6B1"/>
<path d="M45.5299 73.38C45.0899 74.54 44.3098 75.31 43.7898 75.11C43.2698 74.91 43.1899 73.81 43.6299 72.66C44.0699 71.5 44.8498 70.73 45.3698 70.93C45.8898 71.13 45.9699 72.22 45.5299 73.38Z" fill="#C4A39F"/>
<path d="M52.2299 75.91C51.7899 77.07 51.0099 77.84 50.4899 77.64C49.9699 77.44 49.8899 76.34 50.3299 75.19C50.7699 74.04 51.5499 73.26 52.0699 73.46C52.5899 73.66 52.6599 74.75 52.2299 75.91Z" fill="#C4A39F"/>
</svg>
