<svg width="73" height="78" viewBox="0 0 73 78" fill="none" xmlns="http://www.w3.org/2000/svg">
<path d="M45.4999 3.48002C45.1699 3.22002 43.2499 0.940013 40.4799 0.250013C37.7099 -0.439987 34.9599 0.82001 33.8099 1.84001C32.6699 2.86001 32.09 3.93001 32.09 3.93001C32.09 3.93001 34.3899 3.69001 36.0599 3.68001C37.7299 3.67001 43.0599 5.14 43.9199 6.71C44.7899 8.28 45.4999 3.48002 45.4999 3.48002Z" fill="#B3322F"/>
<path d="M2.13989 24.94C2.18989 24.53 1.89985 21.56 3.34985 19.1C4.79985 16.64 7.62985 15.56 9.15985 15.46C10.6899 15.36 11.8499 15.7 11.8499 15.7C11.8499 15.7 10.0699 17.18 8.88989 18.36C7.70989 19.54 5.02987 24.38 5.54987 26.09C6.05987 27.8 2.13989 24.94 2.13989 24.94Z" fill="#B3322F"/>
<path d="M52.9199 23.71C52.0799 21.8 51.56 19.02 52.32 18.58C53.08 18.13 54.4899 18.34 54.9499 18.03C55.4199 17.71 55.96 19.33 56.18 21.08C56.39 22.83 56.1399 26.58 56.0999 26.77C56.0699 26.96 52.9199 23.71 52.9199 23.71Z" fill="#A62F2D"/>
<path d="M52.65 18.77C51.61 18.22 50.86 15.55 50.58 14.7C50.3 13.85 51 12.4 51.84 11.56C52.67 10.72 52.96 10.74 53.42 11.4C53.88 12.06 54.96 12.57 55.38 14.74C55.8 16.91 54.99 18.16 54.5 18.72C54 19.27 52.65 18.77 52.65 18.77Z" fill="#B3322F"/>
<path d="M52.94 11.85C53.7 12.23 52.45 8.44999 51.16 6.67999C49.87 4.89999 45.94 3.31001 45.35 3.20001C44.76 3.09001 44.33 5.01998 43.38 5.79998C42.44 6.57998 39.05 6.59999 37.43 6.11999C35.81 5.64999 34.73 5.44 34.73 5.44C34.73 5.44 35.2 7.45001 37.06 8.92001C38.92 10.4 41.64 10.84 43.51 12.04C45.38 13.24 47.76 15.33 49.58 15.15C50.4 14.73 50.25 13.25 51.12 12.49C51.81 11.88 52.46 11.61 52.94 11.85Z" fill="#C73936"/>
<path d="M11.3799 44.41C10.5999 42.47 8.98996 40.16 8.13996 40.39C7.28996 40.62 6.44997 41.77 5.89997 41.88C5.34997 41.99 6.10991 43.51 7.21991 44.89C8.31991 46.27 11.17 48.71 11.34 48.82C11.5 48.93 11.3799 44.41 11.3799 44.41Z" fill="#A62F2D"/>
<path d="M8.03986 40.75C8.37986 39.63 6.99991 37.22 6.58991 36.42C6.17991 35.62 4.64985 35.11 3.46985 35.12C2.28985 35.13 2.09987 35.34 2.23987 36.13C2.38987 36.92 1.99988 38.05 3.24988 39.87C4.49988 41.69 5.9599 41.99 6.7099 42.03C7.4499 42.07 8.03986 40.75 8.03986 40.75Z" fill="#B3322F"/>
<path d="M2.89998 36.11C2.63998 36.92 0.819967 33.38 0.449967 31.22C0.0799667 29.06 1.69993 25.13 2.03993 24.63C2.37993 24.13 4.05997 25.18 5.26997 25.05C6.48997 24.92 8.86994 22.52 9.66994 21.03C10.4699 19.54 11.08 18.62 11.08 18.62C11.08 18.62 12.18 20.36 11.94 22.72C11.69 25.08 10.1 27.34 9.63997 29.51C9.17997 31.68 9.00994 34.85 7.60994 36.02C6.72994 36.31 5.78996 35.17 4.62996 35.25C3.70996 35.32 3.06998 35.6 2.89998 36.11Z" fill="#C73936"/>
<path d="M24.5998 29.15C23.5598 28.81 22.9198 28.12 23.1698 28.02C23.4198 27.92 24.8799 28.76 25.1499 28.61C25.4199 28.46 24.2098 27.51 24.5398 27.32C24.8698 27.12 25.3599 28.37 25.9999 27.92C26.6399 27.47 25.7098 26.65 25.9798 26.47C26.2398 26.29 26.8599 27.48 27.4399 27.07C28.0199 26.66 27.1099 25.63 27.3399 25.46C27.5699 25.29 28.2099 26.61 28.5899 26.26C28.9699 25.91 28.0798 24.87 28.4798 24.69C28.8798 24.51 29.0698 25.92 29.6098 25.63C30.1598 25.34 29.4599 24.35 29.6999 24.1C29.9499 23.86 30.3598 24.68 30.4898 24.99C30.6298 25.3 29.1399 26.33 27.9999 27.36C26.8599 28.38 24.5998 29.15 24.5998 29.15Z" fill="#B83330"/>
<path d="M52.3799 52.1C54.5899 51.76 58.9499 50.05 60.0799 49.66C61.2099 49.27 62.2999 50.92 61.9999 52.33C61.6999 53.74 60.7799 55.95 61.2599 57.91C62.7799 57.35 62.89 55.5 64.78 54.06C66.68 52.62 67.1099 48.94 64.3299 47C61.5499 45.06 57.5599 47.96 55.8299 49.02C54.0999 50.08 52.1999 50.59 52.1999 50.59C52.1999 50.59 52.35 48.55 54.8 48.07C57.25 47.59 59.7299 45.43 61.5199 45.14C63.3099 44.85 65.1399 46.91 66.8999 47.19C68.6499 47.47 68.5599 48.12 69.3799 49.56C70.1999 51 70.9599 51.45 71.5799 51.43C72.1999 51.41 70.72 48.13 70.8 46.65C70.87 45.17 69.6099 44.4 67.8599 43.15C66.1099 41.9 64.6199 41.2 61.8799 42.04C59.1399 42.88 53.53 47.24 53.53 47.24C53.53 47.24 59.6399 40.92 62.6399 39.45C65.6399 37.98 69.2299 36.83 70.8499 34.91C72.4699 32.99 72.6999 30.83 72.6999 30.83C72.6999 30.83 70.68 32.09 69.42 33.56C68.16 35.03 64.9699 33.62 61.6099 36.8C58.2499 39.98 52.6099 46.62 52.6099 46.62C52.6099 46.62 57.94 39.16 60.06 37.03C62.18 34.9 62.0499 32.7 62.3499 31.78C62.6499 30.86 64.3399 27.45 63.8799 25.07C63.4199 22.69 61.5699 19.78 58.3499 18.72C61.7999 22.38 61.1499 26.75 60.8599 28.71C60.5699 30.67 59.02 35.08 57.55 37.52C56.07 39.96 51.4299 44.05 51.5099 45.07C51.6099 46.11 52.3799 52.1 52.3799 52.1Z" fill="#BA3634"/>
<path d="M35.73 58.83C34.82 60.87 32.02 64.63 31.35 65.62C30.68 66.61 31.98 68.09 33.42 68.17C34.86 68.25 37.23 67.95 38.99 68.92C38.05 70.23 36.24 69.86 34.35 71.31C32.46 72.76 28.8 72.22 27.66 69.03C26.52 65.84 30.37 62.75 31.84 61.36C33.31 59.97 34.31 58.27 34.31 58.27C34.31 58.27 32.3 57.88 31.2 60.12C30.1 62.36 27.36 64.19 26.61 65.84C25.86 67.49 27.37 69.8 27.18 71.56C26.99 73.32 27.64 73.4 28.82 74.57C30 75.74 30.23 76.59 30.05 77.18C29.87 77.77 27.09 75.49 25.64 75.17C24.19 74.85 23.78 73.43 23.03 71.42C22.28 69.41 22 67.78 23.53 65.36C25.06 62.94 30.74 58.67 30.74 58.67C30.74 58.67 23.04 62.91 20.83 65.42C18.62 67.93 16.58 71.09 14.3 72.15C12.02 73.21 9.88 72.87 9.88 72.87C9.88 72.87 11.63 71.26 13.38 70.42C15.13 69.59 14.61 66.15 18.55 63.73C22.5 61.32 30.38 57.62 30.38 57.62C30.38 57.62 22.32 61.4 19.52 62.5C17.53 63.28 14.46 63.59 13.49 63.63C12.52 63.68 10.03 62.96 8.40002 61.9C5.01002 59.69 3.40998 55.59 3.22998 52.2C5.85998 56.49 7.86997 58.48 11.47 60.12C13.65 61.11 16.56 60.8 19.3 60.01C22.04 59.22 28.2 55.81 29.16 56.15C30.15 56.51 35.73 58.83 35.73 58.83Z" fill="#BA3634"/>
<path d="M23.7999 29.1C24.5499 28.14 25.4399 28.64 25.9999 27.65C26.5599 26.66 27.35 27.18 28.02 26.25C28.69 25.32 29.4599 25.75 30.0399 24.85C30.6199 23.94 31.5399 24.23 32.1199 23.33C32.6999 22.43 33.77 23.23 34.84 22.1C35.92 20.97 36.9699 20.4 38.2899 20.49C39.6199 20.58 40.65 18.63 42.2 19.17C43.74 19.7 44.58 19.38 45.59 19C46.6 18.62 47.8599 19.48 48.2999 20.38C48.7399 21.28 50.4299 20.34 51.7899 21.54C53.1499 22.74 52.5699 23.65 53.8699 23.65C55.1699 23.66 56.26 25.21 56.39 26.01C56.52 26.81 58.4699 27.47 58.4899 28.86C58.5099 30.25 58.52 31.27 58.93 32.08C59.34 32.89 59.1999 34.05 57.0999 37.15C54.9999 40.25 52.8999 45.03 52.9899 47.69C53.0899 50.36 54.2799 50.95 53.6599 52.71C53.0399 54.47 50.9 56.46 48.2 58.43C45.5 60.4 41.2299 62.43 39.4899 61.53C37.7499 60.62 34.7199 58.78 33.0599 59.15C31.3999 59.52 24.25 59.22 22.03 59.93C19.81 60.64 18.8499 61.2 17.4199 60.39C15.9799 59.58 15.28 60.05 14.59 58.57C13.9 57.09 12.7899 57.12 12.6099 55.5C12.4299 53.88 10.9999 53.07 11.1299 51.55C11.2599 50.03 10.2999 49.27 10.5599 47.53C10.8099 45.79 9.86992 44.75 11.2899 43.51C12.7099 42.27 10.8 40.77 12.39 39.48C13.98 38.2 13.26 35.61 15.28 34.86C17.3 34.11 17.2599 32.63 19.0099 32.23C20.7599 31.83 20.49 30.23 22.03 30.08C23.56 29.91 23.7999 29.1 23.7999 29.1Z" fill="#C73936"/>
<path d="M29.36 31.18C35.01 27.83 37.2 23.2 44.07 23.5C50.94 23.8 55.38 29.34 55.92 32.91C56.46 36.48 52.03 42.46 52.69 47.93C53.35 53.39 42.09 61.4 37.31 59.56C31.44 57.31 26.65 57.87 23.24 57.76C19.95 57.65 17.12 56.99 15.85 51.65C14.44 45.71 15.86 39.28 20.9 36.19C24.63 33.9 25.49 33.47 29.36 31.18Z" fill="#E8E8E8"/>
<path d="M37.53 57.08C39.34 58.19 41.9299 56.41 42.5099 54.64C42.8899 53.5 42.3299 52.4 41.6299 51.51C40.8299 50.49 39.82 49.65 38.83 48.84C37.25 47.55 35.4899 46.65 33.4799 46.22C32.2299 45.95 30.96 45.82 29.7 45.66C29.01 45.57 28.3499 45.41 27.7399 45.07C25.7899 44 24.63 41.58 24.58 39.41C24.58 39.3 24.5999 38.37 24.7499 38.49C24.7999 38.53 24.77 38.85 24.78 38.93C24.8 39.17 24.84 39.42 24.9 39.65C25.17 40.76 25.6799 41.83 26.3799 42.74C27.0499 43.6 27.95 44.32 29.03 44.55C30.17 44.79 31.36 44.83 32.52 45.04C34.96 45.5 37.1499 46.49 39.0399 48.1C39.9999 48.91 40.9299 49.77 41.7299 50.74C42.4699 51.64 43.2 52.79 43.08 54.01C42.97 55.08 42.2399 55.96 41.4199 56.6C40.5499 57.29 39.4199 57.75 38.2999 57.49C38.1699 57.47 37.35 57.23 37.53 57.08Z" fill="#E6E6E6"/>
<path d="M49.7599 48.44C50.3499 50.45 48.2399 52.28 46.5099 52.75C44.1499 53.38 42.6299 51.19 41.6899 49.36C40.5299 47.13 39.6499 44.77 39.6199 42.23C39.6099 41.02 39.7599 39.82 39.9599 38.63C40.1499 37.51 40.5299 36.42 40.2699 35.28C40.0099 34.13 39.2999 33.12 38.4699 32.3C38.0799 31.91 37.6499 31.56 37.1899 31.25C36.9699 31.11 36.7499 30.98 36.5199 30.86C36.3699 30.79 36.0499 30.74 35.9399 30.63C35.8699 30.56 35.9099 30.55 35.9799 30.53C36.1399 30.48 36.4899 30.62 36.6499 30.67C37.1899 30.84 37.7199 31.09 38.1899 31.4C39.1099 31.99 39.9399 32.76 40.5299 33.69C41.0699 34.55 41.4099 35.61 41.3299 36.64C41.2599 37.51 41.0499 38.37 40.8899 39.23C40.6599 40.44 40.4799 41.68 40.5099 42.92C40.5399 44.2 40.8099 45.44 41.2399 46.65C41.6599 47.82 42.1399 49 42.7599 50.08C43.2299 50.9 43.8199 51.75 44.6799 52.2C45.7399 52.75 46.9199 52.36 47.8799 51.78C48.7699 51.25 49.5399 50.42 49.6999 49.37C49.7299 49.16 49.7399 48.94 49.7199 48.72C49.6999 48.61 49.5999 48.43 49.7599 48.44Z" fill="#E6E6E6"/>
</svg>
