<svg width="69" height="129" viewBox="0 0 69 129" fill="none" xmlns="http://www.w3.org/2000/svg">
<path d="M26.7598 50.48C26.8698 48.68 26.7299 47 26.8099 46.32C26.8899 45.64 25.5098 46.92 24.6398 47.25C23.7698 47.58 24.8598 48.7 25.4498 49.09C26.0398 49.47 25.9998 51.51 26.5098 51.33C27.0198 51.15 26.7598 50.48 26.7598 50.48Z" fill="#BD4E3D"/>
<path d="M35.42 54.3C36.5 52.85 37.6999 51.66 38.0699 51.09C38.4499 50.52 38.6699 52.38 39.1199 53.2C39.5699 54.02 38.01 54.16 37.31 54.07C36.61 53.98 35.33 55.56 35.05 55.1C34.79 54.64 35.42 54.3 35.42 54.3Z" fill="#BD4E3D"/>
<path d="M15.6299 57.53C16.0599 56.4 15.2999 54.55 15.5299 52.08C15.7599 49.61 15.7098 46.88 17.6898 43.8C14.6298 47.93 14.1999 51.55 13.9799 54.69C13.7599 57.83 14.81 58.17 14.81 58.17L15.6299 57.53Z" fill="#E85F4E"/>
<path d="M16.7299 61.79C17.1799 60.51 16.3799 55.97 16.0399 56.3C15.6999 56.63 14.1498 57.26 13.9598 58.21C13.7698 59.15 14.7899 63.21 15.8899 63.94C16.9999 64.65 16.7299 61.79 16.7299 61.79Z" fill="#D15645"/>
<path d="M17.9499 65.34C17.6599 63.01 17.18 60.5 17.18 60.5C17.18 60.5 14.9499 62.46 14.8699 63.71C14.7999 64.96 17.0299 69.3 17.0299 69.3L17.9499 65.34Z" fill="#BD4E3D"/>
<path d="M11.5499 64.21C11.7399 63.02 10.6299 61.36 10.3599 58.89C10.0899 56.42 9.49984 53.76 10.8198 50.35C8.64984 55 8.94988 58.64 9.35988 61.76C9.76988 64.88 10.8699 65 10.8699 65L11.5499 64.21Z" fill="#E85F4E"/>
<path d="M13.4799 68.16C13.6599 66.81 11.9698 62.52 11.7098 62.91C11.4498 63.3 10.0499 64.23 10.0499 65.19C10.0599 66.15 11.8598 69.93 13.0898 70.41C14.3098 70.91 13.4799 68.16 13.4799 68.16Z" fill="#D15645"/>
<path d="M15.3798 71.4C14.6398 69.18 13.6599 66.82 13.6599 66.82C13.6599 66.82 11.8599 69.19 12.0399 70.43C12.2199 71.67 15.2699 75.48 15.2699 75.48L15.3798 71.4Z" fill="#BD4E3D"/>
<path d="M19.3398 49.65C19.8398 48.56 19.2099 46.65 19.6099 44.2C19.9999 41.75 20.1398 39.02 22.3198 36.09C18.9898 40 18.3199 43.59 17.8899 46.7C17.4599 49.81 18.4899 50.23 18.4899 50.23L19.3398 49.65Z" fill="#E85F4E"/>
<path d="M20.1499 53.97C20.6799 52.72 20.1898 48.13 19.8298 48.44C19.4698 48.75 17.8799 49.27 17.6299 50.2C17.3799 51.13 18.1199 55.25 19.1699 56.04C20.2299 56.85 20.1499 53.97 20.1499 53.97Z" fill="#D15645"/>
<path d="M21.1199 57.6C20.9899 55.26 20.6799 52.72 20.6799 52.72C20.6799 52.72 18.3199 54.53 18.1599 55.77C17.9999 57.01 19.9398 61.5 19.9398 61.5L21.1199 57.6Z" fill="#BD4E3D"/>
<path d="M42.1599 64.28C42.3599 63.09 43.9599 61.88 45.0199 59.64C46.0799 57.39 47.5099 55.07 47.3699 51.42C47.9099 56.53 46.4299 59.87 45.0299 62.68C43.6299 65.49 42.5399 65.25 42.5399 65.25L42.1599 64.28Z" fill="#E85F4E"/>
<path d="M39.0499 67.39C39.3199 66.06 42.3099 62.55 42.4299 63.01C42.5499 63.47 43.5699 64.8 43.2499 65.71C42.9299 66.62 39.9899 69.6 38.6799 69.66C37.3599 69.72 39.0499 67.39 39.0499 67.39Z" fill="#D15645"/>
<path d="M36.1898 69.83C37.6198 67.97 39.3099 66.06 39.3099 66.06C39.3099 66.06 40.2399 68.88 39.6599 70C39.0899 71.12 34.9598 73.72 34.9598 73.72L36.1898 69.83Z" fill="#BD4E3D"/>
<path d="M42.2799 72.11C42.7199 70.99 44.5199 70.12 46.0099 68.13C47.4999 66.14 49.3598 64.15 49.9498 60.54C49.4598 65.65 47.3399 68.63 45.3999 71.11C43.4599 73.59 42.4498 73.14 42.4498 73.14L42.2799 72.11Z" fill="#E85F4E"/>
<path d="M38.6098 74.53C39.1398 73.28 42.7699 70.44 42.7999 70.91C42.8299 71.38 43.5598 72.89 43.0698 73.72C42.5798 74.54 39.0999 76.88 37.7999 76.68C36.4899 76.48 38.6098 74.53 38.6098 74.53Z" fill="#D15645"/>
<path d="M35.3298 76.36C37.0998 74.82 39.1399 73.28 39.1399 73.28C39.1399 73.28 39.4798 76.23 38.6998 77.21C37.9198 78.19 33.3499 79.91 33.3499 79.91L35.3298 76.36Z" fill="#BD4E3D"/>
<path d="M42.9799 55.61C43.0999 54.41 44.6099 53.1 45.5199 50.78C46.4299 48.46 47.6999 46.05 47.3099 42.42C48.1899 47.48 46.9399 50.91 45.7299 53.81C44.5199 56.71 43.4199 56.55 43.4199 56.55L42.9799 55.61Z" fill="#E85F4E"/>
<path d="M40.0799 58.92C40.2599 57.57 43.01 53.87 43.16 54.32C43.31 54.77 44.42 56.03 44.16 56.96C43.9 57.88 41.1699 61.06 39.8599 61.21C38.5499 61.36 40.0799 58.92 40.0799 58.92Z" fill="#D15645"/>
<path d="M37.3999 61.55C38.6999 59.6 40.2599 57.57 40.2599 57.57C40.2599 57.57 41.3699 60.33 40.8799 61.48C40.3799 62.63 36.4398 65.51 36.4398 65.51L37.3999 61.55Z" fill="#BD4E3D"/>
<path d="M28.5199 56.58C28.5199 56.58 28.5199 56.55 28.5299 56.49C28.5399 56.43 28.5699 56.34 28.6199 56.24C28.7299 56.02 28.9599 55.75 29.2499 55.38C29.8399 54.66 30.6999 53.57 31.4099 51.96C32.1299 50.37 32.6899 48.3 32.9899 45.88C33.1399 44.67 33.2299 43.38 33.2599 42.02C33.2699 40.66 33.5198 39.26 33.9498 37.84C34.7898 34.99 36.2299 32.0699 38.0899 29.2199C38.5599 28.5099 39.0499 27.8 39.5899 27.12C39.7199 26.95 39.8599 26.78 39.9999 26.61C40.1499 26.42 40.2799 26.27 40.4099 26.06C40.6799 25.66 40.87 25.25 41.06 24.83C41.77 23.13 42.0799 21.27 42.2199 19.39C42.3399 17.51 42.2598 15.5799 41.9398 13.6599C41.6198 11.7499 41.0599 9.81997 40.0899 8.05997C39.8499 7.61997 39.5699 7.19995 39.2699 6.78995C39.1099 6.58995 38.9499 6.38999 38.7799 6.19999C38.6199 6.01999 38.4399 5.83 38.2699 5.65C37.5699 4.93 36.7999 4.27998 35.9899 3.68998C34.3599 2.50998 32.5499 1.57 30.6199 0.959998C29.6499 0.659998 28.6599 0.439962 27.6399 0.359962C26.6299 0.279962 25.5899 0.329971 24.5899 0.619971C24.0999 0.769971 23.6099 0.969976 23.1699 1.24998C22.9499 1.38998 22.7399 1.53995 22.5399 1.71995L21.9899 2.21995C21.2599 2.90995 20.5999 3.65998 19.9899 4.43998C18.7699 6.00998 17.7999 7.72997 16.9999 9.48997C16.1999 11.25 15.5698 13.05 14.9498 14.81C14.6398 15.69 14.3299 16.56 13.9799 17.4C13.6299 18.24 13.2399 19.05 12.7199 19.76C12.4599 20.11 12.1499 20.43 11.8399 20.74C11.5299 21.06 11.2199 21.37 10.9099 21.68C10.2899 22.31 9.70983 22.97 9.18983 23.66C8.66983 24.35 8.20995 25.07 7.80995 25.81C7.40995 26.55 7.07992 27.3 6.77992 28.06C6.19992 29.57 5.7999 31.09 5.5099 32.56C5.2199 34.03 5.01991 35.45 4.88991 36.81C4.81991 37.49 4.77987 38.15 4.72987 38.79C4.69987 39.43 4.65991 40.06 4.63991 40.67C4.55991 43.1 4.59995 45.22 4.67995 46.96C4.70995 47.83 4.75994 48.61 4.79994 49.28C4.83994 49.96 4.87994 50.53 4.91994 51C4.98994 51.93 5.02992 52.43 5.02992 52.43C5.02992 52.43 4.99983 51.93 4.93983 51C4.90983 50.53 4.86986 49.96 4.83986 49.28C4.80986 48.6 4.76989 47.83 4.74989 46.96C4.69989 45.22 4.66991 43.1 4.76991 40.68C4.78991 40.07 4.83989 39.45 4.86989 38.81C4.91989 38.17 4.96994 37.51 5.04994 36.83C5.18994 35.48 5.39984 34.06 5.69984 32.61C6.00984 31.15 6.41989 29.65 6.99989 28.16C7.29989 27.42 7.63992 26.68 8.02992 25.95C8.42992 25.23 8.87992 24.52 9.39992 23.85C9.90992 23.18 10.4899 22.53 11.0999 21.91C11.7099 21.28 12.3698 20.7 12.9498 19.96C13.4998 19.22 13.9099 18.39 14.2699 17.54C14.6299 16.69 14.9499 15.82 15.2699 14.94C15.8999 13.18 16.5399 11.4 17.3499 9.66996C18.1499 7.93996 19.1198 6.25997 20.3198 4.73997C20.9198 3.97997 21.5799 3.26 22.2799 2.59L22.8298 2.09C22.9998 1.94 23.1899 1.79997 23.3899 1.67997C23.7899 1.42997 24.2299 1.24996 24.6799 1.10996C25.5999 0.849962 26.5799 0.799991 27.5399 0.889991C28.5099 0.979991 29.4699 1.18996 30.3999 1.47996C32.2699 2.07996 34.0299 3.00995 35.5999 4.15995C36.3899 4.73995 37.1299 5.37998 37.7999 6.06998C37.9699 6.24998 38.1299 6.41995 38.2899 6.59995C38.4499 6.77995 38.5899 6.97 38.7399 7.15C39.0199 7.54 39.2899 7.92995 39.5199 8.34995C40.4599 10.02 41.0098 11.89 41.3298 13.75C41.6498 15.62 41.7399 17.51 41.6299 19.35C41.5099 21.19 41.1999 23 40.5399 24.63C40.3699 25.03 40.1698 25.43 39.9498 25.77C39.8398 25.94 39.6898 26.14 39.5698 26.3C39.4298 26.47 39.2899 26.65 39.1599 26.83C38.6199 27.54 38.1299 28.26 37.6699 28.98C35.8299 31.89 34.4299 34.85 33.6099 37.75C33.2099 39.2 32.9899 40.64 33.0099 42.01C32.9999 43.37 32.9199 44.66 32.7899 45.86C32.5199 48.27 31.9799 50.33 31.2899 51.92C30.6099 53.52 29.7698 54.63 29.1898 55.36C28.8998 55.73 28.6798 56.01 28.5698 56.23C28.5198 56.34 28.4899 56.43 28.4799 56.49C28.5199 56.55 28.5199 56.58 28.5199 56.58Z" fill="#BD4E3D"/>
<path d="M30.1799 55.38C30.1799 55.38 30.4498 54.95 30.9598 54.13C31.4598 53.32 32.2099 52.13 33.0199 50.53C33.4199 49.73 33.8399 48.83 34.2399 47.83C34.6399 46.83 35.0299 45.73 35.3799 44.53C35.7199 43.33 36.0498 42.04 36.3198 40.67C36.5598 39.3 37.0799 37.94 37.8499 36.63C38.6099 35.32 39.5799 34.05 40.6099 32.76C41.6299 31.47 42.7198 30.15 43.6898 28.66C44.1698 27.92 44.6099 27.12 44.9799 26.29C45.3599 25.48 45.7698 24.67 46.2198 23.87C47.1098 22.27 48.1298 20.7 49.3298 19.23C49.9298 18.5 50.5899 17.8 51.2999 17.17C52.0199 16.54 52.7999 15.97 53.6599 15.56C54.0899 15.35 54.5399 15.19 54.9999 15.09C55.1099 15.06 55.2299 15.04 55.3499 15.02C55.4699 15 55.5698 14.98 55.6998 14.97C55.9498 14.94 56.1899 14.93 56.4299 14.92C57.3999 14.88 58.3899 14.95 59.3499 15.13C61.2799 15.49 63.1398 16.33 64.5898 17.67C65.3098 18.35 65.9199 19.14 66.3999 20.01C66.8799 20.88 67.2198 21.82 67.4598 22.79C67.9398 24.73 67.9399 26.79 67.8499 28.8C67.7499 30.82 67.4999 32.82 67.1499 34.79C66.4499 38.73 65.4199 42.55 64.0999 46.14C63.4399 47.93 62.7199 49.67 61.8999 51.31C61.0799 52.95 60.1698 54.5 59.0698 55.86C56.8998 58.62 54.9899 61.35 53.4999 64.04C52.0199 66.73 50.9799 69.37 50.4299 71.81C50.1499 73.03 49.9899 74.19 49.9099 75.26C49.8299 76.34 49.8499 77.33 49.8999 78.22C50.0099 80.01 50.2799 81.39 50.4899 82.32C50.5899 82.79 50.6899 83.14 50.7499 83.38C50.8099 83.62 50.8499 83.74 50.8499 83.74C50.8499 83.74 50.8199 83.62 50.7599 83.38C50.6999 83.14 50.5999 82.79 50.5099 82.32C50.3099 81.39 50.0498 80 49.9598 78.22C49.8698 76.44 49.9699 74.26 50.5499 71.84C51.1099 69.42 52.1599 66.8 53.6599 64.13C55.1599 61.47 57.0799 58.76 59.2699 56.02C59.8199 55.34 60.3598 54.62 60.8398 53.85C61.3198 53.08 61.7598 52.28 62.1898 51.46C63.0398 49.81 63.7798 48.08 64.4598 46.28C65.8098 42.69 66.9199 38.86 67.6399 34.89C67.9999 32.9 68.2599 30.88 68.3699 28.84C68.3999 28.33 68.4199 27.82 68.4199 27.3C68.4299 27.04 68.4199 26.79 68.4199 26.53C68.4199 26.28 68.4199 26.02 68.3999 25.76C68.3599 24.73 68.2399 23.69 67.9899 22.68C67.7499 21.67 67.3899 20.67 66.8899 19.76C66.3899 18.84 65.7399 18 64.9799 17.27C64.2099 16.56 63.3399 15.96 62.3999 15.52C61.4599 15.07 60.4598 14.77 59.4498 14.58C58.4398 14.4 57.4099 14.33 56.3999 14.37C56.1399 14.39 55.8799 14.4 55.6399 14.43C55.5199 14.44 55.3799 14.46 55.2499 14.48C55.1199 14.5 54.9899 14.52 54.8699 14.55C54.3599 14.67 53.8799 14.84 53.4199 15.07C52.4999 15.52 51.6898 16.11 50.9498 16.77C50.2098 17.43 49.5499 18.15 48.9299 18.9C47.7099 20.4 46.6799 22 45.7899 23.63C45.3499 24.44 44.9398 25.27 44.5698 26.09C44.2198 26.92 43.7998 27.68 43.3398 28.42C42.4098 29.89 41.3398 31.22 40.3298 32.52C39.3198 33.82 38.3498 35.11 37.5898 36.46C37.2098 37.13 36.8799 37.82 36.6299 38.52C36.4999 38.87 36.3899 39.22 36.3099 39.57C36.2599 39.75 36.2298 39.92 36.1898 40.09C36.1598 40.26 36.1198 40.44 36.0898 40.61C35.8498 41.98 35.5298 43.27 35.2098 44.46C34.8698 45.65 34.4999 46.76 34.1199 47.76C33.7299 48.76 33.3298 49.66 32.9398 50.47C32.1498 52.07 31.4298 53.28 30.9398 54.1C30.4498 54.94 30.1799 55.38 30.1799 55.38Z" fill="#BD4E3D"/>
<path d="M18.4099 124.78C17.5099 126.54 14.9899 128.02 13.3099 127.73C11.6299 127.43 9.42982 125.31 10.1198 121.96C10.7998 118.61 19.2399 123.15 18.4099 124.78Z" fill="#C7513D"/>
<path d="M31.4899 84.03C31.4399 84.67 31.26 87.83 29.78 89.2C30.42 90.01 30.56 92.82 29.15 93.76C29.21 95.9 28.15 96.8 27.3 97.15C28.13 98.87 27.59 100.93 26.78 101.57C27 102.85 26.72 103.99 25.79 104.39C26.14 105.76 25.4299 108.1 24.4399 109.01C24.7599 110.67 24.4899 112.99 23.5699 113.32C24.4699 114.45 25.06 118.13 23.54 118.54C21.87 119.01 17.3599 121.71 16.6899 123.62C14.8299 125.09 12.6199 124.46 11.8799 122.61C12.3599 119.14 10.8799 116.01 8.88994 114.82C7.95994 113.98 8.58995 110.53 9.89995 110.03C8.55995 108.92 9.68994 106.84 10.2599 106.32C9.05994 105.3 9.75994 101.78 11.0099 101.19C10.4899 100.61 10.5999 99.08 11.2299 98.72C10.5199 97.9 10.6899 95.05 12.3199 93.77C11.1399 91.94 11.84 89.74 12.81 89.05C12.21 88.54 12.6199 85.65 14.0899 85.08C13.2999 83.66 14.6799 80.08 16.1199 79.73C17.5599 79.38 31.5399 83.38 31.4899 84.03Z" fill="#BD4E3D"/>
<path d="M22.9998 117.84C24.2098 118.42 26.4799 120.75 27.1699 123.23C27.8599 125.71 27.4998 127.93 26.9698 128.3C26.4398 128.68 21.0999 127.81 19.0299 126.24C16.9599 124.67 15.3898 122.19 15.4998 122.05C15.6098 121.92 22.9998 117.84 22.9998 117.84Z" fill="#E65F4A"/>
<path d="M10.0698 114.65C8.19979 114.68 4.47979 116.35 2.81979 117.96C1.15979 119.58 -0.0401059 121.45 0.679894 121.97C1.39989 122.5 6.57986 124.93 9.51986 123.8C12.4599 122.67 13.0099 122.59 13.5099 120.88C13.9999 119.18 10.0698 114.65 10.0698 114.65Z" fill="#E65F4A"/>
<path d="M14.0799 85.07C14.0699 85.05 22.5399 86.38 23.9999 86.68C25.3699 86.96 27.6199 87.98 29.8799 89.36C30.4199 90.33 30.4699 92.87 29.1399 93.76C27.3899 92.23 19.8099 88.84 16.2199 88.78C14.8799 88.76 12.8 89.05 12.81 89.04C12.1 88.7 12.6199 85.63 14.0799 85.07Z" fill="#DE5A45"/>
<path d="M11.2299 98.71C10.5199 97.89 10.6898 95.04 12.3198 93.76C17.7698 91.17 26.3499 96.44 27.2999 97.14C28.1299 98.86 27.5899 100.92 26.7799 101.56C24.9999 100.47 23.84 100.26 19.68 98.81C15.51 97.37 11.2299 98.71 11.2299 98.71Z" fill="#DE5A45"/>
<path d="M17.92 100.12C22.1 101.02 25.78 104.39 25.78 104.39C26.13 105.76 25.42 108.1 24.43 109.01C24.43 109.01 21.87 107.02 17.31 105.97C12.75 104.92 10.2599 106.32 10.2599 106.32C9.05994 105.3 9.75994 101.78 11.0099 101.19C11.0099 101.18 13.74 99.22 17.92 100.12Z" fill="#DE5A45"/>
<path d="M15.9698 116.22C11.8198 115.14 9.63983 114.02 8.44983 113.14C8.45983 111.95 9.0099 110.37 9.8999 110.03C10.3799 110.67 14.2299 111.94 17.2299 112.51C20.2199 113.08 22.3399 113.11 23.5599 113.33C24.1099 114.03 24.5498 115.71 24.4498 116.98C22.9298 117.33 20.3298 117.35 15.9698 116.22Z" fill="#DE5A45"/>
<path d="M35.6899 49.74C36.8499 52.05 38.83 56.58 37.3 69.64C35.76 82.7 31.8699 85.18 29.9699 85.03C28.0799 84.88 25.95 83.6 23.68 82.89C21.41 82.18 18.9999 82.05 16.0799 81.26C13.1599 80.48 14.5199 71.49 17.0099 64.69C19.4999 57.88 25.9099 49.84 28.8299 48.05C31.7399 46.26 34.4699 47.3 35.6899 49.74Z" fill="#E65F4A"/>
<path d="M34.1699 47.93C34.6699 48.29 35.1098 48.76 35.4498 49.32C35.2998 49.65 35.1699 50.04 35.2299 50.34C35.3499 51.03 35.3599 55.47 33.5199 54.07C31.8199 52.79 33.5699 49.29 34.1699 47.93Z" fill="#BD4E3D"/>
<path d="M32.7599 47.28C32.2299 48.58 30.9399 52.46 28.7899 52.14C26.4999 51.79 29.6899 48.7 30.2599 48.31C30.5599 48.1 30.7699 47.63 30.8999 47.24C31.5599 47.11 32.1799 47.13 32.7599 47.28Z" fill="#BD4E3D"/>
<path d="M27.4999 39.98C27.4799 43.32 27.2499 45.89 26.3799 46.59C25.5099 47.3 24.2598 47.94 22.4398 47.18C20.6198 46.42 19.2499 42.96 19.5099 41.44C19.7699 39.92 20.4999 40.37 21.9199 39.56C23.3399 38.75 24.2699 35.82 25.6599 35.69C27.0399 35.56 27.5099 38.18 27.4999 39.98Z" fill="#D15645"/>
<path d="M25.4199 36.45C25.6599 35.69 24.4699 35.12 23.3899 35.87C22.3099 36.62 20.6899 36.43 20.5399 37.2C20.3899 37.97 19.5399 40.53 20.2799 41.76C21.0199 42.99 25.4199 36.45 25.4199 36.45Z" fill="#E85F4E"/>
<path d="M25.0698 35.53C25.9698 35.83 27.2298 35.49 27.8198 35.46C28.4098 35.43 26.8399 35.05 27.3999 34.43C27.9599 33.81 28.6898 33.65 29.4398 33.44C30.1898 33.23 30.0999 32.93 29.4199 32.8C28.7399 32.67 29.1499 31.79 30.3499 31.14C31.5399 30.5 31.8399 29.84 31.2499 29.77C30.6599 29.7 30.4398 29.48 30.6898 28.63C30.9398 27.78 32.5199 26.6 31.6499 26.39C30.7799 26.18 30.2998 26.42 30.5798 24.94C29.1998 26.08 25.5099 31.84 25.5099 31.84L25.0698 35.53Z" fill="#BD4E3D"/>
<path d="M26.6599 22.43C28.5899 19.76 30.2899 17.81 31.0099 15.88C31.7299 13.95 33.2298 12.42 34.0798 10.6C34.9298 8.78999 34.3799 8.86999 34.9299 8.78999C35.4799 8.70999 36.5398 10.5 35.8198 13.31C35.0998 16.12 32.9099 19 32.2499 22.06C31.5899 25.12 30.2899 26.09 29.3799 26.13C28.4699 26.17 26.6599 22.43 26.6599 22.43Z" fill="#BD4E3D"/>
<path d="M24.5099 36.1C25.7799 35.71 28.3399 33.12 29.2199 30.67C30.0999 28.22 30.4299 24.1 29.9699 24.04C29.5099 23.99 27.7599 24.47 27.3999 23.3C27.0399 22.13 27.7999 21.88 28.8699 17.39C29.9399 12.9 29.7999 10.29 31.4399 9.26003C33.0799 8.23003 34.28 8.47 34.93 8.79C33.55 6.76 31.18 5.65001 27.54 6.99001C23.9 8.33001 18.9799 11.82 18.3999 18.42C17.8199 25.02 19.1499 25.42 18.9499 28.29C18.7599 31.16 17.9699 34.7 19.5899 36.5C21.2099 38.29 24.5099 36.1 24.5099 36.1Z" fill="#D15645"/>
<path d="M41.6399 45.8C39.4999 48.36 38.0199 50.47 38.2199 51.57C38.4299 52.67 38.9599 53.97 40.8399 54.57C42.7199 55.17 45.9999 53.42 46.7899 52.09C47.5799 50.76 46.7199 50.64 46.1699 49.1C45.6099 47.56 46.7998 44.72 45.8198 43.73C44.8498 42.73 42.7999 44.42 41.6399 45.8Z" fill="#D15645"/>
<path d="M45.5099 44.46C45.8199 43.73 47.0998 44.06 47.4398 45.33C47.7798 46.6 49.1399 47.5 48.7599 48.18C48.3799 48.86 47.3699 51.37 46.0099 51.83C44.6399 52.29 45.5099 44.46 45.5099 44.46Z" fill="#E85F4E"/>
<path d="M46.2398 43.74C45.3598 43.39 44.6199 42.31 44.1799 41.91C43.7499 41.51 45.1899 42.23 45.1599 41.39C45.1299 40.55 44.6798 39.96 44.2398 39.32C43.7998 38.68 44.0699 38.5 44.6699 38.85C45.2699 39.2 45.5299 38.25 45.0299 36.99C44.5399 35.73 44.7298 35.04 45.2298 35.37C45.7198 35.7 46.0399 35.67 46.3999 34.86C46.7599 34.05 46.3198 32.13 47.1098 32.53C47.8998 32.94 48.1098 33.43 48.8598 32.11C49.1698 33.88 48.2699 40.66 48.2699 40.66L46.2398 43.74Z" fill="#BD4E3D"/>
<path d="M53.4999 32.72C53.7499 29.44 53.72 26.85 54.42 24.91C55.12 22.98 54.9699 20.83 55.4899 18.9C56.0099 16.97 56.3799 17.39 56.0099 16.97C55.6399 16.55 53.6699 17.23 52.4099 19.84C51.1499 22.45 50.9499 26.06 49.4799 28.82C48.0099 31.58 48.3699 33.16 49.0299 33.78C49.6899 34.4 53.4999 32.72 53.4999 32.72Z" fill="#BD4E3D"/>
<path d="M46.2899 44.54C45.5699 43.42 45.2898 39.79 46.2098 37.36C47.1198 34.93 49.5399 31.56 49.9199 31.82C50.2999 32.08 51.3298 33.57 52.3598 32.91C53.3898 32.25 52.9699 31.56 55.0599 27.46C57.1399 23.35 58.9398 21.4401 58.3498 19.5901C57.7698 17.7401 56.6999 17.15 55.9999 16.98C58.3599 16.33 60.8899 17.01 62.7999 20.38C64.7099 23.75 66.2099 29.6 62.3799 35.01C58.5599 40.42 57.2898 39.87 55.5798 42.18C53.8698 44.49 52.1799 47.7101 49.7899 48.0301C47.3999 48.3401 46.2899 44.54 46.2899 44.54Z" fill="#D15645"/>
<path d="M33.1999 52.28C33.1399 52.82 33.4 53.29 33.79 53.33C34.18 53.38 34.5399 52.98 34.6099 52.44C34.6699 51.9 34.41 51.43 34.02 51.39C33.63 51.34 33.2599 51.74 33.1999 52.28Z" fill="#292929"/>
<path d="M29.0199 50.5C28.7299 50.96 28.7698 51.5 29.0998 51.7C29.4298 51.9 29.9298 51.7 30.2198 51.24C30.5098 50.78 30.4699 50.24 30.1399 50.04C29.7999 49.83 29.2999 50.04 29.0199 50.5Z" fill="#292929"/>
<path d="M23.5698 82.61C23.5698 82.61 23.5999 82.47 23.6599 82.21C23.7099 81.95 23.7999 81.56 23.9199 81.08C24.0299 80.59 24.1899 80.01 24.3599 79.34C24.5399 78.67 24.7498 77.91 24.9698 77.09C25.8898 73.79 27.1098 69.4 28.3298 65C28.6298 63.9 28.9299 62.8 29.2299 61.72C29.5199 60.64 29.8098 59.57 30.0898 58.54C30.6298 56.47 31.1398 54.54 31.5798 52.89C32.4698 49.58 33.0599 47.38 33.0599 47.38C33.0599 47.38 32.8699 47.92 32.5499 48.86C32.2399 49.81 31.7699 51.16 31.2599 52.79C30.9999 53.61 30.7298 54.49 30.4498 55.44C30.1798 56.38 29.8899 57.38 29.5999 58.4C29.3099 59.43 28.9998 60.49 28.6898 61.57C28.3898 62.65 28.0799 63.75 27.7699 64.85C27.4699 65.95 27.1699 67.05 26.8799 68.14C26.5799 69.22 26.3099 70.3 26.0399 71.33C25.5099 73.4 25.0299 75.34 24.6499 77.01C24.4599 77.85 24.2899 78.61 24.1499 79.3C24.0099 79.98 23.8899 80.58 23.8099 81.07C23.7099 81.56 23.6599 81.95 23.6299 82.22C23.5899 82.47 23.5698 82.61 23.5698 82.61Z" fill="#C75240"/>
<path d="M33.4398 52.77C33.5298 52.76 33.5898 52.65 33.5798 52.52C33.5698 52.39 33.4899 52.28 33.3999 52.29C33.3099 52.3 33.2499 52.41 33.2599 52.54C33.2799 52.68 33.3598 52.78 33.4398 52.77Z" fill="#EDEDED"/>
<path d="M29.0599 51.22C29.1499 51.23 29.2298 51.13 29.2498 51C29.2698 50.87 29.2098 50.75 29.1198 50.74C29.0298 50.73 28.9499 50.83 28.9299 50.96C28.9099 51.09 28.9699 51.21 29.0599 51.22Z" fill="#EDEDED"/>
</svg>
