<svg width="35" height="35" viewBox="0 0 35 35" fill="none" xmlns="http://www.w3.org/2000/svg">
<path d="M1.14478 1.12463C1.14478 1.12463 2.42572 5.94556 3.74989 9.04305C3.83639 9.24933 2.97466 9.49215 2.97466 9.49215C2.97466 9.49215 3.12773 14.21 5.07738 16.3826C5.25372 16.5789 4.15911 16.9148 4.15911 16.9148C4.15911 16.9148 7.41296 23.1364 9.63877 25.2425C9.84504 25.4388 8.65064 25.8147 8.65064 25.8147C8.65064 25.8147 11.8912 31.4175 15.0319 31.9565C15.3679 32.013 14.8223 32.8947 14.8223 32.8947C14.8223 32.8947 20.628 35.4998 25.5321 33.4836C30.4063 31.4807 33.0546 33.9395 33.0546 33.9395L33.6967 33.0977C33.6967 33.0977 31.5208 30.5857 32.5689 26.5866C33.8997 21.5062 30.1268 14.709 30.1268 14.709C30.1268 14.709 29.4947 15.431 29.3915 15.2281C27.7845 12.074 23.9817 8.65048 23.9817 8.65048C23.9817 8.65048 23.4394 10.1176 23.2498 9.82819C21.4099 7.02681 15.6009 4.26536 15.6009 4.26536C15.6009 4.26536 15.674 5.42653 15.4445 5.29678C13.212 4.04248 8.75376 2.85469 8.75376 2.85469C8.75376 2.85469 8.50755 3.78959 8.29129 3.68645C4.9975 2.13272 1.14478 1.12463 1.14478 1.12463Z" fill="#6B9605"/>
<path opacity="0.2" d="M30.8955 31.0749C30.759 30.8254 30.5827 30.4527 30.3199 29.9969C30.1435 29.7208 29.9572 29.3947 29.741 29.0487C29.721 29.052 29.701 29.0587 29.6777 29.0554C29.6777 29.0554 28.5565 28.9522 26.893 28.7193C25.2261 28.4831 23.0037 28.1105 20.8012 27.6081C19.6999 27.3586 18.602 27.0658 17.5806 26.773C17.0715 26.6133 16.5824 26.4569 16.1133 26.3072C15.6542 26.1375 15.2183 25.9812 14.8158 25.8315C14.4198 25.6651 14.0572 25.5121 13.7378 25.3757C13.4151 25.2459 13.1456 25.0995 12.9193 24.9897C12.4702 24.7635 12.214 24.6337 12.214 24.6337C12.214 24.6337 12.4735 24.7535 12.9293 24.9664C13.1556 25.0695 13.4284 25.2093 13.7544 25.3257C14.0772 25.4488 14.4432 25.5886 14.8424 25.7416C15.245 25.8747 15.6841 26.0178 16.1466 26.1708C16.6124 26.3006 17.1048 26.4403 17.6172 26.5834C18.6419 26.8429 19.7365 27.0957 20.8378 27.3053C23.0403 27.7312 25.2494 28.024 26.9063 28.2004C28.0275 28.3168 28.8793 28.3833 29.3218 28.4166C29.3151 28.4066 29.3084 28.3966 29.3018 28.3833C28.8826 27.7744 28.4101 27.0891 27.8512 26.3705C27.8013 26.3039 27.7481 26.234 27.6982 26.1642C27.6449 26.091 27.5917 26.0211 27.5351 25.9479C27.5019 25.9413 27.4519 25.9346 27.3854 25.9246C27.1891 25.8914 26.8697 25.8314 26.4605 25.7416C26.1211 25.6651 25.7185 25.5952 25.3027 25.4721C24.8834 25.359 24.441 25.2393 23.9951 25.1162C23.1035 24.8866 22.2351 24.5439 21.5764 24.3376C20.9209 24.118 20.4851 23.9716 20.4851 23.9716C20.4851 23.9716 20.9309 24.0814 21.5963 24.2478C22.265 24.3975 23.1467 24.6636 24.0417 24.8167C24.4876 24.8999 24.9334 24.9797 25.3526 25.0562C25.7718 25.1427 26.1577 25.176 26.4904 25.2226C26.6867 25.2492 26.8597 25.2725 27.0128 25.2892C26.6934 24.8933 26.354 24.4906 26.0146 24.0681C25.5522 23.5491 25.0764 23.0001 24.5873 22.4445C24.4775 22.4312 24.2912 22.4046 24.0251 22.3713C23.5926 22.3148 22.9804 22.2249 22.2484 22.0918C21.5132 21.9787 20.6614 21.7924 19.7498 21.6128C19.294 21.5296 18.8249 21.3965 18.3491 21.2867C17.8733 21.1703 17.3909 21.0505 16.9052 20.9307C16.4261 20.7876 15.947 20.6446 15.4745 20.5015C15.0054 20.3518 14.5363 20.242 14.0971 20.0656C13.6546 19.8993 13.2288 19.7396 12.8262 19.5899C12.4236 19.4302 12.0377 19.3104 11.695 19.1474C10.3342 18.4886 9.42594 18.0495 9.42594 18.0495C9.42594 18.0495 10.3442 18.452 11.7249 19.0575C12.071 19.2039 12.4635 19.3104 12.8661 19.4535C13.272 19.5899 13.7012 19.733 14.1437 19.8794C14.5829 20.0391 15.0553 20.1289 15.5244 20.2586C15.9969 20.3817 16.476 20.5049 16.9551 20.628C17.4375 20.7278 17.9199 20.8276 18.3957 20.9274C18.8714 21.0205 19.3373 21.1337 19.7931 21.1969C20.7014 21.3433 21.5497 21.493 22.2784 21.5761C22.9671 21.6726 23.5393 21.7325 23.9585 21.7725C23.9685 21.7725 23.9818 21.7758 23.9918 21.7758C23.9386 21.7159 23.8887 21.6593 23.8321 21.5994C23.8221 21.5895 23.8121 21.5761 23.8021 21.5661C23.0502 20.7244 22.2384 19.886 21.41 19.0376C21.3867 19.0143 21.3667 18.9944 21.3434 18.9711C21.3301 18.9611 21.3135 18.9544 21.3002 18.9411H21.2902C21.2902 18.9411 20.8444 18.9079 20.1557 18.7848C19.813 18.7249 19.4104 18.6783 18.9912 18.5685C18.572 18.4686 18.1229 18.3622 17.6771 18.2591C17.4541 18.2025 17.2279 18.1626 17.0116 18.0927C16.7954 18.0228 16.5824 17.9563 16.3762 17.8931C15.9636 17.7633 15.581 17.6403 15.2516 17.5371C14.5929 17.3308 14.157 17.1911 14.157 17.1911C14.157 17.1911 14.6028 17.2909 15.2716 17.444C15.6043 17.5205 15.9935 17.607 16.4094 17.7035C16.6157 17.7501 16.832 17.7999 17.0516 17.8498C17.2712 17.8997 17.4941 17.9197 17.717 17.9597C18.1628 18.0262 18.6086 18.0927 19.0245 18.1559C19.4437 18.2324 19.8263 18.2391 20.159 18.2724C20.352 18.2923 20.5283 18.3023 20.678 18.3123C20.1823 17.8232 19.6833 17.3341 19.1742 16.8484C19.1576 16.8351 19.1443 16.8185 19.1277 16.8019C19.0212 16.6987 18.9147 16.5955 18.8082 16.4924C18.2925 16 17.7769 15.5109 17.2578 15.0285C17.188 15.0218 17.0882 15.0152 16.9584 15.0019C16.6823 14.9819 16.2963 14.922 15.8339 14.8588C15.3747 14.7723 14.8358 14.6958 14.2668 14.5594C13.6946 14.433 13.089 14.2966 12.4868 14.1169C12.1874 14.0337 11.8846 13.9505 11.5885 13.8674C11.2957 13.7709 11.0096 13.6744 10.7302 13.5812C10.4507 13.488 10.1845 13.3983 9.92833 13.3151C9.67214 13.2319 9.43925 13.1288 9.21966 13.0456C8.34465 12.6996 7.76241 12.47 7.76241 12.47C7.76241 12.47 8.35461 12.663 9.24293 12.9558C9.46585 13.0256 9.70208 13.1154 9.96159 13.182C10.2178 13.2518 10.4906 13.3218 10.7701 13.3983C11.0496 13.4715 11.339 13.5513 11.6351 13.6278C11.9312 13.691 12.234 13.7542 12.5334 13.8207C13.1323 13.9605 13.7378 14.0604 14.3034 14.1469C14.869 14.2467 15.398 14.2866 15.8472 14.3431C16.1167 14.3631 16.3529 14.3831 16.5592 14.3964C16.4194 14.27 16.2797 14.1368 16.1366 14.0104C15.9104 13.8008 15.6808 13.6045 15.4546 13.4015C15.408 13.3616 15.3647 13.3217 15.3181 13.2818C14.6993 12.7328 14.0805 12.1972 13.475 11.6781C13.2088 11.4552 12.9493 11.2356 12.6865 11.0161C12.5933 10.9395 12.5001 10.8597 12.4103 10.7832C12.2506 10.6501 12.0943 10.517 11.9379 10.3873C11.898 10.3873 11.8414 10.3873 11.7382 10.3873C11.5852 10.3906 11.3423 10.3539 11.0662 10.3307C10.7867 10.3074 10.464 10.2741 10.1313 10.1909C9.79524 10.1211 9.43924 10.0446 9.08324 9.96806C8.72392 9.90817 8.38124 9.76506 8.05519 9.66858C7.72914 9.56544 7.42636 9.46567 7.16685 9.38249C6.64783 9.21614 6.30182 9.10299 6.30182 9.10299C6.30182 9.10299 6.6545 9.17621 7.1835 9.28933C7.44634 9.34589 7.75574 9.40912 8.08512 9.47899C8.4145 9.53888 8.76051 9.64528 9.1165 9.66192C9.46584 9.69851 9.81854 9.73513 10.1446 9.7684C10.474 9.81498 10.7734 9.81169 11.0229 9.80504C11.1061 9.80171 11.176 9.80504 11.2458 9.80504C11.1427 9.71853 11.0362 9.62869 10.9364 9.54552C10.1147 8.88676 9.33609 8.26457 8.62078 7.68899C7.89215 7.12672 7.22675 6.6144 6.63453 6.15859C6.04897 5.69281 5.51334 5.3201 5.08082 5.0007C4.21911 4.35858 3.72668 3.99268 3.72668 3.99268C3.72668 3.99268 4.24239 4.32538 5.14735 4.90429C5.59317 5.20039 6.14878 5.54308 6.76096 5.97892C7.37647 6.40478 8.07517 6.8805 8.82376 7.42281C9.56237 7.9751 10.3642 8.57401 11.2092 9.20615C11.4388 9.38914 11.6817 9.57876 11.9212 9.76174C12.0344 9.84825 12.1441 9.93476 12.2573 10.0246C12.2872 10.0479 12.3138 10.0678 12.3438 10.0911C12.3338 9.99463 12.3205 9.89485 12.3072 9.78173C12.2273 9.23609 12.0809 8.50414 11.8347 7.78882C11.7083 7.43283 11.5619 7.08346 11.3989 6.76406C11.2325 6.44466 11.0495 6.16186 10.8765 5.92564C10.6935 5.69607 10.5372 5.50647 10.4074 5.39335C10.2843 5.27358 10.2111 5.20369 10.2111 5.20369C10.2111 5.20369 10.2876 5.26691 10.4241 5.3767C10.5671 5.47984 10.7434 5.65284 10.9497 5.8691C11.1493 6.09201 11.3656 6.36814 11.5686 6.68088C11.7715 6.99363 11.9612 7.34299 12.1275 7.70231C12.4569 8.42096 12.6898 9.16958 12.8328 9.73518C12.9393 10.171 12.9959 10.5037 13.0192 10.6335C13.2853 10.8464 13.5515 11.0527 13.8143 11.2789C14.3334 11.7147 14.8624 12.1639 15.3947 12.6197C15.3947 12.6131 15.398 12.6097 15.398 12.6031C15.4512 12.3336 15.4912 11.9576 15.4546 11.5716L15.4246 11.2822C15.4213 11.1857 15.3847 11.0959 15.3647 11.0027C15.3148 10.8231 15.2882 10.6467 15.2184 10.5103C15.0986 10.2242 15.022 10.0346 15.022 10.0346C15.022 10.0346 15.1385 10.2109 15.3082 10.4771C15.4047 10.6069 15.4679 10.7799 15.5544 10.9595C15.591 11.0527 15.6475 11.1425 15.6742 11.2423L15.7673 11.5451C15.8871 11.9543 15.9304 12.3768 15.9337 12.6962C15.937 12.846 15.927 12.9723 15.917 13.0688C16.1167 13.2452 16.3196 13.4115 16.5159 13.5912C16.832 13.8673 17.148 14.1535 17.4608 14.4363C17.5307 14.4995 17.6005 14.5594 17.6704 14.6226C18.1462 15.0585 18.6219 15.4976 19.0977 15.9401C19.1176 15.6507 19.1343 15.2614 19.1177 14.789C19.1143 14.5261 19.091 14.24 19.0611 13.9372C19.0378 13.6345 18.9779 13.315 18.9347 12.9856C18.8581 12.6596 18.8116 12.3136 18.7084 11.971C18.6153 11.6283 18.5188 11.2789 18.3857 10.9362C18.2726 10.5902 18.1229 10.2541 17.9698 9.92477C17.8334 9.58873 17.6438 9.28269 17.4774 8.97327C17.321 8.66053 17.1114 8.39102 16.9351 8.12153C16.7654 7.84871 16.5692 7.60918 16.3895 7.39292C16.2065 7.17666 16.0535 6.96372 15.8904 6.80069C15.7274 6.63434 15.5877 6.49127 15.4712 6.37482C15.2383 6.1386 15.1052 6.00215 15.1052 6.00215C15.1052 6.00215 15.245 6.13193 15.4912 6.35817C15.6143 6.47129 15.764 6.60769 15.9337 6.76739C16.1067 6.92376 16.2697 7.13003 16.466 7.33964C16.6623 7.54924 16.8686 7.78218 17.0549 8.05167C17.2445 8.31784 17.4741 8.58401 17.6504 8.89343C17.8334 9.19619 18.0463 9.50223 18.2027 9.84159C18.3757 10.171 18.5487 10.5103 18.6818 10.8597C19.274 12.2504 19.5668 13.7209 19.65 14.8189C19.7232 15.6273 19.6966 16.2395 19.6766 16.509C20.2389 17.058 20.7945 17.6136 21.3402 18.1692C21.4034 17.9496 21.4233 17.617 21.4699 17.2976C21.4998 17.1279 21.4865 16.9516 21.4932 16.7885C21.4965 16.6255 21.4998 16.4724 21.4998 16.3393C21.5032 16.0765 21.5065 15.9002 21.5065 15.9002C21.5065 15.9002 21.5431 16.0765 21.5996 16.3393C21.6263 16.4724 21.6595 16.6288 21.6928 16.7952C21.7227 16.9615 21.776 17.1412 21.786 17.3208C21.8159 17.6835 21.8791 18.0395 21.8592 18.3323C21.8558 18.472 21.8591 18.6018 21.8492 18.6749C21.8492 18.6783 21.8492 18.6816 21.8492 18.6849C22.5711 19.4402 23.2732 20.1888 23.9419 20.9374C23.9951 20.7078 24.0583 20.4084 24.1116 20.0357C24.238 19.194 24.3112 18.0395 24.1682 16.875C24.1382 16.5823 24.0983 16.2928 24.0351 16.0066C23.9885 15.7205 23.9153 15.441 23.8387 15.1715C23.7722 14.8987 23.6824 14.6425 23.5925 14.3996C23.5094 14.1534 23.4229 13.9239 23.3197 13.721C23.2233 13.5147 23.1401 13.3217 23.0536 13.1553C22.9604 12.9923 22.8772 12.8526 22.8107 12.7361C22.6743 12.5032 22.5978 12.3669 22.5978 12.3669C22.5978 12.3669 22.6843 12.4966 22.834 12.7229C22.9105 12.836 23.0003 12.9757 23.1035 13.1321C23.2 13.2951 23.2965 13.4847 23.4062 13.6877C23.5227 13.8906 23.6258 14.1169 23.729 14.3631C23.8388 14.606 23.9452 14.8622 24.0317 15.135C24.1282 15.4045 24.2214 15.6872 24.2879 15.98C24.3711 16.2695 24.431 16.5656 24.4842 16.865C24.7104 18.0595 24.7171 19.2605 24.6472 20.1488C24.6007 20.8142 24.5042 21.31 24.4609 21.5163C24.5607 21.6294 24.6572 21.7425 24.7537 21.8523C24.8535 21.9654 24.9533 22.0786 25.0498 22.1917C25.5123 22.7406 25.9614 23.2896 26.3906 23.8119C26.7932 24.3442 27.1858 24.8467 27.5517 25.3391C27.575 25.2659 27.605 25.186 27.6349 25.0929C27.758 24.687 27.9277 24.1014 28.0508 23.3728C28.1905 22.6475 28.277 21.7791 28.3003 20.8409C28.297 20.3684 28.3103 19.8827 28.2604 19.3837C28.2405 19.1341 28.2305 18.8846 28.2005 18.6317L28.0874 17.8732C28.0308 17.3641 27.8845 16.8651 27.778 16.3693C27.6715 15.8703 27.4819 15.3978 27.3421 14.9287C27.1991 14.4596 26.9795 14.0304 26.8165 13.6078C26.6568 13.1853 26.4372 12.8094 26.2542 12.4567C26.0612 12.1074 25.9148 11.7713 25.7285 11.5018C25.5522 11.2256 25.3991 10.9861 25.2694 10.7898C25.0165 10.3939 24.8702 10.1676 24.8702 10.1676C24.8702 10.1676 25.0232 10.3872 25.2927 10.7765C25.4258 10.9695 25.5888 11.2057 25.7784 11.4752C25.9781 11.7381 26.1344 12.074 26.3407 12.4167C26.537 12.7661 26.7732 13.1388 26.9496 13.5613C27.1292 13.9805 27.3688 14.4097 27.5285 14.8788C27.6848 15.3479 27.8978 15.8236 28.0242 16.326C28.1506 16.8284 28.3203 17.3341 28.3968 17.8498L28.5399 18.6217C28.5798 18.8779 28.5998 19.134 28.6297 19.3902C28.7029 19.8993 28.7063 20.3984 28.7295 20.8842C28.7428 21.849 28.6896 22.7473 28.5732 23.5025C28.4767 24.2611 28.3236 24.8799 28.2105 25.3091C28.1506 25.522 28.1007 25.6917 28.0608 25.8081C28.0242 25.9113 28.0076 25.9645 28.0042 25.9745C28.0541 26.0444 28.1074 26.1176 28.154 26.1875C28.4135 26.5668 28.6796 26.9161 28.8992 27.2721C29.1188 27.6281 29.3251 27.9641 29.5181 28.2802C29.5513 28.3334 29.5813 28.3833 29.6112 28.4366C29.7243 28.6229 29.8308 28.8058 29.9273 28.9822C30.1202 29.3382 30.2866 29.6708 30.4463 29.9536C30.6892 30.4228 30.8289 30.8154 30.9454 31.0682C31.0552 31.3278 31.1151 31.4641 31.1151 31.4641C31.1151 31.4641 31.0252 31.3278 30.8955 31.0749Z" fill="white"/>
<path opacity="0.2" d="M29.8607 29.9635C29.7243 29.7173 29.5513 29.3514 29.2885 28.9022C29.1121 28.6294 28.9291 28.31 28.7162 27.9673C28.6962 27.9706 28.6763 27.974 28.653 27.974C28.653 27.974 27.5451 27.8708 25.8915 27.6379C24.238 27.405 22.0388 27.0325 19.8529 26.5334C18.7616 26.2872 17.6737 25.9978 16.6589 25.705C16.1566 25.5453 15.6675 25.3922 15.205 25.2458C14.7492 25.0794 14.3167 24.9231 13.9175 24.7767C13.5249 24.6137 13.1656 24.4606 12.8495 24.3275C12.5301 24.2011 12.2639 24.0547 12.041 23.9449C11.5985 23.722 11.3423 23.5956 11.3423 23.5956C11.3423 23.5956 11.5985 23.7154 12.051 23.9216C12.2772 24.0248 12.5467 24.1612 12.8694 24.2777C13.1888 24.4008 13.5515 24.5372 13.9474 24.6902C14.3466 24.82 14.7825 24.963 15.2383 25.1127C15.7007 25.2425 16.1898 25.3789 16.6955 25.522C17.7103 25.7782 18.7982 26.031 19.8895 26.2373C22.0721 26.6598 24.2613 26.9525 25.9049 27.1289C27.0128 27.2453 27.8612 27.3119 28.3003 27.3452C28.2937 27.3352 28.287 27.3252 28.2804 27.3152C27.8645 26.7163 27.3954 26.041 26.8397 25.329C26.7898 25.2624 26.7366 25.1926 26.6867 25.1261C26.6335 25.0562 26.5802 24.983 26.527 24.9131C26.4937 24.9064 26.4438 24.8998 26.3806 24.8898C26.1876 24.8565 25.8682 24.8 25.4657 24.7069C25.1296 24.6303 24.7304 24.5638 24.3212 24.4407C23.9086 24.3276 23.4661 24.2078 23.0236 24.088C22.1386 23.8617 21.2802 23.5224 20.6248 23.3194C19.976 23.1032 19.5402 22.9568 19.5402 22.9568C19.5402 22.9568 19.9827 23.0666 20.6414 23.2296C21.3035 23.3793 22.1785 23.6422 23.0635 23.7919C23.506 23.8718 23.9485 23.9549 24.3611 24.0315C24.7737 24.118 25.1596 24.1512 25.489 24.1978C25.6819 24.2244 25.8549 24.2477 26.008 24.2643C25.6886 23.8751 25.3559 23.4758 25.0165 23.0599C24.5574 22.5475 24.0849 22.0053 23.5992 21.4596C23.4894 21.4463 23.3064 21.423 23.0403 21.3864C22.6144 21.3298 22.0055 21.24 21.2802 21.1103C20.5516 20.9972 19.7099 20.8142 18.8049 20.6345C18.3524 20.5514 17.89 20.4215 17.4175 20.3117C16.9451 20.1953 16.466 20.0756 15.9869 19.9591C15.5111 19.8161 15.0387 19.673 14.5695 19.5333C14.1038 19.3835 13.638 19.2771 13.2021 19.1007C12.7663 18.9377 12.3438 18.778 11.9412 18.6283C11.542 18.4719 11.1593 18.3521 10.82 18.1924C9.4692 17.5437 8.57089 17.1078 8.57089 17.1078C8.57089 17.1078 9.48249 17.5071 10.8499 18.1026C11.1926 18.249 11.5819 18.3554 11.9811 18.4952C12.3837 18.6283 12.8095 18.7713 13.2487 18.9177C13.6846 19.0741 14.1537 19.164 14.6195 19.2937C15.0886 19.4135 15.561 19.5366 16.0368 19.6597C16.5159 19.7595 16.995 19.856 17.4641 19.9558C17.9366 20.049 18.3957 20.1587 18.8481 20.2219C19.7498 20.365 20.5882 20.5181 21.3102 20.5979C21.9922 20.6911 22.5611 20.7543 22.9737 20.7942C22.9837 20.7942 22.997 20.7976 23.007 20.7976C22.9537 20.741 22.9038 20.6811 22.8506 20.6245C22.8406 20.6146 22.8306 20.6012 22.8207 20.5912C22.0721 19.7628 21.2669 18.9344 20.4451 18.0993C20.4219 18.076 20.4019 18.056 20.3786 18.0328C20.3653 18.0228 20.3487 18.0161 20.3354 18.0028H20.3254C20.3254 18.0028 19.8829 17.9695 19.2008 17.8464C18.8615 17.7865 18.4622 17.74 18.0497 17.6302C17.6338 17.5304 17.1913 17.4272 16.7455 17.3241C16.5259 17.2675 16.303 17.2276 16.0867 17.161C15.8704 17.0945 15.6608 17.028 15.4546 16.9615C15.0453 16.8317 14.666 16.7119 14.34 16.6088C13.6879 16.4025 13.2554 16.2661 13.2554 16.2661C13.2554 16.2661 13.6979 16.3659 14.3599 16.5156C14.6893 16.5921 15.0753 16.6786 15.4878 16.7718C15.6941 16.8184 15.907 16.8683 16.1233 16.9148C16.3396 16.9647 16.5625 16.9847 16.782 17.0213C17.2245 17.0879 17.6637 17.1544 18.0796 17.2143C18.4922 17.2875 18.8748 17.2974 19.2008 17.3307C19.3938 17.3507 19.5668 17.3607 19.7165 17.3707C19.2275 16.8883 18.7317 16.4058 18.226 15.93C18.2093 15.9167 18.1961 15.9001 18.1794 15.8868C18.073 15.787 17.9698 15.6838 17.86 15.584C17.351 15.0983 16.8386 14.6192 16.3229 14.1401C16.253 14.1335 16.1532 14.1268 16.0268 14.1135C15.7507 14.0935 15.3714 14.0336 14.9122 13.9704C14.4564 13.8839 13.9241 13.8107 13.3585 13.6743C12.7929 13.5512 12.1907 13.4114 11.5952 13.2351C11.2957 13.1519 10.9996 13.0687 10.7068 12.9889C10.4174 12.8924 10.1313 12.7993 9.85513 12.7061C9.57898 12.613 9.31281 12.5265 9.05996 12.4433C8.8071 12.3634 8.57421 12.257 8.35795 12.1771C7.49292 11.8344 6.91398 11.6082 6.91398 11.6082C6.91398 11.6082 7.50288 11.8011 8.38122 12.0873C8.60081 12.1538 8.83704 12.2437 9.09322 12.3102C9.3494 12.3768 9.61558 12.4499 9.89505 12.5231C10.1712 12.5963 10.4606 12.6728 10.7501 12.7527C11.0429 12.8159 11.3423 12.8791 11.6418 12.9423C12.2373 13.0821 12.8362 13.1786 13.3951 13.2651C13.9541 13.3649 14.4797 13.4048 14.9256 13.4614C15.1917 13.4813 15.4279 13.5013 15.6309 13.5146C15.4912 13.3882 15.3514 13.2584 15.2117 13.132C14.9888 12.9257 14.7625 12.7327 14.5363 12.5331C14.493 12.4932 14.4464 12.4532 14.4032 12.4133C13.7877 11.8743 13.1755 11.3453 12.5766 10.833C12.3105 10.61 12.0543 10.3971 11.7948 10.1809C11.705 10.1043 11.6118 10.0278 11.522 9.95132C11.3656 9.81824 11.2092 9.69183 11.0562 9.56208C11.0196 9.56208 10.9597 9.56208 10.8599 9.56208C10.7102 9.56541 10.4673 9.52875 10.1945 9.50546C9.91835 9.48217 9.59894 9.44893 9.26956 9.36575C8.93686 9.29588 8.58419 9.21939 8.23152 9.1462C7.87553 9.08964 7.53614 8.94653 7.21009 8.85004C6.88737 8.7469 6.58796 8.65047 6.32845 8.56729C5.81609 8.40094 5.47338 8.29112 5.47338 8.29112C5.47338 8.29112 5.82272 8.36433 6.3484 8.47412C6.60791 8.52736 6.91401 8.59384 7.24007 8.66038C7.56612 8.72026 7.90879 8.82342 8.26145 8.84338C8.60747 8.87998 8.95679 8.9166 9.28284 8.94987C9.6089 8.99645 9.90504 8.99316 10.1546 8.98983C10.2377 8.98651 10.3043 8.98983 10.3775 8.98983C10.2776 8.90666 10.1712 8.81682 10.0714 8.73364C9.25627 8.08487 8.48438 7.46936 7.77572 6.90376C7.05375 6.35147 6.39165 5.84242 5.80608 5.39326C5.22385 4.93413 4.69484 4.56485 4.26565 4.24877C3.4106 3.61663 2.92151 3.25391 2.92151 3.25391C2.92151 3.25391 3.43391 3.58003 4.32889 4.15561C4.77139 4.44839 5.32033 4.78773 5.92585 5.21359C6.5347 5.63613 7.23006 6.10192 7.96867 6.63758C8.70062 7.18322 9.49579 7.77212 10.3342 8.39761C10.5604 8.57727 10.8033 8.76355 11.0395 8.94654C11.1527 9.03304 11.2591 9.11956 11.3722 9.20606C11.4022 9.22935 11.4288 9.2493 11.4588 9.27258C11.4488 9.17943 11.4355 9.07964 11.4222 8.96985C11.3456 8.43087 11.1959 7.71217 10.953 7.00684C10.8299 6.6575 10.6836 6.31155 10.5172 5.99548C10.3542 5.68274 10.1712 5.39986 9.99817 5.1703C9.81851 4.94406 9.66213 4.7578 9.53237 4.64801C9.40927 4.52823 9.33942 4.46167 9.33942 4.46167C9.33942 4.46167 9.41594 4.52156 9.54902 4.63135C9.68876 4.73117 9.86512 4.90416 10.0714 5.11709C10.2677 5.33668 10.4839 5.60946 10.6869 5.91555C10.8865 6.22497 11.0761 6.56766 11.2425 6.92033C11.5719 7.629 11.8015 8.36428 11.9412 8.92323C12.0477 9.35242 12.1042 9.68185 12.1242 9.80828C12.387 10.0179 12.6498 10.2241 12.9127 10.447C13.425 10.8796 13.9507 11.3187 14.4797 11.7679C14.4797 11.7612 14.483 11.7579 14.483 11.7512C14.5363 11.4884 14.5729 11.1158 14.5363 10.7365L14.5064 10.4537C14.503 10.3572 14.4664 10.2707 14.4464 10.1809C14.3965 10.0045 14.3733 9.83154 14.3034 9.69513C14.187 9.41233 14.1071 9.22604 14.1071 9.22604C14.1071 9.22604 14.2202 9.39899 14.3932 9.66182C14.4897 9.79158 14.5496 9.96132 14.6361 10.1377C14.6727 10.2275 14.7293 10.3173 14.7525 10.4171L14.8457 10.7166C14.9655 11.1191 15.0087 11.535 15.0121 11.8511C15.0154 11.9974 15.0054 12.1239 14.9954 12.2171C15.195 12.3901 15.3947 12.5564 15.591 12.7328C15.907 13.0056 16.2164 13.2851 16.5292 13.5645C16.5991 13.6278 16.6689 13.6876 16.7355 13.7508C17.2079 14.18 17.6803 14.6126 18.1495 15.0484C18.1694 14.7623 18.1861 14.3796 18.1661 13.9171C18.1628 13.6576 18.1395 13.3782 18.1095 13.0787C18.0863 12.7793 18.0264 12.4666 17.9831 12.1405C17.9066 11.8178 17.8634 11.4785 17.7569 11.1424C17.6671 10.8031 17.5706 10.4604 17.4375 10.1243C17.3243 9.78164 17.178 9.45227 17.0249 9.12621C16.8885 8.79351 16.6989 8.49073 16.5358 8.19129C16.3795 7.8852 16.1732 7.61903 16.0002 7.35287C15.8305 7.08337 15.6375 6.85051 15.4579 6.63425C15.2782 6.42132 15.1252 6.21171 14.9655 6.04868C14.8058 5.88566 14.6627 5.74592 14.5496 5.62614C14.3167 5.39325 14.1836 5.26013 14.1836 5.26013C14.1836 5.26013 14.3233 5.38658 14.5662 5.60949C14.6893 5.72261 14.8357 5.85568 15.0054 6.01205C15.1751 6.16842 15.3381 6.36811 15.5311 6.57772C15.724 6.78399 15.9303 7.01351 16.1166 7.27635C16.3063 7.53586 16.5325 7.79869 16.7055 8.10478C16.8885 8.40422 17.0981 8.707 17.2545 9.03638C17.4275 9.36243 17.5972 9.69514 17.7303 10.0412C18.3191 11.4119 18.6086 12.8592 18.6951 13.9405C18.7683 14.7356 18.7417 15.3378 18.7217 15.604C19.2807 16.1463 19.8296 16.6919 20.372 17.2409C20.4352 17.0246 20.4551 16.6986 20.4984 16.3859C20.5283 16.2195 20.515 16.0465 20.5217 15.8868C20.525 15.7238 20.525 15.5741 20.5283 15.4443C20.5316 15.1848 20.535 15.0118 20.535 15.0118C20.535 15.0118 20.5716 15.1848 20.6248 15.4443C20.6514 15.5741 20.6847 15.7271 20.718 15.8935C20.7479 16.0565 20.8011 16.2328 20.8111 16.4124C20.8411 16.7684 20.9043 17.1211 20.8843 17.4072C20.881 17.547 20.8843 17.6734 20.8743 17.7466C20.8743 17.7499 20.8743 17.7533 20.8743 17.7566C21.5897 18.5018 22.2883 19.2404 22.9504 19.979C23.0037 19.7528 23.0635 19.4567 23.1168 19.0941C23.2399 18.2656 23.3131 17.1311 23.17 15.9832C23.1401 15.6971 23.1001 15.411 23.0369 15.1282C22.9904 14.8454 22.9205 14.5693 22.8406 14.3065C22.7741 14.037 22.6876 13.7841 22.5944 13.5446C22.5112 13.3017 22.4247 13.0754 22.3216 12.8758C22.2251 12.6729 22.1419 12.4832 22.0588 12.3169C21.9656 12.1572 21.8858 12.0175 21.8192 11.901C21.6861 11.6714 21.6096 11.5383 21.6096 11.5383C21.6096 11.5383 21.6928 11.6648 21.8425 11.8877C21.9157 12.0008 22.0055 12.1339 22.112 12.2903C22.2052 12.4499 22.3017 12.6362 22.4114 12.8392C22.5279 13.0388 22.631 13.2617 22.7308 13.5046C22.8373 13.7441 22.9471 13.997 23.0303 14.2665C23.1268 14.5327 23.2166 14.8121 23.2865 15.0983C23.3696 15.3844 23.4295 15.6772 23.4827 15.97C23.709 17.1444 23.7156 18.3289 23.6458 19.2006C23.5992 19.856 23.5061 20.3451 23.4628 20.548C23.5626 20.6578 23.6558 20.7709 23.7523 20.8807C23.8487 20.9939 23.9486 21.1037 24.045 21.2168C24.5042 21.7591 24.9467 22.298 25.3759 22.8137C25.7751 23.3394 26.1644 23.8351 26.5303 24.3209C26.5536 24.251 26.5802 24.1712 26.6102 24.078C26.7333 23.6787 26.8996 23.1031 27.0227 22.3845C27.1592 21.6725 27.2457 20.8175 27.2689 19.8925C27.2656 19.4301 27.2789 18.951 27.229 18.4586C27.2091 18.2124 27.1991 17.9662 27.1691 17.72L27.056 16.9748C26.9994 16.4757 26.8531 15.9832 26.7466 15.4942C26.6435 15.0051 26.4505 14.5393 26.3141 14.0768C26.171 13.6144 25.9548 13.1919 25.7917 12.776C25.6354 12.3568 25.4158 11.9908 25.2328 11.6415C25.0398 11.2988 24.8968 10.9661 24.7105 10.6999C24.5341 10.4304 24.381 10.1942 24.2546 9.99786C24.0018 9.6086 23.8587 9.38573 23.8587 9.38573C23.8587 9.38573 24.0118 9.60201 24.2779 9.98462C24.411 10.1743 24.574 10.4071 24.7603 10.6733C24.9566 10.9328 25.113 11.2622 25.3193 11.6015C25.5123 11.9475 25.7485 12.3136 25.9248 12.7294C26.1045 13.142 26.3407 13.5645 26.5004 14.027C26.6567 14.4894 26.8664 14.9586 26.9928 15.451C27.1192 15.9434 27.2856 16.4424 27.3654 16.9515L27.5085 17.71C27.5484 17.9629 27.5684 18.2158 27.5983 18.4653C27.6715 18.9677 27.6749 19.4567 27.6981 19.9358C27.7115 20.8874 27.6582 21.769 27.5484 22.5143C27.4519 23.2629 27.3022 23.8684 27.1924 24.291C27.1325 24.5006 27.0859 24.6669 27.0427 24.7834C27.0061 24.8865 26.9895 24.9397 26.9862 24.9464C27.0361 25.0163 27.0859 25.0861 27.1359 25.156C27.392 25.5286 27.6549 25.8746 27.8745 26.2239C28.0907 26.5733 28.297 26.906 28.49 27.2154C28.5233 27.2686 28.5498 27.3186 28.5831 27.3685C28.6962 27.5548 28.7994 27.7344 28.8959 27.9074C29.0888 28.2568 29.2519 28.5862 29.4115 28.8623C29.6511 29.3248 29.7909 29.7107 29.9073 29.9602C30.0171 30.2131 30.077 30.3495 30.077 30.3495C30.077 30.3495 29.9905 30.2097 29.8607 29.9635Z" fill="#1D1D1B"/>
<path d="M30.2001 30.3795C30.067 30.1333 29.8907 29.7673 29.6312 29.3182C29.4548 29.0454 29.2718 28.7259 29.0622 28.3833C29.0423 28.3866 29.0223 28.3899 29.0023 28.3899C29.0023 28.3899 27.8977 28.2868 26.2575 28.0572C24.6139 27.8243 22.4248 27.455 20.2489 26.9593C19.1609 26.7131 18.0796 26.4269 17.0715 26.1342C16.5691 25.9745 16.0867 25.8215 15.6276 25.6751C15.1751 25.5087 14.7459 25.3524 14.3467 25.206C13.9574 25.043 13.5981 24.8932 13.282 24.7568C12.9626 24.6304 12.6998 24.484 12.4769 24.3742C12.0344 24.1513 11.7815 24.0249 11.7815 24.0249C11.7815 24.0249 12.0377 24.1446 12.4868 24.3509C12.7097 24.454 12.9792 24.5905 13.302 24.7036C13.6214 24.8267 13.9807 24.9631 14.3733 25.1128C14.7725 25.2426 15.2017 25.3856 15.6575 25.5354C16.1166 25.6651 16.6024 25.8015 17.1048 25.9413C18.1162 26.1974 19.1942 26.4469 20.2821 26.6532C22.4514 27.0724 24.6339 27.3652 26.2675 27.5383C27.3721 27.6547 28.2138 27.7212 28.6497 27.7512C28.643 27.7412 28.6364 27.7312 28.6297 27.7212C28.2171 27.1223 27.7481 26.4469 27.1991 25.7383C27.1525 25.6717 27.0959 25.6052 27.046 25.5354C26.9928 25.4655 26.9396 25.3922 26.8863 25.3224C26.8531 25.3157 26.8032 25.3091 26.74 25.2991C26.547 25.2658 26.2309 25.2093 25.8283 25.1161C25.4923 25.0396 25.0997 24.9731 24.6871 24.85C24.2746 24.7368 23.8354 24.6204 23.3962 24.5006C22.5179 24.2744 21.6628 23.9383 21.0107 23.7354C20.3653 23.5191 19.9328 23.3728 19.9328 23.3728C19.9328 23.3728 20.372 23.4825 21.0307 23.6422C21.6895 23.7886 22.5578 24.0515 23.4395 24.2045C23.8787 24.2844 24.3178 24.3675 24.7304 24.4407C25.143 24.5272 25.5256 24.5605 25.8516 24.6038C26.0446 24.6304 26.2176 24.6503 26.3673 24.667C26.0513 24.2777 25.7185 23.8784 25.3825 23.4659C24.9267 22.9535 24.4576 22.4146 23.9752 21.8689C23.8687 21.8556 23.6857 21.8323 23.4196 21.7957C22.9937 21.7392 22.3882 21.6493 21.6662 21.5229C20.9442 21.4131 20.1025 21.2302 19.2042 21.0505C18.755 20.9673 18.2925 20.8375 17.8234 20.7277C17.3543 20.6112 16.8785 20.4949 16.3994 20.3751C15.927 20.232 15.4546 20.0923 14.9888 19.9525C14.5263 19.8028 14.0639 19.6963 13.628 19.5233C13.1922 19.3603 12.7729 19.204 12.3737 19.0543C11.9778 18.8979 11.5952 18.7781 11.2558 18.6184C9.91168 17.9696 9.01671 17.5371 9.01671 17.5371C9.01671 17.5371 9.92497 17.933 11.2824 18.5319C11.6218 18.6749 12.0077 18.7814 12.407 18.9211C12.8062 19.0542 13.2288 19.1939 13.6679 19.3403C14.1004 19.4967 14.5662 19.5866 15.032 19.7163C15.4978 19.8361 15.9702 19.9592 16.4427 20.0823C16.9185 20.1821 17.3942 20.2786 17.8633 20.3751C18.3325 20.4649 18.7916 20.578 19.2408 20.6412C20.1357 20.7843 20.9708 20.934 21.6895 21.0139C22.3682 21.107 22.9338 21.1703 23.343 21.2102C23.353 21.2102 23.3663 21.2135 23.3763 21.2135C23.3231 21.157 23.2731 21.0971 23.2199 21.0405C23.2099 21.0305 23.2 21.0172 23.19 21.0072C22.448 20.1788 21.6462 19.3537 20.8311 18.5186C20.8078 18.4953 20.7878 18.4753 20.7645 18.452C20.7512 18.4421 20.7346 18.4354 20.7213 18.4221H20.7113C20.7113 18.4221 20.2722 18.3888 19.5901 18.2657C19.2541 18.2058 18.8548 18.1593 18.4423 18.0495C18.0297 17.953 17.5872 17.8465 17.1447 17.7433C16.9251 17.6868 16.7022 17.6469 16.4893 17.5803C16.2763 17.5138 16.0667 17.4473 15.8605 17.3841C15.4545 17.2543 15.0753 17.1345 14.7492 17.0347C14.1004 16.8284 13.6679 16.692 13.6679 16.692C13.6679 16.692 14.1071 16.7918 14.7659 16.9415C15.0953 17.0147 15.4779 17.1046 15.8871 17.1977C16.0934 17.2443 16.3029 17.2909 16.5192 17.3408C16.7355 17.3907 16.9551 17.4107 17.1747 17.4473C17.6138 17.5138 18.053 17.577 18.4656 17.6403C18.8781 17.7134 19.2574 17.7234 19.5835 17.7533C19.7764 17.7733 19.9461 17.7833 20.0958 17.7933C19.61 17.3109 19.1143 16.8317 18.6153 16.3526C18.5986 16.3393 18.5853 16.3227 18.5687 16.3094C18.4622 16.2096 18.3591 16.1064 18.2526 16.0066C17.7436 15.5209 17.2346 15.0417 16.7255 14.566C16.6557 14.5593 16.5592 14.5527 16.4294 14.5394C16.1566 14.5195 15.7773 14.4596 15.3215 14.3964C14.869 14.3099 14.3367 14.2366 13.7744 14.1002C13.2121 13.9771 12.6133 13.8407 12.0211 13.6644C11.7249 13.5812 11.4288 13.498 11.136 13.4182C10.8466 13.3217 10.5638 13.2286 10.2876 13.1354C10.0148 13.0456 9.74864 12.9557 9.49579 12.8726C9.24293 12.7927 9.01337 12.6862 8.79711 12.6064C7.9354 12.267 7.35984 12.0408 7.35984 12.0408C7.35984 12.0408 7.94541 12.2304 8.82042 12.5165C9.04001 12.5831 9.2729 12.6729 9.52909 12.7394C9.78194 12.806 10.0514 12.8792 10.3276 12.9524C10.6037 13.0256 10.8898 13.1021 11.1793 13.1786C11.4721 13.2418 11.7682 13.3051 12.0643 13.3683C12.6565 13.5047 13.2521 13.6045 13.8077 13.691C14.3633 13.7908 14.8856 13.8274 15.3315 13.8873C15.5943 13.9073 15.8305 13.9239 16.0335 13.9405C15.8937 13.8141 15.7573 13.6844 15.6176 13.5613C15.3947 13.355 15.1684 13.162 14.9455 12.9624C14.9023 12.9225 14.8557 12.8825 14.8125 12.8426C14.2003 12.3036 13.5914 11.7746 12.9959 11.2622C12.733 11.0426 12.4769 10.8264 12.2207 10.6101C12.1308 10.5336 12.0377 10.4571 11.9478 10.3806C11.7915 10.2508 11.6384 10.121 11.4821 9.99127C11.4455 9.99127 11.3856 9.99127 11.2857 9.99127C11.136 9.9946 10.8965 9.95802 10.6237 9.93473C10.3475 9.91144 10.0314 9.8782 9.70206 9.79502C9.37268 9.72516 9.02002 9.64858 8.67068 9.57539C8.31801 9.51883 7.97868 9.3758 7.65595 9.28264C7.33656 9.1795 7.03711 9.08299 6.7776 8.99981C6.26524 8.83679 5.92586 8.72705 5.92586 8.72705C5.92586 8.72705 6.27519 8.80018 6.79422 8.90997C7.05373 8.96321 7.3565 9.02644 7.68255 9.09631C8.00861 9.1562 8.34798 9.25935 8.69732 9.27931C9.04334 9.31591 9.38933 9.35253 9.71205 9.3858C10.0381 9.43238 10.3309 9.42901 10.5771 9.42235C10.6569 9.41903 10.7268 9.42235 10.7967 9.42235C10.6969 9.33918 10.5904 9.24934 10.4906 9.16616C9.67877 8.51739 8.91355 7.90521 8.20488 7.33961C7.48624 6.78732 6.82752 6.2816 6.24528 5.83244C5.66637 5.37664 5.14067 5.00736 4.7148 4.69129C3.86308 4.05914 3.37732 3.69983 3.37732 3.69983C3.37732 3.69983 3.88639 4.02586 4.77804 4.59812C5.22054 4.8909 5.76618 5.23032 6.36838 5.65618C6.97391 6.07539 7.66593 6.54444 8.40121 7.08009C9.12984 7.62573 9.91833 8.21463 10.7534 8.83679C10.9797 9.01645 11.2192 9.20281 11.4554 9.3858C11.5652 9.47231 11.675 9.55882 11.7881 9.64532C11.8181 9.66861 11.8447 9.68856 11.8713 9.71185C11.8613 9.61869 11.848 9.51883 11.8347 9.40903C11.7582 8.87005 11.6118 8.15144 11.3689 7.4461C11.2458 7.09676 11.0995 6.75073 10.9364 6.43466C10.7734 6.12192 10.5904 5.84245 10.4207 5.60956C10.2411 5.38332 10.0847 5.19698 9.95825 5.08719C9.83515 4.96741 9.7653 4.90093 9.7653 4.90093C9.7653 4.90093 9.84182 4.96082 9.9749 5.07062C10.1146 5.17043 10.2876 5.34342 10.4939 5.55635C10.6902 5.77594 10.9032 6.0454 11.1061 6.35482C11.3057 6.66423 11.492 7.00693 11.6584 7.35959C11.9844 8.06493 12.214 8.80354 12.3538 9.36249C12.4602 9.79168 12.5168 10.1177 12.5367 10.2475C12.7996 10.4571 13.0591 10.6634 13.3219 10.883C13.8309 11.3122 14.3566 11.7547 14.879 12.2005C14.879 12.1938 14.8823 12.1905 14.8823 12.1838C14.9355 11.921 14.9722 11.5483 14.9356 11.1691L14.9056 10.8863C14.9023 10.7898 14.8657 10.7033 14.8491 10.6135C14.8025 10.4371 14.7758 10.2641 14.706 10.1277C14.5895 9.84493 14.5097 9.65856 14.5097 9.65856C14.5097 9.65856 14.6228 9.83159 14.7925 10.0944C14.889 10.2242 14.9488 10.3939 15.0353 10.5703C15.0719 10.6601 15.1285 10.7499 15.1518 10.8497L15.2416 11.1492C15.3614 11.5517 15.4013 11.9676 15.4046 12.2837C15.408 12.43 15.398 12.5565 15.388 12.6497C15.5843 12.8227 15.7839 12.989 15.9802 13.1653C16.293 13.4348 16.6024 13.7176 16.9118 13.9971C16.9817 14.0603 17.0515 14.1202 17.1181 14.1801C17.5872 14.6093 18.0563 15.0418 18.5254 15.4777C18.5454 15.1915 18.562 14.8089 18.5454 14.3464C18.5421 14.0869 18.5188 13.8074 18.4922 13.508C18.4689 13.2086 18.4123 12.8958 18.3657 12.5697C18.2925 12.247 18.2459 11.9077 18.1428 11.5716C18.053 11.2323 17.9565 10.8896 17.8268 10.5536C17.717 10.2109 17.5672 9.88154 17.4175 9.55549C17.2844 9.22278 17.0948 8.92332 16.9318 8.62056C16.7787 8.31447 16.5724 8.0483 16.3994 7.78214C16.2298 7.51265 16.0401 7.27978 15.8605 7.06352C15.6808 6.85059 15.5311 6.64098 15.3681 6.48129C15.2084 6.31826 15.0686 6.17852 14.9522 6.06207C14.7226 5.82918 14.5895 5.69606 14.5895 5.69606C14.5895 5.69606 14.7293 5.82251 14.9688 6.04542C15.0886 6.15521 15.2383 6.29161 15.4046 6.44798C15.5743 6.60435 15.734 6.80396 15.927 7.01024C16.12 7.21651 16.3229 7.44611 16.5093 7.70895C16.6989 7.96846 16.9218 8.2313 17.0948 8.53739C17.2745 8.83682 17.4841 9.1396 17.6405 9.46898C17.8101 9.79503 17.9798 10.1277 18.1129 10.4738C18.6984 11.8412 18.9846 13.2918 19.0677 14.3731C19.1409 15.1682 19.1143 15.7738 19.0944 16.0366C19.65 16.5789 20.1956 17.1245 20.7346 17.6701C20.7978 17.4539 20.8178 17.1278 20.861 16.8117C20.891 16.6454 20.8777 16.4724 20.8843 16.3127C20.8877 16.1497 20.891 16 20.891 15.8702C20.8943 15.6107 20.8976 15.4377 20.8976 15.4377C20.8976 15.4377 20.9342 15.6107 20.9875 15.8702C21.0141 16 21.0474 16.153 21.0806 16.3193C21.1106 16.4824 21.1638 16.6587 21.1738 16.8384C21.2037 17.1944 21.2669 17.547 21.247 17.8332C21.2437 17.9729 21.247 18.0993 21.237 18.1725C21.237 18.1759 21.237 18.1792 21.237 18.1825C21.949 18.9278 22.641 19.663 23.2997 20.4016C23.353 20.1754 23.4129 19.8793 23.4661 19.5167C23.5892 18.6882 23.6624 17.5537 23.5193 16.4058C23.4894 16.1197 23.4495 15.8337 23.3863 15.5509C23.3397 15.2681 23.2698 14.9919 23.1933 14.7291C23.1301 14.4596 23.0403 14.2067 22.9504 13.9672C22.8673 13.7243 22.7807 13.498 22.6809 13.2984C22.5844 13.0955 22.5013 12.9058 22.4214 12.7394C22.3283 12.5797 22.2484 12.44 22.1819 12.3235C22.0488 12.094 21.9723 11.9609 21.9723 11.9609C21.9723 11.9609 22.0555 12.0874 22.2052 12.3103C22.2784 12.4234 22.3682 12.5565 22.4713 12.7129C22.5645 12.8726 22.661 13.0588 22.7708 13.2585C22.8872 13.4581 22.987 13.681 23.0869 13.9205C23.1933 14.1601 23.3031 14.413 23.3863 14.6825C23.4827 14.9486 23.5726 15.2281 23.6391 15.5142C23.7223 15.8003 23.7822 16.0932 23.8321 16.3859C24.055 17.5604 24.0617 18.7448 23.9918 19.6165C23.9452 20.2719 23.8521 20.761 23.8088 20.964C23.9086 21.0738 24.0018 21.1869 24.0983 21.2967C24.1947 21.4098 24.2945 21.5196 24.3877 21.6327C24.8435 22.175 25.286 22.714 25.7119 23.2263C26.1078 23.7487 26.4971 24.2477 26.8564 24.7302C26.8797 24.6603 26.9063 24.5804 26.9362 24.4873C27.0593 24.088 27.2257 23.5125 27.3488 22.7939C27.4852 22.0785 27.5717 21.2268 27.595 20.3019C27.5917 19.8394 27.605 19.3603 27.5551 18.8679C27.5351 18.6217 27.5251 18.3755 27.4952 18.1293L27.3854 17.3841C27.3288 16.885 27.1858 16.3925 27.0793 15.9035C26.9762 15.4144 26.7865 14.9486 26.6501 14.4861C26.5104 14.0237 26.2941 13.6012 26.1311 13.1886C25.9747 12.7727 25.7551 12.4035 25.5755 12.0541C25.3858 11.7114 25.2428 11.3787 25.0564 11.1125C24.8834 10.843 24.7304 10.6068 24.604 10.4138C24.3544 10.0245 24.2114 9.80168 24.2114 9.80168C24.2114 9.80168 24.3611 10.018 24.6273 10.4006C24.7604 10.5902 24.92 10.823 25.1064 11.0892C25.3027 11.3487 25.4557 11.6781 25.662 12.0175C25.855 12.3635 26.0878 12.7262 26.2608 13.1421C26.4405 13.5546 26.6734 13.9771 26.8331 14.4396C26.9895 14.902 27.1991 15.3712 27.3222 15.8636C27.4486 16.356 27.615 16.855 27.6915 17.3608L27.8345 18.1193C27.8745 18.3722 27.8944 18.6251 27.9244 18.8746C27.9942 19.377 28.0009 19.866 28.0209 20.3451C28.0342 21.2967 27.981 22.1783 27.8678 22.9236C27.7714 23.6722 27.6249 24.2777 27.5118 24.7036C27.4519 24.9132 27.4054 25.0795 27.3621 25.196C27.3255 25.2991 27.3089 25.3524 27.3055 25.359C27.3554 25.4289 27.4054 25.4987 27.452 25.5686C27.7081 25.9412 27.971 26.2872 28.1872 26.6366C28.4035 26.9859 28.6064 27.3153 28.7994 27.628C28.8327 27.6812 28.8593 27.7312 28.8926 27.7811C29.0057 27.9674 29.1088 28.1471 29.202 28.3201C29.3916 28.6694 29.558 28.9988 29.7143 29.275C29.9539 29.7374 30.0903 30.1233 30.2067 30.3728C30.3165 30.6257 30.3731 30.7622 30.3731 30.7622C30.3731 30.7622 30.3299 30.629 30.2001 30.3795Z" fill="#8AB02C"/>
<path d="M33.0946 34.4218L32.8317 34.179C32.7286 34.0858 30.2599 31.8932 25.6553 33.7863C20.678 35.8325 14.9288 33.3006 14.6893 33.1942L14.3499 33.0411L14.5462 32.725C14.646 32.562 14.7392 32.3723 14.7858 32.2393C11.5984 31.504 8.50427 26.2073 8.37118 25.9777L8.16824 25.6251L8.55752 25.502C8.67397 25.4654 8.97342 25.3622 9.19633 25.2558C6.97718 22.9668 4.00608 17.3107 3.87633 17.0612L3.69336 16.7119L4.06932 16.5954C4.17579 16.5622 4.45194 16.469 4.65489 16.3725C2.825 14.0669 2.66198 9.68842 2.65532 9.49545L2.64866 9.23935L2.89486 9.16941C2.98136 9.14612 3.22423 9.06966 3.38393 8.98649C2.09303 5.89565 0.852068 1.2477 0.83876 1.19779L0.695679 0.655518L1.23799 0.798558C1.27459 0.80854 5.01752 1.79668 8.25475 3.29718C8.30798 3.17741 8.38452 2.95778 8.43775 2.75816L8.52093 2.44211L8.83698 2.52528C9.01332 2.57186 12.9692 3.63657 15.2815 4.82433C15.2881 4.66463 15.2881 4.46163 15.2748 4.26866L15.2416 3.7164L15.7406 3.95593C15.9735 4.06573 21.2769 6.61091 23.3197 9.34575C23.4228 9.1428 23.5625 8.83007 23.6757 8.52398L23.842 8.07154L24.198 8.39426C24.3511 8.53067 27.8711 11.7179 29.5479 14.8154C29.6644 14.7123 29.7975 14.5759 29.8806 14.4827L30.1867 14.1368L30.4129 14.5427C30.5693 14.8255 34.2358 21.5128 32.885 26.6598C31.8968 30.4327 33.9263 32.8514 33.9463 32.8747L34.1193 33.0744L33.0946 34.4218ZM15.2848 32.7317C16.5657 33.2307 21.3434 34.851 25.4057 33.1808C29.5712 31.4674 32.1696 32.888 32.9914 33.4736L33.2809 33.0943C32.7718 32.389 31.3312 30.0002 32.2495 26.5001C33.3541 22.288 30.7989 16.7618 30.0403 15.2546C29.9372 15.3478 29.8241 15.4409 29.7243 15.5008C29.671 15.5308 29.5113 15.6239 29.3317 15.5707L29.1986 15.5308L29.0988 15.3744C27.8212 12.8625 25.073 10.131 24.1082 9.2127C23.9319 9.62526 23.7189 10.0145 23.516 10.131C23.323 10.2408 23.0968 10.1875 22.9736 10.0045C21.5097 7.77537 17.3476 5.51966 15.9336 4.79436C15.9137 5.43315 15.7539 5.52635 15.6608 5.57958L15.5011 5.67267L15.2815 5.57958C13.445 4.54819 10.0081 3.54342 8.97007 3.25064C8.86693 3.5534 8.72052 3.84947 8.53421 3.95926C8.41111 4.02913 8.2714 4.03581 8.1483 3.97925C5.64968 2.79814 2.79173 1.92639 1.61728 1.59036C1.99324 2.94115 3.01795 6.48447 4.05267 8.91322C4.09925 9.01969 4.16245 9.29587 3.75323 9.53209C3.62014 9.60861 3.45048 9.67518 3.31407 9.72508C3.37729 10.7066 3.71998 14.3829 5.3203 16.1629L5.42342 16.2794L5.41676 16.4889C5.38348 16.6919 5.21052 16.8151 5.08076 16.8883C4.94768 16.9648 4.77796 17.0379 4.62491 17.0945C5.33358 18.412 7.99526 23.2362 9.86174 25.0029L9.98151 25.1161L9.98484 25.3356C9.96155 25.5452 9.7852 25.6717 9.63548 25.7582C9.49242 25.8413 9.30278 25.9212 9.13642 25.9877C9.88834 27.1888 12.5666 31.2012 15.0852 31.6337C15.2349 31.6603 15.358 31.7535 15.4212 31.8899C15.5211 32.1161 15.4279 32.4356 15.2848 32.7317Z" fill="#4F7000"/>
</svg>
