<svg width="8" height="8" viewBox="0 0 8 8" fill="none" xmlns="http://www.w3.org/2000/svg">
<path fill-rule="evenodd" clip-rule="evenodd" d="M3.79745 6.24608C3.78386 6.24608 3.2809 6.23249 2.8595 6.25968C2.58763 6.27327 1.54093 6.15093 1.52733 6.16452C1.24187 6.43639 1.73124 6.74905 2.17982 6.4364C2.17982 6.49077 2.4381 6.77623 3.14496 6.4364C3.22653 6.78983 4.19167 6.57233 4.42276 6.27327C4.46354 6.23249 3.83824 6.25968 3.79745 6.24608Z" fill="#D1C2B6"/>
<path d="M4.10982 5.9196C4.10982 5.9196 4.10983 5.90609 4.13685 5.89258C4.16388 5.87906 4.19091 5.89257 4.19091 5.90609C4.20443 5.9196 4.20443 5.93312 4.19091 5.94663C4.19091 5.96015 4.1774 5.97366 4.15037 5.97366C4.12334 5.97366 4.10983 5.98718 4.0828 5.98718C4.05577 5.98718 4.06928 5.96015 4.06928 5.96015L4.10982 5.9196Z" fill="#DDBF6B"/>
<path d="M4.1098 5.98718C4.06926 5.98718 4.08277 5.96015 4.08277 5.96015L4.1098 5.9196C4.1098 5.9196 4.1098 5.90609 4.13683 5.89257C4.13683 5.89257 4.15035 5.89257 4.16386 5.89257C4.17738 5.89257 4.19089 5.89257 4.20441 5.90609C4.21792 5.9196 4.21792 5.93312 4.20441 5.94663C4.20441 5.96015 4.19089 5.97366 4.16386 5.97366H4.15035C4.13683 5.98718 4.12332 5.98718 4.1098 5.98718ZM4.08277 5.96015C4.08277 5.96015 4.08277 5.97366 4.09629 5.97366C4.09629 5.97366 4.09629 5.97366 4.1098 5.97366C4.12332 5.97366 4.13683 5.97366 4.15035 5.96015H4.16386C4.19089 5.96015 4.19089 5.94663 4.20441 5.93312C4.20441 5.9196 4.20441 5.90609 4.20441 5.89257C4.20441 5.87906 4.19089 5.87906 4.17738 5.87906C4.16386 5.87906 4.16386 5.87906 4.15035 5.87906C4.13683 5.89257 4.12332 5.90609 4.12332 5.90609L4.08277 5.96015Z" fill="#9B7645"/>
<path fill-rule="evenodd" clip-rule="evenodd" d="M4.59945 5.91984C4.59945 5.91984 4.54508 6.05577 4.5043 6.15093C4.46352 6.24608 4.43633 6.27327 4.42274 6.27327C4.09649 6.40921 3.56634 6.43639 3.41681 6.40921C3.28088 6.38202 3.2401 6.34124 3.21291 6.31405C3.18572 6.28686 3.14494 6.23249 3.19932 6.15093C3.2265 6.09655 3.30807 5.97421 3.36244 5.91984C3.33525 6.02859 3.47119 6.15093 3.52556 6.15093C4.0693 6.2189 4.59945 5.91984 4.59945 5.91984Z" fill="#CE0000"/>
<path fill-rule="evenodd" clip-rule="evenodd" d="M3.63432 6.15093C3.60713 6.15093 3.56635 6.15093 3.53917 6.13733C3.48479 6.13733 3.34886 6.01499 3.38964 5.90624C3.33526 5.93343 3.24011 6.08296 3.21292 6.13733C3.18573 6.19171 3.21292 6.25968 3.24011 6.28686C3.2673 6.32764 3.30808 6.35483 3.44401 6.38202C3.52557 6.39561 3.71588 6.39561 3.93338 6.36842C3.75666 6.38202 3.63432 6.25967 3.63432 6.15093Z" fill="#B50000"/>
<path d="M3.59353 6.4228C3.52556 6.4228 3.45759 6.4228 3.41681 6.4092C3.29447 6.38202 3.2401 6.35483 3.21291 6.31405C3.18572 6.28686 3.14494 6.23249 3.19932 6.13733C3.2265 6.09655 3.29447 5.97421 3.36244 5.90624L3.37603 5.89265V5.90624C3.36244 5.94702 3.38963 6.0014 3.40322 6.02858C3.444 6.08296 3.49838 6.13733 3.52556 6.13733C3.57994 6.15093 3.6479 6.15093 3.70228 6.15093C4.16446 6.15093 4.58586 5.91984 4.58586 5.91984H4.59945V5.93343C4.59945 5.93343 4.54508 6.06937 4.5043 6.16452C4.47711 6.24608 4.44992 6.28686 4.42274 6.28686C4.19165 6.36842 3.82462 6.4228 3.59353 6.4228ZM3.36244 5.91984C3.30807 5.97421 3.2401 6.09655 3.21291 6.13733C3.17213 6.21889 3.19932 6.27327 3.22651 6.30046C3.25369 6.32764 3.28088 6.36842 3.43041 6.39561C3.47119 6.4092 3.52556 6.4092 3.59353 6.4092C3.82462 6.4092 4.17805 6.36842 4.42274 6.27327C4.44992 6.25967 4.46352 6.21889 4.4907 6.15093C4.51789 6.06936 4.55867 5.96062 4.57226 5.93343C4.5043 5.97421 4.12368 6.16452 3.70228 6.16452C3.63431 6.16452 3.57994 6.16452 3.52556 6.15093C3.49838 6.15093 3.43041 6.09655 3.38963 6.04218C3.37603 6.0014 3.36244 5.96062 3.36244 5.91984Z" fill="#870014"/>
<path fill-rule="evenodd" clip-rule="evenodd" d="M3.85183 5.90624C3.87901 5.90624 3.9062 5.96062 3.93339 5.94702C3.98776 5.93343 3.96057 5.86546 4.02854 5.85187C4.08292 5.83827 4.20526 5.83827 4.25963 5.83827C4.34119 5.83827 4.42275 5.85187 4.49072 5.91983C4.5315 5.83827 4.47713 5.81109 4.42275 5.7839C4.35479 5.75671 4.25963 5.74312 4.19166 5.75671C4.09651 5.77031 4.04214 5.7839 4.00135 5.79749C3.96057 5.82468 3.98776 5.87906 3.93339 5.87906C3.9062 5.87906 3.89261 5.82468 3.85183 5.82468C3.77027 5.83827 3.53917 5.87905 3.49839 5.93343C3.47121 5.96062 3.47121 5.9878 3.51199 6.04218C3.51199 6.04218 3.51199 6.04218 3.52558 6.05577C3.49839 5.94702 3.75667 5.87905 3.85183 5.90624Z" fill="#CE0000"/>
<path fill-rule="evenodd" clip-rule="evenodd" d="M3.9736 5.94687C3.9736 5.94687 3.9736 5.93335 3.9736 5.91984C3.96009 5.94687 3.94657 5.98741 3.91954 6.01444C3.90603 6.02796 3.89251 6.05499 3.879 6.0685C3.93306 6.05499 3.98712 6.05498 4.02766 6.04147C4.0682 6.04147 3.98712 6.00093 3.9736 5.94687Z" fill="#CE0000"/>
<path fill-rule="evenodd" clip-rule="evenodd" d="M3.82463 6.24608C3.82463 6.24608 4.04213 6.23249 4.21884 6.19171C4.3004 6.16452 4.38197 6.13734 4.49071 6.08296C4.49071 6.09656 4.46353 6.17812 4.42275 6.2053C4.34119 6.27327 3.98775 6.32765 3.93338 6.32765C3.879 6.34124 3.82463 6.24608 3.82463 6.24608Z" fill="#E51100"/>
<path d="M4.06901 5.87895C4.08252 5.86543 4.12307 5.85192 4.13658 5.86543C4.15009 5.87895 4.16361 5.89246 4.16361 5.90597C4.16361 5.933 4.15009 5.933 4.13658 5.94652C4.12307 5.96003 4.06901 5.97355 4.06901 5.96003L4.04198 5.94652C4.04198 5.94652 4.04198 5.90597 4.06901 5.87895Z" fill="#FCF5A7"/>
<path d="M4.05548 5.97355C4.05548 5.97355 4.02845 5.97355 4.01494 5.96003C4.01494 5.96003 4.04197 5.89246 4.069 5.87895C4.08251 5.86543 4.09603 5.86543 4.10954 5.86543C4.12305 5.86543 4.12306 5.86543 4.12306 5.86543C4.13657 5.87895 4.15008 5.89246 4.15008 5.90597C4.15008 5.933 4.13657 5.94652 4.10954 5.94652C4.10954 5.96003 4.05548 5.97355 4.05548 5.97355ZM4.02845 5.96003C4.04197 5.96003 4.05548 5.97355 4.05548 5.97355C4.05548 5.97355 4.10954 5.96003 4.12306 5.96003C4.13657 5.94652 4.15008 5.94652 4.15008 5.91949C4.15008 5.89246 4.13657 5.89246 4.12306 5.87895H4.10954C4.09603 5.87895 4.08251 5.87895 4.069 5.89246C4.04197 5.89246 4.02845 5.94652 4.02845 5.96003Z" fill="#9B7645"/>
<path d="M3.8919 5.86523C3.8919 5.86523 3.87839 5.91929 3.86488 5.9328C3.85136 5.94632 3.85136 5.95983 3.82433 5.94632C3.7973 5.94632 3.78379 5.94632 3.78379 5.9328C3.77027 5.91929 3.77027 5.89226 3.78379 5.87874C3.7973 5.86523 3.81082 5.85171 3.82433 5.8382C3.83785 5.82468 3.87839 5.82468 3.87839 5.82468L3.8919 5.86523Z" fill="#FCF5A7"/>
<path d="M3.83785 5.94632C3.83785 5.94632 3.82433 5.94632 3.83785 5.94632C3.82433 5.94632 3.82433 5.94632 3.82433 5.94632C3.81082 5.94632 3.7973 5.94632 3.78379 5.9328C3.77027 5.91929 3.77027 5.89226 3.78379 5.87874C3.78379 5.87874 3.78379 5.87874 3.78379 5.86523C3.7973 5.85171 3.7973 5.8382 3.81082 5.8382C3.82433 5.82468 3.86488 5.82468 3.86488 5.82468L3.87839 5.86523C3.87839 5.86523 3.86488 5.91929 3.85136 5.9328C3.85136 5.9328 3.85136 5.94632 3.83785 5.94632ZM3.87839 5.82468C3.86487 5.82468 3.83785 5.8382 3.82433 5.8382C3.81082 5.8382 3.81082 5.85171 3.7973 5.86523C3.78379 5.87874 3.78379 5.90577 3.7973 5.91929C3.7973 5.9328 3.81082 5.9328 3.82433 5.9328H3.83785C3.85136 5.9328 3.86488 5.9328 3.86488 5.91929C3.87839 5.90577 3.87839 5.86523 3.8919 5.85171L3.87839 5.82468Z" fill="#9B7645"/>
<path d="M3.8921 5.85187C3.8921 5.85187 3.87858 5.86538 3.86507 5.86538C3.85155 5.86538 3.83804 5.86538 3.83804 5.86538C3.83804 5.86538 3.82452 5.8789 3.82452 5.90592C3.82452 5.91944 3.82452 5.93296 3.83804 5.94647C3.85155 5.95998 3.85155 5.95998 3.86507 5.95998C3.87858 5.95998 3.8921 5.95998 3.8921 5.94647C3.8921 5.93296 3.90561 5.91944 3.90561 5.90592C3.90561 5.89241 3.90561 5.89241 3.90561 5.8789C3.90561 5.86538 3.91913 5.85187 3.91913 5.85187H3.8921Z" fill="#FCF5A7"/>
<path d="M3.85156 5.9735C3.83805 5.9735 3.83805 5.9735 3.82453 5.95999C3.81102 5.94647 3.81102 5.93296 3.81102 5.91944C3.81102 5.90593 3.82453 5.89242 3.82453 5.89242C3.82453 5.89242 3.83805 5.89242 3.85156 5.8789C3.86508 5.8789 3.87859 5.86539 3.87859 5.86539L3.89211 5.8789C3.89211 5.8789 3.89211 5.89241 3.87859 5.90593C3.87859 5.91944 3.87859 5.91944 3.87859 5.91944C3.87859 5.93296 3.87859 5.93296 3.86508 5.94647V5.95999C3.89211 5.9735 3.87859 5.9735 3.85156 5.9735C3.86508 5.9735 3.86508 5.9735 3.85156 5.9735C3.86508 5.9735 3.86508 5.9735 3.85156 5.9735ZM3.89211 5.86539L3.86508 5.8789C3.85157 5.8789 3.85156 5.8789 3.83805 5.8789C3.83805 5.8789 3.82453 5.89241 3.82453 5.90593C3.82453 5.91944 3.82454 5.93296 3.83805 5.94647C3.85156 5.95999 3.85157 5.95999 3.86508 5.95999C3.87859 5.95999 3.87859 5.95999 3.89211 5.94647V5.93296C3.89211 5.91944 3.90562 5.91944 3.90562 5.90593V5.89242C3.90562 5.8789 3.91914 5.8789 3.91914 5.86539H3.89211Z" fill="#9B7645"/>
<path d="M3.97357 6.02819C3.97357 6.02819 3.96005 6.0417 3.94654 6.05522C3.91951 6.05522 3.89248 6.05522 3.89248 6.02819C3.89248 6.01467 3.87897 6.00116 3.89248 5.98765C3.906 5.97413 3.906 5.96062 3.93302 5.96062C3.96005 5.96062 3.96005 5.96062 3.98708 5.96062C4.01411 5.97413 4.01411 5.98765 4.01411 5.98765L3.97357 6.02819Z" fill="#FCF5A7"/>
<path d="M3.91952 6.05522C3.90601 6.05522 3.87898 6.0417 3.87898 6.02819C3.87898 6.01467 3.86546 6.00116 3.87898 5.98765C3.89249 5.97413 3.89249 5.96062 3.91952 5.96062C3.93304 5.96062 3.93304 5.96062 3.93304 5.96062C3.94655 5.96062 3.94655 5.96062 3.97358 5.97413C4.00061 5.98765 4.00061 6.00116 4.00061 6.00116L3.97358 6.02819C3.97358 6.02819 3.96007 6.05522 3.91952 6.05522C3.93304 6.05522 3.93304 6.05522 3.91952 6.05522ZM3.94655 5.97413H3.93304C3.90601 5.97413 3.90601 5.98765 3.89249 6.00116C3.87898 6.01468 3.89249 6.02819 3.89249 6.0417C3.89249 6.05522 3.91952 6.06873 3.93304 6.06873H3.94655C3.97358 6.06873 3.97358 6.0417 3.97358 6.0417L4.00061 6.01468C4.00061 6.01468 4.00061 6.00116 3.97358 5.98765C3.96007 5.97413 3.94655 5.97413 3.94655 5.97413Z" fill="#9B7645"/>
<path d="M4.00107 5.79742C4.00107 5.79742 4.01459 5.7839 4.04162 5.79742C4.06865 5.81093 4.08216 5.83796 4.08216 5.85148C4.08216 5.86499 4.08216 5.87851 4.06865 5.87851C4.05513 5.87851 4.04162 5.89202 4.0281 5.87851C4.00107 5.86499 4.00107 5.86499 3.98756 5.83796C3.97404 5.82445 3.98756 5.79742 3.98756 5.79742H4.00107Z" fill="#FCF5A7"/>
<path d="M4.04161 5.87851C4.02809 5.87851 4.02809 5.87851 4.01458 5.86499C3.98755 5.85148 3.98755 5.85148 3.97403 5.82445C3.96052 5.79742 3.97403 5.78391 3.97403 5.78391H4.01458H4.02809H4.04161C4.06864 5.79742 4.08215 5.82445 4.08215 5.83796C4.08215 5.85148 4.06864 5.86499 4.06864 5.87851C4.05512 5.87851 4.04161 5.87851 4.04161 5.87851ZM3.96052 5.79742C3.96052 5.79742 3.94701 5.81093 3.96052 5.83796C3.97403 5.85148 3.98755 5.86499 4.00106 5.87851C4.01458 5.87851 4.01458 5.89202 4.02809 5.89202H4.04161C4.05512 5.89202 4.05512 5.87851 4.05512 5.86499C4.05512 5.85148 4.04161 5.82445 4.01458 5.81093H4.00106C3.98755 5.81093 3.98755 5.81093 3.98755 5.81093L3.96052 5.79742Z" fill="#9B7645"/>
<path fill-rule="evenodd" clip-rule="evenodd" d="M4.58507 5.82468C4.57148 5.7839 4.47632 5.67516 4.29961 5.67516C4.0957 5.67516 3.70149 5.77031 3.51118 5.82468C3.40243 5.85187 3.29368 5.94703 3.30728 6.0014C3.32087 6.09655 3.42962 6.15093 3.56555 6.16452C3.6743 6.17811 3.87821 6.16452 3.97336 6.15093C4.1093 6.13733 4.32679 6.08296 4.38117 6.06937C4.63944 5.96062 4.59866 5.89265 4.58507 5.82468ZM4.44913 5.93343C4.36757 6.01499 4.3132 6.01499 4.17726 6.0014C4.04133 6.0014 4.05492 5.94702 4.02773 5.93343C4.00055 5.91984 3.94617 5.91984 3.95977 5.94702C3.98695 6.0014 4.05492 6.02859 4.02773 6.04218C3.93258 6.06937 3.71508 6.09655 3.6879 6.09655C3.63352 6.11015 3.52477 6.08296 3.48399 6.04218C3.44321 5.98781 3.45681 5.96062 3.4704 5.93343C3.51118 5.87906 3.74227 5.83828 3.82383 5.82468C3.87821 5.81109 3.87821 5.87906 3.90539 5.87906C3.95977 5.86546 3.93258 5.81109 3.97336 5.7975C4.01414 5.7839 4.08211 5.75672 4.16367 5.75672C4.24523 5.74312 4.34039 5.75672 4.39476 5.7839C4.48991 5.7975 4.5307 5.85187 4.44913 5.93343Z" fill="#F41D00"/>
<path d="M3.67421 6.17812C3.63343 6.17812 3.60625 6.17812 3.57906 6.17812C3.47031 6.16452 3.33437 6.11015 3.32078 6.0014C3.30719 5.93343 3.41594 5.85187 3.52468 5.82468C3.72859 5.77031 4.10921 5.67516 4.31311 5.67516C4.48983 5.67516 4.58498 5.7839 4.59857 5.83828V5.85187C4.61217 5.90624 4.63935 5.98781 4.38108 6.08296C4.3267 6.11015 4.10921 6.16452 3.97327 6.16452C3.94608 6.16452 3.9189 6.16452 3.89171 6.16452C3.83734 6.17811 3.74218 6.17812 3.67421 6.17812ZM4.29952 5.67516C4.09561 5.67516 3.72859 5.77031 3.52468 5.82468C3.40234 5.85187 3.32078 5.94703 3.32078 6.0014C3.33437 6.09656 3.45672 6.15093 3.56546 6.16452C3.59265 6.16452 3.61984 6.16452 3.66062 6.16452C3.74218 6.16452 3.82374 6.15093 3.89171 6.15093C3.9189 6.15093 3.94608 6.15093 3.97327 6.15093C4.10921 6.13733 4.3267 6.08296 4.36748 6.06937C4.61217 5.97421 4.58498 5.90624 4.57139 5.83828V5.82468C4.57139 5.7839 4.47623 5.68875 4.29952 5.67516ZM3.66062 6.11015C3.60624 6.11015 3.51109 6.09655 3.4839 6.04218C3.44312 5.98781 3.45672 5.96062 3.47031 5.93343C3.51109 5.87906 3.67421 5.85187 3.78296 5.83828C3.79655 5.83828 3.82374 5.83828 3.83734 5.82468H3.85093C3.87812 5.82468 3.89171 5.83828 3.89171 5.85187C3.9053 5.86546 3.9053 5.87906 3.9189 5.86546C3.94608 5.86546 3.94608 5.85187 3.94608 5.82468C3.94608 5.81109 3.95968 5.7839 3.97327 5.7839C4.01405 5.75672 4.06843 5.75672 4.17717 5.74312C4.20436 5.74312 4.23155 5.74312 4.25874 5.74312C4.3267 5.74312 4.38108 5.75672 4.42186 5.77031C4.47623 5.7975 4.50342 5.82468 4.50342 5.85187C4.50342 5.87906 4.48982 5.90624 4.46264 5.94702C4.40826 6.0014 4.35389 6.02859 4.27233 6.02859C4.24514 6.02859 4.21795 6.02859 4.19077 6.02859C4.09561 6.02859 4.06842 6.0014 4.05483 5.97421C4.05483 5.96062 4.04124 5.96062 4.04124 5.96062C4.02764 5.96062 4.01405 5.94702 4.00046 5.94702H3.98686V5.96062C4.00046 5.98781 4.02764 6.01499 4.04124 6.02859C4.05483 6.04218 4.06843 6.05577 4.06843 6.05577C4.06843 6.05577 4.06842 6.05577 4.05483 6.06937C3.97327 6.09655 3.82374 6.11015 3.74218 6.12374C3.72859 6.12374 3.71499 6.12374 3.7014 6.12374C3.68781 6.11015 3.67421 6.11015 3.66062 6.11015ZM3.83734 5.83828C3.81015 5.83828 3.79655 5.85187 3.78296 5.85187C3.68781 5.86546 3.52468 5.90624 3.4839 5.94702C3.45672 5.97421 3.45672 6.0014 3.4975 6.05577C3.52468 6.09655 3.60625 6.11015 3.67421 6.11015C3.68781 6.11015 3.68781 6.11015 3.7014 6.11015C3.7014 6.11015 3.71499 6.11015 3.74218 6.11015C3.81015 6.11015 3.97327 6.08296 4.04124 6.05577C4.04124 6.05577 4.02765 6.04218 4.02765 6.02859C4.01405 6.01499 3.98686 5.98781 3.97327 5.96062C3.97327 5.94703 3.97327 5.94702 3.97327 5.93343C3.97327 5.93343 3.98686 5.91984 4.00046 5.91984C4.01405 5.91984 4.02764 5.91984 4.04124 5.93343C4.05483 5.93343 4.05483 5.94702 4.06843 5.94702C4.08202 5.96062 4.10921 5.98781 4.19077 6.0014C4.21795 6.0014 4.24514 6.0014 4.27233 6.0014C4.35389 6.0014 4.39467 5.9878 4.46264 5.91984C4.48982 5.89265 4.50342 5.86546 4.50342 5.83828C4.50342 5.81109 4.47623 5.7839 4.42186 5.77031C4.38108 5.75672 4.3267 5.74312 4.25874 5.74312C4.23155 5.74312 4.20436 5.74312 4.17717 5.74312C4.08202 5.75672 4.02764 5.77031 3.98686 5.7839C3.97327 5.7975 3.95968 5.81109 3.95968 5.82468C3.95968 5.83828 3.94608 5.86546 3.9189 5.86546C3.9053 5.86546 3.89171 5.85187 3.87812 5.83828C3.87812 5.85187 3.86452 5.83828 3.83734 5.83828Z" fill="#AF0000"/>
<path fill-rule="evenodd" clip-rule="evenodd" d="M4.46352 5.74312C4.36837 5.70234 4.25962 5.68875 4.11009 5.71593C3.89259 5.75671 3.64791 5.82468 3.56635 5.83828C3.48479 5.86546 3.43041 5.89265 3.41682 5.91984C3.33526 6.0014 3.38963 6.05577 3.44401 6.09655C3.48479 6.12374 3.55276 6.15093 3.64791 6.15093C3.75666 6.15093 3.93337 6.13734 4.00134 6.12374C4.05572 6.11015 4.0829 6.11015 4.19165 6.08296C4.28681 6.06937 4.40915 6.02859 4.46352 6.0014C4.5043 5.97421 4.55868 5.91984 4.57227 5.86546C4.57227 5.81109 4.53149 5.77031 4.46352 5.74312ZM4.44993 5.96062C4.36837 6.01499 4.32759 6.02858 4.27321 6.02858C4.17806 6.04218 4.11009 6.01499 4.0965 6.01499C4.0829 6.01499 4.04212 5.94702 4.02853 5.97421C4.01494 5.98781 4.06931 6.02859 4.05572 6.05577C4.04212 6.08296 3.98775 6.09655 3.91978 6.11015C3.83822 6.11015 3.71588 6.15093 3.56635 6.12374C3.51198 6.11015 3.44401 6.06937 3.43041 6.04218C3.37604 5.9878 3.41682 5.94702 3.44401 5.91984C3.48479 5.87906 3.53916 5.86546 3.60713 5.85187C3.6615 5.83828 3.72947 5.82468 3.77025 5.81109C3.81103 5.79749 3.85181 5.79749 3.879 5.81109L3.90619 5.83828C3.91978 5.82468 3.91978 5.7839 3.94697 5.77031C3.97416 5.75672 4.0829 5.72953 4.15087 5.72953C4.21884 5.72953 4.27321 5.71593 4.35477 5.72953C4.43634 5.74312 4.49071 5.77031 4.5043 5.82468C4.53149 5.83828 4.53149 5.90624 4.44993 5.96062Z" fill="#FF2F1F"/>
<path d="M3.1856 5.85166C3.1856 5.85166 3.1856 5.83814 3.21263 5.82463C3.23966 5.81111 3.26669 5.81111 3.26669 5.82463C3.2802 5.83814 3.2802 5.85166 3.2802 5.86517C3.2802 5.87869 3.26669 5.8922 3.25317 5.8922C3.22614 5.90572 3.21263 5.90571 3.1856 5.90571C3.15857 5.90571 3.15857 5.8922 3.15857 5.8922L3.1856 5.85166Z" fill="#DDBF6B"/>
<path d="M3.1856 5.91923C3.17208 5.91923 3.17208 5.91923 3.15857 5.91923V5.90571L3.1856 5.86517C3.1856 5.86517 3.1856 5.85166 3.21263 5.83814C3.22614 5.83814 3.22614 5.82463 3.23966 5.82463C3.25317 5.82463 3.26669 5.82463 3.26669 5.83814C3.2802 5.85166 3.2802 5.86517 3.2802 5.87869C3.2802 5.8922 3.26669 5.90571 3.23966 5.90571H3.22614C3.21263 5.90571 3.19911 5.91923 3.1856 5.91923ZM3.15857 5.90571C3.15857 5.91923 3.17208 5.91923 3.17208 5.91923C3.1856 5.91923 3.19911 5.91923 3.21263 5.90571H3.22614C3.25317 5.8922 3.25317 5.8922 3.25317 5.87869C3.25317 5.86517 3.25317 5.85166 3.23966 5.85166C3.23966 5.85166 3.22614 5.83814 3.21263 5.83814C3.19911 5.83814 3.1856 5.83814 3.1856 5.85166C3.17208 5.86517 3.15857 5.87869 3.15857 5.87869V5.90571Z" fill="#9B7645"/>
<path fill-rule="evenodd" clip-rule="evenodd" d="M3.67513 5.78391C3.67513 5.78391 3.63435 5.91984 3.60716 6.015C3.57997 6.11015 3.55279 6.13733 3.53919 6.13733C3.21295 6.31405 2.6828 6.40921 2.53327 6.39561C2.38374 6.38202 2.34296 6.35483 2.31577 6.32765C2.28859 6.30046 2.23421 6.25968 2.27499 6.16452C2.30218 6.11015 2.35655 5.98781 2.41093 5.93343C2.39734 6.04218 2.54686 6.13733 2.60124 6.13733C3.17217 6.15093 3.67513 5.78391 3.67513 5.78391Z" fill="#CE0000"/>
<path fill-rule="evenodd" clip-rule="evenodd" d="M2.70998 6.13734C2.68279 6.13734 2.64201 6.13734 2.60123 6.13734C2.54686 6.13734 2.39733 6.04218 2.41092 5.94703C2.35655 5.97422 2.28858 6.13734 2.26139 6.19171C2.2342 6.24609 2.27499 6.30046 2.30217 6.32765C2.32936 6.35484 2.38373 6.38202 2.51967 6.39562C2.60123 6.40921 2.80513 6.38202 3.02263 6.32765C2.8731 6.34124 2.73717 6.24609 2.70998 6.13734Z" fill="#B50000"/>
<path d="M2.56046 6.40921C2.54686 6.40921 2.53327 6.40921 2.53327 6.40921C2.39734 6.39561 2.34296 6.38202 2.31577 6.34124C2.28859 6.31405 2.23421 6.27327 2.27499 6.17812C2.28859 6.13734 2.35655 6.0014 2.41093 5.94703L2.42452 5.93343V5.94703C2.42452 5.98781 2.43812 6.02859 2.4653 6.04218C2.50608 6.09655 2.58765 6.13733 2.61483 6.13733C3.17217 6.13733 3.67513 5.78391 3.67513 5.78391H3.68872V5.7975C3.68872 5.7975 3.64794 5.93343 3.62075 6.02859C3.59357 6.11015 3.57997 6.15093 3.55279 6.16452C3.25373 6.30046 2.76436 6.40921 2.56046 6.40921ZM2.41093 5.96062C2.35655 6.02859 2.30218 6.15093 2.28859 6.19171C2.24781 6.27327 2.28859 6.31405 2.31577 6.34124C2.34296 6.36843 2.38374 6.39561 2.53327 6.40921C2.54686 6.40921 2.54686 6.40921 2.56046 6.40921C2.75077 6.40921 3.24013 6.30046 3.53919 6.15093C3.56638 6.13734 3.57997 6.09655 3.59357 6.02859C3.62075 5.94703 3.64794 5.83828 3.66153 5.81109C3.59357 5.86546 3.11779 6.16452 2.60124 6.16452C2.56046 6.16452 2.49249 6.12374 2.43812 6.06937C2.42452 6.02859 2.41093 5.98781 2.41093 5.96062Z" fill="#870014"/>
<path fill-rule="evenodd" clip-rule="evenodd" d="M2.90029 5.87906C2.94107 5.87906 2.95466 5.91984 2.99544 5.90624C3.04982 5.87906 3.00903 5.82468 3.077 5.79749C3.13138 5.7839 3.25372 5.75672 3.30809 5.74312C3.38965 5.72953 3.48481 5.74312 3.55278 5.79749C3.59356 5.71593 3.52559 5.68875 3.47121 5.67516C3.40325 5.66156 3.30809 5.66156 3.22653 5.68875C3.13138 5.71593 3.077 5.72953 3.03622 5.75672C2.99544 5.7839 3.02263 5.83828 2.98185 5.85187C2.95466 5.86546 2.94107 5.7975 2.88669 5.82468C2.80513 5.85187 2.57404 5.90624 2.53326 5.97421C2.51967 6.0014 2.50607 6.02859 2.56045 6.08296C2.56045 6.08296 2.56045 6.08296 2.57404 6.09655C2.56045 5.96062 2.80513 5.86546 2.90029 5.87906Z" fill="#CE0000"/>
<path fill-rule="evenodd" clip-rule="evenodd" d="M3.03584 5.90617V5.89266C3.02232 5.9332 3.00881 5.96023 2.99529 5.98726C2.99529 6.00077 2.98178 6.0278 2.96826 6.04132C3.02232 6.0278 3.07638 6.01429 3.11692 5.98726C3.14395 5.97375 3.06286 5.96023 3.03584 5.90617Z" fill="#CE0000"/>
<path fill-rule="evenodd" clip-rule="evenodd" d="M2.92747 6.19171C2.92747 6.19171 3.14497 6.15093 3.33528 6.08297C3.41684 6.05578 3.4984 6.015 3.60715 5.94703C3.60715 5.97422 3.57996 6.04218 3.55278 6.06937C3.47122 6.15093 3.13138 6.24609 3.06341 6.25968C2.98185 6.28687 2.92747 6.19171 2.92747 6.19171Z" fill="#E51100"/>
<path d="M3.13113 5.82453C3.14465 5.81101 3.17168 5.7975 3.19871 5.81101C3.21222 5.82452 3.22574 5.82453 3.22574 5.85155C3.22574 5.87858 3.21222 5.87859 3.19871 5.8921C3.18519 5.90561 3.13113 5.91913 3.13113 5.91913H3.09059C3.09059 5.91913 3.10411 5.83804 3.13113 5.82453Z" fill="#FCF5A7"/>
<path d="M3.13113 5.91913C3.13113 5.91913 3.10411 5.91913 3.09059 5.91913C3.09059 5.91913 3.10411 5.85156 3.13113 5.82453C3.14465 5.81101 3.15817 5.7975 3.18519 5.7975H3.19871C3.21222 5.81101 3.22574 5.81101 3.22574 5.83804C3.22574 5.86507 3.21222 5.87859 3.19871 5.87859C3.18519 5.8921 3.13113 5.91913 3.13113 5.91913ZM3.09059 5.90561C3.10411 5.90561 3.11762 5.90561 3.11762 5.90561C3.11762 5.90561 3.17168 5.8921 3.18519 5.87859C3.19871 5.86507 3.21222 5.85156 3.21222 5.83804C3.21222 5.81101 3.19871 5.81101 3.18519 5.7975H3.17168C3.15817 5.7975 3.13114 5.81101 3.11762 5.81101C3.11762 5.83804 3.10411 5.8921 3.09059 5.90561Z" fill="#9B7645"/>
<path d="M2.94038 5.82453C2.94038 5.82453 2.92687 5.87859 2.92687 5.8921C2.91335 5.90562 2.91335 5.91913 2.88632 5.91913C2.85929 5.91913 2.84578 5.91913 2.83226 5.91913C2.81875 5.90561 2.81875 5.8921 2.83226 5.86507C2.84578 5.85156 2.84578 5.83804 2.85929 5.82453C2.87281 5.81101 2.91335 5.7975 2.91335 5.7975L2.94038 5.82453Z" fill="#FCF5A7"/>
<path d="M2.85929 5.91913C2.84578 5.91913 2.84578 5.91913 2.83226 5.90561C2.81875 5.8921 2.81875 5.86507 2.83226 5.85156C2.84578 5.83804 2.84578 5.82453 2.85929 5.82453C2.87281 5.81101 2.91335 5.7975 2.91335 5.7975L2.92687 5.83804C2.92687 5.83804 2.91335 5.8921 2.91335 5.90561C2.91335 5.91913 2.89984 5.91913 2.88632 5.93264H2.87281C2.87281 5.91913 2.87281 5.91913 2.85929 5.91913ZM2.92687 5.7975C2.91335 5.7975 2.88632 5.81101 2.87281 5.82453C2.85929 5.83804 2.85929 5.83804 2.84578 5.85156C2.84578 5.85156 2.84578 5.85156 2.84578 5.86507C2.83226 5.87859 2.83226 5.90561 2.84578 5.91913H2.85929H2.87281H2.88632C2.89984 5.91913 2.91335 5.90561 2.91335 5.90561C2.91335 5.8921 2.92687 5.85156 2.92687 5.83804V5.7975Z" fill="#9B7645"/>
<path d="M2.95428 5.82468C2.95428 5.82468 2.94076 5.8382 2.92725 5.8382C2.91373 5.8382 2.90022 5.8382 2.90022 5.85171C2.90022 5.85171 2.8867 5.86523 2.8867 5.89226C2.8867 5.90577 2.8867 5.91929 2.90022 5.9328C2.91373 5.94632 2.92725 5.94632 2.92725 5.94632C2.94076 5.94632 2.95428 5.94632 2.95428 5.91929C2.95428 5.90577 2.96779 5.89226 2.96779 5.87874C2.96779 5.86523 2.96779 5.86523 2.96779 5.85171C2.96779 5.8382 2.96779 5.82468 2.96779 5.82468H2.95428Z" fill="#FCF5A7"/>
<path d="M2.92725 5.94632C2.91373 5.94632 2.91373 5.94632 2.90022 5.9328C2.8867 5.91929 2.8867 5.90577 2.8867 5.89226C2.8867 5.87874 2.90022 5.86523 2.90022 5.85171C2.90022 5.85171 2.91373 5.8382 2.92725 5.8382C2.94076 5.8382 2.95428 5.82468 2.95428 5.82468L2.98131 5.8382C2.98131 5.8382 2.98131 5.85171 2.96779 5.86523C2.96779 5.87874 2.96779 5.87874 2.96779 5.87874C2.96779 5.89226 2.96779 5.89226 2.96779 5.90577V5.91929C2.95428 5.9328 2.94076 5.9328 2.92725 5.94632C2.92725 5.9328 2.92725 5.9328 2.92725 5.94632ZM2.95428 5.82468C2.95428 5.82468 2.94076 5.8382 2.92725 5.8382C2.91373 5.8382 2.91373 5.8382 2.90022 5.85171C2.90022 5.86523 2.8867 5.86523 2.8867 5.87874C2.8867 5.89226 2.8867 5.90577 2.90022 5.91929C2.91373 5.9328 2.91373 5.9328 2.92725 5.9328C2.94076 5.9328 2.94076 5.9328 2.95428 5.91929V5.90577C2.95428 5.89226 2.95428 5.89226 2.95428 5.87874V5.86523C2.95428 5.85171 2.95428 5.85171 2.96779 5.8382L2.95428 5.82468Z" fill="#9B7645"/>
<path d="M3.0492 5.9739C3.0492 5.9739 3.0492 5.98741 3.02217 6.00093C2.99514 6.01444 2.96811 6.00093 2.96811 5.98741C2.9546 5.9739 2.9546 5.96038 2.96811 5.94687C2.96811 5.93335 2.98163 5.91984 3.00866 5.91984C3.03569 5.91984 3.03569 5.91984 3.06272 5.91984C3.08975 5.91984 3.08975 5.94687 3.08975 5.94687L3.0492 5.9739Z" fill="#FCF5A7"/>
<path d="M2.99514 6.01444C2.98162 6.01444 2.95459 6.00093 2.95459 6.00093C2.94108 5.98741 2.94108 5.9739 2.95459 5.96038C2.95459 5.94687 2.96811 5.93335 2.99514 5.93335C3.00865 5.93335 3.02217 5.93335 3.02217 5.93335C3.02217 5.93335 3.03568 5.93335 3.0492 5.93335C3.07623 5.93335 3.07622 5.96038 3.07622 5.96038L3.0492 5.98741C3.0492 5.98741 3.03568 6.00093 3.02217 6.01444C3.00865 6.00093 3.00865 6.01444 2.99514 6.01444ZM3.02217 5.91984C3.00865 5.91984 3.00865 5.91984 2.99514 5.91984C2.96811 5.91984 2.96811 5.93335 2.95459 5.94687C2.95459 5.96038 2.95459 5.9739 2.95459 5.98741C2.95459 6.00093 2.98162 6.00093 2.99514 6.00093C3.00865 6.00093 3.00865 6.00093 3.02217 6.00093C3.0492 5.98741 3.0492 5.9739 3.0492 5.9739L3.07622 5.94687C3.07622 5.94687 3.07623 5.93335 3.0492 5.91984C3.03568 5.91984 3.02217 5.91984 3.02217 5.91984Z" fill="#9B7645"/>
<path d="M3.0495 5.74309C3.0495 5.74309 3.06301 5.72957 3.09004 5.74309C3.11707 5.74309 3.13059 5.77012 3.13059 5.78363C3.13059 5.79715 3.13059 5.81066 3.11707 5.82417C3.10356 5.82417 3.09004 5.83769 3.07653 5.82417C3.0495 5.81066 3.0495 5.81066 3.02247 5.79714C3.00896 5.78363 3.00896 5.7566 3.00896 5.7566L3.0495 5.74309Z" fill="#FCF5A7"/>
<path d="M3.09005 5.82417C3.09005 5.82417 3.07654 5.82417 3.06303 5.82417C3.036 5.81066 3.036 5.81066 3.00897 5.79714C2.99545 5.78363 2.99545 5.7566 2.99545 5.7566L3.036 5.74309C3.036 5.74309 3.04951 5.74309 3.06303 5.74309H3.07654C3.10357 5.74309 3.11708 5.77012 3.11708 5.78363C3.11708 5.79715 3.11708 5.81066 3.10357 5.82417C3.11708 5.82417 3.10357 5.82417 3.09005 5.82417ZM3.00897 5.7566C3.00897 5.7566 3.00897 5.77012 3.02248 5.78363C3.036 5.79715 3.04951 5.81066 3.07654 5.81066C3.09005 5.81066 3.09006 5.81066 3.10357 5.81066C3.11708 5.81066 3.11708 5.81066 3.1306 5.81066C3.14411 5.81066 3.14411 5.79715 3.14411 5.78363C3.14411 5.77012 3.1306 5.74309 3.10357 5.74309H3.09005C3.07654 5.74309 3.06303 5.74309 3.06303 5.74309L3.00897 5.7566Z" fill="#9B7645"/>
<path fill-rule="evenodd" clip-rule="evenodd" d="M3.66086 5.70229C3.64727 5.66151 3.53852 5.56636 3.34821 5.59354C3.13072 5.62073 2.7501 5.77026 2.55979 5.85182C2.45104 5.8926 2.35588 6.00135 2.36948 6.05572C2.39667 6.13728 2.51901 6.17806 2.65494 6.17806C2.77728 6.17806 2.96759 6.12369 3.07634 6.1101C3.21228 6.08291 3.42977 6.00135 3.47055 5.97416C3.72883 5.82463 3.68805 5.75666 3.66086 5.70229ZM3.53852 5.82463C3.47055 5.90619 3.41618 5.91979 3.26665 5.93338C3.13072 5.94697 3.13072 5.8926 3.10353 5.8926C3.07634 5.87901 3.02197 5.87901 3.03556 5.91979C3.06275 5.97416 3.14431 5.98776 3.11712 6.00135C3.02197 6.04213 2.80447 6.0965 2.77728 6.0965C2.72291 6.1101 2.60057 6.1101 2.55979 6.06932C2.50541 6.02854 2.51901 6.00135 2.5326 5.96057C2.57338 5.8926 2.80447 5.83823 2.88603 5.81104C2.94041 5.79745 2.954 5.85182 2.98119 5.83823C3.02197 5.82463 2.99478 5.77026 3.03556 5.74307C3.07634 5.71588 3.14431 5.70229 3.22587 5.67511C3.30743 5.64792 3.40259 5.64792 3.47055 5.66151C3.55212 5.6887 3.60649 5.72948 3.53852 5.82463Z" fill="#F41D00"/>
<path d="M2.65494 6.16452C2.5326 6.16452 2.39666 6.13734 2.36947 6.04218C2.35588 5.98781 2.45103 5.89265 2.55978 5.83828C2.76369 5.75672 3.14431 5.60719 3.34821 5.58C3.3618 5.58 3.38899 5.58 3.40258 5.58C3.55211 5.58 3.64727 5.64797 3.66086 5.68875V5.70234C3.68805 5.75672 3.71523 5.82469 3.47055 5.94703C3.41617 5.97422 3.19868 6.05578 3.06274 6.08296C3.03556 6.08296 3.00837 6.09656 2.98118 6.09656C2.88603 6.13734 2.75009 6.16452 2.65494 6.16452ZM3.40258 5.5936C3.38899 5.5936 3.3618 5.5936 3.34821 5.5936C3.14431 5.62078 2.76369 5.75672 2.55978 5.83828C2.43744 5.89265 2.35588 5.98781 2.36947 6.02859C2.39666 6.11015 2.5326 6.15093 2.64134 6.15093C2.7365 6.15093 2.87243 6.12374 2.98118 6.09656C3.00837 6.09656 3.03556 6.08296 3.06274 6.08296C3.19868 6.05578 3.41618 5.97422 3.45696 5.94703C3.68805 5.82469 3.66086 5.75672 3.64727 5.70234V5.68875C3.64727 5.67516 3.55211 5.5936 3.40258 5.5936ZM2.69572 6.09656C2.66853 6.09656 2.58697 6.09656 2.55978 6.05578C2.50541 6.0014 2.519 5.97422 2.5326 5.94703C2.55978 5.89265 2.7365 5.83828 2.83165 5.81109C2.84525 5.81109 2.87243 5.7975 2.88603 5.7975H2.89962C2.91322 5.7975 2.92681 5.81109 2.9404 5.82469C2.954 5.83828 2.95399 5.83828 2.96759 5.83828C2.99478 5.83828 2.99478 5.81109 2.99478 5.7975C2.99478 5.7839 2.99478 5.75672 3.02196 5.74313C3.06274 5.71594 3.11712 5.70235 3.21227 5.67516C3.26665 5.66157 3.32102 5.66156 3.3618 5.66156C3.40258 5.66156 3.42977 5.66157 3.45696 5.67516C3.51133 5.68875 3.53852 5.71594 3.55211 5.74313C3.5657 5.77031 3.55211 5.7975 3.52492 5.83828C3.45696 5.91984 3.40258 5.93343 3.25305 5.94703C3.23946 5.94703 3.22587 5.94703 3.21227 5.94703C3.1443 5.94703 3.11712 5.93343 3.10352 5.90625C3.08993 5.90625 3.08993 5.89266 3.07634 5.89266C3.06274 5.89266 3.04915 5.89266 3.03556 5.89266C3.02196 5.89266 3.00837 5.89265 3.00837 5.90625V5.91984C3.02196 5.94703 3.04915 5.96062 3.07634 5.97422C3.08993 5.98781 3.10352 5.98781 3.10352 6.0014C3.10352 6.0014 3.10352 6.0014 3.08993 6.015C3.00837 6.05578 2.85884 6.08296 2.77728 6.11015C2.76369 6.11015 2.75009 6.12375 2.7365 6.12375C2.75009 6.09656 2.7229 6.09656 2.69572 6.09656ZM2.89962 5.81109H2.88603C2.87243 5.81109 2.85884 5.82469 2.83165 5.82469C2.7365 5.85187 2.55978 5.90625 2.5326 5.96062C2.519 5.98781 2.50541 6.015 2.54619 6.05578C2.57338 6.08296 2.61416 6.08296 2.68212 6.08296C2.70931 6.08296 2.7365 6.08296 2.76369 6.06937C2.76369 6.06937 2.77728 6.06937 2.80447 6.05578C2.87243 6.04218 3.03556 6.0014 3.11712 5.96062C3.11712 5.96062 3.10352 5.94703 3.08993 5.94703C3.06274 5.93343 3.03556 5.91984 3.02196 5.89266C3.02196 5.87906 3.02196 5.87906 3.02196 5.86547C3.02196 5.85187 3.04915 5.85187 3.06274 5.85187C3.07634 5.85187 3.08993 5.85187 3.10352 5.85187C3.11712 5.85187 3.11712 5.86547 3.13071 5.86547C3.1443 5.87906 3.17149 5.89266 3.22587 5.89266C3.23946 5.89266 3.25305 5.89266 3.26665 5.89266C3.40258 5.87906 3.45696 5.86547 3.52492 5.78391C3.55211 5.75672 3.5657 5.71594 3.55211 5.70234C3.53852 5.67516 3.51133 5.66156 3.45696 5.64797C3.42977 5.63438 3.40258 5.63438 3.3618 5.63438C3.30743 5.63438 3.26665 5.63438 3.21227 5.64797C3.11712 5.67516 3.06274 5.68875 3.02196 5.71594C3.00837 5.72953 2.99478 5.74313 2.99478 5.75672C2.99478 5.77031 2.99478 5.7975 2.954 5.7975C2.954 5.7975 2.954 5.7975 2.9404 5.7975C2.92681 5.7975 2.91321 5.78391 2.91321 5.78391C2.92681 5.82469 2.91322 5.81109 2.89962 5.81109Z" fill="#AF0000"/>
<path fill-rule="evenodd" clip-rule="evenodd" d="M3.5256 5.63437C3.43044 5.60719 3.3081 5.60719 3.15857 5.66156C2.94108 5.72953 2.69639 5.82468 2.61483 5.85187C2.53327 5.87906 2.49249 5.91984 2.4653 5.94702C2.39733 6.04218 2.45171 6.08296 2.51968 6.11015C2.56046 6.13734 2.64202 6.13733 2.73717 6.13733C2.84592 6.12374 3.03623 6.08296 3.0906 6.05577C3.14498 6.04218 3.17217 6.02859 3.28091 6.0014C3.37607 5.97421 3.49841 5.91984 3.53919 5.89265C3.57997 5.85187 3.63435 5.81109 3.63435 5.75672C3.63435 5.68875 3.59357 5.64797 3.5256 5.63437ZM3.53919 5.85187C3.47122 5.91984 3.41685 5.93343 3.37607 5.94702C3.28091 5.97421 3.19935 5.96062 3.18576 5.96062C3.17217 5.96062 3.11779 5.90624 3.1042 5.91984C3.0906 5.93343 3.14498 5.97421 3.14498 5.98781C3.14498 6.01499 3.0906 6.04218 3.00904 6.05577C2.92748 6.06937 2.80514 6.12374 2.65561 6.11015C2.60124 6.11015 2.53327 6.06937 2.50608 6.05577C2.45171 6.0014 2.4789 5.96062 2.50608 5.93343C2.54686 5.89265 2.60124 5.87906 2.66921 5.85187C2.72358 5.83828 2.79155 5.81109 2.83233 5.79749C2.87311 5.7839 2.91389 5.77031 2.94108 5.7839C2.94108 5.7839 2.96826 5.81109 2.98186 5.79749C2.99545 5.7839 2.98186 5.74312 3.02264 5.72953C3.04982 5.70234 3.15857 5.67516 3.22654 5.66156C3.29451 5.64797 3.36248 5.63437 3.44404 5.63437C3.5256 5.63437 3.59357 5.66156 3.60716 5.70234C3.59357 5.71593 3.60716 5.7839 3.53919 5.85187Z" fill="#FF2F1F"/>
<path d="M2.38349 5.7429C2.38349 5.7429 2.38349 5.72939 2.397 5.71587C2.41051 5.70236 2.45106 5.70236 2.45106 5.71587C2.46457 5.72939 2.46457 5.72939 2.46457 5.7429C2.46457 5.75642 2.45106 5.76993 2.43754 5.78345C2.41052 5.79696 2.397 5.81048 2.36997 5.81048C2.34294 5.81048 2.34294 5.79696 2.34294 5.79696L2.38349 5.7429Z" fill="#DDBF6B"/>
<path d="M2.38348 5.81048C2.36996 5.81048 2.35645 5.79696 2.35645 5.79696L2.36996 5.75642C2.36996 5.75642 2.36996 5.7429 2.38348 5.72939C2.39699 5.71587 2.4105 5.71587 2.42402 5.71587C2.43753 5.71587 2.43753 5.71587 2.45105 5.72939C2.46456 5.7429 2.46456 5.75642 2.46456 5.76993C2.46456 5.78345 2.45105 5.79696 2.43753 5.81048C2.43753 5.81048 2.42402 5.81048 2.42402 5.82399C2.42402 5.79696 2.4105 5.79696 2.38348 5.81048ZM2.36996 5.79696C2.36996 5.79696 2.36996 5.81048 2.38348 5.81048C2.39699 5.81048 2.4105 5.79696 2.42402 5.79696C2.42402 5.79696 2.43753 5.79696 2.43753 5.78345C2.45105 5.76993 2.46456 5.75642 2.46456 5.7429C2.46456 5.72939 2.46456 5.72939 2.45105 5.71587C2.45105 5.71587 2.43753 5.71587 2.42402 5.71587C2.4105 5.71587 2.39699 5.71587 2.38348 5.72939C2.36996 5.7429 2.36996 5.75642 2.36996 5.75642V5.79696Z" fill="#9B7645"/>
<path fill-rule="evenodd" clip-rule="evenodd" d="M2.88635 5.59269C2.88635 5.59269 2.85916 5.72862 2.84557 5.82378C2.83198 5.91893 2.81838 5.94612 2.80479 5.95971C2.49214 6.17721 1.96199 6.36752 1.79887 6.38111C1.64934 6.3947 1.59497 6.38111 1.56778 6.35393C1.54059 6.32674 1.47262 6.29955 1.5134 6.2044C1.527 6.15002 1.58137 6.01409 1.62215 5.94612C1.62215 6.05487 1.79887 6.12284 1.85324 6.10924C2.42417 6.02768 2.88635 5.59269 2.88635 5.59269Z" fill="#CE0000"/>
<path fill-rule="evenodd" clip-rule="evenodd" d="M1.94872 6.09655C1.90794 6.11014 1.88075 6.11015 1.83997 6.11015C1.7856 6.12374 1.62247 6.05577 1.62247 5.94702C1.5681 5.9878 1.51373 6.15093 1.50013 6.21889C1.48654 6.27327 1.54091 6.32764 1.5681 6.35483C1.60888 6.38202 1.64966 6.39561 1.79919 6.38201C1.89434 6.36842 2.08465 6.31405 2.30215 6.23249C2.13903 6.27327 1.97591 6.19171 1.94872 6.09655Z" fill="#B50000"/>
<path d="M1.71731 6.3947C1.63575 6.3947 1.59497 6.38111 1.56778 6.36752C1.54059 6.34033 1.47262 6.31314 1.5134 6.21799C1.527 6.17721 1.56778 6.02768 1.62215 5.95971L1.63575 5.94612V5.95971C1.63575 5.9869 1.64934 6.01409 1.67653 6.04127C1.7309 6.09565 1.81246 6.12284 1.85324 6.12284C1.85324 6.12284 1.85324 6.12284 1.86684 6.12284C2.43776 6.02768 2.91354 5.60628 2.91354 5.60628L2.92713 5.59269V5.60628C2.92713 5.60628 2.89995 5.74222 2.88635 5.83737C2.87276 5.91893 2.85916 5.95971 2.83198 5.97331C2.51933 6.1908 1.98918 6.38111 1.82606 6.3947C1.77168 6.3947 1.74449 6.3947 1.71731 6.3947ZM1.60856 5.97331C1.56778 6.04127 1.527 6.17721 1.5134 6.21799C1.48622 6.31314 1.54059 6.34033 1.56778 6.36752C1.59497 6.38111 1.63575 6.3947 1.71731 6.3947C1.74449 6.3947 1.77168 6.3947 1.79887 6.3947C1.96199 6.38111 2.49214 6.1908 2.80479 5.97331C2.83198 5.95971 2.84557 5.91893 2.84557 5.83737C2.85916 5.75581 2.87276 5.64706 2.88635 5.60628C2.81838 5.66065 2.38339 6.04127 1.83965 6.12284C1.83965 6.12284 1.83965 6.12284 1.82606 6.12284C1.78528 6.12284 1.69012 6.09565 1.64934 6.04127C1.62215 6.01409 1.60856 5.9869 1.60856 5.97331Z" fill="#870014"/>
<path fill-rule="evenodd" clip-rule="evenodd" d="M2.09825 5.79749C2.13903 5.79749 2.16621 5.83827 2.1934 5.81108C2.23418 5.7839 2.1934 5.72952 2.26137 5.68874C2.31574 5.66156 2.43808 5.62078 2.49246 5.60718C2.57402 5.58 2.66917 5.58 2.75074 5.62078C2.77792 5.52562 2.70996 5.52562 2.64199 5.51203C2.57402 5.51203 2.46527 5.52562 2.38371 5.5664C2.28856 5.60718 2.23418 5.63437 2.1934 5.66156C2.15262 5.68874 2.1934 5.74312 2.15262 5.75671C2.12543 5.77031 2.09825 5.71593 2.05746 5.74312C1.9759 5.7839 1.75841 5.87905 1.71763 5.94702C1.70403 5.97421 1.69044 6.00139 1.75841 6.04217C1.75841 6.04217 1.75841 6.04217 1.772 6.04217C1.75841 5.94702 2.00309 5.81108 2.09825 5.79749Z" fill="#CE0000"/>
<path fill-rule="evenodd" clip-rule="evenodd" d="M2.23385 5.81101V5.79749C2.22034 5.83804 2.22034 5.86507 2.20682 5.90561C2.20682 5.93264 2.19331 5.94615 2.17979 5.95967C2.23385 5.93264 2.28791 5.90561 2.32846 5.87858C2.35549 5.86507 2.2744 5.86507 2.23385 5.81101Z" fill="#CE0000"/>
<path fill-rule="evenodd" clip-rule="evenodd" d="M2.16621 6.12374C2.16621 6.12374 2.38371 6.05577 2.56043 5.94702C2.64199 5.90624 2.72355 5.85187 2.8187 5.77031C2.8187 5.7975 2.80511 5.87906 2.79152 5.90624C2.72355 5.9878 2.37012 6.15093 2.31574 6.17811C2.24777 6.19171 2.16621 6.12374 2.16621 6.12374Z" fill="#E51100"/>
<path d="M2.32909 5.71578C2.34261 5.70226 2.36964 5.68875 2.39666 5.68875C2.41018 5.68875 2.4237 5.70226 2.43721 5.71578C2.43721 5.74281 2.42369 5.75632 2.41018 5.76984C2.39667 5.78335 2.34261 5.81038 2.34261 5.81038H2.30206C2.30206 5.81038 2.30206 5.74281 2.32909 5.71578Z" fill="#FCF5A7"/>
<path d="M2.28854 5.81038C2.28854 5.81038 2.28854 5.74281 2.31557 5.71578C2.32909 5.70226 2.35612 5.68875 2.36963 5.68875C2.36963 5.68875 2.36963 5.68875 2.38315 5.68875C2.39666 5.68875 2.41018 5.70226 2.42369 5.72929C2.42369 5.75632 2.41018 5.76984 2.39666 5.78335C2.38315 5.79687 2.32909 5.82389 2.32909 5.82389C2.32909 5.81038 2.30206 5.81038 2.28854 5.81038ZM2.38315 5.68875C2.36963 5.68875 2.3426 5.70226 2.32909 5.71578C2.30206 5.74281 2.30206 5.79686 2.30206 5.81038C2.31557 5.81038 2.32909 5.81038 2.32909 5.81038C2.32909 5.81038 2.38315 5.78335 2.39666 5.76984C2.41018 5.75632 2.42369 5.74281 2.42369 5.71578C2.42369 5.70226 2.41018 5.70226 2.38315 5.68875Z" fill="#9B7645"/>
<path d="M2.13835 5.75648C2.13835 5.75648 2.13835 5.81054 2.13835 5.82405C2.13835 5.83757 2.12483 5.85108 2.11132 5.85108C2.08429 5.85108 2.07077 5.8646 2.05726 5.85108C2.04374 5.83757 2.03023 5.82405 2.04375 5.79702C2.05726 5.78351 2.05726 5.76999 2.07077 5.75648C2.08429 5.74296 2.12483 5.71593 2.12483 5.71593L2.13835 5.75648Z" fill="#FCF5A7"/>
<path d="M2.05727 5.8646H2.04376C2.03024 5.85108 2.01673 5.83757 2.03024 5.81054C2.03024 5.81054 2.03024 5.81054 2.03024 5.79702C2.04376 5.78351 2.04375 5.76999 2.05727 5.75648C2.07078 5.74296 2.11133 5.72945 2.11133 5.71593L2.13836 5.75648C2.13836 5.75648 2.13836 5.81054 2.13836 5.82405C2.13836 5.83757 2.12484 5.85108 2.11133 5.85108H2.09781C2.07078 5.85108 2.05727 5.8646 2.05727 5.8646ZM2.11133 5.72945C2.09781 5.72945 2.07078 5.75648 2.05727 5.75648C2.04375 5.76999 2.04376 5.78351 2.03024 5.79702C2.03024 5.79702 2.03024 5.79702 2.03024 5.81054C2.01673 5.82405 2.03024 5.85108 2.04376 5.8646H2.05727C2.05727 5.8646 2.07078 5.8646 2.0843 5.8646H2.09781C2.11133 5.8646 2.12484 5.85108 2.12484 5.83757C2.12484 5.82405 2.12484 5.78351 2.12484 5.76999L2.11133 5.72945Z" fill="#9B7645"/>
<path d="M2.13865 5.74305C2.13865 5.74305 2.12513 5.75656 2.11162 5.75656C2.0981 5.75656 2.08459 5.77008 2.08459 5.77008C2.08459 5.77008 2.07108 5.7971 2.07108 5.81062C2.07108 5.82413 2.07108 5.83765 2.08459 5.85116C2.0981 5.86468 2.11162 5.86468 2.12513 5.85116C2.13865 5.85116 2.15216 5.83765 2.15216 5.82413C2.15216 5.81062 2.15216 5.7971 2.15216 5.78359C2.15216 5.77008 2.15216 5.77007 2.15216 5.75656C2.15216 5.74305 2.15216 5.72953 2.15216 5.72953L2.13865 5.74305Z" fill="#FCF5A7"/>
<path d="M2.12513 5.86468C2.12513 5.86468 2.11162 5.86468 2.09811 5.85116C2.08459 5.83765 2.08459 5.82413 2.07108 5.81062C2.07108 5.7971 2.07108 5.78359 2.08459 5.77008C2.08459 5.77008 2.0981 5.75656 2.11162 5.75656C2.12513 5.75656 2.13865 5.74305 2.13865 5.74305L2.16568 5.75656C2.16568 5.75656 2.16568 5.77008 2.16568 5.78359C2.16568 5.79711 2.16568 5.7971 2.16568 5.7971C2.16568 5.7971 2.16568 5.81062 2.16568 5.82413V5.83765C2.16568 5.85116 2.15216 5.86468 2.13865 5.86468C2.13865 5.86468 2.13865 5.86468 2.12513 5.86468C2.12513 5.86468 2.13865 5.86468 2.12513 5.86468ZM2.13865 5.75656C2.13865 5.75656 2.12513 5.77008 2.11162 5.77008C2.0981 5.77008 2.0981 5.77008 2.08459 5.78359C2.08459 5.79711 2.07108 5.7971 2.07108 5.82413C2.07108 5.83765 2.07108 5.85116 2.08459 5.86468C2.0981 5.86468 2.0981 5.87819 2.11162 5.87819C2.11162 5.87819 2.11162 5.87819 2.12513 5.87819C2.13865 5.87819 2.15216 5.86468 2.15216 5.85116V5.83765C2.15216 5.82413 2.15216 5.82413 2.15216 5.81062V5.7971C2.15216 5.78359 2.15216 5.78359 2.15216 5.77008L2.13865 5.75656Z" fill="#9B7645"/>
<path d="M2.26075 5.87867C2.26075 5.87867 2.26075 5.89218 2.23372 5.90569C2.20669 5.91921 2.17966 5.91921 2.16615 5.90569C2.15263 5.89218 2.15263 5.87867 2.15263 5.86515C2.15263 5.85164 2.16615 5.83812 2.19318 5.83812C2.22021 5.82461 2.22021 5.82461 2.24724 5.82461C2.27426 5.82461 2.27427 5.83812 2.27427 5.83812L2.26075 5.87867Z" fill="#FCF5A7"/>
<path d="M2.20669 5.91921C2.19318 5.91921 2.17966 5.91921 2.17966 5.90569C2.16615 5.89218 2.16615 5.87866 2.16615 5.86515C2.16615 5.85163 2.17966 5.83812 2.20669 5.8246C2.23372 5.81109 2.23372 5.81109 2.26075 5.81109C2.28778 5.81109 2.28778 5.83812 2.30129 5.83812L2.27427 5.87866C2.27427 5.87866 2.27426 5.89218 2.24724 5.90569C2.22021 5.91921 2.22021 5.91921 2.20669 5.91921ZM2.24724 5.83812C2.22021 5.83812 2.22021 5.83812 2.19318 5.85163C2.16615 5.86515 2.16615 5.86515 2.15263 5.87866C2.15263 5.89218 2.15263 5.90569 2.16615 5.91921C2.16615 5.91921 2.17966 5.93272 2.19318 5.93272C2.20669 5.93272 2.22021 5.93272 2.22021 5.91921C2.24724 5.90569 2.24724 5.89218 2.24724 5.89218L2.27427 5.86515C2.27427 5.85163 2.27426 5.83812 2.24724 5.83812Z" fill="#9B7645"/>
<path d="M2.23392 5.66141C2.23392 5.66141 2.24744 5.6479 2.27447 5.6479C2.3015 5.6479 2.32853 5.67492 2.32853 5.68844C2.32853 5.70195 2.32853 5.71547 2.31501 5.72898C2.3015 5.7425 2.28798 5.7425 2.26095 5.7425C2.23393 5.7425 2.23393 5.72898 2.2069 5.71547C2.17987 5.70195 2.19338 5.68844 2.19338 5.68844L2.23392 5.66141Z" fill="#FCF5A7"/>
<path d="M2.28711 5.72898H2.27359C2.24656 5.72898 2.24656 5.71546 2.21953 5.70195C2.19251 5.68843 2.20602 5.66141 2.20602 5.66141L2.24656 5.64789C2.24656 5.64789 2.26008 5.63438 2.28711 5.63438C2.31414 5.63438 2.34117 5.66141 2.34117 5.67492C2.34117 5.68844 2.34117 5.70195 2.32765 5.71546C2.30062 5.72898 2.30062 5.72898 2.28711 5.72898ZM2.1925 5.67492C2.1925 5.67492 2.19251 5.68843 2.20602 5.70195C2.23305 5.71546 2.23305 5.71546 2.26008 5.72898H2.27359C2.28711 5.72898 2.30062 5.72898 2.30062 5.71546C2.31414 5.70195 2.31414 5.70195 2.31414 5.67492C2.31414 5.66141 2.28711 5.63438 2.26008 5.63438C2.23305 5.63438 2.21953 5.64789 2.21953 5.64789L2.1925 5.67492Z" fill="#9B7645"/>
<path fill-rule="evenodd" clip-rule="evenodd" d="M2.8452 5.51203C2.81801 5.47125 2.69567 5.40328 2.50536 5.45766C2.28786 5.51203 1.92083 5.72953 1.73053 5.83828C1.62178 5.90624 1.54022 6.01499 1.5674 6.06937C1.60818 6.15093 1.73053 6.16452 1.88006 6.15093C2.0024 6.13733 2.19271 6.05577 2.30145 6.01499C2.43739 5.97421 2.64129 5.85187 2.69567 5.81109C2.94035 5.62078 2.88598 5.5664 2.8452 5.51203ZM2.73645 5.64797C2.66848 5.74312 2.61411 5.75671 2.47817 5.79749C2.34223 5.82468 2.34223 5.7839 2.30145 5.77031C2.26067 5.77031 2.21989 5.77031 2.23349 5.81109C2.27427 5.85187 2.35583 5.86546 2.32864 5.87906C2.23349 5.93343 2.01599 6.01499 1.9888 6.02858C1.93443 6.05577 1.81209 6.06937 1.75771 6.04218C1.70334 6.0014 1.70334 5.97421 1.71693 5.94702C1.74412 5.87906 1.97521 5.7839 2.05677 5.74312C2.11114 5.71593 2.12474 5.77031 2.15193 5.75671C2.19271 5.72953 2.15193 5.68875 2.19271 5.66156C2.23349 5.63437 2.28786 5.59359 2.38302 5.5664C2.46458 5.52562 2.55973 5.51203 2.64129 5.51203C2.75004 5.52562 2.80441 5.55281 2.73645 5.64797Z" fill="#F41D00"/>
<path d="M1.7849 6.15089C1.67615 6.15089 1.59459 6.12371 1.5674 6.06933C1.54022 6.01496 1.62178 5.90621 1.73053 5.83824C1.93443 5.72949 2.30145 5.52559 2.50536 5.45762C2.54614 5.44403 2.58692 5.44403 2.6277 5.44403C2.73645 5.44403 2.81801 5.48481 2.8452 5.52559C2.8452 5.52559 2.8452 5.52559 2.8452 5.53919C2.87238 5.59356 2.91316 5.64793 2.68207 5.81105C2.6277 5.85183 2.4238 5.96059 2.28786 6.01496C2.26067 6.02855 2.23349 6.02855 2.2063 6.04214C2.09755 6.08293 1.96162 6.1373 1.86646 6.15089C1.85287 6.15089 1.81209 6.15089 1.7849 6.15089ZM2.64129 5.44403C2.60051 5.44403 2.55973 5.44403 2.51895 5.45762C2.30145 5.512 1.93443 5.7159 1.74412 5.82465C1.62178 5.89262 1.5674 6.00136 1.581 6.04214C1.60818 6.09652 1.67615 6.12371 1.7849 6.12371C1.81209 6.12371 1.85287 6.12371 1.88006 6.11011C1.97521 6.09652 2.11115 6.04215 2.21989 6.00137C2.24708 5.98777 2.27427 5.97418 2.30145 5.97418C2.43739 5.9334 2.64129 5.81106 2.69567 5.77028C2.91316 5.60715 2.88598 5.55278 2.8452 5.4984V5.48481C2.8316 5.48481 2.75004 5.44403 2.64129 5.44403ZM1.85287 6.06933C1.81209 6.06933 1.7849 6.06933 1.77131 6.05574C1.70334 6.01496 1.71693 5.98777 1.73053 5.94699C1.75771 5.89262 1.92083 5.81106 2.01599 5.77028C2.02958 5.75668 2.05677 5.75668 2.07036 5.74309C2.08396 5.74309 2.08396 5.74309 2.09755 5.74309C2.11114 5.74309 2.12474 5.75668 2.13833 5.75668C2.15193 5.77028 2.16552 5.77028 2.17911 5.77028C2.2063 5.75668 2.2063 5.74309 2.2063 5.72949C2.2063 5.7159 2.2063 5.68871 2.23349 5.67512C2.27427 5.64793 2.32864 5.60715 2.4238 5.56637C2.50536 5.53918 2.58692 5.512 2.64129 5.512C2.65489 5.512 2.66848 5.512 2.66848 5.512C2.72285 5.512 2.76363 5.53918 2.77723 5.56637C2.79082 5.59356 2.77723 5.62075 2.75004 5.66153C2.68207 5.75668 2.6277 5.77027 2.49176 5.81105C2.46458 5.81105 2.43739 5.82465 2.4102 5.82465C2.36942 5.82465 2.35583 5.81105 2.34223 5.79746C2.32864 5.79746 2.32864 5.78387 2.31505 5.78387H2.30145C2.27427 5.78387 2.26067 5.78387 2.24708 5.79746V5.81105C2.26067 5.83824 2.30145 5.85184 2.31505 5.85184C2.32864 5.86543 2.34223 5.86543 2.34223 5.87902C2.34223 5.87902 2.34223 5.87902 2.34223 5.89262C2.27427 5.94699 2.11115 6.00136 2.04318 6.02855C2.02958 6.02855 2.01599 6.04214 2.0024 6.04214C1.96162 6.05574 1.90724 6.06933 1.85287 6.06933ZM2.09755 5.74309C2.08396 5.74309 2.08396 5.74309 2.07036 5.74309C2.05677 5.74309 2.04318 5.75668 2.01599 5.77028C1.92083 5.81106 1.75771 5.89262 1.73053 5.94699C1.71693 5.97418 1.70334 6.00136 1.77131 6.04214C1.7849 6.05574 1.81209 6.05574 1.85287 6.05574C1.90724 6.05574 1.96162 6.04214 2.0024 6.02855C2.0024 6.02855 2.01599 6.01496 2.04318 6.01496C2.12474 5.98777 2.27427 5.9198 2.34223 5.87902C2.34223 5.87902 2.32864 5.86543 2.31505 5.86543C2.28786 5.85184 2.26067 5.83824 2.24708 5.82465C2.23349 5.81105 2.23349 5.81105 2.24708 5.79746C2.26067 5.78387 2.28786 5.78387 2.30145 5.78387H2.31505C2.32864 5.78387 2.32864 5.78387 2.34223 5.79746C2.35583 5.81105 2.36942 5.81105 2.4102 5.81105C2.43739 5.81105 2.46458 5.81105 2.49176 5.79746C2.64129 5.77027 2.68207 5.74309 2.75004 5.64793C2.77723 5.60715 2.77723 5.57996 2.77723 5.56637C2.76363 5.53918 2.73645 5.52559 2.66848 5.52559C2.65489 5.52559 2.65489 5.52559 2.64129 5.52559C2.57332 5.52559 2.49176 5.53918 2.4238 5.57996C2.32864 5.62074 2.27427 5.64793 2.23349 5.67512C2.21989 5.68871 2.21989 5.70231 2.21989 5.7159C2.21989 5.72949 2.21989 5.75668 2.19271 5.77028C2.19271 5.77028 2.19271 5.77028 2.17911 5.77028C2.16552 5.77028 2.16552 5.77028 2.15193 5.75668C2.11114 5.74309 2.11114 5.74309 2.09755 5.74309Z" fill="#AF0000"/>
<path fill-rule="evenodd" clip-rule="evenodd" d="M2.70996 5.47125C2.60121 5.45765 2.47887 5.48484 2.32934 5.55281C2.11184 5.64797 1.88075 5.7839 1.79919 5.82468C1.71763 5.86546 1.67685 5.90624 1.66325 5.94702C1.60888 6.05577 1.67685 6.08296 1.74481 6.09655C1.79919 6.11015 1.86716 6.11015 1.9759 6.08296C2.08465 6.05577 2.27496 5.97421 2.32934 5.94702C2.38371 5.91984 2.4109 5.90624 2.50605 5.85187C2.60121 5.81109 2.72355 5.74312 2.76433 5.70234C2.80511 5.66156 2.84589 5.60719 2.84589 5.55281C2.8323 5.51203 2.77792 5.48484 2.70996 5.47125ZM2.75074 5.68874C2.68277 5.77031 2.64199 5.7839 2.58761 5.81109C2.49246 5.85187 2.4109 5.85187 2.3973 5.85187C2.38371 5.85187 2.31574 5.81109 2.30215 5.82468C2.30215 5.83827 2.35652 5.86546 2.35652 5.87906C2.35652 5.90624 2.30215 5.93343 2.22059 5.96062C2.13903 5.9878 2.01669 6.05577 1.86716 6.08296C1.81278 6.08296 1.73122 6.06936 1.70403 6.05577C1.63607 6.01499 1.66325 5.97421 1.69044 5.93343C1.71763 5.89265 1.772 5.86546 1.83997 5.82468C1.89434 5.79749 1.96231 5.75671 2.00309 5.74312C2.04387 5.72953 2.08465 5.70234 2.11184 5.71593C2.11184 5.71593 2.13903 5.72953 2.15262 5.72953C2.16621 5.71593 2.15262 5.67515 2.17981 5.64797C2.20699 5.62078 2.30215 5.5664 2.37012 5.55281C2.43808 5.52562 2.50605 5.49844 2.58761 5.49844C2.66917 5.49844 2.73714 5.49844 2.76433 5.53922C2.79152 5.53922 2.8187 5.60718 2.75074 5.68874Z" fill="#FF2F1F"/>
<path d="M1.97509 2.92776C1.97509 2.92776 2.09203 2.92795 2.16467 2.95966C2.21835 2.98819 2.29569 3.04994 2.3398 3.13534C2.3918 3.23182 2.41545 3.26504 2.51643 3.36001C2.59377 3.42176 2.62681 3.51505 2.68199 3.59256C2.73718 3.67008 2.76552 3.73333 2.85393 3.7872C2.90761 3.81573 3.10958 4.00567 3.22483 4.0738C3.34008 4.14193 3.40484 4.16257 3.45852 4.1911C3.49325 4.21644 3.57847 4.28926 3.62426 4.30672C3.82323 4.39868 4.37432 4.65712 4.48487 4.69522C4.59543 4.73332 4.72494 4.77461 4.86234 4.82697C4.99974 4.87933 5.14502 4.94277 5.26346 4.99194C5.3819 5.04111 5.43877 5.05068 5.6062 5.09835C5.72783 5.12856 5.72464 5.14752 5.90633 5.16835C6.08802 5.18918 6.30294 5.18635 6.46567 5.20399C6.52254 5.21356 6.5415 5.21675 6.61733 5.22951C6.68528 5.2312 6.77218 5.23607 6.80222 5.23138C6.92234 5.21261 6.9428 5.26479 6.93642 5.3027C6.94112 5.33273 6.86829 5.41795 6.79397 5.45418C6.71964 5.49041 6.44448 5.61955 6.35908 5.66367C6.27368 5.70778 5.79149 5.85083 5.48497 5.81874C5.17846 5.78666 4.98419 5.72472 4.84998 5.6534C4.71259 5.60104 4.43611 5.56426 4.29552 5.53086C4.14705 5.48638 3.85011 5.39742 3.70952 5.36402C3.56893 5.33061 3.18208 5.1388 3.08579 5.07386C2.9895 5.00892 2.69424 4.85202 2.62479 4.80134C2.54427 4.75855 2.33742 4.65551 2.29481 4.6191C2.2522 4.58269 2.12756 4.45449 2.05023 4.39274C1.9729 4.33099 1.71556 4.18047 1.6493 4.11084C1.59092 4.05228 1.57365 3.98114 1.59598 3.84844C1.59917 3.82948 1.57552 3.79626 1.54868 3.78199C1.53291 3.75985 1.37018 3.74221 1.32456 3.60782C1.29941 3.52561 1.26318 3.45128 1.33131 3.33603C1.4184 3.22397 1.97509 2.92776 1.97509 2.92776Z" fill="#CE0000"/>
<path d="M6.82437 5.21561C6.67421 5.23908 6.60946 5.21843 6.40881 5.19442C6.31402 5.17846 6.25395 5.18785 6.20496 5.18936C6.16705 5.18298 6.1449 5.19874 6.12595 5.19555C5.90315 5.1873 5.73572 5.13964 5.70099 5.1143C5.3654 5.4867 4.39706 5.27502 4.11589 5.20821C3.7968 5.13502 3.25209 4.83866 3.0184 4.72136C2.80367 4.60725 2.16754 4.15905 2.09021 4.0973C1.83455 3.87883 1.88372 3.76039 1.79851 3.68757C1.65172 3.57514 1.58396 3.45652 1.5558 3.27633C1.5511 3.2463 1.60178 3.17685 1.60816 3.13893C1.48954 3.2067 1.3788 3.28554 1.35027 3.33922C1.26318 3.45128 1.3073 3.53668 1.34352 3.61101C1.37018 3.74221 1.53292 3.75984 1.55976 3.77411C1.5866 3.78837 1.61025 3.82159 1.60706 3.84055C1.59581 3.96537 1.61308 4.03651 1.66038 4.10295C1.72664 4.17258 1.98398 4.32311 2.06131 4.38486C2.13865 4.4466 2.25221 4.58268 2.30589 4.61121C2.35958 4.63974 2.55535 4.75066 2.63587 4.79345C2.7164 4.83625 2.99269 4.98996 3.09687 5.06597C3.19316 5.13091 3.59109 5.31484 3.7206 5.35613C3.86119 5.38953 4.16601 5.48957 4.3066 5.52297C4.44719 5.55638 4.72367 5.59315 4.86106 5.64552C5.00635 5.70895 5.18166 5.76769 5.49605 5.81085C5.80257 5.84294 6.28476 5.69989 6.37016 5.65578C6.45556 5.61167 6.72753 5.50148 6.80505 5.44629C6.87937 5.41006 6.94431 5.31377 6.9475 5.29481C6.96496 5.24901 6.9445 5.19684 6.82437 5.21561Z" fill="#B80000"/>
<path d="M6.85403 5.44479C6.84296 5.45267 6.84296 5.45267 6.83188 5.46056C6.77651 5.49997 6.59783 5.57713 6.47132 5.63382C6.44918 5.64958 6.40807 5.66216 6.397 5.67004C6.32267 5.70627 5.8294 5.8572 5.52289 5.82512C5.2543 5.79941 5.06003 5.73748 4.8879 5.65978C4.79631 5.62487 4.64464 5.59935 4.51194 5.57702C4.43611 5.56426 4.37924 5.55469 4.33344 5.53724C4.23077 5.51021 4.0365 5.44828 3.87695 5.41168C3.82008 5.40211 3.77428 5.38466 3.73637 5.37828C3.5879 5.3338 3.20893 5.15306 3.11263 5.08812C3.01634 5.02318 2.77477 4.89481 2.67848 4.82987L2.65164 4.8156C2.6248 4.80134 2.59007 4.776 2.54427 4.75854C2.45586 4.70468 2.35638 4.6587 2.32166 4.63336C2.29481 4.61909 2.26328 4.5748 2.22067 4.53839C2.17018 4.4909 2.1118 4.43234 2.07708 4.407C2.05024 4.39274 2.01551 4.3674 1.9729 4.33099C1.85765 4.26286 1.72663 4.17258 1.67614 4.1251C1.60988 4.05546 1.59261 3.98433 1.61494 3.85163C1.61813 3.83267 1.60237 3.81052 1.57552 3.79625C1.57552 3.79625 1.55657 3.79306 1.54868 3.78199C1.48393 3.76135 1.37337 3.72325 1.33245 3.61889L1.32456 3.60782C1.28834 3.53349 1.26318 3.45128 1.35027 3.33922C1.36453 3.31238 1.40883 3.28084 1.47527 3.23354C1.66353 3.09952 1.98617 2.91988 1.98617 2.91988C1.98617 2.91988 2.12207 2.92325 2.17575 2.95178C2.24051 2.97242 2.30677 3.04206 2.35876 3.13853L2.36665 3.1496C2.41076 3.23501 2.43441 3.26823 2.54647 3.35531C2.59696 3.4028 2.6285 3.4471 2.65684 3.51035C2.67261 3.5325 2.68519 3.5736 2.70095 3.59575C2.70884 3.60682 2.71672 3.6179 2.7246 3.62897C2.77191 3.69541 2.80344 3.73971 2.86501 3.77931C2.89185 3.79358 2.93446 3.82999 2.98495 3.87747C3.07017 3.9503 3.16327 4.03419 3.2438 4.07699C3.32432 4.11978 3.37012 4.13723 3.40484 4.16257C3.43168 4.17683 3.45064 4.18002 3.45853 4.1911C3.47748 4.19429 3.49325 4.21644 3.52798 4.24177C3.5627 4.26711 3.59743 4.29245 3.62427 4.30671C3.67007 4.32417 3.74271 4.35589 3.82323 4.39868C4.07588 4.51917 4.42012 4.67457 4.49276 4.70629C4.54645 4.73482 4.6112 4.75546 4.68703 4.76822C4.75179 4.78887 4.81655 4.80951 4.8813 4.83015C4.95394 4.86187 5.02658 4.89359 5.09134 4.91423C5.16398 4.94595 5.21766 4.97448 5.28242 4.99513L5.30138 4.99832C5.41193 5.03641 5.47669 5.05706 5.63623 5.09365C5.68203 5.11111 5.70099 5.1143 5.72783 5.12856C5.77363 5.14601 5.81155 5.1524 5.93637 5.16365C6.03115 5.1796 6.12913 5.1766 6.23499 5.18466C6.3219 5.18954 6.41988 5.18653 6.49571 5.19929C6.52574 5.1946 6.5447 5.19779 6.57154 5.21205C6.59049 5.21524 6.60945 5.21843 6.64737 5.22482C6.71531 5.2265 6.80222 5.23138 6.83225 5.22668C6.89231 5.2173 6.93811 5.23475 6.96495 5.24902C6.98072 5.27116 6.98861 5.28224 6.98542 5.3012C6.97115 5.32804 6.92048 5.39749 6.85403 5.44479ZM1.4642 3.24142C1.39775 3.28873 1.36453 3.31238 1.35027 3.33922C1.27426 3.4434 1.31048 3.51772 1.32775 3.58886L1.33564 3.59993C1.36549 3.71218 1.47604 3.75027 1.53292 3.75984C1.55187 3.76303 1.55187 3.76303 1.55976 3.77411C1.5866 3.78837 1.61025 3.82159 1.61494 3.85163C1.5958 3.96537 1.61307 4.03651 1.67933 4.10614C1.72983 4.15363 1.86873 4.25498 1.97609 4.31203C2.0187 4.34844 2.0645 4.3659 2.08027 4.38805C2.12288 4.42446 2.17337 4.47195 2.22386 4.51943C2.26647 4.55584 2.29801 4.60014 2.31696 4.60333C2.35169 4.62867 2.45905 4.68572 2.53958 4.72852C2.58538 4.74597 2.6201 4.77131 2.64694 4.78557L2.67378 4.79983C2.78115 4.85689 3.02272 4.98526 3.10794 5.05809C3.20423 5.12303 3.5832 5.30377 3.73167 5.34825C3.76959 5.35463 3.81539 5.37208 3.87226 5.38165C4.02073 5.42613 4.215 5.48806 4.31767 5.51509C4.36347 5.53254 4.43142 5.53423 4.49617 5.55487C4.62888 5.5772 4.78054 5.60272 4.88002 5.64871C5.05214 5.72641 5.2496 5.76938 5.50713 5.80297C5.82152 5.84613 6.3069 5.68412 6.38123 5.6479C6.3923 5.64001 6.43341 5.62744 6.45556 5.61167C6.57099 5.56286 6.75286 5.46675 6.81612 5.43841C6.82719 5.43053 6.82719 5.43053 6.83827 5.42264C6.90471 5.37534 6.94431 5.31377 6.95857 5.28693C6.96176 5.26797 6.95388 5.2569 6.946 5.24582C6.93023 5.22368 6.89231 5.2173 6.83225 5.22668C6.80222 5.23138 6.70424 5.23438 6.63629 5.2327C6.59838 5.22632 6.57942 5.22313 6.56046 5.21994C6.54151 5.21675 6.52255 5.21356 6.48463 5.20718C6.4088 5.19442 6.31082 5.19742 6.22392 5.19255C6.12594 5.19555 6.02008 5.18749 5.92529 5.17154C5.80047 5.16028 5.76256 5.1539 5.70887 5.12537C5.68203 5.11111 5.66308 5.10792 5.61728 5.09046C5.44985 5.04279 5.39298 5.03322 5.27454 4.98405L5.25558 4.98086C5.19082 4.96022 5.13714 4.93169 5.0645 4.89997C4.99186 4.86825 4.91922 4.83653 4.85446 4.81589C4.7897 4.79525 4.72495 4.7746 4.66019 4.75396C4.59543 4.73331 4.53068 4.71267 4.46592 4.69203C4.38221 4.66819 4.04904 4.50491 3.79639 4.38441C3.72375 4.3527 3.65111 4.32098 3.59743 4.29245C3.58635 4.30033 3.55163 4.275 3.5169 4.24966C3.49006 4.23539 3.47429 4.21325 3.45534 4.21006C3.43638 4.20687 3.42849 4.19579 3.40165 4.18153C3.35585 4.16407 3.30217 4.13554 3.2406 4.09594C3.16008 4.05315 3.06698 3.96925 2.98176 3.89643C2.93127 3.84894 2.88866 3.81253 2.86182 3.79827C2.80025 3.75867 2.76083 3.7033 2.71353 3.63685C2.70565 3.62578 2.69776 3.61471 2.68988 3.60363C2.66623 3.57041 2.65046 3.54826 2.64577 3.51823C2.61742 3.45498 2.58589 3.41068 2.54328 3.37427C2.43122 3.28718 2.41864 3.24608 2.36346 3.16856L2.35557 3.15749C2.31146 3.07209 2.2452 3.00245 2.18044 2.98181C2.12676 2.95328 2.00982 2.9531 1.99087 2.94991C1.95295 2.94353 1.64138 3.11528 1.4642 3.24142Z" fill="#870014"/>
<path d="M0.375274 2.29783C0.36101 2.32468 0.352944 2.43054 0.266039 2.42566C0.21705 2.42716 0.177632 2.3718 0.161864 2.34965C0.146097 2.3275 0.133519 2.28639 0.139899 2.24848C0.157354 2.20268 0.215913 2.1443 0.294934 2.13811C0.445091 2.11464 0.603132 2.10224 0.852588 2.24169C1.09885 2.4001 1.18088 2.49188 1.32767 2.60431C1.46338 2.72462 1.42546 2.71824 1.47126 2.73569C1.4981 2.74995 1.5028 2.77999 1.52175 2.78318C1.52964 2.79425 1.57544 2.8117 1.5912 2.83385C1.60697 2.856 1.61485 2.86707 1.64958 2.89241C1.6843 2.91775 1.7301 2.9352 1.75375 2.96842C1.76952 2.99057 1.78529 3.01272 1.78529 3.01272C1.78529 3.01272 1.81701 2.94008 1.866 2.93858C1.9071 2.926 1.97035 2.89765 2.00827 2.90403C2.03511 2.9183 2.08091 2.93575 2.08091 2.93575C2.08091 2.93575 2.00189 2.94195 1.96548 2.98456C1.86581 3.05551 1.87051 3.08554 1.85624 3.11239C1.82772 3.16607 1.80857 3.27981 1.8448 3.35414C1.75471 3.36822 1.6648 3.26537 1.61262 3.28583C1.56044 3.30629 1.4893 3.32356 1.42286 3.37086C1.3643 3.42924 1.33746 3.41497 1.33427 3.43393C1.30105 3.45758 1.28209 3.45439 1.28209 3.45439C1.28209 3.45439 1.28697 3.36749 1.31549 3.31381C1.34402 3.26012 1.39151 3.20963 1.43261 3.19705C1.46264 3.19236 1.49268 3.18767 1.49268 3.18767C1.49268 3.18767 1.45025 3.03432 1.41872 2.99002C1.35246 2.92039 1.16625 2.75259 1.10787 2.69404C1.0495 2.63548 0.87118 2.47876 0.801729 2.42808C0.721205 2.38529 0.598071 2.30608 0.541199 2.29651C0.4954 2.27906 0.381654 2.25992 0.375274 2.29783Z" fill="#5F9322"/>
<path d="M1.5877 3.08676C1.52463 2.99817 1.43153 2.91427 1.35738 2.83356C1.27216 2.76074 1.19483 2.69899 1.12069 2.61828C0.964515 2.44579 0.69291 2.32211 0.601312 2.2872C0.536556 2.26656 0.490757 2.2491 0.411736 2.2553C0.392778 2.25211 0.351673 2.26469 0.337409 2.29153C0.334219 2.31049 0.312072 2.32625 0.289924 2.34202C0.297808 2.35309 0.302502 2.38313 0.310385 2.3942C0.324649 2.36736 0.334219 2.31049 0.356367 2.29472C0.370631 2.26788 0.484376 2.28702 0.541249 2.29659C0.606006 2.31723 0.721256 2.38536 0.80178 2.42815C0.882304 2.47095 1.05743 2.64662 1.10792 2.69411C1.1663 2.75267 1.34462 2.90939 1.41877 2.9901C1.44242 3.02332 1.49273 3.18774 1.49273 3.18774C1.49273 3.18774 1.46588 3.17348 1.44374 3.18925C1.39156 3.20971 1.35515 3.25232 1.32662 3.306C1.29809 3.35968 1.29321 3.44659 1.29321 3.44659C1.29321 3.44659 1.3011 3.45766 1.31855 3.41186C1.33282 3.38502 1.34858 3.40717 1.40714 3.34879C1.4657 3.29041 1.59221 3.23372 1.66485 3.26544C1.66335 3.21645 1.61923 3.13105 1.5877 3.08676Z" fill="#558419"/>
<path d="M1.83683 3.34323C1.77677 3.35262 1.73097 3.33516 1.68836 3.29875C1.65364 3.27341 1.61572 3.26704 1.60465 3.27492C1.59357 3.2828 1.57462 3.27961 1.56354 3.2875C1.52244 3.30007 1.48133 3.31265 1.43704 3.34419C1.42596 3.35207 1.42596 3.35207 1.41489 3.35995C1.40381 3.36784 1.39274 3.37572 1.39274 3.37572C1.37059 3.39149 1.35952 3.39937 1.34056 3.39618C1.32949 3.40407 1.32949 3.40406 1.31841 3.41195C1.31522 3.43091 1.31203 3.44986 1.30096 3.45775C1.28989 3.46563 1.28989 3.46563 1.28989 3.46563C1.28989 3.46563 1.29476 3.37873 1.33436 3.31716C1.36289 3.26348 1.38823 3.22875 1.41038 3.21299C1.42145 3.2051 1.43252 3.19722 1.4436 3.18933C1.45467 3.18145 1.4847 3.17676 1.50366 3.17995C1.4832 3.12777 1.46124 3.0266 1.43759 2.99338C1.39817 2.93801 1.27822 2.83985 1.21196 2.77021C1.17724 2.74488 1.15359 2.71165 1.1457 2.70058C1.07944 2.63095 0.901124 2.47423 0.839558 2.43463C0.75115 2.38076 0.635901 2.31263 0.579028 2.30306C0.522155 2.29349 0.43844 2.26965 0.405219 2.2933C0.405219 2.2933 0.402029 2.31226 0.390955 2.32015C0.376691 2.34699 0.37031 2.3849 0.337089 2.40855C0.326015 2.41644 0.314942 2.42432 0.295984 2.42113C0.246995 2.42264 0.199693 2.35619 0.183925 2.33404C0.176041 2.32297 0.144506 2.27867 0.165151 2.21392C0.179415 2.18708 0.193678 2.16024 0.2269 2.13658C0.260121 2.11293 0.301227 2.10036 0.331258 2.09566C0.481416 2.07219 0.65053 2.05192 0.896797 2.21032C1.0815 2.32913 1.16671 2.40195 1.25982 2.48585C1.29454 2.51119 1.31819 2.54441 1.35292 2.56975C1.43025 2.6315 1.4539 2.66472 1.46179 2.67579C1.46967 2.68687 1.46967 2.68686 1.49651 2.70113C1.51547 2.70432 1.53124 2.72647 1.53912 2.73754C1.547 2.74862 1.547 2.74862 1.547 2.74862C1.547 2.74862 1.55489 2.75969 1.56596 2.75181C1.58492 2.755 1.61176 2.76926 1.62753 2.79141C1.6433 2.81355 1.65118 2.82463 1.6859 2.84997C1.6859 2.84997 1.69379 2.86104 1.70486 2.85316C1.73959 2.87849 1.78539 2.89595 1.80115 2.9181C1.80904 2.92917 1.81692 2.94024 1.82481 2.95132C1.83588 2.94343 1.85014 2.91659 1.87229 2.90083C1.88336 2.89294 1.89444 2.88506 1.89444 2.88506C1.90551 2.87717 1.92447 2.88036 1.94662 2.8646C1.97665 2.8599 2.01775 2.84733 2.03671 2.85052C2.07463 2.8569 2.10935 2.88223 2.10935 2.88223C2.10935 2.88223 2.10935 2.88223 2.11724 2.89331C2.11724 2.89331 2.11724 2.89331 2.10616 2.90119C2.10616 2.90119 2.02714 2.90739 1.99073 2.95C1.90214 3.01307 1.88788 3.03991 1.8815 3.07783C1.8815 3.07783 1.88149 3.07783 1.87042 3.08571C1.83082 3.14728 1.8006 3.2689 1.83683 3.34323C1.83683 3.34323 1.84791 3.33535 1.83683 3.34323ZM1.42915 3.33311C1.47345 3.30158 1.51455 3.289 1.55566 3.27642C1.56673 3.26854 1.58569 3.27173 1.59676 3.26384C1.61891 3.24808 1.65364 3.27341 1.69944 3.29087C1.74523 3.30832 1.77996 3.33366 1.82895 3.33216C1.79272 3.25783 1.82294 3.1362 1.84039 3.0904C1.84039 3.0904 1.84039 3.0904 1.85146 3.08252C1.86573 3.05568 1.87999 3.02883 1.9607 2.95469C1.99392 2.93104 2.03503 2.91846 2.06506 2.91377C2.05717 2.9027 2.03033 2.88843 2.01926 2.89631C2.0003 2.89312 1.9592 2.9057 1.92916 2.9104C1.91809 2.91828 1.88806 2.92297 1.87698 2.93086C1.86591 2.93874 1.86591 2.93874 1.85484 2.94663C1.82161 2.97028 1.81523 3.00819 1.81523 3.00819L1.80416 3.01608C1.80416 3.01608 1.7852 3.01289 1.77263 2.97178C1.75686 2.94963 1.72213 2.92429 1.69529 2.91003C1.69529 2.91003 1.68741 2.89896 1.67633 2.90684C1.64161 2.8815 1.62265 2.87831 1.60688 2.85616C1.599 2.84509 1.57216 2.83083 1.5532 2.82764C1.54532 2.81656 1.53424 2.82445 1.53424 2.82445C1.53424 2.82445 1.52636 2.81337 1.51848 2.8023C1.51059 2.79123 1.50271 2.78015 1.49482 2.76908C1.46798 2.75481 1.46798 2.75481 1.4601 2.74374C1.45222 2.73266 1.42856 2.69944 1.35123 2.63769C1.31651 2.61236 1.28178 2.58702 1.25813 2.5538C1.16503 2.4699 1.07193 2.386 0.895111 2.27827C0.656729 2.13094 0.498686 2.14333 0.348529 2.1668C0.307423 2.17938 0.277392 2.18407 0.24417 2.20772C0.222022 2.22349 0.196685 2.25821 0.193495 2.27717C0.187114 2.31509 0.199692 2.35619 0.215459 2.37834C0.231227 2.40049 0.281719 2.44797 0.319635 2.45435C0.338592 2.45754 0.349666 2.44966 0.36074 2.44178C0.382888 2.42601 0.400342 2.38021 0.403532 2.36125C0.406722 2.34229 0.406723 2.34229 0.417797 2.33441L0.428871 2.32653C0.462092 2.30288 0.575838 2.32202 0.60268 2.33628C0.667436 2.35692 0.801642 2.42824 0.863208 2.46785C0.943732 2.51064 1.12994 2.67843 1.18831 2.73699C1.20408 2.75914 1.23092 2.7734 1.25457 2.80663C1.33979 2.87945 1.44078 2.97442 1.48019 3.02979C1.50385 3.06301 1.54627 3.21636 1.55415 3.22743C1.55415 3.22743 1.55415 3.22743 1.54308 3.23532C1.54308 3.23532 1.50517 3.22894 1.48302 3.24471C1.44191 3.25728 1.4055 3.29989 1.3659 3.36146C1.29795 3.35977 1.28838 3.41664 1.29308 3.44667C1.30415 3.43879 1.31522 3.43091 1.30734 3.41983C1.31841 3.41195 1.32949 3.40407 1.32949 3.40407C1.34056 3.39618 1.35952 3.39937 1.38167 3.3836C1.39274 3.37572 1.39274 3.37572 1.40381 3.36784C1.407 3.34888 1.41808 3.341 1.42915 3.33311Z" fill="#4A6811"/>
<path d="M0.304041 2.31513C0.319809 2.33727 0.332387 2.37838 0.318123 2.40522C0.307049 2.41311 0.295975 2.42099 0.277018 2.4178C0.228028 2.4193 0.188609 2.36393 0.172842 2.34179C0.157074 2.31964 0.144497 2.27853 0.150878 2.24062C0.154068 2.22166 0.157257 2.2027 0.176215 2.20589C0.21413 2.21227 0.28358 2.26295 0.304041 2.31513Z" fill="#527718"/>
<path d="M0.315014 2.42417C0.30394 2.43205 0.292867 2.43994 0.27391 2.43675C0.22492 2.43825 0.177618 2.37181 0.16185 2.34966C0.153967 2.33858 0.122432 2.29429 0.143076 2.22953C0.146266 2.21057 0.15734 2.20269 0.168413 2.19481L0.179488 2.18692C0.228477 2.18542 0.286852 2.24398 0.326271 2.29935C0.327775 2.34834 0.332468 2.37837 0.315014 2.42417C0.315014 2.42417 0.326088 2.41628 0.315014 2.42417ZM0.165224 2.21376C0.15415 2.22165 0.162034 2.23272 0.15096 2.24061C0.14458 2.27852 0.157157 2.31963 0.172924 2.34177C0.188692 2.36392 0.239185 2.41141 0.2771 2.41779C0.296057 2.42098 0.307131 2.41309 0.318205 2.40521C0.332469 2.37837 0.316701 2.35622 0.312007 2.32619C0.272589 2.27082 0.214213 2.21226 0.165224 2.21376Z" fill="#4A6811"/>
<path d="M1.76361 3.19473C1.7621 3.14575 1.78443 3.01304 1.99634 2.91224C1.78612 2.94509 1.8049 3.06522 1.76229 3.02881C1.71968 2.9924 1.73075 2.98451 1.6613 2.93384C1.59185 2.88316 1.27463 2.62509 1.2431 2.58079C1.20049 2.54438 1.04113 2.39085 0.944835 2.32591C0.848543 2.26097 0.768019 2.21818 0.703262 2.19754C0.638506 2.17689 0.516877 2.14668 0.426783 2.16076C0.377793 2.16226 0.276625 2.18423 0.235519 2.1968C0.281318 2.21426 0.336503 2.29177 0.336503 2.29177C0.336503 2.29177 0.376106 2.23021 0.466201 2.21613C0.545221 2.20993 0.655776 2.24803 0.758448 2.27505C0.831089 2.30677 0.903729 2.33849 1.04732 2.46987C1.14831 2.56484 1.25718 2.67089 1.37712 2.76905C1.47492 2.88298 1.65005 3.05866 1.76361 3.19473Z" fill="#7BB230"/>
<path d="M1.91411 3.52183C1.88896 3.43962 1.87506 3.23259 2.05844 3.18547C2.11062 3.16501 2.25271 3.2474 2.42615 3.49103C2.59959 3.73465 2.85206 3.97208 3.18824 4.23334C3.30029 4.32043 3.61601 4.52952 4.05504 4.70087C4.35668 4.81986 4.64574 4.89774 4.89369 4.9882C5.14164 5.07866 4.37208 5.07587 4.14778 5.01864C3.34217 4.82459 2.63021 4.36363 2.34152 4.05187C2.17428 3.88727 1.96761 3.66729 1.91411 3.52183Z" fill="#E10F00"/>
<path d="M2.02806 3.42403C2.02656 3.37504 2.11834 3.29302 2.25874 3.44336C2.325 3.51299 2.48587 3.71551 2.68465 3.92441C2.91816 4.15865 3.22749 4.40565 3.48483 4.55617C3.62692 4.63856 3.95859 4.75286 3.60947 4.68436C3.47676 4.66203 2.97785 4.38313 2.73796 4.18681C2.61014 4.07757 2.42075 3.92874 2.28034 3.7784C2.11779 3.64382 2.02638 3.49198 2.02806 3.42403Z" fill="#F31A07"/>
</svg>
