<svg width="3" height="5" viewBox="0 0 3 5" fill="none" xmlns="http://www.w3.org/2000/svg">
<path fill-rule="evenodd" clip-rule="evenodd" d="M2.08 1.46C2.08 1.46 2.11 1.61 2.13 1.66C2.15 1.71 2.19 1.76 2.23 1.79C2.26 1.81 2.31 1.84 2.37 1.83C2.42 1.83 2.43 1.79 2.48 1.8C2.49 1.8 2.5 1.8 2.5 1.8C2.5 1.8 2.5 1.79 2.49 1.78C2.48 1.77 2.46 1.77 2.42 1.76C2.4 1.76 2.33 1.74 2.31 1.73C2.29 1.72 2.28 1.72 2.24 1.69C2.2 1.66 2.17 1.6 2.17 1.6L2.08 1.46Z" fill="#60750A"/>
<path fill-rule="evenodd" clip-rule="evenodd" d="M2.1 1.19C2.1 1.19 2.16 1.73 2.19 1.88C2.22 2.03 2.35 2.58 2.38 2.84C2.44 3.33 2.42 3.68 2.38 3.94C2.34 4.27 2.2 4.76 1.93 4.87C1.68 4.98 1.07 5.03 0.83 4.36C0.66 3.89 0.67 3.28 0.79 2.7C0.9 2.12 0.960001 1.87 1.02 1.48C1.08 1.09 1.37 0.75 1.37 0.75L1.85 0.77L2.1 1.19Z" fill="#3F1A40"/>
<path fill-rule="evenodd" clip-rule="evenodd" d="M2.32 4.06C2.3 4.08 2.29001 4.1 2.27001 4.11C2.23001 4.14 2.19 4.18 2.14 4.21C2.13 4.22 2.12001 4.22 2.11001 4.23C1.99001 4.3 1.87 4.33 1.73 4.33C1.72 4.33 1.7 4.33 1.69 4.33C1.64 4.32 1.58 4.32 1.53 4.31C1.52 4.31 1.51 4.3 1.49 4.3C1.44 4.28 1.39001 4.26 1.35001 4.24C1.34001 4.24 1.33 4.23 1.32 4.22C1.28 4.19 1.24 4.16 1.2 4.13C1.16 4.09 1.12 4.03 1.08 3.99C1.07 3.97 1.06 3.95 1.05 3.93C1.02 3.87 1 3.82 0.980004 3.76C0.970004 3.74 0.970005 3.71 0.960005 3.69C0.950005 3.62 0.940005 3.56 0.930005 3.49C0.920005 3.39 0.930005 3.29 0.930005 3.19C0.930005 3.15 0.940004 3.11 0.940004 3.06C0.940004 2.99 0.950005 2.93 0.950005 2.86C1 2.69 1.03001 2.5 1.06001 2.32C1.07001 2.24 1.07 2.17 1.08 2.09C1.09 1.97 1.1 1.85 1.12 1.73C1.13 1.65 1.15001 1.57 1.18001 1.49C1.19001 1.45 1.21001 1.41 1.22001 1.38C1.25001 1.31 1.28 1.23 1.32 1.16C1.36 1.09 1.42 1.03 1.49 0.990002C1.53 0.970002 1.57001 0.960002 1.60001 0.940002C1.68001 0.920002 1.77001 0.920002 1.85001 0.940002C1.87001 0.920002 1.89 0.910002 1.91 0.890002L1.84 0.780002L1.36 0.760002C1.36 0.760002 1.07001 1.1 1.01001 1.49C0.950005 1.88 0.900005 2.13 0.780005 2.71C0.670005 3.29 0.650004 3.9 0.820004 4.37C1.06 5.04 1.67 4.99 1.92 4.88C2.18 4.77 2.32001 4.32 2.37001 3.98C2.37001 4.01 2.35 4.04 2.32 4.06Z" fill="#25002B"/>
<path fill-rule="evenodd" clip-rule="evenodd" d="M1.46001 1.51C1.46001 1.51 1.44001 2.23 1.44001 2.34C1.44001 2.44 1.32001 3.03 1.37001 3.31C1.42001 3.54 1.55001 3.76 1.71001 3.78C2.10001 3.81 2.22001 3.54 2.23001 3.28C2.24001 3.02 2.20001 2.83 2.11001 2.32C2.02001 1.81 1.91001 1.13 1.91001 1.13L1.70001 0.980003L1.46001 1.51Z" fill="#4F2249"/>
<path d="M1.6 4.95C1.44 4.95 1.29 4.91 1.17 4.83C1.02 4.73 0.899999 4.58 0.829999 4.37C0.679999 3.94 0.659999 3.35 0.789999 2.71C0.809999 2.62 0.819999 2.54 0.839999 2.47C0.919999 2.05 0.969999 1.82 1.02 1.49C1.05 1.29 1.14 1.1 1.22 0.97C1.3 0.84 1.37 0.75 1.37 0.75L1.85 0.77L2.11 1.19C2.11 1.2 2.17 1.74 2.2 1.88C2.21 1.93 2.23 2.03 2.26 2.15C2.31 2.38 2.38 2.67 2.39 2.84C2.44 3.24 2.44 3.6 2.39 3.94C2.37 4.13 2.31 4.33 2.25 4.49C2.16 4.69 2.06 4.82 1.94 4.88C1.84 4.93 1.72 4.95 1.6 4.95ZM1.37 0.76C1.36 0.77 1.29 0.85 1.22 0.98C1.15 1.1 1.06 1.29 1.02 1.49C0.969999 1.82 0.919999 2.05 0.839999 2.47C0.819999 2.54 0.809999 2.62 0.789999 2.71C0.659999 3.35 0.679999 3.94 0.829999 4.37C1.01 4.87 1.38 4.94 1.59 4.94C1.71 4.94 1.83 4.92 1.93 4.88C2.05 4.83 2.15 4.7 2.24 4.5C2.3 4.34 2.36 4.14 2.38 3.95C2.42 3.61 2.42 3.25 2.38 2.85C2.36 2.68 2.3 2.4 2.25 2.16C2.22 2.04 2.2 1.94 2.19 1.89C2.17 1.75 2.1 1.22 2.1 1.2L1.84 0.79L1.37 0.76Z" fill="#25002B"/>
<path fill-rule="evenodd" clip-rule="evenodd" d="M1.17 0.400002C1.16 0.420002 1.16 0.450001 1.17 0.490001C1.18 0.540001 1.19 0.630001 1.18 0.660001C1.17 0.690001 1.15 0.760002 1.12 0.800002C1.09 0.840002 1.08 0.860002 1.07 0.880002C1.06 0.890002 1.04 0.920001 1.03 0.930001C1.02 0.950001 0.999999 0.990002 0.989999 1.01C0.989999 1.03 0.959999 1.05 0.959999 1.06C0.949999 1.08 0.949999 1.11 0.949999 1.12C0.949999 1.14 0.939999 1.18 0.939999 1.21C0.939999 1.24 0.939999 1.26 0.949999 1.27C0.959999 1.28 0.949999 1.29 0.949999 1.31C0.949999 1.33 0.949999 1.36 0.949999 1.36C0.949999 1.36 0.929999 1.41 0.919999 1.42C0.919999 1.43 0.919999 1.45 0.919999 1.46C0.919999 1.47 0.949999 1.49 0.949999 1.49C0.949999 1.49 0.949999 1.51 0.949999 1.53C0.949999 1.55 0.969999 1.57 0.969999 1.59C0.969999 1.6 0.959999 1.61 0.959999 1.64C0.959999 1.67 0.959999 1.73 0.949999 1.75C0.939999 1.77 0.899999 1.84 0.889999 1.88C0.889999 1.92 0.889999 1.98 0.889999 1.98H0.899999C0.899999 1.98 0.909999 1.94 0.909999 1.92C0.909999 1.9 0.929999 1.83 0.939999 1.82C0.949999 1.8 0.989999 1.71 0.999999 1.69C1.01 1.67 1.03 1.57 1.04 1.53C1.06 1.48 1.1 1.37 1.11 1.34C1.12 1.3 1.14 1.27 1.14 1.27C1.14 1.27 1.22 1.35 1.24 1.39C1.26 1.43 1.28 1.49 1.28 1.52C1.28 1.55 1.28 1.62 1.29 1.65C1.29 1.68 1.3 1.75 1.31 1.81C1.32 1.86 1.32 1.87 1.33 1.87C1.34 1.87 1.34 1.89 1.34 1.83C1.35 1.77 1.37 1.7 1.38 1.65C1.39 1.6 1.42 1.53 1.43 1.5C1.44 1.47 1.49 1.42 1.52 1.38C1.56 1.34 1.6 1.28 1.62 1.26C1.64 1.24 1.67 1.2 1.68 1.18C1.69 1.16 1.69 1.13 1.7 1.11C1.71 1.09 1.73 1.06 1.73 1.06C1.73 1.06 1.75 1.1 1.77 1.13C1.79 1.16 1.86 1.23 1.88 1.25C1.9 1.27 1.95 1.33 1.98 1.37C2.01 1.41 2.09 1.5 2.11 1.53C2.13 1.56 2.19 1.64 2.19 1.64C2.19 1.64 2.17 1.52 2.16 1.5C2.15 1.48 2.14 1.48 2.14 1.46C2.14 1.44 2.15 1.44 2.14 1.41C2.13 1.38 2.11 1.29 2.1 1.27C2.09 1.25 2.1 1.22 2.1 1.2C2.09 1.18 2.09 1.17 2.09 1.17C2.09 1.16 2.09 1.14 2.09 1.13C2.09 1.11 2.09 1.1 2.09 1.08C2.09 1.06 2.06 0.960002 2.04 0.920002C2.02 0.880002 1.97 0.820002 1.91 0.770002C1.85 0.720002 1.79 0.690001 1.73 0.640001C1.67 0.590001 1.61 0.490002 1.6 0.460002C1.59 0.430002 1.5 0.210001 1.45 0.240001C1.37 0.300001 1.2 0.340002 1.17 0.400002Z" fill="#76931F"/>
<path fill-rule="evenodd" clip-rule="evenodd" d="M1.62 1.23C1.55 1.33 1.44 1.39 1.39 1.41C1.36 1.42 1.34 1.33 1.33 1.3C1.31 1.12 1.18 1.07 1.26 0.860004C1.27 0.840004 1.3 0.770004 1.31 0.740004C1.33 0.710004 1.34 0.660004 1.34 0.590004C1.34 0.510004 1.32 0.480004 1.3 0.420004C1.28 0.360004 1.27 0.340004 1.27 0.340004C1.27 0.340004 1.19 0.370004 1.17 0.400004C1.16 0.410004 1.16 0.450004 1.16 0.500004C1.17 0.550004 1.18 0.640004 1.17 0.670004C1.16 0.700004 1.14 0.770004 1.11 0.810004C1.08 0.850004 1.07 0.870004 1.06 0.890004C1.05 0.900004 1.03 0.930004 1.02 0.940004C1.02 0.950004 0.999999 0.990004 0.989999 1.01C0.989999 1.03 0.959999 1.05 0.959999 1.06C0.949999 1.08 0.949999 1.11 0.949999 1.12C0.949999 1.14 0.939999 1.18 0.939999 1.21C0.939999 1.24 0.939999 1.26 0.949999 1.27C0.959999 1.28 0.949999 1.29 0.949999 1.31C0.949999 1.33 0.949999 1.36 0.949999 1.36C0.949999 1.36 0.929999 1.41 0.919999 1.42C0.919999 1.43 0.919999 1.45 0.919999 1.46C0.919999 1.47 0.949999 1.49 0.949999 1.49C0.949999 1.49 0.949999 1.51 0.949999 1.53C0.949999 1.55 0.969999 1.57 0.969999 1.59C0.969999 1.6 0.959999 1.61 0.959999 1.64C0.959999 1.67 0.959999 1.73 0.949999 1.75C0.939999 1.77 0.899999 1.84 0.889999 1.88C0.889999 1.92 0.889999 1.98 0.889999 1.98H0.899999C0.899999 1.98 0.909999 1.94 0.909999 1.92C0.909999 1.9 0.929999 1.83 0.939999 1.82C0.949999 1.8 0.989999 1.71 0.999999 1.69C1.01 1.67 1.03 1.57 1.04 1.53C1.06 1.48 1.1 1.37 1.11 1.34C1.12 1.3 1.14 1.27 1.14 1.27C1.14 1.27 1.22 1.35 1.24 1.39C1.26 1.43 1.28 1.49 1.28 1.52C1.28 1.55 1.28 1.62 1.29 1.65C1.29 1.68 1.3 1.75 1.31 1.81C1.32 1.86 1.32 1.87 1.33 1.87C1.34 1.87 1.34 1.89 1.34 1.83C1.35 1.77 1.37 1.7 1.38 1.65C1.39 1.6 1.42 1.53 1.43 1.5C1.44 1.47 1.49 1.42 1.52 1.38C1.56 1.34 1.6 1.28 1.62 1.26C1.64 1.24 1.67 1.2 1.68 1.18C1.69 1.16 1.68 1.11 1.72 1.07C1.67 1.17 1.64 1.2 1.62 1.23Z" fill="#6C8219"/>
<path fill-rule="evenodd" clip-rule="evenodd" d="M1.34 1.6C1.33 1.59 1.32 1.54 1.3 1.51C1.3 1.52 1.3 1.53 1.3 1.54C1.3 1.57 1.3 1.64 1.31 1.67C1.31 1.7 1.32 1.77 1.33 1.83C1.34 1.88 1.34 1.89 1.35 1.89C1.36 1.89 1.36 1.91 1.36 1.85C1.37 1.79 1.39 1.72 1.4 1.67C1.37 1.65 1.36 1.64 1.34 1.6Z" fill="#60750A"/>
<path fill-rule="evenodd" clip-rule="evenodd" d="M1.02 1.17C1.03 1.13 1.06 1 1.09 0.960005C1.13 0.910005 1.18 0.830005 1.2 0.760005C1.22 0.710005 1.2 0.770005 1.23 0.660005C1.24 0.580005 1.19 0.450005 1.19 0.420005C1.19 0.410005 1.19 0.380005 1.19 0.380005C1.18 0.380005 1.17 0.410005 1.17 0.410005C1.16 0.430005 1.16 0.450005 1.17 0.500005C1.18 0.550005 1.19 0.640005 1.18 0.670005C1.17 0.700005 1.15 0.770005 1.12 0.810005C1.09 0.850005 1.08 0.870005 1.07 0.890005C1.06 0.900005 1.04 0.930005 1.03 0.940005C1.02 0.950005 0.999999 0.990005 0.989999 1.01C0.989999 1.03 0.959999 1.05001 0.959999 1.06001C0.949999 1.08001 0.949999 1.11 0.949999 1.12C0.949999 1.14 0.939999 1.18 0.939999 1.21C0.939999 1.24 0.939999 1.26001 0.949999 1.27001C0.959999 1.28001 0.949999 1.29001 0.949999 1.31001C0.949999 1.33001 0.949999 1.36 0.949999 1.36C0.949999 1.36 0.929999 1.41 0.919999 1.42C0.919999 1.43 0.919999 1.45 0.919999 1.46C0.919999 1.47 0.949999 1.49 0.949999 1.49C0.949999 1.49 0.949999 1.51 0.949999 1.53C0.949999 1.55 0.969999 1.57 0.969999 1.59C0.969999 1.6 0.959999 1.61001 0.959999 1.64001C0.959999 1.67001 0.959999 1.73 0.949999 1.75C0.939999 1.77 0.899999 1.84 0.889999 1.88C0.889999 1.92 0.889999 1.98 0.889999 1.98H0.899999C0.899999 1.98 0.909999 1.94 0.909999 1.92C0.909999 1.9 0.929999 1.83 0.939999 1.82C0.949999 1.8 0.989999 1.71 0.999999 1.69C0.999999 1.68 1.08 1.43001 1.09 1.39001C0.989999 1.39001 1 1.21 1.02 1.17Z" fill="#60750A"/>
<path d="M0.910009 2.01C0.900009 2.01 0.900009 2.01 0.910009 2.01C0.900009 2 0.900009 1.94 0.900009 1.9C0.900009 1.87 0.940009 1.8 0.950009 1.78C0.960009 1.76 0.96001 1.69 0.96001 1.67C0.96001 1.65 0.96001 1.64 0.96001 1.63V1.62C0.96001 1.62 0.960009 1.61 0.950009 1.6C0.950009 1.59 0.940009 1.58 0.940009 1.56C0.940009 1.54 0.940009 1.52 0.940009 1.52C0.940009 1.52 0.92001 1.5 0.92001 1.49C0.92001 1.48 0.92001 1.46 0.92001 1.45C0.92001 1.44 0.940009 1.4 0.950009 1.39C0.950009 1.38 0.950009 1.36 0.950009 1.34C0.950009 1.33 0.950009 1.32 0.950009 1.32C0.950009 1.31 0.950009 1.31 0.950009 1.3C0.940009 1.29 0.940009 1.26 0.940009 1.23C0.940009 1.21 0.940009 1.18 0.940009 1.16C0.940009 1.15 0.940009 1.14 0.940009 1.14C0.940009 1.13 0.940009 1.1 0.950009 1.08C0.950009 1.07 0.96001 1.06 0.97001 1.06C0.98001 1.05 0.990009 1.04 0.990009 1.03C0.990009 1.01 1.02001 0.959998 1.03001 0.949998C1.03001 0.949998 1.04001 0.939998 1.05001 0.929998C1.06001 0.919998 1.07001 0.909998 1.08001 0.899998C1.09001 0.879998 1.10001 0.859998 1.13001 0.819998C1.16001 0.779998 1.17001 0.729998 1.18001 0.689998C1.18001 0.679998 1.18001 0.679998 1.18001 0.669998C1.19001 0.639998 1.18001 0.579998 1.17001 0.539998C1.17001 0.529998 1.17001 0.509998 1.16001 0.499998C1.16001 0.459998 1.16001 0.419998 1.16001 0.409998C1.18001 0.369998 1.26001 0.339998 1.34001 0.309998C1.38001 0.289998 1.43001 0.279998 1.47001 0.259998H1.48001C1.53001 0.259998 1.62001 0.479998 1.62001 0.489998C1.63001 0.519998 1.69001 0.619998 1.75001 0.669998C1.78001 0.689998 1.80001 0.709998 1.83001 0.729998C1.86001 0.749998 1.90001 0.769998 1.93001 0.799998C1.99001 0.849998 2.04001 0.919998 2.06001 0.949998C2.08001 0.989998 2.11001 1.08 2.11001 1.11C2.11001 1.12 2.11001 1.13 2.11001 1.14C2.11001 1.15 2.11001 1.16 2.11001 1.17C2.11001 1.18 2.11001 1.2 2.11001 1.21V1.22V1.23C2.11001 1.24 2.12001 1.24 2.12001 1.25C2.12001 1.26 2.12001 1.27 2.12001 1.29C2.12001 1.3 2.12001 1.31 2.12001 1.33C2.13001 1.35 2.15001 1.45 2.16001 1.47C2.17001 1.49 2.16001 1.5 2.16001 1.51V1.52C2.16001 1.53 2.16001 1.53 2.17001 1.54C2.17001 1.55 2.18001 1.55 2.18001 1.56C2.19001 1.58 2.21001 1.69 2.21001 1.7C2.21001 1.7 2.15001 1.62 2.13001 1.59C2.12001 1.57 2.09001 1.53 2.06001 1.5C2.03001 1.42 2.01001 1.4 2.00001 1.38C1.97001 1.34 1.93001 1.29 1.90001 1.26C1.89001 1.25 1.88001 1.24 1.87001 1.23C1.84001 1.2 1.80001 1.16 1.79001 1.15C1.78001 1.13 1.76001 1.1 1.75001 1.09C1.74001 1.1 1.73001 1.12 1.73001 1.13C1.73001 1.14 1.72001 1.15 1.72001 1.17C1.72001 1.18 1.72001 1.19 1.71001 1.2C1.70001 1.22 1.67001 1.26 1.65001 1.28C1.64001 1.29 1.62001 1.31 1.60001 1.34C1.58001 1.36 1.56001 1.38 1.55001 1.4H1.54001C1.51001 1.44 1.47001 1.48 1.46001 1.5C1.45001 1.53 1.42001 1.6 1.41001 1.65C1.41001 1.66 1.41001 1.67 1.40001 1.68C1.39001 1.73 1.37001 1.78 1.37001 1.83C1.37001 1.84 1.37001 1.84 1.37001 1.85C1.37001 1.88 1.37001 1.88 1.36001 1.88C1.35001 1.88 1.34001 1.87 1.33001 1.82C1.32001 1.77 1.31001 1.7 1.31001 1.66C1.31001 1.63 1.31001 1.59 1.31001 1.55C1.31001 1.54 1.31001 1.53 1.31001 1.53C1.31001 1.5 1.29001 1.44 1.27001 1.4C1.26001 1.37 1.19001 1.3 1.17001 1.28C1.17001 1.29 1.16001 1.31 1.14001 1.34C1.13001 1.37 1.10001 1.44 1.08001 1.49C1.07001 1.5 1.07001 1.52 1.07001 1.53C1.06001 1.56 1.05001 1.6 1.04001 1.64C1.03001 1.66 1.03001 1.68 1.03001 1.69C1.02001 1.71 0.98001 1.81 0.97001 1.82C0.96001 1.83 0.940009 1.9 0.940009 1.92C0.920009 1.96 0.910009 2 0.910009 2.01ZM0.910009 2C0.910009 1.99 0.92001 1.96 0.92001 1.94C0.92001 1.92 0.940009 1.85 0.950009 1.84C0.960009 1.82 1.00001 1.73 1.01001 1.71C1.01001 1.7 1.02001 1.68 1.02001 1.66C1.03001 1.62 1.04001 1.58 1.05001 1.55C1.05001 1.54 1.06001 1.53 1.06001 1.51C1.08001 1.46 1.11001 1.38 1.12001 1.36C1.13001 1.32 1.15001 1.29 1.15001 1.29C1.15001 1.29 1.24001 1.37 1.25001 1.41C1.27001 1.45 1.29001 1.51 1.29001 1.54C1.29001 1.55 1.29001 1.55 1.29001 1.56C1.29001 1.59 1.29001 1.64 1.29001 1.67C1.29001 1.7 1.30001 1.77 1.31001 1.83C1.32001 1.88 1.32001 1.88 1.33001 1.88C1.33001 1.88 1.33001 1.88 1.34001 1.88C1.34001 1.88 1.34001 1.87 1.34001 1.86C1.34001 1.85 1.34001 1.85 1.34001 1.84C1.35001 1.79 1.36001 1.73 1.37001 1.69C1.37001 1.68 1.37001 1.67 1.38001 1.66C1.39001 1.61 1.42001 1.53 1.43001 1.51C1.44001 1.48 1.48001 1.44 1.51001 1.4L1.52001 1.39C1.54001 1.37 1.55001 1.35 1.57001 1.33C1.59001 1.3 1.61001 1.28 1.62001 1.27C1.64001 1.25 1.67001 1.21 1.68001 1.19C1.68001 1.18 1.68001 1.17 1.69001 1.16C1.69001 1.15 1.70001 1.13 1.70001 1.12C1.71001 1.1 1.73001 1.08 1.73001 1.08C1.73001 1.08 1.75001 1.12 1.77001 1.14C1.78001 1.16 1.82001 1.2 1.85001 1.22C1.86001 1.23 1.88001 1.25 1.88001 1.25C1.90001 1.28 1.95001 1.33 1.98001 1.37C1.99001 1.39 2.01001 1.41 2.04001 1.44C2.07001 1.48 2.10001 1.51 2.12001 1.53C2.14001 1.56 2.17001 1.61 2.19001 1.63C2.18001 1.6 2.17001 1.52 2.16001 1.51C2.16001 1.5 2.15001 1.5 2.15001 1.49C2.15001 1.48 2.14001 1.48 2.14001 1.47C2.14001 1.46 2.14001 1.46 2.14001 1.45C2.14001 1.44 2.15001 1.43 2.14001 1.42C2.13001 1.39 2.11001 1.3 2.10001 1.28C2.10001 1.27 2.10001 1.26 2.10001 1.24C2.10001 1.23 2.10001 1.22 2.10001 1.21C2.10001 1.2 2.09001 1.19 2.09001 1.19C2.09001 1.18 2.08001 1.18 2.08001 1.18V1.17C2.08001 1.16 2.08001 1.15 2.08001 1.14C2.08001 1.13 2.08001 1.12 2.08001 1.11C2.08001 1.1 2.08001 1.09 2.08001 1.08C2.08001 1.06 2.05001 0.959998 2.03001 0.919998C2.01001 0.889998 1.96001 0.819998 1.90001 0.769998C1.87001 0.739998 1.84001 0.719998 1.80001 0.699998C1.77001 0.679998 1.75001 0.659998 1.72001 0.639998C1.66001 0.589998 1.60001 0.489998 1.59001 0.459998C1.57001 0.399998 1.50001 0.239998 1.45001 0.239998C1.45001 0.239998 1.45001 0.239998 1.44001 0.239998C1.40001 0.259998 1.36001 0.279998 1.31001 0.289998C1.23001 0.319998 1.15001 0.349998 1.14001 0.389998C1.13001 0.399998 1.13001 0.429998 1.14001 0.479998C1.14001 0.489998 1.14001 0.499998 1.14001 0.519998C1.15001 0.569998 1.16001 0.629998 1.15001 0.659998C1.15001 0.659998 1.15001 0.669998 1.15001 0.679998C1.14001 0.719998 1.12001 0.769998 1.10001 0.809998C1.08001 0.849998 1.06001 0.869998 1.05001 0.889998C1.05001 0.899998 1.03001 0.909998 1.02001 0.919998C1.01001 0.929998 1.01001 0.929998 1.00001 0.939998C1.02001 0.949998 1.00001 0.999998 1.00001 1.01C1.00001 1.02 0.990009 1.03 0.980009 1.04C0.970009 1.05 0.97001 1.06 0.97001 1.06C0.96001 1.08 0.96001 1.11 0.96001 1.12C0.96001 1.12 0.96001 1.13 0.96001 1.14C0.96001 1.16 0.95001 1.19 0.96001 1.21C0.96001 1.24 0.96001 1.26 0.97001 1.27C0.97001 1.28 0.97001 1.28 0.97001 1.29C0.97001 1.29 0.97001 1.3 0.97001 1.31C0.97001 1.33 0.97001 1.36 0.97001 1.36C0.97001 1.36 0.950009 1.41 0.940009 1.42C0.940009 1.43 0.940009 1.45 0.940009 1.46C0.940009 1.47 0.96001 1.49 0.96001 1.49C0.96001 1.49 0.96001 1.51 0.96001 1.53C0.96001 1.54 0.97001 1.55 0.97001 1.56C0.97001 1.57 0.980009 1.58 0.980009 1.58V1.59C0.980009 1.6 0.980009 1.61 0.980009 1.63C0.980009 1.66 0.98001 1.72 0.97001 1.74C0.96001 1.76 0.92001 1.83 0.92001 1.86C0.90001 1.93 0.910009 1.99 0.910009 2Z" fill="#60750A"/>
<path fill-rule="evenodd" clip-rule="evenodd" d="M1.71 1.81001C1.71 1.76001 1.72 1.53001 1.78 1.60001C1.85 1.67001 1.84 1.78001 1.9 2.09001C1.95 2.37001 1.99 2.68001 2.01 2.93001C2.03 3.23001 1.89 3.39 1.76 3.29C1.6 3.16 1.7 2.98 1.71 2.53C1.71 2.07 1.7 2.00001 1.71 1.81001Z" fill="#5A2E54"/>
<path fill-rule="evenodd" clip-rule="evenodd" d="M1.99 1.01C1.97 0.910001 1.94 0.880001 1.89 0.810001C1.86 0.780001 1.78 0.730001 1.76 0.710001C1.6 0.620001 1.53 0.300001 1.49 0.290001C1.48 0.290001 1.44 0.310001 1.42 0.320001C1.35 0.350001 1.35 0.360001 1.36 0.380001C1.38 0.440001 1.4 0.480001 1.42 0.540001C1.45 0.640001 1.47 0.670001 1.43 0.770001C1.41 0.830001 1.38 0.920001 1.38 1.02C1.38 1.05 1.42 1.36 1.47 1.24C1.51 1.15 1.52 1.19 1.6 1.12C1.63 1.09 1.6 0.900001 1.7 0.910001C1.81 0.920001 1.88 1.03 1.91 1.08C1.95 1.14 2 1.23 2 1.21C2 1.19 2.02 1.11 1.99 1.01Z" fill="#8AA626"/>
<path fill-rule="evenodd" clip-rule="evenodd" d="M1.71001 0.81C1.71001 0.78 1.69001 0.77 1.66001 0.75C1.63001 0.73 1.60001 0.68 1.58001 0.65C1.54001 0.55 1.49001 0.39 1.47001 0.36C1.47001 0.35 1.41001 0.36 1.42001 0.37C1.45001 0.45 1.52001 0.66 1.51001 0.74C1.50001 0.78 1.49001 0.84 1.48001 0.86C1.46001 0.89 1.46001 0.9 1.58001 0.81C1.65001 0.76 1.71001 0.82 1.71001 0.81Z" fill="#9BB429"/>
</svg>
