<svg width="41" height="35" viewBox="0 0 41 35" fill="none" xmlns="http://www.w3.org/2000/svg">
<path d="M35.4613 23.5436C36.9202 28.1146 34.4803 32.8798 30.0189 34.1843C25.5525 35.4889 20.7525 32.8349 19.2936 28.259C17.8346 23.688 20.2745 18.9229 24.7359 17.6183C29.2023 16.3187 34.0023 18.9677 35.4613 23.5436Z" fill="url(#paint0_radial)"/>
<path d="M27.2754 24.5743C28.2613 25.9884 27.9675 27.9005 26.6131 28.8465C25.2588 29.7976 23.3567 29.4142 22.3708 28.005C21.3799 26.5909 21.6787 24.6789 23.033 23.7279C24.3874 22.7818 26.2895 23.1602 27.2754 24.5743Z" fill="url(#paint1_linear)"/>
<path d="M40.7 5.92517C42.0444 10.1426 38.7431 14.843 33.3257 16.4215C27.9083 18.0049 22.4261 15.8638 21.0817 11.6463C19.7373 7.4289 23.0385 2.72848 28.456 1.15005C33.8734 -0.428379 39.3506 1.70772 40.7 5.92517Z" fill="url(#paint2_radial)"/>
<path d="M38.8726 5.91521C39.7838 7.21978 39.51 8.98243 38.2602 9.85878C37.0104 10.7302 35.2627 10.3866 34.3465 9.08202C33.4353 7.77745 33.7091 6.01479 34.9589 5.14342C36.2087 4.26706 37.9614 4.61064 38.8726 5.91521Z" fill="url(#paint3_linear)"/>
<path d="M1.43349 6.41812C3.61441 3.33596 8.72314 3.33098 12.851 6.41812C16.9788 9.50029 18.5572 14.4945 16.3763 17.5767C14.1954 20.6588 9.08663 20.6638 4.95881 17.5816C0.831 14.4995 -0.74743 9.50029 1.43349 6.41812Z" fill="url(#paint4_radial)"/>
<path d="M2.44423 7.73264C2.83759 6.42309 4.22183 5.73097 5.5264 6.18906C6.83096 6.64217 7.56789 8.07123 7.17453 9.38077C6.78117 10.6903 5.39694 11.3824 4.09237 10.9243C2.7878 10.4662 2.05086 9.0372 2.44423 7.73264Z" fill="url(#paint5_linear)"/>
<defs>
<radialGradient id="paint0_radial" cx="0" cy="0" r="1" gradientUnits="userSpaceOnUse" gradientTransform="translate(27.3764 25.9206) rotate(-34.978) scale(8.37694 8.73881)">
<stop offset="0.2247" stop-color="#D1DE54"/>
<stop offset="1" stop-color="#8C8C52"/>
</radialGradient>
<linearGradient id="paint1_linear" x1="22.3467" y1="27.992" x2="27.2515" y2="24.561" gradientUnits="userSpaceOnUse">
<stop offset="0.0112" stop-color="#B58500"/>
<stop offset="0.1349" stop-color="#A5790A"/>
<stop offset="0.375" stop-color="#8A6519"/>
<stop offset="0.5169" stop-color="#805E1F"/>
<stop offset="0.6143" stop-color="#78511C"/>
<stop offset="0.795" stop-color="#632E15"/>
<stop offset="1" stop-color="#47000C"/>
</linearGradient>
<radialGradient id="paint2_radial" cx="0" cy="0" r="1" gradientUnits="userSpaceOnUse" gradientTransform="translate(30.8511 8.77191) rotate(-16.2608) scale(9.08114 9.39375)">
<stop offset="0.2247" stop-color="#BFC469"/>
<stop offset="0.3489" stop-color="#BBBF62"/>
<stop offset="0.5319" stop-color="#AFB14E"/>
<stop offset="0.7513" stop-color="#9C9A2D"/>
<stop offset="0.9972" stop-color="#827A01"/>
<stop offset="1" stop-color="#827A00"/>
</radialGradient>
<linearGradient id="paint3_linear" x1="39.2738" y1="8.91305" x2="33.6088" y2="5.90675" gradientUnits="userSpaceOnUse">
<stop offset="0.0112" stop-color="#B58500"/>
<stop offset="0.1349" stop-color="#A5790A"/>
<stop offset="0.375" stop-color="#8A6519"/>
<stop offset="0.5169" stop-color="#805E1F"/>
<stop offset="0.6143" stop-color="#78511C"/>
<stop offset="0.795" stop-color="#632E15"/>
<stop offset="1" stop-color="#47000C"/>
</linearGradient>
<radialGradient id="paint4_radial" cx="0" cy="0" r="1" gradientUnits="userSpaceOnUse" gradientTransform="translate(8.9074 12.009) rotate(-143.25) scale(8.27356 7.99948)">
<stop offset="0.2247" stop-color="#BFBD69"/>
<stop offset="0.3489" stop-color="#BAB762"/>
<stop offset="0.5319" stop-color="#AEA74E"/>
<stop offset="0.7513" stop-color="#9A8D2D"/>
<stop offset="0.9972" stop-color="#7D6901"/>
<stop offset="1" stop-color="#7D6900"/>
</radialGradient>
<linearGradient id="paint5_linear" x1="4.36787" y1="5.89355" x2="5.25812" y2="11.4841" gradientUnits="userSpaceOnUse">
<stop offset="0.0112" stop-color="#B58500"/>
<stop offset="0.1349" stop-color="#A5790A"/>
<stop offset="0.375" stop-color="#8A6519"/>
<stop offset="0.5169" stop-color="#805E1F"/>
<stop offset="0.6143" stop-color="#78511C"/>
<stop offset="0.795" stop-color="#632E15"/>
<stop offset="1" stop-color="#47000C"/>
</linearGradient>
</defs>
</svg>
