<svg width="3" height="5" viewBox="0 0 3 5" fill="none" xmlns="http://www.w3.org/2000/svg">
<path d="M1.31001 1.55C1.31001 1.55 1.36001 1.53 1.47001 1.5C1.58001 1.48 1.70001 1.49 1.74001 1.51C1.78001 1.53 1.83001 1.54 1.83001 1.54C1.83001 1.54 1.87001 1.51 1.92001 1.51C1.97001 1.5 2.01001 1.49 2.08001 1.53C2.15001 1.57 2.19001 1.59 2.19001 1.59C2.19001 1.59 2.24001 1.56 2.37001 1.59C2.50001 1.62 2.55001 1.65 2.63001 1.72C2.71001 1.79 2.78001 1.93 2.84001 2.05C2.89001 2.17 2.91001 2.31 2.86001 2.52C2.81001 2.73 2.68001 2.99 2.65001 3.15C2.62001 3.31 2.62001 3.62 2.53001 3.76C2.44001 3.9 2.37001 4.02 2.25001 4.05C2.13001 4.08 1.92001 4.05 1.92001 4.05C1.92001 4.05 1.86001 4.18 1.72001 4.21C1.59001 4.24 1.48001 4.25 1.41001 4.21C1.34001 4.18 1.25001 4.09 1.25001 4.09C1.25001 4.09 1.20001 4.13 1.11001 4.11C1.00001 4.09 0.780005 3.99 0.700005 3.85C0.620005 3.71 0.540006 3.49 0.550006 3.33C0.560006 3.17 0.500006 3.17 0.420006 2.9C0.340006 2.63 0.260006 2.33 0.320006 2.14C0.380006 1.95 0.410005 1.89 0.560005 1.73C0.710005 1.57 0.790006 1.49 0.920006 1.46C1.08001 1.43 1.15001 1.4 1.31001 1.55Z" fill="#F4B72F"/>
<path d="M2.07001 2.06C2.09001 2.23 2.11001 2.39 2.10001 2.56C2.09001 2.72 2.06001 2.88 2.03001 3.04C2.00001 3.21 1.97001 3.38 1.95001 3.56C1.96001 3.56 1.96001 3.56 1.97001 3.56C2.04001 3.57 2.11001 3.58 2.18001 3.6C2.31001 3.61 2.44001 3.62 2.57001 3.62C2.61001 3.47 2.62001 3.28 2.63001 3.16C2.66001 3 2.79001 2.73 2.84001 2.53C2.86001 2.45 2.87001 2.38 2.87001 2.32C2.80001 2.29 2.74001 2.25 2.68001 2.2C2.61001 2.13 2.56001 2.05 2.50001 1.96C2.45001 1.94 2.41001 1.92 2.36001 1.89C2.30001 1.87 2.25001 1.86 2.19001 1.84C2.16001 1.83 2.13001 1.82 2.10001 1.81C2.09001 1.82 2.08001 1.84 2.07001 1.85C2.05001 1.89 2.02001 1.92 2.00001 1.96C2.03001 1.98 2.05001 2.02 2.07001 2.06Z" fill="#FFC10E"/>
<path d="M2.59001 3.54C2.42001 3.6 2.31001 3.51 2.29001 3.37C2.27001 3.21 2.30001 3 2.31001 2.84C2.32001 2.73 2.33001 2.29 2.28001 2.03C2.26001 1.91 2.19001 1.83 2.15001 1.82C2.06001 1.85 2.10001 2.34 2.01001 2.38C2.03001 2.55 2.01001 2.73 1.96001 2.89C1.91001 3.03 1.85001 3.16 1.79001 3.3C1.76001 3.39 1.73001 3.47 1.71001 3.56C1.71001 3.6 1.71001 3.63 1.71001 3.66C1.76001 3.74 1.80001 3.83 1.84001 3.91C1.86001 3.95 1.88001 3.99 1.89001 4.03V4.02C1.89001 4.02 2.10001 4.05 2.22001 4.02C2.33001 3.99 2.40001 3.89 2.48001 3.77C2.55001 3.71 2.58001 3.56 2.59001 3.54Z" fill="#F4B72F"/>
<path d="M1.6 1.49C1.6 1.49 1.55 1.49 1.51 1.49C1.47 1.49 1.41 1.51 1.37 1.52C1.33 1.53 1.3 1.54 1.3 1.54C1.3 1.54 1.34 1.61 1.35 1.6C1.43 1.53 1.65 1.55 1.65 1.55L1.6 1.49Z" fill="#FFD72E"/>
<path d="M1.36 1.56C1.42 1.5 1.55 1.5 1.6 1.5C1.65 1.51 1.63 1.54 1.62 1.53C1.61 1.53 1.51 1.52 1.46 1.53C1.4 1.55 1.35 1.57 1.36 1.56Z" fill="#FFF8B7"/>
<path d="M1.8 1.56C1.8 1.56 1.87 1.48 2 1.49C2.07 1.49 2.17 1.57 2.18 1.58C2.13 1.59 2.11 1.6 2.1 1.6C2.09 1.6 2.06 1.58 2.04 1.57C1.94 1.52 1.83 1.58 1.82 1.59C1.81 1.6 1.78 1.59 1.78 1.59L1.8 1.56Z" fill="#FFCE07"/>
<path d="M2.02 1.66C2.02 1.66 2.02 1.65 2.1 1.6C2.22 1.53 2.41 1.56 2.52 1.62C2.62 1.69 2.64 1.72 2.69 1.78C2.75 1.86 2.77 1.9 2.77 1.92C2.78 1.94 2.71 1.87 2.69 1.85C2.67 1.83 2.61 1.77 2.58 1.74C2.54 1.71 2.5 1.69 2.43 1.67C2.36 1.65 2.3 1.65 2.25 1.66C2.2 1.67 2.06 1.71 2.06 1.71L2.02 1.66Z" fill="#FFCE07"/>
<path d="M2.03 1.78C2.03 1.78 2.07 1.74 2.14 1.73C2.2 1.71 2.25 1.71 2.35 1.71C2.48 1.72 2.58 1.79 2.63 1.83C2.69 1.87 2.76 1.97 2.79 2.03C2.82 2.09 2.86 2.18 2.87 2.26C2.88 2.32 2.85 2.44 2.83 2.48C2.74 2.68 2.65 2.76 2.58 2.46C2.57 2.4 2.52 2.15 2.47 2.07C2.32 1.83 2.14 1.84 2.14 1.84H2.09L2.03 1.78Z" fill="#FFCE07"/>
<path d="M1.37001 1.59C1.37001 1.59 1.30001 1.5 1.22001 1.46C1.12001 1.42 1.07001 1.42 0.990006 1.44C0.890006 1.46 0.840006 1.49 0.810006 1.5C0.710006 1.55 0.600006 1.69 0.600006 1.69C0.600006 1.69 0.760006 1.59 0.850006 1.58C0.930006 1.56 1.00001 1.55 1.10001 1.57C1.20001 1.59 1.20001 1.63 1.25001 1.65C1.30001 1.67 1.39001 1.63 1.39001 1.63L1.37001 1.59Z" fill="#FFCE07"/>
<path d="M1.49 4.13999C1.45 4.00999 1.47 3.85999 1.54 3.73999C1.59 3.65999 1.65 3.59999 1.73 3.54999C1.74 3.54999 1.75 3.54 1.76 3.54C1.77 3.54 1.77 3.53 1.78 3.53C1.83 3.49 1.87 3.43999 1.92 3.38999C1.97 3.32999 2.03 3.26999 2.08 3.20999C2.09 3.18999 2.11 3.16999 2.12 3.14999C2.12 3.13999 2.13 3.12 2.13 3.11C2.14 2.98 2.12 2.83999 2.11 2.70999C2.09 2.56999 2.06 2.43 2.06 2.29C2.06 2.24 2.06 2.18999 2.05 2.13999H2.04C1.91 2.10999 1.79 2.06 1.67 2.01C1.59 1.97 1.5 1.93 1.42 1.89C1.36 1.86 1.42 1.8 1.36 1.77C1.33 1.75 1.22 1.64999 1.04 1.65999C0.969997 1.65999 0.739997 1.68 0.579997 1.79C0.399997 1.92 0.329997 2.11999 0.309997 2.37999C0.289997 2.59999 0.379997 2.79 0.479998 3.08C0.529998 3.21 0.559997 3.24 0.559997 3.36C0.549997 3.52 0.629998 3.73999 0.709998 3.87999C0.789998 4.01999 1.01 4.11999 1.1 4.13999C1.19 4.15999 1.24 4.12 1.24 4.12C1.24 4.12 1.32 4.20999 1.4 4.23999C1.43 4.25999 1.48 4.26 1.53 4.26C1.51 4.2 1.5 4.16999 1.49 4.13999Z" fill="#ECAE2C"/>
<path d="M1.20001 1.66C1.20001 1.66 1.22001 1.65 1.21001 1.62C1.20001 1.59 1.20001 1.58 1.20001 1.58C1.20001 1.58 1.23001 1.6 1.27001 1.61C1.31001 1.62 1.32001 1.61 1.37001 1.61C1.42001 1.6 1.44001 1.6 1.47001 1.58C1.50001 1.56 1.48001 1.52 1.51001 1.55C1.54001 1.59 1.64001 1.6 1.70001 1.61C1.75001 1.61 1.83001 1.62 1.89001 1.61C1.95001 1.6 1.97001 1.58 1.98001 1.58C1.99001 1.58 1.98001 1.6 2.02001 1.64C2.07001 1.68 2.07001 1.65 2.09001 1.68C2.11001 1.71 2.12001 1.71 2.13001 1.74C2.14001 1.77 2.10001 1.81 2.10001 1.81L1.79001 1.86C1.79001 1.86 1.44001 1.76 1.36001 1.75C1.31001 1.72 1.20001 1.66 1.20001 1.66Z" fill="#69AA1F"/>
<path d="M1.24001 1.69C1.24001 1.69 1.27001 1.68 1.31001 1.69C1.35001 1.7 1.32001 1.7 1.37001 1.7C1.42001 1.69 1.44001 1.69 1.47001 1.67C1.50001 1.65 1.50001 1.64 1.53001 1.65C1.56001 1.66 1.64001 1.7 1.69001 1.7C1.74001 1.7 1.78001 1.69 1.84001 1.68C1.90001 1.67 2.03001 1.71 2.05001 1.73C2.07001 1.76 2.07001 1.8 2.08001 1.83C2.09001 1.85 2.10001 1.9 2.10001 1.9L1.79001 1.95C1.79001 1.95 1.45001 1.78 1.38001 1.77C1.34001 1.74 1.24001 1.69 1.24001 1.69Z" fill="#639A23"/>
<path d="M1.42 1.77C1.42 1.77 1.51 1.71 1.54 1.61C1.57 1.51 1.57 1.37 1.57 1.33C1.57 1.29 1.57 1.31 1.55 1.14C1.53 0.969997 1.48 0.879997 1.44 0.829997C1.4 0.779997 1.36 0.769997 1.36 0.719997C1.36 0.669997 1.36 0.609998 1.4 0.559998C1.44 0.509998 1.45 0.469997 1.51 0.469997C1.57 0.469997 1.62 0.469998 1.65 0.519998C1.68 0.569998 1.7 0.559997 1.73 0.759997C1.76 0.959997 1.72 1.21 1.73 1.34C1.74 1.47 1.75 1.54 1.8 1.6C1.84 1.67 1.86 1.67 1.91 1.71C1.95 1.75 1.98 1.8 1.98 1.8L1.73 1.86L1.42 1.77Z" fill="#538413"/>
<path d="M1.73 1.85L1.41 1.77H1.42C1.42 1.77 1.51 1.71 1.54 1.61C1.57 1.52 1.57 1.41 1.57 1.35C1.57 1.34 1.57 1.34 1.57 1.33V1.32C1.57 1.29 1.57 1.29 1.56 1.2C1.56 1.18 1.56 1.16 1.55 1.14C1.53 0.969997 1.48 0.879997 1.44 0.829997C1.43 0.809997 1.41 0.799997 1.4 0.789997C1.38 0.769997 1.36 0.749997 1.36 0.719997C1.36 0.669997 1.36 0.609997 1.4 0.549997C1.41 0.539997 1.42 0.529997 1.42 0.509997C1.44 0.479997 1.46 0.449997 1.5 0.449997H1.52C1.57 0.449997 1.61 0.449997 1.64 0.499997C1.65 0.509997 1.65 0.519998 1.66 0.519998C1.68 0.549998 1.7 0.569997 1.73 0.729997C1.75 0.849997 1.74 0.989997 1.73 1.11C1.72 1.19 1.72 1.26 1.72 1.31C1.73 1.45 1.75 1.51 1.79 1.57C1.82 1.62 1.84 1.64 1.87 1.66C1.88 1.67 1.89 1.68 1.9 1.69C1.94 1.73 1.97 1.78 1.97 1.78L1.73 1.85ZM1.43 1.77L1.73 1.85L1.98 1.79C1.97 1.78 1.95 1.73 1.91 1.7C1.9 1.69 1.89 1.68 1.88 1.67C1.85 1.65 1.83 1.63 1.8 1.58C1.76 1.51 1.74 1.45 1.73 1.32C1.73 1.27 1.73 1.2 1.74 1.12C1.75 0.999997 1.76 0.859997 1.74 0.739997C1.71 0.579997 1.7 0.559997 1.67 0.529997C1.67 0.519997 1.66 0.509997 1.65 0.509997C1.62 0.469997 1.59 0.459997 1.54 0.459997H1.52C1.48 0.459997 1.46 0.479998 1.44 0.519998C1.43 0.529998 1.43 0.539998 1.42 0.559998C1.38 0.609998 1.38 0.669997 1.38 0.719997C1.38 0.749997 1.39 0.769997 1.42 0.789997C1.43 0.799997 1.45 0.809997 1.46 0.829997C1.5 0.879997 1.55 0.969997 1.57 1.15C1.57 1.17 1.58 1.19 1.58 1.21C1.59 1.3 1.59 1.3 1.59 1.33V1.34C1.59 1.35 1.59 1.35 1.59 1.36C1.59 1.42 1.58 1.53 1.56 1.62C1.53 1.7 1.45 1.76 1.43 1.77Z" fill="#527700"/>
<path d="M2.04001 3.68C2.10001 3.48 2.20001 3 2.23001 2.79C2.23001 2.79 2.28001 2.32 2.24001 1.98C2.22001 1.86 2.11001 1.8 2.02001 1.76C2.02001 1.76 1.91001 1.71 1.82001 1.72C1.77001 1.73 1.69001 1.78 1.65001 1.78C1.58001 1.79 1.54001 1.74 1.47001 1.74C1.39001 1.74 1.32001 1.76 1.28001 1.78C1.24001 1.8 1.15001 1.86 1.12001 1.91C1.09001 1.96 1.01001 2.1 1.00001 2.18C0.970005 2.39 0.990005 2.79999 0.990005 2.95999C0.990005 3.05999 1.03001 3.38 1.05001 3.52C1.08001 3.75 1.20001 4.03 1.24001 4.08C1.27001 4.12 1.32001 4.17 1.40001 4.2C1.47001 4.23 1.58001 4.23 1.71001 4.2C1.84001 4.17 1.91001 4.04 1.91001 4.04C1.91001 4.04 1.99001 3.89 2.04001 3.68Z" fill="#FFC10E"/>
<path d="M1.57 1.84C1.46 1.87 1.34 1.97 1.3 2.11C1.27 2.24 1.25 2.77 1.26 3.06C1.27 3.45 1.38 3.68 1.48 3.73C1.6 3.79 1.9 3.76 1.99 3.51C2.31 2.65 2.22 2.1 2.13 1.95C2 1.74 1.67 1.81 1.57 1.84Z" fill="#FFCE07"/>
<path d="M1.65 1.83C1.56 1.85 1.45 1.93 1.42 2.04C1.39 2.14 1.41 2.58 1.42 2.81C1.43 3.11 1.54 3.41 1.63 3.43C1.72 3.45 1.89 3.44 1.97 3.25C2.25 2.58 2.21 2.04 2.13 1.92C2.02 1.75 1.75 1.81 1.65 1.83Z" fill="#FFD72E"/>
<path d="M1.29001 1.56C1.29001 1.55 1.28001 1.54 1.27001 1.53C1.23001 1.48 1.14001 1.45 1.03001 1.47C0.970008 1.48 0.930008 1.51 0.940008 1.52C0.950008 1.52 1.10001 1.51 1.17001 1.53C1.24001 1.55 1.28001 1.58 1.29001 1.58C1.30001 1.58 1.29001 1.57 1.29001 1.56Z" fill="#FFF8B7"/>
<path d="M1.82 1.56C1.84 1.53 1.9 1.51 1.93 1.5C1.97 1.5 2 1.5 2.04 1.51C2.08 1.52 2.12 1.54 2.14 1.56C2.16 1.58 2.13 1.57 2.12 1.56C2.11 1.55 2.05 1.53 2.01 1.52C1.88 1.52 1.81 1.57 1.82 1.56Z" fill="#FFF8B7"/>
<path d="M2.09001 1.65C2.09001 1.61 2.19001 1.58 2.27001 1.58C2.35001 1.58 2.42001 1.59 2.49001 1.63C2.56001 1.67 2.66001 1.75 2.68001 1.83C2.60001 1.74 2.47001 1.66 2.42001 1.65C2.24001 1.61 2.14001 1.68 2.13001 1.68C2.12001 1.68 2.09001 1.66 2.09001 1.65Z" fill="#FFF8B7"/>
<path d="M2.15001 1.75C2.18001 1.74 2.22001 1.72 2.31001 1.73C2.56001 1.74 2.74001 1.95 2.77001 2.08C2.79001 2.15 2.68001 2.14 2.65001 2.1C2.63001 2.07 2.57001 1.92 2.51001 1.87C2.45001 1.82 2.36001 1.73 2.15001 1.75Z" fill="#FFEB82"/>
<path d="M2.00001 1.9C2.08001 1.96 2.11001 2.04 2.09001 2.14C2.06001 2.27 2.04001 2.39 1.98001 2.41C1.92001 2.42 1.83001 2.27 1.84001 2.2C1.84001 2.13 1.82001 2.06 1.73001 2.01C1.64001 1.96 1.66001 1.89 1.71001 1.89C1.75001 1.88 1.89001 1.82 2.00001 1.9Z" fill="#FFEB80"/>
<path d="M1.45 0.629996C1.44 0.589996 1.46 0.479997 1.55 0.519997C1.63 0.559997 1.71 0.619997 1.71 0.799997C1.71 0.979997 1.7 0.999996 1.7 1.13C1.73 1.68 1.7 1.53 1.79 1.65C1.81 1.67 1.65 1.7 1.63 1.7C1.61 1.7 1.64 1.62 1.64 1.42C1.64 1.46 1.67 0.879996 1.59 0.819996C1.5 0.739996 1.46 0.689996 1.45 0.629996Z" fill="#5E9418"/>
<path d="M1.52 0.629998C1.52 0.609998 1.54 0.579999 1.58 0.599999C1.65 0.639999 1.68 0.789998 1.69 0.919998C1.69 1.02 1.69 1.09 1.69 1.09C1.69 1.09 1.66 0.809998 1.63 0.759998C1.58 0.699998 1.52 0.669998 1.52 0.629998Z" fill="#69AA1F"/>
<path d="M0.450006 2.02C0.520006 1.89 0.660006 1.76 0.800006 1.72C0.890006 1.69 1.11001 1.62 1.23001 1.71C1.26001 1.73 1.25001 1.78 1.14001 1.85C0.960006 1.97 0.940006 2.19 0.910006 2.33C0.880006 2.47 0.850006 2.97 0.930006 3.31C0.970006 3.49 1.01001 3.65 0.930006 3.67C0.860006 3.69 0.810006 3.67 0.740006 3.52C0.680006 3.4 0.700006 3.3 0.690006 3.27C0.560006 3.1 0.440006 2.74 0.410006 2.5C0.400006 2.35 0.370006 2.2 0.450006 2.02Z" fill="#F6B81D"/>
<path d="M0.520004 2.02C0.590004 1.89 0.670004 1.8 0.800004 1.75C0.890004 1.72 1.08 1.66 1.18 1.73C1.21 1.75 1.23 1.77 1.12 1.84C0.940004 1.96 0.900004 2.2 0.870004 2.34C0.840004 2.48 0.790004 2.65 0.710004 2.67C0.650004 2.69 0.480004 2.73 0.460004 2.49C0.450004 2.32 0.470004 2.12 0.520004 2.02Z" fill="#FBC312"/>
<path d="M0.800011 1.78C0.910011 1.73 0.950012 1.73 1.02001 1.73C1.10001 1.72 1.14001 1.73 1.16001 1.75C1.18001 1.77 1.14001 1.78 1.05001 1.85C0.970011 1.92 0.920011 1.95 0.900011 2.07C0.880011 2.18 0.740011 2.24 0.680011 2.22C0.620011 2.19 0.540011 2.18 0.580011 2.06C0.620011 1.92 0.710011 1.82 0.800011 1.78Z" fill="#FDCF23"/>
</svg>
