<svg width="45" height="40" viewBox="0 0 45 40" fill="none" xmlns="http://www.w3.org/2000/svg">
<path d="M16.43 18.81C16.99 18.57 17.35 18.31 17.56 18.08C17.77 17.85 19.48 16.38 20.14 16.57C20.79 16.77 21.33 17.57 21.54 18.24C21.75 18.91 23.1 18.94 21.85 19.77C20.6 20.6 20 22.2 19.2 21.45C18.41 20.71 16.43 18.81 16.43 18.81Z" fill="#715E91"/>
<path d="M19.38 17.82C20 16.13 19.65 12.13 18.94 11.33C18.23 10.53 18.5 11.24 17.07 9.72999C15.64 8.21999 14.14 7.06002 14.14 7.51002C14.14 7.95002 11.29 6.71 8.53998 7.24C5.77998 7.77 4.26998 9.73002 4.53998 9.82002C4.80998 9.91002 6.13999 10.8 6.75999 11.95C7.37999 13.11 9.51998 13.91 9.51998 13.91C9.51998 13.91 8.44998 14.44 8.80998 14.89C9.16998 15.33 9.78998 14.71 10.77 15.42C11.75 16.13 12.82 17.29 15.57 17.82C18.31 18.36 19.38 17.82 19.38 17.82Z" fill="#43355E"/>
<path d="M20.36 16.31C20.5 14.71 20.45 12.58 20.09 10.71C19.73 8.84003 22.27 4.71003 22.67 5.15003C23.07 5.59003 23.03 6.13001 23.03 6.13001C23.03 6.13001 25.79 1.86 27.61 1.37C29.43 0.880003 29.66 0.97003 29.43 1.46003C31.43 0.08003 33.88 0.0400105 34.72 0.44001C35.03 0.62001 34.45 1.20002 34.45 1.20002C34.45 1.20002 38.36 0.130032 39.96 0.400032C41.56 0.670032 41.78 1.46998 41.78 1.46998C41.78 1.46998 42.22 2.67001 42.98 2.94001C43.74 3.21001 43.51 4.00998 43.47 4.71998C43.43 5.42998 43.78 6.77003 44.18 6.90003C44.58 7.03003 44.22 8.06001 44.36 8.50001C44.49 8.94001 45.03 9.08001 44.58 9.88001C44.14 10.68 42.62 12.68 41.51 13.13C42.62 13.09 42.04 13.71 41.73 14.24C41.42 14.77 39.68 16.11 38.84 16.2C39.46 16.51 39.24 16.82 38.75 17.09C38.26 17.36 35.99 18.96 35.02 18.82C35.78 19.13 34.13 19.93 33.42 19.89C32.71 19.85 30.31 19.89 30.31 19.89C30.31 19.89 30.49 20.6 29.73 20.69C28.97 20.78 25.61 19.67 23.65 18.73C21.69 17.8 20.02 18.33 20.05 17.89C20.09 17.42 20.3 16.94 20.36 16.31Z" fill="#413854"/>
<path d="M16.93 19.38C15.6 17.47 11.37 16.4 9.68 16.4C7.99 16.4 8.61 16.84 8.61 16.84C8.61 16.84 5.67999 16.88 3.62999 19.35C1.57999 21.82 0.119995 25.2 0.919995 25.33C1.72 25.46 1.72 25.46 1.72 25.46C1.72 25.46 -0.15 27.86 0.48 30.39C1.1 32.92 1.36999 33.66 1.98999 33.62C2.60999 33.59 2.61 33.94 2.61 33.94C2.61 33.94 2.65 37.99 3.37 39.01C4.08 40.03 3.73 39.68 4.04 39.68C4.35 39.68 8.49 38.92 8.97 38.35C9.46 37.77 8.7 39.15 9.86 38.44C11.02 37.73 13.91 36.62 14.53 35.28C14.89 35.86 16.17 35.1 16.93 33.37C17.69 31.64 17.51 31.15 17.51 31.15C17.51 31.15 18.04 31.59 18.67 31.06C19.29 30.53 21.38 28.97 21.07 25.32C20.76 21.69 20 19.83 16.93 19.38Z" fill="#39314A"/>
<path d="M18.45 18.53C18.46 18.03 18.28 14.82 15.45 12.59C12.62 10.36 11.85 9.59003 8.10999 9.09003C12.61 9.46003 13.71 10.42 16.28 12.76C18.85 15.09 19.47 17.49 19.69 17.49C19.92 17.49 20.06 19.04 18.45 18.53Z" fill="#715E91"/>
<path d="M20.05 16.56C20.05 16.56 20.88 16.93 23.35 14.76C25.82 12.59 29.99 8.42001 33.65 6.39001C37.32 4.36001 40.72 3.96002 40.72 3.96002C40.72 3.96002 34.72 5.22997 31.15 8.65997C27.58 12.09 23.01 16.56 22.4 17.1C21.78 17.63 21.32 18.29 21.6 18.54C21.88 18.79 19.46 18.53 19.46 18.53L20.05 16.56Z" fill="#715E91"/>
<path d="M16.99 18.58C17.06 18.9 14.62 18.6 11.99 21.91C9.35999 25.23 8.45999 32.73 7.48999 34.1C9.78999 30.87 10.08 26.13 11.72 23.3C13.36 20.46 18.15 19.29 18.92 19.79C18.05 18.79 16.99 18.58 16.99 18.58Z" fill="#715E91"/>
<path d="M20.89 18.54C23.35 18.98 26.49 20.94 27.03 22.01C27.56 23.08 27.74 25.03 27.03 24.86C28.01 26.37 27.79 29.66 27.23 30.64C26.67 31.62 25.78 32.86 25.16 33.49C24.54 34.11 25.04 32.87 24.65 31.89C24.27 30.91 23.47 30.56 23.47 30.56C23.47 30.56 22.67 30.92 22.23 30.12C21.79 29.32 21.87 27.45 21.43 27.45C20.99 27.45 20.1 27.63 20.1 26.03C20.1 24.43 19.94 23.62 19.71 22.43C19.42 20.98 19.76 18.33 20.89 18.54Z" fill="#43355E"/>
<path d="M19.39 19.66C19.39 19.66 22.13 19.87 23.59 22.58C25.13 25.45 25.43 26.4301 25.43 32.0301C26.19 25.7401 23.8 21.76 22.53 20.66C21.26 19.56 20.16 18.97 20.06 18.63C19.96 18.29 19.39 19.66 19.39 19.66Z" fill="#715E91"/>
<path d="M22.43 16.46C22.22 17.25 22.25 9.50998 22.27 8.09998C22.82 12.22 22.9 14.72 22.43 16.46Z" fill="#715E91"/>
<path d="M25.76 13.22C27.62 12.07 33.56 13.29 36.36 13.22C39.16 13.15 39.56 12.73 39.56 12.73C39.56 12.73 36.88 14.08 31.96 13.36C27.04 12.64 24.94 14.55 24.73 14.13C24.52 13.71 25.76 13.22 25.76 13.22Z" fill="#715E91"/>
<path d="M29.28 10.06C30.07 8.95 30.59 7.43 30.62 4.81C30.64 3.46 32.13 1.35999 32.13 1.35999C32.13 1.35999 30.89 3.23001 30.89 4.76001C30.89 6.29001 30.99 7.84003 30.37 9.03003C29.75 10.21 29.28 10.06 29.28 10.06Z" fill="#715E91"/>
<path d="M14.8 19.91C13.47 19.87 11.23 19.57 9.62001 19.1C7.74001 18.55 5.69001 19.17 2.57001 21.33C5.77001 19.24 7.87 18.78 9.52 19.18C11.17 19.58 13.78 20.48 14.8 20.12C15.82 19.78 14.8 19.91 14.8 19.91Z" fill="#715E91"/>
<path d="M12.45 22.16C12.02 22.93 11.95 26.67 13 28.86C14.44 31.87 13.97 34.61 13.97 34.61C13.97 34.61 14.54 31.73 13.64 29.74C12.52 27.27 11.66 23.92 12.97 21.45C12.45 21.83 12.45 22.16 12.45 22.16Z" fill="#715E91"/>
<path d="M9.91999 26.66C9.41999 27.65 5.79 30.89 3.62 31.43C6.49 30.53 9.65999 28 9.91999 27.16C10.19 26.33 9.91999 26.66 9.91999 26.66Z" fill="#715E91"/>
<path d="M18.59 16.82C17.79 15.61 14.8 13.28 11.73 13.6C14.43 13.16 16.99 14.89 18.33 15.95C18.84 16.37 18.59 16.82 18.59 16.82Z" fill="#715E91"/>
<path d="M15.99 12.73C15.57 12.1 14.76 9.91997 14.09 9.15997C13.42 8.39997 12.82 8.09998 12.82 8.09998C12.82 8.09998 14.02 8.63 14.67 9.63C15.32 10.63 16.31 13.04 16.51 13.29C16.72 13.52 15.99 12.73 15.99 12.73Z" fill="#715E91"/>
<path d="M13.15 10.56C12.46 10.38 10.17 9.80995 7.76999 10.7199C8.48999 10.4099 11.07 10.14 12.32 10.51C13.77 10.94 14.15 11.3 14.15 11.3L13.15 10.56Z" fill="#715E91"/>
<path d="M20.8 19.8C21.24 20.35 22.33 23.73 21.85 24.91C21.37 26.09 20.8 26.59 20.8 26.59C20.8 26.59 22.09 25.91 22.13 24.16C22.17 22.4 21.51 20.47 21.22 20.06C20.93 19.65 20.8 19.8 20.8 19.8Z" fill="#715E91"/>
<path d="M22.91 21.22C23.59 21.94 25.78 22.5 26.87 25.16C27.09 25.7 27.32 27.02 27.32 27.02C27.32 27.02 26.89 25.03 26.29 24.25C24.7 22.17 23.4 21.85 23.25 21.72C23.09 21.58 22.91 21.22 22.91 21.22Z" fill="#715E91"/>
<path d="M24.33 23.69C24.58 24.82 24.44 27.54 23.89 28.38C23.33 29.22 23.07 29.31 23.07 29.31C23.07 29.31 23.89 29.13 24.29 27.8C24.69 26.47 24.72 24.77 24.56 24.4C24.39 24.04 24.33 23.69 24.33 23.69Z" fill="#715E91"/>
</svg>
