<svg width="4" height="4" viewBox="0 0 4 4" fill="none" xmlns="http://www.w3.org/2000/svg">
<path d="M1.73 1.21C1.77 1.18 1.79 1.13 1.8 1.12C1.81 1.12 1.88 1.14 1.88 1.14L1.89 1.19C1.89 1.19 1.87 1.2 1.85 1.21C1.83 1.23 1.81 1.24 1.81 1.24C1.81 1.24 1.71 1.22 1.73 1.21Z" fill="#597A11"/>
<path d="M1.94 1.25C1.94 1.25 1.86 1.24 1.79 1.22C1.73 1.21 1.44 1.16 1.21 1.28C0.939997 1.43 0.759997 1.68 0.719997 2.06C0.679997 2.44 0.809997 2.86 0.969997 3.04C1.17 3.25 1.46 3.43 1.84 3.43C2.31 3.43 2.69 3.26 2.91 2.87C3.09 2.54 3.1 2.32 3.08 2.06C3.03 1.53 2.52 1.3 2.43 1.27C2.23 1.2 2.09 1.22 2.05 1.23C2.03 1.23 1.94 1.25 1.94 1.25Z" fill="#D30F00"/>
<path d="M2.14999 2.62C2.55999 2.59 2.99999 2.29 2.90999 1.83C2.87999 1.67 2.76 1.47 2.62 1.41C2.31 1.27 2.15999 1.37 2.06999 1.38C1.97999 1.39 1.61999 1.31 1.36999 1.52C1.09999 1.73 1.11999 2.68 2.14999 2.62Z" fill="#DC1B00"/>
<path d="M1.05 1.41C0.880003 1.57 0.760002 1.75 0.730002 2.07C0.690002 2.45 0.800002 2.82 0.980002 3.05C1.1 3.2 1.38 3.44 1.85 3.44C2.32 3.44 2.7 3.27 2.92 2.88C3.04 2.67 3.08 2.51 3.09 2.35C2.71 3.2 1.64 3.17 1.22 2.78C0.860003 2.43 0.780003 1.85 1.05 1.41Z" fill="#C30900"/>
<path d="M1.86 3.45C1.67 3.45 1.5 3.41 1.34 3.33C1.2 3.26 1.08 3.17 0.969996 3.05C0.879996 2.96 0.809996 2.8 0.759996 2.63C0.709996 2.44 0.689996 2.24 0.709996 2.06C0.749996 1.71 0.919995 1.44 1.2 1.28C1.3 1.22 1.43 1.2 1.57 1.2C1.68 1.2 1.76 1.22 1.78 1.22C1.84 1.23 1.92 1.25 1.93 1.25C1.94 1.25 2.01999 1.24 2.04999 1.23H2.06C2.08 1.23 2.11 1.22 2.15 1.22C2.24 1.22 2.33 1.24 2.42 1.27C2.44 1.28 2.6 1.34 2.76 1.48C2.95 1.64 3.05 1.84 3.07 2.07C3.1 2.35 3.08 2.56 2.9 2.88C2.79 3.07 2.64999 3.22 2.45999 3.31C2.30999 3.4 2.1 3.45 1.86 3.45ZM1.59 1.2C1.45 1.2 1.32 1.23 1.22 1.28C0.939996 1.44 0.769995 1.71 0.729995 2.05C0.689995 2.44 0.819995 2.86 0.979995 3.03C1.21 3.28 1.52 3.42 1.85 3.42H1.86C2.36 3.42 2.71 3.23 2.92 2.86C3.1 2.54 3.11 2.33 3.09 2.05C3.07 1.83 2.96 1.63 2.78 1.47C2.62 1.33 2.46 1.27 2.44 1.26C2.35 1.23 2.26 1.21 2.17 1.21C2.13 1.21 2.1 1.21 2.08 1.22H2.07C2.04 1.22 1.95 1.24 1.95 1.24C1.95 1.24 1.86 1.23 1.8 1.21C1.78 1.22 1.7 1.2 1.59 1.2Z" fill="#C60000"/>
<path d="M1.23999 1.32C1.23999 1.32 1.38999 1.3 1.51999 1.33C1.63999 1.36 1.81999 1.47 1.81999 1.47L1.85999 1.36L1.69999 1.25L1.53999 1.23L1.36999 1.26L1.23999 1.32Z" fill="#B20000"/>
<path d="M1.14 1.5C1.14 1.5 1.31 1.56 1.38 1.58C1.44 1.6 1.56 1.62 1.65 1.6C1.68 1.59 1.81 1.57 1.82 1.57C1.89 1.59 2.01 1.61 2.13 1.57C2.15 1.56 2.25 1.63 2.34 1.63C2.39 1.63 2.52 1.63 2.58 1.65C2.64 1.67 2.78 1.73 2.78 1.73C2.78 1.73 2.65 1.63 2.59 1.61C2.42 1.53 2.33 1.53 2.29 1.52C2.26 1.51 2.05 1.46 2.03 1.46C2.01 1.46 1.77 1.46 1.77 1.46L1.14 1.5Z" fill="#B20000"/>
<path d="M2.03999 1.48C2.03999 1.48 2.17999 1.56 2.33999 1.54C2.39999 1.53 2.42999 1.52 2.47999 1.52C2.52999 1.52 2.53999 1.52 2.58999 1.57C2.66999 1.65 2.78999 1.72 2.78999 1.72L2.61999 1.55L2.48999 1.45C2.48999 1.45 2.41999 1.47 2.38999 1.47C2.35999 1.47 2.30999 1.45 2.24999 1.45C2.18999 1.44 2.12999 1.44 2.09999 1.45C2.06999 1.46 2.03999 1.48 2.03999 1.48Z" fill="#597A11"/>
<path d="M1.85999 1.3C1.85999 1.3 1.88999 1.25 1.88999 1.23C1.88999 1.2 1.87999 1.17 1.85999 1.16C1.84999 1.15 1.80999 1.13 1.79999 1.14C1.78999 1.14 1.79999 1.13 1.80999 1.12C1.88999 1.09 1.93999 1.15 1.93999 1.15L2.02999 1.3H2.14999C2.14999 1.3 2.21999 1.22 2.24999 1.2C2.33999 1.13 2.44999 1.09 2.47999 1.08C2.50999 1.07 2.54999 1.07 2.54999 1.07C2.54999 1.07 2.51999 1.09 2.49999 1.11C2.47999 1.13 2.44 1.26 2.37 1.31C2.33 1.35 2.27999 1.38 2.27999 1.39C2.27999 1.39 2.28999 1.41 2.34999 1.4C2.40999 1.4 2.48999 1.41 2.51999 1.42C2.66999 1.48 2.77999 1.7 2.77999 1.7C2.77999 1.7 2.64999 1.59 2.63999 1.57C2.61999 1.55 2.54999 1.48 2.49999 1.47C2.44999 1.45 2.31999 1.48 2.25999 1.48C2.21999 1.48 2.20999 1.44 2.15999 1.44C2.10999 1.44 2.05999 1.45 2.00999 1.48C1.95999 1.5 1.96999 1.5 1.93999 1.52C1.90999 1.53 1.87999 1.5 1.87999 1.5C1.87999 1.5 1.83999 1.52 1.77999 1.52C1.67999 1.53 1.44999 1.51 1.36999 1.5C1.27999 1.49 1.20999 1.49 1.16999 1.5C1.12999 1.51 1.10999 1.51 1.07999 1.52C1.04999 1.54 1.00999 1.56 1.00999 1.56C1.00999 1.56 1.04999 1.47 1.16999 1.45C1.30999 1.43 1.69999 1.38 1.73999 1.39C1.78999 1.39 1.81999 1.4 1.81999 1.4C1.81999 1.4 1.78999 1.35 1.76999 1.33C1.69999 1.27 1.50999 1.26 1.46999 1.26C1.41999 1.26 1.35999 1.27 1.31999 1.29C1.26999 1.3 1.23999 1.31 1.23999 1.31C1.23999 1.31 1.36999 1.2 1.56999 1.19C1.62999 1.19 1.67999 1.2 1.71999 1.22C1.76999 1.24 1.85999 1.3 1.85999 1.3Z" fill="#749406"/>
<path d="M2.78 1.73C2.77 1.72 2.65 1.62 2.63 1.6C2.61 1.58 2.54 1.51 2.5 1.5C2.49 1.5 2.48 1.5 2.46 1.5C2.43 1.5 2.4 1.5 2.37 1.51C2.34 1.51 2.31 1.52 2.28 1.52C2.27 1.52 2.27 1.52 2.26 1.52C2.24 1.52 2.23 1.51 2.22 1.5C2.21 1.49 2.19 1.48 2.16 1.48C2.11 1.48 2.07 1.49 2.02 1.52C2 1.53 1.98 1.54 1.98 1.54C1.97 1.54 1.96 1.55 1.95 1.55C1.95 1.55 1.94 1.55 1.93 1.55C1.91 1.55 1.89 1.54 1.88 1.53C1.87 1.53 1.83 1.55 1.78 1.55C1.77 1.55 1.75 1.55 1.73 1.55C1.62 1.55 1.45 1.53 1.37 1.53C1.33 1.53 1.29 1.52 1.26 1.52C1.23 1.52 1.2 1.52 1.17 1.53C1.16 1.53 1.15 1.53 1.14 1.53C1.12 1.53 1.1 1.53 1.08 1.55C1.05 1.56 1.01 1.59 1.01 1.59H1C1 1.59 1 1.59 1 1.58C1 1.58 1.04 1.49 1.16 1.47C1.3 1.45 1.67 1.41 1.73 1.41C1.73 1.41 1.73 1.41 1.74 1.41C1.77 1.41 1.8 1.41 1.81 1.41C1.8 1.39 1.78 1.36 1.76 1.35C1.7 1.3 1.56 1.28 1.49 1.28C1.48 1.28 1.47 1.28 1.47 1.28H1.46C1.41 1.29 1.36 1.29 1.31 1.31C1.27 1.33 1.23 1.33 1.23 1.33C1.23 1.33 1.23 1.33 1.22 1.33V1.32C1.22 1.32 1.35 1.21 1.55 1.2C1.61 1.2 1.66 1.21 1.7 1.23C1.75 1.25 1.82 1.29 1.84 1.3C1.85 1.28 1.86 1.25 1.86 1.24C1.86 1.21 1.85 1.19 1.83 1.17C1.82 1.16 1.79 1.15 1.78 1.15C1.78 1.15 1.78 1.15 1.77 1.15C1.77 1.15 1.76 1.15 1.76 1.14C1.76 1.13 1.77 1.12 1.78 1.12C1.79 1.11 1.81 1.11 1.82 1.11C1.88 1.11 1.91 1.15 1.91 1.15L2 1.3H2.12C2.13 1.29 2.19 1.22 2.22 1.21C2.32 1.14 2.44 1.1 2.46 1.09C2.48 1.08 2.5 1.08 2.52 1.08C2.53 1.08 2.54 1.08 2.54 1.08C2.54 1.08 2.54 1.08 2.55 1.08C2.55 1.08 2.55 1.08 2.55 1.09C2.55 1.09 2.52 1.11 2.5 1.13C2.5 1.14 2.49 1.15 2.48 1.17C2.46 1.22 2.42 1.29 2.37 1.34C2.3 1.39 2.28 1.41 2.28 1.42C2.28 1.42 2.29 1.43 2.32 1.43C2.33 1.43 2.33 1.43 2.34 1.43C2.35 1.43 2.36 1.43 2.36 1.43C2.41 1.43 2.48 1.44 2.51 1.45C2.68 1.5 2.78 1.71 2.78 1.73C2.79 1.73 2.79 1.72 2.78 1.73ZM2.46 1.48C2.48 1.48 2.49 1.48 2.51 1.49C2.56 1.51 2.63 1.58 2.65 1.6C2.66 1.61 2.73 1.67 2.77 1.71C2.73 1.65 2.64 1.51 2.53 1.46C2.51 1.45 2.45 1.44 2.39 1.44C2.38 1.44 2.37 1.44 2.37 1.44C2.36 1.44 2.36 1.44 2.35 1.44C2.31 1.44 2.3 1.43 2.3 1.42V1.41C2.3 1.41 2.3 1.4 2.4 1.33C2.45 1.29 2.49 1.21 2.51 1.17C2.52 1.15 2.52 1.14 2.53 1.13C2.54 1.12 2.55 1.1 2.57 1.1C2.56 1.1 2.54 1.1 2.52 1.11C2.51 1.11 2.39 1.15 2.29 1.23C2.26 1.25 2.19 1.32 2.19 1.32H2.07L1.98 1.17C1.98 1.17 1.95 1.13 1.9 1.13C1.89 1.13 1.87 1.13 1.86 1.14C1.86 1.14 1.86 1.14 1.85 1.14C1.87 1.14 1.9 1.15 1.91 1.16C1.93 1.18 1.94 1.2 1.94 1.24C1.94 1.26 1.91 1.31 1.91 1.31C1.91 1.31 1.82 1.25 1.77 1.23C1.73 1.22 1.68 1.2 1.62 1.2C1.48 1.21 1.37 1.27 1.32 1.3C1.33 1.3 1.35 1.29 1.37 1.28C1.41 1.27 1.47 1.26 1.52 1.25C1.53 1.25 1.54 1.25 1.55 1.25C1.63 1.25 1.77 1.27 1.83 1.32C1.86 1.34 1.88 1.39 1.88 1.4C1.88 1.4 1.88 1.4 1.88 1.41C1.88 1.41 1.84 1.41 1.8 1.4C1.73 1.4 1.37 1.44 1.23 1.46C1.15 1.47 1.11 1.52 1.09 1.54C1.1 1.53 1.12 1.52 1.14 1.51C1.17 1.5 1.18 1.5 1.2 1.49C1.21 1.49 1.22 1.49 1.23 1.49C1.25 1.49 1.28 1.48 1.32 1.48C1.35 1.48 1.39 1.48 1.43 1.49C1.51 1.5 1.68 1.51 1.79 1.51C1.81 1.51 1.83 1.51 1.84 1.51C1.9 1.51 1.94 1.49 1.94 1.49C1.94 1.49 1.94 1.49 1.95 1.49C1.95 1.49 1.97 1.51 1.99 1.51H2C2.01 1.5 2.02 1.5 2.03 1.5C2.04 1.5 2.05 1.49 2.07 1.48C2.12 1.46 2.17 1.44 2.22 1.44C2.25 1.44 2.27 1.45 2.28 1.46C2.29 1.47 2.3 1.48 2.32 1.48C2.33 1.48 2.33 1.48 2.34 1.48C2.36 1.48 2.39 1.48 2.42 1.47C2.4 1.48 2.43 1.48 2.46 1.48Z" fill="#698200"/>
<path d="M1.90999 1.14C1.91999 1.17 1.92999 1.19 1.92999 1.21C1.93999 1.25 1.95999 1.37 1.95999 1.39C1.95999 1.41 1.92999 1.44 1.97999 1.45H1.98999C1.99999 1.34 1.95999 1.23 1.90999 1.14Z" fill="#82A103"/>
<path d="M2.32999 1.23C2.38999 1.18 2.42999 1.16 2.48999 1.12C2.44999 1.17 2.43999 1.2 2.38999 1.26C2.32999 1.33 2.29999 1.35 2.25999 1.38C2.24999 1.39 2.21999 1.38 2.20999 1.37C2.18999 1.34 2.24999 1.29 2.32999 1.23Z" fill="#8DA500"/>
<path d="M2.48 1.45C2.5 1.46 2.56 1.48 2.59 1.51C2.62 1.54 2.69 1.63 2.69 1.63C2.69 1.63 2.61 1.54 2.58 1.52C2.44 1.42 2.29 1.48 2.26 1.47C2.24 1.47 2.22 1.45 2.23 1.45C2.29 1.43 2.4 1.43 2.48 1.45Z" fill="#8DA500"/>
<path d="M1.40999 1.25C1.44999 1.23 1.51999 1.22 1.55999 1.22C1.62999 1.22 1.73999 1.24 1.84999 1.34C1.85999 1.35 1.83999 1.39 1.83999 1.38C1.77999 1.31 1.65999 1.2 1.40999 1.25Z" fill="#8DA500"/>
<path d="M1.25 1.48C1.25 1.48 1.38 1.47 1.48 1.45C1.66 1.41 1.88 1.44 1.88 1.44C1.88 1.44 1.78 1.49 1.72 1.49C1.66 1.49 1.56 1.5 1.49 1.49C1.43 1.49 1.25 1.48 1.25 1.48Z" fill="#8DA500"/>
<path d="M1.87 1.13C1.91 1.17 1.92 1.24 1.91 1.27C1.9 1.31 1.91 1.32 1.92 1.33C1.93 1.34 1.97 1.34 1.97 1.34L1.96 1.19C1.95 1.19 1.91 1.14 1.87 1.13Z" fill="#8DA500"/>
<path d="M1.95 0.970001C1.98 0.950001 2.02001 0.950001 2.02001 0.950001L1.97001 1.03L1.88 1.05C1.88 1.05 1.89 1 1.95 0.970001Z" fill="#749406"/>
<path d="M1.88 1.06C1.88 1.06 1.88 1.05 1.88 1.06C1.87 1.05 1.87 1.05 1.88 1.06C1.87 1.05 1.89 1.01 1.95 0.970001C1.98 0.950001 2.02 0.950001 2.02 0.950001C2.02 0.950001 2.02 0.950001 2.03 0.950001C2.03 0.950001 2.03 0.949999 2.03 0.959999L1.98 1.04L1.88 1.06ZM2.01 0.959999C2 0.959999 1.98 0.97 1.96 0.98C1.92 1 1.9 1.03 1.89 1.04L1.97 1.02L2.01 0.959999Z" fill="#698200"/>
<path d="M1.87999 1.05C1.87999 1.05 1.91999 1.17 1.92999 1.21C1.93999 1.25 1.95999 1.37 1.95999 1.39C1.95999 1.41 1.92999 1.44 1.97999 1.45C2.02999 1.46 2.03999 1.47 2.07999 1.46C2.11999 1.45 2.16999 1.45 2.16999 1.45C2.16999 1.45 2.11999 1.23 2.10999 1.18C2.06999 1.04 2.00999 0.950001 2.00999 0.950001C2.00999 0.950001 1.99999 0.969998 1.95999 1.01C1.90999 1.04 1.87999 1.05 1.87999 1.05Z" fill="#749406"/>
<path d="M2.05999 1.46C2.04999 1.46 2.03999 1.46 2.02999 1.45C2.01999 1.45 2.00999 1.44 1.98999 1.44C1.96999 1.44 1.96999 1.43 1.95999 1.43C1.94999 1.42 1.95999 1.41 1.95999 1.4V1.39C1.95999 1.37 1.93999 1.25 1.92999 1.21C1.91999 1.17 1.87999 1.05 1.87999 1.05C1.87999 1.05 1.91999 1.04 1.96999 1.01C2.00999 0.979998 2.01999 0.959999 2.01999 0.959999C2.01999 0.959999 2.01999 0.959999 2.02999 0.959999C2.02999 0.959999 2.08999 1.05 2.12999 1.19C2.13999 1.23 2.18999 1.44 2.18999 1.45C2.18999 1.45 2.18999 1.46 2.17999 1.46C2.17999 1.46 2.16999 1.46 2.14999 1.46C2.12999 1.46 2.10999 1.46 2.08999 1.47C2.07999 1.46 2.06999 1.46 2.05999 1.46ZM1.88999 1.05C1.89999 1.07 1.92999 1.17 1.93999 1.2C1.94999 1.24 1.97999 1.36 1.97999 1.38C1.97999 1.38 1.97999 1.39 1.97999 1.4C1.97999 1.41 1.96999 1.42 1.97999 1.43C1.97999 1.43 1.98999 1.44 1.99999 1.44C2.01999 1.44 2.02999 1.44 2.03999 1.45C2.04999 1.45 2.05999 1.45 2.06999 1.45C2.07999 1.45 2.08999 1.45 2.09999 1.44C2.11999 1.43 2.13999 1.43 2.15999 1.43C2.16999 1.43 2.17999 1.43 2.18999 1.43C2.17999 1.39 2.13999 1.21 2.12999 1.17C2.09999 1.06 2.04999 0.980001 2.02999 0.950001C2.01999 0.960001 2.00999 0.98 1.97999 1C1.92999 1.04 1.89999 1.05 1.88999 1.05Z" fill="#698200"/>
<path d="M2.1 1.18C2.08 1.1 2.02 0.990002 2.02 0.990002C2.02 0.990002 2.01 1.02 1.97 1.03C1.97 1.03 2.11 1.24 2.11 1.39C2.12 1.38 2.12 1.26 2.1 1.18Z" fill="#8DA500"/>
<path d="M2.01999 1.31C2.00999 1.24 1.95999 1.18 1.91999 1.03C1.88999 1.05 1.87999 1.05 1.87999 1.05C1.87999 1.05 1.91999 1.17 1.92999 1.21C1.93999 1.25 1.95999 1.37 1.95999 1.39C1.95999 1.41 1.92999 1.44 1.97999 1.45C1.99999 1.45 2.01999 1.45 2.02999 1.45C2.03999 1.42 2.02999 1.37 2.01999 1.31Z" fill="#698200"/>
<path d="M1.92999 1C1.94999 1.01 1.96999 0.99 1.97999 0.98C1.97999 0.99 1.94999 1.01 1.93999 1.01C1.92999 1.02 1.90999 1.03 1.89999 1.03C1.89999 1.03 1.89999 1.02 1.92999 1Z" fill="#9AAA00"/>
<path d="M1.83 1.52C1.83 1.52 1.95 1.43 2 1.42C2.03 1.41 2.11 1.39 2.17 1.43C2.2 1.45 2.21 1.48 2.21 1.48C2.21 1.48 2.14 1.47 2.09 1.48C2.06 1.49 2.03 1.5 2.01 1.51C1.99 1.52 1.94 1.54 1.93 1.55C1.92 1.55 1.85 1.54 1.85 1.54L1.83 1.52Z" fill="#82A103"/>
<path d="M2.04999 1.43C2.12999 1.41 2.15999 1.44 2.15999 1.44C2.15999 1.44 2.11999 1.44 2.07999 1.45C2.03999 1.46 1.99999 1.47 1.97999 1.48C1.95999 1.49 1.92999 1.5 1.92999 1.5C1.92999 1.5 1.97999 1.45 2.04999 1.43Z" fill="#9AAA00"/>
<path d="M1.95 1.54C1.95 1.54 1.93 1.53 1.89 1.52C1.85 1.51 1.81 1.53 1.77 1.48C1.73 1.43 1.73 1.43 1.73 1.43C1.73 1.43 1.74 1.47 1.75 1.5C1.76 1.53 1.79 1.55 1.81 1.55C1.83 1.56 1.85 1.56 1.88 1.56C1.91 1.56 1.95 1.54 1.95 1.54Z" fill="#597A11"/>
<path d="M2.26 1.7C2.37 1.67 2.4 1.65 2.5 1.73C2.64 1.84 2.69 1.95 2.7 2.02C2.71 2.09 2.54 2.24 2.44 2.22C2.29 2.18 2.36 2.06 2.25 1.86C2.21 1.79 2.15 1.72 2.26 1.7Z" fill="#EA2800"/>
<path d="M1.89999 1.73C1.79999 1.72 1.73999 1.69 1.69999 1.73C1.61999 1.79 1.49999 2 1.51999 2.07C1.54999 2.16 1.60999 2.21 1.74999 2.25C1.83999 2.28 2.11999 2.31 2.16999 2.23C2.23999 2.1 2.14999 1.88 2.10999 1.81C2.07999 1.71 2.04999 1.74 1.89999 1.73Z" fill="#EA2800"/>
</svg>
