<svg width="3" height="5" viewBox="0 0 3 5" fill="none" xmlns="http://www.w3.org/2000/svg">
<path d="M1.41998 0.180001C1.41998 0.180001 1.41998 0.169998 1.42998 0.169998C1.42998 0.169998 1.42998 0.16 1.43998 0.16C1.44998 0.16 1.43998 0.16 1.44998 0.16C1.45998 0.16 1.45998 0.15 1.46998 0.16C1.47998 0.16 1.47998 0.17 1.48998 0.16C1.49998 0.15 1.48998 0.15 1.49998 0.16C1.50998 0.17 1.50998 0.16 1.51998 0.16C1.52998 0.16 1.52998 0.16 1.52998 0.16C1.52998 0.16 1.52998 0.149998 1.53998 0.169998C1.54998 0.179998 1.54998 0.189999 1.54998 0.189999C1.54998 0.199999 1.47998 0.220002 1.47998 0.220002L1.41998 0.200001V0.180001Z" fill="#755F00"/>
<path d="M1.47998 0.220001C1.47998 0.220001 1.42998 0.210001 1.41998 0.200001V0.169998C1.41998 0.169998 1.41998 0.16 1.42998 0.16C1.42998 0.16 1.42998 0.150002 1.43998 0.150002C1.43998 0.150002 1.43998 0.150002 1.44998 0.150002C1.44998 0.150002 1.44998 0.150002 1.45998 0.150002C1.45998 0.150002 1.45998 0.150002 1.46998 0.150002C1.46998 0.150002 1.46998 0.150002 1.47998 0.150002C1.47998 0.150002 1.47998 0.150002 1.48998 0.150002C1.48998 0.150002 1.48998 0.150002 1.49998 0.150002C1.49998 0.150002 1.49998 0.150002 1.50998 0.150002C1.51998 0.160002 1.51998 0.150002 1.51998 0.150002H1.52998C1.52998 0.150002 1.52998 0.15 1.53998 0.16C1.53998 0.16 1.53998 0.159998 1.53998 0.169998C1.53998 0.179998 1.54998 0.179999 1.54998 0.189999C1.53998 0.189999 1.47998 0.220001 1.47998 0.220001ZM1.41998 0.200001C1.43998 0.210001 1.46998 0.220001 1.47998 0.220001C1.47998 0.220001 1.53998 0.189999 1.54998 0.189999C1.54998 0.189999 1.54998 0.179998 1.53998 0.169998C1.53998 0.169998 1.53998 0.17 1.53998 0.16C1.53998 0.15 1.53998 0.150002 1.53998 0.150002C1.53998 0.150002 1.53998 0.150002 1.52998 0.150002H1.51998H1.50998C1.49998 0.150002 1.49998 0.150002 1.49998 0.150002C1.49998 0.150002 1.49998 0.150002 1.48998 0.150002H1.47998C1.47998 0.150002 1.47998 0.150002 1.46998 0.150002C1.46998 0.150002 1.46998 0.15 1.46998 0.16L1.45998 0.169998L1.41998 0.200001Z" fill="#594800"/>
<path d="M1.38999 0.119999C1.40999 0.139999 1.42999 0.180001 1.47999 0.180001C1.52999 0.180001 1.57999 0.160002 1.64999 0.150002C1.68999 0.150002 1.77999 0.160001 1.84999 0.220001C1.91999 0.290001 1.95999 0.359999 2.02999 0.529999C2.11999 0.769999 2.25999 0.969999 2.41999 1.26C2.58999 1.55 2.78999 1.81 2.88999 2.31C3.12999 3.48 2.52999 3.91 2.27999 4.03C1.99999 4.17 1.38999 4.26 0.869994 3.75C0.399994 3.28 0.389994 2.41 0.469994 2.07C0.539994 1.77 0.709994 1.15 0.729994 1C0.749994 0.85 0.819994 0.52 0.869994 0.39C0.899994 0.31 0.969994 0.15 1.08999 0.0900004C1.17999 0.0600004 1.27999 0.0399991 1.38999 0.119999Z" fill="#618900"/>
<path d="M1.77999 4.16C1.62999 4.16 1.47999 4.13 1.32999 4.08C1.15999 4.01 1.00999 3.91 0.86999 3.77C0.60999 3.51 0.49999 3.14 0.45999 2.88C0.40999 2.54 0.42999 2.24 0.45999 2.09C0.48999 1.96 0.53999 1.77 0.57999 1.59C0.63999 1.34 0.69999 1.1 0.71999 1.02C0.73999 0.86 0.80999 0.54 0.85999 0.41C0.86999 0.37 0.94999 0.170001 1.07999 0.110001C1.13999 0.0800006 1.17999 0.0699997 1.22999 0.0699997C1.28999 0.0699997 1.33999 0.0900011 1.38999 0.130001C1.39999 0.130001 1.39999 0.140002 1.40999 0.150002C1.42999 0.170002 1.44999 0.189999 1.47999 0.189999C1.49999 0.189999 1.51999 0.19 1.54999 0.18C1.57999 0.17 1.60999 0.169998 1.64999 0.169998H1.65999C1.70999 0.169998 1.78999 0.180002 1.85999 0.240002C1.92999 0.300002 1.96999 0.369999 2.03999 0.549999C2.10999 0.729999 2.19999 0.88 2.30999 1.07C2.34999 1.14 2.38999 1.2 2.42999 1.28C2.45999 1.33 2.48999 1.39 2.52999 1.44C2.66999 1.68 2.81999 1.92 2.90999 2.33C3.00999 2.84 2.96999 3.26 2.78999 3.59C2.62999 3.86 2.41999 4 2.29999 4.06C2.13999 4.12 1.95999 4.16 1.77999 4.16ZM1.22999 0.0699997C1.18999 0.0699997 1.13999 0.0800006 1.08999 0.110001C0.95999 0.170001 0.87999 0.370002 0.86999 0.400002C0.82999 0.530002 0.759989 0.849998 0.729989 1.01C0.719989 1.1 0.65999 1.33 0.58999 1.58C0.53999 1.76 0.49999 1.95 0.46999 2.08C0.39999 2.41 0.38999 3.28 0.86999 3.76C1.18999 4.08 1.53999 4.15 1.76999 4.15C1.94999 4.15 2.12999 4.11 2.26999 4.04C2.52999 3.91 3.11999 3.49 2.87999 2.33C2.78999 1.92 2.64999 1.67 2.49999 1.44C2.46999 1.39 2.42999 1.33 2.39999 1.28C2.35999 1.21 2.31999 1.14 2.27999 1.07C2.16999 0.88 2.07999 0.729999 2.00999 0.549999C1.93999 0.369999 1.89999 0.300002 1.82999 0.240002C1.76999 0.180002 1.68999 0.169998 1.63999 0.169998H1.62999C1.58999 0.169998 1.55999 0.18 1.52999 0.18C1.50999 0.19 1.47999 0.189999 1.45999 0.189999C1.41999 0.189999 1.39999 0.159999 1.37999 0.139999C1.36999 0.129999 1.36999 0.129999 1.35999 0.119999C1.33999 0.0899989 1.28999 0.0699997 1.22999 0.0699997Z" fill="#1E4400"/>
<path d="M1.37999 0.200001C1.39999 0.220001 1.43999 0.240002 1.48999 0.240002C1.53999 0.240002 1.57999 0.219999 1.64999 0.209999C1.68999 0.209999 1.74999 0.219999 1.81999 0.279999C1.88999 0.339999 1.94999 0.440001 2.00999 0.610001C2.09999 0.850001 2.22999 1.04 2.38999 1.32C2.54999 1.6 2.74999 1.84 2.84999 2.33C3.07999 3.47 2.49999 3.88 2.25999 3.99C1.98999 4.12 1.40999 4.22 0.909988 3.72C0.459988 3.26 0.449989 2.47 0.519989 2.09C0.579989 1.77 0.729989 1.33 0.769989 1.05C0.789989 0.909999 0.849989 0.589999 0.889989 0.459999C0.909989 0.389999 0.979988 0.210002 1.08999 0.150002C1.16999 0.120002 1.25999 0.0900009 1.37999 0.200001Z" fill="#A8C400"/>
<path d="M1.55999 0.330002C1.57999 0.330002 1.72999 0.39 1.80999 0.5C1.85999 0.57 1.90999 0.629999 1.95999 0.779999C2.03999 0.999999 2.14999 1.17 2.29999 1.43C2.44999 1.69 2.61999 1.91 2.70999 2.36C2.91999 3.4 2.39999 3.77 2.18999 3.88C1.94999 4 1.42999 4.09 0.979989 3.63C0.569989 3.21 0.569989 2.5 0.629989 2.14C0.679989 1.85 0.82999 1.4 0.84999 1.19C0.86999 1.06 0.92999 0.770001 0.96999 0.650001C0.98999 0.580001 1.06999 0.449999 1.15999 0.389999C1.23999 0.329999 1.35999 0.290002 1.55999 0.330002Z" fill="#D8DE57"/>
<path d="M1.27999 1.44C1.19999 1.55 1.11999 1.68 1.03999 1.9C0.909988 2.25 0.829988 2.77 0.989988 3.11C1.14999 3.45 1.41999 3.65 1.80999 3.6C2.19999 3.54 2.45999 3.35 2.51999 2.97C2.56999 2.59 2.43999 2.22 2.28999 1.96C2.13999 1.71 1.83999 1.44 1.72999 1.35C1.59999 1.25 1.44999 1.18 1.27999 1.44Z" fill="#EDE5A9"/>
<path d="M1.42999 3.01C1.21999 2.84 0.949988 2.24 1.27999 1.44C1.19999 1.55 1.11999 1.68 1.03999 1.9C0.909988 2.25 0.829988 2.77 0.989988 3.11C1.14999 3.45 1.41999 3.65 1.80999 3.6C2.18999 3.54 2.44999 3.35 2.50999 2.98C1.98999 3.3 1.63999 3.18 1.42999 3.01Z" fill="#F3F0AE"/>
<path d="M0.813762 2.03C0.723762 1.98 0.563762 1.99 0.373762 2.27C0.183762 2.55 0.0337616 2.83 0.00376165 3.14C-0.0262384 3.45 0.123762 3.86 0.433762 3.96C0.773762 4.07 1.08376 3.98 1.28376 3.73C1.49376 3.45 1.44376 3 1.34376 2.72C1.24376 2.46 1.02376 2.14 0.813762 2.03Z" fill="#B7630F"/>
<path d="M0.163758 3.52C0.123758 3.23 0.143757 2.83 0.433757 2.38C0.453757 2.34 0.383757 2.5 0.363757 2.58C0.313757 2.77 0.283757 2.98 0.283757 3.07C0.273757 3.16 0.283757 3.28 0.293757 3.16C0.333757 2.85 0.483757 2.38 0.553757 2.26C0.603757 2.18 0.653757 2.13 0.653757 2.15C0.653757 2.17 0.593757 2.28 0.553757 2.45C0.473757 2.75 0.473757 3.02 0.503757 3.35C0.513757 3.48 0.583757 3.73 0.593757 3.75C0.603757 3.77 0.553757 3.34 0.573757 2.99C0.583757 2.82 0.643757 2.48 0.683757 2.3C0.703757 2.21 0.733757 2.05 0.763757 2.22C0.793757 2.39 0.823757 2.99 0.823757 3.17C0.823757 3.35 0.793757 3.61 0.823757 3.49C0.853757 3.37 0.893757 3.06 0.883757 2.78C0.873757 2.51 0.823757 2.13 0.853757 2.18C0.923757 2.28 1.02376 2.78 1.03376 2.89C1.05376 3.11 1.02376 3.4 1.05376 3.34C1.09376 3.25 1.09376 3.06 1.09376 2.93C1.09376 2.8 1.06376 2.62 1.04376 2.52C1.01376 2.42 0.963757 2.27 0.953757 2.24C0.943757 2.22 0.923757 2.17 0.983757 2.23C1.04376 2.29 1.11376 2.42 1.15376 2.5C1.18376 2.58 1.22376 2.64 1.26376 2.74C1.30376 2.84 1.33376 3.16 1.33376 3.07C1.33376 2.92 1.31376 2.79 1.29376 2.71C1.27376 2.62 1.19376 2.42 1.13376 2.33C1.06376 2.23 0.973758 2.13 0.873758 2.05C0.753758 1.96 0.653757 2.01 0.573757 2.06C0.503757 2.12 0.353757 2.32 0.273757 2.46C0.163757 2.66 0.133757 2.87 0.113757 3.02C0.0937573 3.29 0.123758 3.51 0.163758 3.52Z" fill="#A35E13"/>
<path opacity="0.25" d="M0.313756 2.38C0.153756 2.63 0.0437562 2.88 0.0137562 3.15C-0.0162438 3.46 0.133756 3.87 0.443756 3.97C0.783756 4.08 1.09376 3.99 1.29376 3.74C1.39376 3.61 1.43376 3.45 1.44376 3.29C0.853756 3.99 -0.216244 3.3 0.313756 2.38Z" fill="#AF7000"/>
<path opacity="0.25" d="M0.853769 2.29C0.813769 2.27 0.743769 2.29 0.683769 2.43C0.623769 2.58 0.57377 2.72 0.58377 2.87C0.59377 3.02 0.683769 3.2 0.823769 3.23C0.973769 3.26 1.11377 3.2 1.17377 3.07C1.24377 2.92 1.19377 2.71 1.13377 2.59C1.07377 2.46 0.953769 2.33 0.853769 2.29Z" fill="#C13600"/>
<path opacity="0.15" d="M0.893762 2.43C0.873762 2.42 0.833762 2.43 0.803762 2.51C0.773762 2.59 0.743762 2.67 0.753762 2.75C0.753762 2.83 0.813762 2.93 0.883762 2.95C0.963762 2.97 1.03376 2.93 1.07376 2.86C1.11376 2.78 1.08376 2.67 1.05376 2.6C1.00376 2.53 0.943762 2.46 0.893762 2.43Z" fill="#FFDC83"/>
<path opacity="0.25" d="M0.213756 2.55C0.103756 2.74 0.0337562 2.94 0.0137562 3.15C-0.0162438 3.46 0.133756 3.87 0.443756 3.97C0.783756 4.08 1.09376 3.99 1.29376 3.74C1.35376 3.66 1.39376 3.58 1.41376 3.48C1.02376 4.14 -0.316244 3.8 0.213756 2.55Z" fill="#AF6915"/>
<path d="M0.713767 4.02C0.623767 4.02 0.523767 4 0.433767 3.97C0.293767 3.92 0.173767 3.81 0.0937672 3.64C0.0237672 3.49 -0.00623292 3.31 0.00376708 3.15C0.0337671 2.81 0.213768 2.5 0.373768 2.27C0.523768 2.05 0.653768 2 0.733768 2C0.763768 2 0.793768 2.01 0.823768 2.02C0.923768 2.07 1.02377 2.17 1.12377 2.31C1.21377 2.44 1.29377 2.59 1.34377 2.73C1.40377 2.89 1.43377 3.07 1.43377 3.23C1.43377 3.44 1.38377 3.61 1.28377 3.74C1.15377 3.92 0.943767 4.02 0.713767 4.02ZM0.733768 2.02C0.653768 2.02 0.533767 2.07 0.383767 2.28C0.233767 2.51 0.0437673 2.81 0.0137673 3.15C0.00376731 3.31 0.0337675 3.48 0.103767 3.64C0.183767 3.81 0.303767 3.92 0.433767 3.97C0.523767 4 0.623767 4.02 0.713767 4.02C0.943767 4.02 1.14377 3.92 1.28377 3.75C1.48377 3.49 1.45377 3.06 1.34377 2.75C1.23377 2.45 1.01377 2.15 0.823768 2.05C0.793768 2.02 0.763768 2.02 0.733768 2.02Z" fill="#915412"/>
</svg>
