<svg width="41" height="33" viewBox="0 0 41 33" fill="none" xmlns="http://www.w3.org/2000/svg">
<path d="M40.6326 22.6294C41.9016 26.6125 39.7779 30.7666 35.888 31.901C31.998 33.0353 27.8129 30.7252 26.5439 26.742C25.2748 22.7588 27.3985 18.6047 31.2884 17.4704C35.1784 16.3308 39.3635 18.641 40.6326 22.6294Z" fill="url(#paint0_radial)"/>
<path d="M33.5001 23.5306C34.36 24.7634 34.101 26.4312 32.92 27.2548C31.739 28.0835 30.0867 27.7521 29.2217 26.5193C28.3619 25.2865 28.6157 23.6187 29.8018 22.7951C30.9828 21.9664 32.6403 22.2978 33.5001 23.5306Z" fill="url(#paint1_linear)"/>
<path d="M16.257 11.4775C17.7591 15.2483 23.0113 16.6934 27.9838 14.7096C32.9563 12.7258 35.7688 8.06408 34.2667 4.29328C32.7646 0.52247 27.5124 -0.922655 22.5399 1.06116C17.5674 3.04498 14.7549 7.70668 16.257 11.4775Z" fill="url(#paint2_radial)"/>
<path d="M28.02 14.7355C23.0475 16.7193 17.7953 15.2742 16.2932 11.5034C16.1689 11.1874 16.0809 10.8611 16.0135 10.5348C18.0699 13.3629 22.6694 14.2849 27.0566 12.5342C31.6096 10.7161 34.3444 6.65003 33.6141 3.08641C33.8886 3.46453 34.1217 3.87371 34.303 4.31916C35.8051 8.08997 32.9977 12.7517 28.02 14.7355Z" fill="url(#paint3_radial)"/>
<path d="M23.5137 2.05566C18.5412 4.03947 15.7287 8.70637 17.2308 12.472C17.4069 12.9175 17.64 13.3266 17.9197 13.7047C17.93 13.7203 17.9456 13.7358 17.9611 13.7566C17.583 13.4406 17.2463 13.0884 16.9614 12.6947C16.6869 12.3166 16.4538 11.9074 16.2725 11.462C14.7704 7.69115 17.583 3.02424 22.5555 1.04043C26.9168 -0.699945 31.4904 0.201329 33.5675 2.99318C31.2315 1.0249 27.2949 0.548369 23.5137 2.05566Z" fill="url(#paint4_radial)"/>
<path d="M21.8148 8.1936C22.6798 7.54096 23.0527 6.56718 22.6383 6.02331C22.2291 5.47944 21.1932 5.56231 20.323 6.20977C19.458 6.86241 19.0851 7.83101 19.4995 8.38006C19.9138 8.9291 20.9498 8.84106 21.8148 8.1936Z" fill="url(#paint5_radial)"/>
<path d="M1.98179 15.4762C-0.867038 18.5012 0.0549404 24.002 4.04847 27.7624C8.04201 31.5229 13.5894 32.1185 16.4383 29.0936C19.2871 26.0687 18.3599 20.5679 14.3716 16.8074C10.3832 13.047 4.83061 12.4513 1.98179 15.4762Z" fill="url(#paint6_radial)"/>
<path d="M4.03812 27.809C0.0497681 24.0486 -0.877405 18.5477 1.97142 15.5228C2.20968 15.269 2.47385 15.0515 2.74837 14.8495C1.008 17.978 2.14235 22.6501 5.66453 25.9651C9.32139 29.4095 14.2783 30.1917 17.2774 27.9748C17.0443 28.3943 16.7646 28.788 16.4279 29.1454C13.5791 32.1651 8.03165 31.5695 4.03812 27.809Z" fill="url(#paint7_radial)"/>
<path d="M13.8691 18.1437C9.8756 14.3833 4.32818 13.7876 1.47935 16.8126C1.14267 17.17 0.862963 17.5636 0.629877 17.9832C0.619518 18.0039 0.61434 18.0246 0.598801 18.0453C0.733472 17.5584 0.909585 17.0923 1.15303 16.6572C1.38612 16.2376 1.66583 15.844 2.00251 15.4866C4.85651 12.4616 10.3988 13.0573 14.3923 16.8177C17.8938 20.1172 19.0333 24.753 17.3343 27.8919C18.1631 24.867 16.9044 21.0029 13.8691 18.1437Z" fill="url(#paint8_radial)"/>
<path d="M7.436 19.2159C8.41496 19.7391 9.47679 19.6614 9.80829 19.045C10.1398 18.4286 9.61146 17.5014 8.6325 16.9783C7.65354 16.4551 6.5917 16.5329 6.2602 17.1492C5.9287 17.7708 6.45704 18.6928 7.436 19.2159Z" fill="url(#paint9_radial)"/>
<defs>
<radialGradient id="paint0_radial" cx="0" cy="0" r="1" gradientUnits="userSpaceOnUse" gradientTransform="translate(33.5914 24.7011) rotate(-34.978) scale(7.29981 7.61515)">
<stop offset="0.2564" stop-color="#ACACAB"/>
<stop offset="0.5279" stop-color="#767779"/>
<stop offset="1" stop-color="#1C1F26"/>
</radialGradient>
<linearGradient id="paint1_linear" x1="29.1979" y1="26.513" x2="33.4714" y2="23.5236" gradientUnits="userSpaceOnUse">
<stop offset="0.0205" stop-color="#8F8563"/>
<stop offset="0.1529" stop-color="#817655"/>
<stop offset="0.4049" stop-color="#5C5031"/>
<stop offset="0.5169" stop-color="#4A3D1F"/>
<stop offset="0.6552" stop-color="#3E301B"/>
<stop offset="0.9108" stop-color="#200E10"/>
<stop offset="1" stop-color="#14000C"/>
</linearGradient>
<radialGradient id="paint2_radial" cx="0" cy="0" r="1" gradientUnits="userSpaceOnUse" gradientTransform="translate(21.7703 7.30769) rotate(158.248) scale(9.49913)">
<stop offset="0.0225" stop-color="#ACACAB"/>
<stop offset="0.1964" stop-color="#8E8E8F"/>
<stop offset="0.5754" stop-color="#515357"/>
<stop offset="0.854" stop-color="#2A2D33"/>
<stop offset="1" stop-color="#1C1F26"/>
</radialGradient>
<radialGradient id="paint3_radial" cx="0" cy="0" r="1" gradientUnits="userSpaceOnUse" gradientTransform="translate(24.0643 13.8949) rotate(49.2378) scale(25.98)">
<stop offset="0.00561798" stop-color="#3A3C48"/>
<stop offset="1" stop-color="#7A7A82"/>
</radialGradient>
<radialGradient id="paint4_radial" cx="0" cy="0" r="1" gradientUnits="userSpaceOnUse" gradientTransform="translate(18.3467 5.09684) rotate(49.2377) scale(13.4157)">
<stop stop-color="#78858F"/>
<stop offset="0.9101" stop-color="#42454F"/>
</radialGradient>
<radialGradient id="paint5_radial" cx="0" cy="0" r="1" gradientUnits="userSpaceOnUse" gradientTransform="translate(22.501 6.50215) rotate(49.2377) scale(7.75248)">
<stop offset="0.0225" stop-color="white"/>
<stop offset="0.2227" stop-color="#EEEEEF"/>
<stop offset="0.7319" stop-color="#C8C8CB"/>
<stop offset="1" stop-color="#BABABD"/>
</radialGradient>
<radialGradient id="paint6_radial" cx="0" cy="0" r="1" gradientUnits="userSpaceOnUse" gradientTransform="translate(8.2491 18.7918) rotate(-136.71) scale(9.73019)">
<stop offset="0.0225" stop-color="#ACACAB"/>
<stop offset="0.1964" stop-color="#8E8E8F"/>
<stop offset="0.5754" stop-color="#515357"/>
<stop offset="0.854" stop-color="#2A2D33"/>
<stop offset="1" stop-color="#1C1F26"/>
</radialGradient>
<radialGradient id="paint7_radial" cx="0" cy="0" r="1" gradientUnits="userSpaceOnUse" gradientTransform="translate(3.07146 23.7852) rotate(114.281) scale(26.6115)">
<stop offset="0.00561798" stop-color="#3A3C48"/>
<stop offset="1" stop-color="#7A7A82"/>
</radialGradient>
<radialGradient id="paint8_radial" cx="0" cy="0" r="1" gradientUnits="userSpaceOnUse" gradientTransform="translate(8.77025 14.6706) rotate(114.281) scale(13.7437)">
<stop stop-color="#78858F"/>
<stop offset="0.9101" stop-color="#42454F"/>
</radialGradient>
<radialGradient id="paint9_radial" cx="0" cy="0" r="1" gradientUnits="userSpaceOnUse" gradientTransform="translate(9.26452 19.1348) rotate(114.281) scale(7.94654)">
<stop offset="0.0225" stop-color="white"/>
<stop offset="0.2227" stop-color="#EEEEEF"/>
<stop offset="0.7319" stop-color="#C8C8CB"/>
<stop offset="1" stop-color="#BABABD"/>
</radialGradient>
</defs>
</svg>
