<svg width="58" height="65" viewBox="0 0 58 65" fill="none" xmlns="http://www.w3.org/2000/svg">
<path d="M33.83 40.13C33.93 40.25 34.28 40.13 34.61 39.85C34.94 39.58 35.13 39.26 35.03 39.13L25.77 27.45C25.67 27.33 25.08 27.6 24.75 27.88C24.42 28.15 24.09 28.59 24.18 28.71L33.83 40.13Z" fill="url(#paint0_linear)"/>
<path d="M25.89 27.6L35.02 39.11C35.11 39.22 34.95 39.52 34.65 39.78C32.08 36.24 25.18 28.51 25.18 28.51C24.61 28.25 25.49 27.78 25.89 27.6Z" fill="url(#paint1_linear)"/>
<path d="M7.61003 26.53C3.08003 26.05 0.280029 24.98 0.280029 24.98C0.280029 24.98 4.78003 21.97 7.83003 22.72C7.83003 22.72 6.84003 22.25 6.97003 19.47C6.97003 19.47 7.63003 20.51 10.87 22C14.12 23.48 14.7 23.2 14.7 23.2C14.7 23.2 17.63 23.56 15.36 20.68C13.09 17.8 6.26003 19.96 2.81003 14.79C2.81003 14.79 3.61004 14.61 4.35004 14.48C4.97004 14.37 5.12003 14.19 5.14003 13.81C5.18003 12.98 1.68003 11.45 0.690033 9.38998C0.690033 9.38998 1.61004 9.28999 2.57004 9.39999C3.54004 9.50999 3.75003 9.11999 3.92003 9.01999C4.26003 8.80999 1.44004 6.94999 2.57004 2.39999C2.75004 1.66999 2.43002 0.829987 2.43002 0.829987C2.47002 0.819987 2.85003 1.00998 3.48003 1.02998C4.50003 1.19998 6.27003 1.81998 7.39003 2.90998C9.59003 5.06998 10.23 5.19998 10.09 4.34998C9.69003 1.78998 11.36 0.609985 11.36 0.609985C13.19 1.96999 14.55 5.94998 14.94 5.95998C15.33 5.96998 15.23 5.53999 15.45 5.05999C15.77 4.37999 16.24 3.71999 16.24 3.71999C20.66 8.09999 17.24 14.39 19.63 17.17C22.02 19.95 22.23 17.01 22.23 17.01C22.23 17.01 22.61 16.5 21.78 13.03C20.94 9.55998 20.05 8.71999 20.05 8.71999C22.81 9.11999 23.08 10.18 23.08 10.18C22.92 7.03998 26.47 3.36998 26.47 3.36998C26.47 3.36998 27.26 6.14998 26.86 10.69C27.46 10.25 28.34 9.65999 29.22 10.04C29.22 10.04 27.55 12.61 26.34 15.42C26.31 15.49 25.9 16.36 25.79 17.18C25.67 18.11 25.75 22.39 25.75 22.39C25.75 22.39 26.26 25.06 26.19 26.62C26.13 27.87 25 29.09 23.27 29.27C21.69 29.44 20.97 28.28 18.65 27.58C18.12 27.35 17.17 27.03 13.47 26.9C13.31 26.91 12.98 26.87 12.77 26.9C9.66003 27.38 6.39003 28.99 6.39003 28.99C6.18003 28.02 7.06003 27.04 7.61003 26.53Z" fill="url(#paint2_linear)"/>
<path d="M7.99005 26.09C3.56005 25.57 0.800049 24.49 0.800049 24.49C0.800049 24.49 5.17005 21.58 8.16005 22.35C8.16005 22.35 7.18004 21.88 7.29004 19.15C7.29004 19.15 7.94005 20.18 11.1301 21.67C14.3201 23.16 14.89 22.89 14.89 22.89C14.89 22.89 17.76 23.27 15.5 20.42C13.25 17.57 6.59005 19.61 3.16005 14.49C3.16005 14.49 3.94004 14.32 4.67004 14.2C5.28004 14.1 5.43005 13.92 5.44005 13.56C5.47005 12.75 2.03004 11.2 1.04004 9.16996C1.04004 9.16996 1.93005 9.07996 2.88005 9.19996C3.82005 9.31996 4.03004 8.93996 4.20004 8.83996C4.53004 8.63996 1.75004 6.77996 2.81004 2.31996C2.98004 1.59996 2.66005 0.779961 2.66005 0.779961C2.70005 0.769961 3.08005 0.959964 3.69005 0.989964C4.69005 1.16996 6.43004 1.79996 7.53004 2.87996C9.71004 5.02996 10.33 5.15996 10.19 4.31996C9.77005 1.79996 11.39 0.649963 11.39 0.649963C13.2 2.00996 14.5701 5.92996 14.9601 5.94996C15.3401 5.96996 15.23 5.53996 15.45 5.06996C15.75 4.39996 16.2101 3.75996 16.2101 3.75996C20.5801 8.10996 17.29 14.25 19.67 17.01C22.04 19.77 22.2101 16.88 22.2101 16.88C22.2101 16.88 22.58 16.38 21.73 12.96C20.88 9.53996 19.9901 8.69996 19.9901 8.69996C22.6901 9.11996 22.97 10.17 22.97 10.17C22.78 7.08996 26.48 3.34996 26.48 3.34996C26.48 3.34996 27.01 6.25996 26.67 10.71C27.26 10.28 28.36 9.62996 29.22 10.02C29.22 10.02 27.3601 12.61 26.2101 15.36C26.1801 15.43 25.79 16.28 25.7 17.08C25.59 17.99 25.7101 22.2 25.7101 22.2C25.7101 22.2 26.2901 24.81 26.2401 26.34C26.2001 27.56 25.33 28.97 23.64 29.13C22.09 29.28 21.09 27.94 18.81 27.23C18.29 27 17.3601 26.67 13.7401 26.51C13.5801 26.51 13.26 26.47 13.06 26.5C10.02 26.93 6.84004 28.48 6.84004 28.48C6.61004 27.54 7.46005 26.58 7.99005 26.09Z" fill="url(#paint3_linear)"/>
<path d="M10.81 5.04C10.95 5.88 10.33 5.74999 8.15004 3.59999C7.05004 2.51999 5.31004 1.89 4.31004 1.71C3.70004 1.68 3.32004 1.49 3.28004 1.5C3.28004 1.5 3.60004 2.32 3.43004 3.04C2.37004 7.5 5.16005 9.36 4.82005 9.56C4.65005 9.66 4.44005 10.04 3.50005 9.91999C2.55005 9.79999 1.66005 9.89 1.66005 9.89C1.74005 10.04 1.83004 10.2 1.93004 10.34C1.57004 9.96 1.25005 9.56 1.05005 9.14C1.05005 9.14 1.95005 9.04999 2.89005 9.16999C3.83005 9.28999 4.04005 8.91 4.21005 8.81C4.54005 8.61 1.76005 6.75 2.82005 2.29C2.99005 1.57 2.67004 0.739998 2.67004 0.739998C2.71004 0.729998 3.09004 0.919997 3.70004 0.949997C4.70004 1.13 6.44004 1.76 7.54004 2.84C9.72004 4.99 10.34 5.11999 10.2 4.27999C9.78004 1.75999 11.4 0.619995 11.4 0.619995C11.8 0.929995 12.19 1.35999 12.54 1.84999C12.37 1.66999 12.2 1.5 12.01 1.37C12.01 1.38 10.38 2.52 10.81 5.04Z" fill="url(#paint4_linear)"/>
<path d="M15.5201 23.66C15.5201 23.66 14.96 23.93 11.76 22.44C8.57004 20.95 7.91005 19.92 7.91005 19.92C7.81005 22.66 8.78004 23.13 8.78004 23.13C6.45004 22.53 3.27005 24.17 1.99005 24.92C1.22005 24.69 0.800049 24.53 0.800049 24.53C0.800049 24.53 5.17005 21.61 8.16005 22.39C8.16005 22.39 7.18004 21.92 7.28004 19.18C7.28004 19.18 7.93005 20.21 11.1301 21.7C14.3201 23.19 14.89 22.92 14.89 22.92C14.89 22.92 17.47 23.26 15.81 20.87C15.92 20.97 16.02 21.08 16.12 21.2C18.39 24.04 15.5201 23.66 15.5201 23.66Z" fill="url(#paint5_linear)"/>
<path d="M23.55 10.86C23.55 10.86 23.27 9.80998 20.57 9.38998C20.57 9.38998 21.46 10.23 22.31 13.65C23.16 17.07 22.79 17.57 22.79 17.57C22.79 17.57 22.62 20.46 20.25 17.7C20.15 17.58 20.07 17.46 19.99 17.33C22.03 19.41 22.18 16.82 22.18 16.82C22.18 16.82 22.55 16.32 21.7 12.9C20.85 9.47998 19.96 8.63998 19.96 8.63998C22.66 9.05998 22.94 10.11 22.94 10.11C22.75 7.02998 26.45 3.28998 26.45 3.28998C26.45 3.28998 26.53 3.72998 26.61 4.52998C25.62 5.64998 23.4 8.44998 23.55 10.86Z" fill="url(#paint6_linear)"/>
<path d="M24.8301 27.63C24.4101 27.42 18.1401 22.18 13.5401 13.74C8.95005 5.29999 4.07007 2.89999 4.07007 2.89999C4.07007 2.89999 9.87007 6.89999 13.2701 14.04C15.7401 19.21 24.0801 29.28 25.1801 28.74C26.2801 28.2 25.3001 27.87 24.8301 27.63Z" fill="url(#paint7_linear)"/>
<path d="M23.1701 26.01C23.0801 25.78 22.6301 21.48 24.1501 16.65C25.6701 11.81 24.6401 9.09 24.6401 9.09C24.6401 9.09 25.4001 12.75 23.9201 16.66C22.8401 19.5 22.2001 26.34 22.8701 26.56C23.5401 26.77 23.2701 26.28 23.1701 26.01Z" fill="url(#paint8_linear)"/>
<path d="M21.75 26.01C21.54 25.88 17.41 24.61 12.37 25.18C7.33004 25.75 4.86005 24.22 4.86005 24.22C4.86005 24.22 8.30004 25.67 12.43 24.96C15.42 24.45 22.2601 25.13 22.3501 25.82C22.4201 26.51 21.99 26.15 21.75 26.01Z" fill="url(#paint9_linear)"/>
<path d="M24.89 27.53C24.47 27.32 18.2 22.08 13.6 13.64C9.01001 5.20999 4.13 2.79999 4.13 2.79999C4.13 2.79999 9.93 6.79999 13.33 13.94C15.79 19.11 24.14 29.18 25.24 28.64C26.35 28.1 25.37 27.77 24.89 27.53Z" fill="url(#paint10_linear)"/>
<path d="M23.24 25.92C23.15 25.69 22.7 21.39 24.22 16.55C25.74 11.71 24.71 8.98999 24.71 8.98999C24.71 8.98999 25.47 12.65 23.99 16.56C22.91 19.4 22.27 26.25 22.94 26.46C23.61 26.68 23.34 26.18 23.24 25.92Z" fill="url(#paint11_linear)"/>
<path d="M21.82 25.91C21.61 25.78 17.48 24.51 12.44 25.08C7.39999 25.65 4.91998 24.12 4.91998 24.12C4.91998 24.12 8.35999 25.57 12.49 24.86C15.48 24.34 22.32 25.03 22.41 25.72C22.49 26.42 22.06 26.06 21.82 25.91Z" fill="url(#paint12_linear)"/>
<path d="M15.15 16.02C15.15 16.02 16.68 10.32 15.73 7.40997C15.73 7.40997 17.24 10.78 15.15 16.02Z" fill="url(#paint13_linear)"/>
<path d="M24.78 13.36C24.78 13.36 27.52 12.12 28.36 10.81C28.36 10.81 27.51 12.5 24.78 13.36Z" fill="url(#paint14_linear)"/>
<path d="M12.01 11.27C12.01 11.27 12.86 6.50999 11.88 4.14999C11.88 4.15999 13.35 6.87999 12.01 11.27Z" fill="url(#paint15_linear)"/>
<path d="M13.91 24.93C13.91 24.93 9.22001 26.09 7.47001 27.96C7.46001 27.96 9.35001 25.5 13.91 24.93Z" fill="url(#paint16_linear)"/>
<path d="M12.57 12.49C12.57 12.49 7.38004 12.41 5.10004 10.89C5.10004 10.89 7.66004 13 12.57 12.49Z" fill="url(#paint17_linear)"/>
<path d="M24.55 15.05C24.55 15.05 22.67 12.72 22.51 11.14C22.51 11.15 22.52 13.06 24.55 15.05Z" fill="url(#paint18_linear)"/>
<path d="M14.98 16.61C14.98 16.61 9.32002 16.53 6.83002 14.86C6.84002 14.86 9.63001 17.17 14.98 16.61Z" fill="url(#paint19_linear)"/>
<path d="M13.77 24.7C13.77 24.7 10.54 23.69 9.39001 22.31C9.39001 22.31 10.6 24.11 13.77 24.7Z" fill="url(#paint20_linear)"/>
<path d="M36.09 47.24C36.19 47.21 36.2 46.94 36.11 46.62C36.02 46.3 35.85 46.07 35.75 46.1L25.72 48.42C25.61 48.45 25.64 48.93 25.73 49.25C25.82 49.56 26.03 49.93 26.13 49.91L36.09 47.24Z" fill="url(#paint21_linear)"/>
<path d="M25.8401 48.39L35.7301 46.1C35.8301 46.08 35.9801 46.28 36.0701 46.57C33.0901 47.11 26.2501 49.17 26.2501 49.17C25.9301 49.46 25.8601 48.72 25.8401 48.39Z" fill="url(#paint22_linear)"/>
<path d="M20.3701 60.06C18.8601 62.92 17.4201 64.44 17.4201 64.44C17.4201 64.44 16.6201 60.45 17.9201 58.67C17.9201 58.67 17.3501 59.18 15.5501 58.18C15.5501 58.18 16.4101 58.08 18.2401 56.41C20.0701 54.73 20.0401 54.25 20.0401 54.25C20.0401 54.25 21.0501 52.42 18.5501 52.99C16.0501 53.56 15.6801 58.82 11.3601 59.42C11.3601 59.42 11.4501 58.83 11.5601 58.29C11.6501 57.84 11.5701 57.68 11.3301 57.54C10.8001 57.24 8.86006 59.07 7.25006 59.06C7.25006 59.06 7.43006 58.42 7.75006 57.81C8.08006 57.2 7.88007 56.93 7.85007 56.78C7.80007 56.48 5.83007 57.75 3.13007 55.51C2.69007 55.15 2.06006 55.09 2.06006 55.09C2.06006 55.06 2.19006 54.85 2.47006 54.46C2.85006 53.84 3.73007 52.86 4.74007 52.47C6.75007 51.71 7.00005 51.33 6.40005 51.14C4.60005 50.57 4.26006 49.07 4.26006 49.07C5.64006 48.3 8.62006 48.69 8.73006 48.43C8.84006 48.18 8.53007 48.1 8.27007 47.8C7.90007 47.36 7.59006 46.83 7.59006 46.83C11.6401 45.32 14.8801 49.66 17.3501 48.97C19.8101 48.28 17.9301 47.18 17.9301 47.18C17.9301 47.18 17.6901 46.75 15.1801 46.18C12.6701 45.6 11.8801 45.92 11.8801 45.92C12.8701 44.21 13.6401 44.38 13.6401 44.38C11.5301 43.46 10.0001 39.65 10.0001 39.65C10.0001 39.65 12.0801 40.28 14.9701 42.02C14.8401 41.47 14.6901 40.5 15.1801 40.04C15.1801 40.04 16.4201 42.2 17.9601 43.92C18.0001 43.96 18.4601 44.52 18.9701 44.86C19.5501 45.24 22.3901 46.59 22.3901 46.59C22.3901 46.59 24.2801 47.08 25.2901 47.64C26.1001 48.09 26.8101 49.15 26.4701 50.37C26.1601 51.48 25.0101 51.71 23.9301 53.03C23.6401 53.31 23.1801 53.83 22.1201 56.26C22.0801 56.37 21.9701 56.58 21.9401 56.73C21.4401 58.95 21.6401 61.66 21.6401 61.66C20.9701 61.5 20.5601 60.59 20.3701 60.06Z" fill="url(#paint23_linear)"/>
<path d="M20.25 59.91C18.77 62.72 17.36 64.21 17.36 64.21C17.36 64.21 16.5701 60.3 17.8501 58.55C17.8501 58.55 17.2901 59.05 15.5201 58.07C15.5201 58.07 16.36 57.98 18.16 56.33C19.96 54.68 19.93 54.22 19.93 54.22C19.93 54.22 20.92 52.42 18.47 52.98C16.02 53.54 15.65 58.7 11.41 59.29C11.41 59.29 11.5 58.71 11.61 58.18C11.7 57.74 11.6201 57.58 11.3801 57.45C10.8601 57.16 8.96005 58.96 7.38005 58.94C7.38005 58.94 7.55004 58.31 7.87004 57.71C8.19004 57.12 7.99005 56.85 7.97005 56.7C7.92005 56.41 5.99004 57.66 3.34004 55.46C2.91004 55.11 2.29004 55.05 2.29004 55.05C2.29004 55.02 2.51005 54.83 2.69005 54.43C3.07005 53.82 3.92004 52.86 4.92004 52.48C6.89004 51.73 7.13005 51.36 6.55005 51.17C4.79005 50.61 4.46005 49.14 4.46005 49.14C5.81005 48.38 8.74005 48.77 8.85005 48.51C8.96005 48.26 8.65004 48.19 8.40004 47.89C8.04004 47.46 7.74005 46.94 7.74005 46.94C11.7101 45.46 14.9 49.71 17.31 49.04C19.73 48.37 17.8801 47.29 17.8801 47.29C17.8801 47.29 17.65 46.87 15.19 46.31C12.73 45.74 11.95 46.06 11.95 46.06C12.92 44.39 13.68 44.55 13.68 44.55C11.61 43.64 10.11 39.91 10.11 39.91C10.11 39.91 12.1501 40.52 14.9901 42.24C14.8601 41.7 14.72 40.75 15.19 40.29C15.19 40.29 16.41 42.41 17.92 44.1C17.96 44.14 18.41 44.69 18.92 45.02C19.49 45.4 22.28 46.72 22.28 46.72C22.28 46.72 24.1401 47.2 25.1301 47.75C25.9201 48.19 26.62 49.24 26.29 50.43C25.99 51.52 24.86 51.75 23.8 53.04C23.51 53.31 23.0601 53.83 22.0201 56.21C21.9801 56.32 21.87 56.52 21.84 56.67C21.35 58.85 21.54 61.51 21.54 61.51C20.85 61.32 20.44 60.43 20.25 59.91Z" fill="url(#paint24_linear)"/>
<path d="M7.17007 50.99C7.76007 51.18 7.51007 51.55 5.54007 52.3C4.55007 52.68 3.69007 53.64 3.31007 54.25C3.13007 54.65 2.91008 54.84 2.91008 54.87C2.91008 54.87 3.54008 54.93 3.96008 55.28C6.61008 57.48 8.55007 56.23 8.59007 56.52C8.61007 56.67 8.81008 56.93 8.49008 57.53C8.17008 58.12 8.00008 58.76 8.00008 58.76C8.12008 58.76 8.25007 58.75 8.37007 58.73C8.03007 58.85 7.69008 58.93 7.36008 58.92C7.36008 58.92 7.53008 58.29 7.85008 57.69C8.17008 57.1 7.97007 56.83 7.95007 56.68C7.90007 56.39 5.98008 57.64 3.32008 55.44C2.89008 55.09 2.27008 55.03 2.27008 55.03C2.27008 55 2.43007 54.8 2.67007 54.41C3.05007 53.8 3.90007 52.84 4.90007 52.46C6.87007 51.71 7.11008 51.34 6.53008 51.15C4.77008 50.59 4.44008 49.12 4.44008 49.12C4.74008 48.95 5.13007 48.84 5.54007 48.76C5.38007 48.82 5.22007 48.88 5.09007 48.95C5.08007 48.96 5.41007 50.43 7.17007 50.99Z" fill="url(#paint25_linear)"/>
<path d="M20.6001 54.12C20.6001 54.12 20.63 54.59 18.83 56.23C17.03 57.88 16.19 57.97 16.19 57.97C17.96 58.95 18.5201 58.45 18.5201 58.45C17.5201 59.82 17.79 62.5 17.95 63.61C17.6 64.05 17.39 64.28 17.39 64.28C17.39 64.28 16.6001 60.37 17.8801 58.62C17.8801 58.62 17.32 59.12 15.55 58.14C15.55 58.14 16.39 58.05 18.19 56.4C19.99 54.75 19.9601 54.29 19.9601 54.29C19.9601 54.29 20.8501 52.67 18.8501 52.99C18.9401 52.95 19.04 52.92 19.14 52.89C21.59 52.32 20.6001 54.12 20.6001 54.12Z" fill="url(#paint26_linear)"/>
<path d="M14.2701 44.29C14.2701 44.29 13.5101 44.12 12.5401 45.8C12.5401 45.8 13.3201 45.48 15.7801 46.05C18.2401 46.62 18.4801 47.03 18.4801 47.03C18.4801 47.03 20.3301 48.11 17.9101 48.78C17.8101 48.81 17.7101 48.82 17.6001 48.84C19.4901 48.17 17.8301 47.2 17.8301 47.2C17.8301 47.2 17.6001 46.78 15.1401 46.22C12.6801 45.65 11.9001 45.97 11.9001 45.97C12.8701 44.29 13.6301 44.46 13.6301 44.46C11.5601 43.55 10.0601 39.82 10.0601 39.82C10.0601 39.82 10.3701 39.92 10.9101 40.13C11.3901 41.16 12.6601 43.58 14.2701 44.29Z" fill="url(#paint27_linear)"/>
<path d="M25.5801 49.11C25.3401 49.32 20.2901 51.78 13.5801 52.06C6.87008 52.33 3.95007 54.74 3.95007 54.74C3.95007 54.74 8.15008 52.24 13.7101 52.34C17.7401 52.41 26.4801 50.17 26.4101 49.25C26.3301 48.33 25.8601 48.87 25.5801 49.11Z" fill="url(#paint28_linear)"/>
<path d="M24.1001 49.68C23.9301 49.66 20.9901 48.53 18.2101 45.9C15.4301 43.26 13.3801 43.04 13.3801 43.04C13.3801 43.04 15.9701 43.75 18.1601 46.05C19.7401 47.72 24.0701 50.44 24.3801 50.06C24.6901 49.69 24.3001 49.71 24.1001 49.68Z" fill="url(#paint29_linear)"/>
<path d="M23.7301 50.63C23.5901 50.73 21.7001 53.08 20.7701 56.65C19.8501 60.23 18.2101 61.38 18.2101 61.38C18.2101 61.38 20.0401 59.55 20.6401 56.54C21.0701 54.36 23.2701 49.99 23.7501 50.17C24.2301 50.35 23.8901 50.52 23.7301 50.63Z" fill="url(#paint30_linear)"/>
<path d="M25.5401 49.03C25.3001 49.24 20.2501 51.71 13.5401 51.98C6.83005 52.25 4.00006 54.72 4.00006 54.72C4.00006 54.72 8.12006 52.16 13.6701 52.26C17.7001 52.33 26.4401 50.09 26.3701 49.17C26.2901 48.25 25.8201 48.8 25.5401 49.03Z" fill="url(#paint31_linear)"/>
<path d="M24.0601 49.61C23.8901 49.59 20.9501 48.46 18.1701 45.83C15.3901 43.19 13.3401 42.98 13.3401 42.98C13.3401 42.98 15.9301 43.69 18.1201 45.99C19.7001 47.66 24.0301 50.38 24.3401 50C24.6501 49.61 24.2601 49.63 24.0601 49.61Z" fill="url(#paint32_linear)"/>
<path d="M23.6901 50.56C23.5501 50.66 21.6601 53.01 20.7401 56.58C19.8201 60.16 18.1801 61.31 18.1801 61.31C18.1801 61.31 20.0101 59.48 20.6101 56.47C21.0401 54.29 23.2401 49.92 23.7201 50.1C24.1901 50.27 23.8401 50.44 23.6901 50.56Z" fill="url(#paint33_linear)"/>
<path d="M15.4901 51.73C15.4901 51.73 12.1401 48.8 9.99005 48.47C9.99005 48.47 12.5901 48.58 15.4901 51.73Z" fill="url(#paint34_linear)"/>
<path d="M16.2201 44.38C16.2201 44.38 16.1101 42.13 15.4701 41.12C15.4701 41.12 16.3501 42.25 16.2201 44.38Z" fill="url(#paint35_linear)"/>
<path d="M11.5701 52.26C11.5701 52.26 8.67006 50.1 6.87006 49.97C6.87006 49.97 9.03007 49.89 11.5701 52.26Z" fill="url(#paint36_linear)"/>
<path d="M21.0101 55.55C21.0101 55.55 20.5701 59.09 21.3401 60.89C21.3401 60.89 20.2201 58.8 21.0101 55.55Z" fill="url(#paint37_linear)"/>
<path d="M12.51 52.29C12.51 52.29 11.13 55.75 9.54004 56.77C9.54004 56.77 11.59 55.76 12.51 52.29Z" fill="url(#paint38_linear)"/>
<path d="M17.2701 45.1C17.2701 45.1 15.2601 45.58 14.1801 45.17C14.1801 45.16 15.4401 45.8 17.2701 45.1Z" fill="url(#paint39_linear)"/>
<path d="M15.8301 52.04C15.8301 52.04 14.3201 55.81 12.5901 56.93C12.6001 56.93 14.8201 55.83 15.8301 52.04Z" fill="url(#paint40_linear)"/>
<path d="M20.8201 55.56C20.8201 55.56 19.3201 57.39 18.1301 57.7C18.1301 57.71 19.6201 57.49 20.8201 55.56Z" fill="url(#paint41_linear)"/>
<path d="M42.27 36.16C42.26 36.25 42.48 36.35 42.77 36.38C43.06 36.41 43.3 36.36 43.31 36.26L44.77 27.35C44.78 27.25 44.38 27.12 44.09 27.09C43.8 27.06 43.44 27.1 43.42 27.2L42.27 36.16Z" fill="url(#paint42_linear)"/>
<path d="M44.7501 27.46L43.3101 36.25C43.3001 36.34 43.0801 36.39 42.8101 36.37C43.3601 33.77 43.9701 27.54 43.9701 27.54C43.8501 27.18 44.4801 27.37 44.7501 27.46Z" fill="url(#paint43_linear)"/>
<path d="M37.11 19.14C35.29 16.97 34.54 15.29 34.54 15.29C34.54 15.29 38.04 15.96 39.05 17.61C39.05 17.61 38.8301 16.98 40.2401 15.85C40.2401 15.85 40.03 16.58 40.78 18.63C41.53 20.67 41.93 20.81 41.93 20.81C41.93 20.81 43.08 22.24 43.45 20.02C43.82 17.81 39.6801 15.75 40.6301 12.05C40.6301 12.05 41.08 12.32 41.48 12.59C41.81 12.81 41.97 12.8 42.16 12.65C42.58 12.32 41.74 10.14 42.29 8.82999C42.29 8.82999 42.75 9.17999 43.14 9.64999C43.52 10.12 43.81 10.04 43.94 10.08C44.2 10.14 43.82 8.11998 46.54 6.66998C46.98 6.43998 47.15 5.82999 47.15 5.82999C47.18 5.83999 47.35 6.19998 47.62 6.47998C48 6.99998 48.5 8.02998 48.47 8.97998C48.42 10.86 48.64 11.19 49 10.77C50.06 9.49999 51.39 9.72998 51.39 9.72998C51.56 11.11 50.25 13.39 50.42 13.57C50.59 13.74 50.76 13.51 51.09 13.41C51.57 13.26 52.1001 13.18 52.1001 13.18C51.9801 16.97 47.38 18.16 47.11 20.38C46.84 22.61 48.37 21.44 48.37 21.44C48.37 21.44 48.7901 21.39 50.1001 19.55C51.4001 17.71 51.4 16.96 51.4 16.96C52.46 18.33 52.06 18.9 52.06 18.9C53.51 17.5 57.1001 17.52 57.1001 17.52C57.1001 17.52 55.9001 19 53.5201 20.76C54.0101 20.84 54.85 21.04 55.06 21.59C55.06 21.59 52.9001 21.88 50.9901 22.55C50.9401 22.57 50.33 22.76 49.89 23.06C49.39 23.4 47.34 25.26 47.34 25.26C47.34 25.26 46.3101 26.64 45.5201 27.27C44.8901 27.78 43.79 28 42.92 27.32C42.12 26.7 42.32 25.69 41.61 24.38C41.48 24.05 41.2101 23.5 39.6001 21.84C39.5201 21.77 39.39 21.61 39.28 21.54C37.64 20.39 35.3801 19.65 35.3801 19.65C35.7401 19.15 36.61 19.12 37.11 19.14Z" fill="url(#paint44_linear)"/>
<path d="M37.2701 19.1C35.4901 16.96 34.7501 15.32 34.7501 15.32C34.7501 15.32 38.1901 15.98 39.1801 17.6C39.1801 17.6 38.9601 16.98 40.3401 15.87C40.3401 15.87 40.1401 16.59 40.8701 18.59C41.6101 20.6 42.0001 20.73 42.0001 20.73C42.0001 20.73 43.1301 22.13 43.4901 19.96C43.8501 17.79 39.7901 15.77 40.7201 12.14C40.7201 12.14 41.1601 12.4 41.5501 12.67C41.8801 12.89 42.0301 12.88 42.2201 12.73C42.6301 12.4 41.8001 10.27 42.3501 8.97999C42.3501 8.97999 42.8101 9.32999 43.1801 9.78999C43.5601 10.25 43.8401 10.18 43.9601 10.21C44.2201 10.27 43.8401 8.28999 46.5101 6.86999C46.9401 6.63999 47.1901 6.14999 47.1901 6.14999C47.2201 6.15999 47.3001 6.39999 47.5601 6.67999C47.9301 7.18999 48.4201 8.19999 48.4001 9.12999C48.3501 10.98 48.5701 11.3 48.9201 10.88C49.9601 9.63999 51.2601 9.85999 51.2601 9.85999C51.4301 11.21 50.1401 13.45 50.3101 13.63C50.4801 13.8 50.6401 13.57 50.9701 13.47C51.4401 13.32 51.9601 13.25 51.9601 13.25C51.8401 16.97 47.3301 18.13 47.0701 20.32C46.8101 22.5 48.3001 21.36 48.3001 21.36C48.3001 21.36 48.7201 21.31 50.0001 19.5C51.2801 17.69 51.2901 16.96 51.2901 16.96C52.3201 18.31 51.9401 18.87 51.9401 18.87C53.3601 17.49 56.8901 17.52 56.8901 17.52C56.8901 17.52 55.7101 18.97 53.3801 20.7C53.8601 20.77 54.6801 20.98 54.8901 21.51C54.8901 21.51 52.7701 21.79 50.8901 22.45C50.8401 22.47 50.2501 22.65 49.8101 22.95C49.3201 23.29 47.3101 25.11 47.3101 25.11C47.3101 25.11 46.3001 26.46 45.5301 27.08C44.9101 27.58 43.8301 27.8 42.9701 27.13C42.1901 26.52 42.3801 25.53 41.6801 24.24C41.5501 23.91 41.2901 23.38 39.7001 21.74C39.6201 21.67 39.5001 21.52 39.3901 21.44C37.7801 20.31 35.5601 19.59 35.5601 19.59C35.9201 19.11 36.7801 19.08 37.2701 19.1Z" fill="url(#paint45_linear)"/>
<path d="M48.86 11.46C48.51 11.87 48.29 11.55 48.34 9.70999C48.37 8.77999 47.87 7.75999 47.5 7.25999C47.23 6.97999 47.1501 6.73999 47.1301 6.72999C47.1301 6.72999 46.87 7.21999 46.44 7.44999C43.77 8.86999 44.14 10.85 43.89 10.79C43.76 10.76 43.4801 10.83 43.1001 10.37C42.7201 9.90999 42.2701 9.55999 42.2701 9.55999C42.2301 9.65999 42.2 9.75999 42.17 9.86999C42.19 9.54999 42.2401 9.24999 42.3501 8.97999C42.3501 8.97999 42.81 9.32999 43.18 9.78999C43.56 10.25 43.8401 10.18 43.9601 10.21C44.2101 10.27 43.84 8.28999 46.51 6.86999C46.94 6.63999 47.19 6.14999 47.19 6.14999C47.21 6.15999 47.3 6.39999 47.56 6.67999C47.93 7.18999 48.42 8.19999 48.4 9.13999C48.35 10.99 48.57 11.31 48.92 10.89C49.96 9.64999 51.2701 9.86999 51.2701 9.86999C51.3001 10.17 51.27 10.52 51.19 10.88C51.2 10.73 51.2 10.58 51.19 10.45C51.2 10.44 49.9 10.22 48.86 11.46Z" fill="url(#paint46_linear)"/>
<path d="M41.84 21.31C41.84 21.31 41.4501 21.18 40.7101 19.17C39.9701 17.16 40.18 16.45 40.18 16.45C38.8 17.56 39.01 18.18 39.01 18.18C38.23 16.92 35.9701 16.24 35.0201 16C34.7801 15.57 34.67 15.32 34.67 15.32C34.67 15.32 38.1001 15.98 39.1001 17.6C39.1001 17.6 38.8801 16.98 40.2701 15.87C40.2701 15.87 40.07 16.59 40.8 18.59C41.54 20.6 41.93 20.73 41.93 20.73C41.93 20.73 42.95 21.99 43.36 20.26C43.36 20.35 43.35 20.44 43.34 20.53C42.98 22.71 41.84 21.31 41.84 21.31Z" fill="url(#paint47_linear)"/>
<path d="M51.9301 19.45C51.9301 19.45 52.3201 18.89 51.2801 17.54C51.2801 17.54 51.2801 18.28 50.0001 20.08C48.7201 21.89 48.3001 21.94 48.3001 21.94C48.3001 21.94 46.8101 23.08 47.0701 20.9C47.0801 20.81 47.1001 20.72 47.1301 20.63C47.0501 22.39 48.3901 21.36 48.3901 21.36C48.3901 21.36 48.8101 21.31 50.0901 19.5C51.3701 17.69 51.3701 16.96 51.3701 16.96C52.4101 18.3 52.0201 18.87 52.0201 18.87C53.4401 17.49 56.9701 17.52 56.9701 17.52C56.9701 17.52 56.7901 17.74 56.4401 18.11C55.4301 18.15 53.0401 18.37 51.9301 19.45Z" fill="url(#paint48_linear)"/>
<path d="M44.25 27.02C44.16 26.75 43.84 21.84 45.86 16.3C47.88 10.77 46.89 7.63998 46.89 7.63998C46.89 7.63998 47.52 11.84 45.59 16.31C44.19 19.55 43.1 27.39 43.87 27.64C44.64 27.88 44.35 27.32 44.25 27.02Z" fill="url(#paint49_linear)"/>
<path d="M44.2801 25.62C44.3501 25.48 46.2401 23.48 49.3101 22.1C52.3701 20.72 53.2301 19.13 53.2301 19.13C53.2301 19.13 51.7901 21 49.2001 22C47.3201 22.73 43.6701 25.33 43.8801 25.71C44.0801 26.1 44.1901 25.77 44.2801 25.62Z" fill="url(#paint50_linear)"/>
<path d="M43.6301 25.01C43.6001 24.86 42.3201 22.55 39.7301 20.61C37.1401 18.67 36.7501 16.96 36.7501 16.96C36.7501 16.96 37.6201 19.06 39.8601 20.54C41.4901 21.61 44.2901 24.86 43.9901 25.19C43.6901 25.51 43.6701 25.17 43.6301 25.01Z" fill="url(#paint51_linear)"/>
<path d="M44.3301 27.01C44.2401 26.74 43.9201 21.82 45.9401 16.29C47.9601 10.76 46.8901 7.63998 46.8901 7.63998C46.8901 7.63998 47.6001 11.83 45.6701 16.3C44.2701 19.54 43.1801 27.38 43.9501 27.63C44.7201 27.87 44.4301 27.31 44.3301 27.01Z" fill="url(#paint52_linear)"/>
<path d="M44.3601 25.61C44.4301 25.47 46.3301 23.47 49.3901 22.09C52.4601 20.71 53.3101 19.12 53.3101 19.12C53.3101 19.12 51.8701 20.99 49.2801 21.99C47.4001 22.72 43.7501 25.32 43.9501 25.7C44.1601 26.09 44.2701 25.77 44.3601 25.61Z" fill="url(#paint53_linear)"/>
<path d="M43.7101 25C43.6701 24.85 42.4001 22.54 39.8101 20.6C37.2201 18.66 36.8301 16.95 36.8301 16.95C36.8301 16.95 37.7001 19.05 39.9401 20.53C41.5601 21.6 44.3801 24.85 44.0701 25.18C43.7701 25.5 43.7501 25.16 43.7101 25Z" fill="url(#paint54_linear)"/>
<path d="M45.48 17.96C45.48 17.96 48.9801 16.22 49.9601 14.59C49.9601 14.58 49.01 16.65 45.48 17.96Z" fill="url(#paint55_linear)"/>
<path d="M51.2101 20.99C51.2101 20.99 53.0801 21.65 54.1001 21.46C54.1001 21.47 52.8901 21.81 51.2101 20.99Z" fill="url(#paint56_linear)"/>
<path d="M46.36 14.6C46.36 14.6 49.08 12.97 49.78 11.55C49.78 11.55 49.13 13.33 46.36 14.6Z" fill="url(#paint57_linear)"/>
<path d="M40.55 21.17C40.55 21.17 37.83 19.63 36.11 19.66C36.11 19.65 38.18 19.43 40.55 21.17Z" fill="url(#paint58_linear)"/>
<path d="M46.0201 15.35C46.0201 15.35 43.6801 13.08 43.3701 11.45C43.3801 11.45 43.5201 13.45 46.0201 15.35Z" fill="url(#paint59_linear)"/>
<path d="M50.27 21.61C50.27 21.61 50.55 19.82 51.24 19.09C51.25 19.08 50.31 19.89 50.27 21.61Z" fill="url(#paint60_linear)"/>
<path d="M45.12 18.13C45.12 18.13 42.56 15.65 42.23 13.88C42.23 13.88 42.38 16.05 45.12 18.13Z" fill="url(#paint61_linear)"/>
<path d="M40.6001 21.01C40.6001 21.01 39.6101 19.19 39.7601 18.11C39.7601 18.11 39.4401 19.39 40.6001 21.01Z" fill="url(#paint62_linear)"/>
<defs>
<linearGradient id="paint0_linear" x1="3.21235" y1="1.63083" x2="34.1851" y2="39.2229" gradientUnits="userSpaceOnUse">
<stop offset="0.1282" stop-color="#3DC200"/>
<stop offset="0.8462" stop-color="#00A33D"/>
</linearGradient>
<linearGradient id="paint1_linear" x1="22.2512" y1="24.0749" x2="37.6169" y2="42.7243" gradientUnits="userSpaceOnUse">
<stop offset="0.1282" stop-color="#6ED600"/>
<stop offset="0.8462" stop-color="#38B000"/>
</linearGradient>
<linearGradient id="paint2_linear" x1="2.43997" y1="0.806711" x2="33.4906" y2="38.4933" gradientUnits="userSpaceOnUse">
<stop offset="0.1282" stop-color="#0D7000"/>
<stop offset="0.8462" stop-color="#00753D"/>
</linearGradient>
<linearGradient id="paint3_linear" x1="2.79264" y1="0.71812" x2="33.7654" y2="38.3102" gradientUnits="userSpaceOnUse">
<stop offset="0.1282" stop-color="#96E026"/>
<stop offset="0.8462" stop-color="#59A629"/>
</linearGradient>
<linearGradient id="paint4_linear" x1="2.23482" y1="0.0080941" x2="10.1342" y2="9.5957" gradientUnits="userSpaceOnUse">
<stop offset="0.1282" stop-color="#C7FA99"/>
<stop offset="1" stop-color="#A1E080"/>
</linearGradient>
<linearGradient id="paint5_linear" x1="5.54547" y1="19.3813" x2="16.2051" y2="31.8722" gradientUnits="userSpaceOnUse">
<stop offset="0.1282" stop-color="#C7FA99"/>
<stop offset="1" stop-color="#A1E080"/>
</linearGradient>
<linearGradient id="paint6_linear" x1="20.1994" y1="6.7647" x2="30.8614" y2="19.2585" gradientUnits="userSpaceOnUse">
<stop offset="0.1282" stop-color="#C7FA99"/>
<stop offset="1" stop-color="#A1E080"/>
</linearGradient>
<linearGradient id="paint7_linear" x1="26.2526" y1="28.0477" x2="3.22083" y2="3.53045" gradientUnits="userSpaceOnUse">
<stop offset="0.1282" stop-color="#2EB800"/>
<stop offset="0.8462" stop-color="#38B000"/>
</linearGradient>
<linearGradient id="paint8_linear" x1="23.6644" y1="26.682" x2="24.321" y2="8.9894" gradientUnits="userSpaceOnUse">
<stop offset="0.1282" stop-color="#2E9E00"/>
<stop offset="0.8462" stop-color="#308F00"/>
</linearGradient>
<linearGradient id="paint9_linear" x1="22.3961" y1="26.5165" x2="4.90309" y2="23.7769" gradientUnits="userSpaceOnUse">
<stop offset="0.1282" stop-color="#2E9E00"/>
<stop offset="0.8462" stop-color="#308F00"/>
</linearGradient>
<linearGradient id="paint10_linear" x1="26.3238" y1="27.955" x2="3.29069" y2="3.43617" gradientUnits="userSpaceOnUse">
<stop offset="0.1282" stop-color="#1FA600"/>
<stop offset="0.8462" stop-color="#66D100"/>
</linearGradient>
<linearGradient id="paint11_linear" x1="23.7342" y1="26.5877" x2="24.3909" y2="8.89503" gradientUnits="userSpaceOnUse">
<stop offset="0.1282" stop-color="#1FA600"/>
<stop offset="0.8462" stop-color="#38B000"/>
</linearGradient>
<linearGradient id="paint12_linear" x1="22.4649" y1="26.4229" x2="4.97058" y2="23.683" gradientUnits="userSpaceOnUse">
<stop offset="0.1282" stop-color="#1FA600"/>
<stop offset="0.8462" stop-color="#38B000"/>
</linearGradient>
<linearGradient id="paint13_linear" x1="15.736" y1="16.0232" x2="15.7711" y2="8.54194" gradientUnits="userSpaceOnUse">
<stop offset="0.1282" stop-color="#2EB800"/>
<stop offset="0.8462" stop-color="#38B000"/>
</linearGradient>
<linearGradient id="paint14_linear" x1="24.9513" y1="13.5544" x2="27.9092" y2="11.1568" gradientUnits="userSpaceOnUse">
<stop offset="0.1282" stop-color="#2EB800"/>
<stop offset="0.8462" stop-color="#38B000"/>
</linearGradient>
<linearGradient id="paint15_linear" x1="12.3892" y1="11.1704" x2="12.1118" y2="4.99817" gradientUnits="userSpaceOnUse">
<stop offset="0.1282" stop-color="#2EB800"/>
<stop offset="0.8462" stop-color="#38B000"/>
</linearGradient>
<linearGradient id="paint16_linear" x1="13.6951" y1="24.5718" x2="8.1695" y2="27.3452" gradientUnits="userSpaceOnUse">
<stop offset="0.1282" stop-color="#2EB800"/>
<stop offset="0.8462" stop-color="#38B000"/>
</linearGradient>
<linearGradient id="paint17_linear" x1="12.3962" y1="12.9437" x2="5.95237" y2="11.3849" gradientUnits="userSpaceOnUse">
<stop offset="0.1282" stop-color="#2EB800"/>
<stop offset="0.8462" stop-color="#38B000"/>
</linearGradient>
<linearGradient id="paint18_linear" x1="24.3082" y1="15.2476" x2="22.6265" y2="11.8119" gradientUnits="userSpaceOnUse">
<stop offset="0.1282" stop-color="#2EB800"/>
<stop offset="0.8462" stop-color="#38B000"/>
</linearGradient>
<linearGradient id="paint19_linear" x1="14.8002" y1="17.1089" x2="7.76896" y2="15.4081" gradientUnits="userSpaceOnUse">
<stop offset="0.1282" stop-color="#2EB800"/>
<stop offset="0.8462" stop-color="#38B000"/>
</linearGradient>
<linearGradient id="paint20_linear" x1="13.5846" y1="24.971" x2="9.83856" y2="22.7982" gradientUnits="userSpaceOnUse">
<stop offset="0.1282" stop-color="#2EB800"/>
<stop offset="0.8462" stop-color="#38B000"/>
</linearGradient>
<linearGradient id="paint21_linear" x1="3.08306" y1="55.5428" x2="35.4836" y2="46.5584" gradientUnits="userSpaceOnUse">
<stop offset="0.1282" stop-color="#3DC200"/>
<stop offset="0.8462" stop-color="#00A33D"/>
</linearGradient>
<linearGradient id="paint22_linear" x1="22.5661" y1="49.8086" x2="38.6435" y2="45.3504" gradientUnits="userSpaceOnUse">
<stop offset="0.1282" stop-color="#6ED600"/>
<stop offset="0.8462" stop-color="#38B000"/>
</linearGradient>
<linearGradient id="paint23_linear" x1="2.07402" y1="55.2786" x2="35.0951" y2="46.122" gradientUnits="userSpaceOnUse">
<stop offset="0.1282" stop-color="#0D7000"/>
<stop offset="0.8462" stop-color="#00753D"/>
</linearGradient>
<linearGradient id="paint24_linear" x1="2.30177" y1="55.2165" x2="34.7023" y2="46.232" gradientUnits="userSpaceOnUse">
<stop offset="0.1282" stop-color="#99DB26"/>
<stop offset="0.8462" stop-color="#4AA829"/>
</linearGradient>
<linearGradient id="paint25_linear" x1="1.64973" y1="55.2086" x2="9.84669" y2="52.9357" gradientUnits="userSpaceOnUse">
<stop offset="0.1282" stop-color="#C7FA99"/>
<stop offset="1" stop-color="#A1E080"/>
</linearGradient>
<linearGradient id="paint26_linear" x1="15.2826" y1="59.4624" x2="25.872" y2="56.3278" gradientUnits="userSpaceOnUse">
<stop offset="0.1282" stop-color="#C7FA99"/>
<stop offset="1" stop-color="#5BCB67"/>
</linearGradient>
<linearGradient id="paint27_linear" x1="10.6824" y1="45.2774" x2="21.6901" y2="42.0189" gradientUnits="userSpaceOnUse">
<stop offset="0.1282" stop-color="#C7FA99"/>
<stop offset="1" stop-color="#5BCB67"/>
</linearGradient>
<linearGradient id="paint28_linear" x1="26.1094" y1="48.1511" x2="4.16025" y2="55.8045" gradientUnits="userSpaceOnUse">
<stop offset="0.1282" stop-color="#2EB800"/>
<stop offset="0.8462" stop-color="#38B000"/>
</linearGradient>
<linearGradient id="paint29_linear" x1="24.8345" y1="49.4071" x2="13.0764" y2="43.6433" gradientUnits="userSpaceOnUse">
<stop offset="0.1282" stop-color="#2E9E00"/>
<stop offset="0.8462" stop-color="#308F00"/>
</linearGradient>
<linearGradient id="paint30_linear" x1="24.5501" y1="50.4874" x2="17.7383" y2="61.0216" gradientUnits="userSpaceOnUse">
<stop offset="0.1282" stop-color="#2E9E00"/>
<stop offset="0.8462" stop-color="#308F00"/>
</linearGradient>
<linearGradient id="paint31_linear" x1="26.0734" y1="48.0865" x2="4.18353" y2="55.7193" gradientUnits="userSpaceOnUse">
<stop offset="0.1282" stop-color="#1FA600"/>
<stop offset="0.8462" stop-color="#38B000"/>
</linearGradient>
<linearGradient id="paint32_linear" x1="24.7906" y1="49.329" x2="13.0353" y2="43.5667" gradientUnits="userSpaceOnUse">
<stop offset="0.1282" stop-color="#1FA600"/>
<stop offset="0.8462" stop-color="#38B000"/>
</linearGradient>
<linearGradient id="paint33_linear" x1="24.5061" y1="50.4098" x2="17.6952" y2="60.9421" gradientUnits="userSpaceOnUse">
<stop offset="0.1282" stop-color="#1FA600"/>
<stop offset="0.8462" stop-color="#38B000"/>
</linearGradient>
<linearGradient id="paint34_linear" x1="15.6405" y1="51.2827" x2="10.6092" y2="49.0156" gradientUnits="userSpaceOnUse">
<stop offset="0.1282" stop-color="#2EB800"/>
<stop offset="0.8462" stop-color="#38B000"/>
</linearGradient>
<linearGradient id="paint35_linear" x1="16.3862" y1="44.334" x2="15.6333" y2="41.532" gradientUnits="userSpaceOnUse">
<stop offset="0.1282" stop-color="#2EB800"/>
<stop offset="0.8462" stop-color="#38B000"/>
</linearGradient>
<linearGradient id="paint36_linear" x1="11.7038" y1="51.8425" x2="7.4915" y2="50.1904" gradientUnits="userSpaceOnUse">
<stop offset="0.1282" stop-color="#2EB800"/>
<stop offset="0.8462" stop-color="#38B000"/>
</linearGradient>
<linearGradient id="paint37_linear" x1="20.7776" y1="55.544" x2="20.9935" y2="60.183" gradientUnits="userSpaceOnUse">
<stop offset="0.1282" stop-color="#2EB800"/>
<stop offset="0.8462" stop-color="#38B000"/>
</linearGradient>
<linearGradient id="paint38_linear" x1="12.8185" y1="52.5687" x2="9.97777" y2="56.259" gradientUnits="userSpaceOnUse">
<stop offset="0.1282" stop-color="#2EB800"/>
<stop offset="0.8462" stop-color="#38B000"/>
</linearGradient>
<linearGradient id="paint39_linear" x1="17.2857" y1="45.2211" x2="14.6071" y2="45.3191" gradientUnits="userSpaceOnUse">
<stop offset="0.1282" stop-color="#2EB800"/>
<stop offset="0.8462" stop-color="#38B000"/>
</linearGradient>
<linearGradient id="paint40_linear" x1="16.1745" y1="52.3457" x2="13.0752" y2="56.3715" gradientUnits="userSpaceOnUse">
<stop offset="0.1282" stop-color="#2EB800"/>
<stop offset="0.8462" stop-color="#38B000"/>
</linearGradient>
<linearGradient id="paint41_linear" x1="20.9226" y1="55.7073" x2="18.504" y2="57.4581" gradientUnits="userSpaceOnUse">
<stop offset="0.1282" stop-color="#2EB800"/>
<stop offset="0.8462" stop-color="#38B000"/>
</linearGradient>
<linearGradient id="paint42_linear" x1="46.4824" y1="6.66961" x2="42.9804" y2="35.9384" gradientUnits="userSpaceOnUse">
<stop offset="0.1282" stop-color="#3DC200"/>
<stop offset="0.8462" stop-color="#00A33D"/>
</linearGradient>
<linearGradient id="paint43_linear" x1="44.6442" y1="24.3818" x2="42.9067" y2="38.9035" gradientUnits="userSpaceOnUse">
<stop offset="0.1282" stop-color="#6ED600"/>
<stop offset="0.8462" stop-color="#38B000"/>
</linearGradient>
<linearGradient id="paint44_linear" x1="47.0437" y1="5.83994" x2="43.4583" y2="35.8059" gradientUnits="userSpaceOnUse">
<stop offset="0.1282" stop-color="#0D7000"/>
<stop offset="0.8462" stop-color="#00753D"/>
</linearGradient>
<linearGradient id="paint45_linear" x1="47.0061" y1="6.14383" x2="43.5038" y2="35.4154" gradientUnits="userSpaceOnUse">
<stop offset="0.1282" stop-color="#99DB26"/>
<stop offset="0.8462" stop-color="#59A629"/>
</linearGradient>
<linearGradient id="paint46_linear" x1="47.2295" y1="5.62039" x2="46.3439" y2="13.0214" gradientUnits="userSpaceOnUse">
<stop offset="0.1282" stop-color="#C7FA99"/>
<stop offset="1" stop-color="#A1E080"/>
</linearGradient>
<linearGradient id="paint47_linear" x1="39.2406" y1="15.259" x2="38.2569" y2="24.8906" gradientUnits="userSpaceOnUse">
<stop offset="0.1282" stop-color="#C7FA99"/>
<stop offset="1" stop-color="#5BCB67"/>
</linearGradient>
<linearGradient id="paint48_linear" x1="52.2774" y1="16.2489" x2="51.2546" y2="26.263" gradientUnits="userSpaceOnUse">
<stop offset="0.1282" stop-color="#C7FA99"/>
<stop offset="1" stop-color="#5BCB67"/>
</linearGradient>
<linearGradient id="paint49_linear" x1="44.8097" y1="27.8073" x2="45.9089" y2="7.49834" gradientUnits="userSpaceOnUse">
<stop offset="0.1282" stop-color="#2EB800"/>
<stop offset="0.8462" stop-color="#38B000"/>
</linearGradient>
<linearGradient id="paint50_linear" x1="44.2188" y1="26.1977" x2="52.8078" y2="18.5812" gradientUnits="userSpaceOnUse">
<stop offset="0.1282" stop-color="#2E9E00"/>
<stop offset="0.8462" stop-color="#308F00"/>
</linearGradient>
<linearGradient id="paint51_linear" x1="43.4621" y1="25.6002" x2="37.1872" y2="16.5676" gradientUnits="userSpaceOnUse">
<stop offset="0.1282" stop-color="#2E9E00"/>
<stop offset="0.8462" stop-color="#308F00"/>
</linearGradient>
<linearGradient id="paint52_linear" x1="44.8735" y1="27.7976" x2="45.9719" y2="7.50157" gradientUnits="userSpaceOnUse">
<stop offset="0.1282" stop-color="#1FA600"/>
<stop offset="0.8462" stop-color="#5CC400"/>
</linearGradient>
<linearGradient id="paint53_linear" x1="44.2958" y1="26.1891" x2="52.885" y2="18.5723" gradientUnits="userSpaceOnUse">
<stop offset="0.1282" stop-color="#1FA600"/>
<stop offset="0.8462" stop-color="#38B000"/>
</linearGradient>
<linearGradient id="paint54_linear" x1="43.5395" y1="25.5887" x2="37.2655" y2="16.5574" gradientUnits="userSpaceOnUse">
<stop offset="0.1282" stop-color="#1FA600"/>
<stop offset="0.8462" stop-color="#38B000"/>
</linearGradient>
<linearGradient id="paint55_linear" x1="45.7531" y1="18.2747" x2="49.2664" y2="14.9497" gradientUnits="userSpaceOnUse">
<stop offset="0.1282" stop-color="#2EB800"/>
<stop offset="0.8462" stop-color="#38B000"/>
</linearGradient>
<linearGradient id="paint56_linear" x1="51.0887" y1="21.1349" x2="53.6095" y2="21.4569" gradientUnits="userSpaceOnUse">
<stop offset="0.1282" stop-color="#2EB800"/>
<stop offset="0.8462" stop-color="#38B000"/>
</linearGradient>
<linearGradient id="paint57_linear" x1="46.5111" y1="14.9371" x2="49.2532" y2="12.0716" gradientUnits="userSpaceOnUse">
<stop offset="0.1282" stop-color="#2EB800"/>
<stop offset="0.8462" stop-color="#38B000"/>
</linearGradient>
<linearGradient id="paint58_linear" x1="40.6574" y1="20.9518" x2="36.8222" y2="19.5817" gradientUnits="userSpaceOnUse">
<stop offset="0.1282" stop-color="#2EB800"/>
<stop offset="0.8462" stop-color="#38B000"/>
</linearGradient>
<linearGradient id="paint59_linear" x1="45.6863" y1="15.543" x2="43.6391" y2="12.0105" gradientUnits="userSpaceOnUse">
<stop offset="0.1282" stop-color="#2EB800"/>
<stop offset="0.8462" stop-color="#38B000"/>
</linearGradient>
<linearGradient id="paint60_linear" x1="50.1585" y1="21.5193" x2="50.9708" y2="19.3148" gradientUnits="userSpaceOnUse">
<stop offset="0.1282" stop-color="#2EB800"/>
<stop offset="0.8462" stop-color="#38B000"/>
</linearGradient>
<linearGradient id="paint61_linear" x1="44.7489" y1="18.3356" x2="42.5151" y2="14.4813" gradientUnits="userSpaceOnUse">
<stop offset="0.1282" stop-color="#2EB800"/>
<stop offset="0.8462" stop-color="#38B000"/>
</linearGradient>
<linearGradient id="paint62_linear" x1="40.3904" y1="21.0612" x2="39.7761" y2="18.5172" gradientUnits="userSpaceOnUse">
<stop offset="0.1282" stop-color="#2EB800"/>
<stop offset="0.8462" stop-color="#38B000"/>
</linearGradient>
</defs>
</svg>
