<svg width="10" height="8" viewBox="0 0 10 8" fill="none" xmlns="http://www.w3.org/2000/svg">
<path d="M4.7592 4.14628L5.31616 4.33193L5.13051 4.68777L4.77468 4.61041L4.58902 4.23911L4.7592 4.14628Z" fill="#4D3009"/>
<path d="M6.35273 5.13643L6.52292 5.16737L6.72404 5.43038L6.64669 5.7398L6.35273 5.70886L6.13614 5.43038L6.35273 5.13643Z" fill="#4D3009"/>
<path d="M6.53838 5.07454C6.53838 5.07454 6.47649 5.12095 6.44555 5.15189C6.41461 5.18284 6.39914 5.21378 6.41461 5.26019C6.43008 5.30661 6.44555 5.32208 6.49196 5.38396C6.55385 5.47679 6.56932 5.55415 6.58479 5.64697C6.58479 5.69339 6.55385 5.83263 6.55385 5.83263L6.47649 5.92545L6.60026 5.98734L6.75497 5.90998L6.89421 5.61603C6.89421 5.61603 6.78592 5.32208 6.77044 5.32208C6.75497 5.30661 6.67762 5.13642 6.67762 5.13642L6.53838 5.07454Z" fill="#887043"/>
<path d="M5.33162 4.28551C5.33162 4.28551 5.20785 4.36287 5.19238 4.37834C5.14597 4.44022 4.79013 4.39381 4.71278 4.36287C4.65089 4.3474 4.58901 4.42475 4.58901 4.42475L4.44977 4.59494L4.40335 4.65682L4.27958 4.57947L4.24864 4.31646L4.55806 3.97609C4.55806 3.97609 5.00673 4.03797 5.0222 4.03797L5.16144 4.09986L5.2388 4.17721L5.33162 4.28551Z" fill="#887043"/>
<path opacity="0.5" d="M5.23879 4.2391C5.23879 4.2391 5.19237 4.33192 5.19237 4.36286C5.19237 4.37834 5.1769 4.39381 5.1769 4.37834C5.16143 4.36286 5.19237 4.31645 5.19237 4.28551C5.19237 4.25457 5.19237 4.25457 5.19237 4.25457C5.1769 4.25457 5.1769 4.27004 5.1769 4.28551C5.1769 4.30098 5.1769 4.31645 5.16143 4.31645C5.14596 4.31645 5.16143 4.2391 5.14596 4.2391C5.14596 4.2391 5.13049 4.27004 5.13049 4.30098C5.13049 4.33192 5.13049 4.36286 5.11502 4.39381C5.11502 4.39381 5.09955 4.42475 5.09955 4.39381C5.09955 4.36286 5.11502 4.25457 5.11502 4.2391H5.09955C5.09955 4.25457 5.09955 4.31645 5.08408 4.34739C5.08408 4.34739 5.0686 4.36286 5.0686 4.34739C5.0686 4.31645 5.0686 4.22362 5.0686 4.22362C5.05313 4.22362 5.05313 4.30098 5.05313 4.31645C5.05313 4.31645 5.03766 4.31645 5.03766 4.30098C5.03766 4.28551 5.05313 4.22362 5.03766 4.20815C5.02219 4.20815 5.02219 4.27004 5.02219 4.30098C5.02219 4.34739 5.02219 4.36286 5.00672 4.34739C4.99125 4.33192 5.00672 4.19268 5.00672 4.19268H4.99125L4.96031 4.39381C4.94483 4.39381 4.97578 4.20815 4.96031 4.19268C4.96031 4.19268 4.94483 4.19268 4.94483 4.20815C4.94483 4.22362 4.94483 4.27004 4.92936 4.28551C4.92936 4.28551 4.91389 4.30098 4.91389 4.28551C4.91389 4.25457 4.92936 4.20815 4.92936 4.20815C4.92936 4.20815 4.89842 4.16174 4.89842 4.22362C4.88295 4.28551 4.89842 4.34739 4.88295 4.37834C4.88295 4.37834 4.85201 4.42475 4.85201 4.37834C4.85201 4.33192 4.88295 4.20815 4.85201 4.17721C4.85201 4.17721 4.83654 4.16174 4.83654 4.19268C4.83654 4.2391 4.85201 4.27004 4.82106 4.30098H4.80559C4.80559 4.28551 4.80559 4.22362 4.80559 4.20815C4.80559 4.17721 4.79012 4.17721 4.79012 4.17721L4.77465 4.19268C4.77465 4.20815 4.77465 4.22362 4.77465 4.25457C4.77465 4.28551 4.77465 4.34739 4.75918 4.36286C4.75918 4.36286 4.75918 4.36286 4.74371 4.36286C4.72824 4.34739 4.72824 4.31645 4.74371 4.28551C4.74371 4.25457 4.74371 4.22362 4.74371 4.20815C4.74371 4.17721 4.72824 4.17721 4.72824 4.17721C4.72824 4.17721 4.71277 4.19268 4.71277 4.20815C4.71277 4.22362 4.71277 4.2391 4.71277 4.25457C4.71277 4.25457 4.6973 4.27004 4.6973 4.25457C4.6973 4.2391 4.71277 4.20815 4.6973 4.19268C4.68182 4.17721 4.68182 4.19268 4.68182 4.20815C4.68182 4.22362 4.68182 4.36286 4.66635 4.39381H4.65088C4.65088 4.37834 4.65088 4.36286 4.65088 4.33192C4.65088 4.30098 4.66636 4.2391 4.65088 4.22362C4.63541 4.20815 4.63541 4.20815 4.63541 4.25457C4.63541 4.28551 4.63541 4.33192 4.63541 4.33192C4.63541 4.33192 4.63541 4.34739 4.61994 4.34739C4.61994 4.33192 4.61994 4.25457 4.60447 4.2391C4.60447 4.22362 4.589 4.22362 4.589 4.2391C4.589 4.27004 4.60447 4.30098 4.60447 4.34739C4.60447 4.37834 4.61994 4.40928 4.61994 4.42475C4.61994 4.42475 4.61994 4.44022 4.60447 4.42475C4.60447 4.42475 4.589 4.36286 4.57353 4.33192C4.57353 4.30098 4.57353 4.25457 4.55805 4.2391C4.55805 4.22362 4.54258 4.22362 4.54258 4.22362C4.54258 4.22362 4.54258 4.22362 4.54258 4.25457C4.54258 4.28551 4.55805 4.30098 4.55805 4.30098C4.55805 4.30098 4.55805 4.31645 4.54258 4.30098C4.52711 4.28551 4.52711 4.2391 4.51164 4.2391C4.49617 4.2391 4.49617 4.20815 4.49617 4.25457C4.49617 4.28551 4.51164 4.30098 4.52711 4.33192C4.54258 4.37834 4.54258 4.40928 4.52711 4.37834C4.51164 4.34739 4.49617 4.31645 4.4807 4.30098C4.4807 4.22362 4.44976 4.20815 4.44976 4.22362C4.44976 4.2391 4.46523 4.2391 4.4807 4.27004C4.49617 4.30098 4.52711 4.31645 4.51164 4.33192C4.51164 4.33192 4.44976 4.27004 4.43429 4.25457L4.41881 4.2391C4.41881 4.2391 4.40334 4.2391 4.43429 4.27004C4.49617 4.34739 4.52711 4.36286 4.51164 4.36286C4.49617 4.37834 4.40334 4.27004 4.40334 4.27004C4.38787 4.27004 4.38787 4.30098 4.40334 4.31645C4.43428 4.34739 4.46523 4.36286 4.46523 4.36286C4.4807 4.37834 4.46523 4.39381 4.46523 4.39381C4.44976 4.39381 4.41881 4.34739 4.40334 4.33192C4.38787 4.31645 4.3724 4.30098 4.35693 4.30098C4.34146 4.30098 4.34146 4.33192 4.38787 4.34739C4.43429 4.37834 4.44976 4.37834 4.44976 4.37834C4.44976 4.37834 4.46523 4.40928 4.41881 4.37834C4.38787 4.34739 4.35693 4.33192 4.35693 4.34739C4.35693 4.34739 4.34146 4.36286 4.35693 4.37834C4.35693 4.37834 4.35693 4.37834 4.40334 4.40928C4.43428 4.42475 4.46523 4.42475 4.4807 4.44022C4.4807 4.44022 4.4807 4.45569 4.46523 4.44022C4.44976 4.44022 4.40334 4.42475 4.3724 4.42475C4.35693 4.42475 4.34146 4.42475 4.34146 4.42475C4.34146 4.42475 4.34146 4.44022 4.35693 4.45569C4.3724 4.47116 4.40334 4.47116 4.41881 4.47116C4.43429 4.47116 4.44976 4.47116 4.46523 4.47116C4.46523 4.47116 4.46523 4.48663 4.44976 4.48663C4.43429 4.48663 4.38787 4.47116 4.38787 4.48663C4.38787 4.50211 4.41881 4.51758 4.43429 4.51758C4.44976 4.51758 4.46523 4.50211 4.46523 4.51758L4.44976 4.53305C4.43429 4.54852 4.40334 4.54852 4.40334 4.54852L4.31052 4.44022V4.30098L4.46523 4.11533L4.68182 4.0225L5.05313 4.09986L5.23879 4.16174V4.2391Z" fill="#725629"/>
<path opacity="0.5" d="M6.49195 5.02813L6.52289 5.12096C6.52289 5.12096 6.50742 5.13643 6.47648 5.1519C6.44553 5.16737 6.39912 5.21378 6.43007 5.21378C6.46101 5.19831 6.52289 5.1519 6.53836 5.1519C6.55383 5.1519 6.55383 5.16737 6.55383 5.16737C6.55383 5.16737 6.47648 5.21378 6.44554 5.22926C6.43007 5.24473 6.43007 5.24473 6.44554 5.24473C6.47648 5.22925 6.55383 5.16737 6.56931 5.18284C6.58478 5.19831 6.50742 5.22925 6.49195 5.24473C6.49195 5.24473 6.49195 5.2602 6.50742 5.24473C6.52289 5.24473 6.58478 5.19831 6.58478 5.21378C6.60025 5.21378 6.53836 5.24473 6.49195 5.2602C6.46101 5.27567 6.43007 5.29114 6.44554 5.29114C6.46101 5.30661 6.55384 5.22926 6.58478 5.22926C6.58478 5.22926 6.58478 5.22925 6.58478 5.24473C6.58478 5.24473 6.44554 5.32208 6.44554 5.33755C6.44554 5.35302 6.58478 5.2602 6.60025 5.27567C6.61572 5.27567 6.60025 5.29114 6.58478 5.30661C6.56931 5.32208 6.55383 5.32208 6.53836 5.33755C6.53836 5.33755 6.52289 5.35302 6.55383 5.35302C6.58478 5.33755 6.60025 5.32208 6.61572 5.32208C6.61572 5.32208 6.66213 5.32208 6.61572 5.35302C6.55383 5.38397 6.52289 5.39944 6.49195 5.41491C6.49195 5.41491 6.47648 5.44585 6.52289 5.43038C6.56931 5.41491 6.61572 5.3685 6.66213 5.3685C6.66213 5.3685 6.66213 5.38397 6.63119 5.39944C6.60025 5.41491 6.58478 5.41491 6.56931 5.43038C6.56931 5.43038 6.56931 5.44585 6.58478 5.44585C6.60025 5.44585 6.64666 5.41491 6.6776 5.41491C6.70855 5.41491 6.69308 5.43038 6.69308 5.44585C6.6776 5.46132 6.6776 5.46132 6.64666 5.47679C6.61572 5.49226 6.56931 5.50774 6.55383 5.52321C6.55383 5.52321 6.55383 5.52321 6.55383 5.53868C6.56931 5.53868 6.60025 5.52321 6.61572 5.50774C6.64666 5.49226 6.69308 5.46132 6.70855 5.49226C6.70855 5.50774 6.66213 5.52321 6.66213 5.52321C6.66213 5.52321 6.66213 5.53868 6.6776 5.53868C6.69308 5.53868 6.70854 5.52321 6.72402 5.52321C6.75496 5.52321 6.73949 5.55415 6.70855 5.55415C6.69308 5.55415 6.58478 5.60056 6.56931 5.61603C6.56931 5.61603 6.56931 5.63151 6.58478 5.63151C6.60025 5.63151 6.61572 5.61603 6.64666 5.61603C6.6776 5.60056 6.69307 5.58509 6.72402 5.58509C6.73949 5.56962 6.75496 5.60056 6.72402 5.60056C6.69307 5.61603 6.66213 5.63151 6.66213 5.63151C6.66213 5.63151 6.64666 5.64698 6.66213 5.64698C6.6776 5.64698 6.73949 5.61603 6.75496 5.63151C6.77043 5.63151 6.7859 5.64698 6.77043 5.64698C6.73949 5.66245 6.72402 5.66245 6.6776 5.67792C6.64666 5.69339 6.61572 5.69339 6.60025 5.69339C6.60025 5.69339 6.60025 5.69339 6.60025 5.70886C6.60025 5.70886 6.66213 5.70886 6.69308 5.69339C6.72402 5.69339 6.75496 5.67792 6.77043 5.67792C6.7859 5.67792 6.7859 5.67792 6.7859 5.69339C6.7859 5.69339 6.77043 5.70886 6.75496 5.70886C6.72402 5.70886 6.72402 5.70886 6.72402 5.70886C6.72402 5.70886 6.70854 5.70886 6.72402 5.72433C6.73949 5.72433 6.77043 5.72433 6.77043 5.72433C6.7859 5.72433 6.80137 5.75527 6.77043 5.75527C6.73949 5.75527 6.70855 5.75527 6.69308 5.75527C6.64666 5.75527 6.61572 5.75527 6.66213 5.77075C6.69307 5.77075 6.73949 5.78622 6.75496 5.78622C6.77043 5.80169 6.80137 5.80169 6.7859 5.81716C6.77043 5.81716 6.75496 5.81716 6.72402 5.80169C6.69307 5.78622 6.66213 5.77075 6.66213 5.78622C6.66213 5.78622 6.73949 5.81716 6.77043 5.83263C6.77043 5.83263 6.7859 5.83263 6.7859 5.8481C6.7859 5.8481 6.7859 5.86357 6.73949 5.8481C6.64666 5.81716 6.61572 5.80169 6.61572 5.80169C6.61572 5.81716 6.73949 5.86357 6.75496 5.87904C6.75496 5.87904 6.73949 5.90999 6.70855 5.89452C6.6776 5.87904 6.64666 5.86357 6.63119 5.8481C6.60025 5.83263 6.60025 5.8481 6.60025 5.86357C6.61572 5.87904 6.64666 5.89452 6.6776 5.90999C6.70855 5.92546 6.72402 5.92546 6.72402 5.94093C6.72402 5.9564 6.70855 5.97187 6.66213 5.94093C6.61572 5.90999 6.61572 5.90999 6.61572 5.90999C6.61572 5.90999 6.58478 5.90999 6.63119 5.94093C6.66213 5.97187 6.69308 5.98734 6.69308 5.98734C6.69308 5.98734 6.6776 6.00281 6.66213 6.00281C6.64666 6.00281 6.64666 6.00281 6.61572 5.97187C6.58478 5.94093 6.58478 5.92546 6.56931 5.90999C6.56931 5.90999 6.55383 5.90999 6.56931 5.92546C6.56931 5.94093 6.60025 5.98734 6.61572 6.00281C6.63119 6.01828 6.63119 6.03376 6.63119 6.03376C6.63119 6.03376 6.61572 6.04923 6.60025 6.03376C6.58478 6.01828 6.56931 6.00281 6.55383 5.98734C6.55383 5.97187 6.53836 5.9564 6.53836 5.9564C6.53836 5.9564 6.52289 5.97187 6.53836 5.98734C6.55383 6.00281 6.56931 6.03376 6.56931 6.04923C6.56931 5.9564 6.53836 5.94093 6.52289 5.92546C6.52289 5.90999 6.52289 5.89452 6.52289 5.89452C6.52289 5.89452 6.52289 5.90999 6.50742 5.90999C6.50742 5.92546 6.50742 5.9564 6.50742 5.9564L6.63119 6.00281L6.75496 5.9564L6.87873 5.7398V5.50774L6.6776 5.18284L6.55383 5.02813H6.49195Z" fill="#725627"/>
<path d="M6.52292 5.10549C6.52292 5.10549 6.63122 5.24473 6.6931 5.35303C6.73952 5.43038 6.81687 5.60056 6.8014 5.7398C6.8014 5.8481 6.72405 5.94093 6.61575 5.97187C6.53839 5.98734 6.49198 5.92546 6.47651 5.90999C6.46104 5.86357 6.53839 5.83263 6.56934 5.80169C6.61575 5.7398 6.58481 5.66245 6.56934 5.63151C6.55386 5.61604 6.52292 5.56962 6.49198 5.53868C6.47651 5.52321 6.43009 5.53868 6.39915 5.50774C6.36821 5.47679 6.35274 5.44585 6.3218 5.43038C6.29085 5.41491 6.24444 5.41491 6.22897 5.43038C6.2135 5.46132 6.13614 5.63151 6.08973 5.69339C6.05878 5.75528 5.98143 5.8481 5.93502 5.90999C5.8886 5.97187 5.8886 6.01829 5.91955 6.03376C5.95049 6.04923 5.9969 6.03376 5.98143 6.00281C5.96596 5.97187 5.96596 5.94093 5.98143 5.89452C5.9969 5.8481 6.05878 5.78622 6.1052 5.83263C6.15161 5.87905 6.19803 5.90999 6.22897 5.89452C6.25991 5.87904 6.24444 5.89452 6.25991 5.92546C6.25991 5.97187 6.30632 6.03376 6.35274 6.08017C6.39915 6.12658 6.46104 6.18847 6.55386 6.21941C6.73952 6.2813 6.92517 6.26582 7.06441 6.18847C7.20365 6.11111 7.48213 5.94093 7.6059 5.67792C7.72967 5.41491 7.74514 5.10549 7.63684 4.81153C7.55949 4.51758 7.34289 4.22363 6.97159 3.94515C6.60028 3.66667 6.19803 3.35724 5.84219 3.20253C5.50182 3.04782 5.11504 2.97046 4.79015 3.06329C4.46525 3.15612 4.15583 3.31083 4.07848 3.48101C4.01659 3.6512 3.83094 3.80591 3.86188 4.08439C3.89282 4.36287 3.90829 4.44023 4.03206 4.564C4.14036 4.68776 4.21772 4.70324 4.32601 4.73418C4.43431 4.76512 4.4962 4.78059 4.55808 4.79606C4.61997 4.81153 4.74374 4.81153 4.74374 4.81153C4.74374 4.81153 4.71279 4.87342 4.66638 4.91983C4.63544 4.96625 4.52714 4.99719 4.51167 4.99719C4.41884 5.0436 4.43431 5.13643 4.52714 5.12096C4.60449 5.10549 4.66638 5.07454 4.71279 4.99719C4.75921 4.91983 4.83656 4.74965 4.92939 4.67229C5.00674 4.61041 5.09957 4.50211 5.09957 4.50211C5.09957 4.50211 5.05316 4.48664 5.00675 4.50211C4.96033 4.50211 4.89845 4.51758 4.85203 4.48664C4.80562 4.4557 4.77468 4.40928 4.72826 4.37834C4.68185 4.36287 4.61997 4.3474 4.54261 4.36287C4.48072 4.37834 4.43431 4.44023 4.41884 4.48664C4.41884 4.53305 4.40337 4.54852 4.37243 4.54852C4.29507 4.53305 4.23319 4.42475 4.2796 4.33193C4.31054 4.25457 4.3879 4.17722 4.4962 4.1308C4.58902 4.09986 4.71279 4.09986 4.82109 4.1308C4.94486 4.16174 5.02222 4.19269 5.06863 4.20816C5.13051 4.22363 5.20787 4.22363 5.26976 4.19269C5.33164 4.17722 5.22334 4.25457 5.42447 4.31646C5.62559 4.37834 5.87313 4.51758 6.01237 4.65682C6.15161 4.81153 6.53839 5.02813 6.53839 5.02813L6.52292 5.10549Z" fill="#F2E1B8"/>
<path d="M5.26974 4.19269C5.26974 4.19269 5.28521 4.19269 5.20785 4.3474C5.11502 4.53305 4.89843 4.68777 4.86749 4.76512C4.72825 5.02813 4.65089 5.07455 4.589 5.19831C4.52712 5.32208 4.20222 5.72433 4.06298 5.81716C3.92374 5.90999 3.6762 6.03376 3.6762 6.03376C3.6762 6.03376 3.66073 6.08017 3.73809 6.12658C3.79998 6.173 3.90827 6.25035 3.92374 6.29677C3.93921 6.34318 4.04751 6.42054 4.07846 6.45148C4.12487 6.48242 4.326 6.71449 4.37241 6.7609C4.40335 6.80732 4.46523 6.88467 4.55806 6.9775C4.65089 7.07033 4.74372 7.16315 4.77466 7.16315C4.79013 7.17862 4.83654 7.20957 4.9139 7.13221C4.99125 7.05486 5.0222 7.02391 5.09955 6.91561C5.17691 6.80732 5.47086 6.48242 5.6101 6.32771C5.74934 6.18847 5.88858 6.01829 5.98141 5.90999C6.10518 5.75528 6.24442 5.4768 6.25989 5.44585C6.27536 5.41491 6.27536 5.3685 6.30631 5.32208C6.33725 5.27567 6.43007 5.19831 6.55384 5.09002C6.67761 4.99719 6.60026 5.02813 6.60026 5.02813L6.15159 4.76512L5.84217 4.48664L5.65652 4.42476L5.42445 4.31646L5.26974 4.19269Z" fill="#EBDAAD"/>
<path d="M4.92937 4.71871C4.94484 4.70324 4.97578 4.6723 4.99125 4.65682C5.06861 4.57947 5.16143 4.48664 5.20785 4.36287C5.23879 4.28552 5.25426 4.25457 5.26973 4.22363C5.26973 4.20816 5.25426 4.20816 5.25426 4.20816C5.25426 4.20816 5.23879 4.25457 5.19238 4.36287C5.14596 4.4557 5.05314 4.54853 4.97578 4.62588C4.96031 4.64135 4.92937 4.6723 4.91389 4.68777C4.92937 4.68777 4.92937 4.70324 4.92937 4.71871Z" fill="#D5B775"/>
<path d="M4.43431 3.35725C4.63544 3.20254 5.11504 3.12518 5.50182 3.23348C6.04331 3.38819 6.41462 3.66668 6.75499 3.94516C7.09535 4.20817 7.80703 4.90437 7.55949 5.50774C7.43572 5.81717 7.28101 5.95641 7.09535 6.06471C6.9097 6.17301 6.53839 6.17301 6.60027 6.08018C6.63122 6.03376 6.66216 6.11112 6.84781 5.97188C7.03347 5.83264 7.20365 5.46133 7.04894 5.15191C6.78593 4.59495 6.44556 4.42476 6.24444 4.27005C5.87313 4.00704 5.37805 3.85233 5.17693 3.80592C4.9758 3.7595 4.41884 3.77497 4.23319 4.02251C4.07847 4.22364 4.15583 4.36288 4.21772 4.45571C4.2796 4.53306 4.1713 4.564 4.09395 4.45571C4.00112 4.34741 3.9547 4.06893 4.04753 3.85233C4.1713 3.55838 4.31054 3.45008 4.43431 3.35725Z" fill="#FAEED6"/>
<path d="M6.2599 4.87341C6.2599 4.87341 5.85765 5.26019 5.672 5.5232C5.57917 5.64697 5.54823 5.80168 5.33163 6.00281C5.11504 6.20394 4.97579 6.28129 4.80561 6.46694C4.6509 6.63713 4.44978 6.83825 4.44978 6.83825C4.44978 6.83825 4.23318 6.57524 4.17129 6.52883C4.12488 6.48242 3.98564 6.37412 3.98564 6.37412C3.98564 6.37412 4.23318 6.25035 4.37242 6.18846C4.51166 6.12658 4.61996 6.08017 4.77467 5.86357C4.92938 5.6315 4.96033 5.53867 5.14598 5.38396C5.33163 5.22925 5.40899 5.18284 5.48634 4.98171C5.59464 4.70323 5.61011 4.40928 5.61011 4.40928L5.82671 4.50211L6.2599 4.87341Z" fill="#E7D29B"/>
<path d="M5.28522 4.23911C5.28522 4.20816 5.16145 4.25458 4.85203 4.14628C4.7592 4.11534 4.57355 4.13081 4.48072 4.17722C4.34148 4.25458 4.23318 4.48664 4.37242 4.564C4.31054 4.564 4.20224 4.44023 4.21771 4.31646C4.23318 4.19269 4.38789 4.02251 4.58902 3.99157C4.80562 3.96062 4.99127 4.03798 5.14598 4.06892C5.28522 4.09987 5.5637 4.13081 6.07425 4.4557C6.32179 4.61041 6.56933 4.85795 6.6931 4.98172C6.81687 5.10549 7.14176 5.5851 6.87875 5.89452C6.8014 5.98735 6.64668 6.01829 6.73951 5.94094C6.84781 5.86358 6.84781 5.66245 6.81687 5.56963C6.73951 5.35303 6.55386 5.10549 6.52292 5.10549C6.41462 5.15191 6.33726 5.22926 6.27538 5.33756C6.22896 5.39944 6.18255 5.53868 6.10519 5.64698C6.02784 5.75528 5.9969 5.81717 6.02784 5.72434C6.07425 5.61604 6.15161 5.41492 6.25991 5.27567C6.3682 5.13643 6.39915 5.05908 6.35273 5.05908C6.30632 5.05908 6.25991 5.09002 6.18255 5.19832C6.1052 5.29115 6.05878 5.30662 6.10519 5.21379C6.16708 5.12096 6.25991 5.04361 6.22896 4.99719C6.19802 4.95078 6.29085 4.81154 6.15161 4.95078C6.02784 5.09002 5.95048 5.22926 5.91954 5.22926C5.90407 5.22926 5.98143 5.09002 6.02784 4.98172C6.08972 4.87342 6.08972 4.81154 6.04331 4.79607C6.01237 4.79607 5.91954 4.91984 5.91954 4.90437C5.8886 4.8889 6.01237 4.73418 5.96595 4.71871C5.91954 4.70324 5.91954 4.62589 5.85766 4.71871C5.79577 4.81154 5.74936 4.90437 5.70294 4.95078C5.68747 4.96625 5.62559 5.01266 5.68747 4.8889C5.74936 4.76513 5.81124 4.65683 5.7803 4.57947C5.7803 4.54853 5.71842 4.51759 5.672 4.59494C5.62559 4.6723 5.5637 4.65683 5.57917 4.59494C5.59465 4.53306 5.61012 4.39382 5.53276 4.44023C5.45541 4.50212 5.50182 4.51759 5.43993 4.61041C5.37805 4.70324 5.40899 4.59494 5.42446 4.54853C5.43994 4.50212 5.40899 4.44023 5.40899 4.40929C5.40899 4.37835 5.40899 4.33193 5.30069 4.50212C5.19239 4.68777 5.13051 4.82701 5.02221 4.91984C4.91392 5.01266 4.9758 4.8889 5.09957 4.71871C5.1924 4.50212 5.25428 4.3474 5.28522 4.23911Z" fill="#E0C684"/>
<path d="M5.90407 5.64698C5.98143 5.53868 6.02784 5.43038 6.04331 5.38397C6.04331 5.35303 6.01237 5.32208 5.95048 5.49227C5.87313 5.66245 5.76483 5.72433 5.7803 5.63151C5.79577 5.53868 5.8886 5.46132 5.87313 5.43038C5.84219 5.39944 5.7803 5.4768 5.74936 5.56962C5.64106 5.77075 5.54823 5.9564 5.37805 6.12659C5.20787 6.2813 4.96033 6.59072 5.0841 6.37412C5.11504 6.32771 5.06863 6.31224 4.99127 6.43601C4.91392 6.55978 4.8675 6.59072 4.75921 6.69902C4.66638 6.79185 4.63544 6.82279 4.60449 6.8692C4.58902 6.90014 4.65091 6.91561 4.68185 6.90014C4.71279 6.88467 4.94486 6.59072 5.06863 6.65261C5.17693 6.69902 4.79015 6.99297 4.77468 7.02391C4.75921 7.07033 4.77468 7.14768 4.83656 7.0858C4.89844 7.03938 4.92939 6.99297 5.05316 6.82279C5.17692 6.6526 5.22334 6.63713 5.30069 6.54431C5.37805 6.45148 5.42446 6.26583 5.30069 6.37412C5.17692 6.48242 5.23881 6.37412 5.33164 6.26583C5.47088 6.12659 5.53276 6.01829 5.59465 6.08017C5.64106 6.12658 5.53276 6.20394 5.45541 6.29677C5.37805 6.3896 5.57918 6.31224 5.71842 6.08017C5.79577 5.9564 6.04331 5.81716 6.01237 5.77075C5.98143 5.73981 5.64106 5.97187 5.90407 5.64698Z" fill="#F2E2BF"/>
<path d="M5.91953 5.01266C5.88859 4.99719 5.73388 5.24473 5.68746 5.2602C5.62558 5.29115 5.59464 5.2602 5.68746 5.12096C5.78029 4.98172 5.79576 4.93531 5.76482 4.91984C5.73388 4.90437 5.68746 5.04361 5.59464 5.16738C5.50181 5.29115 5.3471 5.38397 5.3471 5.35303C5.3471 5.32209 5.42445 5.22926 5.4554 5.16738C5.51728 5.09002 5.57917 4.90437 5.47087 5.07455C5.3471 5.24473 5.30069 5.29115 5.2388 5.35303C5.17692 5.41492 5.11503 5.4768 5.06862 5.53868C5.0222 5.60057 4.99126 5.66245 5.02221 5.66245C5.03768 5.66245 5.17692 5.52321 5.22333 5.49227C5.26974 5.46133 5.28522 5.46133 5.26974 5.49227C5.25427 5.53868 5.17692 5.63151 5.26974 5.56963C5.36257 5.50774 5.39351 5.46133 5.40899 5.43039C5.4554 5.3685 5.51728 5.33756 5.48634 5.43039C5.47087 5.4768 5.47087 5.50774 5.53275 5.43039C5.59464 5.3685 5.62558 5.30662 5.64105 5.35303C5.65652 5.38397 5.62558 5.43039 5.57917 5.49227C5.54822 5.55416 5.64105 5.4768 5.70294 5.41492C5.74935 5.35303 5.85765 5.24473 5.81124 5.2602C5.76482 5.27567 5.76482 5.27567 5.74935 5.2602C5.74935 5.24473 5.95048 5.02814 5.91953 5.01266Z" fill="#E9D6A6"/>
<path d="M5.45541 4.85795C5.48635 4.79607 5.50182 4.68777 5.45541 4.74966C5.409 4.81154 5.409 4.85795 5.33164 4.91984C5.25429 4.98172 5.1924 5.01267 5.20787 4.95078C5.22334 4.87343 5.25429 4.7806 5.23882 4.79607C5.14599 4.85795 5.22335 4.95078 5.03769 5.05908C4.85204 5.16738 4.82109 5.10549 4.82109 5.09002C4.82109 5.05908 4.89845 4.85795 4.74374 5.15191C4.58903 5.44586 4.57355 5.5851 4.44979 5.6934C4.32602 5.8017 4.24866 5.83264 4.09395 5.94094C3.89282 6.04924 3.83094 6.08018 3.83094 6.08018C3.83094 6.08018 3.78453 6.15753 3.87735 6.11112C3.98565 6.08018 4.20225 5.90999 4.20225 5.97188C4.20225 6.03376 4.12489 6.08018 4.09395 6.11112C4.06301 6.14206 4.09395 6.20395 4.23319 6.06471C4.37243 5.92547 4.72827 5.46133 4.74374 5.61604C4.75921 5.72434 4.69732 5.8017 4.57355 5.92547C4.46526 6.03376 4.41884 6.06471 4.3879 6.09565C4.35696 6.12659 4.34149 6.20395 4.54261 6.03376C4.74374 5.84811 4.83656 5.6934 4.82109 5.5851C4.82109 5.4768 4.79015 5.46133 4.88298 5.3685C4.97581 5.27568 5.05316 5.29115 5.11505 5.26021C5.33164 5.16738 5.36258 5.05908 5.3007 5.09002C5.0841 5.22926 5.16146 5.10549 5.26976 5.02814C5.39353 4.95078 5.409 4.93531 5.45541 4.85795Z" fill="#F2E2BF"/>
<path d="M4.94485 5.70886C4.94485 5.70886 4.99126 5.69339 5.00673 5.77075C5.00673 5.80169 5.03767 5.86358 5.08409 5.80169C5.1305 5.73981 5.26974 5.67792 5.31615 5.61604C5.36257 5.56962 5.4554 5.58509 5.37804 5.64698C5.30068 5.70886 5.28521 5.78622 5.28521 5.81716C5.28521 5.83263 5.26974 5.87905 5.3471 5.80169C5.40898 5.72434 5.4554 5.64698 5.51728 5.61604C5.54822 5.60057 5.56369 5.66245 5.43992 5.80169C5.31615 5.92546 5.22333 6.01829 5.14597 6.0647C5.06862 6.09564 5.05315 6.09564 5.09956 6.03376C5.1305 5.98735 5.1305 5.89452 5.0222 6.01829C4.91391 6.14206 4.79014 6.25036 4.77467 6.29677C4.75919 6.32771 4.79014 6.34318 4.83655 6.32771C4.97579 6.26583 4.85202 6.37412 4.79013 6.45148C4.72825 6.52884 4.66637 6.54431 4.60448 6.60619C4.5426 6.68355 4.48071 6.72996 4.41883 6.72996C4.40336 6.72996 4.35694 6.71449 4.41883 6.66808C4.49618 6.59072 4.52713 6.55978 4.57354 6.49789C4.60448 6.43601 4.55807 6.40507 4.51166 6.45148C4.46524 6.49789 4.40336 6.52884 4.37241 6.52884C4.35694 6.52884 4.27959 6.52884 4.38789 6.45148C4.49618 6.3896 4.60448 6.32771 4.60448 6.2813C4.60448 6.25036 4.51165 6.25036 4.44977 6.2813C4.38788 6.32771 4.31053 6.35865 4.23317 6.3896C4.17129 6.42054 4.09393 6.43601 4.09393 6.40507C4.09393 6.37412 4.17129 6.35865 4.27959 6.29677C4.48071 6.20394 4.57354 6.12659 4.61995 6.11111C4.68184 6.08017 4.74372 6.03376 4.72825 6.08017C4.71278 6.12659 4.75919 6.14206 4.82108 6.08017C4.88296 6.03376 4.97579 5.92546 4.94485 5.89452C4.9139 5.8481 4.85202 5.89452 4.80561 5.92546C4.75919 5.9564 4.85202 5.80169 4.86749 5.75528C4.91391 5.70886 4.94485 5.70886 4.94485 5.70886Z" fill="#E9D6A6"/>
<path d="M7.68323 4.81154C7.55946 4.50211 7.32739 4.20816 6.98703 3.94515C6.52289 3.57384 6.15158 3.34178 5.85763 3.20253C5.62556 3.09424 5.3935 3.03235 5.19237 3.03235C5.05313 3.01688 4.91389 3.03235 4.80559 3.07877C4.61994 3.14065 4.18675 3.29536 4.09392 3.49649C4.07845 3.5429 4.0475 3.58931 4.01656 3.63573C3.93921 3.7595 3.84638 3.89874 3.87732 4.09986C3.90827 4.37834 3.93921 4.4557 4.0475 4.57947C4.17127 4.70324 4.23316 4.71871 4.34146 4.74965C4.3724 4.76512 4.40334 4.76512 4.43428 4.78059C4.49617 4.79607 4.52711 4.81154 4.57352 4.81154C4.589 4.81154 4.63541 4.81154 4.66635 4.82701C4.69729 4.82701 4.72824 4.82701 4.74371 4.82701C4.72824 4.84248 4.71276 4.88889 4.68182 4.91984C4.66635 4.93531 4.60447 4.96625 4.54258 4.99719C4.4807 5.02813 4.46523 5.05908 4.4807 5.09002C4.4807 5.12096 4.51164 5.13643 4.54258 5.13643H4.55805C4.65088 5.12096 4.71277 5.07455 4.74371 5.01266C4.75918 4.99719 4.75918 4.98172 4.77465 4.95078C4.82106 4.87342 4.88295 4.74965 4.94483 4.68777C5.02219 4.62588 5.13049 4.48664 5.13049 4.48664C5.13049 4.48664 5.08407 4.50211 5.0686 4.50211C5.05313 4.50211 5.03766 4.50211 5.02219 4.50211H5.00672C4.97578 4.50211 4.9603 4.50211 4.92936 4.50211C4.89842 4.50211 4.88295 4.50211 4.86748 4.48664C4.85201 4.47117 4.83653 4.4557 4.82106 4.44023C4.80559 4.42476 4.77465 4.39382 4.75918 4.37834C4.72824 4.36287 4.6973 4.3474 4.65088 4.3474C4.61994 4.3474 4.589 4.3474 4.57352 4.36287C4.49617 4.37834 4.44975 4.44023 4.44975 4.48664C4.44975 4.53306 4.43428 4.54853 4.41881 4.54853C4.38787 4.53306 4.35693 4.51758 4.32599 4.48664C4.31051 4.44023 4.31051 4.39382 4.32599 4.3474C4.35693 4.28552 4.41881 4.19269 4.54258 4.16175C4.63541 4.13081 4.75918 4.13081 4.86748 4.16175C4.92936 4.17722 4.99125 4.19269 5.02219 4.20816C5.0686 4.20816 5.09954 4.22363 5.11502 4.22363C5.13049 4.22363 5.14596 4.22363 5.1769 4.2391C5.20784 4.2391 5.23879 4.2391 5.26973 4.2391V4.22363C5.26973 4.22363 5.26973 4.22363 5.25426 4.22363C5.22331 4.22363 5.20784 4.22363 5.1769 4.22363C5.16143 4.22363 5.14596 4.22363 5.11502 4.22363C5.09954 4.22363 5.0686 4.20816 5.02219 4.19269C4.97578 4.17722 4.92936 4.16175 4.86748 4.14628C4.74371 4.11533 4.63541 4.11533 4.52711 4.14628C4.40334 4.19269 4.32598 4.27005 4.29504 4.3474C4.27957 4.39382 4.27957 4.4557 4.29504 4.50211C4.31051 4.54853 4.35693 4.564 4.38787 4.57947C4.38787 4.57947 4.38787 4.57947 4.40334 4.57947C4.43428 4.57947 4.44975 4.54853 4.44975 4.50211C4.44975 4.4557 4.49617 4.40929 4.55805 4.39382C4.58899 4.39382 4.60447 4.37834 4.63541 4.37834C4.66635 4.37834 4.69729 4.39382 4.72824 4.40929C4.74371 4.42476 4.77465 4.44023 4.79012 4.4557C4.80559 4.47117 4.82106 4.48664 4.85201 4.50211C4.86748 4.51758 4.89842 4.51758 4.91389 4.51758C4.94483 4.51758 4.9603 4.51758 4.99125 4.51758H5.00672C5.02219 4.51758 5.03766 4.51758 5.05313 4.51758C5.0686 4.51758 5.0686 4.51758 5.08407 4.51758C5.05313 4.54853 4.99125 4.62588 4.92936 4.6723C4.86748 4.71871 4.80559 4.84248 4.75918 4.93531C4.74371 4.96625 4.72824 4.98172 4.72824 4.99719C4.68182 5.05908 4.63541 5.10549 4.54258 5.12096C4.51164 5.12096 4.4807 5.12096 4.4807 5.09002C4.4807 5.07455 4.49617 5.0436 4.54258 5.01266C4.57352 4.99719 4.65088 4.96625 4.69729 4.93531C4.74371 4.88889 4.77465 4.82701 4.77465 4.82701V4.81154H4.75918C4.75918 4.81154 4.71276 4.81154 4.66635 4.81154C4.61994 4.81154 4.589 4.81154 4.57352 4.79607C4.52711 4.78059 4.49617 4.78059 4.43428 4.76512C4.40334 4.76512 4.38787 4.74965 4.34146 4.73418C4.23316 4.70324 4.17127 4.6723 4.0475 4.564C3.93921 4.44023 3.92374 4.36287 3.87732 4.09986C3.84638 3.89874 3.93921 3.7595 4.01656 3.63573C4.0475 3.58931 4.07845 3.5429 4.09392 3.49649C4.1558 3.35725 4.41881 3.20253 4.79012 3.09424C4.91389 3.06329 5.03766 3.04782 5.1769 3.04782C5.37802 3.06329 5.61009 3.12518 5.84216 3.21801C6.13611 3.34178 6.49195 3.58931 6.95609 3.94515C7.29645 4.20816 7.52852 4.50211 7.65229 4.81154C7.76059 5.09002 7.74511 5.39944 7.62134 5.67792C7.49757 5.94093 7.23457 6.09564 7.07986 6.18847C6.98703 6.25036 6.87873 6.26583 6.75496 6.26583C6.69307 6.26583 6.63119 6.25036 6.56931 6.23489C6.49195 6.20394 6.41459 6.14206 6.36818 6.09564C6.33724 6.04923 6.29082 5.98735 6.27535 5.9564C6.27535 5.94093 6.27535 5.94093 6.27535 5.92546C6.27535 5.90999 6.27535 5.89452 6.25988 5.89452C6.25988 5.89452 6.24441 5.89452 6.22894 5.90999H6.21347C6.198 5.90999 6.16706 5.89452 6.13611 5.86358C6.13611 5.86358 6.12064 5.86358 6.12064 5.84811C6.10517 5.83263 6.0897 5.83263 6.0897 5.83263C6.04328 5.83263 5.99687 5.87905 5.9814 5.92546C5.96593 5.97187 5.96593 6.00282 5.9814 6.03376V6.04923C5.9814 6.04923 5.96593 6.0647 5.95046 6.0647H5.93499C5.91952 6.04923 5.91952 6.01829 5.95046 5.9564C5.96593 5.92546 5.99687 5.89452 6.01234 5.86358C6.04329 5.81716 6.07423 5.78622 6.0897 5.73981C6.10517 5.70886 6.15159 5.63151 6.18253 5.56962C6.198 5.52321 6.22894 5.49227 6.22894 5.4768C6.22894 5.46133 6.24441 5.46133 6.25988 5.46133C6.27535 5.46133 6.29083 5.46133 6.3063 5.4768C6.32177 5.4768 6.33724 5.50774 6.35271 5.52321C6.36818 5.53868 6.36818 5.53868 6.38365 5.55415C6.39912 5.56962 6.43007 5.56962 6.44554 5.5851C6.46101 5.5851 6.46101 5.5851 6.47648 5.5851C6.50742 5.60057 6.53836 5.64698 6.55384 5.66245C6.56931 5.67792 6.58478 5.75528 6.55384 5.81716C6.53836 5.83263 6.52289 5.83263 6.50742 5.84811C6.47648 5.86358 6.44554 5.89452 6.46101 5.94093C6.46101 5.9564 6.50742 6.00282 6.56931 6.00282C6.58478 6.00282 6.60025 6.00282 6.61572 6.00282C6.72402 5.97188 6.80137 5.87905 6.80137 5.77075C6.81685 5.61604 6.73949 5.44585 6.69308 5.3685C6.64666 5.29114 6.53836 5.16737 6.52289 5.13643C6.50742 5.13643 6.50742 5.13643 6.49195 5.13643C6.49195 5.13643 6.60025 5.27567 6.66213 5.38397C6.70855 5.46133 6.7859 5.61604 6.77043 5.77075C6.77043 5.87905 6.69307 5.97187 6.60025 5.98735C6.58478 5.98735 6.58478 5.98735 6.56931 5.98735C6.52289 5.98735 6.47648 5.94093 6.47648 5.94093C6.46101 5.90999 6.49195 5.89452 6.52289 5.87905C6.53836 5.86358 6.55384 5.84811 6.56931 5.84811C6.61572 5.78622 6.58478 5.69339 6.56931 5.67792C6.55384 5.64698 6.52289 5.61604 6.49195 5.5851C6.47648 5.5851 6.47648 5.5851 6.46101 5.5851C6.44554 5.5851 6.41459 5.5851 6.39912 5.56962C6.38365 5.55415 6.38365 5.55415 6.36818 5.53868C6.35271 5.52321 6.33724 5.49227 6.3063 5.49227C6.29083 5.49227 6.27535 5.4768 6.25988 5.4768C6.22894 5.4768 6.21347 5.49227 6.21347 5.49227C6.21347 5.50774 6.18253 5.53868 6.16706 5.5851C6.13611 5.64698 6.10517 5.72434 6.0897 5.75528C6.07423 5.78622 6.04329 5.83263 6.01234 5.86358C5.9814 5.89452 5.96593 5.94093 5.93499 5.9564C5.88858 6.03376 5.90405 6.08017 5.91952 6.09564C5.91952 6.09564 5.93499 6.09564 5.95046 6.09564C5.96593 6.09564 5.99687 6.09564 5.99687 6.08017C5.99687 6.08017 6.01234 6.0647 5.99687 6.04923C5.9814 6.01829 5.9814 5.98735 5.99687 5.94093C6.01234 5.90999 6.04328 5.86358 6.0897 5.86358C6.10517 5.86358 6.10517 5.86358 6.12064 5.87905C6.12064 5.87905 6.13611 5.87905 6.13611 5.89452C6.16706 5.92546 6.198 5.94093 6.22894 5.94093C6.24441 5.94093 6.24441 5.94093 6.25988 5.92546C6.25988 5.92546 6.25988 5.92546 6.27535 5.92546C6.27535 5.92546 6.27535 5.92546 6.27535 5.94093C6.27535 5.94093 6.27535 5.9564 6.27535 5.97188C6.29082 6.01829 6.32177 6.08017 6.36818 6.12659C6.38365 6.15753 6.46101 6.23488 6.56931 6.2813C6.63119 6.29677 6.69307 6.31224 6.75496 6.32771C6.87873 6.32771 6.98703 6.31224 7.07986 6.25036C7.2191 6.15753 7.49757 6.00282 7.62134 5.73981C7.77606 5.41491 7.79153 5.09002 7.68323 4.81154Z" fill="#D5B775"/>
<path d="M6.5229 5.10548C6.39913 5.21378 6.32178 5.27566 6.29084 5.32208C6.27537 5.35302 6.25989 5.38396 6.25989 5.41491C6.25989 5.43038 6.24442 5.44585 6.24442 5.46132C6.1516 5.66244 6.05877 5.81716 5.98141 5.90998C5.95047 5.94093 5.935 5.97187 5.90406 6.00281C5.8267 6.09564 5.7184 6.21941 5.6101 6.3277C5.47086 6.46695 5.17691 6.80731 5.09956 6.91561C5.0222 7.02391 4.99126 7.05485 4.9139 7.13221C4.88296 7.16315 4.85202 7.17862 4.82107 7.17862C4.8056 7.17862 4.79013 7.16315 4.79013 7.16315C4.77466 7.14768 4.68183 7.07032 4.58901 6.97749C4.52712 6.91561 4.48071 6.85372 4.44977 6.80731C4.4343 6.79184 4.41882 6.77637 4.41882 6.7609C4.38788 6.72995 4.17129 6.48242 4.12487 6.45147C4.07846 6.42053 3.98563 6.34318 3.97016 6.29676C3.95469 6.25035 3.84639 6.17299 3.78451 6.12658C3.73809 6.09564 3.72262 6.04922 3.72262 6.03375C3.75356 6.01828 3.97016 5.90998 4.1094 5.81716C4.24864 5.70886 4.58901 5.32208 4.63542 5.19831C4.65089 5.1519 4.68183 5.12095 4.72825 5.07454C4.72825 5.07454 4.71278 5.07454 4.71278 5.09001H4.69731C4.66636 5.12095 4.65089 5.1519 4.63542 5.19831C4.58901 5.30661 4.24864 5.70886 4.1094 5.81716C3.97016 5.90998 3.72262 6.01828 3.72262 6.03375C3.72262 6.03375 3.70715 6.09564 3.78451 6.14205C3.86186 6.18846 3.95469 6.26582 3.95469 6.29676C3.97016 6.34318 4.07846 6.436 4.12487 6.45147C4.17129 6.48242 4.37241 6.71448 4.41882 6.7609C4.43429 6.77637 4.4343 6.79184 4.44977 6.80731C4.48071 6.85372 4.52712 6.91561 4.60448 6.97749C4.69731 7.07032 4.79013 7.16315 4.82107 7.16315C4.83655 7.16315 4.85202 7.17862 4.86749 7.17862C4.89843 7.17862 4.94484 7.16315 4.97579 7.13221C5.05314 7.05485 5.08409 7.02391 5.16144 6.91561C5.2388 6.80731 5.53275 6.48242 5.67199 6.3277C5.78029 6.21941 5.87311 6.09564 5.96594 6.00281C5.99688 5.97187 6.02783 5.94093 6.0433 5.90998C6.12065 5.81716 6.21348 5.66244 6.32178 5.46132C6.32178 5.44585 6.33725 5.43038 6.33725 5.41491C6.33725 5.38396 6.35272 5.35302 6.36819 5.33755C6.39913 5.29114 6.49196 5.21378 6.60026 5.12095C6.53837 5.10548 6.53838 5.09001 6.5229 5.10548Z" fill="#D5B775"/>
<path d="M8.54964 3.54291L8.98283 2.75388L9.81827 2.66106C9.81827 2.66106 9.8028 2.87765 9.33867 3.14066C8.87453 3.3882 8.70435 3.48103 8.54964 3.54291Z" fill="#CCAE7D"/>
<path d="M8.54964 3.54291C8.54964 3.54291 8.53417 3.54291 8.54964 3.54291C8.53417 3.54291 8.53417 3.54291 8.54964 3.54291L8.96737 2.73841L9.80281 2.64558C9.80281 2.66106 9.77187 2.86218 9.3232 3.12519C8.87454 3.40367 8.71983 3.48103 8.54964 3.54291ZM8.98284 2.75388L8.56512 3.52744C8.71983 3.46556 8.89001 3.37273 9.3232 3.12519C9.70998 2.89312 9.78734 2.70747 9.78734 2.66106L8.98284 2.75388Z" fill="#9A7A49"/>
<path d="M6.70859 2.16598L7.88439 0.727158L8.31759 1.03658C8.31759 1.03658 7.28102 2.11956 7.17272 2.11956C7.06442 2.13503 6.70859 2.16598 6.70859 2.16598Z" fill="#4D3009"/>
<path d="M7.45119 0.850924L7.66779 0.696213L8.17834 0.742626L8.47229 1.08299C8.47229 1.08299 8.47229 1.25318 8.45682 1.25318C8.45682 1.25318 8.10098 0.959223 8.08551 0.943751C8.0391 0.912809 7.9308 0.881867 7.86892 0.912809C7.79156 0.92828 7.69873 1.00564 7.69873 1.00564L7.45119 0.850924Z" fill="#887043"/>
<path d="M7.57496 0.83545C7.57496 0.83545 7.57496 0.804507 7.60591 0.819978C7.63685 0.819978 7.65232 0.83545 7.68326 0.866392C7.69873 0.897334 7.71421 0.912805 7.72968 0.928277C7.74515 0.943748 7.76062 0.959219 7.77609 0.943748C7.79156 0.928277 7.74515 0.881863 7.72968 0.866392C7.71421 0.850921 7.69873 0.83545 7.68326 0.804507C7.66779 0.758094 7.72968 0.742623 7.74515 0.804507C7.76062 0.83545 7.76062 0.850921 7.77609 0.866392C7.79156 0.881863 7.79156 0.897334 7.80703 0.881863C7.80703 0.881863 7.80703 0.850921 7.79156 0.819978C7.77609 0.789036 7.77609 0.773565 7.77609 0.758094C7.77609 0.742623 7.80703 0.727151 7.80703 0.742623C7.8225 0.758094 7.83797 0.83545 7.85345 0.850921C7.85345 0.866392 7.88439 0.866392 7.86892 0.850921C7.86892 0.819978 7.85345 0.789036 7.85345 0.773565C7.85345 0.758094 7.86891 0.742623 7.88439 0.758094C7.89986 0.773565 7.89986 0.789036 7.89986 0.819978C7.89986 0.866392 7.91533 0.912805 7.9308 0.866392C7.94627 0.819978 7.91533 0.804507 7.9308 0.773565C7.9308 0.742623 7.97722 0.742623 7.99269 0.773565C7.99269 0.804507 7.99269 0.866392 7.99269 0.866392C7.99269 0.881863 8.00816 0.897334 8.02363 0.866392C8.05457 0.819978 8.02363 0.758094 8.07004 0.758094C8.07004 0.804507 8.07004 0.819978 8.07004 0.83545C8.05457 0.866392 8.05457 0.897334 8.07004 0.897334C8.08551 0.897334 8.08551 0.881863 8.10098 0.866392C8.11646 0.850921 8.13192 0.850921 8.1474 0.850921C8.16287 0.850921 8.17834 0.881863 8.1474 0.912806C8.13192 0.943748 8.11646 0.943748 8.11646 0.959219C8.11646 0.959219 8.11646 0.990161 8.13193 0.97469C8.1474 0.959219 8.1474 0.943748 8.16287 0.928277C8.17834 0.912805 8.19381 0.912806 8.19381 0.912806C8.19381 0.912806 8.20928 0.928277 8.19381 0.943748C8.17834 0.959219 8.16287 0.97469 8.16287 0.990161C8.16287 1.00563 8.16287 1.00563 8.16287 1.0211C8.16287 1.0211 8.17834 1.0211 8.17834 1.00563C8.19381 0.990161 8.20928 0.959219 8.22475 0.959219C8.22475 0.959219 8.24022 0.959219 8.22475 0.990161C8.22475 0.959219 8.22475 0.97469 8.22475 0.97469C8.22475 0.97469 8.22475 0.990161 8.24022 0.990161C8.2557 0.97469 8.25569 0.97469 8.27117 0.959219C8.27117 0.959219 8.28664 0.959219 8.28664 0.97469C8.28664 0.990161 8.27117 1.00563 8.2557 1.00563C8.24023 1.0211 8.22475 1.03657 8.24022 1.05205C8.2557 1.06752 8.25569 1.05205 8.27117 1.05205C8.28664 1.03657 8.28664 1.0211 8.30211 1.00563C8.31758 1.00563 8.31758 0.990161 8.33305 1.00563C8.34852 1.0211 8.34852 1.03657 8.33305 1.03657C8.31758 1.05205 8.30211 1.06752 8.30211 1.06752C8.28664 1.08299 8.30211 1.08299 8.30211 1.09846C8.30211 1.09846 8.31758 1.09846 8.33305 1.08299C8.34852 1.06752 8.34852 1.06752 8.36399 1.05205C8.37947 1.05205 8.39493 1.06752 8.39493 1.06752C8.39493 1.08299 8.36399 1.08299 8.34852 1.11393C8.33305 1.1294 8.33305 1.14487 8.34852 1.14487C8.34852 1.14487 8.37947 1.1294 8.37947 1.11393C8.39494 1.09846 8.41041 1.09846 8.41041 1.11393C8.41041 1.1294 8.41041 1.14487 8.39493 1.14487C8.39493 1.16034 8.36399 1.17582 8.37947 1.17582C8.39494 1.17582 8.44135 1.16034 8.44135 1.11393C8.44135 1.08299 8.39493 0.97469 8.39493 0.959219L8.22475 0.789036L7.91533 0.665267L7.7142 0.649796L7.55949 0.71168L7.45119 0.819978L7.57496 0.83545Z" fill="#7B6134"/>
<path d="M7.018 1.85655C6.89423 1.9339 6.84782 2.02673 6.81688 2.11956C6.78593 2.21238 6.97159 2.39804 6.97159 2.39804L7.18818 2.58369C7.18818 2.58369 7.03347 2.80029 7.018 2.78482C7.00253 2.76935 6.50745 2.47539 6.49198 2.45992C6.49198 2.44445 6.38368 2.08861 6.38368 2.08861L6.56934 1.84107L6.78593 1.68636C6.8014 1.70183 7.15724 1.77919 7.018 1.85655Z" fill="#887043"/>
<path d="M6.83236 1.73277C6.83236 1.73277 6.83236 1.74824 6.84783 1.77919C6.8633 1.81013 6.90972 1.8256 6.92519 1.85654C6.94066 1.87201 6.94066 1.90296 6.92519 1.90296C6.90972 1.90296 6.89424 1.88748 6.8633 1.85654C6.83236 1.84107 6.81689 1.79466 6.80142 1.81013C6.78595 1.8256 6.77048 1.8256 6.78595 1.85654C6.80142 1.88748 6.8633 1.9339 6.8633 1.9339C6.84783 1.94937 6.84783 1.94937 6.81689 1.91843C6.78595 1.88748 6.755 1.87201 6.73953 1.87201C6.72406 1.87201 6.70859 1.88748 6.72406 1.90296C6.72406 1.91843 6.73953 1.9339 6.77048 1.94937C6.80142 1.96484 6.80142 1.96484 6.83236 1.98031C6.84783 1.99578 6.87877 1.99578 6.87877 2.01125C6.87877 2.02673 6.84783 2.02673 6.84783 2.02673C6.81689 2.01125 6.78595 1.99578 6.755 1.98031C6.72406 1.96484 6.70859 1.94937 6.69312 1.96484C6.66218 1.98031 6.67765 2.01125 6.70859 2.02673C6.72406 2.0422 6.81689 2.07314 6.83236 2.08861V2.10408C6.80142 2.11955 6.78595 2.10408 6.73953 2.07314C6.67765 2.0422 6.64671 2.05767 6.64671 2.07314C6.64671 2.08861 6.66218 2.08861 6.67765 2.10408C6.69312 2.10408 6.77048 2.13502 6.78595 2.13502L6.80142 2.15049C6.80142 2.15049 6.78595 2.16597 6.77048 2.16597C6.755 2.16597 6.67765 2.13502 6.66218 2.15049C6.64671 2.16597 6.64671 2.18144 6.66218 2.19691C6.66218 2.21238 6.67765 2.21238 6.70859 2.21238C6.72406 2.21238 6.80142 2.22785 6.81689 2.22785C6.83236 2.22785 6.84783 2.24332 6.83236 2.25879C6.81689 2.27426 6.77047 2.25879 6.755 2.25879C6.73953 2.25879 6.70859 2.24332 6.69312 2.25879C6.67765 2.27426 6.67765 2.28974 6.69312 2.30521C6.70859 2.32068 6.70859 2.33615 6.73953 2.33615C6.77047 2.33615 6.83236 2.30521 6.83236 2.30521C6.83236 2.30521 6.84783 2.30521 6.84783 2.32068C6.84783 2.33615 6.83236 2.35162 6.81689 2.36709C6.80142 2.38256 6.77047 2.36709 6.755 2.38256C6.72406 2.39803 6.73953 2.44445 6.755 2.44445C6.77047 2.44445 6.77048 2.44445 6.80142 2.42898C6.83236 2.4135 6.8633 2.39803 6.8633 2.39803C6.87877 2.39803 6.90971 2.4135 6.8633 2.44445C6.84783 2.45992 6.81689 2.47539 6.80142 2.49086C6.78595 2.50633 6.78595 2.50633 6.78595 2.5218C6.78595 2.5218 6.80142 2.53727 6.81689 2.53727C6.83236 2.5218 6.84783 2.5218 6.84783 2.50633C6.8633 2.49086 6.87877 2.49086 6.87877 2.49086C6.87877 2.49086 6.89424 2.49086 6.87877 2.50633C6.8633 2.5218 6.8633 2.53727 6.84783 2.55274C6.83236 2.56822 6.84783 2.61463 6.87877 2.58369C6.89424 2.56822 6.92519 2.55275 6.94066 2.5218C6.95613 2.49086 6.9716 2.47539 6.9716 2.47539C6.98707 2.49086 6.95613 2.50633 6.94066 2.5218C6.92519 2.53727 6.90972 2.55275 6.90972 2.58369C6.90972 2.59916 6.90972 2.61463 6.90972 2.61463L6.92519 2.6301C6.94066 2.6301 6.94066 2.6301 6.95613 2.61463C6.98707 2.56822 7.00254 2.53727 7.00254 2.5218C7.01801 2.50633 7.03348 2.5218 7.01801 2.5218C7.00254 2.53727 6.98707 2.56822 6.98707 2.58369C6.9716 2.59916 6.98707 2.6301 7.00254 2.64557C7.01801 2.66104 7.03349 2.64557 7.04896 2.61463C7.06443 2.58369 7.06443 2.56822 7.06443 2.55274C7.06443 2.53727 7.0799 2.5218 7.0799 2.55274C7.0799 2.56822 7.0799 2.56822 7.0799 2.59916C7.0799 2.6301 7.11084 2.6301 7.11084 2.6301C7.12631 2.6301 7.14178 2.61463 7.12631 2.59916C7.12631 2.56822 7.11084 2.53727 7.11084 2.53727L7.17273 2.61463L7.14178 2.70746L6.90972 2.66104L6.69312 2.47539L6.56935 2.19691L6.64671 1.88748L6.80142 1.74824L6.83236 1.73277Z" fill="#765C2E"/>
<path d="M8.05457 1.33053C8.05457 1.33053 8.33305 1.26865 8.34852 1.26865L8.70435 1.11394C8.70435 1.11394 8.75077 1.28412 8.627 1.43883C8.50323 1.59354 8.4104 1.6709 8.4104 1.6709L8.05457 1.33053Z" fill="#C6AA77"/>
<path d="M8.39494 1.68637L8.03911 1.346C8.03911 1.346 8.03911 1.346 8.03911 1.33053C8.08552 1.31506 8.31759 1.26865 8.33306 1.26865C8.34853 1.26865 8.54966 1.17582 8.67343 1.11394C8.67343 1.11394 8.71984 1.28412 8.59607 1.43883C8.50324 1.60901 8.41042 1.68637 8.39494 1.68637ZM8.07005 1.346L8.39494 1.6709C8.41042 1.65543 8.50324 1.57807 8.59607 1.43883C8.70437 1.29959 8.6889 1.17582 8.6889 1.12941C8.53419 1.20676 8.364 1.28412 8.34853 1.28412C8.33306 1.28412 8.17835 1.31506 8.07005 1.346Z" fill="#9A7C53"/>
<path d="M6.70859 2.93953C6.70859 2.93953 6.95612 3.01689 7.12631 2.97048C7.38932 2.89312 7.62139 2.66105 7.69874 2.35163C7.65233 2.28974 7.34291 2.02673 7.34291 2.02673L7.29649 2.55275L6.8633 2.81576L6.70859 2.93953Z" fill="#C6AA77"/>
<path d="M7.00253 2.98594C6.86329 2.98594 6.72404 2.93953 6.72404 2.93953C6.72404 2.93953 6.72404 2.93953 6.72404 2.92406L6.87876 2.80029L7.29648 2.53728L7.34289 2.01126C7.34289 2.01126 7.34289 2.01126 7.35837 2.01126C7.37384 2.02673 7.66779 2.28974 7.7142 2.33616C7.65232 2.63011 7.42025 2.87765 7.14177 2.955C7.09535 2.98594 7.04894 2.98594 7.00253 2.98594ZM6.73952 2.93953C6.78593 2.955 6.89423 2.97047 7.00253 2.97047C7.04894 2.97047 7.09535 2.97047 7.1263 2.955C7.40478 2.87765 7.62137 2.64558 7.68326 2.35163C7.63685 2.30521 7.40478 2.08862 7.34289 2.0422L7.29648 2.55275L6.86329 2.83123L6.73952 2.93953Z" fill="#9A7C53"/>
<path d="M6.08972 0.309433C6.08972 0.309433 6.94064 0.959222 7.11082 1.09846C7.29648 1.25317 6.86328 1.60901 6.86328 1.65543C6.86328 1.70184 6.78593 1.73278 6.6931 1.87202C6.60028 1.99579 6.60027 2.10409 6.60027 2.21239C6.60027 2.53728 6.97158 2.66105 7.03347 2.66105C7.04894 2.66105 7.15724 2.64558 7.12629 2.5837C7.09535 2.50634 7.00253 2.4754 6.92517 2.42898C6.78593 2.35163 6.8014 2.18144 6.84781 2.10409C6.9097 1.99579 7.07988 1.91844 7.18818 2.02673C7.26554 2.08862 7.40478 2.21239 7.42025 2.33616C7.43572 2.50634 7.43572 2.55275 7.32742 2.70746C7.20365 2.87765 6.97158 2.98595 6.72404 2.92406C6.50745 2.86218 6.01237 2.52181 5.87313 2.10409C5.74936 1.68637 5.70295 1.19129 5.96596 0.556972C6.01237 0.433202 6.08972 0.309433 6.08972 0.309433Z" fill="#DBC08A"/>
<path d="M7.83798 1.05205C7.83798 1.05205 7.85345 1.00564 7.94628 0.974693C8.03911 0.943751 8.10099 0.959222 8.17835 1.02111C8.2557 1.08299 8.33306 1.19129 8.364 1.19129C8.39494 1.19129 8.45683 1.14488 8.41041 1.08299C8.364 1.02111 8.20929 0.866395 8.08552 0.80451C7.91534 0.727155 7.83798 0.727155 7.76062 0.727155C7.68327 0.727155 7.54403 0.773568 7.51308 0.819982C7.49761 0.850924 7.40479 0.990165 7.37384 1.03658C7.3429 1.08299 7.17272 1.19129 7.17272 1.19129C7.17272 1.19129 6.36822 0.5415 6.07426 0.324904C6.6467 0.0154805 7.20366 0.123779 7.42026 0.154721C7.57497 0.185663 7.94628 0.293962 8.2557 0.587914C8.45683 0.789039 8.61154 0.974693 8.64248 1.05205C8.67342 1.12941 8.68889 1.20676 8.61154 1.26865C8.50324 1.39242 8.2557 1.4543 8.17835 1.36147C8.1474 1.29959 7.83798 1.05205 7.83798 1.05205Z" fill="#F2E1B8"/>
<path d="M9.04472 2.83123C9.04472 2.83123 9.02925 3.04783 8.92095 3.20254C8.81265 3.35725 8.627 3.4965 8.58059 3.51197C8.5187 3.52744 8.56512 3.60479 8.45682 3.40367C8.33305 3.20254 8.19381 3.04783 8.0391 2.86218C7.88438 2.67652 7.6059 2.45993 7.43572 2.27427C7.26554 2.10409 6.72404 1.65543 6.72404 1.65543L7.07988 1.08299L9.04472 2.83123Z" fill="#DBC08A"/>
<path d="M8.54964 3.54291C8.53417 3.54291 8.5187 3.52744 8.45682 3.40367C8.36399 3.24896 8.25569 3.10972 8.13192 2.97048C8.10098 2.93953 8.07004 2.90859 8.0391 2.86218C7.94627 2.75388 7.80703 2.63011 7.66779 2.50634C7.57496 2.42898 7.49761 2.35163 7.43572 2.28974C7.26554 2.11956 6.72404 1.6709 6.72404 1.6709V1.65543L7.07988 1.08299L9.04472 2.83123C9.04472 2.83123 9.02925 3.04783 8.92095 3.20254C8.81265 3.35725 8.627 3.4965 8.58059 3.52744C8.56512 3.52744 8.56511 3.54291 8.54964 3.54291C8.56511 3.54291 8.54964 3.54291 8.54964 3.54291ZM6.73952 1.65543C6.8014 1.70184 7.28101 2.10409 7.45119 2.27427C7.51308 2.33616 7.6059 2.41351 7.68326 2.49087C7.8225 2.61464 7.96174 2.73841 8.05457 2.86218C8.08551 2.89312 8.11645 2.93953 8.14739 2.97048C8.27116 3.10972 8.37946 3.23349 8.47229 3.40367C8.5187 3.48102 8.54964 3.52744 8.54964 3.52744C8.54964 3.52744 8.56512 3.51197 8.58059 3.4965C8.627 3.48102 8.81265 3.34178 8.92095 3.18707C9.01378 3.04783 9.02925 2.86218 9.04472 2.83123L7.09536 1.08299L6.73952 1.65543Z" fill="#B59A5F"/>
<path d="M7.4976 0.773567C7.4976 0.773567 8.33305 1.42336 8.54964 1.62448C8.76624 1.82561 9.04472 2.10409 9.15302 2.16597C9.24585 2.22786 9.60169 2.4754 9.6481 2.52181C9.69451 2.55275 9.81828 2.64558 9.81828 2.64558C9.81828 2.64558 9.61715 2.78482 9.4315 2.83123C9.24585 2.86218 9.04472 2.83123 9.04472 2.83123L7.11082 1.11393L7.4976 0.773567Z" fill="#EBDAAD"/>
<path d="M9.26132 2.84671C9.13755 2.84671 9.04472 2.83124 9.04472 2.83124L7.11082 1.11394L7.48214 0.789047H7.4976C7.51308 0.789047 8.33305 1.43884 8.54964 1.63996C8.87454 1.94939 9.06019 2.13504 9.13755 2.18145C9.24585 2.25881 9.58621 2.49088 9.63263 2.53729C9.67904 2.56823 9.80281 2.66106 9.80281 2.66106C9.80281 2.66106 9.61715 2.8003 9.4315 2.84671C9.38509 2.84671 9.3232 2.84671 9.26132 2.84671ZM9.04472 2.81577C9.06019 2.81577 9.15302 2.83124 9.24585 2.83124C9.30773 2.83124 9.36962 2.83124 9.41603 2.81577C9.57074 2.78483 9.72545 2.67653 9.77187 2.64559C9.74093 2.63012 9.6481 2.56823 9.61716 2.53729C9.57074 2.50635 9.23038 2.25881 9.12208 2.18145C9.04472 2.13504 8.8436 1.94939 8.5187 1.63996C8.31758 1.43884 7.54402 0.850932 7.46666 0.789047L7.11082 1.09847L9.04472 2.81577Z" fill="#B79965"/>
<path d="M6.15163 0.355851C6.15163 0.355851 6.63123 0.201139 6.92519 0.21661C7.21914 0.232081 7.43573 0.247553 7.69874 0.34038C7.96175 0.433207 8.03911 0.510563 8.11647 0.572447C8.17835 0.618861 8.20929 0.711688 8.13194 0.649803C8.07005 0.60339 7.82251 0.47962 7.59045 0.510563C7.35838 0.541505 7.11084 0.665274 6.83236 0.897342C6.83236 0.912813 6.15163 0.355851 6.15163 0.355851Z" fill="#F8E9CC"/>
<path d="M8.44135 1.11393C8.44135 1.11393 8.45682 1.05204 8.41041 0.974686C8.31758 0.835446 8.24023 0.773561 8.10099 0.711676C7.96175 0.63432 7.83798 0.618849 7.72968 0.63432C7.54403 0.665263 7.37384 0.742619 7.29649 0.789032C7.1263 0.881859 6.98706 1.00563 6.98706 1.00563L7.54402 1.46976C7.54402 1.46976 7.57497 1.46976 7.54402 1.43882C7.51308 1.40788 7.42025 1.29958 7.37384 1.25317C7.31196 1.19128 7.29648 1.08298 7.37384 1.11393C7.57497 1.19128 7.83798 1.43882 7.91533 1.50071C7.99269 1.56259 7.96175 1.50071 7.91533 1.43882C7.86892 1.37694 7.63685 1.16034 7.57497 1.09846C7.51308 1.03657 7.46667 0.959215 7.52855 0.959215C7.57497 0.959215 7.63685 1.00563 7.72968 1.09846C7.80703 1.17581 7.88439 1.2377 7.91533 1.22222C7.9308 1.20675 7.85345 1.11393 7.79156 1.08298C7.74515 1.03657 7.57497 0.89733 7.5595 0.881859C7.52855 0.850917 7.5595 0.835446 7.5595 0.835446C7.5595 0.835446 7.59044 0.804503 7.62138 0.789032C7.66779 0.773561 7.74515 0.742619 7.82251 0.75809C7.89986 0.75809 7.94627 0.773561 8.02363 0.789032C8.10099 0.819974 8.1474 0.835446 8.19381 0.866388C8.24023 0.89733 8.27117 0.928273 8.31758 0.959215C8.364 0.990157 8.37947 1.0211 8.41041 1.03657C8.41041 1.05204 8.44135 1.11393 8.44135 1.11393Z" fill="#E4CC90"/>
<path d="M6.15161 0.355843C6.15161 0.355843 5.9969 0.819978 5.95048 1.09846C5.90407 1.37694 5.91954 1.84108 6.01237 2.11956C6.08973 2.33615 6.35274 2.61463 6.44556 2.67652C6.56933 2.75387 6.64669 2.76935 6.66216 2.70746C6.67763 2.64558 6.49198 2.59916 6.38368 2.32068C6.30632 2.1505 6.33727 1.81013 6.43009 1.54712C6.52292 1.28411 6.83234 0.897334 6.83234 0.897334L6.15161 0.355843Z" fill="#E4CF9F"/>
<path d="M7.52856 1.46977C7.52856 1.46977 7.48214 1.48524 7.42026 1.42335C7.35838 1.36147 7.20366 1.2377 7.17272 1.20676C7.14178 1.17581 7.09537 1.14487 7.06442 1.16034C7.03348 1.17581 7.01801 1.19128 7.06442 1.2377C7.11084 1.28411 7.21913 1.37694 7.28102 1.42335C7.32743 1.46977 7.4512 1.56259 7.54403 1.65542C7.65233 1.74825 7.79157 1.85655 7.80704 1.88749C7.82251 1.91843 7.79157 1.94937 7.7761 1.9339C7.76063 1.9339 7.43573 1.65542 7.38932 1.60901C7.32743 1.56259 7.21913 1.45429 7.15725 1.40788C7.11084 1.37694 7.0799 1.36147 7.06442 1.37694C7.04895 1.40788 7.07989 1.45429 7.14178 1.50071C7.20366 1.54712 7.43573 1.76372 7.49761 1.8256C7.54403 1.87202 7.51309 1.91843 7.4512 1.87202C7.38932 1.8256 7.31196 1.76372 7.25008 1.70183C7.18819 1.63995 7.12631 1.57806 7.0799 1.57806C7.03348 1.57806 7.01801 1.60901 7.0799 1.70183C7.12631 1.76372 7.17272 1.81013 7.25008 1.87202C7.32743 1.94937 7.37385 1.98031 7.43573 2.0422C7.46667 2.07314 7.49762 2.11955 7.46667 2.13503C7.43573 2.1505 7.35838 2.07314 7.29649 2.01126C7.20366 1.9339 6.92518 1.68636 6.84783 1.68636C6.83235 1.68636 6.81689 1.70183 6.81689 1.70183C6.81689 1.70183 6.73953 1.77919 6.69312 1.84107C6.6467 1.91843 6.60029 1.99579 6.60029 2.07314C6.60029 2.1505 6.60029 2.22785 6.60029 2.2588C6.60029 2.28974 6.61576 2.32068 6.6467 2.36709C6.67764 2.41351 6.73953 2.49086 6.77047 2.52181C6.81688 2.55275 6.89424 2.59916 6.90971 2.59916C6.92518 2.61463 6.9716 2.6301 6.9716 2.6301C6.9716 2.6301 6.9716 2.67652 6.94065 2.67652C6.90971 2.69199 6.755 2.64557 6.66217 2.55275C6.49199 2.38256 6.36822 2.02673 6.63123 1.53165C6.81688 1.19128 6.9716 1.00563 6.9716 1.00563L7.52856 1.46977Z" fill="#C9AF73"/>
<path d="M8.11647 1.90296C8.11647 1.90296 8.02364 1.82561 7.9927 1.76372C7.96176 1.70184 7.9927 1.65543 8.05458 1.71731C8.11647 1.77919 8.14741 1.79467 8.16288 1.79467C8.17835 1.79467 8.27118 1.82561 8.19382 1.73278C8.13194 1.63995 8.03911 1.54713 8.07005 1.53166C8.101 1.51618 8.08552 1.50071 8.14741 1.5626C8.20929 1.62448 8.31759 1.70184 8.28665 1.62448C8.25571 1.54713 8.22476 1.48524 8.14741 1.42336C8.07005 1.36147 7.9927 1.31506 7.9927 1.29959C7.9927 1.2377 8.07005 1.26865 8.19382 1.39242C8.31759 1.51618 8.54966 1.73278 8.67343 1.84108C8.78173 1.94938 8.82814 2.01126 8.76626 1.99579C8.70437 1.98032 8.56513 1.82561 8.56513 1.85655C8.56513 1.88749 8.48777 1.85655 8.65796 1.99579C8.82814 2.13503 8.82814 2.11956 8.93644 2.2588C9.04474 2.38257 9.15304 2.42898 9.19945 2.4754C9.24586 2.52181 9.32322 2.5837 9.27681 2.59917C9.24586 2.63011 9.21492 2.61464 9.13757 2.52181C9.04474 2.44446 8.9055 2.30521 8.84361 2.27427C8.78173 2.24333 8.71984 2.1505 8.64249 2.10409C8.56513 2.05768 8.48777 2.0422 8.54966 2.11956C8.61154 2.19692 8.61154 2.19692 8.70437 2.28974C8.7972 2.39804 8.85908 2.55275 8.73532 2.44446C8.61155 2.35163 8.50325 2.16597 8.39495 2.08862C8.28665 1.99579 8.11647 1.90296 8.11647 1.90296Z" fill="#F2E2BF"/>
<path d="M7.59043 1.9339C7.65231 1.91843 7.71419 1.99579 7.79155 2.05767C7.88438 2.13503 7.96173 2.11956 7.94626 2.05767C7.93079 1.99579 7.82249 1.91843 7.89985 1.90296C7.93079 1.90296 7.94626 1.9339 8.0855 2.05767C8.22474 2.18144 8.34851 2.32068 8.42587 2.39804C8.50322 2.4754 8.54964 2.52181 8.50323 2.56822C8.45681 2.59916 7.94626 2.10409 8.02362 2.22786C8.10097 2.35163 8.34851 2.63011 8.48775 2.75388C8.58058 2.8467 8.73529 2.93953 8.67341 2.98594C8.64246 3.01689 8.50322 2.90859 8.4104 2.83123C8.28663 2.7384 8.0855 2.4754 8.07003 2.64558C8.07003 2.73841 8.24021 2.86217 8.28663 2.92406C8.33304 2.97047 8.45681 3.09424 8.39492 3.10971C8.33304 3.12518 8.3021 3.09424 8.1938 2.93953C8.07003 2.76935 7.94626 2.64558 7.80702 2.52181C7.66778 2.39804 7.6059 2.32068 7.57495 2.27427C7.54401 2.22786 7.59042 2.16597 7.66778 2.19691C7.74514 2.21239 7.74514 2.16597 7.69872 2.13503C7.63684 2.05767 7.54401 1.94938 7.59043 1.9339Z" fill="#E0C994"/>
<path d="M7.42026 2.35162C7.40478 2.22785 7.29649 2.11956 7.21913 2.05767C7.20366 2.0422 7.20366 2.0422 7.18819 2.02673C7.15725 1.99579 7.11083 1.98032 7.06442 1.98032C6.97159 1.98032 6.87877 2.0422 6.83235 2.11956C6.80141 2.16597 6.78594 2.24333 6.80141 2.32068C6.81688 2.38257 6.86329 2.42898 6.90971 2.45992C6.92518 2.45992 6.94065 2.47539 6.95612 2.47539C7.01801 2.50634 7.07989 2.53728 7.11083 2.59916C7.11083 2.61463 7.11083 2.63011 7.11083 2.63011C7.09536 2.66105 7.03348 2.66105 7.018 2.66105C6.95612 2.66105 6.60028 2.52181 6.60028 2.21238C6.60028 2.10409 6.60028 2.01126 6.69311 1.88749C6.73952 1.81013 6.78594 1.77919 6.81688 1.74825C6.81688 1.74825 6.81688 1.74825 6.83235 1.73278C6.83235 1.73278 6.81688 1.73278 6.81688 1.71731C6.81688 1.71731 6.81688 1.71731 6.80141 1.71731C6.77047 1.74825 6.72405 1.79466 6.67764 1.85655C6.58481 1.99579 6.56934 2.08861 6.58481 2.19691C6.58481 2.52181 6.97159 2.66105 7.03348 2.66105C7.04895 2.66105 7.11083 2.64558 7.1263 2.61463C7.14177 2.59916 7.14177 2.58369 7.1263 2.56822C7.09536 2.50634 7.01801 2.45992 6.95612 2.42898C6.94065 2.42898 6.92518 2.41351 6.90971 2.41351C6.84782 2.38257 6.81688 2.33615 6.80141 2.28974C6.78594 2.21238 6.80141 2.1505 6.83235 2.10409C6.86329 2.0422 6.95612 1.98032 7.04895 1.98032C7.09536 1.98032 7.1263 1.99579 7.17272 2.02673C7.18819 2.0422 7.18819 2.0422 7.20366 2.05767C7.28102 2.11956 7.38931 2.22785 7.40478 2.33615C7.42025 2.49086 7.42026 2.53728 7.31196 2.69199C7.2346 2.80029 7.06442 2.92406 6.84782 2.92406C6.80141 2.92406 6.755 2.92406 6.70858 2.90859C6.49199 2.8467 5.99691 2.49086 5.87314 2.08861C5.71843 1.59354 5.74937 1.08299 5.96596 0.541497C6.01238 0.433199 6.07426 0.3249 6.08973 0.293958C6.08973 0.293958 6.08973 0.278487 6.1052 0.278487L6.08973 0.263016C6.08973 0.263016 6.01238 0.402256 5.95049 0.526026C5.7339 1.06752 5.70295 1.57807 5.85767 2.08861C5.93502 2.32068 6.12068 2.52181 6.25992 2.64558C6.4301 2.80029 6.61576 2.89312 6.70858 2.92406C6.755 2.93953 6.80141 2.93953 6.84782 2.93953C7.03347 2.93953 7.20366 2.8467 7.32743 2.69199C7.4512 2.55275 7.43573 2.50634 7.42026 2.35162Z" fill="#B59A5F"/>
<path d="M8.67341 1.03658C8.64247 0.943749 8.48775 0.773566 8.28663 0.572441C7.99268 0.278489 7.62137 0.154719 7.45119 0.139248H7.43571C7.32742 0.123777 7.1727 0.0928345 6.98705 0.0928345C6.66215 0.0928345 6.3682 0.17019 6.08972 0.309431C6.08972 0.309431 6.08972 0.309431 6.08972 0.324902C6.08972 0.324902 6.08972 0.324902 6.10519 0.324902C6.10519 0.324902 6.10519 0.309431 6.12066 0.309431C6.38367 0.17019 6.67763 0.108306 6.98705 0.108306C7.1727 0.108306 7.32742 0.139248 7.43571 0.154719H7.45119C7.62137 0.185662 7.99268 0.309431 8.28663 0.587912C8.48775 0.789037 8.64247 0.95922 8.67341 1.05205C8.68888 1.1294 8.70435 1.19129 8.64247 1.25317C8.58058 1.33053 8.45681 1.39241 8.34851 1.39241C8.3021 1.39241 8.25569 1.37694 8.24022 1.346C8.17833 1.29959 7.91532 1.08299 7.86891 1.05205C7.86891 1.03658 7.89985 1.00563 7.97721 0.974691C8.00815 0.95922 8.03909 0.95922 8.07003 0.95922C8.11645 0.95922 8.16286 0.974691 8.20927 1.0211C8.24022 1.05205 8.27116 1.08299 8.3021 1.11393C8.34851 1.17582 8.37946 1.20676 8.4104 1.20676C8.42587 1.20676 8.45681 1.19129 8.47228 1.16035C8.48775 1.1294 8.48775 1.11393 8.45681 1.08299C8.4104 1.0211 8.24022 0.850922 8.13192 0.804508C7.96174 0.727153 7.88438 0.727153 7.80702 0.727153C7.72967 0.727153 7.59043 0.773566 7.55948 0.81998C7.55948 0.81998 7.57496 0.81998 7.57496 0.835451C7.59043 0.804508 7.72967 0.758095 7.80702 0.758095H7.82249C7.89985 0.758095 7.97721 0.758095 8.13192 0.835451C8.24022 0.881864 8.4104 1.03658 8.45681 1.11393C8.47228 1.1294 8.47228 1.16035 8.45681 1.17582C8.44134 1.19129 8.42587 1.20676 8.4104 1.20676C8.39493 1.20676 8.34851 1.16035 8.31757 1.1294C8.28663 1.09846 8.25569 1.06752 8.22475 1.03658C8.17833 0.990163 8.13192 0.974691 8.07003 0.974691C8.03909 0.974691 8.00815 0.974691 7.97721 0.990163C7.88438 1.0211 7.86891 1.06752 7.86891 1.08299V1.09846C7.88438 1.11393 8.17833 1.346 8.24022 1.40788C8.27116 1.43883 8.3021 1.4543 8.36399 1.4543C8.47228 1.4543 8.61152 1.39241 8.67341 1.31506C8.71982 1.19129 8.71982 1.1294 8.67341 1.03658Z" fill="#D5B775"/>
<path d="M1.21629 2.70745C1.21629 2.70745 1.24724 2.90858 1.26271 3.15612C1.27818 3.40366 1.29365 3.75949 1.29365 3.9142C1.29365 4.05345 1.29365 4.39381 1.29365 4.39381C1.29365 4.39381 1.38648 4.47117 1.54119 4.44023C1.6959 4.40928 1.88155 4.27004 2.29928 4.25457C2.717 4.22363 2.88718 4.19269 3.02642 4.22363C3.18113 4.25457 3.21208 4.22363 3.21208 4.22363C3.21208 4.22363 3.04189 3.92968 3.02642 3.63572C3.01095 3.3263 3.01095 3.06329 3.04189 2.93952C3.07283 2.81575 3.16566 2.64557 3.16566 2.64557L1.21629 2.70745Z" fill="#E1CEA1"/>
<path d="M1.88155 3.58932C1.74231 2.98594 1.9125 2.81576 2.0208 2.64558C2.00532 2.59916 1.60307 2.7384 1.60307 2.69199L1.21629 2.70746C1.21629 2.70746 1.24724 2.90859 1.26271 3.15612C1.27818 3.40366 1.29365 3.7595 1.29365 3.91421C1.29365 4.05345 1.29365 4.39382 1.29365 4.39382C1.29365 4.39382 1.38648 4.47117 1.54119 4.44023C1.6959 4.40929 1.88155 4.27005 2.29928 4.25458C2.717 4.22364 2.88718 4.19269 3.02642 4.22364C3.18113 4.25458 3.21208 4.22364 3.21208 4.22364C3.21208 4.22364 3.16566 4.14628 3.11925 4.02251C2.17551 4.19269 1.9125 3.72856 1.88155 3.58932Z" fill="#DDC586"/>
<path d="M2.53134 4.16175C2.40757 4.14628 2.25286 4.14628 2.12909 4.16175C1.98985 4.17722 1.85061 4.19269 1.71137 4.14628C1.60307 4.11534 1.38648 4.03798 1.43289 3.07877C1.43289 2.955 1.46383 2.83123 1.49477 2.70746L1.21629 2.72293C1.21629 2.72293 1.24724 2.92405 1.26271 3.17159C1.27818 3.41913 1.29365 3.77497 1.29365 3.92968C1.29365 4.06892 1.29365 4.40929 1.29365 4.40929C1.29365 4.40929 1.38648 4.48664 1.54119 4.4557C1.6959 4.42476 1.88155 4.27005 2.29928 4.25458C2.717 4.22363 2.88718 4.19269 3.02642 4.22363C3.18113 4.25458 3.21208 4.22363 3.21208 4.22363C3.21208 4.22363 3.18113 4.16175 3.15019 4.11534C3.02642 4.16175 2.67058 4.17722 2.53134 4.16175Z" fill="#D8BE7E"/>
<path d="M1.4793 4.4557C1.37101 4.4557 1.30912 4.40928 1.29365 4.39381V3.9142C1.29365 3.77496 1.27818 3.40365 1.26271 3.15612C1.24724 2.92405 1.21629 2.72292 1.21629 2.70745V2.69198L3.1966 2.6301L3.18113 2.64557C3.18113 2.64557 3.08831 2.81575 3.05736 2.93952C3.02642 3.06329 3.02642 3.31083 3.04189 3.62025C3.05736 3.92967 3.22755 4.22363 3.22755 4.22363V4.2391H3.21208C3.21208 4.2391 3.1966 4.2391 3.16566 4.2391C3.13472 4.2391 3.07283 4.2391 3.02642 4.22363C2.98001 4.22363 2.94906 4.22363 2.88718 4.22363C2.80982 4.22363 2.717 4.22363 2.59323 4.2391C2.51587 4.2391 2.42305 4.25457 2.29928 4.27004C2.00532 4.28551 1.85061 4.3474 1.71137 4.40928C1.64949 4.42475 1.60307 4.4557 1.55666 4.4557C1.52572 4.4557 1.49477 4.4557 1.4793 4.4557ZM1.30912 4.39381C1.32459 4.40928 1.38648 4.44022 1.46383 4.44022C1.49477 4.44022 1.51025 4.44022 1.54119 4.42475C1.5876 4.40928 1.63402 4.39381 1.6959 4.37834C1.83514 4.33193 1.98985 4.25457 2.28381 4.2391C2.40757 4.22363 2.5004 4.22363 2.59323 4.20816C2.717 4.19268 2.80982 4.19268 2.88718 4.19268C2.94906 4.19268 2.98001 4.19268 3.02642 4.20816C3.10378 4.22363 3.15019 4.22363 3.16566 4.22363C3.18113 4.22363 3.18113 4.22363 3.18113 4.22363C3.15019 4.16174 3.02642 3.89873 2.99548 3.63572C2.98001 3.31083 2.98001 3.06329 3.01095 2.93952C3.04189 2.84669 3.10378 2.70745 3.11925 2.66104L1.21629 2.72292C1.21629 2.76934 1.24724 2.95499 1.26271 3.15612C1.27818 3.40365 1.29365 3.77496 1.29365 3.9142V4.39381H1.30912Z" fill="#C3A873"/>
<path d="M1.06158 2.59916C1.06158 2.59916 1.07705 2.64558 1.07705 2.69199C1.07705 2.7384 1.03064 2.80029 1.03064 2.80029C1.03064 2.80029 1.07705 2.78482 1.09252 2.81576C1.10799 2.83123 1.15441 2.86217 1.23176 2.8467C1.30912 2.83123 1.38647 2.83123 1.43289 2.8467C1.4793 2.8467 1.5876 2.8467 1.71137 2.8467C1.83514 2.8467 1.83514 2.83123 1.91249 2.86217C1.98985 2.89311 2.11362 2.92406 2.23739 2.89311C2.36116 2.86217 2.43851 2.87764 2.51587 2.87764C2.59322 2.87764 2.67058 2.86217 2.73246 2.87764C2.79435 2.89311 2.84076 2.89311 2.91812 2.89311C2.98 2.87764 3.0883 2.8467 3.13472 2.86217C3.18113 2.87764 3.27396 2.87764 3.27396 2.87764C3.27396 2.87764 3.22754 2.81576 3.28943 2.67652C3.35131 2.53728 3.24301 2.44445 3.24301 2.44445L0.999695 2.49086L1.06158 2.59916Z" fill="#C3A567"/>
<path d="M3.28943 2.70746C3.18113 2.72293 3.07283 2.75388 2.98001 2.76935C2.88718 2.78482 2.79435 2.80029 2.68606 2.80029C2.6087 2.80029 2.53135 2.80029 2.45399 2.78482C2.46946 2.78482 2.48493 2.78482 2.48493 2.78482C2.45399 2.78482 2.42305 2.78482 2.3921 2.78482C2.29928 2.80029 2.22192 2.8467 2.12909 2.83123C2.03627 2.83123 1.94344 2.80029 1.85061 2.76935C1.72684 2.75388 1.5876 2.73841 1.46383 2.73841C1.38648 2.73841 1.29365 2.72293 1.21629 2.70746C1.15441 2.69199 1.108 2.69199 1.07705 2.67652V2.69199C1.07705 2.73841 1.03064 2.80029 1.03064 2.80029C1.03064 2.80029 1.07705 2.78482 1.09252 2.81576C1.108 2.83123 1.15441 2.86218 1.23177 2.8467C1.30912 2.83123 1.38648 2.83123 1.43289 2.8467C1.4793 2.8467 1.5876 2.8467 1.71137 2.8467C1.83514 2.8467 1.83514 2.83123 1.9125 2.86218C1.98985 2.89312 2.11362 2.92406 2.23739 2.89312C2.36116 2.86218 2.43852 2.87765 2.51587 2.87765C2.59323 2.87765 2.67058 2.86218 2.73247 2.87765C2.79435 2.89312 2.84077 2.89312 2.91812 2.89312C2.98001 2.87765 3.08831 2.8467 3.13472 2.86218C3.18113 2.87765 3.27396 2.87765 3.27396 2.87765C3.27396 2.87765 3.25849 2.80029 3.28943 2.70746Z" fill="#CFB37B"/>
<path d="M2.1291 2.89311C2.05175 2.89311 1.97439 2.87764 1.91251 2.8467C1.85062 2.83122 1.83515 2.83122 1.7578 2.83122C1.74233 2.83122 1.72685 2.83122 1.71138 2.83122C1.57214 2.83122 1.46384 2.83122 1.4329 2.83122C1.40196 2.83122 1.37102 2.83122 1.34007 2.83122C1.29366 2.83122 1.26272 2.83122 1.23178 2.83122C1.15442 2.8467 1.10801 2.83122 1.07706 2.80028C1.07706 2.78481 1.06159 2.78481 1.04612 2.78481C1.03065 2.78481 1.01518 2.78481 1.01518 2.78481H0.984238L0.999709 2.76934C0.999709 2.76934 1.04612 2.70746 1.04612 2.67651C1.04612 2.6301 1.03065 2.58369 1.03065 2.58369L0.984238 2.42897H0.999709L3.24303 2.38256C3.24303 2.38256 3.35133 2.49086 3.28944 2.6301C3.22756 2.76934 3.27397 2.81575 3.27397 2.81575L3.28944 2.83122H3.27397C3.27397 2.83122 3.18114 2.81575 3.13473 2.81575H3.11926C3.08832 2.81575 3.0419 2.83122 2.99549 2.83122C2.96455 2.83122 2.94908 2.8467 2.93361 2.8467C2.87172 2.86217 2.82531 2.8467 2.74795 2.83122C2.73248 2.83122 2.71701 2.83122 2.68607 2.83122C2.65513 2.83122 2.63965 2.83122 2.60871 2.83122C2.57777 2.83122 2.5623 2.83122 2.53136 2.83122C2.51588 2.83122 2.50041 2.83122 2.48494 2.83122C2.46947 2.83122 2.454 2.83122 2.43853 2.83122C2.39212 2.83122 2.33023 2.83122 2.25287 2.86217C2.20646 2.89311 2.17552 2.89311 2.1291 2.89311ZM1.81968 2.81575C1.85062 2.81575 1.88157 2.81575 1.92798 2.83122C1.98986 2.8467 2.06722 2.87764 2.14458 2.87764C2.17552 2.87764 2.22193 2.87764 2.25287 2.86217C2.33023 2.8467 2.39212 2.83122 2.43853 2.83122C2.454 2.83122 2.46947 2.83122 2.48494 2.83122C2.50041 2.83122 2.51588 2.83122 2.53136 2.83122C2.5623 2.83122 2.57777 2.83122 2.60871 2.83122C2.63965 2.83122 2.65513 2.83122 2.68607 2.83122C2.71701 2.83122 2.73248 2.83122 2.74795 2.83122C2.80984 2.8467 2.85625 2.8467 2.91813 2.8467C2.93361 2.8467 2.96455 2.83122 2.98002 2.83122C3.02643 2.81575 3.07285 2.81575 3.10379 2.81575C3.11926 2.81575 3.11926 2.81575 3.13473 2.81575C3.18114 2.83122 3.24303 2.83122 3.27397 2.83122C3.2585 2.80028 3.24303 2.7384 3.28944 2.6301C3.33586 2.50633 3.2585 2.42897 3.24303 2.4135L1.01518 2.45992L1.04612 2.59916C1.04612 2.59916 1.06159 2.64557 1.06159 2.69198C1.06159 2.72293 1.03065 2.75387 1.01518 2.78481C1.03065 2.78481 1.04612 2.78481 1.06159 2.80028C1.09254 2.83122 1.12348 2.83122 1.18536 2.83122C1.21631 2.83122 1.26272 2.81575 1.30913 2.81575C1.34007 2.81575 1.37102 2.81575 1.40196 2.81575C1.4329 2.81575 1.5412 2.81575 1.68044 2.81575C1.69591 2.81575 1.71138 2.81575 1.72685 2.81575C1.78874 2.81575 1.80421 2.81575 1.81968 2.81575Z" fill="#B59A5F"/>
<path d="M2.70153 2.59916C2.70153 2.59916 2.84077 2.6301 3.04189 2.6301C3.24302 2.61463 3.32037 2.61463 3.44414 2.6301C3.55244 2.64557 3.79998 2.66104 4.03205 2.5218C4.27958 2.36709 4.4343 2.15049 4.41883 1.70183C4.40335 1.22222 4.27958 0.773557 3.75356 0.448663C3.25849 0.139239 2.93359 0.0773547 2.65511 0.0464123C2.17551 -1.21024e-06 1.95891 0.0309411 1.5876 0.0773546C1.21629 0.139239 0.875928 0.247538 0.535562 0.495076C0.226139 0.727144 0.0559558 1.03657 0.0250135 1.34599C-0.00592886 1.65541 0.0559554 2.01125 0.133311 2.15049C0.210667 2.28973 0.473677 2.58368 0.90687 2.56821C1.108 2.55274 1.29365 2.58368 1.63402 2.56821C1.97438 2.55274 2.11362 2.58368 2.23739 2.59916C2.36116 2.59916 2.70153 2.59916 2.70153 2.59916Z" fill="#EBDAAD"/>
<path d="M4.01659 2.32067C1.63403 2.59916 0.674817 1.59353 0.922356 0.263008C0.829529 0.309422 0.612932 0.433191 0.520105 0.510547C0.210681 0.742615 0.0404987 1.05204 0.00955634 1.36146C-0.021386 1.67088 0.0404982 2.02672 0.117854 2.16596C0.19521 2.3052 0.45822 2.59916 0.891413 2.58368C1.09254 2.56821 1.27819 2.59916 1.61856 2.58368C1.95892 2.56821 2.09816 2.59916 2.22193 2.61463C2.3457 2.61463 2.68607 2.6301 2.68607 2.6301C2.68607 2.6301 2.82531 2.66104 3.02643 2.66104C3.22756 2.64557 3.30492 2.64557 3.42869 2.66104C3.53698 2.67651 3.78452 2.69198 4.01659 2.55274C4.14036 2.47539 4.24866 2.38256 4.31054 2.24332C4.26413 2.25879 4.18677 2.3052 4.01659 2.32067Z" fill="#E4CE96"/>
<path d="M0.133316 1.00563C-0.0987512 1.37694 0.0714317 2.05767 0.133316 2.1505C0.210672 2.28974 0.473682 2.58369 0.906875 2.56822C1.108 2.55275 1.29365 2.58369 1.63402 2.56822C1.97439 2.55275 2.11363 2.58369 2.2374 2.59916C2.36116 2.59916 2.70153 2.61463 2.70153 2.61463C2.70153 2.61463 2.84077 2.64557 3.0419 2.64557C3.24302 2.6301 3.32038 2.6301 3.44415 2.64557C3.55245 2.66105 3.83093 2.66105 4.06299 2.52181C3.11925 2.59916 2.31475 2.50633 1.66496 2.44445C0.767634 2.33615 0.133316 1.73278 0.133316 1.00563Z" fill="#D9BE82"/>
<path d="M2.56229 0.139236C2.77889 0.139236 3.0419 0.18565 3.44415 0.371304C3.78451 0.541487 4.00111 0.758083 4.07847 0.959209C4.15582 1.14486 4.24865 1.40787 4.15582 1.67088C4.00111 2.05766 3.44415 2.32067 2.87171 1.74824C2.5004 1.37693 2.19098 1.36146 2.05174 1.09845C1.9125 0.85091 1.94344 0.696199 1.97439 0.541487C2.0208 0.324891 2.20645 0.154708 2.56229 0.139236Z" fill="#F3E0BC"/>
<path d="M3.4132 0.526015C3.6298 0.665256 3.83092 0.819968 3.89281 1.02109C3.93922 1.16033 3.93922 1.3924 3.72263 1.45429C3.38226 1.54711 3.35132 1.22222 3.10378 1.03656C2.84077 0.835439 2.68605 0.866381 2.59323 0.680727C2.54681 0.603371 2.53134 0.448659 2.6087 0.386775C2.79435 0.232063 3.1966 0.386775 3.4132 0.526015Z" fill="#F9EAD1"/>
<path d="M2.50041 3.01687C2.71701 3.01687 2.8253 2.92405 2.8253 3.1097C2.8253 3.27988 2.84077 3.52742 2.85625 3.63572C2.87172 3.74402 2.99549 3.86779 2.84078 3.85232C2.70154 3.83685 2.54682 3.75949 2.454 3.65119C2.37664 3.52742 2.28381 3.01687 2.50041 3.01687Z" fill="#E8D5AA"/>
<path d="M3.58339 2.64557C3.5215 2.64557 3.45962 2.64557 3.42868 2.6301C3.38226 2.61463 3.33585 2.61463 3.28943 2.61463C3.24302 2.61463 3.18114 2.61463 3.08831 2.6301C3.07284 2.6301 3.05737 2.6301 3.02642 2.6301C2.99548 2.6301 2.96454 2.6301 2.94907 2.6301C2.79436 2.6301 2.70153 2.59916 2.68606 2.59916C2.65512 2.59916 2.34569 2.59916 2.22192 2.59916C2.19098 2.59916 2.14457 2.59916 2.09815 2.58369C2.0208 2.56821 1.9125 2.56821 1.75779 2.56821C1.71138 2.56821 1.66496 2.56821 1.61855 2.56821C1.54119 2.56821 1.46384 2.56821 1.37101 2.56821C1.29365 2.56821 1.2163 2.56821 1.15441 2.56821C1.09253 2.56821 1.04612 2.56821 0.999702 2.56821C0.96876 2.56821 0.922345 2.56821 0.891403 2.56821C0.875932 2.56821 0.875932 2.56821 0.860461 2.56821C0.458211 2.56821 0.1952 2.3052 0.117844 2.15049C0.0250172 1.99578 -0.0213959 1.63994 0.00954646 1.34599C0.0404888 1.0211 0.226143 0.711674 0.520095 0.479606C0.814047 0.247539 1.13894 0.123769 1.57214 0.0618847C1.78873 0.0309423 1.97438 0 2.20645 0C2.33022 0 2.46946 -2.88173e-08 2.63965 0.0309423C2.91813 0.0618847 3.22755 0.108298 3.7381 0.433193C4.31053 0.78903 4.40336 1.29958 4.41883 1.70183C4.4343 2.10408 4.31053 2.35162 4.03205 2.53727C3.86187 2.6301 3.70716 2.64557 3.58339 2.64557ZM3.30491 2.59916C3.35132 2.59916 3.39773 2.59916 3.45962 2.61463C3.49056 2.61463 3.53697 2.6301 3.59886 2.6301C3.70716 2.6301 3.86187 2.61463 4.03205 2.50633C4.31053 2.33615 4.41883 2.10408 4.41883 1.70183C4.40336 1.31505 4.326 0.804501 3.75357 0.448664C3.24302 0.123769 2.9336 0.0773559 2.65512 0.0464135C2.48493 0.0309423 2.34569 0.0154712 2.22192 0.0154712C1.98986 0.0154712 1.8042 0.0464135 1.58761 0.0773558C1.15441 0.154712 0.829519 0.278481 0.535567 0.495077C0.241614 0.711674 0.0714319 1.0211 0.0404895 1.33052C0.00954717 1.63994 0.0714314 1.99578 0.148787 2.11955C0.241614 2.27426 0.489153 2.53727 0.875933 2.53727C0.891404 2.53727 0.891403 2.53727 0.906874 2.53727C0.937817 2.53727 0.98423 2.53727 1.01517 2.53727C1.06159 2.53727 1.12347 2.53727 1.16988 2.53727C1.23177 2.53727 1.30913 2.53727 1.38648 2.53727C1.46384 2.53727 1.54119 2.53727 1.63402 2.53727C1.68043 2.53727 1.72685 2.53727 1.77326 2.53727C1.92797 2.53727 2.03627 2.55274 2.1291 2.55274C2.17551 2.55274 2.20645 2.56821 2.25287 2.56821C2.37664 2.56821 2.717 2.58369 2.717 2.58369C2.717 2.58369 2.8253 2.61463 2.98001 2.61463C3.01095 2.61463 3.0419 2.61463 3.05737 2.61463C3.07284 2.61463 3.08831 2.61463 3.11925 2.61463C3.18114 2.59916 3.24302 2.59916 3.30491 2.59916Z" fill="#D5B775"/>
</svg>
