<svg width="5" height="4" viewBox="0 0 5 4" fill="none" xmlns="http://www.w3.org/2000/svg">
<path d="M2.33856 3.37C2.33856 3.37 2.31856 3.36 2.30856 3.36C2.29856 3.36 2.28856 3.36 2.27856 3.34C2.26856 3.32 2.27856 3.3 2.25856 3.3C2.23856 3.29 2.21856 3.3 2.20856 3.27C2.19856 3.24 2.16856 3.24 2.16856 3.24C2.15856 3.24 2.15856 3.23 2.15856 3.21C2.15856 3.19 2.14856 3.21 2.13856 3.2C2.12856 3.19 2.12856 3.17 2.12856 3.15C2.12856 3.13 2.09856 3.15 2.09856 3.1C2.09856 3.05 2.09856 3 2.07856 2.92C2.02856 2.55 1.91856 2.31 2.19856 1.86C2.38856 1.54 2.70856 1.39 2.85856 1.34C3.15856 1.25 3.44856 1.32 3.62856 1.26C3.80856 1.2 3.90856 1.15 4.01856 1.01C4.02856 1.01 4.02856 1.02 4.02856 1.02C4.03856 1.03 4.06856 1.03 4.08856 1.05C4.09856 1.06 4.10856 1.08 4.11856 1.09C4.12856 1.1 4.12856 1.11 4.13856 1.11C4.14856 1.12 4.15856 1.12 4.15856 1.12C4.09856 1.18 4.03856 1.29 4.01856 1.4C3.99856 1.51 3.99856 1.66 4.02856 1.72C4.04856 1.79 4.19856 2.03 4.20856 2.29C4.21856 2.54 4.15856 2.73 4.11856 2.81C4.07856 2.89 3.88856 3.25 3.60856 3.37C3.18856 3.55 2.79856 3.52 2.73856 3.52C2.66856 3.52 2.62856 3.53 2.60856 3.53C2.58856 3.53 2.50856 3.54 2.50856 3.51C2.50856 3.48 2.49857 3.47 2.47857 3.47C2.45856 3.46 2.43856 3.45 2.41856 3.44C2.39856 3.43 2.38856 3.42 2.38856 3.41C2.38856 3.4 2.38856 3.39 2.37856 3.38C2.35856 3.37 2.33856 3.37 2.33856 3.37Z" fill="#E5E4B7"/>
<path d="M2.56856 3.5C2.64856 3.48 2.85856 3.44 2.98856 3.44C3.67856 3.4 3.92856 2.97 4.03856 2.63C4.16856 2.22 4.01856 1.79 3.99856 1.68C3.94856 1.49 4.00856 1.28 4.15856 1.12C4.12856 1.1 4.04856 1.02 4.00856 1C3.97856 1.06 3.79856 1.2 3.73856 1.23C3.70856 1.25 3.67856 1.26 3.63856 1.27C3.51856 1.32 3.33856 1.34 3.16856 1.36C3.02856 1.37 2.75856 1.44 2.56856 1.6C2.37856 1.76 2.08856 2.02 2.10856 2.5C2.11856 2.65 2.10856 2.74 2.10856 2.83C2.10856 2.92 2.13856 3.12 2.13856 3.12L2.21856 3.19L2.44856 3.33C2.44856 3.35 2.53856 3.51 2.56856 3.5Z" fill="#EAE5C3"/>
<path d="M4.15856 1.12C4.15856 1.12 4.14856 1.12 4.15856 1.12C4.14856 1.11 4.14856 1.11 4.14856 1.11C4.13856 1.11 4.13856 1.1 4.13856 1.09C4.11856 1.07 4.09856 1.05 4.07856 1.04C4.06856 1.04 4.06856 1.04 4.05856 1.03C4.09856 1.06 4.15856 1.11 4.17856 1.13C4.02856 1.3 3.96856 1.5 4.01856 1.69C4.01856 1.7 4.02856 1.72 4.02856 1.73C4.06856 1.88 4.17856 2.27 4.05856 2.63C3.88856 3.14 3.54856 3.4 3.01856 3.43C2.90856 3.44 2.72856 3.47 2.62856 3.49H2.59856C2.57856 3.49 2.51856 3.4 2.48856 3.34L2.22856 3.21L2.14856 3.14C2.14856 3.12 2.11856 2.93 2.11856 2.85C2.11856 2.83 2.11856 2.81 2.11856 2.78C2.11856 2.71 2.11856 2.63 2.11856 2.52C2.09856 2.02 2.40856 1.76 2.57856 1.62C2.75856 1.47 3.01856 1.39 3.17856 1.38C3.39856 1.36 3.54856 1.33 3.64856 1.29C3.67856 1.28 3.70856 1.26 3.74856 1.25C3.81856 1.21 3.98856 1.08 4.01856 1.02C4.01856 1.02 4.02856 1.02 4.02856 1.03L4.01856 1.02C4.01856 1.02 4.01856 1.02 4.00856 1.02C3.97856 1.08 3.80856 1.22 3.73856 1.25C3.70856 1.27 3.66856 1.28 3.63856 1.29C3.53856 1.33 3.38856 1.36 3.16856 1.38C3.00856 1.39 2.74856 1.47 2.56856 1.62C2.39856 1.76 2.08856 2.02 2.10856 2.53C2.10856 2.65 2.10856 2.72 2.10856 2.79C2.10856 2.81 2.10856 2.83 2.10856 2.86C2.10856 2.95 2.13856 3.15 2.13856 3.16L2.21856 3.23L2.44856 3.37C2.45856 3.39 2.52856 3.52 2.56856 3.52H2.59856C2.69856 3.5 2.87856 3.47 2.98856 3.46C3.52856 3.43 3.86856 3.16 4.03856 2.65C4.15856 2.29 4.04856 1.89 4.00856 1.74C4.00856 1.72 3.99856 1.71 3.99856 1.7C3.94856 1.5 4.00856 1.29 4.15856 1.12C4.15856 1.13 4.15856 1.12 4.15856 1.12Z" fill="#CCCC7F"/>
<path d="M4.05856 1.04C4.05856 1.04 3.78856 1.28 3.59856 1.34C3.50856 1.37 3.29856 1.43 3.17856 1.46C2.82856 1.54 2.55856 1.71 2.39856 1.94C2.10856 2.34 2.17856 2.72 2.16856 3.08C2.16856 3.15 2.30856 3.24 2.30856 3.24C2.30856 3.24 2.55856 3.52 2.59856 3.48C2.63856 3.44 2.84856 3.41 2.91856 3.4C2.98856 3.39 3.28856 3.36 3.49856 3.21C3.70856 3.06 3.79856 2.9 3.84856 2.78C3.89856 2.66 3.95856 2.43 3.95856 2.23C3.94856 2.03 3.88856 1.62 3.96856 1.39C4.00856 1.29 4.03856 1.21 4.12856 1.11C4.09856 1.08 4.05856 1.04 4.05856 1.04Z" fill="#EDEACC"/>
<path d="M4.12856 1.1C4.11856 1.09 4.09855 1.07 4.07855 1.06C4.06855 1.05 4.05856 1.05 4.04856 1.04C4.02856 1.06 3.77856 1.28 3.58856 1.34C3.49856 1.37 3.28856 1.43 3.16856 1.46C2.82855 1.54 2.55856 1.7 2.38856 1.94C2.13856 2.28 2.14855 2.59 2.15855 2.9C2.15855 2.96 2.15855 3.02 2.15855 3.08C2.15855 3.15 2.28856 3.23 2.29856 3.24C2.30856 3.26 2.51855 3.48 2.57855 3.48C2.58855 3.48 2.58856 3.48 2.58856 3.48C2.62856 3.44 2.81856 3.42 2.88856 3.41H2.89856C2.90856 3.41 2.90856 3.41 2.91856 3.41C3.01856 3.4 3.27856 3.36 3.46856 3.22C3.62856 3.1 3.74855 2.96 3.81855 2.79C3.86855 2.68 3.92856 2.45 3.92856 2.24C3.92856 2.19 3.91856 2.14 3.91856 2.07C3.89856 1.86 3.87856 1.57 3.93856 1.4C4.00856 1.28 4.03856 1.2 4.12856 1.1ZM4.11855 1.1C4.03855 1.2 3.99856 1.27 3.96856 1.38C3.90856 1.55 3.92856 1.84 3.93856 2.05C3.93856 2.11 3.94855 2.17 3.94855 2.22C3.94855 2.41 3.89856 2.64 3.83856 2.77C3.76856 2.94 3.64855 3.08 3.48855 3.19C3.29855 3.33 3.03856 3.36 2.93856 3.37C2.92856 3.37 2.91856 3.37 2.91856 3.37H2.90855C2.82855 3.38 2.63856 3.41 2.59856 3.45C2.59856 3.45 2.59856 3.45 2.58856 3.45C2.52856 3.45 2.31856 3.21 2.30856 3.21C2.30856 3.21 2.16856 3.13 2.17856 3.06C2.17856 3 2.17856 2.94 2.17856 2.88C2.16856 2.58 2.15855 2.26 2.40855 1.93C2.57855 1.7 2.84856 1.53 3.17856 1.46C3.29856 1.43 3.50856 1.37 3.59856 1.34C3.77856 1.28 4.02856 1.07 4.05856 1.04C4.06856 1.05 4.07856 1.06 4.09856 1.07H4.10855C4.10855 1.07 4.10855 1.07 4.11855 1.07C4.11855 1.07 4.12856 1.07 4.12856 1.08C4.11856 1.09 4.11855 1.1 4.11855 1.1Z" fill="#CCCC7F"/>
<path d="M4.09856 1.07C4.09856 1.07 3.93856 1.25 3.88856 1.48C3.86856 1.56 3.82856 1.82 3.82856 1.98C3.82856 2.14 3.89856 2.58 3.48856 3C3.15856 3.33 2.76856 3.27 2.61856 3.38C2.53856 3.44 2.30856 3.18 2.23856 3.05C2.25856 2.77 2.20856 2.42 2.36856 2.14C2.55856 1.83 2.75856 1.69 3.25856 1.55C3.45856 1.49 3.58856 1.39 3.70856 1.32C3.87856 1.22 4.05856 1.03 4.05856 1.03L4.09856 1.07Z" fill="#EFEEDC"/>
<path d="M2.58856 3.41C2.48856 3.41 2.29856 3.18 2.23856 3.07C2.23856 3 2.24856 2.93 2.24856 2.85C2.24856 2.62 2.24856 2.37 2.37856 2.16C2.56856 1.84 2.76856 1.71 3.26856 1.56C3.41856 1.51 3.52856 1.44 3.62856 1.38C3.65856 1.36 3.67856 1.35 3.70856 1.33C3.87856 1.23 4.04856 1.05 4.05856 1.04L4.10856 1.07C4.10856 1.07 3.94856 1.25 3.89856 1.48C3.87856 1.55 3.83856 1.82 3.83856 1.98C3.83856 2 3.83856 2.01 3.83856 2.03C3.84856 2.22 3.86856 2.62 3.48856 3C3.27856 3.21 3.04856 3.26 2.85856 3.3C2.75856 3.32 2.66856 3.34 2.61856 3.38C2.60856 3.4 2.59856 3.41 2.58856 3.41ZM2.24856 3.06C2.30856 3.17 2.49856 3.4 2.58856 3.4C2.59856 3.4 2.60856 3.4 2.60856 3.39C2.65856 3.35 2.74856 3.33 2.84856 3.31C3.03856 3.27 3.26856 3.22 3.47856 3.01C3.84856 2.63 3.82856 2.23 3.81856 2.04C3.81856 2.02 3.81856 2 3.81856 1.99C3.81856 1.83 3.85856 1.56 3.87856 1.49C3.92856 1.27 4.06856 1.1 4.08856 1.07L4.05856 1.05C4.03856 1.07 3.86856 1.25 3.70856 1.34C3.68856 1.35 3.65856 1.37 3.62856 1.39C3.52856 1.45 3.41856 1.52 3.24856 1.57C2.74856 1.72 2.55856 1.85 2.35856 2.16C2.23856 2.36 2.22856 2.62 2.22856 2.84C2.24856 2.92 2.24856 2.99 2.24856 3.06Z" fill="#CCCC7F"/>
<path d="M4.08855 1.04C3.93855 1.23 3.75855 1.62 3.70855 1.97C3.66855 2.27 3.71855 2.6 3.30855 2.99C3.12855 3.17 2.64855 3.3 2.61855 3.32C2.57855 3.34 2.48855 3.23 2.48855 3.23L2.30855 3.08C2.30855 3.08 2.29855 2.6 2.41855 2.39C2.70855 1.85 2.95855 1.78 3.17855 1.69C3.38855 1.6 3.50855 1.55 3.67855 1.42C3.80855 1.32 3.90855 1.24 4.08855 1.04Z" fill="#F7F6E4"/>
<path d="M4.08855 1.05C4.07855 1.05 4.07855 1.05 4.08855 1.05C3.92855 1.22 3.82855 1.3 3.71855 1.39C3.70855 1.4 3.69855 1.41 3.67855 1.42C3.50855 1.55 3.38855 1.61 3.17855 1.69C3.16855 1.7 3.14855 1.7 3.13855 1.71C2.92855 1.79 2.68855 1.89 2.41855 2.39C2.30855 2.6 2.30855 3.07 2.30855 3.08L2.48855 3.23C2.49855 3.24 2.55855 3.33 2.60855 3.33C2.61855 3.33 2.61855 3.33 2.61855 3.33C2.62855 3.33 2.64855 3.32 2.68855 3.3C2.82855 3.25 3.16855 3.14 3.30855 3C3.64855 2.67 3.66855 2.38 3.69855 2.12C3.69855 2.07 3.70855 2.02 3.70855 1.97C3.75855 1.63 3.93855 1.25 4.08855 1.05ZM3.70855 1.97C3.69855 2.02 3.69855 2.07 3.69855 2.12C3.67855 2.37 3.65855 2.66 3.31855 2.99C3.17855 3.13 2.83855 3.24 2.69855 3.29C2.64855 3.3 2.62855 3.31 2.61855 3.31H2.60855C2.56855 3.31 2.49855 3.22 2.49855 3.22L2.31855 3.08C2.31855 3.04 2.31855 2.6 2.41855 2.4C2.68855 1.9 2.92855 1.8 3.13855 1.72C3.15855 1.71 3.16855 1.71 3.17855 1.7C3.38855 1.62 3.50855 1.56 3.67855 1.43C3.68855 1.42 3.69855 1.41 3.71855 1.4C3.81855 1.32 3.90855 1.25 4.03855 1.11C3.89855 1.31 3.74855 1.66 3.70855 1.97Z" fill="#CCCC7F"/>
<path d="M2.58857 3.26C2.58857 3.26 2.88857 3.15 3.02857 3.04C3.17857 2.93 3.35857 2.79 3.46857 2.51C3.56857 2.25 3.53857 2.18 3.57857 2C3.63857 1.75 3.87857 1.34 3.89857 1.27C3.82857 1.33 3.64857 1.51 3.45857 1.65C3.04857 1.96 2.86857 1.95 2.59857 2.35C2.42857 2.61 2.35857 3.06 2.35857 3.06L2.40857 3.26H2.58857Z" fill="#FFFFEE"/>
<path d="M2.58856 3.27H2.41856L2.36856 3.07C2.36856 3.06 2.43856 2.61 2.60856 2.36C2.78856 2.09 2.92856 2 3.11856 1.89C3.21856 1.83 3.32856 1.76 3.46856 1.66C3.59856 1.56 3.71856 1.45 3.80856 1.37C3.84856 1.33 3.88856 1.3 3.90856 1.28C3.90856 1.28 3.90856 1.28 3.91856 1.28C3.90856 1.3 3.88856 1.35 3.84856 1.42C3.75856 1.58 3.62856 1.83 3.58856 2C3.57856 2.06 3.56856 2.11 3.55856 2.16C3.54856 2.25 3.53856 2.34 3.46856 2.51C3.36856 2.79 3.16856 2.94 3.02856 3.04C2.88856 3.15 2.59856 3.27 2.58856 3.27ZM2.42856 3.26H2.58856C2.60856 3.25 2.88856 3.14 3.02856 3.04C3.16856 2.93 3.35856 2.79 3.46856 2.51C3.52856 2.34 3.53856 2.25 3.55856 2.16C3.56856 2.11 3.56856 2.06 3.58856 2C3.62856 1.83 3.75856 1.58 3.83856 1.41C3.86856 1.36 3.88856 1.31 3.89856 1.28C3.87856 1.3 3.84856 1.33 3.81856 1.36C3.72856 1.44 3.60856 1.56 3.47856 1.65C3.33856 1.75 3.22856 1.82 3.12856 1.88C2.93856 2 2.79856 2.08 2.61856 2.35C2.45856 2.6 2.37856 3.04 2.37856 3.06L2.42856 3.26Z" fill="#CCCC7F"/>
<path d="M3.73856 1.52C3.53856 1.72 3.30856 1.89 3.15856 2C3.00856 2.11 2.85856 2.21 2.66856 2.47C2.49856 2.73 2.41856 3.09 2.40856 3.1C2.39856 3.12 2.46856 3.16 2.50856 3.21C3.00856 3.05 3.19856 2.71 3.31856 2.48C3.41856 2.3 3.46856 1.94 3.73856 1.52Z" fill="#FFFFF8"/>
<path d="M2.50855 3.22C2.48855 3.19 2.46855 3.17 2.44855 3.16C2.42855 3.14 2.40855 3.12 2.40855 3.11C2.40855 3.11 2.40855 3.11 2.40855 3.1C2.44855 2.95 2.51855 2.68 2.66855 2.47C2.82855 2.22 2.97855 2.12 3.11855 2.02C3.12855 2.01 3.13855 2 3.15855 1.99C3.38855 1.82 3.57855 1.66 3.73855 1.51C3.73855 1.51 3.73855 1.51 3.74855 1.51C3.74855 1.51 3.74855 1.51 3.74855 1.52C3.56855 1.79 3.48855 2.05 3.42855 2.24C3.39855 2.34 3.36855 2.42 3.33855 2.49C3.21855 2.68 3.02855 3.05 2.50855 3.22ZM3.70855 1.55C3.55855 1.7 3.37855 1.84 3.15855 2C3.14855 2.01 3.13855 2.02 3.11855 2.03C2.97855 2.13 2.83855 2.23 2.66855 2.47C2.52855 2.67 2.44855 2.95 2.41855 3.09V3.1C2.41855 3.11 2.43855 3.13 2.45855 3.14C2.47855 3.16 2.49855 3.18 2.51855 3.2C3.02855 3.04 3.21855 2.67 3.32855 2.47C3.35855 2.41 3.38855 2.32 3.41855 2.22C3.46855 2.05 3.54855 1.81 3.70855 1.55Z" fill="#CCCC7F"/>
<path d="M3.31855 2.06001C3.18855 2.19001 3.03855 2.31001 2.93855 2.39001C2.83855 2.47001 2.73855 2.53 2.61855 2.71C2.49855 2.88 2.43855 3.11001 2.43855 3.12001C2.43855 3.13001 2.47855 3.16001 2.49855 3.19001C2.79855 3.06001 2.93855 2.84001 3.02855 2.69001C3.09855 2.57001 3.13855 2.33001 3.31855 2.06001Z" fill="white"/>
<path d="M2.49856 3.19C2.48856 3.17 2.47856 3.16 2.45856 3.15C2.43856 3.13 2.42856 3.12 2.42856 3.11C2.42856 3.11 2.42856 3.11 2.42856 3.1C2.46856 3.01 2.52856 2.84 2.62856 2.7C2.73856 2.54 2.82856 2.47 2.91856 2.4C2.92856 2.39 2.93856 2.39 2.93856 2.38C3.08856 2.26 3.20856 2.16 3.31856 2.05C3.31856 2.05 3.31856 2.05 3.32856 2.05C3.32856 2.05 3.32856 2.05 3.32856 2.06C3.20856 2.24 3.14856 2.41 3.09856 2.53C3.07856 2.59 3.05856 2.65 3.02856 2.69C2.94856 2.84 2.79856 3.06 2.49856 3.19ZM3.29856 2.09C3.19856 2.18 3.08856 2.28 2.94856 2.39C2.93856 2.4 2.92856 2.4 2.92856 2.41C2.83856 2.48 2.74856 2.55 2.63856 2.71C2.54856 2.85 2.48856 3.02 2.45856 3.11V3.12C2.45856 3.12 2.46856 3.14 2.47856 3.15C2.48856 3.16 2.49856 3.17 2.50856 3.19C2.79856 3.06 2.94856 2.84 3.02856 2.69C3.04856 2.65 3.06856 2.59 3.09856 2.53C3.12856 2.41 3.18856 2.26 3.29856 2.09Z" fill="#CCCC7F"/>
<path d="M2.63855 3.38C2.64855 3.32 2.63855 3.27 2.54855 3.17C2.46855 3.09 2.38855 3.07 2.30855 3.05C2.18855 3.02 2.11855 3.12 2.12855 3.14C2.13855 3.16 2.12855 3.18 2.13855 3.19C2.14855 3.2 2.15855 3.19 2.15855 3.2C2.15855 3.22 2.15855 3.23 2.16855 3.23C2.17855 3.23 2.19855 3.23 2.20855 3.26C2.21855 3.29 2.23855 3.28 2.25855 3.29C2.27855 3.3 2.27855 3.31 2.27855 3.33C2.27855 3.35 2.29855 3.35 2.30855 3.35C2.31855 3.35 2.33855 3.36 2.33855 3.36C2.33855 3.36 2.35855 3.36 2.36855 3.38C2.37855 3.39 2.37855 3.4 2.37855 3.41C2.37855 3.42 2.38855 3.43 2.40855 3.44C2.42855 3.45 2.44855 3.46 2.46855 3.47C2.48855 3.48 2.49855 3.48 2.49855 3.51C2.49855 3.54 2.53855 3.52 2.55855 3.5C2.60855 3.48 2.62855 3.45 2.63855 3.38Z" fill="#E8E1BF"/>
<path d="M2.51856 3.39C2.49856 3.33 2.46856 3.3 2.41856 3.26C2.36856 3.22 2.30856 3.18 2.26856 3.16C2.18856 3.12 2.13856 3.18 2.14856 3.2C2.14856 3.22 2.14856 3.23 2.15856 3.23C2.16856 3.23 2.18856 3.23 2.19856 3.26C2.20856 3.29 2.22856 3.28 2.24856 3.29C2.26856 3.3 2.26856 3.31 2.26856 3.33C2.26856 3.35 2.28856 3.35 2.29856 3.35C2.30856 3.35 2.32856 3.36 2.32856 3.36C2.32856 3.36 2.34856 3.36 2.35856 3.38C2.36856 3.39 2.36856 3.4 2.36856 3.41C2.36856 3.42 2.37856 3.43 2.39856 3.44C2.41856 3.45 2.45856 3.49 2.47856 3.48C2.52856 3.48 2.53856 3.44 2.51856 3.39Z" fill="#D3D19C"/>
<path d="M2.49856 3.46C2.46856 3.41 2.43857 3.38 2.39857 3.37C2.38857 3.37 2.38856 3.36 2.37856 3.35C2.36856 3.34 2.34856 3.34 2.32856 3.33C2.30856 3.32 2.29856 3.31 2.28856 3.28C2.27856 3.26 2.27856 3.26 2.25856 3.25C2.24856 3.24 2.22856 3.21 2.21856 3.21C2.19856 3.2 2.15857 3.18 2.14857 3.19C2.13857 3.19 2.13857 3.21 2.13857 3.21C2.13857 3.23 2.13857 3.24 2.14857 3.24C2.15857 3.24 2.17857 3.24 2.18857 3.27C2.19857 3.3 2.21856 3.29 2.23856 3.3C2.25856 3.31 2.25856 3.32 2.25856 3.34C2.25856 3.36 2.27856 3.36 2.28856 3.36C2.29856 3.36 2.31856 3.37 2.31856 3.37C2.31856 3.37 2.33857 3.37 2.34857 3.39C2.35857 3.4 2.35856 3.41 2.35856 3.42C2.35856 3.43 2.36857 3.44 2.38857 3.45C2.40857 3.46 2.44856 3.48 2.46856 3.49C2.49856 3.49 2.50856 3.47 2.49856 3.46Z" fill="#C6BC91"/>
<path d="M2.56856 3.55C2.52856 3.55 2.50856 3.54 2.50856 3.52C2.50856 3.49 2.49856 3.49 2.47856 3.48C2.45856 3.47 2.43856 3.46 2.41856 3.45C2.41856 3.45 2.41856 3.45 2.40856 3.45C2.39856 3.44 2.37856 3.43 2.37856 3.42C2.37856 3.41 2.37856 3.4 2.36856 3.39C2.35856 3.38 2.33856 3.38 2.33856 3.38C2.32856 3.38 2.31856 3.37 2.30856 3.37C2.29856 3.37 2.27856 3.36 2.27856 3.34V3.33C2.27856 3.32 2.27856 3.31 2.25856 3.31C2.24856 3.31 2.24856 3.31 2.23856 3.31C2.22856 3.31 2.20856 3.31 2.19856 3.29C2.18856 3.27 2.16856 3.26 2.15856 3.26C2.14856 3.26 2.14856 3.24 2.14856 3.23C2.14856 3.23 2.13856 3.23 2.12856 3.22C2.11856 3.21 2.11856 3.2 2.11856 3.19C2.11856 3.18 2.11856 3.18 2.11856 3.17C2.11856 3.16 2.11856 3.16 2.10856 3.16C2.09856 3.16 2.08856 3.15 2.07856 3.12C2.07856 3.1 2.07856 3.09 2.07856 3.08C2.07856 3.04 2.07856 3 2.06856 2.95C2.05856 2.89 2.04856 2.84 2.03856 2.79C1.98856 2.5 1.94856 2.27 2.17856 1.89C2.35856 1.6 2.64856 1.43 2.84856 1.37C3.00856 1.32 3.16856 1.32 3.31856 1.32C3.43856 1.32 3.53856 1.32 3.61856 1.29C3.78856 1.23 3.88856 1.19 4.00856 1.04C4.00856 1.04 4.00856 1.04 4.01856 1.04L4.02856 1.05C4.02856 1.05 4.02856 1.05 4.03856 1.06C4.04856 1.06 4.04856 1.07 4.05856 1.07C4.06856 1.07 4.08856 1.08 4.09856 1.09C4.10856 1.1 4.10856 1.1 4.11856 1.11C4.11856 1.12 4.12856 1.12 4.13856 1.13C4.14856 1.13 4.14856 1.14 4.14856 1.14L4.15856 1.15L4.16856 1.16H4.17856C4.11856 1.22 4.05856 1.33 4.03856 1.43C4.01856 1.54 4.01856 1.68 4.04856 1.75C4.04856 1.76 4.06856 1.79 4.07856 1.81C4.12856 1.92 4.22856 2.11 4.22856 2.32C4.23856 2.58 4.17856 2.76 4.13856 2.84C4.08856 2.95 3.89856 3.28 3.61856 3.4C3.38856 3.5 3.11856 3.55 2.82856 3.55C2.81856 3.55 2.80856 3.55 2.78856 3.55C2.77856 3.55 2.76856 3.55 2.76856 3.55C2.75856 3.55 2.75856 3.55 2.74856 3.55C2.67856 3.55 2.63856 3.56 2.61856 3.56C2.59856 3.55 2.58856 3.55 2.56856 3.55ZM2.33856 3.36C2.33856 3.36 2.35856 3.37 2.36856 3.38C2.37856 3.39 2.37856 3.4 2.38856 3.41C2.38856 3.42 2.39856 3.42 2.40856 3.43C2.40856 3.43 2.40856 3.43 2.41856 3.43C2.43856 3.44 2.45856 3.45 2.47856 3.46C2.49856 3.47 2.50856 3.48 2.51856 3.51C2.51856 3.52 2.53856 3.53 2.56856 3.53C2.58856 3.53 2.60856 3.53 2.60856 3.53C2.62856 3.53 2.65856 3.52 2.73856 3.52C2.73856 3.52 2.74856 3.52 2.75856 3.52C2.76856 3.52 2.76856 3.52 2.77856 3.52C2.78856 3.52 2.79856 3.52 2.81856 3.52C3.10856 3.52 3.36856 3.47 3.59856 3.37C3.71856 3.32 3.83856 3.22 3.94856 3.08C4.03856 2.97 4.09856 2.86 4.10856 2.82C4.14856 2.74 4.20856 2.56 4.19856 2.3C4.18856 2.1 4.09856 1.9 4.04856 1.8C4.03856 1.77 4.02856 1.75 4.01856 1.73C3.99856 1.66 3.98856 1.51 4.00856 1.4C4.02856 1.3 4.08856 1.19 4.14856 1.12L4.13856 1.11L4.12856 1.1L4.11856 1.09C4.10856 1.08 4.10856 1.08 4.09856 1.07C4.08856 1.06 4.08856 1.06 4.07856 1.05C4.06856 1.04 4.05856 1.04 4.04856 1.03C4.03856 1.03 4.02856 1.02 4.02856 1.02L4.01856 1.01C3.90856 1.15 3.79856 1.2 3.62856 1.26C3.54856 1.29 3.44856 1.29 3.31856 1.29C3.17856 1.29 3.01856 1.29 2.85856 1.34C2.66856 1.4 2.37856 1.57 2.19856 1.85C1.96856 2.23 2.00856 2.46 2.05856 2.74C2.06856 2.79 2.07856 2.85 2.08856 2.9C2.09856 2.96 2.09856 3 2.09856 3.04C2.09856 3.05 2.09856 3.07 2.09856 3.08C2.09856 3.11 2.10856 3.11 2.11856 3.11C2.12856 3.11 2.12856 3.11 2.13856 3.13C2.13856 3.14 2.13856 3.15 2.13856 3.15C2.13856 3.16 2.13856 3.17 2.14856 3.17C2.14856 3.17 2.14856 3.17 2.15856 3.17C2.15856 3.17 2.16856 3.17 2.17856 3.19C2.17856 3.21 2.17856 3.21 2.17856 3.21C2.18856 3.21 2.20856 3.22 2.21856 3.24C2.22856 3.26 2.23856 3.26 2.24856 3.26C2.25856 3.26 2.25856 3.26 2.26856 3.26C2.28856 3.27 2.28856 3.28 2.29856 3.3V3.31C2.29856 3.33 2.30856 3.33 2.31856 3.33C2.31856 3.35 2.33856 3.36 2.33856 3.36Z" fill="#CCCC7F"/>
<path d="M1.45 3.52H1.38C1.38 3.52 1.38 3.56 1.4 3.56C1.41 3.56 1.44 3.56 1.44 3.57C1.44 3.58 1.46001 3.6 1.47001 3.59C1.48001 3.59 1.5 3.57 1.51 3.58C1.52001 3.59 1.53001 3.61 1.56001 3.6C1.58001 3.59 1.6 3.57 1.61 3.58C1.62 3.59 1.63001 3.6 1.64001 3.59C1.65001 3.58 1.65 3.58 1.66 3.57C1.68 3.57 1.68 3.59 1.7 3.58C1.72 3.58 1.71001 3.56 1.72001 3.56C1.73001 3.56 1.73 3.56 1.74 3.57C1.75 3.58 1.76 3.59 1.78 3.57C1.8 3.55 1.81 3.54 1.86 3.54C1.89 3.54 1.87001 3.51 1.89001 3.49C1.87001 3.5 1.45 3.52 1.45 3.52Z" fill="#3E3214"/>
<path d="M1.28001 3.43C1.28001 3.43 1.30001 3.47 1.32001 3.47C1.34001 3.47 1.35001 3.51 1.36001 3.52C1.37001 3.53 1.38001 3.53 1.40001 3.53C1.42001 3.53 1.43001 3.52 1.43001 3.53C1.44001 3.54 1.43001 3.56 1.45001 3.56C1.47001 3.56 1.47001 3.55 1.49001 3.54C1.50001 3.53 1.51001 3.53 1.51001 3.54C1.51001 3.55 1.52001 3.56 1.53001 3.57C1.54001 3.57 1.56001 3.58 1.57001 3.57C1.58001 3.56 1.59001 3.55 1.59001 3.55C1.60001 3.56 1.60001 3.57 1.62001 3.56C1.64001 3.55 1.63001 3.53 1.64001 3.54C1.65001 3.55 1.65001 3.56 1.67001 3.56C1.69001 3.56 1.71001 3.55 1.71001 3.54C1.71001 3.54 1.72001 3.52 1.73001 3.54C1.74001 3.55 1.75001 3.56 1.77001 3.56C1.78001 3.56 1.79001 3.54 1.80001 3.54C1.82001 3.53 1.82001 3.54 1.84001 3.54C1.86001 3.53 1.85001 3.52 1.87001 3.52C1.89001 3.52 1.90001 3.52 1.90001 3.5C1.91001 3.48 1.91001 3.47 1.92001 3.45C1.93001 3.43 1.78001 3.35 1.78001 3.35C1.77001 3.36 1.28001 3.43 1.28001 3.43Z" fill="#84592A"/>
<path d="M1.62001 3.52C1.63001 3.49 1.66001 3.5 1.66001 3.51C1.67001 3.54 1.69001 3.53 1.70001 3.52C1.70001 3.51 1.71001 3.51 1.72001 3.51C1.74001 3.51 1.74001 3.53 1.75001 3.54C1.76001 3.54 1.77001 3.54 1.78001 3.53C1.79001 3.52 1.79001 3.51 1.80001 3.51C1.81001 3.51 1.81001 3.51 1.83001 3.52C1.85001 3.52 1.86001 3.51 1.86001 3.5C1.86001 3.49 1.87001 3.46 1.90001 3.48C1.91001 3.48 1.92001 3.47 1.93001 3.45C1.94001 3.43 1.97001 3.4 1.99001 3.39C2.00001 3.38 2.15001 3.27 2.19001 3.24C2.24001 3.21 2.48001 3.05 2.59001 2.73C2.72001 2.38 2.64001 2.02 2.57001 1.82C2.44001 1.37 2.09001 1.2 1.93001 1.13C1.77001 1.06 1.73001 0.990001 1.71001 0.970001C1.70001 0.940001 1.66001 0.840002 1.64001 0.760002C1.62001 0.680002 1.59001 0.540001 1.57001 0.500001C1.55001 0.470001 1.51001 0.410001 1.50001 0.410001C1.49001 0.400001 1.47001 0.400002 1.46001 0.400002C1.45001 0.410002 1.43001 0.400002 1.43001 0.400002C1.43001 0.400002 1.42001 0.400001 1.42001 0.410001C1.42001 0.420001 1.41001 0.420002 1.41001 0.420002C1.40001 0.420002 1.39001 0.430001 1.40001 0.430001C1.40001 0.440001 1.44001 0.480001 1.45001 0.520001C1.46001 0.560001 1.46001 0.660001 1.46001 0.740001C1.44001 0.940001 1.39001 1.05 1.29001 1.11C0.990009 1.27 0.860009 1.39 0.800009 1.46C0.450009 1.85 0.460009 2.35 0.510009 2.59C0.610009 3.11 1.12001 3.32 1.20001 3.39C1.23001 3.42 1.26001 3.45 1.30001 3.47C1.31001 3.48 1.33001 3.43 1.36001 3.45C1.39001 3.47 1.37001 3.49 1.40001 3.51C1.41001 3.52 1.43001 3.52 1.44001 3.51C1.45001 3.5 1.46001 3.5 1.47001 3.5C1.50001 3.5 1.50001 3.55 1.51001 3.55C1.53001 3.55 1.54001 3.53 1.55001 3.53C1.55001 3.52 1.57001 3.51 1.58001 3.54C1.60001 3.55 1.61001 3.53 1.62001 3.52Z" fill="#EB7921"/>
<path d="M0.990011 1.29C0.890011 1.36 0.830012 1.42 0.790012 1.46C0.450012 1.85 0.460012 2.35 0.510012 2.59C0.610012 3.11 1.11001 3.31 1.20001 3.39C1.23001 3.41 1.29001 3.47 1.30001 3.47C1.32001 3.47 1.33001 3.43 1.36001 3.46C1.39001 3.48 1.37001 3.5 1.40001 3.52C1.41001 3.53 1.43001 3.53 1.44001 3.52C1.45001 3.51 1.46001 3.51 1.47001 3.51C1.50001 3.51 1.50001 3.56 1.51001 3.56C1.53001 3.56 1.54001 3.54 1.55001 3.54C1.55001 3.53 1.57001 3.52 1.58001 3.55C1.59001 3.57 1.60001 3.55 1.61001 3.55C1.62001 3.52 1.65001 3.53 1.65001 3.54C1.66001 3.57 1.68001 3.56 1.69001 3.55C1.69001 3.54 1.70001 3.54 1.71001 3.54C1.73001 3.54 1.73001 3.56 1.74001 3.57C1.75001 3.57 1.76001 3.57 1.77001 3.56C1.78001 3.55 1.78001 3.54 1.79001 3.54C1.80001 3.54 1.80001 3.54 1.82001 3.55C1.84001 3.55 1.85001 3.54 1.85001 3.53C1.85001 3.52 1.86001 3.49 1.89001 3.51C1.90001 3.51 1.91001 3.5 1.92001 3.48C1.93001 3.46 1.96001 3.43 1.98001 3.42C1.99001 3.41 2.14001 3.3 2.18001 3.27C2.19001 3.26 2.39001 3.13 2.51001 2.92C1.28001 3.66 0.250011 2.15 0.990011 1.29Z" fill="#DD651C"/>
<path d="M1.53001 3.55C1.52001 3.55 1.52001 3.55 1.53001 3.55C1.52001 3.55 1.51001 3.54 1.51001 3.53C1.51001 3.52 1.50001 3.5 1.48001 3.5C1.48001 3.5 1.48001 3.5 1.47001 3.5C1.46001 3.5 1.45001 3.5 1.45001 3.51C1.44001 3.51 1.43001 3.52 1.43001 3.52C1.42001 3.52 1.41001 3.52 1.41001 3.51C1.40001 3.5 1.40001 3.49 1.39001 3.49C1.39001 3.48 1.38001 3.47 1.37001 3.46L1.36001 3.45C1.35001 3.45 1.34001 3.46 1.34001 3.46C1.33001 3.47 1.33001 3.47 1.32001 3.47C1.32001 3.47 1.32001 3.47 1.31001 3.47C1.28001 3.45 1.25001 3.43 1.23001 3.4C1.22001 3.4 1.22001 3.39 1.21001 3.38C1.20001 3.37 1.17001 3.35 1.13001 3.33C0.960009 3.22 0.600009 3 0.510009 2.58C0.490009 2.49 0.470009 2.3 0.500009 2.08C0.540009 1.84 0.640009 1.63 0.790009 1.46C0.900009 1.34 1.07001 1.22 1.29001 1.1C1.38001 1.05 1.43001 0.940002 1.45001 0.760002C1.46001 0.670002 1.45001 0.570001 1.44001 0.540001C1.43001 0.520001 1.42001 0.490001 1.39001 0.450001V0.440001C1.39001 0.430001 1.40001 0.430001 1.41001 0.430001C1.41001 0.430001 1.42001 0.430002 1.42001 0.420002C1.42001 0.420002 1.42001 0.420001 1.42001 0.410001L1.43001 0.400002C1.43001 0.400002 1.43001 0.400002 1.44001 0.400002C1.45001 0.400002 1.46001 0.400002 1.46001 0.400002C1.46001 0.400002 1.47001 0.400002 1.48001 0.400002C1.49001 0.400002 1.50001 0.400001 1.50001 0.410001C1.51001 0.420001 1.55001 0.470002 1.57001 0.510002C1.59001 0.550002 1.63001 0.690001 1.65001 0.770001C1.67001 0.850001 1.71001 0.940001 1.72001 0.970001C1.74001 1 1.80001 1.06 1.94001 1.12C2.02001 1.16 2.15001 1.22 2.27001 1.32C2.42001 1.45 2.53001 1.61 2.59001 1.8C2.66001 2.05 2.72001 2.39 2.60001 2.73C2.50001 3 2.30001 3.16 2.20001 3.23C2.15001 3.26 2.01001 3.37 2.00001 3.38L1.99001 3.39C1.97001 3.41 1.95001 3.43 1.94001 3.44C1.92001 3.46 1.91001 3.47 1.90001 3.47C1.89001 3.47 1.89001 3.47 1.88001 3.47C1.86001 3.47 1.86001 3.49 1.85001 3.5C1.85001 3.51 1.83001 3.52 1.82001 3.52C1.81001 3.52 1.81001 3.52 1.80001 3.52H1.79001C1.79001 3.52 1.78001 3.52 1.78001 3.53C1.78001 3.53 1.78001 3.54 1.77001 3.54C1.76001 3.55 1.75001 3.55 1.75001 3.55H1.74001C1.73001 3.55 1.73001 3.54 1.73001 3.53C1.73001 3.52 1.72001 3.52 1.71001 3.52C1.70001 3.52 1.69001 3.52 1.69001 3.53C1.69001 3.54 1.68001 3.55 1.67001 3.55C1.66001 3.55 1.65001 3.55 1.65001 3.53C1.65001 3.53 1.64001 3.52 1.63001 3.52C1.62001 3.52 1.62001 3.52 1.61001 3.54C1.61001 3.54 1.60001 3.55 1.59001 3.55C1.59001 3.55 1.58001 3.55 1.58001 3.54C1.57001 3.53 1.57001 3.52 1.56001 3.52C1.55001 3.52 1.55001 3.53 1.55001 3.53C1.56001 3.53 1.55001 3.55 1.53001 3.55ZM1.47001 3.49C1.47001 3.49 1.48001 3.49 1.47001 3.49C1.50001 3.49 1.50001 3.51 1.51001 3.52C1.51001 3.53 1.52001 3.54 1.52001 3.54C1.54001 3.54 1.55001 3.52 1.55001 3.52C1.55001 3.51 1.56001 3.51 1.57001 3.51C1.58001 3.51 1.59001 3.52 1.59001 3.53C1.59001 3.53 1.59001 3.54 1.60001 3.54C1.61001 3.54 1.61001 3.53 1.61001 3.53C1.61001 3.52 1.62001 3.51 1.64001 3.51C1.65001 3.51 1.66001 3.52 1.66001 3.52C1.66001 3.53 1.67001 3.54 1.67001 3.54C1.68001 3.54 1.68001 3.53 1.69001 3.53C1.69001 3.52 1.70001 3.52 1.71001 3.52C1.72001 3.52 1.73001 3.53 1.73001 3.54C1.73001 3.55 1.74001 3.55 1.74001 3.55C1.75001 3.55 1.76001 3.55 1.77001 3.54C1.77001 3.54 1.77001 3.53 1.78001 3.53C1.78001 3.52 1.79001 3.52 1.80001 3.52H1.81001C1.81001 3.52 1.82001 3.52 1.83001 3.52C1.84001 3.52 1.85001 3.51 1.86001 3.51C1.86001 3.51 1.86001 3.48 1.89001 3.48C1.90001 3.48 1.90001 3.48 1.91001 3.48C1.91001 3.48 1.92001 3.48 1.94001 3.45C1.95001 3.44 1.97001 3.41 1.99001 3.4L2.00001 3.39C2.01001 3.38 2.16001 3.27 2.20001 3.24C2.31001 3.17 2.50001 3.01 2.60001 2.74C2.72001 2.41 2.66001 2.06 2.58001 1.83C2.43001 1.35 2.05001 1.19 1.93001 1.13C1.79001 1.07 1.73001 1 1.71001 0.970001C1.70001 0.940001 1.66001 0.850002 1.64001 0.760002C1.62001 0.690002 1.58001 0.540002 1.56001 0.510002C1.55001 0.470002 1.51001 0.410001 1.50001 0.410001C1.50001 0.410001 1.49001 0.400002 1.48001 0.400002C1.47001 0.400002 1.47001 0.400002 1.47001 0.400002C1.46001 0.400002 1.45001 0.400002 1.45001 0.400002C1.45001 0.400002 1.45001 0.400002 1.44001 0.400002H1.43001V0.410001C1.43001 0.410001 1.42001 0.420002 1.41001 0.420002C1.41001 0.420002 1.40001 0.420001 1.40001 0.430001C1.42001 0.470001 1.44001 0.500001 1.45001 0.520001C1.46001 0.560001 1.46001 0.660001 1.46001 0.750001C1.44001 0.950001 1.39001 1.06 1.29001 1.11C1.07001 1.23 0.900009 1.35 0.800009 1.46C0.410009 1.89 0.480009 2.43 0.520009 2.59C0.610009 3.01 0.960009 3.23 1.13001 3.34C1.17001 3.36 1.19001 3.38 1.21001 3.39C1.22001 3.4 1.22001 3.4 1.23001 3.41C1.26001 3.43 1.28001 3.46 1.31001 3.47C1.31001 3.47 1.32001 3.47 1.33001 3.46C1.34001 3.45 1.35001 3.45 1.36001 3.45C1.37001 3.45 1.37001 3.45 1.38001 3.46C1.40001 3.47 1.40001 3.49 1.40001 3.5C1.40001 3.51 1.40001 3.51 1.41001 3.52C1.42001 3.52 1.42001 3.53 1.43001 3.53C1.44001 3.53 1.44001 3.53 1.45001 3.52C1.45001 3.5 1.46001 3.49 1.47001 3.49Z" fill="#84592A"/>
<path d="M2.34001 1.55C2.58001 1.91 2.54001 2.37 2.25001 2.56C1.96001 2.76 1.53001 2.62 1.28001 2.26C1.04001 1.9 1.08001 1.44 1.37001 1.25C1.66001 1.05 2.09001 1.19 2.34001 1.55Z" fill="#ED8B35"/>
<path d="M2.21001 1.54C2.35001 1.75 2.33001 2.01 2.16001 2.12C1.99001 2.24 1.74001 2.16 1.60001 1.95C1.46001 1.74 1.48001 1.48 1.65001 1.37C1.82001 1.25 2.07001 1.33 2.21001 1.54Z" fill="#F39B48"/>
<path d="M1.36 3.45C1.36 3.45 1.33 3.41 1.29 3.37C1.24 3.33 1.1 3.18 1.01 3.03C0.920005 2.88 0.840004 2.42 0.930004 1.94C0.970004 1.7 1.12 1.45 1.2 1.32C1.25 1.24 1.3 1.18 1.37 1.13C1.41 1.1 1.43 1.09 1.44 1.09C1.45 1.09 1.45 1.09 1.45 1.08C1.47 1.06 1.48 1.03 1.5 0.990001C1.52 0.940001 1.53 0.810001 1.52 0.750001C1.52 0.570001 1.46 0.410002 1.46 0.400002C1.46 0.400002 1.52 0.560001 1.52 0.750001C1.53 0.820001 1.52 0.950001 1.5 1C1.49 1.03 1.47 1.06 1.45 1.08C1.45 1.09 1.44 1.09 1.43 1.09C1.43 1.1 1.41 1.1 1.37 1.14C1.31 1.18 1.25 1.24 1.2 1.33C1.12 1.46 0.980004 1.71 0.930004 1.94C0.840004 2.42 0.920005 2.88 1.01 3.02C1.1 3.17 1.24 3.32 1.29 3.36C1.33 3.4 1.36 3.45 1.36 3.45Z" fill="#84592A"/>
<path d="M1.48001 3.51C1.48001 3.51 1.38001 3.38 1.35001 3.33C1.32001 3.28 1.27001 3.17 1.25001 3.09C1.17001 2.83 1.17001 2.63 1.17001 2.37C1.17001 2.34 1.17001 2.31 1.17001 2.28C1.17001 1.85 1.36001 1.36 1.36001 1.36C1.39001 1.31 1.39001 1.27 1.40001 1.24C1.40001 1.22 1.41001 1.21 1.41001 1.21C1.41001 1.2 1.43001 1.18 1.45001 1.16C1.46001 1.15 1.47001 1.13 1.48001 1.12C1.48001 1.11 1.49001 1.1 1.50001 1.1C1.51001 1.08 1.53001 1.07 1.54001 1.04C1.54001 1 1.55001 0.890001 1.55001 0.870001C1.55001 0.640001 1.47001 0.400002 1.47001 0.400002C1.47001 0.400002 1.55001 0.640001 1.55001 0.870001C1.55001 0.890001 1.54001 1 1.53001 1.04C1.53001 1.06 1.52001 1.08 1.50001 1.1C1.49001 1.11 1.48001 1.12 1.48001 1.12C1.47001 1.13 1.46001 1.15 1.45001 1.16C1.44001 1.18 1.42001 1.2 1.41001 1.21C1.41001 1.22 1.40001 1.23 1.40001 1.24C1.40001 1.27 1.39001 1.31 1.37001 1.36C1.37001 1.36 1.17001 1.85 1.18001 2.28C1.18001 2.31 1.18001 2.34 1.18001 2.37C1.18001 2.62 1.18001 2.82 1.26001 3.09C1.28001 3.17 1.33001 3.28 1.36001 3.33C1.39001 3.37 1.48001 3.5 1.48001 3.51C1.48001 3.5 1.48001 3.5 1.48001 3.51Z" fill="#84592A"/>
<path d="M1.57001 3.52C1.57001 3.52 1.52002 3.42 1.51002 3.33C1.50002 3.26 1.50002 3.04 1.50002 2.86C1.50002 2.82 1.50002 2.78 1.50002 2.75C1.50002 2.56 1.50002 2.37 1.52002 2.21C1.52002 2.09 1.54002 1.9 1.54002 1.75C1.54002 1.69 1.55002 1.63 1.55002 1.59C1.56002 1.5 1.57001 1.46 1.57001 1.42C1.57001 1.4 1.58002 1.37 1.58002 1.34C1.59002 1.24 1.59002 1.14 1.59002 1.05C1.59002 0.980001 1.58001 0.910001 1.57001 0.840001C1.57001 0.810001 1.56002 0.77 1.56002 0.74C1.55002 0.57 1.50002 0.43 1.50002 0.43C1.50002 0.43 1.55001 0.57 1.57001 0.73C1.57001 0.76 1.58002 0.8 1.58002 0.83C1.59002 0.9 1.60002 0.970001 1.60002 1.05C1.60002 1.14 1.60002 1.24 1.59002 1.34C1.59002 1.37 1.58002 1.4 1.58002 1.42C1.58002 1.46 1.57002 1.5 1.56002 1.59C1.56002 1.63 1.55002 1.69 1.55002 1.75C1.54002 1.9 1.53002 2.09 1.52002 2.21C1.51002 2.38 1.50002 2.57 1.51002 2.75C1.51002 2.78 1.51002 2.82 1.51002 2.86C1.51002 3.04 1.51002 3.26 1.52002 3.33C1.53002 3.42 1.57001 3.52 1.57001 3.52Z" fill="#84592A"/>
<path d="M1.64001 3.51C1.64001 3.48 1.65001 3.43 1.67001 3.35C1.69001 3.28 1.72001 3.18 1.74001 3.08C1.77001 2.95 1.77001 2.81 1.78001 2.65C1.78001 2.56 1.79001 2.46 1.80001 2.35C1.82001 2.04 1.81001 1.73 1.80001 1.54C1.80001 1.39 1.77001 1.29 1.76001 1.24C1.76001 1.23 1.75001 1.22 1.75001 1.21C1.75001 1.19 1.73001 1.17 1.72001 1.16C1.72001 1.15 1.71001 1.15 1.71001 1.15C1.71001 1.14 1.70001 1.12 1.69001 1.09C1.69001 1.08 1.68001 1.07 1.67001 1.06C1.66001 1.06 1.66001 1.06 1.66001 1.05C1.66001 1.04 1.65001 1.03 1.65001 1.02C1.65001 1 1.64001 0.980001 1.63001 0.970001C1.62001 0.950001 1.61001 0.890002 1.60001 0.840002C1.60001 0.830002 1.60001 0.820002 1.60001 0.820002C1.60001 0.810002 1.59001 0.780001 1.59001 0.750001C1.57001 0.660001 1.54001 0.520001 1.53001 0.470001C1.55001 0.530001 1.57001 0.660001 1.59001 0.750001C1.60001 0.780001 1.60001 0.800002 1.60001 0.820002C1.60001 0.830002 1.60001 0.840002 1.60001 0.840002C1.61001 0.890002 1.62001 0.940001 1.63001 0.960001C1.64001 0.980001 1.65001 1 1.65001 1.02C1.65001 1.03 1.66001 1.04 1.66001 1.05C1.66001 1.05 1.67001 1.06 1.67001 1.07C1.68001 1.07 1.69001 1.08 1.70001 1.09C1.70001 1.11 1.71001 1.14 1.72001 1.15C1.72001 1.15 1.72001 1.16 1.73001 1.16C1.74001 1.17 1.75001 1.19 1.76001 1.21C1.76001 1.21 1.76001 1.22 1.77001 1.23C1.78001 1.28 1.81001 1.38 1.82001 1.53C1.83001 1.72 1.84001 2.04 1.82001 2.34C1.80001 2.46 1.80001 2.56 1.79001 2.65C1.78001 2.81 1.78001 2.96 1.75001 3.09C1.73001 3.19 1.70001 3.28 1.68001 3.36C1.66001 3.43 1.65001 3.48 1.64001 3.51Z" fill="#84592A"/>
<path d="M1.34001 3.47C1.33001 3.47 1.33001 3.47 1.34001 3.47C1.34001 3.47 1.33001 3.44 1.30001 3.42C1.30001 3.42 1.29001 3.41 1.27001 3.4C1.18001 3.34 0.920011 3.17 0.780011 2.96C0.680011 2.83 0.650011 2.72 0.630011 2.45C0.610011 2.15 0.680011 1.91 0.740011 1.76C0.810011 1.58 0.930011 1.35 1.22001 1.16C1.25001 1.14 1.28001 1.13 1.31001 1.12C1.34001 1.11 1.37001 1.1 1.39001 1.08C1.39001 1.08 1.47001 0.999999 1.49001 0.819999C1.50001 0.679999 1.49001 0.549999 1.46001 0.459999C1.49001 0.549999 1.50001 0.679999 1.49001 0.819999C1.47001 0.999999 1.39001 1.09 1.39001 1.09C1.37001 1.1 1.34001 1.11 1.31001 1.12C1.28001 1.14 1.24001 1.15 1.22001 1.16C0.930011 1.35 0.820011 1.58 0.750011 1.76C0.690011 1.91 0.620011 2.15 0.650011 2.44C0.670011 2.71 0.690011 2.82 0.780011 2.95C0.930011 3.15 1.19001 3.33 1.27001 3.39C1.28001 3.4 1.29001 3.41 1.30001 3.41C1.33001 3.44 1.34001 3.46 1.34001 3.47Z" fill="#84592A"/>
<path d="M1.28001 1.13C1.28001 1.12 1.32001 1.1 1.35001 1.07C1.38001 1.05 1.38001 1.05 1.40001 1.01C1.40001 1 1.41001 0.99 1.42001 0.97C1.46001 0.89 1.46001 0.830001 1.47001 0.710001C1.47001 0.520001 1.41001 0.44 1.41001 0.43C1.41001 0.43 1.47001 0.520001 1.47001 0.710001C1.47001 0.830001 1.46001 0.9 1.42001 0.97C1.41001 0.99 1.41001 1 1.40001 1.02C1.39001 1.05 1.38001 1.06 1.36001 1.08C1.32001 1.11 1.28001 1.13 1.28001 1.13Z" fill="#84592A"/>
<path d="M1.72002 3.52C1.72002 3.51 1.81002 3.36 1.88002 3.24C2.08002 2.86 2.07002 2.4 2.07002 2.12C2.07002 2.09 2.07002 2.06 2.07002 2.04C2.07002 1.79 2.04002 1.59 2.01002 1.48C1.99002 1.4 1.96002 1.33 1.93002 1.27C1.93002 1.26 1.92002 1.25 1.92002 1.24C1.91002 1.21 1.86002 1.17 1.80002 1.13C1.74002 1.08 1.68002 1.03 1.67002 0.990002C1.67002 0.990002 1.67002 0.980002 1.66002 0.970002C1.65002 0.940002 1.62002 0.860002 1.60002 0.730002C1.58002 0.580002 1.55002 0.510002 1.55002 0.510002C1.55002 0.510002 1.57002 0.580002 1.60002 0.730002C1.62002 0.860002 1.65002 0.940002 1.66002 0.970002C1.66002 0.980002 1.66002 0.980002 1.67002 0.990002C1.68002 1.03 1.74002 1.08 1.80002 1.13C1.85002 1.17 1.90002 1.21 1.92002 1.25C1.92002 1.26 1.93002 1.27 1.93002 1.28C1.95002 1.33 1.98002 1.41 2.01002 1.48C2.04002 1.59 2.07002 1.79 2.07002 2.04C2.07002 2.07 2.07002 2.09 2.07002 2.12C2.07002 2.4 2.08002 2.86 1.88002 3.24C1.82002 3.37 1.72002 3.52 1.72002 3.52Z" fill="#84592A"/>
<path d="M1.79001 3.52C1.79001 3.51 1.79001 3.51 1.79001 3.52C1.79001 3.51 1.85001 3.45 1.99001 3.28C2.13001 3.12 2.15001 3.08 2.24001 2.79C2.32001 2.55 2.31001 2.35 2.30001 2.16C2.30001 2.13 2.30001 2.09 2.30001 2.06C2.30001 1.82 2.22001 1.54 2.16001 1.41C2.11001 1.29 2.02001 1.23 1.97001 1.19C1.96001 1.18 1.95001 1.18 1.95001 1.17L1.94001 1.16C1.91001 1.14 1.88001 1.11 1.86001 1.11C1.84001 1.11 1.83001 1.1 1.79001 1.07C1.78001 1.06 1.77001 1.05 1.76001 1.05C1.75001 1.04 1.74001 1.04 1.73001 1.03C1.71001 1.01 1.66001 0.900001 1.64001 0.830001C1.62001 0.770001 1.60001 0.650002 1.60001 0.650002C1.60001 0.650002 1.62001 0.770001 1.64001 0.830001C1.67001 0.900001 1.72001 1 1.74001 1.02C1.75001 1.03 1.76001 1.03 1.77001 1.04C1.78001 1.04 1.79001 1.05 1.81001 1.06C1.83001 1.09 1.84001 1.1 1.86001 1.1C1.88001 1.1 1.91001 1.13 1.94001 1.15L1.95001 1.16C1.96001 1.16 1.96001 1.17 1.97001 1.18C2.02001 1.22 2.11001 1.28 2.16001 1.4C2.22001 1.53 2.30001 1.82 2.31001 2.05C2.31001 2.08 2.31001 2.12 2.31001 2.15C2.32001 2.34 2.32001 2.54 2.25001 2.78C2.16001 3.08 2.13001 3.12 2.00001 3.28C1.86001 3.45 1.80001 3.52 1.79001 3.52C1.80001 3.52 1.79001 3.52 1.79001 3.52Z" fill="#84592A"/>
<path d="M1.88 3.48C1.88 3.47 1.91 3.42 1.94 3.39C1.96 3.37 1.98 3.36 2 3.34C2.02 3.32 2.04001 3.31 2.06001 3.29C2.07001 3.28 2.07 3.28 2.08 3.27C2.13 3.23 2.24 3.14 2.32 3.02C2.45 2.82 2.52 2.51 2.5 2.18C2.49 1.87 2.40001 1.57 2.27001 1.39C2.17001 1.27 1.98 1.15 1.98 1.15C1.98 1.15 2.18001 1.27 2.27001 1.39C2.40001 1.57 2.49001 1.86 2.51 2.18C2.53 2.51 2.46 2.82 2.33 3.03C2.25 3.15 2.14 3.24 2.09 3.28C2.08 3.29 2.07 3.29 2.07 3.3C2.05 3.32 2.03 3.33 2.01 3.35C1.99001 3.37 1.97 3.38 1.95 3.4C1.92 3.43 1.89 3.48 1.88 3.48Z" fill="#84592A"/>
</svg>
