<svg width="5" height="6" viewBox="0 0 5 6" fill="none" xmlns="http://www.w3.org/2000/svg">
<path fill-rule="evenodd" clip-rule="evenodd" d="M2.76 5.39C2.76 5.39 2.77 5.33 2.68 5.1C2.58 4.88 2.56 4.6 2.55 4.52C2.52 4.32 2.44 4.04 2.38 3.83C2.37 3.77 2.41 3.55 2.41 3.29C2.41 3.03 2.37 2.99 2.37 2.68C2.38 2.37 2.46 2.15 2.4 1.82C2.34 1.49 2.24 1.2 2.18 1.04C2.12 0.889999 2.13 0.629998 2.13 0.569998C2.13 0.509998 1.93 0.649998 1.93 0.649998C1.93 0.649998 1.78 1.29 1.77 1.37C1.76 1.45 1.68 1.96 1.69 2.27C1.69 2.58 1.7 2.71 1.71 2.77C1.72 2.82 1.69 3.1 1.7 3.23C1.71 3.4 1.74 3.62 1.75 3.74C1.76 3.86 1.78 4.26 1.83 4.4C1.88 4.54 2.02 4.82 2.27 5.04C2.51 5.26 2.61 5.35 2.65 5.4C2.69 5.45 2.7 5.45 2.73 5.45C2.75 5.43 2.76 5.39 2.76 5.39Z" fill="#7DA821"/>
<path fill-rule="evenodd" clip-rule="evenodd" d="M2.59 4.76C2.41 4.78 2.15 4.64 2.08 4.48C1.94 4.12 1.99 3.92 1.96 3.85C1.93 3.74 1.83 3.64 1.83 3.3C1.82 3.05 1.91 2.84 1.89 2.73C1.85 2.56 1.81 2.36 1.8 2.15C1.79 1.92 1.89 1.36 2.25 1.22C2.23 1.12 2.1 0.869999 2.15 0.669999C2.07 0.609999 1.9 0.589999 1.88 0.839999C1.86 0.979999 1.79 1.22 1.77 1.36C1.76 1.44 1.68 1.95 1.69 2.26C1.69 2.57 1.7 2.7 1.71 2.76C1.72 2.81 1.69 3.09 1.7 3.22C1.71 3.39 1.74 3.61 1.75 3.73C1.76 3.85 1.78 4.25 1.83 4.39C1.88 4.53 2.02 4.81 2.27 5.03C2.51 5.25 2.61 5.34 2.65 5.39C2.69 5.44 2.7 5.44 2.73 5.44C2.76 5.44 2.77 5.39 2.77 5.39C2.77 5.39 2.78 5.33 2.69 5.1C2.63 4.99 2.6 4.87 2.59 4.76Z" fill="#6C9115"/>
<path d="M2.70999 5.43999C2.68999 5.43999 2.67999 5.43 2.63999 5.39C2.57999 5.32 2.44999 5.2 2.25999 5.02999C2.03999 4.83 1.88999 4.57 1.81999 4.39C1.76999 4.25 1.74999 3.88 1.73999 3.74V3.72C1.73999 3.65 1.72999 3.56 1.71999 3.45C1.70999 3.37 1.69999 3.28 1.69999 3.2C1.68999 3.12 1.69999 3 1.69999 2.9C1.69999 2.82 1.70999 2.76 1.69999 2.74C1.68999 2.69 1.67999 2.56 1.67999 2.24C1.67999 1.93 1.74999 1.42 1.75999 1.34C1.76999 1.26 1.91999 0.619997 1.91999 0.619997C1.92999 0.619997 2.05999 0.519997 2.10999 0.519997C2.11999 0.519997 2.12999 0.529997 2.12999 0.539997C2.12999 0.539997 2.12999 0.549996 2.12999 0.559996C2.12999 0.639996 2.12999 0.869996 2.17999 1.01C2.22999 1.16 2.33999 1.45 2.39999 1.79C2.43999 2 2.41999 2.16999 2.39999 2.34999C2.38999 2.44999 2.37999 2.55 2.36999 2.66C2.36999 2.83 2.37999 2.91999 2.38999 3.00999C2.39999 3.07999 2.40999 3.16 2.40999 3.27999C2.40999 3.42 2.39999 3.55 2.38999 3.65C2.37999 3.73 2.37999 3.8 2.37999 3.82C2.38999 3.87 2.40999 3.93 2.42999 3.99C2.47999 4.16 2.52999 4.35999 2.54999 4.50999C2.54999 4.51999 2.54999 4.54 2.55999 4.57C2.56999 4.69 2.59999 4.91 2.67999 5.09C2.77999 5.31 2.75999 5.38 2.75999 5.38C2.75999 5.38 2.74999 5.43 2.70999 5.43C2.71999 5.44 2.70999 5.43999 2.70999 5.43999ZM1.93999 0.639996C1.92999 0.689996 1.78999 1.28 1.77999 1.36C1.76999 1.44 1.68999 1.94999 1.69999 2.25999C1.69999 2.57999 1.70999 2.70999 1.71999 2.75999C1.71999 2.77999 1.71999 2.85 1.71999 2.93C1.71999 3.03 1.70999 3.15 1.71999 3.23C1.72999 3.31 1.72999 3.39 1.73999 3.47C1.74999 3.57 1.75999 3.67 1.75999 3.74V3.75999C1.76999 3.89999 1.78999 4.27 1.83999 4.41C1.90999 4.59 2.04999 4.85 2.26999 5.04C2.45999 5.21 2.58999 5.33 2.64999 5.4C2.68999 5.44 2.68999 5.43999 2.70999 5.43999H2.71999C2.74999 5.43999 2.74999 5.4 2.74999 5.4C2.74999 5.4 2.75999 5.33 2.66999 5.12C2.58999 4.94 2.55999 4.71 2.54999 4.59C2.54999 4.57 2.53999 4.54999 2.53999 4.52999C2.51999 4.37999 2.45999 4.17999 2.41999 4.00999C2.39999 3.94999 2.38999 3.89 2.36999 3.84C2.35999 3.81 2.36999 3.75 2.37999 3.66C2.38999 3.56 2.39999 3.43 2.39999 3.3C2.39999 3.18 2.38999 3.10999 2.37999 3.02999C2.36999 2.94 2.35999 2.85 2.35999 2.68C2.35999 2.57 2.37999 2.47 2.38999 2.37C2.40999 2.19 2.42999 2.03 2.38999 1.82C2.31999 1.48 2.21999 1.19 2.16999 1.04C2.11999 0.899997 2.11999 0.669996 2.11999 0.589996C2.11999 0.579996 2.11999 0.579996 2.11999 0.569996C2.11999 0.569996 2.11999 0.559996 2.10999 0.559996C2.07999 0.549996 1.97999 0.619996 1.93999 0.639996Z" fill="#658710"/>
<path fill-rule="evenodd" clip-rule="evenodd" d="M2.5 1.16C2.5 1.16 2.4 1.09 2.35 0.98C2.31 0.87 2.32 0.79 2.28 0.74C2.24 0.69 2.21 0.680001 2.18 0.620001C2.15 0.560001 2.13 0.459999 2.13 0.459999H1.96L1.91 0.5C1.91 0.5 1.87 0.669999 1.83 0.719999C1.7 0.869999 1.68 1 1.67 1.03C1.66 1.06 1.67 1.09 1.67 1.12C1.66 1.19 1.64 1.26 1.64 1.26C1.64 1.26 1.7 1.21 1.75 1.07C1.76 1.03 1.8 0.96 1.84 0.92C1.94 0.83 1.93 0.719999 1.93 0.719999C1.93 0.719999 1.93 0.749999 1.93 0.799999C1.93 0.839999 1.89 0.9 1.93 0.98C1.97 1.07 2.01 1.1 2.02 1.17C2.03 1.23 2.05 1.25 2.07 1.28C2.05 1.18 2.08 1.08 2.08 0.969999C2.08 0.919999 2.07 0.810001 2.08 0.780001C2.08 0.750001 2.09 0.730001 2.1 0.700001C2.1 0.800001 2.14 0.829999 2.15 0.879999C2.17 0.959999 2.2 1.04 2.36 1.12C2.44 1.15 2.5 1.16 2.5 1.16Z" fill="#C3D381"/>
<path fill-rule="evenodd" clip-rule="evenodd" d="M2.05999 1.12C2.04999 1.11 2.04999 1.11 2.03999 1.1C2.01999 1.07 1.99999 1.05 1.98999 1.01C1.97999 0.979996 1.97999 0.949997 1.96999 0.929996C1.94999 0.869996 1.94999 0.809996 1.95999 0.749996C1.96999 0.639996 2.05999 0.569996 2.15999 0.569996C2.13999 0.519996 2.11999 0.449997 2.11999 0.449997H1.94999L1.89999 0.489996C1.89999 0.489996 1.85999 0.659995 1.81999 0.709995C1.68999 0.859995 1.66999 0.989997 1.65999 1.02C1.64999 1.05 1.65999 1.08 1.65999 1.11C1.64999 1.18 1.62999 1.25 1.62999 1.25C1.62999 1.25 1.68999 1.2 1.73999 1.06C1.74999 1.02 1.78999 0.949996 1.82999 0.909996C1.92999 0.819996 1.91999 0.709995 1.91999 0.709995C1.91999 0.709995 1.91999 0.739997 1.91999 0.789997C1.91999 0.829997 1.87999 0.889996 1.91999 0.969995C1.95999 1.06 1.99999 1.09 2.00999 1.16C2.01999 1.22 2.03999 1.24 2.05999 1.27C2.05999 1.21 2.05999 1.17 2.05999 1.12Z" fill="#AFBA6E"/>
<path d="M2.06999 1.26C2.06999 1.26 2.05999 1.26 2.06999 1.26C2.05999 1.25 2.05999 1.24 2.04999 1.24C2.03999 1.22 2.01999 1.2 2.01999 1.15C2.00999 1.11 1.99999 1.09 1.97999 1.05C1.96999 1.03 1.94999 0.999997 1.93999 0.959997C1.90999 0.899997 1.92999 0.849998 1.93999 0.819998C1.93999 0.799998 1.94999 0.789999 1.94999 0.779999C1.94999 0.769999 1.94999 0.759998 1.94999 0.749998C1.93999 0.789998 1.91999 0.849998 1.85999 0.909998C1.81999 0.949998 1.77999 1.03 1.76999 1.06C1.71999 1.2 1.66999 1.25 1.65999 1.25C1.65999 1.25 1.67999 1.18 1.68999 1.11C1.68999 1.09 1.68999 1.08 1.68999 1.07C1.68999 1.06 1.68999 1.04 1.68999 1.02C1.68999 1.02 1.68999 1.02 1.68999 1.01C1.69999 0.959998 1.71999 0.839999 1.84999 0.699999C1.89999 0.649999 1.92999 0.479998 1.92999 0.479998L1.97999 0.439999H2.14999C2.14999 0.439999 2.17999 0.549998 2.19999 0.599998C2.21999 0.629998 2.22999 0.649998 2.24999 0.669998C2.25999 0.679998 2.27999 0.699997 2.28999 0.719997C2.30999 0.749997 2.31999 0.779998 2.31999 0.829998C2.32999 0.869998 2.32999 0.909997 2.34999 0.969997C2.38999 1.08 2.48999 1.15 2.48999 1.15C2.48999 1.15 2.42999 1.14 2.35999 1.1C2.19999 1.02 2.16999 0.929999 2.14999 0.859999C2.14999 0.849999 2.13999 0.829998 2.12999 0.819998C2.10999 0.789998 2.09999 0.749999 2.08999 0.689999C2.07999 0.709999 2.07999 0.729998 2.06999 0.749998C2.06999 0.759998 2.06999 0.799998 2.06999 0.839998C2.06999 0.879998 2.06999 0.909999 2.06999 0.939999C2.06999 0.979999 2.05999 1.01 2.05999 1.05C2.06999 1.13 2.05999 1.19 2.06999 1.26ZM1.91999 0.489998C1.91999 0.509998 1.87999 0.659997 1.83999 0.709997C1.71999 0.849997 1.68999 0.969998 1.68999 1.01V1.02C1.68999 1.04 1.68999 1.05 1.68999 1.07C1.68999 1.08 1.68999 1.1 1.68999 1.11C1.67999 1.16 1.66999 1.22 1.65999 1.24C1.67999 1.22 1.71999 1.16 1.75999 1.06C1.76999 1.02 1.80999 0.939998 1.84999 0.899998C1.94999 0.809998 1.93999 0.699999 1.93999 0.699999C1.93999 0.699999 1.93999 0.729999 1.93999 0.779999C1.93999 0.789999 1.93999 0.809998 1.92999 0.819998C1.91999 0.859998 1.90999 0.899997 1.92999 0.959997C1.93999 0.999997 1.95999 1.02 1.96999 1.05C1.98999 1.08 2.00999 1.11 2.00999 1.15C2.01999 1.2 2.02999 1.22 2.03999 1.24C2.03999 1.24 2.03999 1.24 2.03999 1.25C2.02999 1.19 2.03999 1.13 2.04999 1.07C2.04999 1.04 2.05999 0.999997 2.05999 0.959997C2.05999 0.939997 2.05999 0.899999 2.05999 0.869999C2.05999 0.829999 2.05999 0.789999 2.05999 0.769999C2.06999 0.739999 2.07999 0.709999 2.07999 0.689999C2.07999 0.759999 2.09999 0.799998 2.10999 0.829998C2.11999 0.839998 2.11999 0.859999 2.12999 0.869999C2.14999 0.939999 2.17999 1.03 2.33999 1.11C2.38999 1.13 2.42999 1.15 2.45999 1.16C2.42999 1.14 2.35999 1.08 2.32999 0.989998C2.30999 0.939998 2.29999 0.889998 2.29999 0.849998C2.28999 0.809998 2.28999 0.769998 2.26999 0.749998C2.24999 0.729998 2.23999 0.719999 2.22999 0.699999C2.20999 0.679999 2.18999 0.659997 2.17999 0.629997C2.14999 0.579997 2.12999 0.489997 2.12999 0.469997H1.95999L1.91999 0.489998Z" fill="#A3AA65"/>
<path fill-rule="evenodd" clip-rule="evenodd" d="M1.97 0.519998C2.01 0.519998 2.09 0.559998 2.16 0.539998C2.2 0.529998 2.16 0.479997 2.17 0.419997C2.17 0.369997 2.14 0.319998 2.09 0.279998C1.92 0.129998 1.75 0.0799969 1.67 0.0599969C1.54 0.0299969 1.53 -0.0100021 1.52 0.0199979C1.51 0.0499979 1.5 0.0999966 1.52 0.129997C1.54 0.159997 1.58 0.149997 1.65 0.159997C1.69 0.169997 1.79 0.169998 1.86 0.199998C1.9 0.219998 1.95 0.249997 1.95 0.299997C1.95 0.349997 1.92 0.379998 1.91 0.429998C1.9 0.479998 1.91 0.509998 1.91 0.519998C1.9 0.549998 1.96 0.519998 1.97 0.519998Z" fill="#7DA821"/>
<path fill-rule="evenodd" clip-rule="evenodd" d="M2.07 0.509998C2 0.479998 1.95 0.439999 1.96 0.359999C1.96 0.319999 1.97 0.269998 1.93 0.229998C1.85 0.149998 1.72 0.139997 1.66 0.129997C1.61 0.119997 1.56 0.109998 1.53 0.0599976C1.52 0.0499976 1.52 0.0399988 1.52 0.0299988C1.51 0.0599988 1.5 0.109997 1.52 0.139997C1.54 0.169997 1.58 0.159998 1.65 0.169998C1.69 0.179998 1.79 0.179997 1.86 0.209997C1.9 0.229997 1.95 0.259998 1.95 0.309998C1.95 0.359998 1.92 0.389999 1.91 0.439999C1.9 0.489999 1.91 0.519999 1.91 0.529999C1.91 0.539999 1.97 0.519999 1.98 0.519999C2.02 0.519999 2.1 0.559999 2.17 0.539999C2.19 0.539999 2.19 0.519998 2.19 0.509998C2.14 0.519998 2.1 0.519998 2.07 0.509998Z" fill="#719718"/>
<path d="M2.12999 0.549995C2.1 0.549995 2.05999 0.539997 2.02999 0.529997C2.00999 0.519997 1.98999 0.519997 1.97999 0.519997C1.96999 0.519997 1.95999 0.519997 1.94999 0.529997C1.93999 0.529997 1.91999 0.539997 1.90999 0.539997H1.89999C1.89999 0.529997 1.88 0.509997 1.89 0.449997C1.89 0.419997 1.89999 0.399995 1.90999 0.379995C1.91999 0.359995 1.93 0.339996 1.93 0.309996C1.93 0.279996 1.9 0.249995 1.84 0.219995C1.78 0.189995 1.70999 0.179996 1.65999 0.179996C1.64999 0.179996 1.64 0.179996 1.63 0.179996C1.61 0.179996 1.58999 0.179996 1.57999 0.169996C1.53999 0.169996 1.52 0.169996 1.51 0.139996C1.49 0.109996 1.5 0.0599969 1.51 0.0299969C1.51 0.0199969 1.51999 0.0199966 1.52999 0.0199966C1.53999 0.0199966 1.54 0.0199969 1.55 0.0299969C1.57 0.0399969 1.59999 0.0599959 1.66999 0.0699959C1.81999 0.0999959 1.97 0.179997 2.09 0.289997C2.15 0.339997 2.16999 0.379996 2.16999 0.429996C2.16999 0.449997 2.17 0.469996 2.18 0.489996C2.19 0.519996 2.18999 0.539995 2.15999 0.549995C2.14999 0.549995 2.13999 0.549995 2.12999 0.549995ZM1.97999 0.519997C1.98999 0.519997 2.00999 0.519997 2.02999 0.529997C2.05999 0.539997 2.08999 0.549995 2.11999 0.549995C2.12999 0.549995 2.13999 0.549995 2.15999 0.549995C2.17999 0.549995 2.17999 0.529996 2.16999 0.499996C2.16999 0.479996 2.15999 0.459997 2.15999 0.439997C2.15999 0.389997 2.13999 0.349995 2.07999 0.299995C1.95999 0.189995 1.80999 0.109996 1.65999 0.0799961C1.59999 0.0699961 1.55999 0.0499971 1.53999 0.0399971C1.52999 0.0399971 1.52 0.0299969 1.52 0.0299969C1.52 0.0299969 1.52 0.0299971 1.51 0.0399971C1.49 0.0699971 1.49 0.119996 1.51 0.149996C1.52 0.169996 1.53999 0.169996 1.57999 0.169996C1.59999 0.169996 1.61 0.169996 1.63 0.179996C1.64 0.179996 1.64999 0.179996 1.65999 0.179996C1.70999 0.179996 1.78 0.189995 1.84 0.219995C1.9 0.249995 1.93 0.279996 1.93 0.319996C1.93 0.339996 1.91999 0.369996 1.90999 0.389996C1.89999 0.409996 1.89 0.429995 1.89 0.459995C1.88 0.519995 1.89 0.539997 1.89 0.539997C1.9 0.539997 1.91 0.539997 1.93 0.529997C1.95 0.519997 1.96999 0.519997 1.97999 0.519997C1.96999 0.519997 1.97999 0.519997 1.97999 0.519997Z" fill="#658710"/>
<path fill-rule="evenodd" clip-rule="evenodd" d="M2.17999 1.55C2.05999 1.59 2.00999 1.79 1.98999 1.97C1.97999 2.15 2.03999 2.26 2.05999 2.5C2.07999 2.74 2.01999 2.87 2.00999 3.09C1.99999 3.33 2.02999 3.49 2.07999 3.62C2.13999 3.75 2.13999 3.8 2.15999 4.03C2.17999 4.25 2.23999 4.39 2.29999 4.47C2.35999 4.56 2.45999 4.48 2.45999 4.42C2.44999 4.27 2.35999 4 2.34999 3.94C2.33999 3.88 2.26999 3.75 2.31999 3.61C2.36999 3.47 2.36999 3.26 2.34999 3.11C2.32999 2.97 2.31999 2.8 2.30999 2.71C2.30999 2.62 2.34999 2.35 2.35999 2.17C2.37999 1.99 2.35999 1.85 2.30999 1.71C2.28999 1.63 2.22999 1.53 2.17999 1.55Z" fill="#8CB727"/>
<path fill-rule="evenodd" clip-rule="evenodd" d="M2.01 0.279999C1.99 0.289999 2 0.349997 2.02 0.379997C2.04 0.409997 2.05 0.439999 2.08 0.449999C2.1 0.459999 2.15 0.459998 2.13 0.409998C2.11 0.369998 2.1 0.329998 2.07 0.319998C2.05 0.299998 2.02 0.279999 2.01 0.279999Z" fill="#91BD29"/>
<path fill-rule="evenodd" clip-rule="evenodd" d="M1.56999 0.0599976C1.54999 0.0699976 1.55 0.0899985 1.63 0.0999985C1.7 0.109998 1.78999 0.129997 1.78999 0.129997C1.78999 0.129997 1.65 0.089998 1.63 0.079998C1.6 0.069998 1.57999 0.0599976 1.56999 0.0599976Z" fill="#91BD29"/>
<path fill-rule="evenodd" clip-rule="evenodd" d="M2.12 1.83C2.15 1.77 2.23 1.75 2.28 1.81C2.32 1.85 2.33 2 2.32 2.08C2.31 2.19 2.31 2.24 2.25 2.25C2.18 2.27 2.15 2.16 2.13 2.07C2.12 2.04 2.09 1.89 2.12 1.83Z" fill="#9AC62C"/>
<path fill-rule="evenodd" clip-rule="evenodd" d="M2.09 2.93C2.12 2.87 2.2 2.85 2.25 2.91C2.29 2.95 2.3 3.1 2.29 3.18C2.28 3.29 2.28 3.34 2.22 3.35C2.15 3.37 2.12 3.26 2.1 3.17C2.1 3.15 2.06 2.99 2.09 2.93Z" fill="#9AC62C"/>
<path fill-rule="evenodd" clip-rule="evenodd" d="M2.25999 4.06C2.25999 4.06 2.26999 4.21 2.29999 4.27C2.32999 4.32 2.36999 4.38 2.37999 4.31C2.38999 4.23 2.37999 4.15 2.36999 4.11C2.34999 4.07 2.32999 4 2.28999 4C2.25999 4 2.25999 4.06 2.25999 4.06Z" fill="#9AC62C"/>
<path fill-rule="evenodd" clip-rule="evenodd" d="M1.75999 0.909996C1.76999 0.889996 1.77999 0.859996 1.79999 0.819996C1.81999 0.789996 1.85999 0.719996 1.87999 0.729996C1.88999 0.729996 1.89999 0.789996 1.85999 0.809996C1.82999 0.829996 1.77999 0.909996 1.76999 0.919996C1.75999 0.929996 1.75999 0.919996 1.75999 0.909996Z" fill="#C3D381"/>
<path fill-rule="evenodd" clip-rule="evenodd" d="M2.18 0.719999C2.17 0.729999 2.16 0.750001 2.19 0.790001C2.22 0.830001 2.24 0.869999 2.25 0.889999C2.26 0.909999 2.28 0.950001 2.3 0.940001C2.31 0.940001 2.28 0.79 2.27 0.77C2.27 0.75 2.24 0.719999 2.22 0.709999C2.21 0.709999 2.19 0.709999 2.18 0.719999Z" fill="#D6E28F"/>
<path fill-rule="evenodd" clip-rule="evenodd" d="M2.01 0.819998C2 0.829998 2 0.849997 2.01 0.889997C2.03 0.929997 2.03 0.989998 2.04 0.979998C2.05 0.979998 2.05 0.919997 2.05 0.879997C2.05 0.839997 2.04 0.819998 2.03 0.809998C2.02 0.799998 2.01 0.819998 2.01 0.819998Z" fill="#D6E28F"/>
<path fill-rule="evenodd" clip-rule="evenodd" d="M0.376572 3.27C0.376572 3.27 0.966572 3.63 1.03657 3.68C1.11657 3.72 1.54657 3.9 1.84657 4.04C2.14657 4.18 2.63657 4.34 2.86657 4.42C3.10657 4.5 3.38657 4.55 3.57657 4.67C3.76657 4.79 4.16657 4.92 4.16657 4.92C4.16657 4.92 4.27657 4.98 4.34657 4.99C4.41657 5.01 4.52657 5.04 4.52657 5.04C4.53657 5.04 4.61657 5.06 4.61657 5.06V5.02C4.61657 5.02 4.54657 5 4.47657 4.89C4.39657 4.78 4.30657 4.65 4.19657 4.53C4.08657 4.4 3.92657 4.23 3.78657 4.14C3.65657 4.05 3.35657 3.88 3.28657 3.84C3.21657 3.8 3.13657 3.75 2.94657 3.69C2.75657 3.63 2.37657 3.53 2.22657 3.51C2.07657 3.49 1.83657 3.47 1.73657 3.47C1.63657 3.48 1.51657 3.46 1.43657 3.44C1.35657 3.42 1.06657 3.38 0.996572 3.35C0.926573 3.33 0.766573 3.31 0.666573 3.3C0.566573 3.29 0.496571 3.27 0.436571 3.25C0.376571 3.23 0.346573 3.21 0.346573 3.21L0.376572 3.27Z" fill="#8AB21D"/>
<path fill-rule="evenodd" clip-rule="evenodd" d="M2.02657 3.76C2.02657 3.76 1.98657 3.67 1.96657 3.65C1.94657 3.63 1.93657 3.6 1.80657 3.59C1.67657 3.58 1.60657 3.57 1.55657 3.6C1.50657 3.63 1.45657 3.66 1.43657 3.74C1.41657 3.82 1.54657 3.92 1.54657 3.92L1.88657 4L2.00657 3.82L2.02657 3.76Z" fill="#B5D956"/>
<path fill-rule="evenodd" clip-rule="evenodd" d="M1.89656 3.84C1.84656 3.85 1.77656 3.85 1.72656 3.84C1.61656 3.82 1.48656 3.72 1.53656 3.6C1.48656 3.63 1.45656 3.66 1.42656 3.73C1.40656 3.81 1.53656 3.91 1.53656 3.91L1.87656 3.99L1.99656 3.81L2.00656 3.77C1.98656 3.81 1.93656 3.83 1.89656 3.84Z" fill="#98C43A"/>
<path fill-rule="evenodd" clip-rule="evenodd" d="M3.77657 4.71C3.77657 4.71 3.85657 4.69 3.87657 4.65C3.90657 4.6 3.94657 4.52 3.93657 4.46C3.92657 4.39 3.86657 4.32 3.79657 4.28C3.72657 4.24 3.64657 4.21 3.57657 4.22C3.51657 4.24 3.45657 4.27 3.42657 4.38C3.40657 4.49 3.46657 4.61 3.46657 4.61L3.77657 4.71Z" fill="#B5D956"/>
<path fill-rule="evenodd" clip-rule="evenodd" d="M3.58657 4.49C3.54657 4.46 3.44657 4.34 3.51657 4.24C3.47657 4.26 3.43657 4.3 3.42657 4.38C3.40657 4.49 3.46657 4.61 3.46657 4.61L3.76657 4.71C3.76657 4.71 3.84657 4.69 3.86657 4.65C3.88657 4.62 3.90657 4.58 3.91657 4.54C3.83657 4.62 3.63657 4.52 3.58657 4.49Z" fill="#98C43A"/>
<path fill-rule="evenodd" clip-rule="evenodd" d="M2.92657 4.27C2.92657 4.27 2.91657 4.21 2.93657 4.16C2.95657 4.1 3.01657 4.01 3.09657 3.99C3.17657 3.97 3.27657 3.95 3.35657 3.99C3.40657 4.01 3.46657 4.06 3.46657 4.16C3.47657 4.26 3.44657 4.38 3.38657 4.45C3.32657 4.52 3.14657 4.51 3.07657 4.45C2.99657 4.38 2.92657 4.27 2.92657 4.27Z" fill="#B5D956"/>
<path fill-rule="evenodd" clip-rule="evenodd" d="M3.46657 4.24C3.41657 4.33 3.28657 4.35 3.19657 4.31C3.14657 4.29 2.96657 4.2 3.01657 4.03C2.97657 4.07 2.94657 4.12 2.93657 4.16C2.91657 4.21 2.92657 4.27 2.92657 4.27C2.92657 4.27 2.99657 4.38 3.06657 4.44C3.13657 4.5 3.32657 4.51 3.37657 4.44C3.42657 4.4 3.45657 4.32 3.46657 4.24Z" fill="#98C43A"/>
<path fill-rule="evenodd" clip-rule="evenodd" d="M2.39658 4.11C2.39658 4.11 2.39657 4.03 2.43657 3.97C2.48657 3.9 2.55658 3.85 2.61658 3.84C2.66658 3.83 2.77658 3.84 2.84658 3.9C2.91658 3.95 2.94658 4.01 2.94658 4.07C2.94658 4.12 2.91658 4.23 2.89658 4.26C2.88658 4.29 2.63658 4.3 2.63658 4.3L2.39658 4.11Z" fill="#B5D956"/>
<path fill-rule="evenodd" clip-rule="evenodd" d="M2.66657 4.13C2.52657 4.06 2.50657 3.93 2.53657 3.88C2.49657 3.9 2.46657 3.94 2.43657 3.97C2.38657 4.04 2.39657 4.11 2.39657 4.11L2.64657 4.29C2.64657 4.29 2.89657 4.28 2.90657 4.25C2.91657 4.22 2.94657 4.13 2.95657 4.08C2.90657 4.17 2.75657 4.18 2.66657 4.13Z" fill="#98C43A"/>
<path fill-rule="evenodd" clip-rule="evenodd" d="M2.45658 3.97C2.45658 3.97 2.47658 3.87 2.44658 3.82C2.41658 3.77 2.39658 3.75 2.31658 3.72C2.23658 3.69 2.14658 3.67 2.07658 3.7C2.00658 3.73 1.95657 3.77 1.93657 3.82C1.91657 3.88 1.89658 3.99 1.89658 3.99L2.37658 4.17L2.45658 3.97Z" fill="#B5D956"/>
<path fill-rule="evenodd" clip-rule="evenodd" d="M2.39658 3.98C2.34658 4.01 2.25658 4 2.19658 3.98C2.14658 3.97 1.95658 3.9 1.99658 3.74C1.96658 3.76 1.94657 3.79 1.93657 3.82C1.91657 3.88 1.89658 3.99 1.89658 3.99L2.37658 4.17L2.45658 3.97C2.45658 3.97 2.45658 3.95 2.46658 3.92C2.44658 3.94 2.42658 3.96 2.39658 3.98Z" fill="#98C43A"/>
<path fill-rule="evenodd" clip-rule="evenodd" d="M4.59657 5.04C4.59657 5.04 4.43657 4.99 4.35657 4.95C4.20657 4.89 3.84657 4.67 3.66657 4.58C3.58657 4.54 3.12657 4.33 2.80657 4.22C2.45657 4.1 2.05657 4 1.69657 3.88C1.34657 3.77 1.10657 3.65 0.916571 3.55C0.726571 3.46 0.426571 3.25 0.426571 3.25C0.426571 3.25 0.40657 3.28 0.40657 3.3C0.40657 3.32 0.44657 3.34 0.53657 3.41C0.61657 3.47 1.41657 4.01 1.59657 4.11C1.75657 4.19 2.18657 4.3 2.30657 4.33C2.41657 4.36 2.46657 4.4 2.56657 4.44C2.63657 4.47 2.76657 4.48 2.81657 4.5C2.86657 4.52 2.93657 4.57 3.01657 4.6C3.09657 4.64 3.23657 4.66 3.25657 4.67C3.28657 4.68 3.37657 4.75 3.50657 4.8C3.59657 4.84 3.70657 4.85 3.83657 4.88C3.96657 4.91 3.94657 4.91 4.17657 4.96C4.40657 5.01 4.57657 5.05 4.57657 5.05C4.57657 5.05 4.58657 5.05 4.59657 5.06C4.60657 5.07 4.63657 5.08 4.64657 5.08C4.65657 5.08 4.69657 5.07 4.68657 5.02C4.68657 5.01 4.67657 5 4.67657 5L4.59657 5.04Z" fill="#809E00"/>
<path fill-rule="evenodd" clip-rule="evenodd" d="M4.67657 5.03C4.67657 5.02 4.66657 5.01 4.66657 5.01L4.59657 5.04C4.59657 5.04 4.43657 4.99 4.35657 4.95C4.34657 4.95 3.72657 4.83 3.52657 4.73C3.43657 4.68 3.36657 4.62 3.25657 4.59C3.09657 4.55 2.94657 4.45 2.82657 4.42C2.58657 4.36 2.38657 4.26 2.32657 4.24C1.89657 4.11 1.75657 4.14 1.32657 3.86C1.22657 3.79 0.936567 3.62 0.826567 3.55C0.656567 3.43 0.406567 3.26 0.406567 3.26C0.406567 3.26 0.386566 3.29 0.386566 3.31C0.386566 3.33 0.426565 3.35 0.516565 3.42C0.596565 3.48 1.39657 4.02 1.57657 4.12C1.73657 4.2 2.16657 4.31 2.28657 4.34C2.39657 4.37 2.44657 4.41 2.54657 4.45C2.61657 4.48 2.74657 4.49 2.79657 4.51C2.84657 4.53 2.91657 4.58 2.99657 4.61C3.07657 4.65 3.21657 4.67 3.23657 4.68C3.26657 4.69 3.35657 4.76 3.48657 4.81C3.57657 4.85 3.68657 4.86 3.81657 4.89C3.94657 4.92 3.92657 4.92 4.15657 4.97C4.38657 5.02 4.55657 5.06 4.55657 5.06C4.55657 5.06 4.56657 5.06 4.57657 5.07C4.58657 5.08 4.61657 5.09 4.62657 5.09C4.65657 5.09 4.69657 5.07 4.67657 5.03Z" fill="#759B19"/>
<path d="M4.64657 5.09C4.64657 5.09 4.63657 5.09 4.64657 5.09C4.63657 5.09 4.60657 5.08 4.59657 5.07C4.58657 5.06 4.57657 5.06 4.57657 5.06C4.57657 5.06 4.39657 5.02 4.17657 4.97C4.05657 4.94 4.00657 4.93 3.96657 4.92C3.92657 4.91 3.89657 4.9 3.83657 4.89C3.80657 4.88 3.77657 4.88 3.74657 4.87C3.65657 4.85 3.57657 4.84 3.51657 4.81C3.43657 4.78 3.36657 4.73 3.31657 4.71C3.29657 4.7 3.27657 4.69 3.26657 4.68C3.25657 4.68 3.24657 4.67 3.21657 4.67C3.16657 4.66 3.07657 4.64 3.01657 4.61C2.97657 4.59 2.93657 4.57 2.90657 4.55C2.87657 4.53 2.84657 4.51 2.81657 4.5C2.79657 4.49 2.75657 4.48 2.70657 4.48C2.65657 4.47 2.59657 4.46 2.55657 4.45C2.51657 4.43 2.47657 4.42 2.44657 4.4C2.40657 4.38 2.36657 4.36 2.30657 4.34C2.27657 4.33 2.22657 4.32 2.16657 4.3C1.98657 4.25 1.71657 4.18 1.59657 4.11C1.42657 4.02 0.62657 3.48 0.53657 3.41C0.50657 3.39 0.48657 3.37 0.46657 3.36C0.42657 3.33 0.40657 3.32 0.40657 3.3C0.40657 3.28 0.426571 3.25 0.426571 3.25C0.426571 3.25 0.726571 3.46 0.916571 3.55C1.10657 3.65 1.34657 3.76 1.69657 3.87C1.84657 3.92 1.99657 3.96 2.14657 4C2.36657 4.06 2.59657 4.13 2.80657 4.2C3.16657 4.32 3.66657 4.56 3.66657 4.56C3.74657 4.6 3.85657 4.66 3.96657 4.72C4.11657 4.8 4.26657 4.89 4.35657 4.93C4.43657 4.96 4.58657 5.01 4.59657 5.02L4.65657 4.99C4.65657 4.99 4.66657 5 4.66657 5.01C4.67657 5.03 4.66657 5.04 4.66657 5.05C4.66657 5.09 4.65657 5.09 4.64657 5.09ZM0.416571 3.26C0.416571 3.27 0.40657 3.29 0.40657 3.3C0.40657 3.31 0.42657 3.33 0.46657 3.35C0.48657 3.36 0.50657 3.38 0.53657 3.4C0.62657 3.47 1.42657 4.01 1.59657 4.1C1.71657 4.16 1.98657 4.24 2.16657 4.28C2.22657 4.3 2.27657 4.31 2.30657 4.32C2.36657 4.34 2.40657 4.36 2.44657 4.38C2.47657 4.4 2.51657 4.41 2.55657 4.43C2.59657 4.44 2.64657 4.45 2.69657 4.46C2.73657 4.47 2.77657 4.48 2.80657 4.48C2.83657 4.49 2.86657 4.51 2.89657 4.53C2.92657 4.55 2.96657 4.57 3.00657 4.59C3.06657 4.62 3.15657 4.64 3.20657 4.65C3.22657 4.66 3.24657 4.66 3.25657 4.66C3.26657 4.66 3.28657 4.67 3.30657 4.69C3.35657 4.72 3.42657 4.76 3.50657 4.79C3.56657 4.82 3.64657 4.83 3.73657 4.85C3.76657 4.86 3.79657 4.86 3.82657 4.87C3.88657 4.88 3.91657 4.89 3.95657 4.9C3.99657 4.91 4.04657 4.93 4.16657 4.95C4.39657 5 4.56657 5.04 4.56657 5.04C4.56657 5.04 4.57657 5.04 4.59657 5.05C4.60657 5.06 4.63657 5.07 4.63657 5.07C4.64657 5.07 4.65657 5.06 4.66657 5.05C4.67657 5.04 4.67657 5.03 4.66657 5.02C4.66657 5.01 4.65657 5.01 4.65657 5L4.59657 5.04C4.59657 5.04 4.43657 4.99 4.35657 4.95C4.26657 4.92 4.11657 4.83 3.96657 4.74C3.85657 4.68 3.74657 4.62 3.66657 4.58C3.66657 4.58 3.16657 4.34 2.80657 4.22C2.59657 4.15 2.36657 4.08 2.14657 4.02C1.99657 3.98 1.83657 3.93 1.69657 3.89C1.34657 3.78 1.10657 3.66 0.916571 3.57C0.726571 3.47 0.456571 3.28 0.416571 3.26Z" fill="#759B19"/>
<path fill-rule="evenodd" clip-rule="evenodd" d="M0.416565 3.25C0.416565 3.25 0.586565 3.29 0.736565 3.32C0.966565 3.36 1.37656 3.47 1.72656 3.49C1.88656 3.5 2.43656 3.54 2.86656 3.68C3.10656 3.76 3.51656 3.98 3.72656 4.13C3.90656 4.26 4.11656 4.45 4.19656 4.54C4.27656 4.63 4.45656 4.86 4.49656 4.92C4.53656 4.98 4.57657 5.02 4.59657 5.04C4.65657 5.09 4.68656 5.04 4.65656 5C4.65656 5 4.58656 4.99 4.52656 4.91C4.46656 4.83 4.34656 4.66 4.24656 4.54C4.14656 4.42 3.94656 4.19 3.72656 4.06C3.51656 3.93 3.17656 3.62 2.31656 3.49C2.06656 3.45 1.43656 3.42 1.14656 3.36C0.876564 3.31 0.546564 3.29 0.446564 3.21C0.426564 3.2 0.416565 3.25 0.416565 3.25Z" fill="#A6CD3B"/>
<path d="M4.64656 5.07C4.63656 5.07 4.61656 5.06 4.60656 5.05C4.58656 5.03 4.54657 4.99 4.50657 4.94C4.46657 4.88 4.29656 4.66 4.20656 4.56C4.12656 4.47 3.91656 4.28 3.73656 4.15C3.52656 4 3.11656 3.78 2.87656 3.7C2.46656 3.57 1.94656 3.52 1.73656 3.51C1.48656 3.49 1.20656 3.43 0.986565 3.39C0.896565 3.37 0.806565 3.35 0.746565 3.34C0.596565 3.31 0.426565 3.27 0.426565 3.27C0.426565 3.26 0.436564 3.22 0.456564 3.22C0.456564 3.22 0.456564 3.22 0.466564 3.22C0.536564 3.27 0.706564 3.3 0.896564 3.32C0.986565 3.33 1.08657 3.35 1.17657 3.37C1.35657 3.41 1.66656 3.43 1.93656 3.46C2.09656 3.48 2.25657 3.49 2.34657 3.5C3.08657 3.6 3.44656 3.85 3.65656 4C3.69656 4.03 3.73656 4.05 3.76656 4.07C3.96656 4.19 4.14656 4.39 4.28656 4.55C4.35656 4.63 4.42656 4.73 4.48656 4.81C4.51656 4.86 4.54656 4.9 4.57656 4.93C4.62656 5 4.67656 5.01 4.69656 5.02C4.70656 5.02 4.70656 5.02 4.70656 5.02C4.71656 5.03 4.72656 5.05 4.71656 5.07C4.67656 5.07 4.66656 5.07 4.64656 5.07ZM0.416565 3.25C0.436565 3.26 0.596565 3.3 0.736565 3.32C0.806565 3.33 0.886564 3.35 0.976564 3.37C1.19656 3.42 1.47656 3.48 1.72656 3.49C1.93656 3.5 2.45656 3.55 2.86656 3.68C3.11656 3.76 3.51656 3.98 3.73656 4.13C3.91656 4.26 4.12656 4.45 4.20656 4.54C4.28656 4.64 4.46657 4.86 4.50657 4.92C4.54657 4.98 4.58656 5.01 4.60656 5.03C4.62656 5.05 4.63656 5.05 4.64656 5.05C4.65656 5.05 4.66656 5.05 4.66656 5.04C4.67657 5.03 4.66656 5.01 4.65656 5C4.65656 5 4.65656 5 4.64656 5C4.62656 4.99 4.57656 4.98 4.52656 4.91C4.50656 4.88 4.47656 4.84 4.43656 4.79C4.37656 4.71 4.30656 4.61 4.24656 4.53C4.10656 4.37 3.92656 4.17 3.72656 4.05C3.69656 4.03 3.65656 4.01 3.61656 3.98C3.40656 3.83 3.04656 3.59 2.30656 3.48C2.20656 3.47 2.05656 3.45 1.89656 3.44C1.62656 3.42 1.31656 3.39 1.13656 3.35C1.04656 3.33 0.956564 3.32 0.866564 3.3C0.676564 3.27 0.506563 3.25 0.436563 3.19C0.436563 3.21 0.426565 3.24 0.416565 3.25Z" fill="#7AA610"/>
<path fill-rule="evenodd" clip-rule="evenodd" d="M0.286563 3.26C0.336563 3.3 0.346563 3.3 0.366563 3.35C0.406563 3.44 0.516563 3.47 0.516563 3.47C0.516563 3.47 0.446565 3.39 0.426565 3.36C0.406565 3.32 0.416564 3.25 0.416564 3.25C0.416564 3.25 0.426564 3.21 0.486564 3.2C0.536564 3.2 0.566565 3.18 0.586565 3.16C0.606565 3.14 0.616563 3.08 0.606563 3.11C0.576563 3.15 0.526564 3.15 0.486564 3.17C0.456564 3.18 0.426565 3.19 0.346565 3.16C0.266565 3.13 0.226564 3.11 0.216564 3.08C0.136564 2.98 0.056563 2.99 0.016563 3.05C0.00656296 3.07 0.00656319 3.14 0.0265632 3.17C0.0465632 3.2 0.096564 3.22 0.146564 3.22C0.166564 3.22 0.236563 3.23 0.286563 3.26Z" fill="#83BD05"/>
<path d="M0.516567 3.48C0.516567 3.48 0.406568 3.45 0.366568 3.36C0.346568 3.31 0.336568 3.31 0.296568 3.28H0.286568C0.246568 3.25 0.186569 3.24 0.156569 3.24H0.146569C0.136569 3.24 0.136568 3.24 0.126568 3.24C0.0765681 3.24 0.0365677 3.22 0.0265677 3.19C0.00656772 3.16 0.00656749 3.09 0.0165675 3.07C0.0365675 3.04 0.0665676 3.02 0.106568 3.02C0.136568 3.02 0.176568 3.03 0.226568 3.1C0.246568 3.13 0.286568 3.15 0.356568 3.18C0.386568 3.19 0.416568 3.2 0.436568 3.2C0.456568 3.2 0.476569 3.19 0.486569 3.19C0.496569 3.19 0.506567 3.18 0.516567 3.18C0.546567 3.17 0.576568 3.16 0.606568 3.13L0.616568 3.12C0.616568 3.13 0.606569 3.16 0.586569 3.18C0.566569 3.2 0.536569 3.22 0.486569 3.22C0.426569 3.22 0.426569 3.26 0.426569 3.26C0.426569 3.26 0.416568 3.33 0.436568 3.37C0.446568 3.39 0.516567 3.46 0.516567 3.48C0.516567 3.47 0.516567 3.47 0.516567 3.48ZM0.156569 3.22C0.186569 3.22 0.246568 3.23 0.296568 3.26H0.306568C0.356568 3.29 0.356568 3.3 0.376568 3.35C0.406568 3.42 0.476569 3.46 0.506569 3.46C0.486569 3.44 0.436569 3.38 0.426569 3.36C0.406569 3.32 0.416569 3.25 0.416569 3.25C0.416569 3.25 0.426569 3.2 0.486569 3.2C0.546569 3.2 0.566569 3.18 0.586569 3.16C0.606569 3.14 0.606568 3.12 0.616568 3.11C0.596568 3.14 0.556568 3.15 0.526568 3.16C0.516568 3.16 0.506569 3.17 0.496569 3.17C0.476569 3.18 0.466568 3.18 0.436568 3.18C0.416568 3.18 0.386569 3.17 0.346569 3.16C0.266569 3.13 0.226568 3.11 0.206568 3.08C0.156568 3.02 0.116569 3 0.0865691 3C0.0565691 3 0.0265692 3.02 0.00656917 3.05C-0.00343083 3.07 -0.00343251 3.14 0.0165675 3.16C0.0365675 3.18 0.0665679 3.21 0.116568 3.21C0.126568 3.21 0.126568 3.21 0.136568 3.21C0.146568 3.22 0.146569 3.22 0.156569 3.22Z" fill="#74A70F"/>
<path fill-rule="evenodd" clip-rule="evenodd" d="M0.426565 3.37C0.426565 3.37 0.426565 3.36 0.426565 3.37C0.416565 3.36 0.406564 3.35 0.406564 3.34C0.366564 3.25 0.276564 3.2 0.246564 3.2C0.186564 3.18 0.106564 3.2 0.0565639 3.14C0.0365639 3.12 0.0265637 3.09 0.0465637 3.03C0.0365637 3.04 0.026563 3.05 0.016563 3.06C0.00656296 3.08 0.00656319 3.15 0.0265632 3.18C0.0465632 3.21 0.096564 3.23 0.146564 3.23C0.166564 3.23 0.246564 3.23 0.296564 3.27C0.346564 3.31 0.356564 3.31 0.376564 3.36C0.416564 3.45 0.526563 3.48 0.526563 3.48C0.526563 3.48 0.446565 3.39 0.426565 3.37Z" fill="#74A70F"/>
<path fill-rule="evenodd" clip-rule="evenodd" d="M0.096561 3.05C0.106561 3.04 0.136561 3.04 0.156561 3.06C0.176561 3.08 0.16656 3.08 0.20656 3.11C0.24656 3.14 0.29656 3.17 0.29656 3.17C0.29656 3.17 0.24656 3.16 0.21656 3.15C0.18656 3.14 0.126559 3.14 0.106559 3.13C0.0965594 3.12 0.056561 3.08 0.096561 3.05Z" fill="#9ED513"/>
<path fill-rule="evenodd" clip-rule="evenodd" d="M3.59657 4.29C3.62657 4.26 3.72656 4.28 3.76656 4.3C3.80656 4.32 3.86656 4.35 3.87656 4.41C3.88656 4.46 3.85657 4.5 3.81657 4.51C3.75657 4.52 3.64656 4.5 3.61656 4.45C3.57656 4.39 3.54657 4.33 3.59657 4.29Z" fill="#C8E667"/>
<path fill-rule="evenodd" clip-rule="evenodd" d="M3.14657 4.04C3.16657 4 3.25657 4 3.29657 4.01C3.33657 4.02 3.39657 4.04 3.41657 4.09C3.43657 4.14 3.41657 4.2 3.38657 4.22C3.33657 4.25 3.22657 4.24 3.18657 4.2C3.14657 4.16 3.11657 4.11 3.14657 4.04Z" fill="#C8E667"/>
<path fill-rule="evenodd" clip-rule="evenodd" d="M2.63656 3.91C2.65656 3.87 2.73656 3.87 2.77656 3.88C2.80656 3.89 2.86656 3.91 2.88656 3.96C2.90656 4.01 2.88656 4.06 2.85656 4.08C2.80656 4.11 2.70657 4.09 2.66657 4.06C2.62657 4.02 2.59656 3.97 2.63656 3.91Z" fill="#C8E667"/>
<path fill-rule="evenodd" clip-rule="evenodd" d="M2.14657 3.74C2.17657 3.71 2.26657 3.73 2.29657 3.74C2.32657 3.76 2.38657 3.79 2.39657 3.84C2.40657 3.89 2.37657 3.93 2.33657 3.94C2.27657 3.95 2.17657 3.92 2.13657 3.87C2.11657 3.83 2.09657 3.78 2.14657 3.74Z" fill="#C8E667"/>
<path fill-rule="evenodd" clip-rule="evenodd" d="M1.65657 3.64C1.68657 3.61 1.74657 3.62 1.78657 3.63C1.82657 3.64 1.90657 3.63 1.92657 3.68C1.93657 3.72 1.91657 3.77 1.87657 3.78C1.82657 3.8 1.71657 3.79 1.67657 3.75C1.63657 3.72 1.61657 3.68 1.65657 3.64Z" fill="#C8E667"/>
<path fill-rule="evenodd" clip-rule="evenodd" d="M1.73657 3.66C1.75657 3.65 1.78657 3.65 1.80657 3.66C1.82657 3.67 1.87657 3.66 1.88657 3.69C1.89657 3.71 1.87656 3.74 1.85656 3.75C1.82656 3.76 1.76657 3.75 1.74657 3.74C1.72657 3.71 1.70657 3.68 1.73657 3.66Z" fill="#D6F25F"/>
<path fill-rule="evenodd" clip-rule="evenodd" d="M2.22658 3.76C2.24658 3.75 2.27658 3.76 2.29658 3.77C2.31658 3.78 2.36657 3.79 2.36657 3.82C2.36657 3.84 2.34658 3.87 2.32658 3.87C2.29658 3.87 2.23658 3.85 2.22658 3.83C2.20658 3.8 2.19658 3.77 2.22658 3.76Z" fill="#D6F25F"/>
<path fill-rule="evenodd" clip-rule="evenodd" d="M2.72657 3.9C2.74657 3.89 2.77657 3.9 2.78657 3.91C2.80657 3.92 2.84657 3.92 2.84657 3.96C2.84657 3.98 2.82657 4.01 2.80657 4.01C2.77657 4.01 2.72657 3.99 2.71657 3.97C2.70657 3.94 2.69657 3.91 2.72657 3.9Z" fill="#D6F25F"/>
<path fill-rule="evenodd" clip-rule="evenodd" d="M3.69656 4.31C3.71656 4.3 3.74656 4.3 3.75656 4.31C3.77656 4.32 3.81656 4.33 3.81656 4.36C3.81656 4.38 3.79656 4.4 3.77656 4.4C3.74656 4.4 3.69656 4.38 3.68656 4.36C3.66656 4.35 3.66656 4.33 3.69656 4.31Z" fill="#D6F25F"/>
<path fill-rule="evenodd" clip-rule="evenodd" d="M3.25657 4.04C3.27657 4.03 3.31657 4.03 3.32657 4.04C3.34657 4.05 3.37657 4.07 3.37657 4.1C3.37657 4.12 3.35657 4.15 3.33657 4.15C3.30657 4.15 3.25657 4.13 3.24657 4.11C3.23657 4.09 3.22657 4.06 3.25657 4.04Z" fill="#D6F25F"/>
</svg>
