<svg width="49" height="24" viewBox="0 0 49 24" fill="none" xmlns="http://www.w3.org/2000/svg">
<path d="M42.11 3.90996C42.11 3.90996 45.71 1.12999 46.47 1.50999C47.24 1.88999 47.43 4.51996 48.39 4.72996C45.86 5.55996 43.69 6.08 43.69 6.08L41.56 5.03001L42.11 3.90996Z" fill="#719929"/>
<path d="M43.96 7.36999C43.96 7.36999 48.02 7.20002 48.13 7.52002C48.24 7.84002 48.05 9.50002 48.54 11.09C46.42 10.97 43.25 10.42 43.25 10.42L43.96 7.36999Z" fill="#6B9127"/>
<path d="M43.91 6.17999C43.91 6.17999 45.01 9.37998 46.78 11.04C48.55 12.7 47.66 12.9 47.66 12.9L47.22 13.8C47.22 13.8 43.61 11.55 41.7 11.77C39.79 11.99 37.48 10.43 37.48 10.43L43.91 6.17999Z" fill="#7EAB2E"/>
<path d="M42 6.40005C42 6.40005 43.29 2.27001 44.33 1.67001C45.37 1.07001 45.56 0.790002 45.56 0.790002C45.56 0.790002 43.53 -0.579974 42.92 0.440026C42.31 1.47003 39.56 2.75 38.84 5.16C38.13 7.57 38.41 7.21999 38.41 7.21999L42 6.40005Z" fill="#7EAB2E"/>
<path d="M38.34 5.21995C38.34 5.21995 39.47 3.92996 41.05 4.28996C42.63 4.63996 45.9901 3.81999 46.3901 4.00999C46.7901 4.20999 46.65 6.50998 47.09 6.93998C47.53 7.36998 45.91 7.63998 44.46 7.93998C43.01 8.22998 41.37 9.32999 39.8 9.62999C38.23 9.92999 38.34 5.21995 38.34 5.21995Z" fill="#85B336"/>
<path d="M14.35 9.87001C7.73001 13.61 0.14999 19.32 0.57999 20.17C1.00999 21.02 9.46001 23.47 14.98 22.38C20.5 21.29 35.86 12.94 37.98 11.86C40.1 10.78 40.3 9.50999 40.02 7.71999C39.73 5.92999 38.49 5.00003 37.43 5.01003C36.37 5.02003 20.97 6.13001 14.35 9.87001Z" fill="#C7C562"/>
<path d="M33.83 7.15999C34.28 8.24999 34.4 8.81 34.11 8.86C33.82 8.91 33.6 7.74003 33.02 7.08003C32.44 6.42003 32.72 5.98004 33.01 6.02004C33.31 6.06004 33.61 6.61999 33.83 7.15999Z" fill="#DED095"/>
<path d="M34.62 11.9001C34.31 11.8701 34.42 12.81 34.58 13.64C34.76 13.55 34.93 13.46 35.1 13.37C35.1 12.61 35 11.9401 34.62 11.9001Z" fill="#DED095"/>
<path d="M28.33 13.15C28.43 12.79 29.45 15.19 28.94 15.57C28.43 15.96 28.21 13.62 28.33 13.15Z" fill="#DED095"/>
<path d="M26.14 7.7C26.66 7.69 28.29 9.35998 28.23 10.56C28.17 11.75 27.94 11.48 27.83 10.95C27.72 10.42 27.56 9.32996 27.12 8.84996C26.66 8.34996 25.44 7.71 26.14 7.7Z" fill="#DED095"/>
<path d="M22.21 10.08C22.5 10.63 23.55 12.97 23.29 13.37C23.04 13.78 22.72 13.67 22.78 13.12C22.84 12.57 22.45 10.99 22 10.51C21.55 10.02 22.07 9.82003 22.21 10.08Z" fill="#DED095"/>
<path d="M37.41 7.53995C37.76 8.44995 38.18 9.21997 37.72 9.48997C37.27 9.75997 36.97 6.37995 37.41 7.53995Z" fill="#E6D89A"/>
<path d="M30 7.28003C30.15 7.19003 29.54 6.47001 28.99 5.89001C28.91 5.90001 28.83 5.90999 28.75 5.92999C29.21 6.58999 29.79 7.41003 30 7.28003Z" fill="#E6D89A"/>
<path d="M17.73 8.40002C17.57 8.46002 17.41 8.51001 17.25 8.57001C18.52 9.27001 19.08 10.44 19.33 10.22C19.56 10.01 18.77 9.08002 17.73 8.40002Z" fill="#E6D89A"/>
<path d="M20.97 16.15C21.25 16.18 22.51 18.38 21.42 19.46C21.16 19.64 21.13 18.94 21.32 18.34C21.51 17.75 20.31 16.09 20.97 16.15Z" fill="#E6D89A"/>
<path d="M15.22 12.32C14.79 13.17 14.22 14.03 15.09 14.74C15.96 15.45 16.87 15.58 17.01 14.96C17.15 14.34 17.99 12.31 17.92 12.01C17.85 11.7 15.43 11.89 15.22 12.32Z" fill="#D9CB91"/>
<path d="M12.98 15.78C12.3 16.48 12.22 17.77 13.14 18.25C14.04 18.72 14.9 18.01 15.34 17.5C15.76 17.02 16.53 16.1 15.62 15.81C14.71 15.51 13.23 15.53 12.98 15.78Z" fill="#E6D89A"/>
<path d="M18.66 17.28C17.14 17.16 15.38 17.17 15.41 18.61C15.44 20.06 16.61 20.37 17.06 20.54C17.51 20.71 18.1501 18.95 18.4501 18.68C18.7501 18.4 19.06 17.31 18.66 17.28Z" fill="#D9CB91"/>
<path d="M11.54 12.78C10.54 12.32 9.37002 13.2 9.21002 14.07C9.05002 14.94 10.13 16.18 10.52 16.37C10.9 16.56 12.27 15.49 12.63 14.74C12.73 14.54 12.86 13.4 11.54 12.78Z" fill="#DED095"/>
<path d="M8.73 16.31C8.34 17.23 7.33998 18.73 6.60998 18.37C5.87998 18.01 5.12999 16.74 5.39999 16.31C5.65999 15.88 6.95998 15.05 7.79998 15.04C8.96998 15.04 9.03 15.61 8.73 16.31Z" fill="#E8DBA5"/>
<path d="M10.88 18.3C9.63002 18.18 8.81002 18.08 8.63002 19C8.45002 19.92 9.18 20.7 9.8 20.95C10.42 21.2 11.12 20.27 11.61 19.62C12.11 18.95 11.58 18.36 10.88 18.3Z" fill="#DED095"/>
<path d="M14.05 20.33C12.59 20.1 11.85 20.45 11.62 21.35C11.39 22.25 12.19 22.68 13.04 22.61C13.89 22.54 15.28 21.25 15.32 20.95C15.35 20.66 14.85 20.46 14.05 20.33Z" fill="#E6D89A"/>
<path d="M7.17999 20.03C6.07999 19.83 5.38001 19.68 4.79001 20.65C4.21001 21.62 4.80001 21.51 5.98001 21.87C7.16001 22.24 7.87 21.85 8.12 21.23C8.37 20.61 8.17999 20.21 7.17999 20.03Z" fill="#E0D396"/>
<path d="M3.92999 17.57C4.78999 17.69 5.59 17.98 5.19 18.68C4.79 19.38 3.60999 21.02 2.54999 20.58C1.48999 20.14 1.36 19.35 2.06 18.78C2.76 18.22 3.43999 17.5 3.92999 17.57Z" fill="#E6D89A"/>
<path d="M15.16 10.93C15.1 11.88 14.1401 13.8 13.6401 13.64C13.1401 13.48 11.71 12.66 12.13 11.79C12.55 10.93 15.23 9.74998 15.16 10.93Z" fill="#DED095"/>
<path d="M25.11 15.13C23.13 15.82 22.27 17.92 23.48 20.04C23.71 20.44 23.54 21.18 24.08 21.64C25.84 23.17 29.88 24.46 33.29 23.5C36.37 22.64 38.12 21.76 38.24 20.29C38.29 19.7 38.04 19.14 38.66 18.31C39.52 17.14 38.49 15.19 36.95 14.6C36.17 14.3 35.08 13.76 34.37 13.38C31.91 12.07 28.75 12.54 26.71 13.6C26.12 13.9 25.76 14.91 25.11 15.13Z" fill="#709134"/>
<path d="M26.27 15.31C24.44 16.13 22.95 19.54 27.31 20.49C27.33 20.49 27.35 20.51 27.36 20.52C28.26 21.82 32.52 22.7 34.82 20.23C34.83 20.22 34.84 20.21 34.86 20.21C38.23 19.96 38.38 15.8 36.2 15.49C37.25 13.84 34.3 12.35 32.6 13.18C32.55 13.2 32.48 13.2 32.45 13.16C30.54 11.35 26.05 13.46 26.37 15.14C26.39 15.22 26.35 15.28 26.27 15.31Z" fill="#799940"/>
<path d="M28.2 12.75C26.54 13.46 26.64 16.14 29.4 16.88C32.16 17.62 33.46 15.96 33.51 14.85C33.56 13.74 32.94 12.44 31.59 12.31C30.24 12.17 29.77 11.7 29.87 11.1C28.93 11.47 27.94 12.15 28.2 12.75Z" fill="#86A64A"/>
</svg>
